<svg width="22" height="34" viewBox="0 0 22 34" fill="none" xmlns="http://www.w3.org/2000/svg">
<path fill-rule="evenodd" clip-rule="evenodd" d="M0.676298 32.3286C0.461921 32.1164 0.291835 31.8642 0.175785 31.5865C0.0597339 31.3089 -1.97574e-07 31.0113 -2.27437e-07 30.7107C-2.57299e-07 30.4101 0.0597338 30.1125 0.175784 29.8349C0.291835 29.5572 0.461921 29.305 0.676298 29.0928L12.8631 16.9994L0.676295 4.90603C0.244041 4.47693 0.00120236 3.89494 0.0012023 3.2881C0.00120225 2.68126 0.244041 2.09927 0.676295 1.67017C1.10855 1.24106 1.69481 1 2.30611 1C2.91741 1 3.50368 1.24106 3.93593 1.67017L17.7479 15.3815C17.9623 15.5937 18.1324 15.8459 18.2485 16.1236C18.3645 16.4012 18.4242 16.6988 18.4242 16.9994C18.4242 17.3 18.3645 17.5976 18.2485 17.8752C18.1324 18.1529 17.9623 18.4051 17.7479 18.6173L3.93593 32.3286C3.7221 32.5414 3.46807 32.7103 3.1884 32.8255C2.90873 32.9407 2.60891 33 2.30612 33C2.00332 33 1.7035 32.9407 1.42383 32.8255C1.14416 32.7103 0.890134 32.5414 0.676298 32.3286Z" fill="black"/>
<path fill-rule="evenodd" clip-rule="evenodd" d="M2.6763 32.3286C2.46192 32.1164 2.29184 31.8642 2.17578 31.5865C2.05973 31.3089 2 31.0113 2 30.7107C2 30.4101 2.05973 30.1125 2.17578 29.8349C2.29183 29.5572 2.46192 29.305 2.6763 29.0928L14.8631 16.9994L2.6763 4.90603C2.24404 4.47693 2.0012 3.89494 2.0012 3.2881C2.0012 2.68126 2.24404 2.09927 2.6763 1.67017C3.10855 1.24106 3.69481 1 4.30611 1C4.91741 1 5.50368 1.24106 5.93593 1.67017L19.7479 15.3815C19.9623 15.5937 20.1324 15.8459 20.2485 16.1236C20.3645 16.4012 20.4242 16.6988 20.4242 16.9994C20.4242 17.3 20.3645 17.5976 20.2485 17.8752C20.1324 18.1529 19.9623 18.4051 19.7479 18.6173L5.93593 32.3286C5.7221 32.5414 5.46807 32.7103 5.1884 32.8255C4.90873 32.9407 4.60891 33 4.30612 33C4.00332 33 3.7035 32.9407 3.42383 32.8255C3.14416 32.7103 2.89013 32.5414 2.6763 32.3286Z" fill="white" stroke="black" stroke-width="2"/>
</svg>
