<svg width="22" height="34" viewBox="0 0 22 34" fill="none" xmlns="http://www.w3.org/2000/svg">
<path fill-rule="evenodd" clip-rule="evenodd" d="M20.7475 1.67137C20.9619 1.88364 21.132 2.13582 21.248 2.41345C21.3641 2.69108 21.4238 2.98872 21.4238 3.2893C21.4238 3.58989 21.3641 3.88752 21.248 4.16515C21.132 4.44278 20.9619 4.69496 20.7475 4.90723L8.56073 17.0006L20.7475 29.094C21.1798 29.5231 21.4226 30.1051 21.4226 30.7119C21.4226 31.3187 21.1798 31.9007 20.7475 32.3298C20.3153 32.7589 19.729 33 19.1177 33C18.5064 33 17.9201 32.7589 17.4879 32.3298L3.67588 18.6185C3.46151 18.4063 3.29142 18.1541 3.17537 17.8764C3.05932 17.5988 2.99958 17.3012 2.99958 17.0006C2.99958 16.7 3.05932 16.4024 3.17537 16.1248C3.29142 15.8471 3.46151 15.5949 3.67588 15.3827L17.4879 1.67137C17.7017 1.45855 17.9558 1.28971 18.2354 1.1745C18.5151 1.0593 18.8149 1 19.1177 1C19.4205 1 19.7203 1.0593 20 1.1745C20.2797 1.28971 20.5337 1.45855 20.7475 1.67137Z" fill="black"/>
<path fill-rule="evenodd" clip-rule="evenodd" d="M18.7475 1.67137C18.9619 1.88364 19.132 2.13582 19.248 2.41345C19.3641 2.69108 19.4238 2.98872 19.4238 3.2893C19.4238 3.58989 19.3641 3.88752 19.248 4.16515C19.132 4.44278 18.9619 4.69496 18.7475 4.90723L6.56073 17.0006L18.7475 29.094C19.1798 29.5231 19.4226 30.1051 19.4226 30.7119C19.4226 31.3187 19.1798 31.9007 18.7475 32.3298C18.3153 32.7589 17.729 33 17.1177 33C16.5064 33 15.9201 32.7589 15.4879 32.3298L1.67588 18.6185C1.46151 18.4063 1.29142 18.1541 1.17537 17.8764C1.05932 17.5988 0.999584 17.3012 0.999584 17.0006C0.999584 16.7 1.05932 16.4024 1.17537 16.1248C1.29142 15.8471 1.46151 15.5949 1.67588 15.3827L15.4879 1.67137C15.7017 1.45855 15.9558 1.28971 16.2354 1.1745C16.5151 1.0593 16.8149 1 17.1177 1C17.4205 1 17.7203 1.0593 18 1.1745C18.2797 1.28971 18.5337 1.45855 18.7475 1.67137Z" fill="white" stroke="black" stroke-width="2"/>
</svg>
