<svg width="22" height="34" viewBox="0 0 22 34" fill="none" xmlns="http://www.w3.org/2000/svg">
<path fill-rule="evenodd" clip-rule="evenodd" d="M20.7479 1.67137C20.9623 1.88364 21.1324 2.13582 21.2484 2.41345C21.3645 2.69108 21.4242 2.98872 21.4242 3.2893C21.4242 3.58989 21.3645 3.88752 21.2484 4.16515C21.1324 4.44278 20.9623 4.69496 20.7479 4.90723L8.56115 17.0006L20.7479 29.094C21.1802 29.5231 21.423 30.1051 21.423 30.7119C21.423 31.3187 21.1802 31.9007 20.7479 32.3298C20.3157 32.7589 19.7294 33 19.1181 33C18.5068 33 17.9205 32.7589 17.4883 32.3298L3.6763 18.6185C3.46193 18.4063 3.29184 18.1541 3.17579 17.8764C3.05974 17.5988 3 17.3012 3 17.0006C3 16.7 3.05974 16.4024 3.17579 16.1248C3.29184 15.8471 3.46193 15.5949 3.6763 15.3827L17.4883 1.67137C17.7021 1.45855 17.9562 1.28971 18.2358 1.1745C18.5155 1.0593 18.8153 1 19.1181 1C19.4209 1 19.7207 1.0593 20.0004 1.1745C20.2801 1.28971 20.5341 1.45855 20.7479 1.67137Z" fill="black"/>
<path fill-rule="evenodd" clip-rule="evenodd" d="M18.7479 1.67137C18.9623 1.88364 19.1324 2.13582 19.2484 2.41345C19.3645 2.69108 19.4242 2.98872 19.4242 3.2893C19.4242 3.58989 19.3645 3.88752 19.2484 4.16515C19.1324 4.44278 18.9623 4.69496 18.7479 4.90723L6.56115 17.0006L18.7479 29.094C19.1802 29.5231 19.423 30.1051 19.423 30.7119C19.423 31.3187 19.1802 31.9007 18.7479 32.3298C18.3157 32.7589 17.7294 33 17.1181 33C16.5068 33 15.9205 32.7589 15.4883 32.3298L1.6763 18.6185C1.46193 18.4063 1.29184 18.1541 1.17579 17.8764C1.05974 17.5988 1 17.3012 1 17.0006C1 16.7 1.05974 16.4024 1.17579 16.1248C1.29184 15.8471 1.46193 15.5949 1.6763 15.3827L15.4883 1.67137C15.7021 1.45855 15.9562 1.28971 16.2358 1.1745C16.5155 1.0593 16.8153 1 17.1181 1C17.4209 1 17.7207 1.0593 18.0004 1.1745C18.2801 1.28971 18.5341 1.45855 18.7479 1.67137Z" fill="white" stroke="black" stroke-width="2"/>
</svg>
