<svg fill="none" height="206" viewBox="0 0 134 206" width="134" xmlns="http://www.w3.org/2000/svg" xmlns:xlink="http://www.w3.org/1999/xlink"><clipPath id="a"><path d="m0 0h134v205.534h-134z"/></clipPath><g clip-path="url(#a)"><path d="m41.4473 118.649s-28.6698-75.9852 30.8511-118.649c0 0 33.3446 24.2904 24.9303 102.455-8.414 78.166-55.7814 16.194-55.7814 16.194z" fill="#3d6334"/><path d="m43.3161 122.386s11.2186-12.145 52.9768-21.488c0 0 24.6191-5.605 28.3581-4.3594 0 0 7.479.3114 8.102 6.5394 0 0-8.725 21.177-9.037 29.585 0 0-13.088 36.747-30.2278 41.729 0 0-28.6697 29.585-70.4279 24.291l-12.4651 5.294s-9.03721 0-7.47907-2.492c1.55814-2.491 7.79067-5.294 7.79067-5.294s-2.80462-42.663 32.4093-73.805z" fill="#e6ebaf"/><g fill="#bbcb7d"><path d="m0 202.246c3.15613-3.216 7.01362-5.717 10.8711-8.218 2.8055-2.143 5.9616-3.93 8.0657-6.788.3507-.357.3507-.357.7013-.715 1.0521-3.572 2.8055-7.145 3.8575-11.075 1.7534-6.074 4.2082-11.791 7.0137-17.507 1.4027-2.858 2.4547-5.717 3.5068-8.575.3506-1.429 1.052-2.858 1.7534-4.287 1.4027-3.93 4.2081-6.431 7.0136-8.932.7013 0 1.4027 0 2.1041.714.3507 1.072 0 2.858 0 4.288-1.4028 3.572-2.8055 6.788-4.5589 10.361-.3507.714-.3507 1.429-.7013 1.786-.7014 3.573-1.7534 6.789-3.5069 10.004-1.4027 2.501-2.4547 5.359-2.8054 8.218-.3507 1.429-1.052 2.858-1.052 4.287 0 0-.3507 0-.3507.357v.358l.3507-.358c1.7534 0 3.1561-1.072 4.5588-2.143 3.8575-3.573 8.4164-6.789 12.2738-10.362 1.0521-1.071 2.4548-1.786 3.5069-2.858 1.052-1.072 2.104-2.144 3.5068-3.215 1.052-4.645 3.5068-8.575 4.5588-13.22 0-.357.3507-1.072.7014-1.429 2.4547-5.359 4.9095-10.718 7.3643-16.078 1.4027-2.858 2.4548-6.073 3.5068-8.932.7014-.714 1.4027-1.429 2.4548-1.072 1.052 0 1.4027.715 2.104 1.787.7014 4.287 0 8.575-1.4027 12.862-1.052 2.858-1.7534 5.716-2.8054 8.575-.7014 1.429-.7014 2.858-.7014 4.644-.3507 0-1.052 0-.3507.715 0-.357.3507-.357.3507-.715.3507 0 1.0521 0 1.7534-.357 1.0521-1.072 2.1041-2.144 3.1561-3.215 1.7535-1.43 2.8055-3.216 4.9096-4.288 2.8054-2.858 5.9616-4.644 8.767-7.503 2.1041-2.143 4.2082-4.644 6.663-6.074 2.8054-2.858 5.9613-5.359 8.0653-8.932 1.403-2.143 3.156-3.93 5.261-5.359 1.753 0 2.805 1.429 3.506 2.501 0 1.787-.701 3.216-1.753 4.645-1.753 2.144-3.858 4.287-5.611 6.788-.701 1.072-1.753 2.144-2.805 2.858-2.104 1.072-3.507 2.859-5.2606 4.645-4.5589 4.645-9.1177 9.289-13.6766 13.577-1.4027 1.429-3.1561 3.215-4.9095 4.287-.7014.358-1.4027 1.429-1.7534 2.501 0 .715.7013 1.072 1.4027 1.072h1.4027c4.5589-1.429 9.1177-2.501 13.3259-3.93 3.1561-.715 5.9618-1.786 9.1178-2.144.701 0 1.403-.714 2.455-.714.701-.358 1.402-.358 1.753.357.351.357.351 1.072.351 1.429s-.351.357-.351.715c-2.455 1.429-4.559 3.215-7.014 5.002-3.5063 2.501-7.7145 4.287-11.572 5.716-3.1561 1.072-6.3123 2.144-9.4684 2.858-.7014 0-1.4027.358-2.1041.358s-1.4027 0-2.1041 0c-1.7534 0-3.1561 1.072-4.9095 1.072s-3.5068 0-4.9095 0c-2.4548 1.786-4.9096 3.215-7.0137 5.359-1.4027 1.429-3.1561 2.501-4.5588 3.93-1.4027 1.072-2.8055 2.501-4.2082 3.573-2.1041 1.429-3.8575 3.215-5.6109 5.002v.357c1.4027.714 2.8055.714 3.8575 0 1.4027-.715 2.8055-.715 4.5589-.715h7.0136c1.052.358 2.4547.715 3.1561 1.787 0 .357 0 .714-.3507 1.072-.7013 1.071-1.4027 1.786-2.4547 2.501-3.1562 1.786-6.663 2.501-9.8191 3.93-.3507 0-.7014 0-1.0521 0-1.7534 0-3.5068.357-5.2602.714-2.1041.358-4.2081.715-6.3122 1.072s-4.2082 0-5.9616 0c-2.1041.715-3.5068 1.787-4.9095 2.858-3.5069 2.501-6.663 5.717-10.5205 7.861-1.4027.714-2.4547 1.786-2.8054 3.572-.7014 0-1.0521 0-1.7534 0-.3507-.714-1.0521-.714-1.75343-.714-.70136 0-1.75341 0-2.45477 0-1.40272 0-2.80545 0-4.20817-.357-.70136-.358-2.454768-.715-3.15613-2.144z"/><path d="m60.8113 112.391c-.3507-3.573 0-6.789.7014-9.647-.3507-1.429-1.0521-2.144-1.7534-2.8583-4.5589-4.2874-8.0657-9.2893-10.5205-15.0059-1.4027-3.2155-3.1561-6.431-4.9095-9.6466-.7014-1.4291-.7014-2.5009-.7014-3.9301 0-.7145.3507-1.0718 1.0521-1.7864.3507-.3573 1.4027-.3573 1.7534 0 .7013.7146 1.4027 1.0719 1.7534 1.7864 1.7534 2.1437 3.5068 4.6447 5.2602 6.7884 2.4548 3.2155 4.5588 6.4311 7.0136 9.2893.3507.7146 1.0521.7146 1.7534.3573 0-.7146.3507-1.4291.3507-2.501 0-2.8582 0-5.7165.3507-8.5747 0-2.1437 0-4.6447.7013-6.4311 0-3.9301.3507-7.5029.3507-10.7185-.3507-1.0718-1.052-1.4291-1.7534-1.7864-2.1041-.7146-3.1561-2.1437-4.5588-3.9301-.7014-.7146-1.0521-1.7864-1.7534-2.501-2.4548-4.6446-4.2082-9.2893-5.9616-13.934-.7014-2.1437-.7014-3.9301-.3507-5.7165.7014-.3573 1.4027-.7146 2.1041-1.0718.7014.3572 1.7534.7145 2.4548.7145 1.7534 2.1437 3.1561 4.6447 4.2081 7.1457 1.4028 2.8582 2.8055 6.0738 4.9096 8.932.3506.3573.3506.3573.7013.7146 1.0521-.7146 1.0521-2.1437 1.4027-3.2156.3507-4.2873.7014-8.5747 1.4028-12.8621.3507-2.1437.7013-4.2874.7013-6.4311.3507-2.1437 0-4.2874.3507-6.0738.7014-2.8583.7014-5.7165 1.0521-8.5748 0-1.4291.7013-2.50094 1.4027-3.93007 1.4027-1.07185 2.4547-1.07185 3.5068.35728.3507 4.28739.3507 8.57479.3507 13.21949v12.8621c0 4.2874-.3507 8.9321 0 13.2195.3507-.3573.7013-.3573 1.052-.3573 1.0521-1.4292 2.1041-3.2156 2.8055-4.6447.7013-1.4291 1.4027-2.8583 2.104-4.2874.7014-1.4291 1.4028-2.1437 2.4548-3.2155 1.4027-1.4292 2.8055-1.4292 4.5589.3573.3506.3572.3506.3572.7013.7145 0 .3573.3507.7146.3507 1.0719-1.052 6.7883-7.0136 17.1495-14.7286 25.367 0 1.0719 0 2.1437-.3507 3.2155 0 2.501 0 4.6447-.7013 7.1457-.3507 1.0718 0 2.1437-.3507 3.2155v6.0738c0 1.7864-.3507 3.9301 0 5.7165 0 1.7865-1.0521 3.2156-.7014 5.002.3507.3573 1.0521 0 1.4028-.3573.7013-1.4291 1.7533-2.501 2.104-3.9301 1.7534-3.9301 3.5068-8.2175 5.2602-12.1476 1.4028-2.8582 2.8055-6.0738 5.2603-8.2175.3506 0 .7013-.3573 1.4027-.3573 1.7534 0 2.4547 1.0719 2.4547 2.501 0 .7146 0 1.7864-.3506 2.501-1.4028 3.2155-2.1041 6.7884-3.1562 10.3612-1.4027 3.9301-2.8054 7.8602-4.9095 11.7903-1.7534 3.5728-3.5068 7.5028-5.2602 11.0758 0 1.072 1.052.715 1.4027 1.072-.3507.357-.7013.714-1.052.714-2.4548 0-4.9096 1.072-7.0136 2.144-1.7534.715-3.1562 1.786-4.9096 2.501-1.4027.357-2.1041.357-3.1561.715z"/></g></g></svg>