<svg fill="none" height="151" viewBox="0 0 100 151" width="100" xmlns="http://www.w3.org/2000/svg"><path d="m92.7078 104.494c-4.5727 24.59-27.4013 41.167-50.9891 37.027-23.5879-4.141-39.00276-27.431-34.43012-52.0198 4.57262-24.5893 27.40122-41.1664 50.98912-37.0262 10.9469 1.9215 23.2199 6.6065 29.4653 14.9926 7.2118 9.6839 7.4153 23.8493 4.9648 37.0264z" fill="#b3cf9c"/><path d="m27.8291 142.618c2.2447-1.095 4.7699-1.915 6.4534-2.736 3.367.547 6.4534.821 9.5398 1.368 2.8058.82 5.8922.82 8.9786.273 3.367-.547 6.734-.82 9.8204-2.462 4.4894-1.094 8.4175-3.283 12.0651-6.019 6.1728-3.83 10.6621-9.302 13.1874-16.142.2805-.547.5611-.821.8417-1.368 2.2447-4.104 3.0864-8.481 3.9282-13.132.5611-3.5569.5611-7.3872 2.2446-10.9439.2806 0 .8418 0 1.1224.2736 1.1223 1.3679 1.4029 2.7359 1.4029 4.3774 0 3.0095-.2806 6.0189-.2806 9.0289-1.4029 9.302-5.6117 17.509-11.5039 25.17-.2806.274-.2806.547-.2806 1.094.5612.548 1.1224.821 1.6835 1.368.8418.821 1.6835 1.368 2.5253 2.189 3.6475 3.83 3.367 7.934-.8418 11.217-2.5252 1.915-5.3311 3.01-8.4175 3.557-2.2446.274-4.2087.547-6.4534.821-7.8563.821-15.7126.547-23.5689-1.095-4.4893-.82-8.9786-1.641-13.468-2.462-3.3669-1.094-6.4534-2.189-8.9786-4.377z" fill="#451515"/><path d="m15.4834 125.19c1.0965-.33 1.8275 2.378 2.5585 3.039 2.5584 1.982 5.1169 3.963 8.0409 5.945 1.1124 1.005 2.1389 1.603 3.2894 2.643-2.1929 1.321-4.0204 2.972-3.2894 5.615-4.386-.991-6.9444-3.964-9.5029-7.267-.731-.991-1.0965-2.642-1.0965-3.963.3655-.991 0-4.691 0-6.012z" fill="#451515"/><path d="m30.0755 57.4542c-1.6835-.5472-3.367-1.0944-5.0505-1.368-3.6475-.5472-7.0145-1.0944-10.6621-1.6415-1.1223-.2736-1.9641-.5472-3.0864-.8208-2.80585-1.0944-4.76993-2.7359-5.61168-5.4718 1.40292-3.5567 2.24466-4.3775 5.61168-4.6511 1.1223 0 2.5252 0 3.6475-.2736 0 0 .2806 0 .2806-.2736s0-.5472 0-.8208c-3.367-2.1887-6.45337-4.1038-9.82036-6.019-1.12233-1.0943-2.24466-2.4623-3.08641-3.5566-1.683494-1.9152-2.525242-4.3775-2.2446595-6.8398.2805825-3.2831 2.2446595-5.1983 5.6116495-5.1983 1.6835 0 3.36699 0 4.76988.5472 3.0864 1.0944 5.8923 2.7359 8.6981 4.1039.8417.2736 1.6835 1.3679 3.367 1.0944 0-1.9152-.5612-3.8303-1.1224-5.7455-.5611-1.3679-1.1223-3.0095-1.964-4.651-.8418-2.1887-.8418-4.6511-.5612-7.11338 0-1.64155.8418-3.2831 2.2447-4.37746 2.5252-2.46232 5.0505-2.46232 7.8563-.54718 1.9641 1.64154 4.2087 3.0095 6.1728 4.37746.8417.54718 1.9641.82077 2.8058 1.36795.2806.54721.5612 1.36791.8418 1.64151 2.8058 2.736 5.6116 5.7455 8.4174 8.4814 1.1224-.8208 1.1224-2.1888 1.6835-3.2831 1.403-3.5567 3.0865-7.1134 5.3311-10.1229 2.5253-3.55669 5.6117-6.019009 9.8204-6.2926 4.4893 1.36796 6.1728 3.28309 6.1728 7.66055 0 1.91514 0 3.83025-.2806 5.74545-.2805 1.3679-.2805 2.4623 0 4.1038.8418-.5471 1.403-.8207 1.6835-1.0943 1.1224-1.0944 2.5253-1.9152 3.6476-3.0095 3.9282-2.7359 3.9282-2.7359 8.9787-2.4624 1.6835.5472 2.5252 1.9152 2.8058 3.5567.5611 1.9152.5611 3.5567 0 5.1983-1.1223 2.7359-2.5253 5.4718-4.2088 7.9341-1.1223 1.9152-2.5252 3.5567-3.9281 5.4718-.5612.8208-1.1223 1.9152-1.1223 3.0095-.2806 0-.5612.2736-.8418.2736 0 0 0 .2736.2806.2736.2806-.2736.5612-.2736.8417-.5472 1.1224-.2736 2.2447-.5471 3.367-.8207 3.6476-1.368 7.0146-2.7359 10.3816-3.8303 2.8058-1.0944 5.3311-.2736 7.0146 2.1887.2805.5472.5611 1.368.8417 1.9152-.2806 2.7359-2.2447 4.3774-3.9282 5.7454-1.6834 1.6415-3.6475 3.0095-5.8922 4.651 1.1223.2736 2.2447.5472 3.0864 1.0944 1.9641.8208 2.8058 2.1887 2.8058 4.1039 0 2.1887-1.1223 3.5566-3.0864 4.1038-1.6835.5472-3.6475.8208-5.331 1.368s-3.6476.5472-5.3311 1.6415c-1.4029 0-2.8058-.2736-4.2087.5472-3.0864 0-5.8923.2736-8.9787 1.0944-2.5252.2736-4.7699.5472-7.2951.8208-2.5253.2735-12.6263 2.9821-25.533-2.1888-1.403-.2736-2.5253-.2736-3.9282-.5472-1.1223-.5471-1.4029-.5471-1.9641-.5471z" fill="#ca5769"/><path d="m90.211 78.971c-1.1224.2736-1.9641.5472-3.0864 1.0944-.5612-.5472-1.403-1.0944-1.403-1.6416-.5611-1.0943-.2805-2.1887.5612-3.2831.8418-1.0943 1.6835-2.4623 2.5252-3.5566 1.9641-1.6416 3.6476-3.0096 5.6117-4.3775.5612-.2736 1.1223-.8208 1.6835-1.0944 1.4029-.5472 3.0864.5472 3.367 1.9152.2806 1.3679-.2806 2.4623-1.1223 3.2831-1.1224 1.0943-2.2447 2.1887-3.367 3.2831-1.6835 1.3679-3.0865 2.7359-4.7699 4.3774z" fill="#f9f5e7"/><path d="m30.0732 58.9535h1.403c-.5612.2736-.8418.5471-1.403.8207 0-.2736 0-.5471 0-.8207z" fill="#b3cf9c"/><g fill="#f9f5e7"><path d="m28.0896 143.931c-1.1038-.544-2.2076-1.089-3.3114-1.633-.5519-2.177.8278-3.538 2.4835-4.626 1.1038-.544 2.2076-.816 3.3114-1.361 1.1038-.544 2.4835-1.088 3.5873-1.632 0-8.708 0-17.144 0-25.58-2.7595-2.722-4.6911-5.987-5.243-10.0689.5519-.8164 1.1038-1.9049 1.6557-2.9934h3.8632c.276-3.8098.5519-7.6195.8279-11.4293 0-5.4425.8278-10.8851 2.2076-16.3276 0-.5442.2759-1.0885.2759-1.6327-5.5102 2.7169-9.1159 14.3281-11.0379 19.593-2.2076 6.259-3.3113 12.79-3.8632 19.5929-.9389 10.494 1.856 19.295 4.4151 29.39-2.8426-1.402-7.0098-4.961-9.4624-7.035-3.7799-3.727-1.1175-5.35-3.783-9.293-1.1038 0-2.4836 0-3.5874 0-1.93159-.816-3.86322-1.36-5.79485-2.177-2.20758-.816-3.03542-1.905-3.03542-3.537.27595-1.361 1.10379-2.177 3.58732-2.45h1.65568c2.20758.545 4.69107 1.089 7.17467 1.633.2759-.816.5518-1.36.5518-1.905 0-5.17.8279-10.34 1.6557-15.5108 1.3798-7.6195 3.5873-15.2391 7.7265-22.0422 1.6557-2.9934 3.5874-5.7147 5.243-8.7081 1.518-2.9938 2.9138-6.8445 7.4506-5.726 2.2076.2722.8279.4775 3.0354.7497.5519 0 2.7595.8163 3.0355 0-4.1393-6.2589-8.2785-9.9906-9.9341-17.0659.5519-1.9049 1.3797-2.9934 3.0354-2.9934 1.3797 0 2.4835.8164 3.0354 1.9049 1.5521 3.0612 3.8709 5.8621 5.7949 8.7081.8278 1.0885 1.6557 2.4491 3.3114 2.9933 0-.8163 0-1.6327 0-2.177 0-3.8097 0-7.6195 0-11.4293 0-1.0885 0-2.177.2759-2.9934.2759-1.0885 1.1038-1.9048 2.2076-1.6327 1.6557 1.6327 1.9316 2.177 2.2075 4.6261.5519 4.0819 1.1038 8.1638 1.9317 12.2457 0 .5443.5519.8164.8278 1.3606 1.3798-.8163 1.9317-1.9048 2.7595-2.9933 1.6557-2.1771 3.3114-4.6262 5.7949-6.5311.8278-.5442 1.6557-1.0885 2.7595-1.6327.8278.8163 1.3797 1.3606 1.9316 1.9048-1.1038 3.8098-2.4835 7.0753-4.4152 10.3408-1.3797 2.1771-2.4835 4.3541-3.5873 6.5311-1.1217 1.6593.267 5.6527.5519 7.6195.8279 6.2589 1.9316 12.2457 1.9316 18.5046.276 8.9801 1.3798 18.2327.8279 27.2127v1.088c0 .817.2759 1.361.2759 2.177 1.1038.273 2.2076.273 3.3114.545s2.2076.544 3.3114 1.088c1.3797.544 1.9316 1.905 1.6556 3.266-.2759 1.36-1.1037 2.449-2.4835 2.721-1.1038.272-2.2076 0-3.0354 0-1.1038 0-2.2076-.272-3.3114-.544-.2759.816-.5519 1.088-.5519 1.632-.5519 4.354-.8278 8.708-1.3797 13.062 0 .273 0 .545.276.817-3.0355 1.633-6.3468 2.177-9.6582 2.449-.5519-.544-.8278-.816-1.3797-1.088.2759-2.178.5519-4.082.5519-5.987.2759-3.538.8278-7.076 1.1037-10.613.5519-5.171 1.1038-10.341 1.1038-15.511 0-4.354-.2759-8.708-.5519-12.7903 0-4.0819 0-8.1638-.2759-12.2457-.2759-6.2589-.5519-12.5178-.8278-18.7767 0-.8164-.276-1.3606-.5519-2.4491-1.6557 0-3.0355-.5443-4.9671-.2722-.5519 1.6328-1.1038 2.9934-1.3797 4.3541-1.6557 7.0752-2.4835 14.1505-2.4835 21.2258v15.2391c0 4.898.2759 9.797-.5519 14.967-.276 1.361-.276 2.993 0 4.354.8278 4.354.2759 8.708.5519 12.79 0 2.177.5518 4.082.8278 6.259-3.0354-.272-6.0708-.817-9.3822-1.361-1.6557 1.905-3.8633 2.994-6.0708 3.81z"/><path d="m12.9579 75.6426c.5611.8207 1.1223 1.6415 1.6835 2.4623 1.1223 1.0944 1.964 2.4623 1.4029 4.1039-.5612 1.6415-1.9641 2.1887-3.9282 2.7359-.8417-.5472-1.9641-1.0944-3.36696-1.6416-1.12233-2.4623-3.08641-4.1039-3.64758-6.8398 0-.2736 0-.8207.28059-1.0943 1.12233-2.1888 2.52524-2.4623 4.48932-1.368 1.12233.5472 2.24463 1.0944 3.08643 1.6416z"/><path d="m6.50387 89.5956c1.12233.5472 2.24466 1.0944 3.36699 1.6416 1.12234.5471 1.68354 1.6415 1.68354 3.2831 0 1.3679-.8418 2.1887-2.2447 2.4623-1.40292.2736-2.52525.2736-3.92816.2736-1.96408-1.368-4.20874-2.1888-5.050485-4.6511 0-1.3679.561165-2.1887 2.244665-3.2831 1.12233.2736 2.52524.2736 3.92815.2736z"/><path d="m74.4428 133.436c.5901-3.027 1.4751-6.053 1.7702-9.355.885-5.503 2.0651-11.281.885-16.784-.295-1.651 0-3.302-.295-4.678-.5901-4.9524-1.1801-9.6299-1.7701-14.5826 0-.2752-.2951-.8255-.2951-1.1006-1.7701-1.1006-3.5403-1.9261-5.0154-3.0267-.59-.5503-1.1801-1.3757-1.4751-2.2011-.295-1.1006 0-2.2012 1.1801-3.0267.295 0 1.1801-.2751 1.7701-.2751.5901 0 1.4752-.2752 2.0652-.2752.5901-4.4024-1.1801-10.4556-3.5403-14.3077-.59-.8255-1.9517-3.0267-2.5417-3.8521 2.9502-.8254 6.0139-1.4993 9.2592-1.4993 3.2453 4.6776 6.2636 11.4047 7.4437 16.9076.8851 4.1273 1.4751 8.5296 2.0651 12.932.5901 4.1273 1.1801 8.2545 1.4752 12.6565.295 1.651.295 3.027.295 4.678 0 3.852 0 7.979.295 11.831-2.3602 6.604-6.7855 12.107-13.5711 15.959z"/></g><path d="m77.7727 37.6133c-.2806.2736-.5611.2736-.8417.5472 0 0 0-.2736-.2806-.2736.5612 0 .8417-.2736 1.1223-.2736z" fill="#eda098"/></svg>