<svg fill="none" height="188" viewBox="0 0 197 188" width="197" xmlns="http://www.w3.org/2000/svg"><path d="m15.3168 81.2831c2.8842 8.6528 5.2441 17.8299 7.6039 26.7449 2.3598 10.226 4.4575 20.19 6.5551 30.416.2622 1.573 6.8173 41.428 7.6039 42.477 2.8842.524 5.7685-.263 8.3905-1.049 2.622-.525 5.2441-1.574 7.8661-2.36 1.0488.262 1.8354.786 2.6221 1.311 1.8354 1.311 3.6708 2.622 5.5062 3.933 2.6221 1.835 5.7685 2.36 8.915 1.835.5244 0 1.0488-.262 1.5732-.262 4.7196 0 9.4393-1.573 13.8968-2.36h.2622c.2622-1.049.5244-2.097.7866-3.408s.7866-2.622.7866-3.933c.7866-5.769 1.5732-11.8 2.3598-17.568.5244-4.457 1.311-8.915 2.0977-13.372.7866-4.72 1.5732-9.44 2.622-14.159.2622-2.098.7866-3.933 1.311-5.769 0-.262.2622-.786.7866-.786 0 2.359 0 4.719-.2622 7.079-.2622 1.311-.2622 2.36-.5244 3.671-.2622 3.933-.5244 8.128-.7866 12.061 0 .525-.2622 1.311-.2622 1.836-.5244 4.719-1.311 9.701-1.8354 14.421-.2622 2.097-.5244 3.933-.7866 6.031 0 .262-.2622 1.048.5244 1.048.2622-.524.5244-.786.7866-1.311.7866-1.835 1.8354-3.933 2.622-5.768 3.6713-8.653 7.6043-17.568 10.4883-26.483.262-.524.262-1.049.524-1.311s.525-.524 1.049-.262c.524.524.524 1.311.262 2.098-1.311 4.457-2.884 9.177-4.195 13.634-3.146 9.702-7.0795 19.403-11.7991 28.58-.2622.525-.2622 1.049-.5244 1.311 1.311 1.574 2.8842 2.885 4.1952 4.458 1.0488 1.049 2.0976 2.098 3.4087 2.884.2626 0 .7866.262 1.0486.262 3.671 0 7.08-.786 10.488-1.573.525-.262.787-.524 1.311-.786-.262-.525-.786-1.049-1.048-1.311-.263-2.622.262-4.982 1.048-7.08.787-3.146 1.836-6.293 2.622-9.439 2.098-7.08 4.196-14.159 6.293-21.239 0-.262.525-.262.787-.262.524 1.049.262 2.098 0 3.146-1.049 4.72-1.836 9.44-3.147 13.897-1.048 4.72-2.359 9.177-3.67 13.897-.525 1.573-.787 2.884-.263 4.458.525-.263.787-.525 1.049-.787.787-1.573 1.573-3.147 2.098-4.72.524-1.573 1.049-3.408 1.835-4.982 2.36-5.768 4.196-11.537 6.031-17.567.787-2.885 1.835-5.769 3.146-8.391.525 0 .787 0 1.049.525-.786 3.67-1.573 7.341-2.622 11.274-2.36 8.915-4.982 17.83-8.39 26.483v.262c.524.525 1.048 1.049 1.835 1.573 2.36 2.098 5.244 2.36 8.128 1.311 2.622-1.048 5.244-2.622 7.604-3.933 1.836-1.049 3.409-2.097 5.244-3.146.787-.525 1.836-1.049 2.622-1.311.787 0 1.311.524 1.574 1.049 3.146 3.671 7.079 6.03 11.274 7.866.787.262 1.574.524 2.622.524h5.769c2.36 0 4.195-1.049 5.244-3.408.524-1.049 1.049-2.36 1.311-3.409s.524-1.836.787-2.884c-.263-3.933 1.048-7.604 2.097-11.275 1.836-6.031 3.409-11.799 5.506-17.568 2.885-7.866 5.245-15.994 8.653-23.598.787-1.835 1.573-3.671 2.36-5.506-.262-.263-.262-.787-.524-1.049-1.836-1.573-7.604-5.244-9.964-6.293-.787 0-1.311.787-1.573 1.311-1.049 1.835-1.836 3.671-2.885 5.244-3.408 5.769-4.719 12.324-6.292 18.879-1.049 4.719-2.098 9.177-3.409 13.897-.262 1.311-.787 2.359-1.311 3.408-.262.525-.525.787-1.049.787-.787-.525-.787-1.311-.787-2.098-.262-2.622.525-4.982 1.049-7.342 1.311-5.506 2.622-11.012 3.933-16.518-.524-3.671-.524-7.342 0-11.275.525-2.884.263-6.031.263-8.915 0-2.098 0-4.195.262-6.293.524-2.36.524-4.7196.524-7.0795 0-3.1464.262-6.2929.787-9.4393 0-.2622.262-.5244.524-.7866.787-.2622 1.049 0 1.311.5244 0 .5244.262 1.311.262 2.0976v14.6834 4.195c1.049.262 1.049-.524 1.311-.786 2.098-6.031 4.982-11.5373 7.867-17.0436.786-1.5732 1.573-2.8842 2.359-4.1952.263-.2622.525-.5244.787-.5244.524 0 .524.5244.262 1.0488-1.049 2.3598-2.097 4.4575-3.146 6.8173-2.098 5.2441-4.458 10.2261-6.293 15.4701-.262.524-.525 1.049 0 1.835 1.049 0 1.835-1.048 2.622-1.835 1.049-.525 1.835-1.573 2.622-2.098.787-.786 1.835-1.311 2.622-2.097.787-.787 1.835-1.311 2.36-1.836 2.884-.524 5.506 0 8.39-.786 1.049-2.098.787-4.4578 1.311-6.5555-2.884-2.3598-6.293-.7866-9.177-1.5732-.524-.7866 0-1.311.262-1.8354 2.098-2.6221 4.196-5.5063 6.031-8.1283.262-.5244.787-.7867 1.049-1.0489 1.311-1.8354 1.573-3.933.524-6.0306-1.311-2.6221-2.622-5.2441-4.457-7.3417-1.311-1.5733-2.36-3.1465-3.671-4.7197-.787-1.0488-1.835-2.0976-2.884-3.1465-2.098-1.8354-4.196-1.5732-6.031.2623-2.36 3.1464-4.982 6.8172-7.604 10.2259-3.933 5.5063-7.866 11.0125-11.012 17.0432-.525.7866-1.049 1.8355-1.574 2.6221-.262.2622-.524.5244-1.048.2622-.263-1.3111 0-2.3599 0-3.6709.524-1.0488.524-2.0976.524-3.1464-.262-5.5063.524-10.7504 1.049-16.2567.524-5.244 1.311-10.2259 1.835-15.2078.262-1.8354.262-3.4086.262-4.9818-.524-1.0488-1.048-1.311-1.835-1.5733-1.835-.7866-3.933-1.5732-6.031-2.3598-1.573-.5244-3.146-.7866-4.719-.5244-1.574.2622-2.885.7866-3.671 2.0976-.525 1.0489-.262 1.8355-.262 2.6221 0 4.4574 0 8.9149.262 13.6346.262 4.1952.262 8.3905.262 12.3235v33.2994c0 1.312 0 2.885-.262 4.196 0 .786 0 1.573-.787 2.097-.262.263-.524 0-.524-.262-.525-5.506-1.049-11.275-1.311-16.7809-.262-2.3598-.262-4.4574-.262-6.8173 0-3.4086 0-7.0794 0-10.4881 0-2.8842 0-6.0307-.525-8.9149-.262-2.0976 0-3.9331 0-6.0307 0-1.311.262-2.622-.262-3.6709-.524-.2622-1.049-.2622-1.311 0-1.836.7867-2.884 2.3599-3.147 4.4575-.262 1.5732-.524 3.1465-.524 4.9819 0 3.1464 0 6.5551.262 9.7015.262 2.622.262 5.2441.262 7.8661 0 6.2929 1.049 12.8478.787 19.1408 0 .787.262 1.836-.262 2.622-1.049 0-1.049-1.049-1.311-1.573-.525-.787-.787-1.573-1.311-2.36-.262-.787-.787-1.311-1.049-1.835-.524-.787-.787-1.574-1.311-2.36-.262-.525-.524-1.311-1.573-1.5734-.262.2624-.525.5244-.525.7864-1.573 7.08-3.408 13.897-5.506 20.714-.262 1.049-.524 2.098-1.049 3.147-.524 1.573-1.049 3.146-2.097 4.195-1.311 0-1.311 0-1.836-.524 0-.263 0-.525 0-.787 2.884-8.128 5.244-16.257 7.342-24.385 1.573-5.7684 3.146-11.5369 4.195-17.5676.525-4.1953 1.311-8.1283 1.836-12.3236.786-4.9818 1.311-9.9637 2.097-14.9456.525-3.933 1.049-7.8661 1.836-11.7992 1.048-6.8172 1.835-13.3723 2.884-20.1896.787-4.9819 1.573-10.226 2.098-15.2078.262-2.35988.524-4.71971.262-7.34175-2.622-1.31102-5.507-2.09763-8.129-2.884239-1.048.524409-1.048 1.311019-1.311 2.097629-.524 2.62204-1.048 5.24407-1.048 7.86606v4.9819c-.263 5.5063 0 11.0126-.525 16.5188-.524 3.9331-.262 8.1284-.262 12.0614 0 5.2441-.524 10.226-1.573 15.47-.262 1.0488-.525 2.0977-1.049 3.1465-.787-.5244-.524-1.0488-.524-1.5732 0-7.8662 0-15.9945.262-23.8606.262-6.5551.524-13.1102.786-19.6653 0-1.0488.263-2.0976.263-2.8842.262-1.5732.262-3.1464 0-4.98186-2.36-.52441-4.458-1.04882-6.818-1.57322-2.622-.52441-5.244.78661-6.555 3.14648-.524 1.0488-.786 2.3598-.786 3.6708v11.7992 18.092c0 1.0488 0 2.0977-.263 3.1465-1.048 1.0488-2.097.2622-3.146 1.0488-.524 1.0488-.262 2.0976-.524 3.1464-.263 5.2441-.525 10.226-.787 15.47-.262 3.1465-.787 6.5551-1.311 9.7016-.262 2.3598-.525 4.7196-.525 7.0795-.262 3.4086-.786 6.8173-1.048 10.2259-.263 3.1465-1.049 6.5553-1.574 9.1773-.524.524-.786.786-1.311.786 0-.262-.262-.524-.262-.786 0-4.1954-.262-8.6529.525-12.8481.524-2.6221.262-5.2441.786-7.8661.525-3.4087.787-7.0795 1.049-10.4882.524-3.933.787-7.8661 1.311-12.0614 0-.5244 0-1.0488.262-1.5732 0-4.9818.787-9.9637 1.311-14.9456 0-.5244 0-1.311 0-1.8354 0-7.6039 0-15.2078 0-22.5495 0-1.8354 0-3.4087-.262-5.2441-.262-.7866.262-1.5732.262-2.0976-.524-.2622-.786-.7866-.786-1.311 0-1.57327-.787-2.62208-1.574-3.40869-1.311-.78661-2.622-.52441-3.933-.52441-.786.78661-1.835 1.31102-2.8838 2.09763-1.8355 0-3.6709 0-5.5063 0-1.5732 0-2.8843.2622-4.1953 1.31097-1.5732 1.3111-1.5732 3.1465-1.5732 5.2441v26.2204c0 1.5732 0 2.8842-.7866 4.4575.5244.2622.7866.7866.7866 1.311v4.9818c.7866 4.4575.2622 8.915.5244 13.3724 0 .2622 0 .7866-.5244.7866 0 0-.2622 0-.2622-.2622-2.0976-4.4574-3.4087-9.1771-5.5063-13.3724.2622-.5244.5244-1.0488.5244-1.5732-.2622 0-.7866-.2622-1.311-.2622-1.0488-1.8354-2.3598-3.933-3.4086-5.7685 2.3598-8.9149 4.1952-17.8298 6.0306-27.0069-.2622-1.3111-1.0488-2.6221-2.8842-3.9331-1.5732 0-3.1464 0-4.7197 0-1.5732-.5244-2.8842-1.0488-3.933-1.8354-.5244-1.0488.2622-2.0976.2622-2.8843 0-1.04877 0-2.09759.2622-2.8842.2622-1.04881.7866-1.83542.2622-3.14644-.5244-1.04882-1.5732-1.83543-2.622-2.35983-1.5733-.52441-3.1465-1.311023-4.9819-1.83543-1.5732.262204-2.8842 1.04881-3.9331 2.35983-1.0488 2.88424-1.311 6.29289-1.8354 9.43937-.2622 1.0488-.2622 1.8354-.5244 2.8842-.7866 3.6709-1.311 7.0795-1.8354 10.7504-.2622 2.0976-.7866 4.4574-1.311 6.555 0 .2622-.2622.7867-.2622 1.0489.2622 2.8842-1.0489 5.5062-.7867 8.1283-1.0488 2.3598-.7866 4.9818-1.0488 7.3417-.5244 2.8842-1.0488 5.7685-1.0488 8.6527 0 1.0488 0 2.3598-.5244 3.4086-.2622.5245-.2622 1.3111-.2622 1.8355.2622 2.0976-.5244 4.1952-1.0488 6.2929-.7866-.5245-.7866-1.5733-1.0488-2.0977-1.0488-3.1464-1.8355-6.2929-3.1465-9.1771-1.0488-3.1464-2.622-6.2929-3.6708-9.4393-2.0976-5.5063-4.1953-10.7504-6.0307-16.2567-1.311-3.6708-2.8842-7.0795-4.7197-10.2259-1.311-2.622-3.4086-4.7197-6.2929-5.5063-1.8354 0-2.8842 1.311-4.4574 2.0977-1.0488 0-2.0976.2622-3.1465.2622-1.0488.5244-1.5732 1.0488-2.0976 1.8354 0 .2622-.2622.5244-.2622.7866-.2622 3.4086.2622 6.8173 1.5732 9.9637 2.0977 4.7197 3.9331 9.4394 6.0307 14.159.7866 1.5733 1.311 3.1465 1.5732 4.9819-.7866 1.311-1.5732 2.3598-3.1464 3.1464-1.0488-.7866-1.311-2.0976-2.0976-3.1464-.5244-1.0488-1.0489-2.3598-1.8355-3.4086-.5244-1.0489-1.0488-1.8355-1.5732-2.8843s-1.0488-2.3598-1.8354-3.1464c-.7866-1.0488-1.0488-2.3599-2.3598-2.8843-3.14649 1.0488-3.1465 1.0488-12.84803 9.4394-.262204.7866-.000004 1.8354.262199 2.622 2.097631 4.1953 3.933061 8.6527 6.030691 12.848 3.40865 2.8842 8.65274 17.3054 8.91494 18.6164zm134.2482 30.9399c.787 0 .787.525.787 1.049-.263 1.311-.263 2.622-.525 4.195-.262 3.147-.786 6.555-1.049 9.702-.786 5.768-1.835 11.275-2.622 17.043-.786 4.195-1.573 8.391-2.359 12.324-.525.786-1.049 1.048-1.574 1.048-1.048-.262-1.573-.786-1.573-1.573 1.311-6.555 2.622-12.848 3.933-19.141.525-3.408 1.311-6.555 1.836-9.963.524-4.458 1.573-8.653 2.622-12.848-.263-1.049 0-1.836.524-1.836zm-13.372 48.77c1.835-.524 3.146.524 4.719.524 1.574 0 3.147 0 4.458.263 3.408.786 6.817 1.835 9.439 4.457 2.884 2.622 4.982 5.506 6.817 8.915 1.574 2.884 2.098 6.031 3.671 9.177-.262.525-.262.787-.524 1.049-.525.262-1.049 0-1.573-.262-1.049-.787-1.574-2.098-2.098-3.409-1.573-3.933-3.671-7.604-6.555-11.012-2.098-2.622-4.982-4.196-8.128-5.244-1.574-.525-3.409-.787-5.244-.787-1.574 0-3.147-.525-4.72-1.573-.525-.263-.787-.787-.787-1.311 0-.263.262-.525.525-.787zm-15.208-65.2887c.262 2.3599.262 4.9817-.262 7.3417-1.311 6.555-2.622 13.372-4.196 19.928-.524 2.097-.786 4.457-1.835 6.292-.524.525-1.049.787-1.573.525-.525-.262-.787-.525-.787-1.311 0-.525.262-1.311.525-1.836 1.835-8.652 3.67-17.043 5.506-25.696.262-1.5728.524-2.8838 1.311-4.1949.262-.7866.524-1.311 1.311-1.0488zm-54.8007-57.947c-.2622-3.933.7866-7.6039 1.5732-11.2747.5244-3.1465 1.0488-6.2929 2.3598-8.915.7867-.2622 1.0489-.2622 1.3111.2622.2622.7867 0 1.3111 0 1.8355-.7866 3.4086-1.5733 6.8173-2.0977 10.2259-.5244 2.0976-.7866 4.1953-1.0488 6.2929-.2622.7866-.2622 1.5732-1.0488 1.8354-.5244 0-.7866 0-1.0488-.2622z" fill="#b3cf9c"/><g fill="#5f4d45"><path d="m92.1428 179.61c.2622-.525.2622-1.049.5244-1.312 4.7197-9.177 8.6528-18.616 11.7988-28.58 1.574-4.457 2.885-9.177 4.196-13.634.262-.787.524-1.574-.263-2.098-.524-.262-.786 0-1.048.262-.263.525-.525.787-.525 1.311-2.884 9.177-6.817 17.83-10.4879 26.483-.7867 1.835-1.8355 3.933-2.6221 5.768-.2622.525-.5244.787-.7866 1.311-.7866 0-.5244-.786-.5244-1.048.2622-2.098.5244-3.934.7866-6.031.5244-4.72 1.311-9.702 1.8354-14.421 0-.525.2622-1.311.2622-1.836.2622-3.933.5244-8.128.7867-12.061 0-1.311.2622-2.622.5244-3.671.2622-2.36.2622-4.72.2622-7.079-.5244 0-.7866.524-.7866.786-.5245 1.836-.7867 3.933-1.3111 5.769-.7866 4.719-1.8354 9.439-2.622 14.159-.7866 4.457-1.5732 8.915-2.0976 13.372-.7866 5.768-1.5733 11.799-2.3599 17.568-.2622 1.311-.5244 2.622-.7866 3.933-.2622 1.049-.5244 2.097-.7866 3.408.5244.525.7866 1.311 1.5732 1.574.7866.262 1.5733 0 2.0977-.787.7866-1.049 1.5732-2.098 2.3598-3.146z"/><path d="m118.887 183.28v-.262c3.671-8.653 6.031-17.568 8.39-26.482 1.049-3.671 1.836-7.604 2.622-11.275-.262-.525-.524-.787-1.048-.525-1.311 2.622-2.098 5.507-3.147 8.391-1.835 5.768-3.408 11.799-6.031 17.568-.786 1.573-1.048 3.408-1.835 4.981-.524 1.574-1.311 3.147-2.098 4.72-.262.262-.524.525-1.048.787-.263-1.574 0-3.147.262-4.458 1.311-4.457 2.622-9.177 3.671-13.897 1.048-4.719 2.097-9.177 3.146-13.896.262-1.049.525-2.098 0-3.147-.262 0-.524.262-.787.262-2.097 7.08-4.195 14.159-6.292 21.239-1.049 3.146-1.836 6.293-2.622 9.439-.525 2.36-1.311 4.72-1.049 7.08.262.262.524.786 1.049 1.311 1.311-.262 2.622-.262 3.67 0 1.836-.525 2.36-1.573 3.147-1.836z"/><path d="m149.565 112.223c-.787.262-.787.787-1.049 1.573-1.049 4.196-2.098 8.653-2.622 12.848-.525 3.409-1.049 6.555-1.836 9.964-1.311 6.293-2.622 12.848-3.933 19.141.263.787.787 1.573 1.574 1.573.524 0 1.048-.262 1.573-1.049.786-3.933 1.573-8.128 2.36-12.323 1.048-5.769 1.835-11.275 2.622-17.043.524-3.147.786-6.556 1.048-9.702.263-1.311.525-2.622.525-4.195.524-.262.524-.787-.262-.787z"/><path d="m136.192 160.993c-.262.262-.262.524-.524.787 0 .524.262 1.048.786 1.311 1.311 1.048 2.885 1.573 4.72 1.573 1.836 0 3.409.262 5.244.786 3.147.787 6.031 2.623 8.129 5.245 2.884 3.408 4.719 7.079 6.555 11.012.524 1.311 1.048 2.622 2.097 3.409.262.262.787.524 1.573.262.263-.262.263-.524.525-1.049-1.311-2.884-2.098-6.031-3.671-9.177-1.835-3.409-3.933-6.293-6.817-8.915-2.622-2.36-6.031-3.671-9.44-4.457-1.573-.263-2.884-.263-4.457-.263s-3.147-1.048-4.72-.524z"/><path d="m120.983 95.7043c-.787-.2622-1.049.2622-1.311.5244-.787 1.3111-1.049 2.8843-1.311 4.1953-1.835 8.653-3.671 17.043-5.506 25.696-.262.787-.262 1.573-.525 1.835.263.787.263 1.049.787 1.311.524.263 1.049 0 1.573-.524.787-1.835 1.311-4.195 1.836-6.293 1.311-6.555 2.884-13.372 4.195-19.927.524-1.836.524-4.4578.262-6.8177z"/><path d="m66.1831 37.7573c.5244.2622.7866.2622.7866.2622.7867-.2622 1.0489-1.0488 1.0489-1.8354.2622-2.0977.7866-4.1953 1.0488-6.2929.7866-3.4087 1.5732-6.8173 2.0976-10.226.2622-.5244.5244-1.311 0-1.8354-.2622-.5244-.7866-.5244-1.311-.2622-1.311 2.6221-1.8354 5.7685-2.3598 8.9149-.5245 3.6709-1.5733 7.6039-1.3111 11.2748z"/></g><path d="m28.9486 165.975c0 .524.5244.524.7866.524.7866 0 1.5733 0 2.3599.263 0 0 .2622 0 .2622.262 1.311.262 2.3598-.262 3.6708-.525 2.6221-.786 5.2441-1.835 7.6039-3.146 2.6221-1.311 4.7197-3.147 6.5551-5.506.2622-.263.2622-.263.5244-.525s.7866 0 .7866.262c0 .263-.2622.787-.2622 1.049-.2622.525-.7866 1.049-1.0488 1.573h1.8354c.2622.787 0 1.574.2622 2.36-.5244.263-1.311.787-1.8354 1.049.2622.525.5244.525.7866.525 1.311 0 2.6221 0 3.9331-.263h1.5732c.2622-.262.5244-.786.5244-1.311.2622-1.311.2622-2.36.2622-3.671 0-2.097 0-4.457.2622-6.555 0-.524 0-.786-.2622-1.311-.5244 0-1.311-.262-1.8354-.262-.2622 0-.5244 0-.7866 0-.7866 0-1.8354.262-2.6221 0-1.0488-2.884-2.0976-5.506-3.1464-8.39-.2622-1.049-.7866-2.098-1.311-2.885-.5244 0-1.311.263-2.0976.263 0-.263-.2623-.263-.5245-.525-.5244-.786-1.311-1.835-1.8354-2.622-.2622-.524-.5244-.786-1.0488-.786-.2622 0-.2622 0-.5244.262-.5244.262-.7866.524-1.311.786-1.311.787-2.6221 1.574-3.6709 2.36-2.3598 1.573-4.1952 3.409-5.7684 5.769-2.0977 2.884-3.4087 6.293-4.9819 9.701-.2622.787-.7866 1.573-.5244 2.622h4.7196 7.6039c0 .787-.5244 1.573-.7866 2.098-.7866 1.049-1.8354 1.835-2.8842 2.884-.7866.787-1.8354 1.311-2.622 1.836-1.0489.786-1.8355 1.311-2.6221 1.835zm9.1771-10.488c-3.1464.262-6.2928-2.622-6.2928-6.031s2.8842-6.293 6.2928-6.293c3.4087 0 6.2929 2.884 6.2929 6.031 0 3.409-2.8842 6.555-6.2929 6.293z" fill="#f6c168"/><path d="m67.7551 133.462c0-.787 0-1.574 0-2.36 0-1.049.2622-1.836 0-2.884 0-.787 0-1.836.2622-2.622 0-1.836.2622-3.671.2622-5.507 0-1.835.2622-3.408 0-5.244 0-1.573 0-3.146-.2622-4.982 0-.262 0-.524-.2622-.786h-.2622c0 .262-.2622.262-.2622.524-.2622 1.049-.5244 2.098-.7866 3.409-.5244 3.146-.7866 6.555-1.0488 9.701 0 1.049-.2622 2.098-.2622 2.885v3.146c0 .524 0 1.311-.2622 1.835-.2622 2.098-.5244 4.458-.7866 6.556-.2622 2.359-.7866 4.719-1.0488 6.817-.2622 2.097-.7866 4.195-1.0488 6.293-.5245 2.36-.7867 4.719-1.3111 7.079-.5244 2.098-.7866 4.196-1.311 6.293-.7866 3.147-1.8354 6.293-2.622 9.702-.2622 1.048-.5244 2.097-.2622 3.146.2622.787.7866 1.311 1.5732 1.573 1.0488 0 1.8354-.262 2.0976-1.048 1.311-2.623 2.8843-4.982 4.4575-7.604 1.311-2.098 2.3598-4.458 3.6708-6.555 1.3111-2.623 2.3599-4.982 3.6709-7.604.7866-2.098 1.5732-4.196 2.0976-6.031 0-.262 0-.787 0-1.049-.5244 0-.7866.262-1.0488.787-.7866 1.311-1.5732 2.622-2.3598 3.933-2.6221 4.982-5.5063 9.964-8.1283 14.945-.2622.263-.2622.525-.7867 1.049 0-.262 0-.524 0-.524.7867-2.36 1.0489-4.982 1.5733-7.342v-.262c1.0488-2.884 1.311-5.769 1.8354-8.653.5244-2.622.7866-5.244 1.311-7.866h1.311c2.3599 0 4.4575-.262 6.5551-1.049 2.8843-1.049 5.7685-2.36 8.1283-4.719 1.3111-1.311 2.6221-2.885 3.6709-4.72.2622-.524.5244-1.049.5244-1.573-.5244-.263-.5244.262-1.0488.262-.2622.262-.2622.262-.5244.524-1.311 1.574-2.8843 3.147-4.7197 4.458s-3.6708 2.36-5.7685 3.146c-1.311.525-2.8842.787-4.1952 1.049s-2.6221.262-3.9331-.262c0-1.836.2622-3.409.2622-5.244v-.262c.7866-1.311 1.0488-1.836 1.0488-2.36z" fill="#5f4d45"/><path d="m67.4931 135.035c0 .262 0 .262 0 0-.2622 1.835-.2622 3.671-.5244 5.506 1.311.262 2.622.262 3.933.262 1.5733-.262 2.8843-.524 4.1953-1.048 2.0976-.787 3.9331-1.836 5.7685-3.147s3.1464-2.622 4.7196-4.457c.2622-.262.2622-.262.5244-.525v-.262c1.0489-1.835 1.3111-3.933 1.0489-6.031-.2622-2.359-.7867-4.457-2.0977-6.555-1.5732-2.097-3.4086-3.146-6.0307-3.408-1.0488 0-2.3598 0-3.1464.524-1.0488.525-1.8354 1.311-2.622 2.36-1.0488 1.573-1.3111 3.671-.7866 5.506.5244 1.836 1.5732 3.147 3.4086 3.409 1.311.262 3.1464-.262 3.9331-1.836 0-.262 0-.524.2622-.786-.5245.262-1.0489.524-1.5733.524-.7866.262-1.5732-.262-2.0976-.524-.2622 0-.5244.262-.5244 0-.7866-.262-1.311-.787-1.5732-1.573 0-.263 0-.525.2622-.525s.7866.262 1.0488.262c0-.524 0-1.311.2622-1.835 0-.524-.2622-1.049-.2622-1.573 0-.525.2622-1.311.5244-1.836.2622 0 .7866.263.7866.263.2622.524.5244 1.048.5244 1.573.7866 0 1.311 0 2.0977-.262.2622-.787 1.0488-1.311 1.8354-1.311.5244.262.2622.786 0 1.048 0 .263.2622.787.2622 1.049s0 .525-.2622.525c0 .524.2622 1.048.7866 1.311.2622 0 .5244.262.7866.262.5244-.262 1.0488-.525 1.311 0 .7866-.525.7866-.525 1.311.524-.5244 1.049-1.5732 1.311-2.622 1.573 0 .525-.2622 1.049-.7866 1.049 0 .262-.2622.525-.2622 1.049.2622 0 .7866.262 1.0488.262.2622.262.2622.525.5244.525h1.0488v1.048c.2622 0 .5244.263.7866.263-.2622.524-.5244.786-1.0488 1.311h-.5244c-.2622 0-.2622-.263-.2622-.263-.5244 0-1.0488 0-1.311 0-.5244-.262-.7866-.262-1.311 0-.2622 0-.5244 0-.7866.263-.2622.262-.5244.524-.7867.524.2623.262.5245.525.5245 1.049 0 .787.2622 1.573 1.0488 1.835v.263c0 .262-.2622.262-.2622.524s.2622.262.2622.524c-.2622 0-.5244.263-.5244.263-.5244-.263-.7866-.525-1.0489-.787-.2622 0-.2622-.262-.5244-.262-.5244-.262-1.0488-1.049-1.8354-1.049-.2622 0-.2622-.262-.2622-.524-.5244.262-1.311.262-1.8354.524.2622.787.5244 1.835 0 2.622.2622.262.5244.524.5244.787 0 .262-.5244.524-.7866.524.2622 0 .2622.262.5244.262-.5244.525-.5244.525-1.311 0 0-.262 0-.524-.2622-.786-.5244-.525-.2622-.787 0-1.311-.5244-.525-1.5733-.787-1.3111-1.836-.5244 0-1.311 0-1.8354.262v.525c.2622.524.5244.786.2622 1.311v1.049c.5244.524.2622 1.048.2622 1.835-.5244-.262-.7866-.262-1.311-.524-1.0488-.525-1.311-1.311-2.0976-2.098z" fill="#f6c168"/><path d="m42.5825 105.93c0-.262.2622-.262.2622-.524-.2622-1.311-.2622-2.622-.5244-4.195-.7866-4.4578-2.3598-8.6531-3.6708-13.1105-1.5733-4.7197-3.4087-9.1771-5.2441-13.6346-1.0488-2.622-2.0976-5.2441-3.1465-7.8661-1.0488-2.6221-2.0976-5.2441-3.6708-7.6039-1.0488-2.0977-2.0976-4.1953-3.1464-6.2929-1.0489-1.8354-2.0977-3.6709-2.8843-5.2441-.2622-.5244-.5244-.5244-.7866-.5244-.2622.2622-.5244.5244-.2622 1.0488.2622 1.311 1.0488 2.6221 1.5732 3.9331 1.311 2.8842 2.3599 5.5063 3.6709 8.3905.7866 1.5732 1.5732 3.1464 2.0976 4.7197.7866 2.0976 1.5732 4.4574 2.622 6.5551.5244 1.5732 1.3111 3.1464 2.0977 4.7196 1.0488 2.6221 2.0976 5.2441 3.1464 7.6039 1.5732 4.1953 3.1464 8.3905 4.7197 12.5858 1.0488 2.8842 2.0976 5.768 3.1464 8.653-.5244.262-.2622.524 0 .786z" fill="#5f4d45"/><path d="m47.3028 139.755c.5244 1.048.7866 2.097 1.3111 2.884 1.0488 2.622 2.0976 5.506 3.1464 8.39.7866.263 1.5732.263 2.622 0h.7866c-.2622-.786-.5244-1.573-.7866-2.359-1.311-3.409-2.622-6.556-3.933-9.964-1.5732-3.933-3.4087-7.866-5.2441-11.799-.5244-1.311-1.311-2.622-2.0976-3.933-1.0488-1.836-2.0976-3.671-3.1465-5.507-.7866-1.573-1.8354-2.884-2.622-4.457-.2622-.262-.5244-.787-1.0488-.787 0 .262 0 .525.2622.787.7866 2.097 1.8354 4.195 2.622 6.555 1.0488 2.36 2.0977 4.72 3.1465 7.079 1.0488 2.885 2.3598 5.507 3.4086 8.391.5244 1.311 1.0488 2.622 1.5732 3.933z" fill="#5f4d45"/><path d="m50.9746 111.699c-.2622-1.573-.5244-3.147-.7866-4.72-.5244-3.146-1.0488-6.293-1.8354-9.4392-1.0488-3.933-2.0977-7.6039-3.4087-11.2747-.5244-1.5732-.7866-3.1465-1.311-4.7197-.2622-.5244-.2622-1.0488-.5244-1.5732 0-.2622-.2622-.5244-.2622-.5244-.2622-.2622-.5244-.5244-.7866-.2622s-.5244.5244-.5244.7866c0 .5244.2622 1.0488.2622 1.8354.5244 2.622 1.0488 5.2441 1.5732 7.8661.5244 2.0976.7866 3.9331 1.311 6.0307 1.0488 4.9816 1.8354 9.7016 2.6221 14.6836 0 .786 0 1.311.2622 2.097 0 .525.2622.787.5244 1.311.2622.525 1.0488.787 1.5732.787.5244-.262 1.0488-.524 1.0488-1.311.2622-.524.2622-1.049.2622-1.573z" fill="#5f4d45"/><path d="m49.9243 160.206c.2622-.524.7866-1.048 1.0489-1.573.2622-.262.2622-.786.2622-1.049 0-.524-.5245-.524-.7867-.262s-.2622.262-.5244.525c-1.8354 2.097-3.933 3.933-6.5551 5.506-2.3598 1.311-4.9818 2.36-7.6039 3.146-1.311.263-2.3598.787-3.6708.525-.2622 0-.5244.262-.7866.262-.7866 0-1.0488.524-1.311.787 0 .524.5244 1.048 1.311 1.048 1.0488 0 1.8354 0 2.8842-.262.5244 0 1.0488-.262 1.8354-.262 1.8355-.524 3.6709-1.049 5.2441-2.098 1.0488-.524 1.8354-1.048 2.8843-1.573.2622-.262.5244-.524 1.0488-.524-1.0488 1.573-1.8355 3.146-2.6221 4.719-1.0488 2.098-2.0976 4.196-3.6708 6.031-2.622 0-5.2441 0-7.8661 0-.2622 0-.7866 0-1.0488 0-.5244 0-1.0489.524-1.0489 1.049 0 .524.2623.786.7867.786h.5244 8.1283c.5244 0 1.0488 0 1.5732-.524s.7866-.787 1.0488-1.311c.7866-1.573 1.8354-2.884 2.6221-4.457 1.311-2.622 2.3598-4.982 3.6708-7.604.2622-.525.5244-.787.7866-1.049.5244-.525 1.311-1.311 1.8354-1.836z" fill="#5f4d45"/><path d="m25.2784 157.847c-.2622-1.049 0-1.836.5244-2.622 1.311-3.409 2.622-6.556 4.9818-9.702 1.5733-2.36 3.4087-4.195 5.7685-5.768 1.311-.787 2.6221-1.574 3.6709-2.36.5244-.262.7866-.525 1.311-.787.2622 0 .2622-.262.5244-.262.2622-.262.7866-.524.5244-1.049-.2622-.524-.7866-.524-1.311-.524-.7866.262-1.311.262-2.0976.524-1.0488.525-2.3599 1.311-3.4087 2.098-1.8354 1.049-3.4086 2.36-4.7196 3.933-.7867.786-1.5733 1.835-2.3599 2.622-1.0488 1.573-1.8354 2.884-2.8842 4.457-.5244 1.049-.7866 2.098-1.311 3.147-.2622.524-.5244 1.049-.7867 1.573-.5244 1.311-.7866 2.36-1.311 3.671-.2622.524-.2622.786-.2622 1.311 0 .524.2622 1.049.7867 1.049.5244.262 1.0488 0 1.311-.263.7866-.262.7866-.786 1.0488-1.048z" fill="#5f4d45"/><path d="m30.7853 174.89h7.8661c1.5733-1.835 2.6221-3.933 3.6709-6.031.7866-1.573 1.8354-3.146 2.622-4.719-.2622.262-.5244.262-1.0488.524-1.0488.524-1.8354 1.049-2.8842 1.573-1.5732.787-3.4087 1.573-5.2441 2.098 0 .262 0 .524-.2622.786-.2622 1.049-.7866 1.836-1.0488 2.885-.2622.786-.7866 1.311-1.5732 1.573-.5244.262-1.0488.524-1.5733.524 0 .263-.5244.525-.5244.787z" fill="#f6c168"/><path d="m28.9479 165.975c.7866-.524 1.5732-.787 2.3598-1.311 1.0488-.524 1.8354-1.049 2.622-1.836 1.0488-.786 1.8355-1.835 2.8843-2.884.5244-.524.7866-1.311.7866-2.097-2.6221 0-4.9819 0-7.6039 0-.2622 1.048-.5244 2.097-.5244 2.884-.2622 1.311-.5244 2.622-.7866 3.933 0 .524 0 .787.2622 1.311z" fill="#e67f53"/><path d="m79.8165 130.053c.2622 0 .5244 0 .7866-.262.5244-.262.7866-.262 1.311 0 .2622.262.7866 0 1.311 0 0 0 0 .262.2622.262h.5244c.2622-.262.5244-.787 1.0488-1.311-.2622 0-.5244-.262-.7866-.262 0-.262 0-.525 0-1.049-.2622 0-.7866 0-1.0488 0-.2622-.262-.2622-.524-.5244-.524-.5244 0-.7866-.263-1.0488-.263-.5244 1.311-1.311 2.36-1.8354 3.409z" fill="#f4f0e9"/><path d="m76.1465 132.413c0 .262.2622.524.2622.524.7867 0 1.3111.787 1.8355 1.049.2622 0 .2622.262.5244.262.2622.263.5244.525 1.0488.787 0 0 .2622 0 .5244-.262 0-.262-.2622-.525-.2622-.525 0-.262.2622-.262.2622-.524v-.262c-.7866-.525-1.0488-1.049-1.0488-1.836 0-.524-.2622-.786-.5244-1.049-.7866.525-1.5733 1.049-2.6221 1.574z" fill="#f4f0e9"/><path d="m26.064 148.407c1.0488-1.573 1.8354-2.884 2.8842-4.457-1.8354 0-3.1464.524-4.1952 1.835-.2622.262-.2622.525-.2622.787.5244.524 1.0488 1.049 1.5732 1.835z" fill="#f4f0e9"/><path d="m71.4258 133.199c-.2622 1.049.7866 1.311 1.311 1.836-.2622.524-.2622.786 0 1.311.2622.262 0 .524.2622.787.7867.524.7867.524 1.3111 0-.2622 0-.5244-.263-.5244-.263.2622-.262.5244-.262.7866-.524 0-.262-.2622-.525-.5244-.787.5244-.786.2622-1.573 0-2.622-.7867.262-1.8355.262-2.6221.262z" fill="#f4f0e9"/><path d="m67.4941 135.035c.7866.524 1.0488 1.311 1.311 2.36.5244.262.7866.262 1.311.524 0-.524.2622-1.311-.2622-1.835-.2622-.262-.2622-.787 0-1.049.2622-.525 0-.787-.2622-1.311 0-.262 0-.262 0-.525-.5244 0-1.311 0-1.8354 0 0 .787-.2622 1.311-.2622 1.836z" fill="#f4f0e9"/><path d="m26.0654 148.407c-.5244-.786-.7866-1.311-1.5732-1.573 0 0-.2622 0-.2622.262-.2622.787-.5244 1.574-.7866 2.36 1.0488 0 1.311.525 1.311 1.311 0 .787-.2622 1.049-1.0488 1.049 0 .524.2622 1.049.5244 1.573.2622-.524.5244-1.049.7866-1.573 0-1.311.5244-2.36 1.0488-3.409z" fill="#e67f53"/><path d="m81.6519 125.858c.5244 0 .7866-.525.7866-1.049 1.0488-.524 2.0976-.524 2.622-1.573-.5244-1.049-.5244-1.049-1.311-.525-.5244-.524-1.0488-.262-1.311 0-.2622 0-.5244-.262-.7866-.262z" fill="#f4f0e9"/><path d="m77.1953 119.565c0-.524-.2622-1.049-.5244-1.573-.2622 0-.5244-.263-.7866-.263-.2622.525-.5244 1.049-.5244 1.836 0 .524 0 1.049.2622 1.573h.2622c.2622-.786.7866-1.049 1.311-1.573z" fill="#f4f0e9"/><path d="m80.8662 120.876c.2622 0 .2622-.262.2622-.524 0-.263-.2622-.525-.2622-1.049.2622-.262.5244-.525 0-1.049-.7866 0-1.5732.524-1.8354 1.311l.2622.262c.7866.262 1.311.525 1.5732 1.049z" fill="#f4f0e9"/><path d="m75.3589 122.974c-.2622 0-.5244-.263-1.0488-.263-.2622 0-.5244.263-.2622.525.2622.786.7866 1.311 1.5732 1.573h.5244c0-.262 0-.262 0-.524-.2622-.525-.5244-.787-.7866-1.311z" fill="#f4f0e9"/><path d="m23.1807 151.554c.7866 0 1.0488-.262 1.0488-1.049s-.2622-1.049-1.311-1.311c.2622.787 0 1.573.2622 2.36z" fill="#5f4d45"/><path d="m38.127 155.487c3.4087.262 6.2929-2.884 6.2929-6.293s-2.8842-6.031-6.2929-6.031c-3.4086 0-6.2929 2.885-6.2929 6.293 0 3.409 3.1465 6.293 6.2929 6.031zm1.8355-5.244c0 1.049 0 1.311-.5245 1.835-.7866 1.311-2.8842 2.098-4.4574 1.311-1.8354-.786-2.3598-2.884-1.5732-4.982.5244-1.311 2.3598-2.359 3.933-1.835 1.5732.262 2.6221 1.573 2.6221 3.671z" fill="#f4f0e9"/><path d="m39.9619 150.243c0-1.836-1.0488-3.147-2.622-3.671-1.5732-.525-3.4087.524-3.9331 1.835-.7866 1.836 0 3.933 1.5733 4.982 1.5732.787 3.6708 0 4.4574-1.311.5244-.524.5244-1.049.5244-1.835zm-5.7685.786c0-.262 0-.786 0-1.048 0-.263.5244-.525.7867-.787.5244-.262 1.0488 0 1.311.262s.2622 1.573 0 1.836c-.5244.524-1.0489.262-2.0977-.263z" fill="#e67f53"/><path d="m34.1935 151.029c.7866.525 1.5732.787 1.8354.263.2622-.263.2622-1.574 0-1.836s-.7866-.524-1.311-.262c-.2622.262-.5244.524-.7866.787.2622.262.2622.786.2622 1.048z" fill="#5f4d45"/></svg>