<svg fill="none" height="180" viewBox="0 0 76 180" width="76" xmlns="http://www.w3.org/2000/svg"><path d="m21.9997 128.84c-1.1667-4.666-1.5-14.2 6.5-15-4.5002-3.666-13.3005-11.6-12.5005-13.9996 1-3-2.499-7 5.0007-11.5-3.5-3.5-10.8-12.4-11.99998-20-.16666-3.5 1.29998-10.5 8.49998-10.5-7.1666-8.3334-18.89977-26.4-8.49998-32-3.16684-5.1667-9.200537-16.10005-8.000537-18.50005.333537-3.33333 2.700617-8.8 9.500617-4l6.9999 9.99995c-.6666-2.6666-.9999-8.19998 3.0001-8.99997 3-1.5 9.6-2.4 12 5.99997 1.3333 6.5 3.6 20.4 2 24 3.3333 1.3334 9.6 6.5 8 16.5-.6667 3-1.6 9.1 0 9.5 2 .5 11-5 13.5 11.5.3333 6.3334.4 19.4-2 21 4.3333-1 13-1.6 13 4 1.3333 4.1667 3.2 14.1997 0 20.9997-.0567.121-.1119.238-.1659.352 4.0752-.607 10.1537.179 7.1659 7.648l-9.5 17.5-20-17.5z" fill="#988fc1"/><path d="m53.2426 130.707c.4253 1.064 1.2758 1.914 2.3391 2.552.4252-.212.8505-.638.8505-1.063.638-1.914 1.4885-3.828 1.7012-5.741.8505-1.914.6379-4.041.6379-5.954 0-.851 0-1.702 0-2.552 0-2.552-.6379-4.891-1.2759-7.23-.6379-1.914-1.7011-3.19-3.8275-3.615-1.2759.213-2.5517.851-3.4023 2.127-.6379.85-1.2759 1.913-1.4885 2.977-.2126.425-.4253.85-.8506 1.275-.2126 0-.4253 0-.4253-.212-.4252-.638-.8505-1.276-1.0632-1.914-1.4885-3.19-3.4023-6.379-5.5287-9.144-.6379-.85-1.0632-1.701-1.7011-2.5513 0-.4253 0-.638.2126-.8506.8506-1.2759 1.0632-2.7644 1.4885-4.2529.2127-1.7011 1.0632-3.6149.8506-5.316 0-.2127 0-.4253 0-.6379.8506-2.3391.4253-4.6782.6379-7.0172 0-.638 0-1.4885 0-2.1265-.2126-2.339-.6379-4.6781-1.9138-6.5919-.6379-1.0632-1.7011-2.1264-2.7643-2.7643-1.0632-.638-2.3391-.8506-3.4023-.638-1.2759.638-1.9138 1.7012-2.7644 2.5517-.8505-1.0632-.8505-1.0632-1.4885-2.5517.638-2.5517 1.4885-5.1034 1.9138-7.6551.4253-2.1264 1.0632-4.2528 1.0632-6.5919 0-.6379.2127-1.4885.2127-2.1264.4253-2.3391.4253-4.8908.2126-7.2299-.2126-2.1264-.8505-4.4655-1.7011-6.3793 0-.2126-.2127-.4253-.2127-.6379-.6379-.8506-1.4885-1.7011-2.339-2.3391-1.4885-.6379-2.5517.2127-3.6149.8506-.638 1.0632-1.2759 2.1264-1.9138 3.4023-.638 0-.8506-.2127-.8506-.6379-.2126-.8506-.2126-1.7012.2126-2.3391.4253-1.0632.8506-2.3391 1.4885-3.4023 1.0633-2.3391 1.7012-4.8908 2.3391-7.4425.2127-.6379.2126-1.2758.2126-1.9138 0-1.9137 0-3.6149 0-5.5287 0-1.7011-.4252-3.4022-.8505-5.1034-.2127-.6379-.4253-1.0632-.8506-1.7011-.2126-.4253-.6379-.638-1.2758-.8506-.4253 0-.8506 0-1.2759 0-.6379 0-1.0632.4253-1.2759.8506-.8505 1.4885-1.4885 3.1896-1.9137 4.6781-.2127 1.0632-.638 2.1264-.8506 3.1896-.4253 1.9138-.8506 3.8276-1.0632 5.7414v1.2759c-.638 1.4884-.4253 2.9769-.4253 4.4654 0 .2127-.2126.4253-.2126.638-.2127 0-.4253.2126-.4253.2126-.4253-.2126-.8506-.4253-1.4885-.6379-1.4885-.4253-2.7644-.2127-3.8276 1.2758-.4253.8506-.4253 1.7012-.2126 2.7644.8505 3.8276 2.1264 7.2298 4.4655 10.2068.6379.638 1.2758 1.2759 1.9137 1.9138.638.4253 1.2759.8506 1.9138 1.2759.6379.2126 1.4885.2126 2.1264.4253.2127.2126.4253.4252.4253.6379 0 1.2758 0 2.3391.2127 3.6149 0 1.2759-.2127 2.7644.4253 3.8276 0 1.7011.6379 3.1896.8505 4.8908 0 .6379.2127 1.4885.4253 2.1264-.2126.2126-.4253.4253-.6379.4253-1.0632 0-2.3391.2126-3.1897.2126-1.0632.4253-1.7011 1.2759-2.339 1.9138-.8506 3.6149.8505 7.8678 3.1896 10.2068 2.3391 2.5517 5.1034 4.2529 8.0804 5.954.8506.4253 1.7012.638 2.3391 1.7012.2126 2.5517.6379 5.316 1.2759 7.8677-.2127.2127-.2127.4253-.4253.638-.638-.2127-1.4885-.2127-2.1265-.4253-.6379 0-1.4884 0-2.1264 0-.6379.2126-1.2758.6379-1.9138 1.0632-.4252.2126-.6379.6379-1.0632 1.0632-.4253 1.0632-.4253 1.9138 0 2.7644 1.0632 3.1895 2.5517 5.9535 4.4655 8.7185 1.2759 1.701 2.7644 3.615 4.2529 5.103 2.5517 2.552 5.7413 4.466 9.1436 6.167 1.0632.425 1.9138.213 2.977.638.6379.212 1.0632.638 1.4885 1.276 0 .212.2126.425 0 .638-.4253 1.063-.4253 1.913-.4253 2.977.8506 1.275 1.9138 2.551 3.1897 3.614.2126-.212.4252-.637.4252-1.063 0-1.488 0-2.977 0-4.465 0-2.552.638-4.891 1.4885-7.443.2127-.638.638-1.276 1.0632-1.913.2127-.426.638-.638 1.0633-.638.2126.212.4252.425.4252.638.4253 1.701 1.0633 3.189 1.0633 5.103v2.977c.2126 2.339-.4253 4.678-.8506 6.804-.8506.638-.6379 2.127-1.4885 2.977zm-9.1436-15.31c-2.1265-.638-4.0402-1.914-5.5287-3.402-2.5518-2.339-5.1035-4.678-7.0173-7.655-1.4885-2.127-2.9769-4.4657-3.8275-6.8048.2126-.2126.4253-.6379.4253-.8505 1.2758-.4253 2.339.4253 3.4022.6379.8506.6379 1.2759 1.0632 2.1265 1.4885 1.7011 1.0632 2.977 2.5519 4.0402 4.0399 1.7011 2.552 3.4023 4.891 4.6781 7.443.2127.425.6379.85.8506 1.276.4253.85.8506 1.701 1.4885 2.764-.2127.425-.2127.851-.6379 1.063zm-7.6552-19.3503c-.2126-.2126-.6379-.2126-.6379-.4252-.8506-4.0402-2.1264-8.0804-2.1264-12.1207 0-1.0632-.4253-2.1264-.638-3.4022.4253-1.0633.638-2.1265.638-3.1897 0-.8506 0-1.9138 0-2.7643 0-.638.2126-1.4885.6379-1.9138.2126-.2127.4253-.4253.6379-.6379.638.4252 1.2759.6379 1.9138 1.0632.4253.6379.6379 1.2758.8506 1.9138.4253 1.2758.6379 2.5517.8506 3.8275.6379 2.1264.6379 4.2529 0 6.3793-.2127.6379-.2127 1.2759-.2127 1.9138 0 1.0632-.2126 2.1264-.4253 3.1896-.4253 1.0632 0 2.1264-.4253 3.1897-.2126.6379-.2126 1.2758-.4252 1.7011 0 .4253-.2127 1.0632-.638 1.2758zm-9.3563-29.3446c-.2126-.8506-.4252-1.7012-.6379-2.5517-.4253-2.3391-.8505-4.6782-1.4885-6.8046 0-3.1896 0-6.3793 0-9.3563.638-2.339 1.0632-4.4655 2.1264-6.5919.2127-.4253.638-.6379 1.0633-.2126.2126.2126.4253.6379.6379.8505.2126.2127.4253.638.4253.8506.2126 1.9138 1.0632 4.0402.8505 5.954-.2126 1.2759 0 2.3391 0 3.6149 0 .4253 0 1.0632-.2126 1.4885-.4253 1.2759-.4253 2.3391-.4253 3.6149 0 .4253 0 .8506-.2126 1.2759-.4253 1.0632-.4253 2.1264-.638 3.1896-.2126 1.0633-.6379 2.1265-.6379 3.1897.2127.4253 0 1.0632-.8506 1.4885zm3.615 10.8447c0 .638 0 1.9138-.2127 2.977 0 .2127-.4253.4253-.6379.4253-2.5517-1.4885-4.8908-3.1896-7.0172-5.316-1.0632-1.0632-1.9138-2.3391-2.3391-3.8276-.4253-1.0632-.4253-2.1264.2127-3.1896.4253 0 .8505-.2127 1.2758 0 1.2759.4252 2.5517.8505 3.615 1.7011 1.9137 1.9138 4.0402 3.6149 5.1034 7.2298zm-10.2069-41.4652c-.6379-.2127-.8505-.4253-.8505-.8506 0-.2127-.2127-.6379 0-.8506.6379-1.4885.6379-3.1896.6379-4.8908 0-.4253 0-.8505 0-1.2758.6379-1.9138.4253-3.8276 1.0632-5.7414s.8506-3.8275 1.4885-5.954c0-.4252.4253-.6379.8506-.4252.2126.8505.2126 1.9137.6379 2.9769.4253.8506.2126 1.9138 0 2.977-.2126.638-.4253 1.4885-.4253 2.1265.2127 1.7011-.4253 3.4022-.8506 5.1034-.4252 1.9138-1.2758 3.8276-1.9137 5.7413 0 .4253-.4253.8506-.638 1.0633zm.2127 10.8447c-1.7012-1.0632-2.7644-2.5517-3.8276-4.2528-1.0632-1.7012-1.7011-3.4023-2.1264-5.3161 0-.4253 0-.8506.4253-1.0632h.2126c.2127 0 .4253 0 .6379.2126 2.977 2.5517 5.1035 5.7414 5.954 9.5689 0 .2127-.2126.638-.2126.8506-.4253-.2126-.6379-.2126-1.0632 0z" fill="#b8b8cc"/><path d="m34.5564 173.84c-4.0496-.705-7.6228-2.35-11.196-3.76-2.6203-.94-4.526-2.82-5.2407-5.405-.2382-.705-.4764-1.175-.7146-1.88-1.1911-3.525-2.6203-7.05-3.8114-10.575-.9529-2.82-2.1439-5.64-3.0968-8.46-.4764-1.41-.71462-2.82-.2382-4.465.2382-.235.2382-.47.4764-.94.9529-1.88 2.3822-2.82 4.2879-3.525 2.3821-.705 4.7642-1.645 7.1463-2.35l4.2879-1.41c2.3821-.705 4.7642-1.41 7.1463-2.115 2.6204-.705 5.0025-1.645 7.1464-2.115 2.6204.235 4.5261.94 6.1936 2.35l5.7171 4.935c1.4292 1.41 2.6203 2.82 4.0496 3.995.7146.705 1.4293 1.41 2.1439 2.35 1.6675 1.88 2.8585 4.23 4.526 6.345.7147.705.7147 1.88.4765 2.82-.4765 1.41-.9529 2.585-1.9057 3.525-.7147.47-1.4293 1.175-2.144 1.88-2.1439 1.645-4.0496 3.29-5.7171 5.17-1.9057 1.88-3.8114 3.525-5.7171 5.405-3.3349 2.585-6.9081 4.935-10.2431 7.285-1.1911.235-2.3821.705-3.5732.94z" fill="#ebf4ef"/><path d="m65.0053 143.248c-2.5517-3.19-5.5287-5.954-8.5057-8.719-.4253-.425-.8506-1.063-1.2759-1.701-.8506-.638-1.9138-1.488-2.3391-2.552-1.2758-1.275-2.5517-2.339-3.6149-3.614-1.2758-1.064-2.3391-2.127-3.1896-3.615-1.0632-.851-2.1265-1.489-3.1897-2.339-1.2758-.851-2.7643-1.064-4.2528-.638-2.7644.85-5.5287 1.913-8.2931 3.189-.6379.213-1.2758.638-1.7011 1.063-1.4885 1.489-3.1897 2.127-4.6781 3.19-.638.425-1.2759.638-1.9138 1.063-.4253.213-.638.426-1.0632.638-2.7644 1.489-5.5287 2.977-8.2931 4.678-1.7011 1.064-3.40229 1.914-4.89078 2.977-.85057.426-1.27586 1.276-1.70115 2.127-.63793 2.126-1.06321 4.04-.63792 6.379.42528 1.701.85057 3.402 1.27586 5.104 1.70114 5.953 4.04019 11.482 6.59189 17.011.4253.85.8506 1.701 1.2759 2.339 1.2758 1.914 2.7643 3.19 4.8908 4.253 3.8275 1.701 7.6551 3.189 11.6953 4.04 2.7643.638 5.3161 1.063 8.0804 1.063 1.4885 0 2.977-.212 4.4655 0 .6379 0 1.4885-.212 2.1264-.638 2.1265-1.276 4.2529-2.551 5.7414-4.465 2.1264-2.765 4.2528-5.316 6.5919-8.081.8506-1.063 1.7011-2.126 2.7644-3.402 2.1264-2.552 4.2528-5.316 5.9539-8.08.4253-.851 1.0633-1.489 1.7012-2.339.6379-1.064.6379-2.339 0-3.828-.4253-.85-.8506-1.488-1.4885-2.339s-1.2759-1.914-2.1264-2.764zm-29.9826 28.494c-3.615-.638-6.8046-2.127-9.9942-3.403-2.3391-.85-4.0402-2.551-4.6782-4.89-.2126-.638-.4253-1.064-.6379-1.701-1.0632-3.19-2.3391-6.38-3.4023-9.569-.8506-2.552-1.9138-5.104-2.7643-7.655-.4253-1.276-.638-2.552-.2127-4.041.2127-.212.2127-.425.4253-.85.8506-1.701 2.1264-2.552 3.8276-3.19 2.1264-.638 4.2528-1.488 6.3793-2.126 1.2758-.426 2.5517-.851 3.8275-1.276 2.1264-.638 4.2529-1.276 6.3793-1.914 2.3391-.638 4.4655-1.488 6.3793-1.914 2.339.213 4.0402.851 5.5287 2.127 1.7011 1.488 3.4023 2.977 5.1034 4.465 1.2759 1.276 2.3391 2.552 3.6149 3.615.6379.638 1.2759 1.276 1.9138 2.127 1.4885 1.701 2.5517 3.827 4.0402 5.741.6379.638.6379 1.701.4253 2.552-.4253 1.275-.8506 2.339-1.7011 3.189-.638.426-1.2759 1.063-1.9138 1.701-1.9138 1.489-3.6149 2.977-5.1034 4.678-1.7012 1.702-3.4023 3.19-5.1035 4.891-2.977 2.339-6.1666 4.466-9.1436 6.592-1.0632.213-2.1264.638-3.1896.851z" fill="#234e32"/><path d="m35.1921 173.84c1.3499-.222 2.2498-.668 3.3747-1.336 3.3747-2.228 6.7493-4.233 9.6741-6.906 2.0248-1.56 3.5996-3.342 5.3994-5.124 1.7999-1.559 3.5997-3.342 5.3995-4.901.675-.446 1.3499-1.114 2.0248-1.782 1.1249-.891 1.5749-2.005 1.7999-3.342.2249-.891.2249-2.005-.45-2.673-1.5748-1.782-2.6997-4.01-4.2746-6.015-.6749-.668-1.3499-1.559-2.0248-2.228-1.3499-1.336-2.4748-2.673-3.8246-3.787-1.7999-1.559-3.5997-3.119-5.3995-4.678-1.5749-1.337-3.5997-2.005-5.8495-2.228-2.2497.446-4.4995 1.337-6.7493 2.005-2.2498.669-4.4996 1.337-6.7494 2.005-1.3498.446-2.6997.891-4.0496 1.337-2.2498.668-4.4996 1.559-6.7493 2.228-1.7999.668-3.3747 1.559-4.0496 3.341-.225.223-.225.668-.45.891-.45 1.56-.225 2.896.225 4.233.8999 2.673 2.0248 5.346 2.9247 8.02 1.1249 3.341 2.4748 6.683 3.5996 10.025.225.668.45 1.113.675 1.782.6749 2.673 2.4747 4.232 4.9495 5.123 3.3747 1.56 6.5244 3.119 10.574 4.01zm-.8999-14.925c-.225-.446-.225-.891-.45-1.56-.6749-1.559-.4499-3.341-.4499-4.901 0-.668.4499-1.336 1.1249-1.336 1.5748-.446 2.9247-.223 3.3746 1.336.225.446.45.669.45 1.114.225 1.114.45 2.228.6749 3.342.225 1.336-.2249 2.45-1.5748 3.118-.225.223-.6749.223-.8999.223-.675-.223-1.3499-.445-2.2498-1.336zm-4.2746-15.149c1.1249.668 1.7998 1.114 1.7998 2.005s-.225 1.337-.6749 2.005c-.225.223-.45.446-.6749.668-.675.223-1.1249.446-1.7999.669-1.7998.668-3.3747 0-4.4995-1.337-.9-.891-.675-2.451.4499-3.119.8999-.445 1.5749-.891 2.6998-.891zm14.1736 4.901c1.7999-1.337 3.8247-1.114 5.8495-.445.225.222.6749.222.8999.445.45.446.6749.891.6749 1.337.225 1.559-1.5748 3.119-3.1497 2.673-1.3498-.446-2.6997-1.114-4.0496-2.005-.225-.223-.225-.223-.4499-.446-.225-.445-.225-.891.2249-1.559zm-5.1745-3.119c-1.1249-.445-1.7998-1.336-1.7998-2.673 0-1.559.6749-2.673 1.5749-3.564.8999-.669 2.4747-.891 3.3746-.223.225.223.675.668.675 1.114.225.668 0 1.336 0 2.005-.675.891-1.1249 1.782-1.5749 2.45-.6749.446-1.3498.668-2.2498.891z" fill="#ccdc97"/></svg>