<svg fill="none" height="107" viewBox="0 0 136 107" width="136" xmlns="http://www.w3.org/2000/svg"><path d="m10.8693 36.2465s-10.118528 2.891-10.8412816 4.8786c-.7227534 1.9875 12.6481816 24.5736 27.2839816 30.3556 14.6357 5.7821 37.4025 8.8538 37.4025 8.8538l19.5143-2.5297 22.2252-12.1061 16.081-19.695 9.576-21.1406s7.047-22.22467 2.169-24.392935c-3.253-1.445508-7.409.903445-7.409.903445" fill="#89c5ac"/><path d="m100.671 76.3593c0 .5421.181 1.0841 0 1.4455-.361.7228-.7227 1.6262-1.2648 2.349-.9035 1.0841-1.8069 1.9875-2.891 2.891-3.6138 2.5296-7.4083 4.3365-11.7448 5.0592-1.8069.3614-3.7944.9035-5.6013 1.2649-1.8069.542-3.7945.7227-5.6014.7227-3.6137 0-7.0468 0-10.6606 0s-7.2275-.3614-10.8413-.9034c-.3614 0-.7227 0-1.0841 0-2.1683 0-4.3365 0-6.5048-.5421-1.2648-.3614-2.5296-.3614-3.7945-.5421-.3613 0-.9034-.1806-1.2648-.542-.3614-.1807-.5421-.5421-.3614-1.0841.1807-.1807.3614-.3614.5421-.3614 2.7103-.3614 5.4207-.7228 8.3117-.3614 2.3489.3614 4.8786.1807 7.2275.1807h18.9723c1.6262 0 3.2524-.1807 4.8786-.7228 1.8069-.542 3.4331-.9034 5.2399-1.2648 2.7104-.542 5.24-1.4455 7.589-2.7103 1.9875-1.0841 3.7944-2.349 5.782-3.6138.9034-.1807 1.8069-1.0841 3.0717-1.2648z" fill="#fff"/><path d="m58.9316 96.235c0-.5421 0-.7228.1807-1.0842.5421 0 .9035-.1806 1.4455-.1806h11.9255c2.3489 0 4.6979-.1807 7.0468-.3614.7228 0 1.4455-.1807 1.9876-.5421 1.9876-.7227 4.1558-1.4455 6.1434-1.9876 1.4455-.542 2.891-1.0841 4.1558-2.1682.9035-.5421 1.8069-1.0842 2.7104-1.6262.542-.1807 1.0841-.1807 1.4455.3614 0 .3613 0 .7227-.1807 1.0841-.5421 1.4455-1.4455 2.5296-2.7103 3.4331-1.2649 1.0841-2.7104 1.8069-4.3366 2.1682-2.1682.7228-4.5172 1.4455-6.6854 2.1683-2.1683.7228-4.5172.9034-6.6855.7227-3.2524-.3613-6.5048-.1806-9.9379-.3613-2.1682.1807-4.3365-.5421-6.5048-1.6262z" fill="#fff"/><path d="m68.8701 104.366c.1807-.903.9035-1.265 1.6262-1.265.7228-.181 1.6262-.181 2.349-.181 3.0717-.18 6.1434-.18 9.3958-.542 2.3489-.18 4.3365-1.084 6.3241-1.987.7227-.362 1.2648-.5422 1.8068-.9036.3614-.1807.9035-.1807 1.2649-.3614.9034 0 1.6262.903 1.4455 1.807-.1807.542-.5421 1.084-.9035 1.445-.7227.723-1.6262 1.265-2.5296 1.627-1.9876.722-3.9752 1.445-6.1434 1.987-1.2648.362-2.5297.181-3.7945.181-2.7103-.181-5.4206-.362-7.9503-.362-.3613 0-.9034 0-1.2648-.18-1.0841-.181-1.6262-.542-1.6262-1.265z" fill="#fff"/><path d="m100.31 8.23969c3.795-.90344 7.589-1.98757 11.384-2.89101 2.559-.23266 8.131-2.71044 9.396-1.44555 1.29.64535 3.932 3.63311 3.613 6.50487-.361 2.3489-.723 4.5172-1.807 6.6854-.722 1.4455-1.445 2.891-1.987 4.5172-1.988 5.0593-4.337 9.9379-7.228 14.6358-2.529 4.3365-5.059 8.8537-8.673 12.6482-3.794 3.9751-8.3115 7.4082-12.8287 10.4799 0 0-.1807 0-.1807.1807-4.5172 2.349-9.0344 4.3365-13.913 5.6014-2.1683.542-4.5172 1.2648-6.8662 1.6262-2.5296.9034-5.2399 1.2648-7.9503 1.6262-3.2523.3613-6.6854-.1807-9.7571-.9035-4.8786-1.0841-9.5765-2.891-14.0937-5.24-4.6979-2.7103-9.2151-5.6013-13.1903-9.2151-4.3365-3.9751-7.9503-8.4923-10.6606-13.7323-.7228-1.4455-1.2648-3.0717-1.0841-4.6979.7227-1.2648 1.8068-1.8069 3.0717-2.1683 3.433-.9034 7.0468-1.9875 10.4799-3.0717 5.782-1.8068 11.5641-3.9751 17.5268-5.782 6.6855-2.1683 13.3709-4.1558 20.0564-6.1434 1.8069-.5421 3.4331-1.0841 5.24-1.8069 4.6979-1.4455 9.5765-2.3489 14.2744-3.6138 1.4455-.3613 3.0717-.7227 4.5172-1.0841 2.891-.7227 5.782-1.2648 8.4923-1.98756.7228 0 1.4455-.36137 2.168-.72275z" fill="#e9887e"/><path d="m128.679 37.6919c0-.3614.181-.7227.181-.9034.722-1.6262 1.264-3.4331 1.987-5.0593.542-1.4455 1.084-2.891 1.626-4.3365.181-.7228.362-1.4455-.18-2.1683-.723-.542-1.446-.1807-1.988.1807-.723.7228-1.445 1.4455-1.807 2.1683-1.084 1.9875-1.987 4.1558-3.071 6.3241-1.446 3.2524-2.892 6.5048-4.518 9.5765-2.529 5.0592-6.143 9.5764-9.938 13.7323-4.336 4.8786-9.395 9.0344-14.816 12.6482-6.6855 4.5172-14.2744 6.6854-22.2247 7.5889-3.7945.3614-7.5889.7227-11.3834.9034-.9034 0-1.9876 0-2.891 0-3.2524-.1807-6.3241-.542-9.5765-.9034-4.6979-.5421-9.3958-1.4455-13.913-3.0717-2.3489-.9035-4.6979-1.6262-7.2275-2.349-.5421-.1807-1.0842-.3613-1.8069-.3613-.3614 0-.5421.1806-1.0841.1806.1806.5421.1806.9035.542 1.0842.9035.7227 1.8069 1.4455 2.891 1.8069 3.0717 1.2648 6.3241 2.5296 9.3958 3.6137 3.4331 1.2649 7.0469 1.8069 10.6607 2.349 4.6979.7227 9.2151 1.2648 13.913 1.0841 4.8786-.1807 9.7571-.7227 14.8164-1.4455 7.0469-.9034 13.5517-3.4331 19.6951-7.0468 1.8069-1.0842 3.6141-2.349 5.4211-3.6138 1.626-1.2648 3.252-2.7103 4.878-4.1559 1.988-1.8068 3.795-3.6137 5.782-5.2399.362-.3614.723-.5421.904-.9035.542-.542.903-1.2648 1.445-1.8068 2.168-2.8911 4.517-5.7821 6.324-8.8538 1.084-1.9876 2.168-3.7944 3.433-5.9627z" fill="#2b3d2d"/><path d="m14.4825 34.8009c-.1807 1.6262 1.0849 3.7945 1.8077 5.2401 2.7103 5.2399 5.4207 8.673 9.9379 12.6481 6.9166 6.2879 15.155 11.9021 24.3929 13.5517 8.1665 1.8148 14.3954 1.6381 22.5861 0 10.294-2.0588 22.6329-7.7498 31.6209-17.1654 3.613-3.7945 5.601-7.4082 8.131-11.7448 2.71-4.6979 5.239-9.3958 7.227-14.4551.542-1.4455 1.084-3.0717 1.807-4.5172 1.084-2.1682 1.807-4.5172 2.71-7.4082 0-1.62619-.745-4.25719-3.795-5.78207-.361-.18068-1.084-.70005-1.625-1.26477 1.807-1.80689 6.686-2.52967 8.131-2.71033 1.806 0 2.348 1.26478 2.528 2.71028v1.98758c-.361 1.98757-.722 4.15581-1.084 6.14341-.542 2.3489-1.084 4.5172-1.807 6.6855-1.987 5.782-3.794 11.564-6.324 16.9847-.903 1.9876-1.987 3.9751-3.071 5.9627-1.807 3.0717-3.614 5.9627-5.421 8.8537-.361.7228-.903 1.2649-1.446 1.8069-4.517 4.8786-9.757 9.2151-15.9001 11.9255-1.4455.7227-2.891 1.6262-4.3365 2.3489-4.8786 2.7103-9.9379 4.3365-15.5392 5.0593-.7228 0-1.4455.3614-1.9876.3614-3.2524.3613-6.5048.9034-9.7572.9034-3.6137 0-7.0468 0-10.6606-.7227-2.7103-.5421-5.4207-1.0842-7.9503-2.1683-1.4455-.5421-2.7103-1.0841-4.1558-1.4455-2.349-.7228-4.3365-1.6262-6.3241-2.891-1.6262-1.0842-3.2524-1.9876-4.8786-3.0717-4.6979-3.0717-9.0344-6.6855-12.6482-11.2027-2.7103-3.6138-5.24-7.4082-6.86616-11.5641-.72276-1.6262-.36138-2.891 1.26486-3.6137.9034-.7228 2.1682-1.0842 3.433-1.4456z" fill="#f1ebdf"/><g fill="#2b3d2d"><path d="m105.188 19.8037c-.18.3614-.361.9035-.722 1.2648-1.626 1.4455-3.614 2.349-5.7823 2.891-1.0841.3614-2.1683-.3613-2.5296-1.4455-.3614-.9034 0-1.9875 1.0841-2.3489 1.6262-.9035 3.4328-1.6262 5.2398-2.349 1.446-.3613 2.71.5421 2.71 1.9876z"/><path d="m37.0677 46.5457c1.4455.3614 3.2524.7228 4.8786 1.6262.9035.5421 1.2648 1.6262.9035 2.3489-.3614.9035-1.2649 1.6262-2.5297 1.4456-1.6262-.3614-3.2524-.9035-4.6979-1.9876-.1807-.1807-.1807-.1807-.3614-.3614-.7227-.7227-.9034-1.6262-.542-2.3489.542-.5421 1.2648-.7228 2.3489-.7228z"/><path d="m71.7598 38.4147c0-1.0841.542-1.8069 1.4455-2.1683 1.2648-.542 2.7103-1.0841 4.1558-1.4455 1.2648-.3613 2.349.5421 2.5296 1.6262.3614 1.0842-.1806 2.1683-1.4455 2.7104-1.4455.542-2.891.9034-4.5172.9034-.9034-.1807-1.0841-.3614-2.1682-1.6262z"/><path d="m67.7861 52.5084c.1807-.9034.7228-1.4455 1.4455-1.6262 1.6262-.3614 3.4331-.542 5.0593-.7227.3614 0 .7228 0 1.0842.1807 1.2648.3613 1.8068 2.1682.7227 3.2524-.3614.3613-.9034.7227-1.2648.7227-1.8069.1807-3.4331.1807-5.24.1807-.9034-.1807-1.6262-.9034-1.8069-1.9876z"/><path d="m92.1765 49.798c0 1.6262-1.0841 2.7104-2.3489 2.5297-1.6262-.1807-3.0717-1.0841-4.3365-1.9876-.9035-.7227-.9035-2.1683 0-2.891.9034-.7228 1.8068-.9034 2.891-.5421 1.2648.3614 2.1682.9035 3.0717 1.8069.3614.1807.542.7228.7227 1.0841z"/><path d="m78.2648 25.9472c-.7228 0-1.4455-.1807-1.8069-.9035-.3614-.542-.3614-1.6262.1807-2.1682 1.2648-1.2649 2.5296-2.1683 4.1558-2.8911.3614-.1806 1.0842-.1806 1.4455 0 .9035.1807 1.6262 1.4456 1.0842 2.1683-1.2648 1.8069-2.891 3.2524-5.0593 3.6138z"/><path d="m37.7918 38.0533c-1.2648-.3614-2.3489-.5421-3.4331-.7228-.3613 0-.7227-.1807-.9034-.3614-.5421-.3614-.9034-1.0841-.7228-1.8069.1807-.7227.5421-1.2648 1.2649-1.4455.542-.1807 1.0841-.1807 1.4455 0 1.2648.1807 2.3489.3614 3.6137.7228.3614 0 .7228.3614 1.0842.5421 1.0841.7227 1.0841 2.1682-.1807 2.7103-.5421 0-1.4455.1807-2.1683.3614z"/><path d="m103.924 30.103c1.085.3614 1.627 1.0841 1.627 1.9876 0 1.6261-.362 3.2523-1.085 4.6979-.542 1.0841-1.626 1.4455-2.529 1.0841-1.084-.3614-1.626-1.4455-1.265-2.5296.361-1.4456 1.084-2.7104 1.626-4.1559.181-.7227.723-1.0841 1.626-1.0841z"/><path d="m55.4971 45.6422c.3613-1.4455 1.2648-2.891 2.7103-3.9752 1.4455-.9034 3.0717.1807 3.0717 1.8069 0 .3614 0 .7228-.1807 1.0842-.7227 1.0841-1.4455 2.1682-2.1683 3.0717-.542.7227-1.4455.7227-2.3489.3613-.7228-.3613-1.0841-1.0841-1.0841-2.3489z"/><path d="m116.21 8.60105c.361.54207.723 1.08413 1.084 1.44555-.181 1.6262-1.084 2.3489-2.349 2.5296-.723.1807-1.445.1807-1.987.1807-.904 0-1.627-.7228-1.807-1.6262-.181-.9035.18-1.80689 1.084-2.16827.542-.18069 1.084-.36138 1.807-.54207.722.18069 1.445.18069 2.168.18069z"/><path d="m58.0277 28.4768c-.1807 1.0842-.3614 2.1683-.5421 3.2524-.1807.5421-.5421 1.0841-1.0841 1.4455-1.2649.5421-2.7104-.3614-2.5297-1.6262.1807-1.0841.3614-1.9875.7228-3.0717.3614-1.0841 1.0841-1.6262 1.8069-1.4455.9034-.1807 1.4455.5421 1.6262 1.4455z"/></g></svg>