<svg fill="none" height="177" viewBox="0 0 82 177" width="82" xmlns="http://www.w3.org/2000/svg"><path d="m42.5327 147.673c8.3935-3.41 16.787-7.082 24.9182-10.492 2.8852-1.049 5.2459-2.885 7.8689-4.459 1.0492-.787 1.8361-1.574 2.623-2.623 2.3606-3.147 1.5737-8.918-3.6722-10.229-.7869-.263-1.8361-.263-2.623-.525v-.262c-2.0984-1.049-4.1967-2.099-6.2951-3.148 0-.262 0-.524.2623-.787.7869-1.049 1.5738-1.836 2.3607-2.885 4.7213-4.984 8.6558-10.492 11.8033-16.5246.5246-1.0492 1.0492-2.0984 1.3115-3.1476 1.5738-4.1968-.7869-8.9181-5.2459-10.2296-.7869-.2623-1.3115-.5246-2.3607-.7869.2623-1.0492.5246-2.3606 1.0492-3.1475 1.3115-3.9345 2.3607-8.1312 3.1476-12.328.5245-2.3607.2622-4.7213-1.3115-6.8197-1.0492-1.5738-2.0984-3.4099-3.9345-4.4591.2623-1.5737.5246-2.8852.5246-4.1967.2623-2.8853.5246-6.0328.7869-8.9181.2623-3.9345-1.3115-7.3443-3.6722-10.4919-1.5737-2.3606-4.459-2.3606-6.5574-.7869-.7869.5246-1.3115 1.0492-2.0984 1.8361-1.0491-1.8361-.7868-3.4098-.7868-4.9836-.2623-5.5083-.7869-10.7542-1.5738-16.2624-.2623-1.31152-.7869-2.623-1.3115-3.93448-.7869-1.57379-1.5738-2.88527-2.3607-4.19675-1.0492-1.57379-2.0984-2.622973-4.1967-2.88527-2.623.786891-3.1476 1.04919-3.6722 2.88527-1.0492 3.40985-2.623 6.81971-2.623 10.49183 0 1.0492.2623 2.0984-.5246 2.623-.2622 0-.2622 0-.5245 0-2.0984-.5246-4.1968 0-6.0329 1.3115s-2.6229 3.1476-2.8852 5.5082c0 .7869-.5246 1.5738-.5246 2.3607-.5246.2623-.7869.2623-1.0492.2623-4.1968 0-6.8197 2.3607-8.1312 6.0328-.7869 2.623-1.5738 5.5083-2.3607 8.3935-.2623.7869-.5246 1.5738-.7869 2.3607-4.459 1.3115-5.2459 2.0984-6.5574 6.5574.2623 1.0492 0 2.0984-.5246 3.1476-3.1476 7.8689-4.459 16.0001-4.7213 24.3936 0 2.623-.2623 5.5082-.78694 8.1312-.52459 0-1.04918.2623-1.57378.2623-4.19675.2623-7.082012 3.6721-7.606606 7.6066-.2622965 3.1476-.524593 6.0328 0 8.9185.786886 3.934 1.573786 7.868 2.622966 11.803 2.62297 9.443 7.08206 18.098 12.32796 26.23.7869 1.049 1.3115 2.36 1.8361 3.672 1.5738 4.197 6.0328 7.082 10.4918 7.082z" fill="#89c5ac"/><path d="m35.1878 110.952c-.7869 3.934-.7869 7.868-2.0984 11.803-2.0984-1.312-3.9344-2.885-5.2459-4.459-2.8853-3.148-5.246-6.295-7.6066-9.705-1.3115-1.836-2.623-3.41-3.9345-4.984-.5246-.787-1.3115-1.311-1.8361-1.574-1.3115.263-1.3115 1.05-1.0492 1.837.7869 2.098 1.5738 4.196 2.623 6.295 4.1968 7.344 9.1804 14.164 15.7378 19.672 0 3.41-1.0492 6.82-1.3115 9.967-.5246 3.41-.2623 6.82-1.5737 9.967-.2623 0-.7869.263-1.0492.263-4.4591 0-8.9181-2.886-10.4919-7.082-.5246-1.312-1.3115-2.361-1.8361-3.672-5.2459-8.132-9.70497-16.787-12.32794-26.23-1.04919-3.935-1.83608-7.869-2.622967-11.803-.5245936-2.8857-.262297-6.0333 0-8.9186.524597-3.9344 3.409857-7.3443 7.606607-7.6066.5246 0 1.04919-.2623 1.57378-.2623.52462-2.6229.78692-5.5082.78692-8.1312.2623-8.3935 1.5738-16.5247 4.7213-24.3936.2623-1.0492.5246-2.0984.7869-2.8852 1.3115-4.4591 2.0984-5.246 6.5574-6.5575.2623-.7869.5246-1.5737.7869-2.3606.7869-2.8853 1.5738-5.5083 2.3607-8.3935 1.3115-3.9345 3.9344-6.0329 8.1312-6.0329.2623 0 .5246-.2623 1.0492-.2623.2623-.7869.5246-1.5737.5246-2.3606.2623-2.0984 1.3115-4.1968 2.8852-5.5083 1.8361-1.3115 3.9345-1.836 6.0329-1.3115h.5246c.7869-.7868.5246-1.836.5246-2.6229-.2623-3.67218 1.3114-7.08204 2.6229-10.4919.5246-1.57378 1.3115-1.83607 3.6722-2.885262 1.8361.262296 3.1475 1.311482 4.1967 2.885262.7869 1.31149 1.8361 2.88527 2.3607 4.19675.5246 1.31149 1.0492 2.62297 1.3115 3.93445.7869 5.2459 1.5738 10.7542 1.5738 16.2624 0 1.5738 0 3.1476.7869 4.9837.7869-.7869 1.3114-1.3115 2.0983-1.8361 2.3607-1.8361 4.9837-1.5738 6.5575.7869 2.3606 3.1475 4.1967 6.2951 3.6721 10.4918-.2623 2.8853-.5246 6.0329-.7869 8.9181-.2623 1.3115-.2623 2.623-.5246 4.1968 1.8361 1.0492 2.8853 2.623 3.9345 4.459 1.3115 2.0984 1.5738 4.4591 1.3115 6.8197-.7869 4.1968-1.8361 8.3935-3.1476 12.328-.2623 1.0492-.5246 2.0984-1.0492 3.1476.7869.2623 1.5738.5246 2.3607.7869 4.459 1.3114 6.5574 6.0328 5.2459 10.2295-.2623 1.0492-.7869 2.0984-1.3115 3.1476-3.1475 6.0324-7.082 11.5414-11.8033 16.5244-.7869 1.049-1.5738 1.836-2.3607 2.886-.2623.262-.2623.524-.2623.786 2.0984 1.05 4.1968 2.099 6.2951 3.148v.262c.7869.263 1.8361.263 2.623.525 4.9836 1.311 6.0328 7.082 3.6722 10.229-.7869 1.05-1.5738 1.837-2.623 2.623-2.3607 1.837-4.9836 3.41-7.8689 4.46-8.3935 3.409-16.787 7.082-24.9182 10.491-.7869.263-1.5738 1.05-2.3607.525 0-.262.2623-.525.2623-.525 5.5082-4.459 9.9673-9.967 14.6886-15.213.7869-1.049 1.5738-2.098.5246-3.147-1.0492-.525-1.836-.263-2.3606.262-2.3607 2.098-4.9837 3.934-7.3444 6.033-1.836 1.574-3.9344 3.147-5.7705 4.983-1.0492.787-1.8361 1.574-3.1475 1.836-.2623-.262-.5246-.524-.5246-.524.7868-4.984 1.5737-9.967 2.3606-14.951 1.0492-1.049 2.3607-1.836 3.4099-2.885 1.3115-1.05 2.623-2.361 3.9344-3.41 4.1968-4.197 8.1312-8.394 12.328-12.853 3.1476-3.41 5.7705-6.819 8.1312-10.7539.2623-.5246.5246-.7869.5246-1.3115s-.2623-1.0492-.2623-1.5738c-1.5738-.2623-2.0984.5246-2.623 1.3115-1.5738 1.8361-3.4098 3.6722-4.9836 5.5087-4.9837 5.508-11.0165 9.967-16.5247 14.95-.5246.525-1.0492 1.05-2.0984 1.05-.5246-1.312 0-2.623.2623-3.935 0-1.574.5246-2.885.5246-4.459.2623-1.311.2623-2.623.5246-4.197.2623-1.573.2623-2.885.5246-4.459.2623-1.3111.5246-2.6226.7869-4.1964 2.3607-2.3607 4.459-4.7213 6.8197-7.082 4.7213-4.9837 9.1804-10.4919 12.8525-16.2624.7869-1.3115 1.8361-2.623 1.8361-4.4591-.5246-1.0492-1.0492-1.0492-1.8361-.5246-1.5737 1.0492-2.8852 2.3607-3.9344 3.9345-3.6722 5.5082-8.1312 9.705-13.1149 14.164-.2622.2623-.5246.2623-1.0491.5246-.2623-.2623-.5246-.5246-.5246-.5246.5246-5.7705 1.0491-11.541 1.836-17.0493 2.623-3.1475 4.9837-6.0328 7.3444-9.1804 2.6229-3.4098 4.7213-7.3443 6.5574-11.2787.2623-.7869.5246-1.5738-.2623-2.3607-1.0492-.2623-1.5738.5246-2.0984 1.3115-1.5738 2.0984-3.1476 4.459-4.9836 6.5574-1.0492 1.3115-2.0984 2.3607-3.1476 3.6722-.5246.5245-.7869.7868-1.3115 1.0491-1.0492-.2623-.7869-.7869-.5246-1.3114.2623-3.1476.7869-6.2952 1.0492-9.4427.5246-5.246 1.3115-10.7542 1.8361-16.0001 0-1.3115.2623-2.623-1.0492-3.4099-.7869-.2623-1.5738.2623-1.8361 1.0492s-.5246 1.3115-.5246 2.0984c-.5246 3.1475-1.0492 6.2951-1.5738 9.1804-1.0491 6.8197-2.0983 13.3771-2.8852 20.1968 0 .5246-.2623 1.0492-.2623 1.3115-.7869.5246-1.3115 0-1.5738-.5246-1.3115-2.0984-2.3607-4.1967-3.4099-6.2951-.7868-1.5738-1.5737-3.4099-2.3606-5.246-.5246 0-1.0492-.2623-1.8361-.2623-1.0492 2.623.5246 4.4591 1.0492 6.5575.7869 2.3606 1.8361 4.459 2.8852 6.5574 1.0492 1.8361 2.623 3.6721 3.9345 5.7705.2623 2.623-1.0492 11.5411-2.0984 14.6886-1.8361-.7868-4.1967-2.3606-5.5082-4.1967-2.8853-3.9345-6.2951-7.082-8.1312-11.8034-.2623-.7869-.7869-1.5737-1.8361-1.5737-.7869.2623-1.0492 1.0491-1.0492 1.836 0 .5246.5246 1.0492.7869 1.8361 1.8361 3.9345 3.9345 7.8689 6.5574 11.5411 1.8361 2.3606 3.6722 4.459 5.5083 6.5574.7869.7869 2.0983 1.3115 3.4098 2.0984-.5246 4.459-1.0492 9.1804-2.0983 14.1645-2.0984-1.05-3.6722-2.361-5.246-3.41-4.9836-3.1479-8.1312-7.8693-11.0165-12.8529-.5245-1.0492-.7868-2.3607-2.3606-3.1476-.5246.2623-.7869.5246-1.5738.7869 1.5738 11.0165 8.6558 19.1476 18.0985 25.7056z" fill="#2b3d2d"/><g fill="#fff"><path d="m40.6973 161.575c0-.787.2623-1.312.2623-1.836.5246-.263 1.0492-.525 1.5737-.525 3.6722-.787 6.8198-2.098 10.2296-3.672 4.4591-1.836 9.1804-3.41 13.6395-5.246 2.8852-1.049 5.5082-2.361 7.8689-4.197.5246-.524 1.3114-.787 2.0983-1.049 1.3115-.525 2.623.525 2.8853 1.836.2623 1.049 0 2.099-.7869 2.885-1.0492 1.05-2.0984 2.099-3.4098 2.886-2.0984 1.049-4.1968 2.098-6.5575 2.885-6.0328 2.098-11.8033 4.197-17.8362 6.033-2.0983.524-4.1967.787-6.2951 1.311-1.0492 0-1.0492-.262-3.6721-1.311z"/><path d="m64.0402 168.395c-.2622 2.098-1.5737 2.885-2.8852 3.409-1.8361.787-3.9345 1.312-5.7705 1.574-2.623.263-5.246.787-7.3444 2.361-.2623.262-1.0491.262-1.5737.525-.5246-.525-1.0492-1.312-1.5738-1.837 1.5738-2.36 3.4098-3.934 6.0328-4.721 3.4099-1.049 6.8197-2.098 10.2296-2.885.7869-.262 1.5738 0 2.0984.262 0 .262.5246.787.7868 1.312z"/></g></svg>