<svg fill="none" height="104" viewBox="0 0 110 104" width="110" xmlns="http://www.w3.org/2000/svg"><path d="m28.6851 8.85317c.5096-.17104 1.0191-.17104 1.3588-.34207 2.3779-1.0262 4.9256-1.88137 7.3035-2.39447.5095-.17104 1.0191-.34207 1.6984-.34207.6794 0 1.5287 0 2.2081-.34207.5095-.17103 1.019-.17103 1.5286-.17103h7.3034c.8493 0 1.5287 0 2.3779.34207.8492.17103 1.5286.17103 2.3779.17103.6794 0 1.5286 0 2.208.17103 1.1889.34207 2.3778.51311 3.5668.85517 2.8874.85517 5.7748 1.71034 8.4924 2.73654 3.3969 1.1972 6.7939 2.5655 9.8511 4.6179 1.3588.8552 2.7176 1.8814 3.7367 3.0786.8492.8552 1.6985 1.8814 2.7175 2.7366 1.6985 1.3682 3.0573 2.9075 4.7558 4.1048.1698.8551-.5096 1.5393-.5096 2.3944.8493 2.3945 1.6985 4.789 2.7176 7.1835.6794 1.5393 1.3588 2.9075 2.0382 4.4468.8492 1.7104 1.8683 3.2497 3.5668 4.2759h2.378c.679-.3421.679-3.4207 1.868-1.0262.17.342.51.6841.68 1.0262 2.038 3.9338 3.906 8.0386 5.095 12.3144.34 1.3683.849 2.7365 1.189 4.2759.34 1.3682.34 2.7365.679 4.1048.17 1.0262.17 2.2234 0 3.4206-.17 1.3683-.509 2.7366-.679 4.1048-.17.6842-.17 1.3683-.34 1.8814-.17.1711-.339.171-.339.3421-.17.5131-.34 1.0262-.51 1.5393-.51 2.0524-1.529 3.7627-2.718 5.4731-1.019 1.3682-2.038 2.7365-3.566 3.5917-.34.171-.68.5131-.68.8551-.679.1711-1.3586.6842-1.8681 1.0262-3.7367 2.5656-7.813 4.2759-12.0592 5.8152-1.0191.3421-2.0382.5131-3.0572.8552-3.2272 1.1972-6.6241 1.8813-9.8512 2.3944-1.6985.3421-3.5668.6842-5.2653 1.0262-2.5477.5131-5.0954 1.0262-7.6431.8552h-.1699c0-.8552 0-1.7103-.1698-2.7365-.3397-.3421-.6794-.6842-1.0191-1.0262-.6794-.1711-1.3588-.5131-2.208-.6842-2.0382 0-4.0764 0-6.1145 0-2.0382 0-4.0764-.171-6.1146 0-.6793.5131-1.3587 1.0262-1.6984 1.7104v2.0524c-.3397 0-.6794 0-1.0191 0-1.1889-.1711-2.3779-.3421-3.5668-.5131-1.0191-.1711-2.0382-.5131-3.0573-.6842-2.3778-.5131-4.5859-1.3682-6.624-2.2234-3.9065-1.7103-7.813-3.5917-11.0401-6.6703-.1699-.1711-.5096-.3421-.8493-.5131-.1698-.6842-.6793-.8552-1.019-1.3683-2.5478-2.7365-4.7558-5.6441-6.96379-8.5517-.3397-.5131-.6794-1.1972-1.01909-1.7103.67939-.3421.50954-.8552.16985-1.1973-.50954-1.3682-.84924-2.7365-1.35878-4.1048-.84924-2.0524-1.52863-4.2758-1.86833-6.4992-.16984-.5131-.16984-1.0262-.16984-1.5393 0-4.4469 0-9.0648 0-13.5117 0-.6841.16984-1.3683.33969-2.2234.50954-1.8814.84924-3.5918 1.18893-5.4731 3.39696-1.7104 6.79386-3.4207 10.19086-5.131 2.0382-1.0262 3.9065-2.2235 5.9447-3.4207.6794-.3421 1.3587-1.0262 1.8683-1.7104.1698-.342.1698-.6841.3397-1.0262.5095-1.8813.8492-3.5917 1.6985-5.302.1698-.171.1698-.5131.1698-.6841.3397-1.1973.5095-2.3945.8492-3.5917.1699-3.0787.5096-5.9862.6794-9.06483z" fill="#e3544d"/><path d="m61.6352 95.3772h.1699c2.5477.171 5.0954-.3421 7.6431-.8552 1.6985-.342 3.5668-.6841 5.2653-1.0262 3.397-.6841 6.6241-1.3682 9.8512-2.3944 1.0191-.3421 2.0381-.5131 3.0572-.8552 4.2462-1.5393 8.3226-3.4207 12.0592-5.8152.6789-.342 1.1889-.8551 1.8679-1.0262.68.1711 1.189.3421 1.869.6842.339.171.679.171.849.342 2.378 1.0262 4.246 2.2235 5.095 5.3021v2.3945c0 .171-.169.342-.169.5131-.51 1.7103-1.699 2.9075-3.228 3.7627-.849.5131-1.868 1.0262-2.887 1.3683-1.359.5131-2.887 1.0262-4.416 1.5393-1.1889.342-2.3779.6841-3.5668.855-1.3588.171-2.7175.342-4.0763.684-1.189.171-2.3779.342-3.5668.684-1.189.171-2.3779.342-3.5668.342-1.189.172-2.208.343-3.397.343-1.1889.171-2.208 0-3.3969.342-.6794.171-1.3588.171-1.8683.171-1.189 0-2.2081 0-3.397.342-.5095.171-1.1889.171-1.6985.171-6.1145.171-12.3988.171-18.5134 0-.1698 0-.5095 0-.6793 0-1.8684-.513-3.9065-.342-5.7749-.513-.3397 0-.8492 0-1.1889-.171-1.0191-.342-1.8683-.342-2.8874-.342-.8492 0-1.8683 0-2.7176-.343-.1698 0-.5095-.171-.6794-.171-2.0381.171-3.9065-.513-5.7748-.684s-3.7366-.684-5.4351-1.0259c-1.6985-.342-3.397-.8552-5.2653-1.1972-2.208-.5131-4.416-1.3683-6.4542-2.0524-1.1889-.3421-2.3779-1.1973-3.3969-1.8814-.5096-.3421-.8493-.8552-1.189-1.1972-.67936-1.1973-1.01906-1.8814-1.01906-2.7366 0-.8551 0-1.7103 0-2.2234.3397-1.3683 1.18896-2.2234 2.03816-3.0786.6794-.6842 1.5286-1.0262 2.3779-1.1973.8492-.171 1.5286-.342 2.3778-.5131h2.3779c.3397.1711.5096.3421.8493.5131 3.2271 3.0787 6.9637 4.96 11.04 6.6704 2.2081.8551 4.4161 1.7103 6.6241 2.2234 1.0191.171 2.0382.5131 3.0573.6841 1.1889.1711 2.3778.3421 3.5668.5131h1.019c.5096.3421.8493.6842 1.3588.8552 1.0191.171 1.8683.171 2.7176.3421 1.0191.171 1.8683.5131 2.8874.5131 2.3779.342 4.5859.5131 6.9637.6841 1.0191 0 1.8684-.3421 2.5478-1.0262.1698 0 .3397-.3421.6793-.5131z" fill="#3d6334"/><path d="m29.7233 8.85313c-.1698 3.07857-.5095 5.98617-1.0191 8.89377-.1698 1.1972-.5095 2.3945-.8492 3.5917 0 .171 0 .5131-.1698.6841-.8493 1.7104-1.189 3.5917-1.6985 5.3021-.1699.342-.1699.8551-.3397 1.0262-.5096.6841-1.0191 1.3682-1.8683 1.7103-2.0382 1.1973-3.9065 2.3945-5.9447 3.4207-3.397 1.7103-6.7939 3.4207-10.19086 5.131-1.18893.3421-2.20802.5131-3.39695.171-.50954-.171-1.01909-.5131-1.35878-.8551-1.18893-1.1973-1.35878-2.7366-.67939-4.2759.33969-.6841.67939-1.3682 1.18893-1.7103.3397-.3421.67939-.6841 1.01909-.8552 0-.342 0-.5131-.3397-.6841-.33969-.1711-.84924-.1711-1.18893-.3421-1.35878-.6841-2.377867-1.7103-2.88741-3.0786 0-1.0262 0-1.8814.169848-2.9076.509542-1.3682 1.188932-2.3944 2.377862-3.4206 1.35878-1.0262 2.71756-1.8814 4.24619-2.2235.84924-.171 1.52863-.5131 2.37787-.6841.84923-.171 1.52863-.3421 2.37783-.6841 0-.3421 0-.5131-.1698-.6842-.3397-.5131-.6794-1.0262-1.1889-1.7103-.50959-.8552-1.01913-1.7104-1.52867-2.7366-.84924-1.7103-1.01909-3.42064-.84924-5.30201s1.18893-3.24964 3.05721-3.76274c.5096-.17103 1.189-.17103 1.6985 0 .8493.17104 1.5286.5131 2.208 1.0262 1.189.85517 2.0382 2.05241 2.8874 3.24964.5096.85517 1.0191 1.71034 1.5287 2.39448.5095-.17104.3397-.5131.3397-.85517 0-1.5393.1698-2.90758.5095-4.44688.1699-.85517.5096-1.5393.8493-2.22344 1.5286-2.565503 5.0954-2.736537 6.7939-.17103.8492 1.36827 1.3587 2.73654 1.5286 4.27584.1698 1.02621.3397 1.88137.5095 2.73654z" fill="#3d6334"/><g fill="#f6c168"><path d="m101.531 41.1785c-.68.342-1.359.6841-1.8687 1.0262-.8492 0-1.6985 0-2.3779 0-1.6984-1.0262-2.7175-2.5655-3.5667-4.2759-.8493-1.3682-1.3588-2.9075-2.0382-4.4468-1.0191-2.3945-1.8683-4.6179-2.7176-7.1835 0-.8551.6794-1.5393.5096-2.3944.3397 0 .8492 0 1.1889-.1711.8492-.342 1.5286-.5131 2.5477-.171 1.0191.6841 1.8683 1.7103 2.5477 3.0786.6794 1.1972 1.3588 2.3945 2.0382 3.5917.1698.3421.5095.8552.6794 1.1973.8492 1.5393 1.6986 2.9075 2.5476 4.4468.34.5131.51 1.1973.849 1.7104.34 1.0262.51 1.8813 0 2.7365-.339.3421-.339.5131-.339.8552z"/><path d="m35.5346 73.6015c-.3397 0-.8493 0-1.189 0-3.3969 0-6.624 0-10.021 0-1.1889 0-2.208-.171-3.2271-.6841-.3397-.5131-.3397-1.0262-.3397-1.7104 0-4.2758 0-8.5517 0-12.4854 1.0191-4.1048 3.0573-7.0124 6.9638-8.3807h2.7175c2.7176.6841 4.2462 2.3945 5.0955 4.789.3396.6841.3396 1.3682.5095 2.0524.3397 1.5393.3397 3.0786.3397 4.6179v9.7489c0 1.0262 0 1.5393-.8492 2.0524z"/><path d="m68.6572 75.4828c-.1698.6842-.3397 1.3683-.6794 1.8814-.5095.8552-1.1889 1.0262-1.8683 1.3683-1.0191 0-1.8683 0-2.7175 0-2.2081-.8552-4.4161-1.8814-6.6241-2.5655-1.1889-.3421-2.3779-1.1973-3.5668-1.7104-1.3588-.5131-2.0382-1.5393-2.3779-2.9076.1699-1.1972.8493-2.0524 1.8684-2.7365 1.0191-.171 2.208-.171 3.3969 0 .3397 0 .6794 0 1.0191.171 2.8874.8552 5.605 1.8814 8.4924 3.0786 1.6985.5131 2.7175 1.7104 3.0572 3.4207z"/><path d="m75.62 46.0651c-.1698-1.1973-.1698-2.2235.6794-3.2497.5095-.3421 1.0191-.6841 1.3588-1.0262.1698 0 .3397-.171.5095-.171 1.1889-.1711 2.208.171 3.0573.6841 2.3778 1.3683 4.5859 2.9076 6.7939 4.2759.3397.171.6794.5131.8492.8551 1.0191 1.5393 1.0191 2.9076-.1698 4.4469-.3397.5131-.8493.8552-1.189 1.1972-.8492.5131-1.6984.5131-2.7175.5131-.5096-.171-1.0191-.5131-1.5287-.8551-2.0381-1.3683-4.0763-2.9076-6.1145-4.2759-.6794-.6841-1.1889-1.3682-1.5286-2.3944z"/><path d="m39.2701 18.3576c-.3397-.6841-.6794-1.1972-.8492-1.7103 0-.5131 0-1.0262 0-1.5393.1698-.171.1698-.5131.3397-.6841.3397-.3421.8492-.8552 1.1889-1.1973.6794-.171 1.3588-.5131 1.8683-.6841h.5096c1.5286.5131 3.0572 1.1972 4.416 2.0524 1.5287 1.0262 3.0573 1.8814 4.5859 2.9076 1.0191.6841 1.6985 1.5393 2.0382 2.5655.1698.342.1698.6841.1698 1.0262-.3397 1.7103-1.3587 2.9076-3.2271 3.2496-.1698 0-.5095 0-.6794 0-.6794-.342-1.5286-.5131-2.208-1.0262-1.1889-1.0262-2.5477-1.7103-3.9065-2.5655-.1698-.171-.5095-.3421-.8492-.5131-.8493-1.0262-2.0382-1.7103-3.397-1.8814z"/><path d="m62.0826 96.0141c-.1953.3994-.3906.5991-.5858.9985-.781.7988-1.7573 1.3978-2.9289 1.1981-2.7336-.1997-5.272-.3993-8.0056-.7987-1.1716-.1997-2.1479-.3994-3.3194-.5991-.9763-.1997-1.9526-.1997-3.1242-.3994-.3905-.1997-.9763-.5991-1.5621-.9985 0-.7988 0-1.5975 0-2.3963.3906-.7988 1.1716-1.3979 1.9526-1.9969 2.3431-.1997 4.6863 0 7.0294 0h7.0293c.781.1996 1.5621.599 2.5384.7987l1.1715 1.1982c-.3905.7988-.3905 1.7972-.1952 2.9954z"/><path d="m33.667 35.461c0-.3421 0-.6841 0-1.1972.3397-.8552 1.0191-1.3683 1.6985-1.7104.6794-.171 1.5286-.171 2.208 0 1.5286.8552 3.0572 1.8814 4.5859 2.9076.3397.171.6794.5131 1.0191.8552 1.019.8551 1.8683 1.8813 2.8874 2.5655.6794.5131 1.3587 1.1972 1.8683 1.8813.5095.8552.6794 1.8814.1698 2.7366-.1698.171-.1698.5131-.3397.5131-.5095.5131-1.1889.8552-1.6984 1.0262-.5096 0-.8493 0-1.5287 0-.8492-.5131-1.8683-1.0262-2.5477-1.8814-1.3588-1.3683-2.7175-2.7365-4.0763-3.9338-.6794-.6841-1.1889-1.1972-2.0382-1.7103-1.0191-.5131-1.6985-1.1972-2.208-2.0524z"/><path d="m60.502 55.985c0-.6841 0-1.3682 0-2.0524.1698-.5131.5095-1.0262.6793-1.3682.5096-.6842 1.189-.8552 1.8684-1.0263h2.208c1.5286.5131 2.8874 1.3683 3.9065 2.5656.6794.8551 1.5286 1.5393 2.208 2.2234.5095.5131.8492 1.0262 1.0191 1.7103.1698.5131.1698 1.1973.1698 1.7104-.1698 1.0262-.6794 1.8813-1.6984 2.5655-.5096.171-1.189.342-1.6985.5131-.5096-.1711-1.1889-.3421-1.6985-.5131-1.3588-.8552-2.5477-1.8814-3.5668-2.9076-.5095-.5131-1.0191-1.0262-1.6985-1.3683-.6794-.5131-1.1889-1.0262-1.6984-2.0524z"/><path d="m93.795 70.865c1.0191 1.1972 1.0191 2.2234.8492 3.4207-.1698.5131-.5095 1.0262-.8492 1.5393-.5096.342-1.0191.5131-1.5286.8551-.3397 0-.5096 0-.8493 0-1.3588 0-2.5477 0-3.9065 0-.8492 0-1.6985 0-2.5477.3421-.6794.3421-1.3588.171-2.0382.171-1.1889-.6841-1.8683-1.5393-2.3778-2.9075.1698-.5132.3397-1.1973.5095-1.7104 1.3588-1.5393 1.3588-1.5393 3.9065-2.7365h6.7939c.6794.342 1.3588.6841 2.0382 1.0262z"/><path d="m75.9586 28.6196c.1699.6841.3397 1.1972.5096 1.7103-.1699.5132-.3397 1.1973-.5096 1.7104-.5095.6841-1.1889.8552-1.5286 1.1972-.8492.1711-1.5286.1711-2.208 0-1.6985-1.0262-2.5477-2.7365-3.7367-4.1048-1.1889-1.3683-2.208-2.9076-3.2271-4.4469-.1698-.6841-.1698-1.3682 0-2.2234.1699-.3421.5096-.6841.8493-1.0262.5095-.3421 1.0191-.6841 1.8683-.6841.8492.171 1.6985.6841 2.7176 1.3682.6794 1.1973 1.8683 2.2235 2.7175 3.2497.5096.8551 1.5287 2.0524 2.5477 3.2496z"/></g></svg>