<svg width="83" height="58" viewBox="0 0 83 58" fill="none" xmlns="http://www.w3.org/2000/svg">
<path d="M2.39241 37.6456C1.32479 38.3871 0.714208 39.6692 0.858968 40.9337C1.18989 43.7667 7.18789 48.9299 6.86829 50.3375C6.86829 50.3375 5.55059 52.0587 3.46879 56.8846C4.79729 60.2052 11.2035 54.9552 14.2821 51.8185C14.3862 51.5772 18.1627 51.8898 18.3222 51.7869C19.6533 50.7011 21.033 49.6363 22.4334 48.5233C22.8633 48.1935 23.2931 47.8638 23.8337 47.8108C25.5939 47.5971 27.3126 47.4798 29.0934 47.6184C30.9436 47.7297 32.5716 48.4892 34.1163 49.4418C35.1693 50.0677 36.2222 50.6936 37.2058 51.3469C38.3626 52.1321 39.5333 52.7516 40.815 53.2473C43.1568 54.0858 45.3944 55.1655 47.7986 55.8592C50.0573 56.4901 52.316 57.121 54.6234 57.3723C55.9053 57.4674 57.222 57.3485 58.5664 57.2988C58.8714 57.2586 59.2179 57.1219 59.516 56.9643C60.0636 56.6281 60.3688 56.1874 60.189 55.5374C60.1822 55.42 60.1961 55.2543 60.2101 55.0886C60.9931 55.1402 61.7761 55.1918 62.5592 55.2433C63.1759 55.2804 63.8134 55.2692 64.4509 55.2581C65.3449 55.1858 66.2805 55.017 67.1953 54.8964C67.8745 54.7888 68.4983 54.5427 68.8591 53.8397L68.8042 52.9002C68.9428 52.8455 68.9845 52.749 69.1023 52.7426C70.0171 52.6221 70.9319 52.5015 71.8675 52.3327C72.4773 52.2524 73.0527 51.9854 73.4756 51.5382C73.9403 50.9945 73.8229 50.1998 73.1648 49.8587C72.6799 49.6495 72.1533 49.5368 71.6752 49.445C71.3149 49.3468 70.9338 49.2969 70.5875 49.033C71.1072 49.0283 71.5784 49.0026 72.0705 48.9287C72.5417 48.903 73.0338 48.8291 73.5258 48.7551C74.7387 48.477 76 48.2197 77.1852 47.8724C77.511 47.784 77.809 47.6263 78.0794 47.3995C78.8975 46.8366 78.995 46.0773 78.3579 45.2873C78.2817 45.1972 78.2332 45.1763 78.1571 45.0862C78.0809 44.9961 78.0532 44.9269 77.9494 44.7676C78.1296 44.6164 78.3099 44.4652 78.5178 44.3832C79.5299 43.9039 80.5419 43.4247 81.5539 42.9454C81.852 42.7878 82.15 42.6302 82.3788 42.4999C82.7533 42.0318 82.7535 41.6312 82.6083 41.1679C82.4145 40.6836 82.1099 40.3232 81.6942 40.0867C80.4265 39.4253 79.2072 38.7849 77.9395 38.1235C77.4754 37.8661 77.0113 37.6086 76.5748 37.4204C76.5057 37.0471 76.8315 36.9587 76.9632 36.7866C77.4903 36.0981 77.4768 35.4626 76.7357 34.914C76.5625 34.782 76.3409 34.6292 76.0984 34.5246C75.1008 34.037 74.1032 33.5494 73.1265 33.0136C71.2834 32.6192 69.4195 32.2731 67.5765 31.8787C67.8746 31.7211 68.2696 31.6053 68.5885 31.3994C69.3649 30.933 69.421 29.8696 68.7283 29.3419C68.382 29.078 67.9456 28.8897 67.5645 28.8398C66.9201 28.7335 66.234 28.7238 65.548 28.7141C65.0976 28.6915 64.6748 28.7381 64.2036 28.7637C64.2523 28.3841 64.2803 28.0527 64.2874 27.7696C64.0868 27.1679 63.6711 26.9313 63.096 26.7977C61.8974 26.5096 60.6985 26.6221 59.4788 26.7828C59.056 26.8294 58.6333 26.876 58.1897 26.9708C58.1067 26.7633 57.982 26.6523 57.9752 26.5348C57.7748 25.5326 57.1167 25.1914 56.2159 25.1463C55.8833 25.1173 55.5783 25.1575 55.2734 25.1976C53.5408 25.4805 51.8912 25.971 50.3039 26.7172C48.0927 27.7095 45.8123 28.7292 43.7672 30.1366C42.1102 31.3107 40.5572 32.6442 39.0041 33.9776C38.6436 34.28 38.2831 34.5824 37.9017 34.9331C36.7575 36.3856 35.6617 37.8591 34.5174 39.3116C34.3857 39.4837 34.2122 39.7524 34.1498 39.8971C33.2965 41.4752 31.7508 42.1249 30.1429 42.5189C29.63 42.6411 29.124 42.8807 28.5974 42.768C28.4521 42.3047 28.8195 42.1197 28.9929 41.8511C29.5756 40.9004 30.2553 39.9916 30.7894 39.0199C31.3236 38.0483 31.6638 36.9931 31.7615 35.8332C31.7963 35.6192 31.9004 35.3779 31.956 35.1157L31.8737 33.7064C32.1372 33.3622 32.3314 33.0453 32.5741 32.7493C33.7116 31.1793 34.5788 29.4356 35.1066 27.5454C35.2871 26.9936 35.3983 26.4692 34.8511 26.0042C34.387 25.7467 33.9226 25.8898 33.4928 26.2196C33.1115 26.5702 32.7578 26.9901 32.4249 27.3616C32.0921 27.7332 31.8077 28.1257 31.5234 28.5182C31.2464 28.227 31.399 28.0066 31.4822 27.8136C32.3426 25.9524 32.8912 24.0139 33.2944 22.0127C33.5584 20.8673 33.7046 19.7284 33.5875 18.533C33.5187 17.7592 33.2417 17.468 32.4033 17.2781C32.3063 17.2362 32.1885 17.2427 32.14 17.2217C32.043 17.1799 31.946 17.1381 31.8214 17.027C31.8909 16.5991 31.9396 16.2195 32.0092 15.7916C32.1346 14.7008 32.1703 12.8846 32.0116 11.7858C31.846 10.5696 31.4794 9.55276 30.2254 9.12626C30.1563 8.75306 30.1149 8.44896 30.0735 8.14496C29.915 6.64556 29.7566 5.14621 29.5288 3.67419C29.4046 2.76202 29.1141 1.83535 28.5948 1.03896C28.0756 0.242574 27.1263 0.176494 26.5784 0.913224C26.2039 1.38131 25.9541 1.96042 25.6141 2.61513C25.3577 2.67623 25.0043 2.69549 24.727 2.80485C24.4498 2.91421 24.2002 3.09275 23.9714 3.22302L23.9922 3.17477C23.9991 3.2922 23.9783 3.34046 23.9366 3.43698C23.8534 3.63002 23.7424 3.75388 23.6383 3.99518C22.3909 4.08671 21.6559 4.8572 21.0524 5.85615C21.0524 5.85615 17.7335 5.28301 14.8189 12.0394C14.8189 12.0394 12.3256 9.81896 9.61679 20.0985C9.61679 20.0985 4.55909 18.4891 7.32439 29.4127C7.32439 29.4127 -0.503432 24.8912 5.10299 35.8957L2.39241 37.6456Z" fill="#2B3D2D"/>
<path d="M60.1627 40.5056C61.7433 40.6167 63.141 40.4776 64.4972 40.4347C65.7932 39.4526 67.1591 38.4436 68.4551 37.4615C68.7966 37.2093 69.1381 36.957 69.5776 36.7471C69.7172 36.6931 69.9133 36.7777 70.1303 36.8142C70.2111 37.7053 69.598 38.1829 69.132 38.7239C68.666 39.2649 67.9472 39.5827 67.6076 40.2353C67.847 40.624 68.147 40.468 68.4337 40.4775C70.9366 40.4727 73.4547 40.7027 75.9312 41.029C76.414 41.1231 76.9176 41.1692 77.1438 41.7234C77.1041 42.22 76.7551 42.3548 76.3496 42.3511C75.2726 42.2861 74.1956 42.221 73.1186 42.156C72.5452 42.137 71.9227 42.0968 71.3493 42.0778C69.3499 42.1285 67.3072 41.8752 65.3154 42.0434C65.0079 42.082 64.6514 42.0995 64.344 42.1381C64.3948 42.5596 64.6607 42.6172 64.8776 42.6537C66.9579 43.494 68.9891 44.3132 71.0204 45.1323C71.5107 45.3439 72.0634 45.411 72.5953 45.5263C73.3931 45.6992 74.2607 45.8452 75.0585 46.0181C75.2264 46.0334 75.4018 46.1662 75.5489 46.2296C75.6903 46.576 75.5091 46.7262 75.23 46.8341C75.0904 46.8881 74.9225 46.8727 74.8037 46.8785C73.1193 47.0081 71.4613 46.8067 69.8789 46.2953C68.2475 45.7627 66.6161 45.2302 64.9771 44.5803C63.7512 44.0515 62.5876 43.3783 61.4523 42.7743C61.2071 42.6686 60.9336 42.4935 60.5621 42.2762C58.7513 42.2942 56.8293 42.4354 54.977 42.5496C54.8317 42.8865 54.9788 42.95 55.1542 43.0827C56.859 44.3889 58.6883 45.4064 60.6082 46.3488C61.8134 46.9257 63.0393 47.4546 64.2859 47.9353C65.2384 48.289 66.2324 48.5466 67.2546 48.8734C67.8638 49.0791 68.507 49.0712 69.0331 49.4694C69.133 49.912 68.8331 50.068 68.5746 50.1278C67.9107 50.1839 67.1977 50.2188 66.547 50.1093C64.9871 49.9501 63.4953 49.3637 62.0034 48.7772C59.0405 47.5561 56.2437 45.9501 53.6695 44.0976C53.0943 43.6782 52.5474 43.3281 51.9722 42.9087C51.0555 42.7416 50.2387 43.0172 49.3861 43.106C48.4638 43.2219 47.5339 43.2203 46.5624 43.3149C45.7099 43.4038 44.8498 43.3752 44.0254 43.5334C43.8876 43.9877 44.2026 44.0664 44.378 44.1992C47.4011 46.3595 50.6392 48.1559 54.0642 49.5192C56.0955 50.3384 58.0984 51.0883 60.1297 51.9074C60.4729 52.0555 60.9275 52.0803 61.0349 52.6404C60.8953 52.6943 60.7142 52.8445 60.5953 52.8503C60.12 52.8736 59.6164 52.8276 59.1128 52.7816C57.6435 52.5473 56.2572 52.1206 54.8635 51.5764C51.9571 50.4939 49.113 49.267 46.4558 47.607C44.9131 46.5991 43.4402 45.5641 41.9674 44.5292C41.792 44.3965 41.6449 44.333 41.4204 44.1791C40.9451 44.2024 40.4 44.2526 39.9039 44.324C38.0176 44.6519 36.1313 44.9798 34.2941 45.3289C33.798 45.4003 33.3019 45.4717 32.8266 45.495C31.4006 45.5648 29.9746 45.6346 28.5486 45.7044C28.311 45.716 28.0941 45.6796 27.8564 45.6912C27.9527 45.3332 28.2111 45.2734 28.4205 45.1925C30.1729 44.6356 31.9461 44.0306 33.7833 43.6815C36.0469 43.2881 38.3104 42.8946 40.574 42.5011C40.9022 42.4144 41.2304 42.3276 41.5794 42.1928C41.7662 41.7597 41.9531 41.3265 42.0909 40.8723C43.1876 37.521 44.95 34.514 46.9859 31.682C47.4444 31.0236 48.0368 30.5942 48.7273 30.2071C48.8536 30.3187 49.0007 30.3821 49.1271 30.4937C49.0043 31.1828 48.5383 31.7238 48.1911 32.259C46.706 34.7578 45.27 37.2777 44.1772 39.9457C43.9489 40.4751 43.7205 41.0045 43.7581 41.5915C43.8844 41.7031 43.9617 41.7935 44.0315 41.7665C44.7936 41.7528 45.5764 41.6909 46.4082 41.6502C46.6233 41.2863 46.8177 40.9706 46.963 40.6337C47.7651 38.6394 48.7426 36.7779 49.8672 34.9798C50.8598 33.3531 51.9787 31.838 53.3012 30.5249C53.7257 30.0801 54.2766 29.7469 54.7501 29.3233C54.9105 29.2213 55.0991 29.1885 55.2179 29.1826C55.4914 29.3577 55.5064 29.5925 55.3951 29.7157C55.0064 30.3472 54.5894 30.9093 54.1517 31.5196C51.9686 34.2881 50.2269 37.247 48.787 40.4502C48.6417 40.7871 48.6417 40.7871 48.7566 41.4645C49.4695 41.4296 50.2033 41.3466 50.9295 41.1461C51.0824 40.9267 51.1654 40.7342 51.3183 40.5147C52.862 37.0709 55.1639 34.2965 57.9843 31.803C58.3673 31.4545 58.8484 31.1483 59.2596 30.8691C59.5804 30.6649 59.9501 30.482 60.4122 30.6242C60.4895 30.7146 60.5668 30.8051 60.6724 30.9648C60.5006 31.6327 59.9988 31.987 59.5252 32.4107C57.6311 34.1051 55.9896 36.0227 54.5235 38.073C54.065 38.7314 53.6838 39.4803 53.2536 40.2079C53.1705 40.4004 53.1158 40.6622 53.0535 40.8066C53.1798 40.9182 53.2571 41.0086 53.376 41.0028C53.5929 41.0393 53.7607 41.0546 53.9494 41.0218C55.2565 40.9578 56.5637 40.8938 57.752 40.8356C58.3727 40.4755 58.5312 39.9731 58.7671 39.5611C60.071 37.2125 61.9011 35.2621 63.9839 33.5349C64.3254 33.2827 64.6669 33.0304 65.0574 32.7993C65.2177 32.6972 65.4346 32.7337 65.5742 32.6798C65.925 32.9452 65.9192 33.2282 65.7456 33.4958C65.4607 33.8866 65.1268 34.2563 64.7646 34.5566C63.1911 36.0469 61.8911 37.7123 60.7665 39.5103C60.5646 39.7086 60.4193 40.0455 60.1627 40.5056Z" fill="#89C5AC"/>
<path d="M22.3935 30.421C22.9848 29.9849 23.6248 29.5699 24.0705 29.071C25.3027 27.8172 26.4587 26.4729 27.5938 25.1772C28.1928 24.4565 28.5975 23.652 29.0717 22.8199C29.2878 22.4524 29.4278 21.9944 29.9839 21.7736C30.1297 21.8365 30.303 21.9688 30.5249 22.1222C30.4394 23.1219 30.0833 23.9474 29.6577 24.8005C28.6674 26.5618 27.4552 28.1698 26.042 29.576C25.123 30.5042 24.1069 31.3905 23.1118 32.2283C22.548 32.7338 21.8595 33.1279 21.0177 33.7438C20.2778 35.3252 19.6 37.1637 18.9221 39.0023C19.1021 39.2527 19.2688 39.267 19.4774 39.1842C20.903 38.417 22.1486 37.3993 23.3942 36.3816C25.3846 34.7061 27.2015 32.8982 28.9908 31.0208C29.3041 30.6952 29.5203 30.3277 30.0136 30.2526C30.2774 30.3088 30.4784 30.5107 30.3737 30.7534C30.2756 31.1143 30.1081 31.5028 29.9129 31.8217C29.5225 32.4596 29.1044 33.028 28.6378 33.5754C26.1724 36.4858 23.2774 38.9229 19.9805 40.9562C19.5215 41.219 19.0139 41.4607 18.5272 41.654C18.1796 41.792 17.811 41.9785 17.533 42.089C15.9161 44.5015 14.2774 47.3653 14.0536 48.0175C14.3727 48.2128 14.7203 48.0748 15.0194 47.9158C16.9383 47.0734 18.6982 45.932 20.5067 44.8116C21.1257 44.4451 21.6133 43.8491 22.1561 43.3922C22.497 43.1361 22.7617 42.7895 23.2341 42.7629C23.6989 43.021 23.5523 43.3609 23.4266 43.6523C22.7572 44.8033 21.9631 45.843 20.7946 46.5484C19.3756 47.4337 18.0052 48.3399 16.531 49.0862C15.4463 49.5974 14.4034 50.0114 13.2568 50.2655C12.812 50.3616 12.4435 50.5481 12.0473 50.6652C11.0236 51.8362 10.0485 53.0282 8.99722 54.1297C8.57252 54.58 8.09922 55.0093 7.59832 55.3692C7.34782 55.5491 7.00022 55.6871 6.65262 55.8251C6.45162 55.6232 6.27822 55.4909 6.15352 55.3794C6.12012 54.7891 6.48192 54.4845 6.74672 54.1379C7.23422 53.5419 7.77032 52.9669 8.30652 52.3919C10.5557 49.849 12.4859 47.1109 14.2913 44.2613C14.5284 43.8453 14.8626 43.4711 14.8225 42.7627C13.0212 40.661 11.6237 38.1576 10.8938 35.3086C10.8043 34.982 10.8814 34.6697 10.8889 34.385C11.2575 34.1985 11.4518 34.2823 11.5833 34.5118C11.9014 35.1098 12.2682 35.7287 12.5378 36.3058C13.2847 37.7798 14.0801 39.2748 15.0984 40.5204C15.2784 40.7708 15.5004 40.9242 15.6804 41.1746C15.8613 41.0223 16.0004 40.9671 16.0423 40.87C16.7955 39.5247 17.5638 37.61 17.8789 36.4789C16.8254 35.4485 16.0643 34.1411 15.3517 32.8546C14.0095 30.4902 13.1329 27.9812 12.5345 25.3617C12.3143 24.4028 12.1428 23.4649 12.1103 22.4718C12.0836 21.9996 12.0778 21.4787 12.4606 21.1255C12.7873 21.0361 12.9397 21.217 13.0016 21.4741C13.2017 22.0787 13.3532 22.6624 13.4838 23.2947C14.1022 26.2684 15.1169 29.125 16.4792 31.8436C16.9565 32.7406 17.5728 33.5824 18.1196 34.4518C18.1958 34.5422 18.3415 34.6051 18.5358 34.6889C18.6682 34.5157 18.7796 34.3909 18.8424 34.2453C19.5965 32.4972 20.0097 31.0052 20.0886 29.8874C19.9847 29.7274 19.9228 29.4703 19.7704 29.2894C18.3863 27.0221 17.3707 24.5683 16.7999 22.0183C16.4768 20.4967 16.1052 18.9542 16.0878 17.3917C16.0972 16.3015 16.197 15.1351 16.3245 14.0382C16.3321 13.7535 16.5064 13.4831 16.7844 13.3727C17.2426 13.5128 17.3112 13.8879 17.3312 14.2421C17.4132 14.8534 17.4257 15.4923 17.4867 16.1522C17.791 19.8542 18.7001 23.3564 20.2624 26.6796C20.3453 26.8882 20.5187 27.0205 20.6987 27.271C20.8311 27.0977 20.9911 26.9939 20.9844 26.8759C21.2157 25.939 21.447 25.0021 21.6993 24.0166C21.8325 23.4406 21.7296 22.8779 21.5295 22.2732C21.1637 21.2515 20.8397 20.1327 20.4253 19.09C19.8936 17.6512 19.8068 16.1163 19.5113 14.6642C19.3875 14.1501 19.4512 13.6016 19.4454 13.0808C19.4111 12.8932 19.5711 12.7894 19.9815 12.5058C20.5368 12.6877 20.6121 13.1809 20.757 13.6466C20.9913 14.4388 21.0867 15.2862 21.2725 16.0575C21.4926 17.0163 21.7823 17.9476 22.0234 18.8579C22.1063 19.0664 22.2377 19.2959 22.3206 19.5045C22.7025 19.554 22.592 19.276 22.6548 19.1303C23.1175 17.2565 23.3439 15.396 23.5218 13.5146C23.5855 12.9662 23.5797 12.4453 23.9559 11.9741C24.1225 11.9884 24.2616 11.9332 24.3797 11.9265C24.9826 12.5322 24.9532 13.2682 24.9238 14.0042C24.8631 16.2818 24.5177 18.5517 24.0542 20.8282C24.0189 21.0434 23.9628 21.3071 23.9971 21.4947C24.2885 21.6204 24.4 21.4957 24.5323 21.3224C25.5912 19.9362 26.5739 18.4596 27.3137 16.8782C27.5022 16.4412 27.7879 16.046 28.025 15.63C28.1364 15.5053 28.2964 15.4015 28.5259 15.2701C28.6574 15.4996 28.8307 15.632 28.8165 15.7986C28.8156 16.2014 28.7661 16.5832 28.668 16.9441C28.1987 18.6998 27.3894 20.3088 26.24 21.7712C25.244 23.0117 24.4003 24.4331 23.1271 25.3813C22.7768 26.7276 22.4265 28.0739 22.0971 29.3716C22.02 29.6839 21.9915 30.0172 21.942 30.399C21.8306 30.5237 21.6982 30.697 21.9202 30.8503C21.9897 30.8227 22.0802 30.7465 22.1011 30.698C22.3516 30.5181 22.3725 30.4695 22.3935 30.421Z" fill="#89C5AC"/>
</svg>
