<svg width="97" height="88" viewBox="0 0 97 88" fill="none" xmlns="http://www.w3.org/2000/svg">
<path d="M9.39242 41.6456C8.3248 42.3871 7.71422 43.6692 7.85898 44.9337C8.1899 47.7667 14.1879 52.9299 13.8683 54.3375C13.8683 54.3375 12.5506 56.0587 10.4688 60.8846C11.7973 64.2052 18.2035 58.9552 21.2821 55.8185C21.3862 55.5772 25.1627 55.8898 25.3222 55.7869C26.6533 54.7011 28.033 53.6363 29.4334 52.5233C29.8633 52.1935 30.2931 51.8638 30.8337 51.8108C32.5939 51.5971 34.3126 51.4798 36.0934 51.6184C37.9436 51.7297 39.5716 52.4892 41.1163 53.4418C42.1693 54.0677 43.2222 54.6936 44.2058 55.3469C45.3626 56.1321 46.5333 56.7516 47.815 57.2473C50.1568 58.0858 52.3944 59.1655 54.7986 59.8592C57.0573 60.4901 59.316 61.121 61.6234 61.3723C62.9053 61.4674 64.222 61.3485 65.5664 61.2988C65.8714 61.2586 66.2179 61.1219 66.516 60.9643C67.0636 60.6281 67.3688 60.1874 67.189 59.5374C67.1822 59.42 67.1961 59.2543 67.2101 59.0886C67.9931 59.1402 68.7761 59.1918 69.5592 59.2433C70.1759 59.2804 70.8134 59.2692 71.4509 59.2581C72.3449 59.1858 73.2805 59.017 74.1953 58.8964C74.8745 58.7888 75.4983 58.5427 75.8591 57.8397L75.8042 56.9002C75.9428 56.8455 75.9845 56.749 76.1023 56.7426C77.0171 56.6221 77.9319 56.5015 78.8675 56.3327C79.4773 56.2524 80.0527 55.9854 80.4756 55.5382C80.9403 54.9945 80.8229 54.1998 80.1648 53.8587C79.6799 53.6495 79.1533 53.5368 78.6752 53.445C78.3149 53.3468 77.9338 53.2969 77.5875 53.033C78.1072 53.0283 78.5784 53.0026 79.0705 52.9287C79.5417 52.903 80.0338 52.8291 80.5258 52.7551C81.7387 52.477 83 52.2197 84.1852 51.8724C84.511 51.784 84.809 51.6263 85.0794 51.3995C85.8975 50.8366 85.995 50.0773 85.3579 49.2873C85.2817 49.1972 85.2332 49.1763 85.1571 49.0862C85.0809 48.9961 85.0532 48.9269 84.9494 48.7676C85.1296 48.6164 85.3099 48.4652 85.5178 48.3832C86.5299 47.9039 87.5419 47.4247 88.5539 46.9454C88.852 46.7878 89.15 46.6302 89.3788 46.4999C89.7533 46.0318 89.7535 45.6312 89.6083 45.1679C89.4145 44.6836 89.1099 44.3232 88.6942 44.0867C87.4265 43.4253 86.2072 42.7849 84.9395 42.1235C84.4754 41.8661 84.0113 41.6086 83.5748 41.4204C83.5057 41.0471 83.8315 40.9587 83.9632 40.7866C84.4903 40.0981 84.4768 39.4626 83.7357 38.914C83.5625 38.782 83.3409 38.6292 83.0984 38.5246C82.1008 38.037 81.1032 37.5494 80.1265 37.0136C78.2834 36.6192 76.4195 36.2731 74.5765 35.8787C74.8746 35.7211 75.2696 35.6053 75.5885 35.3994C76.3649 34.933 76.421 33.8696 75.7283 33.3419C75.382 33.078 74.9456 32.8897 74.5645 32.8398C73.9201 32.7335 73.234 32.7238 72.548 32.7141C72.0976 32.6915 71.6748 32.7381 71.2036 32.7637C71.2523 32.3841 71.2803 32.0527 71.2874 31.7696C71.0868 31.1679 70.6711 30.9313 70.096 30.7977C68.8974 30.5096 67.6985 30.6221 66.4788 30.7828C66.056 30.8294 65.6333 30.876 65.1897 30.9708C65.1067 30.7633 64.982 30.6523 64.9752 30.5348C64.7748 29.5326 64.1167 29.1914 63.2159 29.1463C62.8833 29.1173 62.5783 29.1575 62.2734 29.1976C60.5408 29.4805 58.8912 29.971 57.3039 30.7172C55.0927 31.7095 52.8123 32.7292 50.7672 34.1366C49.1102 35.3107 47.5572 36.6442 46.0041 37.9776C45.6436 38.28 45.2831 38.5824 44.9017 38.9331C43.7575 40.3856 42.6617 41.8591 41.5174 43.3116C41.3857 43.4837 41.2122 43.7524 41.1498 43.8971C40.2965 45.4752 38.7508 46.1249 37.1429 46.5189C36.63 46.6411 36.124 46.8807 35.5974 46.768C35.4521 46.3047 35.8195 46.1197 35.9929 45.8511C36.5756 44.9004 37.2553 43.9916 37.7894 43.0199C38.3236 42.0483 38.6638 40.9931 38.7615 39.8332C38.7963 39.6192 38.9004 39.3779 38.956 39.1157L38.8737 37.7064C39.1372 37.3622 39.3314 37.0453 39.5741 36.7493C40.7116 35.1793 41.5788 33.4356 42.1066 31.5454C42.2871 30.9936 42.3983 30.4692 41.8511 30.0042C41.387 29.7467 40.9226 29.8898 40.4928 30.2196C40.1115 30.5702 39.7578 30.9901 39.4249 31.3616C39.0921 31.7332 38.8077 32.1257 38.5234 32.5182C38.2464 32.227 38.399 32.0066 38.4822 31.8136C39.3426 29.9524 39.8912 28.0139 40.2944 26.0127C40.5584 24.8673 40.7046 23.7284 40.5875 22.533C40.5187 21.7592 40.2417 21.468 39.4033 21.2781C39.3063 21.2362 39.1885 21.2427 39.14 21.2217C39.043 21.1799 38.946 21.1381 38.8214 21.027C38.8909 20.5991 38.9396 20.2195 39.0092 19.7916C39.1346 18.7008 39.1703 16.8846 39.0116 15.7858C38.846 14.5696 38.4794 13.5528 37.2254 13.1263C37.1563 12.7531 37.1149 12.449 37.0735 12.145C36.915 10.6456 36.7566 9.14625 36.5288 7.67423C36.4046 6.76206 36.1141 5.83539 35.5948 5.039C35.0756 4.24261 34.1263 4.17653 33.5784 4.91326C33.2039 5.38135 32.9541 5.96046 32.6141 6.61517C32.3577 6.67627 32.0043 6.69553 31.727 6.80489C31.4498 6.91425 31.2002 7.09279 30.9714 7.22306L30.9922 7.17481C30.9991 7.29224 30.9783 7.3405 30.9366 7.43702C30.8534 7.63006 30.7424 7.75392 30.6383 7.99522C29.3909 8.08675 28.6559 8.85724 28.0524 9.85619C28.0524 9.85619 24.7335 9.28305 21.8189 16.0394C21.8189 16.0394 19.3256 13.819 16.6168 24.0985C16.6168 24.0985 11.5591 22.4891 14.3244 33.4127C14.3244 33.4127 6.49658 28.8912 12.103 39.8957L9.39242 41.6456Z" fill="#2B3D2D"/>
<path d="M67.1631 44.5057C68.7437 44.6168 70.1414 44.4777 71.4976 44.4348C72.7936 43.4527 74.1595 42.4437 75.4555 41.4616C75.797 41.2094 76.1385 40.9571 76.578 40.7472C76.7176 40.6932 76.9137 40.7778 77.1307 40.8143C77.2115 41.7054 76.5984 42.183 76.1324 42.724C75.6664 43.265 74.9476 43.5828 74.608 44.2354C74.8474 44.6241 75.1474 44.4681 75.4341 44.4776C77.937 44.4728 80.4551 44.7028 82.9316 45.0291C83.4144 45.1232 83.918 45.1693 84.1442 45.7235C84.1045 46.2201 83.7555 46.3549 83.35 46.3512C82.273 46.2862 81.196 46.2211 80.119 46.1561C79.5456 46.1371 78.9231 46.0969 78.3497 46.0779C76.3503 46.1286 74.3076 45.8753 72.3158 46.0435C72.0083 46.0821 71.6518 46.0996 71.3444 46.1382C71.3952 46.5597 71.6611 46.6173 71.878 46.6538C73.9583 47.4941 75.9895 48.3133 78.0208 49.1324C78.5111 49.344 79.0638 49.4111 79.5957 49.5264C80.3935 49.6993 81.2611 49.8453 82.0589 50.0182C82.2268 50.0335 82.4022 50.1663 82.5493 50.2297C82.6907 50.5761 82.5095 50.7263 82.2304 50.8342C82.0908 50.8882 81.9229 50.8728 81.8041 50.8786C80.1197 51.0082 78.4617 50.8068 76.8793 50.2954C75.2479 49.7628 73.6165 49.2303 71.9775 48.5804C70.7516 48.0516 69.588 47.3784 68.4527 46.7744C68.2075 46.6687 67.934 46.4936 67.5625 46.2763C65.7517 46.2943 63.8297 46.4355 61.9774 46.5497C61.8321 46.8866 61.9792 46.9501 62.1546 47.0828C63.8594 48.389 65.6887 49.4065 67.6086 50.3489C68.8138 50.9258 70.0397 51.4547 71.2863 51.9354C72.2388 52.2891 73.2328 52.5467 74.255 52.8735C74.8642 53.0792 75.5074 53.0713 76.0335 53.4695C76.1334 53.9121 75.8335 54.0681 75.575 54.1279C74.9111 54.184 74.1981 54.2189 73.5474 54.1094C71.9875 53.9502 70.4957 53.3638 69.0038 52.7773C66.0409 51.5562 63.2441 49.9502 60.6699 48.0977C60.0947 47.6783 59.5478 47.3282 58.9726 46.9088C58.0559 46.7417 57.2391 47.0173 56.3865 47.1061C55.4642 47.222 54.5343 47.2204 53.5628 47.315C52.7103 47.4039 51.8502 47.3753 51.0258 47.5335C50.888 47.9878 51.203 48.0665 51.3784 48.1993C54.4015 50.3596 57.6396 52.156 61.0646 53.5193C63.0959 54.3385 65.0988 55.0884 67.1301 55.9075C67.4733 56.0556 67.9279 56.0804 68.0353 56.6405C67.8957 56.6944 67.7146 56.8446 67.5957 56.8504C67.1204 56.8737 66.6168 56.8277 66.1132 56.7817C64.6439 56.5474 63.2576 56.1207 61.8639 55.5765C58.9575 54.494 56.1134 53.2671 53.4562 51.6071C51.9135 50.5992 50.4406 49.5642 48.9678 48.5293C48.7924 48.3966 48.6453 48.3331 48.4208 48.1792C47.9455 48.2025 47.4004 48.2527 46.9043 48.3241C45.018 48.652 43.1317 48.9799 41.2945 49.329C40.7984 49.4004 40.3023 49.4718 39.827 49.4951C38.401 49.5649 36.975 49.6347 35.549 49.7045C35.3114 49.7161 35.0945 49.6797 34.8568 49.6913C34.9531 49.3333 35.2115 49.2735 35.4209 49.1926C37.1733 48.6357 38.9465 48.0307 40.7837 47.6816C43.0473 47.2882 45.3108 46.8947 47.5744 46.5012C47.9026 46.4145 48.2308 46.3277 48.5798 46.1929C48.7666 45.7598 48.9535 45.3266 49.0913 44.8724C50.188 41.5211 51.9504 38.5141 53.9863 35.6821C54.4448 35.0237 55.0372 34.5943 55.7277 34.2072C55.854 34.3188 56.0011 34.3822 56.1275 34.4938C56.0047 35.1829 55.5387 35.7239 55.1915 36.2591C53.7064 38.7579 52.2704 41.2778 51.1776 43.9458C50.9493 44.4752 50.7209 45.0046 50.7585 45.5916C50.8848 45.7032 50.9621 45.7936 51.0319 45.7666C51.794 45.7529 52.5768 45.691 53.4086 45.6503C53.6237 45.2864 53.8181 44.9707 53.9634 44.6338C54.7655 42.6395 55.743 40.778 56.8676 38.9799C57.8602 37.3532 58.9791 35.8381 60.3016 34.525C60.7261 34.0802 61.277 33.747 61.7505 33.3234C61.9109 33.2214 62.0995 33.1886 62.2183 33.1827C62.4918 33.3578 62.5068 33.5926 62.3955 33.7158C62.0068 34.3473 61.5898 34.9094 61.1521 35.5197C58.969 38.2882 57.2273 41.2471 55.7874 44.4503C55.6421 44.7872 55.6421 44.7872 55.757 45.4646C56.4699 45.4297 57.2037 45.3467 57.9299 45.1462C58.0828 44.9268 58.1658 44.7343 58.3187 44.5148C59.8624 41.071 62.1643 38.2966 64.9847 35.8031C65.3677 35.4546 65.8488 35.1484 66.26 34.8692C66.5808 34.665 66.9505 34.4821 67.4126 34.6243C67.4899 34.7147 67.5672 34.8052 67.6728 34.9649C67.501 35.6328 66.9992 35.9871 66.5256 36.4108C64.6315 38.1052 62.99 40.0228 61.5239 42.0731C61.0654 42.7315 60.6842 43.4804 60.254 44.208C60.1709 44.4005 60.1162 44.6623 60.0539 44.8067C60.1802 44.9183 60.2575 45.0087 60.3764 45.0029C60.5933 45.0394 60.7611 45.0547 60.9498 45.0219C62.2569 44.9579 63.5641 44.8939 64.7524 44.8357C65.3731 44.4756 65.5316 43.9732 65.7675 43.5612C67.0714 41.2126 68.9015 39.2622 70.9843 37.535C71.3258 37.2828 71.6673 37.0305 72.0578 36.7994C72.2181 36.6973 72.435 36.7338 72.5746 36.6799C72.9254 36.9453 72.9196 37.2283 72.746 37.4959C72.4611 37.8867 72.1272 38.2564 71.765 38.5567C70.1915 40.047 68.8915 41.7124 67.7669 43.5104C67.565 43.7087 67.4197 44.0456 67.1631 44.5057Z" fill="#89C5AC"/>
<path d="M29.3934 34.4209C29.9847 33.9848 30.6247 33.5698 31.0704 33.0709C32.3026 31.8171 33.4586 30.4728 34.5937 29.1771C35.1927 28.4564 35.5974 27.6519 36.0716 26.8198C36.2877 26.4523 36.4277 25.9943 36.9838 25.7735C37.1296 25.8364 37.3029 25.9687 37.5248 26.1221C37.4393 27.1218 37.0832 27.9473 36.6576 28.8004C35.6673 30.5617 34.4551 32.1697 33.0419 33.5759C32.1229 34.5041 31.1068 35.3904 30.1117 36.2282C29.5479 36.7337 28.8594 37.1278 28.0176 37.7437C27.2777 39.3251 26.5999 41.1636 25.922 43.0022C26.102 43.2526 26.2687 43.2669 26.4773 43.1841C27.9029 42.4169 29.1485 41.3992 30.3941 40.3815C32.3845 38.706 34.2014 36.8981 35.9907 35.0207C36.304 34.6951 36.5202 34.3276 37.0135 34.2525C37.2773 34.3087 37.4783 34.5106 37.3736 34.7533C37.2755 35.1142 37.108 35.5027 36.9128 35.8216C36.5224 36.4595 36.1043 37.0279 35.6377 37.5753C33.1723 40.4857 30.2773 42.9228 26.9804 44.9561C26.5214 45.2189 26.0138 45.4606 25.5271 45.6539C25.1795 45.7919 24.8109 45.9784 24.5329 46.0889C22.916 48.5014 21.2773 51.3652 21.0535 52.0174C21.3726 52.2127 21.7202 52.0747 22.0193 51.9157C23.9382 51.0733 25.6981 49.9319 27.5066 48.8115C28.1256 48.445 28.6132 47.849 29.156 47.3921C29.4969 47.136 29.7616 46.7894 30.234 46.7628C30.6988 47.0209 30.5522 47.3608 30.4265 47.6522C29.7571 48.8032 28.963 49.8429 27.7945 50.5483C26.3755 51.4336 25.0051 52.3398 23.5309 53.0861C22.4462 53.5973 21.4033 54.0113 20.2567 54.2654C19.8119 54.3615 19.4434 54.548 19.0472 54.6651C18.0235 55.8361 17.0484 57.0281 15.9971 58.1296C15.5724 58.5799 15.0991 59.0092 14.5982 59.3691C14.3477 59.549 14.0001 59.687 13.6525 59.825C13.4515 59.6231 13.2781 59.4908 13.1534 59.3793C13.12 58.789 13.4818 58.4844 13.7466 58.1378C14.2341 57.5418 14.7702 56.9668 15.3064 56.3918C17.5556 53.8489 19.4858 51.1108 21.2912 48.2612C21.5283 47.8452 21.8625 47.471 21.8224 46.7626C20.0211 44.6609 18.6236 42.1575 17.8937 39.3085C17.8042 38.9819 17.8813 38.6696 17.8888 38.3849C18.2574 38.1984 18.4517 38.2822 18.5832 38.5117C18.9013 39.1097 19.2681 39.7286 19.5377 40.3057C20.2846 41.7797 21.08 43.2747 22.0983 44.5203C22.2783 44.7707 22.5003 44.9241 22.6803 45.1745C22.8612 45.0222 23.0003 44.967 23.0422 44.8699C23.7954 43.5246 24.5637 41.6099 24.8788 40.4788C23.8253 39.4484 23.0642 38.141 22.3516 36.8545C21.0094 34.4901 20.1328 31.9811 19.5344 29.3616C19.3142 28.4027 19.1427 27.4648 19.1102 26.4717C19.0835 25.9995 19.0777 25.4786 19.4605 25.1254C19.7872 25.036 19.9396 25.2169 20.0015 25.474C20.2016 26.0786 20.3531 26.6623 20.4837 27.2946C21.1021 30.2683 22.1168 33.1249 23.4791 35.8435C23.9564 36.7405 24.5727 37.5823 25.1195 38.4517C25.1957 38.5421 25.3414 38.605 25.5357 38.6888C25.6681 38.5156 25.7795 38.3908 25.8423 38.2452C26.5964 36.4971 27.0096 35.0051 27.0885 33.8873C26.9846 33.7273 26.9227 33.4702 26.7703 33.2893C25.3862 31.022 24.3706 28.5682 23.7998 26.0182C23.4767 24.4966 23.1051 22.9541 23.0877 21.3916C23.0971 20.3014 23.1969 19.135 23.3244 18.0381C23.332 17.7534 23.5063 17.483 23.7843 17.3726C24.2425 17.5127 24.3111 17.8878 24.3311 18.242C24.4131 18.8533 24.4256 19.4922 24.4866 20.1521C24.7909 23.8541 25.7 27.3563 27.2623 30.6795C27.3452 30.8881 27.5186 31.0204 27.6986 31.2709C27.831 31.0976 27.991 30.9938 27.9843 30.8758C28.2156 29.9389 28.4469 29.002 28.6992 28.0165C28.8324 27.4405 28.7295 26.8778 28.5294 26.2731C28.1636 25.2514 27.8396 24.1326 27.4252 23.0899C26.8935 21.6511 26.8067 20.1162 26.5112 18.6641C26.3874 18.15 26.4511 17.6015 26.4453 17.0807C26.411 16.8931 26.571 16.7893 26.9814 16.5057C27.5367 16.6876 27.612 17.1808 27.7569 17.6465C27.9912 18.4387 28.0866 19.2861 28.2724 20.0574C28.4925 21.0162 28.7822 21.9475 29.0233 22.8578C29.1062 23.0663 29.2376 23.2958 29.3205 23.5044C29.7024 23.5539 29.5919 23.2759 29.6547 23.1302C30.1174 21.2564 30.3438 19.3959 30.5217 17.5145C30.5854 16.9661 30.5796 16.4452 30.9558 15.974C31.1224 15.9883 31.2615 15.9331 31.3796 15.9264C31.9825 16.5321 31.9531 17.2681 31.9237 18.0041C31.863 20.2817 31.5176 22.5516 31.0541 24.8281C31.0188 25.0433 30.9627 25.307 30.997 25.4946C31.2884 25.6203 31.3999 25.4956 31.5322 25.3223C32.5911 23.9361 33.5738 22.4595 34.3136 20.8781C34.5021 20.4411 34.7878 20.0459 35.0249 19.6299C35.1363 19.5052 35.2963 19.4014 35.5258 19.27C35.6573 19.4995 35.8306 19.6319 35.8164 19.7985C35.8155 20.2013 35.766 20.5831 35.6679 20.944C35.1986 22.6997 34.3893 24.3087 33.2399 25.7711C32.2439 27.0116 31.4002 28.433 30.127 29.3812C29.7767 30.7275 29.4264 32.0738 29.097 33.3715C29.0199 33.6838 28.9914 34.0171 28.9419 34.3989C28.8305 34.5236 28.6981 34.6969 28.9201 34.8502C28.9896 34.8226 29.0801 34.7464 29.101 34.6979C29.3515 34.518 29.3724 34.4694 29.3934 34.4209Z" fill="#89C5AC"/>
</svg>
