<svg width="125" height="64" viewBox="0 0 125 64" fill="none" xmlns="http://www.w3.org/2000/svg">
<path d="M98.448 17.6707C86.8829 3.98327 72.129 -1.51033 54.5672 0.351907C44.6678 1.37614 36.339 5.98517 29.3904 13.2479C23.3461 19.5329 16.7307 27.1681 14.1606 35.5482C12.828 39.8779 9.25855 56.9639 9.92486 61.4332H11.7334C12.3521 51.1909 20.0146 28.9372 26.2493 20.5572C31.8653 12.9686 38.6235 7.94052 47.7138 5.47305C52.0923 4.2626 56.5185 3.79704 60.897 3.75049C67.4173 3.79704 73.6044 4.68161 79.6011 7.0094C88.8342 10.5942 95.8304 16.7861 100.542 25.5386L107.253 42.904C107.491 44.8128 109.775 59.5244 109.87 61.4332H111.822C112.869 43.9748 105.587 26.0973 98.448 17.6707Z" fill="#D25B73"/>
<path d="M70.4166 14.6912C58.8039 13.5273 44.7163 16.9724 36.5779 25.818C32.4373 30.3339 24.5369 55.1948 22.8711 61.4333H25.4887C26.0122 55.9397 32.5325 37.6432 35.5784 32.8479C39.9094 26.0042 46.0489 21.5349 54.3777 19.952C60.2317 18.8346 66.038 19.4399 71.6064 21.3486C80.8395 24.5144 87.5501 30.2874 91.5955 38.9002C93.0233 41.9263 97.1639 58.1743 97.4495 61.4333H101.019C98.8297 56.4983 92.9757 36.4328 91.2624 32.9876C86.6458 23.4902 80.6491 15.7154 70.4166 14.6912Z" fill="#988FC1"/>
<path d="M101.162 25.2127C96.4025 16.4602 89.4539 10.2683 80.2208 6.68347C74.2717 4.35568 68.037 3.47112 61.5167 3.42456C57.1382 3.47112 52.712 3.93668 48.3335 5.14713C39.2908 7.66115 31.8187 12.5961 26.2027 20.1847C20.0156 28.5182 12.3055 51.1909 11.7344 61.4332H15.5418C15.7322 53.5652 22.7284 33.1738 26.8214 26.4697C31.8187 18.3224 38.7197 12.6426 47.3816 9.24405C52.1885 7.38181 57.2334 6.49725 63.3729 6.49725C69.1316 6.59036 75.6995 7.75426 81.8866 10.7804C91.8335 15.5756 98.4014 23.5833 102.018 34.2911C103.541 38.8536 107.634 56.6379 107.92 61.4332H110.395C110.3 59.6175 108.348 47.1871 107.92 44.0213C107.872 43.6954 107.777 43.4161 107.682 43.1367L101.162 25.2127Z" fill="#F5ACB9"/>
<path d="M81.9336 10.7805C75.7465 7.80088 69.1787 6.59043 63.4199 6.49731C57.2328 6.49731 52.2355 7.38188 47.4286 9.24411C38.7667 12.5961 31.8657 18.3225 26.8684 26.4698C22.7278 33.1738 15.7792 53.6119 15.5889 61.4333H18.3969C19.3963 50.9582 27.7251 28.3786 34.9117 20.5106C41.4319 13.341 49.5703 9.75623 58.9938 9.66311C70.1305 9.57 80.0299 13.341 88.3111 21.1624C96.0212 28.4251 103.636 50.6323 104.826 61.4333H108.015C107.729 56.638 103.636 38.8537 102.113 34.2912C98.4484 23.5833 91.8806 15.5757 81.9336 10.7805Z" fill="#FDD26E"/>
<path d="M88.3107 21.1625C79.9819 13.3411 70.1302 9.57007 58.9934 9.66318C49.57 9.75629 41.4315 13.3411 34.9113 20.5107C27.7247 28.3786 19.3959 50.9582 18.3965 61.4333H22.9178C24.5836 55.1948 32.4364 30.334 36.6246 25.8181C44.7631 16.9725 58.8506 13.5273 70.4633 14.6912C80.6958 15.7154 86.6926 23.4903 91.3091 32.9877C93.0224 36.4794 98.8764 56.4984 101.066 61.4333H104.873C103.588 50.6789 95.9732 28.4252 88.3107 21.1625Z" fill="#98AA7B"/>
<path d="M124.339 60.735C123.387 60.2229 122.198 60.0832 121.103 60.0367C111.775 60.9678 112.346 57.8485 106.587 55.288C105.778 54.9621 105.112 54.9621 104.16 54.9621C97.6871 55.6604 100.781 52.1687 95.8309 49.8875C90.7385 47.5597 89.739 49.934 88.3112 49.096C84.2182 40.2504 82.5525 32.848 73.1766 32.848C60.7548 32.848 54.0918 43.9749 53.9014 44.5335C52.1881 47.8856 49.6656 43.6955 48.0475 43.0438C44.8112 40.8556 40.5278 41.2281 38.862 45.2784C38.1957 47.42 38.4813 51.0048 37.2439 52.0756C32.9605 50.8186 27.2969 49.4685 25.0124 54.1241C24.8697 54.5431 24.7269 54.5431 24.1558 54.6827C14.304 54.1241 14.9227 59.5711 8.45004 59.9435C-3.82898 58.7331 0.406808 64.087 2.07257 63.6215C18.3494 63.6215 51.8549 63.8077 60.6596 62.9697C128.575 64.506 126.243 64.7388 124.339 60.735Z" fill="white"/>
</svg>
