<svg width="82" height="62" viewBox="0 0 82 62" fill="none" xmlns="http://www.w3.org/2000/svg">
<path d="M40.8278 58.2145C19.3029 50.7146 27.6817 41.2862 34.5437 43.0719C34.9048 41.5719 34.1825 41.4291 33.7491 40.2148C28.1873 28.9292 33.8214 25.4293 41.3334 31.5721C41.9835 24.7864 37.5774 18.1437 38.8053 10.9295C38.8776 7.92957 40.3222 5.07247 42.778 4.78676C49.5678 5.71532 52.0959 24.715 54.1183 24.2865C57.8021 -9.35588 70.0814 -5.99879 65.6753 21.7865C67.4089 22.1436 68.998 15.7152 70.5871 15.358C82.2163 11.2867 71.9595 32.3578 72.6818 37.572C77.5213 37.6434 81.3495 35.5006 81.9996 42.8576C77.8824 53.2146 66.1087 58.7145 59.6079 60.7145C66.9033 42.1433 68.8535 39.3577 64.953 37.2863C61.5582 38.7148 59.1023 50.1432 57.2965 49.2861C56.5742 43.0005 59.5357 28.6435 55.563 28.215C55.0574 28.5721 54.335 29.0721 53.6127 29.5721C51.7347 41.929 52.1681 49.5004 50.6513 49.6432C47.8342 46.5004 47.4008 41.2148 43.5004 41.929C43.067 42.7147 42.5614 43.6433 42.0557 44.5719C43.5726 50.3575 45.6673 55.5003 48.0509 60.4288C45.6673 59.7145 43.2114 59.0002 40.8278 58.2145Z" fill="#F1B5B4"/>
<path d="M59.6801 60.7144C55.7796 62.2858 51.8791 62.643 48.1231 60.5002C45.6673 55.5717 43.6448 50.3575 42.1279 44.6433C42.6335 43.7147 43.1392 42.7147 43.5726 42.0004C47.6897 41.3576 48.1231 47.2147 50.7234 49.7146C52.6737 48.0718 52.9626 30.2149 53.6849 29.6435C54.4795 29.1435 55.1296 28.6435 55.6352 28.2864C60.0413 29.3578 56.2853 46.7861 57.3687 49.3575C59.969 48.5003 62.6416 37.1434 65.0252 37.3577C70.9482 38.8576 60.1857 57.2859 59.6801 60.7144Z" fill="#F9F5E7"/>
<path d="M11.511 54.8553C-6.33007 49.2839 0.459664 42.784 6.16593 44.1412C6.45486 43.1412 5.80477 42.9983 5.44362 42.1412C0.748589 34.1413 5.29916 31.7842 11.5833 36.2127C12.0167 31.4271 8.26064 26.7843 9.19964 21.7129C9.19964 19.5701 10.3553 17.6416 12.3778 17.4273C17.9396 18.1416 20.3233 31.4985 21.9846 31.2842C24.5849 7.71315 34.6973 10.2845 31.4469 29.7128C32.8915 29.9985 34.1194 25.4986 35.4196 25.2843C44.9541 22.5701 36.792 37.2127 37.4421 40.8555C41.4148 40.9983 44.5929 39.4984 45.1708 44.7126C41.9204 51.9268 32.3136 55.5695 27.0408 56.9267C32.747 43.9983 34.3361 42.0698 31.0857 40.5698C28.3409 41.4983 26.4629 49.4982 24.9461 48.9268C24.2237 44.4983 26.5351 34.4984 23.2125 34.1413C22.7791 34.3556 22.2013 34.7127 21.6234 35.0699C20.251 43.7126 20.7566 49.0696 19.4565 49.0696C17.0728 46.784 16.6395 43.1412 13.4613 43.5697C13.1001 44.1412 12.739 44.784 12.3056 45.4269C13.678 49.4982 15.4115 53.141 17.5062 56.641C15.556 55.9981 13.5335 55.4267 11.511 54.8553Z" fill="#CA5769"/>
<path d="M27.0399 56.8552C23.7895 57.8552 20.6113 58.1409 17.5053 56.5695C15.4106 53.0695 13.6771 49.4267 12.3047 45.3554C12.7381 44.7125 13.0992 44.0697 13.4604 43.4982C16.8553 43.0697 17.2886 47.2125 19.4556 48.9982C21.0447 47.8553 21.0447 35.3555 21.6225 34.9984C22.2726 34.6412 22.7782 34.3555 23.2116 34.0698C26.8232 34.8555 24.0061 47.0696 24.9452 48.8553C27.1121 48.2839 29.1346 40.3554 31.0848 40.4983C35.9965 41.6411 27.401 54.4267 27.0399 56.8552Z" fill="#F9F5E7"/>
</svg>
