<svg width="522" height="382" viewBox="0 0 522 382" fill="none" xmlns="http://www.w3.org/2000/svg">
<path d="M499.466 122.47C433.847 105.41 347.029 106.27 274.879 132.57C254.195 142 250.072 151.92 239.656 161C229.19 169.18 205.959 186.51 186.851 194.52C169.904 201.86 164.057 196.42 143.68 198.13C97.199 205.94 89.9939 201.63 61.0149 207.29C32.7197 214.46 -19.4801 241.03 8.15104 283.84C33.3739 311.44 181.034 327.1 210.479 312.67C234.264 306.41 265.691 305.04 274.413 297.98C341.39 255.47 323.461 262.29 355.889 221.32C390.715 190.64 431.151 220.22 495.313 197.72C527.156 191.48 531.18 136.27 499.466 122.47Z" fill="#EFDE9E"/>
<path d="M274.352 322.88C274.352 322.88 241.66 329.72 219.12 337.13C219.12 337.13 194.881 346.82 201.643 363.93C201.643 363.93 200.516 382.17 231.517 381.6C231.517 381.6 273.788 380.46 291.266 371.91C291.266 371.91 313.805 367.35 309.861 342.83C309.861 342.83 305.353 321.74 274.352 322.88Z" fill="#EFDE9E"/>
<path d="M168.2 188.47C168.645 188.06 170.059 188.86 171.739 190.6C173.766 192.82 175.416 195.365 176.623 198.13C178.35 202.053 179.307 206.278 179.44 210.57C179.44 211.45 179.44 212.05 179.44 212.27C179.427 212.685 179.343 213.094 179.193 213.48C179.053 213.852 178.841 214.192 178.57 214.48C178.333 214.731 178.042 214.924 177.72 215.043C177.398 215.163 177.053 215.206 176.712 215.17C176.034 215.076 175.42 214.717 175.001 214.17C174.793 213.898 174.635 213.589 174.537 213.26C174.416 212.92 174.359 212.561 174.369 212.2C174.394 211.714 174.394 211.226 174.369 210.74C174.369 209.98 174.29 208.98 174.171 207.83C173.851 205.108 173.255 202.428 172.392 199.83C171.509 197.299 170.469 194.828 169.278 192.43C168.289 190.38 167.656 188.96 168.2 188.47Z" fill="#234E32"/>
<path d="M205.607 177.15C206.685 177.82 205.894 180.95 204.194 185.3C202.493 189.65 199.943 195.22 197.916 200.9C196.93 203.662 196.091 206.476 195.405 209.33C194.794 211.834 194.348 214.376 194.071 216.94C193.866 218.826 193.771 220.723 193.784 222.62C193.784 223.35 193.784 223.97 193.843 224.44L193.913 225.44C193.96 226.114 193.889 226.791 193.705 227.44C193.529 228.091 193.245 228.706 192.865 229.26C192.125 230.423 190.971 231.254 189.642 231.58C188.963 231.741 188.255 231.734 187.579 231.56C186.903 231.386 186.278 231.05 185.757 230.58C185.18 230.043 184.707 229.402 184.363 228.69C183.996 227.901 183.778 227.05 183.721 226.18L183.641 224.92C183.641 224.31 183.592 223.54 183.562 222.62C183.569 220.279 183.728 217.94 184.037 215.62C184.454 212.571 185.115 209.561 186.014 206.62C186.983 203.413 188.189 200.284 189.622 197.26C192.159 191.876 195.311 186.812 199.014 182.17C201.94 178.46 204.401 176.41 205.607 177.15Z" fill="#234E32"/>
<path d="M213.377 204.85C214.099 205.17 213.891 207.12 213.377 209.9C212.863 212.68 212.003 216.34 211.301 220.07C210.6 223.8 210.066 227.58 209.74 230.57C209.413 233.56 209.245 235.75 209.245 236.21C209.183 237.117 208.809 237.973 208.187 238.63C207.899 238.946 207.549 239.199 207.16 239.371C206.77 239.543 206.349 239.631 205.924 239.63C205.5 239.612 205.086 239.499 204.711 239.298C204.336 239.098 204.011 238.815 203.759 238.47C203.181 237.705 202.909 236.748 202.998 235.79C202.998 235.28 203.166 232.95 203.581 229.79C204.073 226.07 204.839 222.393 205.874 218.79C206.835 215.291 208.16 211.905 209.828 208.69C211.222 205.99 212.596 204.5 213.377 204.85Z" fill="#234E32"/>
<path d="M254.873 184.87C253.232 187.87 253.469 190.46 254.319 195.51C252.748 195.05 250.533 187.45 251.087 184.56C255.387 162.3 271.501 157.78 273.824 156.56C282.849 153.79 291.746 154.03 295.968 154C300.502 154.394 304.971 155.351 309.274 156.85C312.635 157.98 316.332 160.79 316.658 161.53C317.143 162.65 316.658 167.33 316.362 168.53C315.541 171.9 315.057 177.25 310.351 183.25C306.268 188.45 300.06 191.87 296.581 194.48C293.971 196.18 291.207 197.623 288.326 198.79C288.198 198.79 292.191 191.96 290.521 184.43C289.532 179.19 288.751 176.57 284.352 173.61C280.398 170.94 279.666 170.32 274.16 170.06C271.056 169.9 265.451 172.65 263.286 174.46C260.3 176.98 258.412 178.43 254.873 184.87Z" fill="#F5F1E8"/>
<path d="M253.568 193.87C252.678 190.5 253.37 188.62 254.399 185.32C255.423 180.972 257.978 177.151 261.585 174.57C263.463 173.037 265.572 171.822 267.833 170.97C272.924 169.54 278.707 169.27 282.978 172.1C287.377 175.05 289.69 178.05 290.689 183.3C291.677 188.15 291.163 187.4 290.956 191.3C290.768 194.79 289.7 197.4 288.464 198.71C287.525 199.51 282.217 200.07 279.478 200.31C273.482 200.975 267.419 200.675 261.516 199.42C256.801 198.37 254.497 197.43 253.568 193.87Z" fill="#CA5769"/>
<path d="M127.962 182H144.343C144.833 182 145.183 182.14 145.533 182.49C145.883 182.84 146.023 183.19 146.023 183.68V278.323C146.023 278.813 145.883 279.163 145.533 279.513C145.183 279.863 144.833 280.003 144.343 280.003H127.962C127.472 280.003 127.122 279.863 126.772 279.513C126.422 279.163 126.282 278.813 126.282 278.323V216.581C126.282 216.231 126.212 216.021 126.002 216.021C125.792 216.021 125.652 216.161 125.442 216.441L110.602 239.682C110.112 240.452 109.481 240.802 108.641 240.802H100.381C99.5412 240.802 98.9112 240.452 98.4211 239.682L83.5807 216.441C83.3707 216.161 83.2306 216.021 83.0206 216.091C82.8106 216.161 82.7406 216.371 82.7406 216.721V278.323C82.7406 278.813 82.6006 279.163 82.2506 279.513C81.9006 279.863 81.5506 280.003 81.0606 280.003H64.6801C64.19 280.003 63.84 279.863 63.49 279.513C63.14 279.163 63 278.813 63 278.323V183.68C63 183.19 63.14 182.84 63.49 182.49C63.84 182.14 64.19 182 64.6801 182H81.0606C81.9006 182 82.5306 182.35 83.0206 183.12L104.021 215.741C104.301 216.301 104.581 216.301 104.861 215.741L126.002 183.12C126.492 182.35 127.122 182 127.962 182Z" fill="black"/>
<path d="M122.962 180H139.343C139.833 180 140.183 180.14 140.533 180.49C140.883 180.84 141.023 181.19 141.023 181.68V276.323C141.023 276.813 140.883 277.163 140.533 277.513C140.183 277.863 139.833 278.003 139.343 278.003H122.962C122.472 278.003 122.122 277.863 121.772 277.513C121.422 277.163 121.282 276.813 121.282 276.323V214.581C121.282 214.231 121.212 214.021 121.002 214.021C120.792 214.021 120.652 214.161 120.442 214.441L105.602 237.682C105.112 238.452 104.481 238.802 103.641 238.802H95.3812C94.5412 238.802 93.9112 238.452 93.4211 237.682L78.5807 214.441C78.3707 214.161 78.2306 214.021 78.0206 214.091C77.8106 214.161 77.7406 214.371 77.7406 214.721V276.323C77.7406 276.813 77.6006 277.163 77.2506 277.513C76.9006 277.863 76.5506 278.003 76.0606 278.003H59.6801C59.19 278.003 58.84 277.863 58.49 277.513C58.14 277.163 58 276.813 58 276.323V181.68C58 181.19 58.14 180.84 58.49 180.49C58.84 180.14 59.19 180 59.6801 180H76.0606C76.9006 180 77.5306 180.35 78.0206 181.12L99.0213 213.741C99.3013 214.301 99.5813 214.301 99.8613 213.741L121.002 181.12C121.492 180.35 122.122 180 122.962 180Z" fill="white" stroke="black" stroke-width="3"/>
<path d="M177.44 297.042C171.84 292.912 167.99 287.312 165.96 280.242C164.63 275.832 164 271.071 164 265.961C164 260.431 164.63 255.531 165.96 251.121C168.13 244.19 171.98 238.8 177.58 234.88C183.18 230.96 189.901 229 197.741 229C205.371 229 211.951 230.96 217.342 234.81C222.732 238.66 226.582 244.05 228.822 250.981C230.292 255.671 231.062 260.571 231.062 265.681C231.062 270.721 230.432 275.411 229.102 279.822C227.072 287.102 223.222 292.842 217.692 296.972C212.161 301.102 205.441 303.202 197.601 303.202C189.761 303.202 183.04 301.172 177.44 297.042ZM205.441 283.462C207.611 281.572 209.151 279.052 210.061 275.761C210.831 272.751 211.181 269.531 211.181 265.961C211.181 262.041 210.831 258.751 210.061 256.021C209.011 252.871 207.471 250.351 205.301 248.601C203.131 246.851 200.541 245.941 197.461 245.941C194.311 245.941 191.651 246.851 189.551 248.601C187.451 250.351 185.911 252.871 185.001 256.021C184.231 258.261 183.881 261.551 183.881 265.961C183.881 270.161 184.231 273.451 184.861 275.761C185.771 279.052 187.381 281.572 189.551 283.462C191.721 285.352 194.451 286.262 197.601 286.262C200.681 286.262 203.341 285.352 205.441 283.462Z" fill="black"/>
<path d="M172.44 295.042C166.84 290.912 162.99 285.312 160.96 278.242C159.63 273.832 159 269.071 159 263.961C159 258.431 159.63 253.531 160.96 249.121C163.13 242.19 166.98 236.8 172.58 232.88C178.181 228.96 184.901 227 192.741 227C200.371 227 206.952 228.96 212.342 232.81C217.732 236.66 221.582 242.05 223.822 248.981C225.292 253.671 226.062 258.571 226.062 263.681C226.062 268.721 225.432 273.411 224.102 277.822C222.072 285.102 218.222 290.842 212.692 294.972C207.162 299.102 200.441 301.202 192.601 301.202C184.761 301.202 178.041 299.172 172.44 295.042ZM200.441 281.462C202.611 279.572 204.151 277.052 205.061 273.761C205.832 270.751 206.182 267.531 206.182 263.961C206.182 260.041 205.832 256.751 205.061 254.021C204.011 250.871 202.471 248.351 200.301 246.601C198.131 244.851 195.541 243.941 192.461 243.941C189.311 243.941 186.651 244.851 184.551 246.601C182.451 248.351 180.911 250.871 180.001 254.021C179.231 256.261 178.881 259.551 178.881 263.961C178.881 268.161 179.231 271.451 179.861 273.761C180.771 277.052 182.381 279.572 184.551 281.462C186.721 283.352 189.451 284.262 192.601 284.262C195.681 284.262 198.341 283.352 200.441 281.462Z" fill="white" stroke="black" stroke-width="3"/>
<path d="M256.44 294.042C250.84 289.912 246.99 284.312 244.96 277.242C243.63 272.832 243 268.071 243 262.961C243 257.431 243.63 252.531 244.96 248.121C247.13 241.19 250.98 235.8 256.58 231.88C262.181 227.96 268.901 226 276.741 226C284.371 226 290.952 227.96 296.342 231.81C301.732 235.66 305.582 241.05 307.822 247.981C309.292 252.671 310.062 257.571 310.062 262.681C310.062 267.721 309.432 272.411 308.102 276.822C306.072 284.102 302.222 289.842 296.692 293.972C291.162 298.102 284.441 300.202 276.601 300.202C268.761 300.202 262.041 298.172 256.44 294.042ZM284.441 280.462C286.611 278.572 288.151 276.052 289.061 272.761C289.832 269.751 290.182 266.531 290.182 262.961C290.182 259.041 289.832 255.751 289.061 253.021C288.011 249.871 286.471 247.351 284.301 245.601C282.131 243.851 279.541 242.941 276.461 242.941C273.311 242.941 270.651 243.851 268.551 245.601C266.451 247.351 264.911 249.871 264.001 253.021C263.231 255.261 262.881 258.551 262.881 262.961C262.881 267.161 263.231 270.451 263.861 272.761C264.771 276.052 266.381 278.572 268.551 280.462C270.721 282.352 273.451 283.262 276.601 283.262C279.681 283.262 282.271 282.352 284.441 280.462Z" fill="black"/>
<path d="M251.44 292.042C245.84 287.912 241.99 282.312 239.96 275.242C238.63 270.832 238 266.071 238 260.961C238 255.431 238.63 250.531 239.96 246.121C242.13 239.19 245.98 233.8 251.58 229.88C257.181 225.96 263.901 224 271.741 224C279.371 224 285.952 225.96 291.342 229.81C296.732 233.66 300.582 239.05 302.822 245.981C304.292 250.671 305.062 255.571 305.062 260.681C305.062 265.721 304.432 270.411 303.102 274.822C301.072 282.102 297.222 287.842 291.692 291.972C286.162 296.102 279.441 298.202 271.601 298.202C263.761 298.202 257.041 296.172 251.44 292.042ZM279.441 278.462C281.611 276.572 283.151 274.052 284.061 270.761C284.832 267.751 285.182 264.531 285.182 260.961C285.182 257.041 284.832 253.751 284.061 251.021C283.011 247.871 281.471 245.351 279.301 243.601C277.131 241.851 274.541 240.941 271.461 240.941C268.311 240.941 265.651 241.851 263.551 243.601C261.451 245.351 259.911 247.871 259.001 251.021C258.231 253.261 257.881 256.551 257.881 260.961C257.881 265.161 258.231 268.451 258.861 270.761C259.771 274.052 261.381 276.572 263.551 278.462C265.721 280.352 268.451 281.262 271.601 281.262C274.681 281.262 277.271 280.352 279.441 278.462Z" fill="white" stroke="black" stroke-width="3"/>
<path d="M366.832 165.49C367.182 165.14 367.532 165 368.022 165H384.402C384.892 165 385.242 165.14 385.592 165.49C385.942 165.84 386.082 166.19 386.082 166.68V261.323C386.082 261.813 385.942 262.163 385.592 262.513C385.242 262.863 384.892 263.003 384.402 263.003H368.022C367.532 263.003 367.182 262.863 366.832 262.513C366.482 262.163 366.341 261.813 366.341 261.323V256.703C366.341 256.423 366.271 256.283 366.061 256.213C365.851 256.143 365.711 256.213 365.501 256.423C361.581 261.533 356.191 264.123 349.401 264.123C342.891 264.123 337.221 262.303 332.53 258.663C327.84 255.023 324.41 250.053 322.38 243.683C320.77 238.852 320 233.182 320 226.742C320 220.092 320.84 214.352 322.52 209.381C324.69 203.431 328.05 198.671 332.67 195.171C337.291 191.671 343.031 189.921 349.821 189.921C356.541 189.921 361.791 192.231 365.501 196.921C365.711 197.201 365.851 197.271 366.061 197.201C366.271 197.131 366.341 196.921 366.341 196.641V166.68C366.341 166.19 366.482 165.84 366.832 165.49ZM366.201 227.022C366.201 220.792 365.151 215.892 363.121 212.322C360.951 208.681 357.871 206.861 353.741 206.861C349.331 206.861 346.041 208.681 343.801 212.322C341.491 215.962 340.301 220.932 340.301 227.162C340.301 232.762 341.281 237.452 343.241 241.162C345.551 245.153 349.051 247.183 353.601 247.183C357.801 247.183 361.091 245.153 363.401 241.162C365.221 237.732 366.201 232.972 366.201 227.022Z" fill="black"/>
<path d="M361.832 163.49C362.182 163.14 362.532 163 363.022 163H379.402C379.892 163 380.242 163.14 380.592 163.49C380.942 163.84 381.082 164.19 381.082 164.68V259.323C381.082 259.813 380.942 260.163 380.592 260.513C380.242 260.863 379.892 261.003 379.402 261.003H363.022C362.532 261.003 362.182 260.863 361.832 260.513C361.482 260.163 361.341 259.813 361.341 259.323V254.703C361.341 254.423 361.271 254.283 361.061 254.213C360.851 254.143 360.711 254.213 360.501 254.423C356.581 259.533 351.191 262.123 344.401 262.123C337.891 262.123 332.221 260.303 327.53 256.663C322.84 253.023 319.41 248.053 317.38 241.683C315.77 236.852 315 231.182 315 224.742C315 218.092 315.84 212.352 317.52 207.381C319.69 201.431 323.05 196.671 327.67 193.171C332.291 189.671 338.031 187.921 344.821 187.921C351.541 187.921 356.791 190.231 360.501 194.921C360.711 195.201 360.851 195.271 361.061 195.201C361.271 195.131 361.341 194.921 361.341 194.641V164.68C361.341 164.19 361.482 163.84 361.832 163.49ZM361.201 225.022C361.201 218.792 360.151 213.892 358.121 210.322C355.951 206.681 352.871 204.861 348.741 204.861C344.331 204.861 341.041 206.681 338.801 210.322C336.491 213.962 335.301 218.932 335.301 225.162C335.301 230.762 336.281 235.452 338.241 239.162C340.551 243.153 344.051 245.183 348.601 245.183C352.801 245.183 356.091 243.153 358.401 239.162C360.221 235.732 361.201 230.972 361.201 225.022Z" fill="white" stroke="black" stroke-width="3"/>
<path d="M361.36 50.0033C361.36 50.0033 363.389 48.2223 371.242 46.1461C372.742 43.879 373.575 41.2336 373.646 38.5132L378.272 39.8464L380.382 43.1031L401.92 45.0368L401.676 52.4357C401.676 52.4357 403.939 54.6035 405.643 56.5066C407.347 58.4098 420.15 88.5854 420.15 88.5854L413.932 113.102L401.646 109.032L368.624 90.2951L349.339 79.2223L354.624 62.0837L361.36 50.0033Z" fill="#F1EBDF"/>
<path d="M476.83 136.47L460.273 138.749L455.728 126.13L450.656 77.4009C450.656 77.4009 459.573 79.9554 464.28 87.2627C468.988 94.5699 469.586 106.111 469.586 106.111L476.83 136.47Z" fill="#F1EBDF"/>
<path d="M331.9 102.631L328.947 128.369C328.947 128.369 366.636 134.475 382.016 131.738C397.395 129 368.158 101.481 368.158 101.481L344.124 94.5601L331.9 102.631Z" fill="#89C5AC"/>
<path d="M375.615 108.157C375.757 103.526 375.169 98.9158 375.179 94.2953C375.179 91.3846 374.976 88.4841 374.803 85.5836C374.58 81.6348 374.671 77.6758 374.641 73.727C374.641 72.6075 374.641 71.488 374.641 70.3685C374.195 66.5826 374.276 62.7763 374.093 58.9802C373.992 56.9447 373.85 54.8075 373.637 52.7415C373.49 51.7803 373.273 50.8312 372.987 49.902C372.874 49.6359 372.731 49.3833 372.561 49.1489C372.357 49.1411 372.156 49.2048 371.993 49.3292C371.83 49.4536 371.715 49.6309 371.669 49.8308C370.816 52.0087 369.832 54.1459 369.183 56.3748C368.25 59.6111 367.57 62.9086 366.768 66.1857C366.637 66.6844 364.384 79.6909 364.283 80.2914C364.07 81.6958 363.816 83.1003 363.583 84.4946C363.502 85.0136 363.38 85.5123 363.339 86.0415C363.147 88.6469 363.005 91.2625 362.782 93.8577C362.685 95.1256 362.512 96.3865 362.264 97.6334C361.993 99.7061 361.837 101.792 361.797 103.882C361.351 109.174 361.361 114.467 361.25 119.769C361.175 121.038 360.975 122.296 360.651 123.524C360.448 124.42 360.053 124.542 358.724 124.542C358.434 124.141 358.205 123.698 358.044 123.229C357.765 121.912 357.595 120.575 357.537 119.23C357.537 108.401 357.466 97.5724 357.537 86.7539C357.708 84.0689 358.047 81.3972 358.551 78.7546C358.551 78.49 358.855 78.2457 359.018 77.9913C358.41 77.524 357.947 76.8937 357.681 76.1733C357.415 75.453 357.358 74.6719 357.516 73.9204C357.69 72.26 358.272 70.6688 359.21 69.2897C359.939 67.4559 360.545 65.5758 361.026 63.6617C362.213 58.5731 363.339 53.4234 365.592 48.579C365.607 48.5051 365.607 48.4289 365.592 48.3551C365.368 48.0294 365.064 48.0905 364.75 48.2024L362.721 48.9454L361.321 49.9631C361.329 50.2302 361.274 50.4955 361.161 50.7376C361.048 50.9798 360.881 51.192 360.671 51.3574C358.93 53.1021 357.484 55.1199 356.39 57.3314C354.361 61.1581 352.2 64.944 350.435 68.8725C348.299 73.3694 346.6 78.0625 345.363 82.8866C344.855 84.9933 344.592 87.1509 344.125 89.2677C343.847 90.4384 343.477 91.5852 343.019 92.6975C342.867 93.0639 342.4 93.3183 342.005 93.7152C341.417 93.4076 340.939 92.9261 340.634 92.3362C340.329 91.7462 340.213 91.0764 340.3 90.4178C340.402 88.6367 340.513 86.8455 340.635 85.0645C340.939 80.3117 342.664 75.905 344.176 71.3761C344.48 70.4703 345.058 69.5849 344.703 68.5671C344.171 67.92 343.902 67.0945 343.952 66.2569C343.719 64.3232 343.577 62.3895 343.394 60.3948C344.967 58.2508 346.301 55.9403 347.371 53.5048C347.95 52.1105 348.467 50.6857 348.934 49.2609C349.208 48.4161 348.934 48.1006 347.828 47.6528C347.168 47.8462 347.087 48.3958 346.925 48.8843C346.209 50.811 345.305 52.6621 344.226 54.4106C344.146 54.6113 344.018 54.7894 343.854 54.9295C343.689 55.0696 343.493 55.1674 343.283 55.2146C343.061 53.2957 342.949 51.3656 342.948 49.4339C342.99 47.5146 342.878 45.5951 342.613 43.6939C342.38 43.6023 342.167 43.47 342.086 43.5107C341.842 43.6735 341.508 43.8669 341.447 44.101C341.331 44.6047 341.28 45.1211 341.294 45.6377C341.294 50.7976 341.294 55.9575 341.294 61.1174C341.294 62.2369 341.477 63.3462 341.568 64.4657C341.629 65.2901 341.68 66.1042 341.731 66.9184C341.132 67.1423 340.98 66.7149 340.797 66.4503C338.44 63.1508 336.311 59.6925 334.426 56.1C334.122 55.5097 333.99 54.7871 333.118 54.6243C333.002 54.6487 332.892 54.6972 332.796 54.7665C332.699 54.8359 332.619 54.9247 332.558 55.0272C332.498 55.1297 332.46 55.2436 332.446 55.3618C332.433 55.4799 332.444 55.5996 332.478 55.7132C332.677 56.5928 332.948 57.4541 333.29 58.2881C334.884 62.0109 336.892 65.541 339.276 68.8114C340.138 69.9818 341.213 71.0199 342.319 72.2411C341.587 74.1162 340.633 75.8964 339.479 77.5435C338.638 77.2145 337.882 76.6996 337.267 76.0373C334.388 73.4308 331.818 70.5009 329.607 67.3052C328.901 66.1016 328.007 65.0192 326.96 64.0993C326.665 63.8754 326.341 63.5905 325.894 63.8652C325.986 65.1374 326.807 66.9184 328.715 69.9716C329.937 71.9418 331.351 73.7861 332.935 75.4775C334.489 77.2076 336.231 78.7574 338.129 80.098C338.2 80.3219 338.322 80.4949 338.281 80.6069C337.206 83.426 336.121 86.2349 335.035 89.0744L333.838 89.3288L334.852 90.0412C333.838 94.2851 332.915 98.4985 331.941 102.712L337.703 102.091C338.261 102.03 338.819 101.928 339.377 101.847C341.645 100.799 344.001 99.9547 346.418 99.3229C346.714 99.2128 347.033 99.1738 347.347 99.209C347.661 99.2442 347.963 99.3527 348.228 99.5257C348.493 99.6987 348.714 99.9316 348.874 100.206C349.033 100.48 349.127 100.787 349.147 101.104C349.201 101.699 349.174 102.298 349.066 102.885C348.741 104.656 348.426 106.427 347.99 108.167C347.523 110.142 346.944 112.089 346.255 113.999C345.403 116.238 344.571 118.487 343.699 120.716C345.05 120.977 346.353 121.444 347.564 122.1L347.767 121.713C348.231 121.001 348.803 120.366 349.461 119.83C349.696 119.596 350.001 119.446 350.329 119.403C350.658 119.361 350.991 119.429 351.277 119.596C351.497 119.855 351.632 120.176 351.663 120.515C351.694 120.854 351.619 121.194 351.45 121.489C351.115 122.415 350.739 123.331 350.364 124.247C352.293 126.277 353.481 128.903 353.732 131.697C354.913 131.847 356.103 131.925 357.293 131.931C358.109 131.904 358.927 131.938 359.738 132.033C363.157 132.501 366.606 132.277 370.035 132.48C370.539 132.474 371.041 132.426 371.537 132.338C372.257 126.924 372.957 121.581 375.686 116.706C375.625 113.825 375.534 110.986 375.615 108.157Z" fill="#89C5AC"/>
<path d="M363.694 78.7557C362.104 79.0737 360.453 78.7909 359.058 77.9618C358.45 77.4945 357.987 76.8642 357.721 76.1439C357.455 75.4235 357.398 74.6425 357.556 73.8909C357.73 72.2305 358.313 70.6393 359.251 69.2602C360.388 67.7171 361.611 66.2391 362.913 64.8331C362.913 64.8331 364.78 64.1207 365.348 67.1943C365.693 68.5173 366.311 71.1736 366.443 71.8249C366.587 72.4779 366.675 73.1417 366.707 73.8095C366.816 74.8514 366.579 75.9001 366.035 76.794C365.49 77.6878 364.668 78.3771 363.694 78.7557Z" fill="#2B3D2D"/>
<path d="M333.788 89.2877C332.003 89.1046 330.207 88.9519 328.422 88.7382C326.33 88.458 324.3 87.8285 322.416 86.8757C321.543 86.5058 320.838 85.824 320.437 84.9624C320.269 84.6093 320.193 84.219 320.216 83.8282C320.239 83.4374 320.361 83.0589 320.57 82.7282C320.779 82.3975 321.068 82.1255 321.41 81.9378C321.753 81.75 322.137 81.6526 322.527 81.6548C323.175 81.6405 323.822 81.702 324.455 81.838C324.922 81.9092 325.378 82.0517 325.824 82.1535C326.129 81.4411 325.51 81.2681 325.216 81.0136C322.94 79.0244 320.898 76.7811 319.129 74.3272C318.788 73.9117 318.493 73.4614 318.246 72.9838C318.086 72.673 318.002 72.3288 318 71.9792C317.998 71.6295 318.078 71.2844 318.235 70.9718C318.391 70.6593 318.619 70.3882 318.899 70.1807C319.18 69.9733 319.505 69.8352 319.849 69.7779C320.233 69.6765 320.623 69.5983 321.016 69.5438C321.351 69.1571 321.097 68.8212 321.016 68.5261C320.437 66.7451 319.839 64.9641 319.291 63.1627C319.178 62.7278 319.15 62.2749 319.21 61.8295C319.287 61.3623 319.518 60.9344 319.865 60.6136C320.213 60.2928 320.657 60.0975 321.127 60.0586C321.823 60.0221 322.521 60.0221 323.217 60.0586C322.974 59.4073 322.761 58.8679 322.578 58.3081C322.162 57.0258 321.716 55.7434 321.371 54.4408C321.233 53.8578 321.182 53.2577 321.219 52.6597C321.254 52.032 321.49 51.4325 321.892 50.9503C322.294 50.4681 322.841 50.1289 323.451 49.9831C324.035 49.8088 324.656 49.8073 325.241 49.9788C325.826 50.1503 326.349 50.4875 326.748 50.9499C327.092 51.3628 327.414 51.7943 327.711 52.2425C327.894 52.4562 327.935 52.8226 328.391 52.8124C328.827 52.4664 328.574 52.0186 328.574 51.6216C328.574 50.0543 328.472 48.487 328.442 46.9197C328.428 46.4676 328.476 46.0156 328.584 45.5763C328.719 45.168 328.951 44.7984 329.259 44.499C329.567 44.1995 329.943 43.979 330.354 43.8562C330.765 43.7333 331.2 43.7118 331.621 43.7933C332.042 43.8748 332.438 44.0571 332.774 44.3245C333.257 44.7922 333.705 45.2957 334.113 45.8308C334.63 45.8308 334.539 45.4033 334.559 45.1591C334.671 43.7444 334.772 42.3298 334.833 40.905C334.912 39.5549 335.214 38.2274 335.726 36.9765C335.856 36.6154 336.033 36.2731 336.253 35.9588C336.471 35.669 336.75 35.4315 337.071 35.2635C337.391 35.0955 337.745 35.0013 338.107 34.9876C338.468 34.974 338.828 35.0413 339.16 35.1846C339.492 35.328 339.789 35.5438 340.027 35.8163C340.217 36.0562 340.387 36.3115 340.535 36.5796C340.687 36.8137 340.697 37.1801 341.164 37.1801C341.488 35.5008 341.853 33.8216 342.178 32.0915C342.498 30.7516 343.134 29.5088 344.035 28.4683C344.211 28.224 344.444 28.0268 344.714 27.8941C344.984 27.7614 345.283 27.6972 345.583 27.7073C345.884 27.7173 346.177 27.8012 346.438 27.9517C346.699 28.1021 346.918 28.3145 347.078 28.5701C347.82 29.6313 348.366 30.817 348.691 32.0711C349.035 33.6806 349.219 35.3204 349.239 36.9664C349.239 37.3938 349.127 37.8721 349.675 38.2385C349.995 37.9005 350.334 37.5811 350.69 37.2819C350.938 37.0454 351.233 36.8639 351.556 36.7491C351.879 36.6344 352.222 36.589 352.564 36.6159C352.905 36.6427 353.237 36.7413 353.538 36.9051C353.839 37.0689 354.103 37.2944 354.312 37.5668C355.244 38.584 355.854 39.8554 356.067 41.2205C356.178 42.1059 356.29 43.0015 356.422 43.8869C356.487 44.1204 356.579 44.3458 356.696 44.5586C357.152 44.2533 357.517 43.9785 357.923 43.7444C358.222 43.5385 358.56 43.3968 358.916 43.3283C359.272 43.2597 359.638 43.2658 359.991 43.3461C360.345 43.4264 360.678 43.5791 360.97 43.7948C361.262 44.0105 361.506 44.2844 361.687 44.5993C362.521 45.8683 362.913 47.3782 362.803 48.8941L361.403 49.9119L356.685 52.965L355.245 51.9473C354.859 52.2526 354.342 52.4664 354.23 52.8022C353.918 53.6464 353.661 54.5098 353.459 55.3872C353.055 56.1985 352.54 56.9488 351.927 57.6161C349.289 60.5869 347.06 63.9005 345.303 67.4677C345.199 67.4964 345.103 67.5462 345.02 67.6139C344.936 67.6816 344.868 67.7659 344.818 67.8613C344.769 67.9568 344.739 68.0615 344.732 68.1689C344.725 68.2762 344.739 68.384 344.775 68.4854C344.243 67.8383 343.975 67.0128 344.025 66.1752C343.791 64.2415 343.649 62.3078 343.467 60.313C345.039 58.169 346.373 55.8586 347.443 53.423C348.022 52.0287 348.539 50.6039 349.006 49.1791C349.28 48.3344 349.006 48.0189 347.9 47.5711C347.24 47.7645 347.159 48.314 346.997 48.8025C346.281 50.7293 345.377 52.5804 344.298 54.3288C344.218 54.5296 344.09 54.7077 343.926 54.8477C343.761 54.9878 343.565 55.0857 343.355 55.1328C343.133 53.2139 343.021 51.2839 343.02 49.3521C343.062 47.4329 342.95 45.5134 342.685 43.6121C342.442 43.5205 342.239 43.3882 342.158 43.4289C341.914 43.5918 341.58 43.7851 341.519 44.0192C341.372 44.5462 341.297 45.0904 341.296 45.6374C341.296 50.7973 341.296 55.9572 341.296 61.117C341.296 62.2365 341.478 63.3459 341.569 64.4654C341.63 65.2897 341.681 66.1039 341.732 66.9181C341.133 67.142 340.981 66.7146 340.798 66.4499C338.441 63.1504 336.312 59.6922 334.427 56.0996C334.123 55.5094 333.991 54.7868 333.119 54.6239C333.003 54.6484 332.893 54.6968 332.797 54.7662C332.7 54.8356 332.62 54.9244 332.559 55.0269C332.499 55.1293 332.461 55.2433 332.447 55.3614C332.434 55.4796 332.445 55.5993 332.48 55.7129C332.678 56.5925 332.949 57.4538 333.291 58.2878C334.885 62.0105 336.893 65.5407 339.277 68.8111C340.139 69.9815 341.214 71.0195 342.32 72.2408C341.588 74.1159 340.634 75.8961 339.48 77.5432C338.639 77.2141 337.883 76.6993 337.268 76.0369C334.389 73.4305 331.819 70.5005 329.609 67.3048C328.902 66.1012 328.008 65.0189 326.961 64.099C326.666 63.8751 326.342 63.5901 325.895 63.8649C325.987 65.1371 326.808 66.9181 328.716 69.9713C329.938 71.9415 331.352 73.7858 332.936 75.4772C334.488 77.2097 336.23 78.7598 338.13 80.0977C338.201 80.3216 338.323 80.4946 338.282 80.6065C337.207 83.4256 336.122 86.2346 335.036 89.074L333.788 89.2877Z" fill="#2B3D2D"/>
<path d="M345.557 134.933C346.774 135.024 347.981 135.085 349.168 135.217C350.954 135.421 352.719 135.767 354.504 135.869C358.562 136.113 362.62 136.245 366.739 136.429C367.389 136.429 368.038 136.541 368.687 136.571C372.682 136.849 376.693 136.791 380.678 136.398C382.454 136.184 384.249 136.052 386.035 135.91C388.48 135.706 390.925 135.584 393.36 135.35C396.435 134.978 399.485 134.414 402.49 133.66C403.747 133.453 404.896 132.821 405.747 131.869L404.063 131.309C401.995 131.513 399.914 131.533 397.844 131.37C395.83 131.865 393.755 132.057 391.686 131.94C391.538 131.521 391.433 131.088 391.371 130.648C391.32 129.233 391.29 127.819 391.31 126.394C391.273 123.163 390.65 119.967 389.474 116.959C389.393 116.746 389.302 116.542 389.21 116.339C388.767 115.123 387.919 114.098 386.811 113.436C385.702 112.775 384.4 112.516 383.123 112.705C382.786 112.727 382.447 112.727 382.109 112.705C381.815 112.827 381.541 112.99 381.247 113.082C379.434 113.623 377.785 114.61 376.448 115.952C376.174 116.216 375.87 116.451 375.586 116.705C372.857 121.58 372.157 126.882 371.436 132.337C370.941 132.425 370.438 132.473 369.935 132.48C366.506 132.276 363.057 132.48 359.638 132.032C358.826 131.937 358.009 131.903 357.193 131.93C354.149 131.93 330.471 128.816 327.509 128.256C327.509 128.256 324.354 128.714 328.645 130.902C332.936 133.09 342.513 134.393 345.557 134.933Z" fill="#2B3D2D"/>
<path d="M382.169 112.665C381.875 112.787 381.601 112.95 381.307 113.042C379.494 113.583 377.845 114.57 376.508 115.912C376.234 116.176 375.93 116.41 375.646 116.665C375.646 113.825 375.534 110.986 375.646 108.157C375.788 103.526 375.199 98.9155 375.21 94.2951C375.21 91.3844 375.007 88.4838 374.834 85.5833C374.611 81.6345 374.702 77.6756 374.672 73.7268C374.672 72.6073 374.672 71.4878 374.672 70.3683L375.899 70.4497C375.625 72.5767 375.179 74.6936 375.717 76.7901C376.522 77.9817 377.668 78.9007 379.004 79.4261L381.033 80.1792C381.033 81.0646 381.033 81.889 381.094 82.7031C381.094 83.8226 381.144 84.9421 381.215 86.0616C381.297 87.4661 381.459 88.8808 381.499 90.2954C381.581 92.911 381.439 95.5367 381.702 98.1319C381.996 100.971 381.966 103.801 381.997 106.63C381.997 107.973 381.997 109.317 381.997 110.701C382.027 111.332 382.108 111.993 382.169 112.665Z" fill="#F1EBDF"/>
<path d="M363.694 78.7561C364.424 79.0919 364.424 79.6924 364.323 80.2929C364.11 81.6973 363.856 83.1018 363.623 84.4961C363.542 85.0151 363.42 85.5138 363.379 86.043C363.187 88.6484 363.044 91.264 362.821 93.8592C362.725 95.1271 362.552 96.388 362.304 97.6349C362.032 99.7075 361.877 101.794 361.837 103.884C361.391 109.176 361.401 114.468 361.289 119.771C361.215 121.039 361.014 122.297 360.691 123.526C360.488 124.422 360.092 124.544 358.763 124.544C358.473 124.142 358.244 123.7 358.084 123.231C357.804 121.914 357.635 120.576 357.576 119.231C357.576 108.402 357.505 97.5739 357.576 86.7554C357.748 84.0704 358.087 81.3987 358.591 78.7561C358.591 78.4915 358.895 78.2472 359.058 77.9928C360.456 78.8115 362.107 79.0833 363.694 78.7561Z" fill="#F1EBDF"/>
<path d="M356.645 53.087L361.362 50.0338C361.371 50.3011 361.317 50.5666 361.204 50.8089C361.091 51.0512 360.923 51.2633 360.713 51.4281C358.972 53.1728 357.526 55.1906 356.432 57.4022C354.403 61.2288 352.242 65.0148 350.477 68.9432C348.341 73.4401 346.642 78.1332 345.404 82.9573C344.897 85.064 344.633 87.2216 344.167 89.3384C343.889 90.5091 343.519 91.6559 343.061 92.7682C342.909 93.1346 342.442 93.389 342.046 93.7859C341.439 93.4803 340.943 92.9901 340.63 92.3852C340.316 91.7803 340.202 91.0915 340.301 90.4172C340.403 88.6362 340.514 86.845 340.636 85.064C340.941 80.3112 342.665 75.9044 344.177 71.3756C344.481 70.4698 345.059 69.5844 344.704 68.5666C345.262 68.414 345.323 68.0272 345.232 67.5489C346.989 63.9817 349.218 60.6681 351.857 57.6973C352.469 57.03 352.984 56.2797 353.388 55.4685C354.594 54.8543 355.693 54.0503 356.645 53.087Z" fill="#F1EBDF"/>
<path d="M361.505 65.9213C361.444 66.1862 361.363 66.4308 360.977 66.3798L360.814 65.8907L361.505 65.9213Z" fill="#F1EBDF"/>
<path d="M401.687 9.48811C402.337 8.30755 402.519 6.90308 403.716 5.82429L405.268 5.72252L406.111 6.63847C406.021 8.81403 405.551 10.9568 404.721 12.9687C404.086 13.8618 403.732 14.9253 403.706 16.0219C404.538 15.1919 405.193 14.2018 405.634 13.1112C405.805 12.7319 406.079 12.4091 406.426 12.1803C406.773 11.9515 407.177 11.8261 407.592 11.8187L408.444 12.2767C409.022 13.559 408.17 14.5564 407.987 15.625C407.805 16.6936 407.531 17.6605 407.277 18.7698C408.292 19.2685 409.55 19.5127 409.428 20.8968C409.347 22.861 408.129 24.5098 407.399 26.2806C407.45 26.3468 407.514 26.4015 407.587 26.4414C407.661 26.4812 407.741 26.5053 407.825 26.512C407.908 26.5187 407.991 26.5079 408.07 26.4803C408.149 26.4528 408.221 26.409 408.282 26.3519C408.591 26.0864 408.976 25.925 409.382 25.8903C409.788 25.8556 410.194 25.9494 410.544 26.1585C410.891 26.3984 411.147 26.7499 411.269 27.155C411.39 27.5601 411.371 27.9948 411.213 28.3873C410.969 29.1826 410.628 29.9448 410.199 30.6568C409.377 32.0308 408.444 33.3436 407.561 34.7277C408.038 35.2163 408.84 35.4503 408.931 36.5291C408.342 38.8292 406.75 40.997 405.309 43.3479C405.503 43.5649 405.717 43.7626 405.948 43.9382C406.137 44.0332 406.304 44.166 406.44 44.3282C406.576 44.4904 406.678 44.6788 406.738 44.8817C406.799 45.0847 406.818 45.2979 406.794 45.5084C406.77 45.7189 406.703 45.9222 406.597 46.1059C405.476 48.5973 403.787 50.7899 401.667 52.5074L399.455 50.6959L397.254 48.9352C397.721 48.2432 398.268 47.5613 398.644 46.8387C398.703 46.7539 398.742 46.6566 398.757 46.5544C398.772 46.4521 398.764 46.3477 398.733 46.2492C398.701 46.1507 398.648 46.0608 398.576 45.9865C398.504 45.9123 398.416 45.8556 398.319 45.821C397.277 46.2794 396.366 46.9934 395.671 47.8971L390.193 45.3528C391.634 43.8262 393.013 42.2996 394.515 40.7731C396.119 39.2042 397.517 37.436 398.674 35.5114C399.298 34.7189 399.773 33.8187 400.074 32.8551L399.232 32.2852C398.766 32.8042 398.339 33.2419 397.954 33.71C396.868 35.0229 395.925 36.4172 394.697 37.6385C392.851 39.5314 390.873 41.3226 388.925 43.1342C388.607 43.3555 388.267 43.5431 387.91 43.6939C388.09 41.4108 388.477 39.1488 389.067 36.9362C389.577 36.6603 390.068 36.3509 390.538 36.0101C393.452 33.5797 395.835 30.5724 397.538 27.1762C398.156 25.8822 398.671 24.5414 399.08 23.1664C399.166 22.6441 399.166 22.1112 399.08 21.5889L398.005 21.5075C397.386 22.9628 396.889 24.3978 396.179 25.7209C395.389 27.1298 394.515 28.4893 393.561 29.7918C392.77 31.1785 391.573 32.2872 390.132 32.9671C390.254 32.2074 390.424 31.4562 390.639 30.7179C391.654 27.6647 392.79 24.6115 393.855 21.5584C394.302 20.276 394.728 18.9937 395.093 17.691C395.154 17.1908 395.154 16.685 395.093 16.1848H394.18C393.997 16.5308 393.815 16.8565 393.652 17.2025C392.841 18.8308 392.039 20.4694 391.208 22.0876C391.208 22.1792 390.954 22.2097 390.751 22.2911L389.584 20.9884L388.793 21.1004C388.448 22.1181 388.448 22.1181 389.544 25.8226C388.793 29.0081 388.326 30.321 387.515 31.4405C385.78 29.5475 385.08 27.0744 383.294 25.2527C383.188 25.2788 383.087 25.326 382.999 25.3916C382.911 25.4572 382.837 25.5399 382.781 25.6348C382.725 25.7297 382.689 25.8348 382.674 25.944C382.66 26.0532 382.667 26.1642 382.696 26.2704C382.836 26.9307 383.033 27.5777 383.284 28.2041C384.249 30.6436 385.437 32.9877 386.835 35.2061C386.439 37.2415 386.074 39.1447 385.699 41.058C385.642 41.2761 385.57 41.4903 385.486 41.6992C385.456 41.7722 385.407 41.8356 385.344 41.8824C385.219 41.9198 385.089 41.9403 384.958 41.9434C384.522 41.5465 383.944 41.0987 383.528 40.6C381.708 38.6082 380.128 36.4083 378.821 34.0459C378.494 33.4455 378.128 32.8675 377.725 32.3157C377.611 32.1417 377.441 32.0124 377.243 31.9494C377.046 31.8863 376.832 31.8935 376.639 31.9697C376.112 32.6414 376.579 33.2622 376.863 33.8423C378.464 37.4131 380.568 40.7344 383.112 43.7041C383.405 44.0578 383.673 44.4319 383.913 44.8236C382.899 44.8236 381.813 44.9559 380.768 44.9356C379.686 45.0958 378.582 45.0194 377.532 44.7117C377.035 43.9076 376.518 43.0019 375.929 42.1165C375.733 41.904 375.511 41.7161 375.27 41.5567C375.185 41.8631 375.166 42.1842 375.215 42.4984C375.264 42.8126 375.38 43.1127 375.554 43.3784C375.797 43.9891 376.315 44.5386 376.132 45.2612H376.081C375.235 45.1935 374.384 45.3369 373.606 45.6785H373.373L373.16 45.7803C372.878 45.7249 372.587 45.728 372.306 45.7892C372.025 45.8505 371.76 45.9686 371.526 46.1365H371.344L371.202 46.2382L369.751 46.1772C368.99 43.8975 368.199 41.6178 367.478 39.3279C367.154 38.413 367.098 37.4242 367.316 36.4782C367.793 35.5216 368.635 35.4605 369.589 35.5725L370.076 35.7964V35.2264C369.771 32.9366 369.477 30.6467 369.193 28.5094C370.339 27.0439 370.339 27.0439 372.896 27.3085C373.088 26.065 373.203 24.8108 373.241 23.5531C373.271 22.657 373.352 21.7633 373.484 20.8765C373.809 19.2379 375.148 18.7087 376.761 19.5331C377.071 19.7211 377.37 19.9284 377.654 20.1539C377.85 19.8239 378.029 19.4842 378.192 19.1362L379.916 14.7091C380.048 14.3528 380.2 14.0068 380.342 13.6913C380.451 13.3107 380.669 12.9702 380.968 12.7117C381.267 12.4532 381.635 12.2879 382.026 12.236C382.407 12.1986 382.791 12.2753 383.129 12.4565C383.466 12.6376 383.743 12.915 383.923 13.2537C383.923 13.5081 384.025 13.8745 384.076 14.2714C384.126 14.6683 384.076 14.7701 384.177 15.2892C385.628 13.04 385.668 10.343 388.326 8.96907C388.737 9.18984 389.111 9.475 389.432 9.81378C389.722 10.3919 389.959 10.9947 390.142 11.6152C390.426 11.1979 390.71 10.8519 390.913 10.4753C391.705 9.00978 392.476 7.5239 393.267 6.04819C393.693 5.27472 393.703 5.27472 395.174 4.69461L396.868 5.38667C396.99 5.31543 397.163 5.26454 397.213 5.15259C397.731 4.06362 398.228 2.9543 398.735 1.85515C398.989 1.31576 399.283 0.837427 399.476 0.409981C399.756 0.17604 400.101 0.0347964 400.464 0.00564095C400.828 -0.0235145 401.191 0.0608471 401.505 0.247145C401.729 0.394514 401.911 0.59757 402.034 0.836553C402.156 1.07554 402.215 1.3423 402.205 1.6109C402.267 3.4183 402.047 5.22435 401.555 6.96415C401.342 7.75797 401.079 8.54162 400.835 9.33545C400.588 9.65777 400.423 10.0356 400.354 10.4364C400.285 10.8372 400.314 11.2487 400.439 11.6355C401.078 11.076 401.517 10.3216 401.687 9.48811Z" fill="#2B3D2D"/>
<path d="M383.953 44.7812C383.713 44.3895 383.445 44.0154 383.152 43.6617C380.608 40.692 378.504 37.3707 376.903 33.7999C376.619 33.2198 376.152 32.599 376.679 31.9273C376.872 31.8511 377.086 31.8439 377.283 31.907C377.481 31.97 377.651 32.0994 377.765 32.2733C378.168 32.8251 378.534 33.4031 378.861 34.0035C380.169 36.3624 381.749 38.5588 383.568 40.5475C384.024 41.0462 384.582 41.494 384.998 41.8909C385.129 41.8878 385.259 41.8672 385.384 41.8298C385.447 41.7831 385.496 41.7197 385.526 41.6466C385.61 41.4377 385.682 41.2235 385.739 41.0054C386.114 39.0921 386.479 37.189 386.875 35.1535C385.477 32.9351 384.289 30.591 383.324 28.1515C383.073 27.5251 382.876 26.8782 382.736 26.2179C382.707 26.1116 382.7 26.0006 382.714 25.8914C382.729 25.7822 382.765 25.6771 382.821 25.5822C382.877 25.4874 382.951 25.4047 383.039 25.339C383.127 25.2734 383.228 25.2262 383.335 25.2001C385.12 27.0219 385.82 29.4949 387.555 31.3879C388.356 30.2684 388.823 28.9556 389.584 25.7701C388.488 22.0554 388.488 22.0554 388.833 21.0478L389.624 20.9359L390.842 22.1877C391.045 22.1062 391.258 22.0757 391.298 21.9841C392.13 20.3659 392.932 18.7274 393.743 17.099C393.906 16.7632 394.088 16.4375 394.271 16.0813H395.184C395.245 16.5815 395.245 17.0873 395.184 17.5875C394.819 18.8902 394.393 20.1726 393.946 21.4549C392.881 24.5081 391.775 27.5613 390.73 30.6144C390.514 31.3528 390.345 32.104 390.223 32.8636C391.649 32.2036 392.841 31.1246 393.642 29.7697C394.596 28.4672 395.47 27.1078 396.259 25.6988C396.969 24.3758 397.466 22.9408 398.085 21.4854C398.183 21.2056 398.379 20.9712 398.637 20.8268C398.895 20.6824 399.197 20.6379 399.485 20.7018C399.469 21.525 399.364 22.344 399.171 23.1443C398.762 24.5194 398.247 25.8601 397.629 27.1542C395.926 30.5504 393.543 33.5577 390.629 35.9881C390.159 36.3288 389.668 36.6382 389.158 36.9142C388.568 39.1268 388.181 41.3887 388.001 43.6719C388.358 43.521 388.698 43.3335 389.016 43.1121C390.964 41.3006 392.942 39.5094 394.788 37.6164C395.985 36.3951 396.959 35.0009 398.045 33.688C398.43 33.2198 398.856 32.7822 399.323 32.2632L400.165 32.8331C399.85 33.8075 399.358 34.715 398.714 35.5097C397.557 37.4343 396.159 39.2026 394.555 40.7714C393.053 42.2471 391.674 43.8246 390.233 45.3511L388.062 45.1985L387.535 45.0051L384.927 44.9339L383.953 44.7812Z" fill="#89C5AC"/>
<path d="M412.48 64.7823L415.767 64.0495V60.5078C415.741 59.9101 415.762 59.3112 415.828 58.7166C415.964 57.934 416.372 57.2249 416.979 56.7147C417.586 56.2044 418.353 55.9258 419.145 55.9281C419.94 55.8379 420.741 56.0242 421.415 56.4559C422.089 56.8875 422.595 57.5383 422.848 58.2994C423.044 59.0194 423.2 59.7499 423.315 60.4875C423.375 60.7826 423.446 61.0676 423.507 61.3322C424.004 61.4543 424.126 61.1795 424.146 60.8946C424.349 58.5029 424.532 56.1214 424.735 53.7705C424.753 53.2449 424.828 52.7228 424.958 52.2133C425.214 51.4988 425.69 50.8847 426.318 50.4601C426.945 50.0355 427.692 49.8226 428.448 49.8522C429.201 49.8744 429.925 50.1431 430.511 50.6172C431.098 51.0913 431.513 51.7448 431.694 52.478C431.897 53.4244 432.009 54.3913 432.161 55.3785C432.79 55.2665 432.688 54.8391 432.78 54.5541C433.095 53.6326 433.332 52.6862 433.49 51.7248C433.723 49.6894 434.819 47.888 435.519 45.995C435.669 45.6406 435.882 45.3165 436.148 45.0384C436.417 44.7412 436.749 44.5096 437.121 44.3616C437.493 44.2136 437.893 44.153 438.292 44.1844C438.691 44.2159 439.077 44.3385 439.421 44.543C439.765 44.7475 440.058 45.0284 440.277 45.364C440.405 45.5552 440.504 45.7644 440.571 45.9848C441.089 47.9287 441.789 49.8522 441.586 51.9182C441.362 54.2284 441.21 56.5387 441.028 58.8489C441.606 58.9812 441.636 58.5131 441.839 58.2586C442.042 58.0042 442.326 57.475 442.641 57.1493C443.194 56.6068 443.883 56.2255 444.636 56.0462C445.388 55.8669 446.175 55.8964 446.912 56.1316C447.614 56.3567 448.228 56.7988 448.665 57.3946C449.102 57.9904 449.341 58.7095 449.347 59.4494C449.31 60.0476 449.187 60.6372 448.981 61.1999C448.555 62.4008 448.058 63.5915 447.612 64.7925C447.429 65.2708 447.125 65.7389 447.389 66.2885C448.028 66.5328 448.403 66.0239 448.91 65.8509C451.649 64.8942 454.145 66.4412 454.054 69.1382C454.046 70.5022 453.698 71.8425 453.039 73.0361C452.207 74.4914 451.406 75.9569 450.584 77.4225L449.681 77.6464H448.555L448.231 79.3969C447.829 79.851 447.333 80.2113 446.777 80.4522C446.221 80.6931 445.62 80.8088 445.015 80.7911L443.351 80.3433C442.073 79.7429 441.991 78.6437 441.931 77.5344C441.849 77.4225 441.789 77.2291 441.687 77.2087C440.765 76.9746 439.791 77.0644 438.928 77.4632H438.146C438.593 76.8322 439.019 76.2012 439.496 75.6007C440.533 74.2785 441.358 72.8019 441.941 71.2245C442.144 70.6749 442.347 70.0643 441.707 69.5758C440.855 69.4333 440.561 70.0338 440.216 70.5121C438.726 72.5143 437.025 74.35 435.144 75.9875C434.868 76.1601 434.576 76.3033 434.271 76.4149C434.667 73.4839 435.012 70.7462 435.407 68.0085C435.779 66.1907 435.591 64.3026 434.87 62.5942C434.616 62.8791 434.342 63.0725 434.271 63.3168C433.906 64.538 433.531 65.7695 433.257 67.0111C432.962 68.4054 432.8 69.82 432.577 71.2245C432.526 71.5095 432.516 71.825 431.968 71.9471C431.664 71.7232 431.268 71.4891 430.954 71.1838C429.848 70.1661 428.762 69.1483 427.657 68.1306C427.529 67.9749 427.361 67.8568 427.172 67.7887C426.983 67.7207 426.779 67.7052 426.581 67.7439C426.216 68.5479 426.186 68.6395 426.317 68.9346C426.797 70.0708 427.485 71.1065 428.346 71.9878C429.452 73.0768 430.578 74.1454 431.735 75.2649C431.724 76.814 431.46 78.3508 430.954 79.8141L427.413 82.3076C426.568 82.8808 425.873 83.6485 425.384 84.5466C424.37 86.4294 423.304 88.2816 422.432 90.2051C420.64 94.0469 419.154 98.0251 417.988 102.102C417.055 105.583 415.959 109.053 415.29 112.565C414.803 114.926 413.981 117.185 413.423 119.516C413.342 119.872 413.068 119.974 412.703 119.872C412.404 117.507 412.404 115.113 412.703 112.748C412.999 111.069 413.091 109.36 412.977 107.659C413.149 106.641 413.312 105.624 413.484 104.525C414.245 101.471 415.016 98.3469 415.777 95.2531C417.207 91.9251 418.628 88.5971 420.119 85.0758C420.119 84.9129 420.028 84.5466 419.926 84.1903C419.074 81.4628 418.313 78.715 417.329 76.0485C416.051 72.517 414.925 68.9244 412.743 65.7084C412.606 65.4161 412.517 65.1033 412.48 64.7823Z" fill="#2B3D2D"/>
<path d="M394.404 78.3769C394.404 79.4863 394.404 80.6058 394.465 81.7151C394.566 83.1196 394.759 84.524 394.922 85.9285C395.175 88.2285 395.48 90.5184 395.693 92.8083C396.118 95.7583 396.352 98.733 396.393 101.713C396.341 103.071 396.369 104.43 396.474 105.784C396.687 108.603 397.042 111.412 397.224 114.231C397.468 117.804 397.62 121.356 397.752 124.948C397.823 127.106 397.752 129.263 397.823 131.421C395.81 131.915 393.734 132.108 391.665 131.991C391.517 131.572 391.412 131.139 391.351 130.698C391.3 129.284 391.269 127.869 391.29 126.444C391.252 123.214 390.63 120.017 389.453 117.01C389.372 116.796 389.281 116.593 389.19 116.389C388.746 115.174 387.899 114.149 386.79 113.487C385.681 112.825 384.379 112.567 383.103 112.756C382.765 112.778 382.426 112.778 382.088 112.756C382.027 112.084 381.946 111.423 381.926 110.72C381.926 109.377 381.926 108.034 381.926 106.649C381.926 103.82 381.926 100.991 381.632 98.1514C381.368 95.5562 381.51 92.9305 381.429 90.3149C381.429 88.9003 381.226 87.4856 381.145 86.0811C381.074 84.9616 381.053 83.8421 381.023 82.7226C381.023 81.9085 381.023 81.0841 380.962 80.1987L378.933 79.4456H381.804C382.488 79.1983 383.085 78.7568 383.523 78.1749C383.96 77.593 384.22 76.8958 384.269 76.1685C384.445 75.0695 384.387 73.9455 384.097 72.871C383.437 70.571 382.839 68.2607 382.2 65.9607C382.085 65.5938 381.949 65.2336 381.794 64.8819L380.546 64.2305C380.432 64.2057 380.329 64.1451 380.252 64.0575C380.419 63.7384 380.535 63.395 380.597 63.0398C380.597 61.1977 380.465 59.3556 380.374 57.5034C380.374 56.9945 380.171 56.4856 380.191 55.9666C380.232 52.6931 379.646 49.4421 378.466 46.3898C378.428 46.2467 378.404 46.1001 378.395 45.9521H379.978L382.098 46.1557L382.494 46.461L383.204 47.0716C387.262 50.6133 389.23 55.1422 390.377 60.0477C390.803 61.8694 391.391 63.6504 391.919 65.462C391.919 65.9912 391.919 66.4797 391.919 67.07" fill="#89C5AC"/>
<path d="M412.97 107.607C413.084 109.308 412.992 111.017 412.696 112.696C412.398 115.061 412.398 117.455 412.696 119.82C413.061 119.922 413.335 119.82 413.416 119.464C413.974 117.133 414.796 114.874 415.283 112.513C415.993 109.001 417.048 105.531 417.982 102.05C419.166 97.989 420.669 94.0279 422.476 90.204C423.348 88.2805 424.434 86.4283 425.428 84.5455C425.917 83.6474 426.612 82.8797 427.457 82.3065L430.998 79.813C431.504 78.3497 431.768 76.8129 431.779 75.2638C430.622 74.1443 429.496 73.0757 428.39 71.9867C427.529 71.1054 426.841 70.0697 426.361 68.9335C426.23 68.6384 426.26 68.5468 426.625 67.7428C426.823 67.7041 427.027 67.7196 427.216 67.7876C427.405 67.8557 427.573 67.9738 427.701 68.1295C428.806 69.1472 429.892 70.165 430.998 71.1827C431.343 71.488 431.738 71.7221 432.012 71.946C432.56 71.8239 432.57 71.5084 432.621 71.2234C432.844 69.819 433.006 68.4043 433.301 67.01C433.554 65.7684 433.93 64.5369 434.315 63.3157C434.386 63.0714 434.66 62.878 434.914 62.5931C435.635 64.3016 435.823 66.1897 435.451 68.0074C435.056 70.7451 434.711 73.4828 434.315 76.4138C434.62 76.3022 434.912 76.159 435.188 75.9864C437.069 74.3489 438.77 72.5133 440.26 70.511C440.605 70.0327 440.899 69.4322 441.751 69.5747C442.391 70.0632 442.188 70.6738 441.985 71.2234C441.402 72.8009 440.577 74.2774 439.54 75.5996C439.063 76.2001 438.637 76.8311 438.191 77.4621L435.401 78.3068C434.334 78.6171 433.393 79.2584 432.712 80.1387C431.278 81.9349 429.986 83.8404 428.847 85.838C427.204 88.769 425.803 91.7815 424.393 94.8042C422.29 99.1429 420.746 103.732 419.798 108.462C419.422 110.498 418.925 112.411 418.519 114.385C418.266 115.627 418.063 116.879 417.87 118.13C417.606 119.83 417.353 121.53 417.13 123.219C416.703 126.547 415.892 129.834 415.902 133.213C415.873 133.66 415.819 134.105 415.74 134.546C415.053 134.468 414.374 134.332 413.711 134.139C413.201 133.926 412.644 133.848 412.096 133.912C411.547 133.976 411.023 134.18 410.576 134.506C410.281 133.98 410.163 133.373 410.241 132.776C410.241 132.124 410.16 131.473 410.119 130.74C408.456 130.74 407.177 131.483 405.787 131.829L404.103 131.269C404.132 129.485 404.054 127.701 403.87 125.926C403.566 122.212 403.464 118.477 403.312 114.731C403.221 112.421 403.373 110.09 403.099 107.801C402.825 105.511 402.815 103.038 402.764 100.676C402.764 99.2618 402.764 97.837 402.622 96.4325C402.247 92.6466 401.77 88.8708 401.364 85.095C400.958 81.3193 400.664 77.6656 400.218 73.9713C400.225 72.6982 399.918 71.4431 399.325 70.3176C399.48 68.9226 399.241 67.5121 398.635 66.2467C398.534 65.8193 398.473 65.3918 398.341 64.9746C398.209 64.5573 397.945 62.8373 397.753 62.0435C397.398 60.5067 396.951 58.9903 396.576 57.4739C396.479 56.9831 396.411 56.4869 396.373 55.988C396.89 55.8354 397.103 55.988 397.235 56.3137C398.331 58.5629 399.457 60.7917 400.482 63.0714C402.596 68.136 404.323 73.3552 405.645 78.6834C407.039 83.6634 408.391 88.6503 409.703 93.644C410.556 96.9007 411.306 100.188 412.108 103.455C412.219 103.8 412.348 104.14 412.493 104.473C412.564 105.541 412.382 106.63 412.97 107.607Z" fill="#89C5AC"/>
<path d="M449.733 77.6248L450.636 77.4009C453.108 79.1453 454.9 81.6953 455.709 84.6166C457.934 90.8425 459.7 97.2238 460.994 103.709C461.74 107.599 462.158 111.545 462.242 115.505C462.293 118.629 462.719 121.743 462.983 124.868C462.983 125.163 463.054 125.468 463.064 125.763L463.52 137.62C459.714 137.201 455.883 137.062 452.056 137.203C451.656 137.169 451.259 137.101 450.87 136.999L453.477 136.653C453.797 135.864 453.896 135.001 453.761 134.16C453.761 123.636 453.893 113.113 453.375 102.61C453.257 97.7639 452.895 92.9269 452.29 88.1175C451.695 84.5618 450.841 81.0547 449.733 77.6248Z" fill="#89C5AC"/>
<path d="M450.881 137.009C451.271 137.103 451.668 137.168 452.068 137.202C455.894 137.061 459.726 137.201 463.532 137.619C464.181 137.68 464.84 137.701 465.479 137.823C465.743 137.823 465.966 138.138 466.342 138.393C465.987 138.729 465.774 139.085 465.449 139.197C464.616 139.514 463.752 139.746 462.872 139.889C461.006 140.123 459.139 140.337 457.262 140.418C451.784 140.673 446.305 140.896 440.817 140.774C439.427 140.774 438.048 140.571 436.668 140.469C435.846 140.408 435.034 140.347 434.213 140.316L423.418 139.95C423.257 139.971 423.093 139.971 422.932 139.95C419.634 139.105 416.145 138.932 412.949 137.721C412.198 137.446 411.478 137.08 410.92 136.856C410.62 136.566 410.417 136.191 410.337 135.782C410.257 135.372 410.305 134.948 410.474 134.566C410.921 134.241 411.444 134.036 411.993 133.972C412.542 133.908 413.098 133.986 413.608 134.2C414.272 134.392 414.951 134.528 415.637 134.607C417.505 135.062 419.41 135.344 421.329 135.452C422.658 136.06 424.139 136.255 425.579 136.011C425.944 135.154 426.151 134.236 426.188 133.304C426.439 131.29 427.007 129.328 427.872 127.493C428.273 126.482 428.975 125.619 429.883 125.023C430.791 124.428 431.86 124.128 432.945 124.165C433.188 124.165 433.421 124.094 433.665 124.063C434.498 124.256 435.28 124.629 435.954 125.157C436.629 125.684 437.18 126.353 437.571 127.116C437.865 127.636 438.179 128.134 438.484 128.663C439.167 130.783 439.642 132.965 439.904 135.177C439.849 135.756 440.024 136.334 440.391 136.785C442.847 136.943 445.31 136.943 447.766 136.785L450.881 137.009Z" fill="#2B3D2D"/>
<path d="M462.203 85.4424C462.569 85.534 462.843 85.534 462.964 85.6562C463.464 86.134 463.901 86.6744 464.263 87.2642C465.714 90.0324 467.164 92.8006 468.473 95.6197C470.057 99.2837 471.227 103.114 471.963 107.039C473.038 112.025 473.992 117.033 475.006 122.03C475.554 124.747 476.153 127.464 476.67 130.172C477.015 132.25 477.09 134.364 476.893 136.461C474.542 137.044 472.146 137.425 469.731 137.601C469.615 137.064 469.531 136.52 469.477 135.973C469.325 132.614 469.264 129.256 469.061 125.897C468.889 123.139 468.564 120.391 468.321 117.633C468.25 116.89 468.189 116.137 468.189 115.394C467.991 107.434 466.624 99.5464 464.131 91.9864C463.553 90.124 462.954 88.2514 462.376 86.3889C462.3 86.0771 462.242 85.7611 462.203 85.4424Z" fill="#89C5AC"/>
<path d="M412.482 64.7811C412.523 65.0772 412.609 65.3655 412.736 65.636C414.917 68.8418 416.043 72.4446 417.321 75.9761C418.336 78.6629 419.066 81.4108 419.918 84.1179C420.02 84.4741 420.081 84.8405 420.111 85.0033C418.62 88.5247 417.199 91.8527 415.769 95.1806C415.018 91.7509 414.278 88.311 413.507 84.8914C412.198 79.1209 410.91 73.3504 409.083 67.6918C407.926 64.178 406.54 60.7442 404.934 57.4128C404.47 56.7202 404.2 55.9153 404.153 55.0822C404.676 55.5256 405.171 56.0015 405.634 56.507C407.217 58.4508 408.738 60.4456 410.321 62.3996C411.001 63.2342 411.762 63.9567 412.482 64.7811Z" fill="#89C5AC"/>
<path d="M455.456 70.6649C456.217 69.8405 456.836 69.81 457.607 70.4715C458.195 72.2016 458.855 74.0336 459.423 75.8858C459.615 76.5249 459.677 77.1965 459.605 77.8602C459.527 78.4845 459.229 79.0604 458.767 79.4853C458.304 79.9103 457.706 80.1567 457.079 80.1806C456.372 80.2 455.679 79.9795 455.112 79.5548C454.545 79.13 454.137 78.5258 453.955 77.8399C453.898 77.2464 453.942 76.6474 454.087 76.069C454.513 74.1964 455.03 72.3238 455.456 70.6649Z" fill="#2B3D2D"/>
<path d="M395.672 47.8963C396.35 46.9705 397.251 46.2317 398.29 45.7489C398.387 45.7835 398.475 45.8402 398.546 45.9145C398.618 45.9887 398.672 46.0786 398.703 46.1771C398.735 46.2756 398.743 46.3801 398.728 46.4823C398.712 46.5846 398.673 46.6819 398.614 46.7666C398.188 47.4892 397.691 48.1711 397.225 48.8632L395.672 47.8963Z" fill="#89C5AC"/>
<path d="M412.968 107.607C412.38 106.59 412.562 105.572 412.451 104.554H413.465C413.303 105.521 413.141 106.569 412.968 107.607Z" fill="#F1EBDF"/>
<path d="M396.007 54.797C395.601 54.7461 395.449 54.5219 395.571 54.1857C395.625 54.1397 395.688 54.1059 395.756 54.0866C395.825 54.0673 395.896 54.0628 395.967 54.0736C396.271 54.2264 396.332 54.4811 396.007 54.797Z" fill="#F1EBDF"/>
<path d="M392.709 65.4313C392.689 65.7404 392.606 66.0421 392.467 66.3184C392.327 66.5947 392.134 66.8399 391.897 67.0393C391.897 66.4999 391.897 65.9606 391.897 65.4313H392.709Z" fill="#F1EBDF"/>
<path d="M404.153 55.1031C403.93 55.0114 403.717 54.9401 403.503 54.8382C403.489 54.8061 403.482 54.7714 403.482 54.7363C403.482 54.7013 403.489 54.6666 403.503 54.6344C403.625 54.5733 403.869 54.4816 403.889 54.5122C404.003 54.7027 404.105 54.9 404.194 55.1031H404.153Z" fill="#F1EBDF"/>
<path d="M379.978 45.9222H378.395C378.913 45.4744 379.44 45.6882 379.978 45.9222Z" fill="#F1EBDF"/>
<path d="M371.568 46.0756C371.802 45.9077 372.067 45.7896 372.348 45.7283C372.629 45.6671 372.919 45.664 373.201 45.7194C372.974 45.8992 372.709 46.0248 372.426 46.0865C372.143 46.1482 371.849 46.1445 371.568 46.0756Z" fill="#F1EBDF"/>
<path d="M369.792 46.0864L371.242 46.1474C370.471 46.6563 370.471 46.6563 369.792 46.0864Z" fill="#F1EBDF"/>
<path d="M380.546 64.2615L379.623 64.4345C379.836 64.3225 380.049 64.2106 380.252 64.0884C380.329 64.176 380.432 64.2367 380.546 64.2615Z" fill="#F1EBDF"/>
<path d="M382.485 46.431L382.088 46.1253L382.485 46.431Z" fill="#F1EBDF"/>
<path d="M387.558 45.0068L388.087 45.2004L387.558 45.0068Z" fill="#F1EBDF"/>
<path d="M356.643 53.0889C355.694 54.0667 354.594 54.8846 353.386 55.5111C353.588 54.6337 353.845 53.7702 354.157 52.9261C354.299 52.5902 354.817 52.3765 355.172 52.0712L356.643 53.0889Z" fill="#89C5AC"/>
<path d="M345.231 67.5906C345.322 68.0384 345.231 68.4251 344.702 68.6083C344.666 68.5069 344.652 68.3991 344.659 68.2918C344.666 68.1844 344.696 68.0797 344.745 67.9843C344.795 67.8888 344.864 67.8045 344.947 67.7368C345.031 67.6691 345.127 67.6193 345.231 67.5906Z" fill="#89C5AC"/>
<path d="M394.403 78.3778C394.971 78.3778 395.549 78.3778 396.117 78.3778C396.71 78.4076 397.295 78.2331 397.775 77.8831C398.255 77.5332 398.601 77.0289 398.755 76.4543C399.092 75.1496 399.189 73.7941 399.039 72.4546L398.826 70.6838L399.191 70.3683H399.262C399.856 71.4938 400.162 72.7488 400.155 74.0219C400.602 77.7163 400.906 81.431 401.302 85.1457C401.697 88.8604 402.184 92.6972 402.56 96.4832C402.702 97.8876 402.671 99.3124 402.702 100.727C402.752 103.109 402.752 105.49 403.036 107.851C403.32 110.212 403.158 112.472 403.249 114.782C403.402 118.507 403.503 122.242 403.807 125.977C403.991 127.752 404.069 129.536 404.041 131.32C401.974 131.523 399.893 131.544 397.822 131.381C397.822 129.223 397.822 127.066 397.751 124.908C397.619 121.336 397.467 117.784 397.223 114.192C397.041 111.373 396.686 108.564 396.473 105.744C396.367 104.39 396.34 103.031 396.391 101.674C396.351 98.6931 396.117 95.7185 395.691 92.7685C395.478 90.4786 395.174 88.1887 394.92 85.8886C394.758 84.4842 394.565 83.0797 394.464 81.6752C394.393 80.6066 394.423 79.4871 394.403 78.3778Z" fill="#F1EBDF"/>
<path d="M421.399 135.422C419.48 135.315 417.575 135.032 415.708 134.577C415.787 134.136 415.841 133.691 415.87 133.244C415.87 129.865 416.672 126.578 417.098 123.25C417.321 121.55 417.575 119.851 417.838 118.161C418.031 116.909 418.234 115.658 418.488 114.416C418.893 112.442 419.391 110.477 419.766 108.493C420.714 103.763 422.258 99.1736 424.362 94.8349C425.772 91.7817 427.172 88.7997 428.815 85.8687C429.954 83.8711 431.246 81.9656 432.68 80.1694C433.361 79.2892 434.302 78.6478 435.369 78.3375L438.159 77.4928H438.94L441.983 77.564C442.044 78.6734 442.125 79.7725 443.404 80.373C443.353 80.8106 443.333 81.2584 443.241 81.6858C443.008 82.785 442.694 83.8739 442.501 84.9731C441.943 88.2196 441.375 91.4662 440.898 94.7127C440.421 97.9593 439.883 101.226 439.701 104.503C439.376 109.49 439.275 114.497 439.102 119.505C439.041 121.54 439.041 123.687 439.031 125.774C439.056 126.752 438.895 127.726 438.554 128.644C438.25 128.125 437.936 127.626 437.641 127.097C437.251 126.333 436.699 125.665 436.025 125.137C435.35 124.61 434.569 124.237 433.735 124.044C433.847 123.026 434.03 122.008 434.06 120.929C434.182 116.614 434.324 112.299 434.537 107.974C434.73 104.106 434.77 100.219 435.267 96.3818C435.805 92.1684 436.079 87.9245 437.012 83.7518C437.034 83.4379 437.01 83.1226 436.941 82.8155C436.607 83.0699 436.373 83.1717 436.262 83.3447C435.551 84.3625 434.791 85.3191 434.182 86.3979C432.751 88.9015 431.138 91.3237 430.276 94.0716L429.089 94.6619C428.531 95.8424 428.075 96.9314 427.517 98.0102C426.252 100.388 425.686 103.077 425.883 105.765C425.266 106.705 424.915 107.796 424.869 108.92C424.443 111.037 424.027 113.154 423.641 115.281C423.367 116.818 423.124 118.334 422.921 119.912C422.606 122.354 422.302 124.787 422.079 127.229C421.785 129.936 421.196 132.654 421.399 135.422Z" fill="#F1EBDF"/>
<path d="M438.513 128.614C438.853 127.696 439.015 126.722 438.99 125.744C438.99 123.708 438.99 121.561 439.061 119.475C439.233 114.467 439.335 109.46 439.659 104.473C439.872 101.196 440.39 97.9394 440.856 94.6827C441.323 91.426 441.871 88.1896 442.459 84.943C442.652 83.8439 442.967 82.7549 443.2 81.6558C443.291 81.2283 443.312 80.7805 443.362 80.3429L445.067 80.7703C445.049 81.2881 445.083 81.8063 445.168 82.3173C446.659 88.0064 446.974 93.8176 447.309 99.6187C447.613 104.829 447.552 110.05 447.745 115.271C447.998 122.395 447.806 129.601 447.796 136.756C445.34 136.913 442.876 136.913 440.42 136.756C440.053 136.305 439.878 135.727 439.933 135.148C439.673 132.928 439.197 130.74 438.513 128.614Z" fill="#89C5AC"/>
<path d="M447.796 136.757C447.796 129.633 447.999 122.427 447.745 115.273C447.552 110.052 447.613 104.831 447.309 99.6201C446.974 93.8191 446.659 88.0078 445.168 82.3187C445.084 81.8077 445.05 81.2895 445.067 80.7718C445.672 80.7894 446.273 80.6737 446.829 80.4328C447.385 80.1919 447.881 79.8317 448.283 79.3775L448.607 77.627H449.733C450.844 81.05 451.701 84.5503 452.3 88.0994C452.907 92.9223 453.269 97.7729 453.386 102.633C453.903 113.156 453.731 123.679 453.771 134.182C453.906 135.024 453.808 135.886 453.487 136.676L450.88 137.032L447.796 136.757Z" fill="#F1EBDF"/>
<path d="M441.944 77.5343L438.9 77.4631C439.764 77.0644 440.738 76.9746 441.66 77.2087C441.802 77.1883 441.863 77.4224 441.944 77.5343Z" fill="#89C5AC"/>
<path d="M398.796 70.4694C398.401 69.0955 398.005 67.7114 397.62 66.3374L398.573 66.2458C399.179 67.5112 399.418 68.9218 399.263 70.3168H399.192C399.075 70.4003 398.939 70.4528 398.796 70.4694Z" fill="#F1EBDF"/>
<path d="M398.572 66.2453L397.619 66.3369C397.381 66.0621 397.218 65.7304 397.145 65.3739C397.072 65.0173 397.092 64.648 397.203 64.3014C397.43 64.2456 397.67 64.2816 397.871 64.4015C398.072 64.5214 398.218 64.7157 398.278 64.9426C398.41 65.3904 398.471 65.8178 398.572 66.2453Z" fill="#F1EBDF"/>
<path d="M397.162 64.2924C399.13 69.1368 402.853 80.403 393.794 78.0113C388.336 76.8613 391.917 58.8679 397.162 64.2924Z" fill="#2B3D2D"/>
<path d="M382.149 65.0565C384.553 69.626 388.287 82.3578 378.527 79.844C372.643 78.5922 376.498 59.2554 382.149 65.0565Z" fill="#2B3D2D"/>
<path d="M430.236 94.0409C431.078 91.2931 432.711 88.8709 434.142 86.3672C434.75 85.3495 435.511 84.3318 436.221 83.3141C436.333 83.1411 436.566 83.0393 436.901 82.7849C436.97 83.0919 436.993 83.4073 436.972 83.7212C436.039 87.8938 435.765 92.1378 435.227 96.3512C434.73 100.188 434.69 104.076 434.497 107.943C434.284 112.268 434.142 116.584 434.02 120.899C434.02 121.916 433.807 122.934 433.695 124.013C433.452 124.013 433.219 124.105 432.975 124.115C431.891 124.078 430.822 124.377 429.914 124.973C429.006 125.569 428.303 126.431 427.903 127.443C427.038 129.278 426.469 131.24 426.218 133.254C426.181 134.186 425.975 135.103 425.61 135.961C424.169 136.205 422.688 136.01 421.359 135.401C421.156 132.633 421.745 129.916 421.998 127.178C422.221 124.736 422.526 122.303 422.84 119.861C423.043 118.314 423.287 116.807 423.56 115.23C423.946 113.103 424.362 110.986 424.788 108.869C424.834 107.745 425.185 106.654 425.803 105.714C426.158 106.03 426.503 106.345 426.817 106.64C427.568 107.184 428.441 107.536 429.358 107.665C430.275 107.795 431.211 107.698 432.082 107.383C432.564 107.219 432.994 106.928 433.328 106.542C433.661 106.156 433.886 105.687 433.979 105.185C434.236 103.86 434.198 102.494 433.868 101.185C433.523 100.035 433.229 98.8751 432.853 97.7353C432.6 96.9414 432.265 96.1782 431.94 95.4149C431.792 95.0621 431.558 94.7519 431.261 94.512C430.963 94.2722 430.611 94.1103 430.236 94.0409Z" fill="#89C5AC"/>
<path d="M398.798 70.4701C398.933 70.4815 399.07 70.4606 399.195 70.4089L398.828 70.7248C398.803 70.7161 398.781 70.7004 398.764 70.6795C398.747 70.6587 398.737 70.6336 398.733 70.607C398.73 70.5804 398.734 70.5535 398.746 70.5293C398.757 70.5051 398.775 70.4846 398.798 70.4701Z" fill="#89C5AC"/>
<path d="M430.234 94.0406C430.626 94.0992 430.997 94.2583 431.309 94.5026C431.622 94.7468 431.867 95.068 432.02 95.4349C432.344 96.1982 432.679 96.9615 432.933 97.7553C433.308 98.8951 433.602 100.055 433.947 101.205C434.278 102.514 434.316 103.88 434.059 105.205C433.965 105.707 433.741 106.176 433.407 106.562C433.074 106.948 432.644 107.239 432.162 107.403C431.29 107.718 430.355 107.815 429.438 107.685C428.52 107.556 427.648 107.204 426.897 106.66C426.542 106.365 426.197 106.05 425.882 105.734C425.684 103.046 426.251 100.357 427.515 97.9792C428.043 96.9004 428.53 95.8114 429.088 94.6309L430.234 94.0406Z" fill="#2B3D2D"/>
</svg>
