<svg width="60" height="72" viewBox="0 0 60 72" fill="none" xmlns="http://www.w3.org/2000/svg">
<path d="M51.4112 26.8558C50.0832 26.8558 48.7124 26.771 47.3844 27.1101C46.8275 27.2372 46.1421 27.1948 45.5852 27.0677C44.9855 26.9405 44.3857 26.8982 43.786 26.8982C39.545 26.8558 35.2612 26.8558 31.0202 26.8134C29.8208 26.8134 28.5785 26.8134 27.379 26.8134C27.0363 26.8134 26.6936 26.8558 26.3509 26.771C24.5517 26.2201 22.7097 26.4744 20.9105 26.5168C19.5825 26.5591 18.2545 26.8982 16.9694 27.3219C16.541 27.4491 16.1554 27.7457 15.7271 28C15.5557 27.9152 15.3844 27.7034 15.2558 27.7034C14.5276 27.661 13.7565 27.7034 13.0283 27.7034C11.4861 27.7034 9.90109 27.7034 8.35892 27.7034C7.75918 27.7034 7.11661 27.7457 6.51688 27.661C5.91715 27.5762 5.31742 27.4491 4.76052 27.2796C3.68957 26.8982 2.53294 26.9405 1.46199 26.5168C0.433877 26.1354 0.305363 25.9658 0.476715 24.7369C2.4901 23.5079 4.46065 22.7451 6.43121 22.4484C7.20229 22.3213 8.01621 22.1094 8.7873 21.8975C9.04433 21.8128 9.25852 21.6432 9.51554 21.4737C6.51688 20.5838 6.21701 20.4567 2.36159 18.253C2.1474 18.1258 1.84753 18.0835 1.63334 17.9987C1.2478 17.8292 0.905096 17.7021 0.519554 17.4902C0.0483349 17.2359 -0.123017 16.8121 0.091173 16.1764C0.305363 15.9645 0.562392 15.6679 0.905096 15.3289C1.20496 15.2865 1.54767 15.2865 1.84753 15.1594C2.78997 14.7779 3.68957 14.7779 4.63201 14.7779C6.38837 14.7779 8.14473 14.7779 9.90109 14.7779C10.7578 14.7779 11.6574 14.6508 12.4714 15.117C13.628 15.2441 14.7418 15.1594 15.8556 15.2017C15.9413 15.0322 15.9841 14.9898 15.9413 14.9475C15.1273 12.6167 14.0992 10.3706 13.371 7.74314C13.3281 6.76843 13.3281 5.49708 13.371 4.09859C13.5423 3.97146 13.7565 3.80195 13.9707 3.63243C14.4419 3.63243 14.9131 3.63243 15.3844 3.63243C15.4272 3.67481 15.5129 3.67481 15.5557 3.71719C16.3696 4.31049 17.1836 4.90378 17.9118 5.58184C18.4687 6.048 18.9399 6.6413 19.4968 7.10746C20.5678 8.03978 21.4245 9.14162 22.1956 10.3282C22.9667 11.4724 23.8235 12.6166 24.6374 13.7185C24.6802 13.7609 24.8516 13.7185 25.0229 13.6761C25.1086 12.8285 24.8944 11.9386 25.3656 11.1334C25.4085 11.0486 25.4085 10.8791 25.4085 10.752C25.3228 8.88735 26.0939 7.27697 26.8221 5.62422C27.2933 4.56476 28.1501 3.75957 28.7927 2.86962C29.3496 2.10681 30.1206 1.55589 30.7632 0.877838C31.1488 0.496432 31.6628 0.284541 32.134 0.0726486C32.5624 -0.0968649 32.9908 0.0302703 33.6762 0.454054C34.1474 1.21686 34.533 2.06443 34.4901 3.03914C34.4901 3.25103 34.4473 3.46292 34.533 3.63243C35.0042 4.52238 34.8328 5.4547 34.8757 6.38703C34.9185 8.03978 34.8757 9.73492 34.8757 11.3877C34.8757 11.6419 34.9185 11.8962 34.9185 12.1081C35.047 12.1081 35.1327 12.1505 35.1755 12.1081C35.9466 11.5996 36.5464 10.7944 37.4031 10.413C38.1742 9.52303 39.2023 9.01449 40.2304 8.50595C40.8302 8.2093 41.4299 7.87027 41.944 7.48887C42.7579 6.89557 43.6575 6.42941 44.5571 6.00562C45.1996 5.92087 45.7994 5.96324 46.1849 6.81081C46.2706 7.82789 46.1849 9.05687 46.1849 10.2011C46.0136 10.7096 45.9279 11.1758 45.7565 11.5996C45.371 12.659 45.0711 13.7609 44.3 14.6508C44.043 14.9051 43.8717 15.3289 43.8288 15.7103C44.3429 15.9645 44.7713 15.5408 45.2425 15.6255C46.1421 15.1594 47.213 15.3712 48.1555 14.9475C48.4553 14.8203 48.798 14.8627 49.1407 14.8627C49.5263 14.8627 49.9547 14.8203 50.3402 14.6508C50.5116 14.5661 50.7258 14.5237 50.9399 14.4813C51.6254 14.4389 52.3108 14.4813 52.9533 14.4389C53.5531 14.3965 54.11 14.1423 54.7097 14.0999C55.6521 14.0575 56.5946 14.0999 57.537 14.0999C57.8797 14.2694 58.2653 14.4389 58.5223 14.5661C58.865 15.0322 58.8222 15.4136 58.6508 15.9645C57.6655 16.9816 56.6802 18.1258 55.3094 18.931C54.624 19.3548 53.9386 19.7786 53.296 20.2448C53.1247 20.3719 52.9533 20.4567 52.9533 20.7109C53.4674 21.3042 54.2813 21.1347 54.9239 21.4314C55.5665 21.728 56.2519 21.6432 56.9373 21.7704C57.7512 22.1518 58.608 22.5756 59.4219 22.9994C59.8931 23.2536 60.0645 23.6774 59.9788 24.2283C59.5076 25.0759 58.6936 25.5421 57.7084 25.6692C56.8944 25.7539 56.1662 26.2625 55.3523 26.1354C54.5812 26.4744 53.8101 26.5168 52.9962 26.5591C52.4393 26.5168 51.9252 26.7287 51.4112 26.8558Z" fill="#BBCB7D"/>
<path d="M53.9144 48.163C53.9144 52.3915 53.8717 56.6632 53.8717 60.8917C53.8717 63.308 53.2727 65.5517 51.861 67.5366C49.5936 70.6432 46.5134 71.9808 42.7059 71.9808C34.1925 71.9808 25.6791 72.024 17.123 71.9808C12.1604 71.9377 8.2246 69.2193 6.59893 64.6025C6.17112 63.3512 6 62.0567 6 60.7191C6.04278 52.2189 6.04278 43.7187 6.08556 35.2185C6.12834 30.1702 8.90909 26.1143 13.5722 24.5609C14.7701 24.1726 16.0963 24 17.3797 24C25.8503 24 34.3209 24.0431 42.7914 24.0863C47.8396 24.1294 51.8182 26.9341 53.4439 31.5941C53.8717 32.8454 54 34.183 54 35.5206C53.9572 39.706 53.9144 43.9345 53.9144 48.163ZM44.9733 48.1199C45.016 39.8354 38.2567 33.018 30.0428 33.018C21.8289 33.018 15.0695 39.706 14.984 47.9904C14.8984 56.2317 21.6578 63.0923 29.9144 63.1354C38.1283 63.1786 44.9305 56.4043 44.9733 48.1199ZM45.7433 28.7032C43.6471 28.6169 41.9358 30.2996 41.8503 32.4139C41.7647 34.4419 43.4332 36.2109 45.4866 36.2541C47.5829 36.3404 49.3369 34.7008 49.4225 32.5434C49.508 30.5154 47.8396 28.7463 45.7433 28.7032Z" fill="#CA5769"/>
</svg>
