<svg width="234" height="300" viewBox="0 0 234 300" fill="none" xmlns="http://www.w3.org/2000/svg">
<path d="M147.541 263.258C147.44 263.96 147.246 264.646 146.964 265.296C143.128 271.931 138.304 277.933 132.662 283.094C132.044 283.627 131.33 284.035 130.558 284.297C130.051 284.495 129.496 284.536 128.966 284.412C128.435 284.288 127.954 284.007 127.585 283.604C127.177 283.246 126.886 282.771 126.753 282.243C126.619 281.715 126.648 281.158 126.836 280.648C126.897 280.379 127.01 280.126 127.17 279.903C132.612 273.787 137.477 267.162 144.183 262.32C144.64 262.04 145.149 261.856 145.68 261.78C146.641 261.576 147.166 262.096 147.541 263.258Z" fill="#C2E189"/>
<path d="M231.603 208.009C229.58 213.962 225.089 215.685 220.993 220.099C208.643 233.442 196.161 246.601 183.761 259.944C173.444 271.025 163.036 282.023 152.952 293.317C148.987 297.772 144.577 300.137 138.64 299.994C133.694 299.872 128.697 300.33 123.863 299.209C113.92 296.916 105.383 292.308 100.023 282.9C96.8062 283.308 94.5304 285.499 91.8399 286.753C84.9317 289.964 77.9526 291.483 70.306 289.892C66.511 289.239 63.0077 287.424 60.2724 284.694C56.1565 280.25 52.5029 275.393 49.3689 270.199C37.7776 252.126 27.2888 233.37 17.1742 214.401C14.3219 209.049 11.1055 203.912 8.07114 198.662C6.55395 196.042 5.03677 193.412 3.57016 190.783C-2.76156 179.651 -0.890362 163.26 10.9437 153.261C11.7832 152.547 12.7137 151.946 13.5937 151.294C14.9389 151.294 16.3752 151.09 17.2855 152.476C18.3475 154.076 19.4804 155.636 20.4514 157.287C34.9556 181.955 50.1882 206.215 63.6001 231.495C67.8482 239.517 72.5514 247.295 77.2547 255.062C78.5696 257.233 78.9641 258.772 77.2547 260.923C75.62 263.125 74.1815 265.469 72.956 267.926C71.4408 270.895 70.8386 274.253 71.2264 277.569C71.6209 282.716 74.1394 284.908 79.3181 284.765C84.7799 284.602 89.2607 281.932 93.6302 279.047C96.6039 277.09 96.8871 276.672 95.4205 273.002C94.318 270.26 94.6619 268.293 96.7252 266.336C98.7886 264.379 100.538 262.391 102.48 260.454C106.567 256.377 110.67 252.316 114.79 248.273C115.544 247.657 116.029 246.768 116.14 245.796C116.252 244.825 115.981 243.848 115.387 243.074C100.043 228.386 57.9157 151.334 54.8914 146.778C56.8233 143.842 58.2596 140.264 62.6999 140.489C65.3296 144.311 119.341 230.71 122.032 234.502C124.055 237.407 124.571 237.448 126.917 235.144C136.277 226.011 145.632 216.874 154.985 207.734C156.33 206.409 157.554 204.951 158.829 203.555C164.897 198.968 169.57 193.025 174 186.868C178.481 180.375 184.985 176.593 191.923 173.403C192.388 173.132 192.823 172.811 193.218 172.445C198.447 170.08 203.677 167.725 208.896 165.309C210.635 164.514 212.304 163.556 214.074 162.802C216.876 161.619 218.12 161.874 219.668 164.239C225.969 173.668 230.865 183.739 233.171 194.962C233.399 195.827 233.676 196.677 234 197.51C233.869 204.472 232.21 206.236 231.603 208.009ZM186.856 185.105C194.189 192.587 203.373 197.113 213.488 199.987C214.555 200.258 215.656 200.368 216.755 200.313C221.761 200.171 224.846 196.705 224.361 191.618C224.164 189.976 223.805 188.357 223.289 186.787C221.534 181.552 219.236 176.519 216.431 171.772C215.187 169.478 214.297 169.264 211.697 170.59C204.374 174.334 197.072 178.122 189.789 181.955C188.656 182.567 187.311 183.066 186.846 185.105H186.856ZM211.242 214.329C208.562 213.718 207.803 215.063 206.903 215.95C202.22 220.588 197.689 225.389 192.945 229.966C178.319 244.094 163.754 258.252 150.767 273.97C147.096 278.425 143.161 282.655 139.368 286.998C138.99 287.41 138.651 287.857 138.357 288.333C138.149 288.607 137.997 288.92 137.909 289.253C137.821 289.587 137.8 289.935 137.846 290.277C137.892 290.619 138.004 290.948 138.177 291.246C138.35 291.544 138.579 291.804 138.852 292.013C139.259 292.381 139.767 292.616 140.309 292.685C140.852 292.755 141.402 292.655 141.887 292.4C144.506 291.207 146.034 288.832 147.834 286.794C158.191 275.051 168.174 262.972 179.017 251.647C185.855 244.512 192.358 237.04 198.842 229.568C203.029 224.818 206.842 219.783 211.232 214.329H211.242ZM12.1979 168.53C11.3633 168.487 10.5431 168.762 9.9003 169.3C9.25753 169.838 8.83924 170.601 8.72858 171.436C8.4656 174.065 9.57821 176.247 10.8223 178.428C16.5269 188.479 22.1911 198.56 27.9058 208.601C28.5696 209.816 29.3817 210.942 30.3232 211.954C31.3 212.934 32.5759 213.553 33.9449 213.712C35.314 213.871 36.6962 213.561 37.8686 212.831C39.7499 211.557 40.1039 209.069 38.8194 206.124C38.4953 205.363 38.1237 204.624 37.7068 203.912C32.6495 195.39 27.6731 186.828 22.4743 178.428C20.6462 175.685 18.6356 173.069 16.4561 170.6C15.9631 169.936 15.3188 169.401 14.5777 169.041C13.8366 168.681 13.0203 168.506 12.1979 168.53V168.53ZM151.384 239.527C152.204 239.339 152.991 239.03 153.721 238.61C155.065 237.678 156.318 236.62 157.463 235.45C167.203 225.776 175.578 214.941 183.609 203.85C184.098 203.196 184.499 202.48 184.803 201.72C184.997 201.352 185.045 200.924 184.936 200.522C184.827 200.12 184.569 199.776 184.216 199.559C183.496 199.304 182.711 199.304 181.991 199.559C181.239 199.881 180.553 200.34 179.968 200.915C169.135 210.17 159.405 220.568 149.999 231.26C148.972 232.529 148.171 233.967 147.632 235.511C146.974 237.172 148.856 239.507 151.384 239.527ZM155.137 257.416C155.937 257.219 156.704 256.903 157.413 256.479C158.882 255.249 160.287 253.942 161.62 252.564C173.809 239.919 185.345 226.65 196.182 212.81C197.436 211.23 199.621 210.028 199.155 207.428C195.979 206.113 194.917 209.049 193.339 210.568C179.725 223.738 167.183 237.947 154.206 251.739C153.607 252.302 153.149 253.001 152.871 253.777C152.668 254.547 152.758 255.365 153.124 256.071C153.508 256.672 154.409 256.958 155.137 257.416ZM116.833 276.162C117.654 276.255 118.486 276.147 119.257 275.847C120.029 275.548 120.717 275.064 121.263 274.439C128.748 266.825 136.546 259.486 142.109 250.2C142.595 249.536 142.898 248.756 142.989 247.937C142.89 247.162 142.533 246.443 141.978 245.898C141.762 245.746 141.514 245.65 141.253 245.616C140.992 245.582 140.727 245.612 140.481 245.704C139.496 246.15 138.59 246.756 137.8 247.498C130.801 254.443 123.832 261.422 116.894 268.436C115.965 269.442 115.176 270.57 114.547 271.789C114.336 272.222 114.23 272.698 114.237 273.18C114.244 273.662 114.364 274.135 114.587 274.561C114.809 274.988 115.129 275.355 115.519 275.633C115.91 275.911 116.36 276.092 116.833 276.162V276.162ZM147.177 263.257C146.802 262.095 146.246 261.575 145.326 261.738C144.792 261.813 144.279 261.997 143.819 262.279C137.113 267.121 132.248 273.777 126.806 279.862C126.646 280.085 126.532 280.338 126.472 280.606C126.284 281.117 126.255 281.674 126.388 282.202C126.522 282.73 126.812 283.205 127.221 283.562C127.592 283.966 128.074 284.249 128.607 284.372C129.139 284.496 129.695 284.455 130.204 284.256C130.971 283.992 131.682 283.583 132.298 283.053C137.961 277.885 142.798 271.868 146.641 265.214C146.905 264.588 147.089 263.931 147.187 263.257H147.177ZM42.2583 221.465C41.9075 221.499 41.567 221.603 41.2571 221.772C40.9472 221.942 40.6742 222.172 40.4543 222.45C40.2345 222.727 40.0723 223.047 39.9773 223.389C39.8824 223.731 39.8567 224.089 39.9016 224.441C40.9186 228.421 43.079 232.009 46.112 234.757C46.7071 235.34 47.4973 235.676 48.3268 235.701C49.1563 235.725 49.9647 235.436 50.5927 234.889C51.2925 234.447 51.7944 233.748 51.9925 232.939C52.1907 232.131 52.0696 231.277 51.6548 230.557C50.203 227.615 48.2557 224.949 45.8996 222.678C45.4306 222.205 44.8567 221.851 44.2254 221.645C43.5941 221.44 42.9234 221.388 42.2685 221.495L42.2583 221.465ZM64.8846 254.022C64.7853 252.242 64.1448 250.536 63.05 249.135C61.9553 247.735 60.4593 246.708 58.7653 246.194C56.5098 245.674 53.7991 247.6 54.1834 249.557C54.4246 251.057 54.9604 252.493 55.7593 253.781C56.5583 255.069 57.6043 256.184 58.8361 257.06C59.3942 257.462 60.0533 257.699 60.7382 257.742C61.4232 257.785 62.1064 257.634 62.71 257.304C63.3367 257.019 63.8726 256.564 64.2583 255.99C64.644 255.416 64.8642 254.745 64.8947 254.053L64.8846 254.022Z" fill="#2C5234"/>
<path d="M115.285 243.073C115.88 243.846 116.15 244.823 116.039 245.795C115.927 246.767 115.443 247.656 114.688 248.272C110.562 252.308 106.458 256.369 102.379 260.453C100.437 262.389 98.6062 264.448 96.6238 266.334C94.6413 268.22 94.2165 270.259 95.319 273.001C96.7856 276.67 96.5024 277.078 93.5287 279.045C89.1592 281.93 84.6785 284.601 79.2166 284.764C74.0784 284.907 71.5599 282.725 71.1249 277.567C70.7371 274.251 71.3393 270.894 72.8545 267.924C74.08 265.467 75.5185 263.124 77.1532 260.922C78.9031 258.771 78.5086 257.232 77.1532 255.06C72.45 247.293 67.7467 239.516 63.4986 231.493C50.0867 206.183 34.8541 181.954 20.3499 157.286C19.3384 155.634 18.246 154.075 17.184 152.474C16.2737 151.088 14.8374 151.333 13.4922 151.292C14.4025 149.641 16.0815 149.253 17.6493 148.988C20.8657 148.336 24.1024 147.419 27.3491 147.378C36.6444 147.245 45.7981 144.809 55.1439 145.645C54.4562 148.142 70.8519 172.933 77.6084 183.615C79.075 185.939 80.5214 188.284 81.8565 190.679C83.4141 193.309 112.301 238.466 115.285 243.073Z" fill="#C2E189"/>
<path d="M211.586 214.33C207.197 219.783 203.373 224.819 199.247 229.569C192.763 237.041 186.26 244.502 179.422 251.648C168.579 262.973 158.596 275.093 148.239 286.795C146.439 288.833 144.901 291.208 142.282 292.401C141.797 292.657 141.247 292.758 140.704 292.689C140.161 292.619 139.653 292.384 139.247 292.014C138.973 291.806 138.743 291.546 138.569 291.248C138.396 290.95 138.283 290.62 138.236 290.278C138.19 289.936 138.212 289.588 138.301 289.254C138.389 288.92 138.542 288.607 138.752 288.334C139.046 287.858 139.385 287.411 139.763 286.998C143.556 282.656 147.48 278.426 151.162 273.971C164.149 258.253 178.714 244.095 193.34 229.967C198.084 225.39 202.615 220.589 207.298 215.951C208.137 215.064 208.906 213.718 211.586 214.33Z" fill="#C2E189"/>
<path d="M12.0353 168.285C12.8509 168.256 13.6615 168.426 14.3977 168.781C15.134 169.136 15.774 169.665 16.2632 170.324C18.4395 172.795 20.45 175.411 22.2813 178.152C27.4802 186.582 32.4667 195.144 37.5139 203.635C37.9308 204.348 38.3024 205.087 38.6265 205.847C39.911 208.803 39.5469 211.28 37.615 212.565C36.4415 213.291 35.0601 213.6 33.6919 213.441C32.3238 213.282 31.0482 212.665 30.0696 211.688C29.149 210.676 28.3511 209.557 27.6926 208.355C21.9779 198.304 16.3138 188.233 10.6091 178.183C9.36506 176.001 8.25245 173.82 8.51543 171.18C8.6289 170.338 9.05547 169.57 9.70888 169.033C10.3623 168.495 11.1938 168.228 12.0353 168.285V168.285Z" fill="#C2E189"/>
<path d="M151.698 239.527C149.169 239.527 147.288 237.172 147.935 235.45C148.474 233.906 149.275 232.467 150.302 231.199C159.709 220.506 169.439 210.109 180.271 200.854C180.855 200.277 181.541 199.817 182.294 199.498C183.015 199.243 183.799 199.243 184.52 199.498C184.871 199.716 185.127 200.061 185.236 200.462C185.345 200.863 185.298 201.291 185.106 201.659C184.802 202.418 184.401 203.135 183.913 203.789C175.882 214.9 167.507 225.735 157.767 235.389C156.621 236.559 155.368 237.617 154.024 238.549C153.301 238.989 152.517 239.319 151.698 239.527Z" fill="#C2E189"/>
<path d="M155.492 257.416C154.763 256.957 153.863 256.672 153.469 256.07C153.103 255.365 153.012 254.546 153.216 253.777C153.494 253 153.952 252.301 154.551 251.738C167.528 237.947 180.07 223.737 193.684 210.567C195.262 209.049 196.324 206.113 199.5 207.428C199.965 210.027 197.781 211.23 196.526 212.81C185.689 226.652 174.15 239.921 161.955 252.564C160.625 253.942 159.224 255.248 157.757 256.478C157.052 256.902 156.289 257.218 155.492 257.416V257.416Z" fill="#C2E189"/>
<path d="M117.187 276.16C116.713 276.095 116.261 275.918 115.868 275.644C115.475 275.369 115.152 275.005 114.925 274.58C114.699 274.156 114.575 273.684 114.563 273.202C114.552 272.72 114.654 272.242 114.861 271.808C115.49 270.589 116.279 269.461 117.208 268.454C124.133 261.441 131.102 254.462 138.114 247.517C138.904 246.775 139.81 246.169 140.795 245.723C141.041 245.631 141.306 245.601 141.567 245.634C141.827 245.668 142.076 245.765 142.292 245.917C142.847 246.462 143.204 247.18 143.303 247.955C143.212 248.774 142.909 249.555 142.423 250.218C136.86 259.504 129.052 266.844 121.577 274.458C121.033 275.073 120.35 275.549 119.587 275.845C118.823 276.141 118.001 276.249 117.187 276.16V276.16Z" fill="#C2E189"/>
<path d="M42.1079 221.239C42.7612 221.132 43.4303 221.181 44.0611 221.383C44.6919 221.585 45.2667 221.934 45.739 222.401C48.0976 224.672 50.0422 227.342 51.4841 230.291C51.903 231.003 52.0316 231.852 51.843 232.658C51.6544 233.464 51.1632 234.164 50.4726 234.613C49.8446 235.16 49.0362 235.449 48.2067 235.425C47.3772 235.4 46.587 235.063 45.9919 234.481C42.9537 231.738 40.7922 228.147 39.7815 224.164C39.7436 223.818 39.7737 223.468 39.8701 223.134C39.9664 222.799 40.1273 222.487 40.3433 222.216C40.5593 221.944 40.8264 221.718 41.1291 221.55C41.4319 221.383 41.7645 221.277 42.1079 221.239V221.239Z" fill="#C2E189"/>
<path d="M64.8948 254.052C64.8553 254.739 64.6286 255.403 64.2396 255.969C63.8507 256.536 63.3145 256.983 62.6899 257.263C62.0863 257.592 61.4031 257.744 60.7181 257.7C60.0332 257.657 59.3741 257.421 58.816 257.018C57.5938 256.15 56.5542 255.046 55.7574 253.77C54.9606 252.495 54.4222 251.073 54.1734 249.587C53.7891 247.63 56.4998 245.703 58.7553 246.223C60.4531 246.733 61.9534 247.759 63.052 249.16C64.1507 250.561 64.7941 252.269 64.8948 254.052Z" fill="#C2E189"/>
<path d="M73.8965 214.431L98.9401 188.193C98.9401 188.193 112.777 207.459 119.038 207.122C119.038 207.122 101.246 237.702 86.0845 245.317C86.0845 245.317 80.4811 220.078 73.8965 214.431Z" fill="#C6BCD0"/>
<path d="M112.16 203.199C114.861 205.625 117.47 207.338 119.372 207.277C119.372 207.277 101.57 237.857 86.4185 245.461C86.4185 245.461 85.316 240.507 83.5156 234.483C88.6943 229.233 105.687 209.723 112.16 203.199Z" fill="#A699C1"/>
<path d="M154.185 105.832C154.185 105.832 73.8145 200.589 65.4396 203.25C65.4396 203.25 64.1146 210.773 69.8293 215.207C69.8293 215.207 79.9439 228.04 79.9439 244.431C79.9439 244.431 81.2588 251.954 86.5386 245.318C86.5386 245.318 82.5838 219.631 75.5542 213.433L131.346 155.871L166.939 118.676C166.939 118.676 171.764 106.719 154.185 105.832Z" fill="#1E4E30"/>
<path d="M183.864 184.993L214.845 167.053C214.845 167.053 222.087 175.024 226.699 193.627C231.311 212.23 205.61 201.588 205.61 201.588C205.61 201.588 183.206 186.981 183.864 184.993Z" fill="#C2E189"/>
<path d="M86.5502 156.574C83.0136 147.333 80.2362 137.814 78.2461 128.114L76.8503 120.806L75.677 113.446C75.0904 108.513 74.4531 103.559 74.18 98.5843C73.7451 93.61 73.5833 88.6051 73.3203 83.5899C73.3203 81.0824 73.3911 78.5646 73.5529 76.0672C73.6339 74.8135 73.7047 73.5597 73.8564 72.3161C74.0081 71.0725 74.2407 69.8289 74.443 68.5853C74.8881 66.1083 75.2926 63.6313 75.8692 61.1849C76.4457 58.7385 77.2144 56.3329 77.9629 53.9375C78.3472 52.7346 78.6911 51.542 79.1463 50.3596C79.6015 49.1772 80.1578 48.0253 80.623 46.8735C81.6345 44.5698 82.6965 42.2763 83.9305 40.0745C83.9921 39.9664 84.0932 39.8867 84.2121 39.8524C84.3311 39.8182 84.4587 39.832 84.5677 39.891C84.6386 39.9333 84.6979 39.9927 84.7403 40.0639C84.7827 40.1351 84.8068 40.2158 84.8105 40.2988C84.8813 50.4921 83.799 59.9413 83.4854 69.5741C83.4045 70.7667 83.3236 71.9695 83.2124 73.1519L83.0101 76.74C82.8685 79.1354 82.5852 81.5207 82.3324 83.8753C81.9784 88.6662 81.412 93.4775 81.4625 98.3091C81.3209 103.141 81.5333 107.983 81.7053 112.824L82.1099 120.092L82.7572 127.35C83.6944 137.067 85.2553 146.714 87.4301 156.228V156.228C87.4663 156.344 87.4552 156.47 87.3993 156.578C87.3716 156.631 87.3337 156.679 87.2878 156.718C87.2419 156.756 87.1889 156.786 87.1317 156.804C87.0164 156.84 86.8914 156.829 86.7842 156.773C86.677 156.716 86.5965 156.619 86.5603 156.503L86.5502 156.574Z" fill="#2C5234"/>
<path d="M92.9116 121.061C91.6675 114.771 90.9392 109.308 90.1098 102.947C89.7255 99.7667 89.3614 96.5762 89.0377 93.3754C88.714 90.1747 88.532 86.974 88.3297 83.7529C88.1274 80.5318 87.8543 77.3005 87.6621 74.0489C87.4905 70.7823 87.6839 67.5066 88.2387 64.2836C88.7955 60.9816 89.6903 57.7466 90.9089 54.6305C92.0897 51.3583 93.9878 48.3967 96.4618 45.9662C96.5069 45.9206 96.5605 45.8844 96.6195 45.8597C96.6785 45.835 96.7418 45.8223 96.8057 45.8223C96.8696 45.8223 96.9328 45.835 96.9919 45.8597C97.0509 45.8844 97.1045 45.9206 97.1496 45.9662C97.1929 46.012 97.2262 46.0666 97.2471 46.1264C97.268 46.1861 97.2761 46.2496 97.2709 46.3127V46.3127C97.0889 49.6562 97.1799 52.704 97.2709 55.8129C97.362 58.9219 97.3721 61.929 97.3519 65.0583C97.3508 68.1614 97.1378 71.2607 96.7146 74.3343C96.2999 77.3923 95.8751 80.5624 95.7032 83.7122C95.5312 86.8619 95.3188 90.0116 95.1873 93.1716C95.0559 96.3315 95.4301 100.134 95.3087 103.304C95.066 108.951 95.602 114.802 95.5919 120.52C95.5922 120.787 95.526 121.049 95.3993 121.284C95.2727 121.518 95.0896 121.716 94.867 121.86C94.6444 122.004 94.3894 122.09 94.1255 122.108C93.8615 122.127 93.5971 122.079 93.3566 121.968C93.1779 121.681 93.0288 121.378 92.9116 121.061V121.061Z" fill="#2C5234"/>
<path d="M96.6939 146.84C96.3197 145.77 95.9657 144.699 95.6218 143.619C95.2779 142.538 94.9947 141.437 94.7014 140.337C94.4081 139.236 94.0945 138.145 93.8113 137.034C93.5324 135.912 93.42 134.754 93.4775 133.599C93.534 132.39 93.7483 131.194 94.1147 130.041C94.5092 128.859 96.876 128.879 97.0884 129.95C97.3008 131.02 97.5031 132.08 97.6852 133.15C97.8724 134.227 97.9638 135.319 97.9583 136.412C97.9583 137.523 97.9583 138.644 98.0493 139.756C98.1403 140.867 98.2516 141.967 98.3831 143.068C98.5146 144.169 98.9191 145.464 99.0607 146.575C99.2934 148.552 97.4626 149.011 96.6939 146.84Z" fill="#2C5234"/>
<path d="M182.793 26.5158C182.793 26.5158 190.349 9.4012 201.738 7.63775C213.127 5.8743 230.18 14.9464 231.191 23.5903C231.191 23.5903 227.439 33.7837 213.43 34.8744C213.44 34.8846 190.177 36.5257 182.793 26.5158Z" fill="#F5F1E8"/>
<path d="M216.476 34.5074L216.971 29.3186C216.971 29.3186 212.551 19.8382 209.497 20.0625C206.442 20.2868 201.84 21.2756 198.998 25.8629C196.155 30.4502 196.499 33.7938 196.499 33.7938C196.499 33.7938 212.298 37.3515 216.476 34.5074Z" fill="#A699C1"/>
<path d="M161.563 14.7928C161.563 14.7928 150.821 -0.497203 139.311 0.0124643C127.8 0.522132 112.841 12.8051 113.529 21.4797C113.529 21.4797 119.183 30.6537 133.151 29.0329C133.151 29.0431 156.283 26.0463 161.563 14.7928Z" fill="#F5F1E8"/>
<path d="M130.099 29.2788L128.602 24.2838C128.602 24.2838 131.09 14.0898 134.134 13.733C137.179 13.3762 141.872 13.3966 145.554 17.3417C149.235 21.2868 149.599 24.6202 149.599 24.6202C149.599 24.6202 134.741 31.2361 130.099 29.2788Z" fill="#A699C1"/>
</svg>
