
<svg xmlns="http://www.w3.org/2000/svg" viewBox="0 0 512 512"><defs><style>.cls-1{fill:#b8b8cc;}.cls-2{fill:#fff;}.cls-3{fill:#ca5769;}.cls-4{fill:#3d6334;}</style></defs><title>Asset 1Aurabora-Favicon-01-ls</title><g id="Layer_2" data-name="Layer 2"><g id="Layer_2-2" data-name="Layer 2"><circle class="cls-1" cx="256" cy="256" r="256"/></g><g id="Layer_1-2" data-name="Layer 1"><path class="cls-2" d="M424,352c-18.18,41.25-76.1,72-130.32,75.39,23.52-109.68-135.22-130.18-128-4.12C102.26,408.45,74,357.36,74,357.36S250.11,105.38,424,352Z"/><path class="cls-3" d="M307.89,426.15c-40.7,7.07-90.59,10.9-142.23-2.85C151.82,304,329.62,286.83,307.89,426.15Z"/><path class="cls-4" d="M83.05,275.78c-6-7.7-12-15.36-17.93-23.11s-11.63-15.2-17.17-23c-3.84-5.4-7.75-10.81-10-17.19s-2.1-12.22,2.94-17.48a11.15,11.15,0,0,1,10.58-3.48,19.55,19.55,0,0,1,13.86,9.13c8.28,13.06,16.83,26,24.8,39.21,3.89,6.46,6.86,13.49,10,20.39a25.54,25.54,0,0,1,1.77,7.54c.58,5.1-1.5,9.23-5.42,11.14-4.47,2.17-8.27.83-11.62-2.47-.39-.39-.84-.73-1.26-1.1Z"/><path class="cls-4" d="M439.83,224.84c7.5-7.51,14.95-15.06,22.52-22.5a23.35,23.35,0,0,1,5.32-3.88c3.79-2,7.57-1.51,10.27,1,3.45,3.18,4.4,6.75,2.41,11.05a51.37,51.37,0,0,1-5.06,8.53c-2.6,3.58-5.53,6.93-8.37,10.34q-7.8,9.34-15.67,18.65c-.12.15-.25.28-.37.42-11.5,12.12-22.88,24.37-34.56,36.31-4.94,5.05-13.57,4-17.59-1.76a11.6,11.6,0,0,1-1.13-11.17,22.23,22.23,0,0,1,4.12-7.11c12.5-13.48,25.17-26.8,37.79-40.17Z"/><path class="cls-4" d="M392.71,128.78c1.63,6.3-2.1,11.47-4.36,16.76C382.59,159,376.42,172.27,370,185.39a118.15,118.15,0,0,1-11.62,19.55c-6,7.81-16.58,10.18-23.92,3.39a15.33,15.33,0,0,1-4.93-15.09,24,24,0,0,1,2.45-6.79c8.83-15.95,19.76-30.42,31.9-43.95a171.48,171.48,0,0,1,14-13.37,22.42,22.42,0,0,1,6.28-3.55C387.79,124,390.54,125.67,392.71,128.78Z"/><path class="cls-4" d="M154.28,113.78c5.6,1.37,9.31,5.5,11.65,11,6.77,15.94,13.43,32,19.78,48.17A33.64,33.64,0,0,1,188.06,190c-1.82,13.44-12,17.12-19.62,11.49-5.34-4-9.31-9.34-12.59-15.51-6.7-12.6-13.64-25-20.13-37.76a36.93,36.93,0,0,1-3.9-12.87C130.49,121.47,142.57,110.09,154.28,113.78Z"/><path class="cls-4" d="M281.13,106.88c-.9,22.17-1.23,45.09-5.78,62.84-2.81,11-6,17.44-10.44,14-5.15-4-8.54-15.55-9.48-33-1.94-35.76,3.05-69.88,11.12-85.31,6.81-13,15.09,8.23,14.59,31.72C281.07,100.37,281.13,103.63,281.13,106.88Z"/></g></g></svg>
