<svg width="164" height="92" viewBox="0 0 164 92" fill="none" xmlns="http://www.w3.org/2000/svg">
<path d="M0 76.9956C0.360918 76.276 0.721836 75.5564 1.08275 74.8368C2.52643 71.9583 2.88735 71.9583 5.77469 71.5985C6.85744 71.5985 7.9402 71.5985 9.38387 71.5985C9.74479 70.8789 10.1057 70.5191 10.4666 69.7995C9.38387 69.4397 8.66204 69.0798 7.57928 69.0798C7.21836 69.4397 6.85744 69.4397 6.49653 69.7995C5.77469 70.1593 5.05285 70.1593 4.69194 69.7995C4.33102 69.4397 4.33102 68.3602 4.69194 67.6406C5.05285 67.2808 5.77469 66.5612 6.49653 66.2014C7.21836 65.8416 7.57928 65.8416 8.30112 65.8416C9.74479 66.5612 11.1885 66.921 12.2712 67.6406C12.6321 67.6406 12.9931 68.0004 13.354 68.3602C14.0758 68.3602 14.7976 68.3602 15.5195 68.0004C15.5195 67.2808 15.5195 66.921 15.5195 66.2014C14.7976 65.8416 14.4367 65.4818 13.7149 65.122C13.354 64.7621 12.9931 64.4023 13.354 64.0425C13.354 63.6827 14.0758 63.3229 14.7976 63.3229C15.8804 64.0425 16.9632 64.7621 18.0459 65.122C18.4068 65.122 18.4068 65.8416 18.7677 66.2014C18.7677 66.5612 19.1287 67.2808 19.1287 67.6406C20.9333 68.0004 23.0988 68.0004 24.1815 70.1593C24.5424 69.0798 24.9034 68.3602 25.2643 67.6406C24.9034 66.5612 24.1815 66.2014 23.4597 65.4818C22.7378 64.7621 22.7378 64.4023 23.0988 64.0425C23.4597 63.6827 23.8206 63.6827 24.5424 64.0425C25.9861 64.7621 26.7079 65.8416 27.4298 66.921C27.7907 67.2808 27.4298 68.0004 27.4298 68.72C28.1516 68.72 28.8735 68.72 29.9562 68.72C29.9562 68.3602 30.3171 68.0004 30.3171 68.0004C29.5953 67.2808 28.8735 66.5612 28.1516 65.8416C27.7907 65.4818 27.4298 65.1219 27.7907 64.4023C28.1516 63.6827 28.8735 64.4023 29.2344 64.4023C30.678 64.7621 31.7608 65.4818 32.4826 66.5612C32.8436 67.6406 32.8436 68.3602 32.4826 69.0798C32.1217 69.4397 32.1217 69.7995 31.7608 70.5191C32.4826 70.5191 32.4826 70.8789 32.8436 71.2387C34.2872 71.2387 35.7309 70.8789 37.1746 70.8789C37.5355 69.7995 38.2573 69.0798 39.701 68.72C39.701 67.6406 40.0619 66.5612 41.1447 65.4818C40.7837 65.122 40.7837 64.7621 40.4228 64.7621C37.8964 66.2014 35.7309 65.8416 33.2045 64.7621C31.3999 63.6827 30.3171 62.6033 29.9562 60.8042C31.039 60.8042 32.1217 61.1641 33.2045 61.1641C35.0091 62.9631 36.8137 63.3229 37.8964 61.8837C38.6182 60.8042 38.6182 59.365 37.5355 58.6454C36.0918 57.2062 34.6481 57.566 33.2045 59.0052C32.1217 58.6454 31.039 58.6454 29.5953 58.2856C29.9562 55.7669 33.5654 54.6875 36.0918 54.6875C37.5355 54.6875 38.6182 55.7669 39.701 56.4865C40.7837 57.2062 41.1447 58.6454 41.1447 59.7248C43.6711 61.5239 44.3929 63.3229 42.9493 65.122C43.3102 66.5612 42.5883 68.0004 41.1447 68.72C41.1447 70.5191 40.0619 70.8789 38.6182 71.5985C38.6182 73.0377 37.5355 73.3975 36.4527 73.7574C35.37 74.1172 34.2872 74.1172 32.8436 74.1172C32.8436 74.477 32.4826 74.477 32.1217 75.1966C33.2045 75.5564 34.2872 76.276 35.37 76.6358C35.7309 76.9956 36.4527 76.9956 36.8136 77.3554C37.5355 77.7153 37.8964 78.4349 37.5355 78.7947C37.1746 79.5143 36.4527 79.5143 35.7309 79.5143C33.9263 78.7947 32.4826 78.0751 31.039 76.9956C30.678 76.6358 29.9562 76.276 29.2344 76.6358C29.9562 77.3554 30.678 78.0751 31.039 79.1545C31.3999 79.5143 31.7608 79.8741 31.7608 80.5937C32.1217 81.3133 31.7608 82.033 31.039 82.033C30.3171 82.033 29.5953 82.033 29.2344 81.6731C27.7907 79.8741 26.347 78.4349 25.2643 76.6358C24.1815 75.9162 23.4597 75.5564 22.3769 74.8368C22.7378 75.5564 22.7378 75.9162 23.0988 76.276C23.4597 77.3554 24.1815 78.4349 24.5424 79.5143C24.5424 79.8741 24.9034 80.2339 24.9034 80.5937C24.9034 80.9535 24.5424 81.3133 24.1815 81.6731C23.8206 82.033 23.4597 81.6731 23.0988 81.3133C22.7378 80.9535 22.7378 80.5937 22.3769 80.5937C21.6551 78.7947 20.9333 77.3554 19.8505 75.5564C19.1287 75.9162 18.4068 76.276 17.685 76.6358C18.0459 78.0751 18.7677 79.1545 19.1287 80.2339C19.4896 80.9535 19.4896 81.6731 18.7677 82.3928C18.0459 83.1124 17.685 83.4722 16.9632 83.832C16.2413 84.1918 15.5195 84.1918 14.7976 83.4722C14.0758 82.7526 14.0758 82.033 14.7976 81.3133C15.1586 80.9535 15.1586 80.9535 15.5195 80.5937C15.8804 80.5937 15.8804 80.2339 16.2413 79.8741C16.2413 78.7947 15.8804 77.7152 15.8804 76.6358C14.7976 76.6358 14.0758 76.6358 12.9931 76.6358C12.9931 77.3554 12.6321 78.4349 12.6321 79.1545C12.2712 80.2339 11.5494 80.9535 10.4666 81.3133C8.66204 82.7526 6.49653 82.7526 3.9701 82.7526C3.60918 82.7526 3.60918 82.7526 2.88735 81.6731C5.41377 79.5143 7.9402 78.0751 10.4666 76.276C9.74479 74.8368 9.74479 74.8368 8.30112 75.1966C6.13561 75.9162 3.9701 76.6358 1.80459 77.3554C1.08275 77.7153 0.721836 77.7153 0 77.7153C0 77.7153 0 77.3554 0 76.9956Z" fill="#451515"/>
<path d="M92.3969 16.1914C94.9234 16.5512 97.8107 17.2708 100.337 17.6306C103.585 18.3503 106.834 18.7101 110.082 19.4297C113.33 19.7895 116.939 20.5091 120.188 20.8689C124.158 21.5885 128.128 21.5885 131.737 21.5885C136.429 21.5885 141.121 21.5885 145.813 21.5885C147.256 21.5885 148.7 21.5885 150.144 21.5885C150.866 21.5885 151.587 21.5885 151.948 21.5885C154.475 21.5885 157.001 21.5885 159.167 23.0278C160.971 23.7474 162.415 25.1866 163.498 26.9857C164.22 28.7847 164.22 30.2239 163.137 31.6632C162.054 33.4622 160.25 34.9015 158.084 35.6211C155.919 36.3407 153.753 37.0603 151.588 37.4201C151.227 37.4201 150.866 37.7799 150.505 37.7799C150.505 38.4995 150.505 38.8593 150.505 39.579C150.144 41.0182 149.061 42.4574 147.617 43.1771C145.452 44.6163 143.286 45.3359 141.121 45.6957C139.677 46.0555 138.594 46.0555 137.151 46.0555C137.151 46.7751 137.151 47.1349 137.151 47.8546C137.512 50.3732 136.068 52.1723 133.903 53.2517C132.098 54.3311 129.932 55.0507 127.767 55.0507C126.684 55.0507 125.601 55.0507 124.88 55.7704C123.436 56.8498 122.353 57.5694 120.909 58.6488C120.909 59.0086 120.549 59.3684 120.549 59.7282C120.549 62.6067 120.549 65.1254 120.188 68.0038C120.188 69.4431 119.827 70.5225 118.744 71.6019C117.661 73.0412 116.578 73.401 114.774 72.6814C114.052 72.3216 113.691 71.9617 112.969 71.6019C112.608 71.2421 112.608 71.2421 112.608 71.6019C111.526 74.4804 107.555 74.1206 106.112 72.6814C105.751 72.3216 105.39 71.9617 105.029 71.6019C105.029 71.6019 105.029 71.2421 104.668 71.2421C104.307 71.2421 104.307 71.6019 103.946 71.6019C100.698 73.401 98.1716 71.2421 98.1716 68.3637V68.0038C98.5325 67.644 98.5325 67.2842 98.8935 67.2842C99.2544 67.2842 99.6153 67.644 99.6153 68.0038C99.9762 68.3637 99.9762 68.7235 100.337 69.0833C101.059 70.1627 102.142 70.1627 102.864 69.0833C103.224 68.7235 103.224 68.3637 103.224 68.0038C103.585 67.2842 103.946 66.9244 104.668 67.2842C105.39 67.2842 105.751 67.644 105.751 68.3637C106.112 69.0833 106.473 69.8029 106.834 70.5225C107.555 71.6019 108.999 71.2421 109.721 70.1627C110.082 69.8029 110.082 69.0833 110.443 68.7235C110.804 68.0038 111.165 67.644 111.887 67.644C112.608 67.644 112.608 68.0038 112.969 68.7235C112.969 69.0833 113.33 69.0833 113.33 69.0833C114.052 69.8029 114.413 70.5225 115.496 70.1627C116.939 67.2842 116.578 64.046 116.578 60.8077C114.774 61.5273 113.33 62.2469 111.887 62.9665C110.443 63.6861 108.638 63.6861 107.195 64.0459C105.751 64.0459 103.946 64.7656 102.503 64.4058C102.864 63.3263 103.585 62.9665 103.946 62.9665C105.029 62.6067 105.751 62.2469 106.834 61.8871C110.082 60.4479 113.33 58.6488 116.218 57.2096C116.578 56.8498 117.3 56.49 118.022 56.1302C115.857 55.7704 114.052 55.7704 112.247 55.4105C108.277 54.6909 104.307 53.6115 100.698 51.8125C97.0889 50.3732 93.4797 48.5742 90.2314 46.0555C85.9004 42.8172 82.6522 38.4995 80.1257 33.822C79.4039 32.3828 79.043 30.9436 79.043 29.1445C79.043 26.266 80.1257 24.1072 81.2085 21.5885C81.2085 21.2287 81.5694 21.2287 81.9303 20.8689C85.5395 17.9904 88.7878 16.5512 92.3969 16.1914ZM113.33 35.6211C112.608 36.3407 111.887 36.3407 111.165 36.3407C110.082 36.3407 108.638 36.7005 107.555 36.7005C107.195 36.7005 106.834 37.0603 106.834 37.0603C106.834 37.4201 106.834 37.7799 107.195 37.7799C107.195 38.1397 107.555 38.1397 107.916 38.1397C109.721 38.4995 111.165 38.8593 112.969 38.4995C113.691 38.4995 114.774 37.7799 115.496 37.4201C116.578 36.7005 116.578 35.6211 116.218 34.5416C115.496 33.1024 114.774 31.6632 113.33 30.2239C112.969 29.8641 112.247 29.5043 111.887 29.5043C111.526 29.5043 111.165 29.5043 110.804 29.5043C110.443 29.8641 110.443 30.2239 110.443 30.5838C110.443 30.9436 110.804 31.6632 111.165 32.023C111.887 33.4622 112.608 34.5416 113.33 35.6211ZM92.7579 39.9388C94.5624 42.0976 97.4498 42.4574 99.2544 41.7378C101.059 41.0182 101.781 39.9388 101.781 38.1397C101.42 36.7005 100.698 35.2613 99.2544 34.1818C98.8935 33.822 98.5325 33.822 97.8107 33.822C97.0889 33.822 96.728 34.1818 96.728 34.9015C96.728 35.6211 97.0889 35.9809 97.0889 36.7005C97.4498 37.4201 97.8107 37.7799 98.1716 38.4995C96.728 40.6584 94.5624 39.579 92.7579 39.9388ZM124.88 25.1866C125.601 26.6259 125.962 28.0651 126.684 29.1445C127.406 30.5838 127.045 30.5838 125.962 31.3034C125.24 31.6632 124.519 31.6632 123.797 32.023C123.075 32.3828 122.714 33.1024 123.075 33.822C123.436 34.5416 123.797 34.5416 124.519 34.5416C125.601 34.1818 126.684 34.1818 127.767 33.4622C129.572 32.3828 129.932 31.3034 129.572 29.5043C128.85 26.9857 127.406 25.9062 125.24 25.1866C125.24 25.1866 124.88 25.1866 124.88 25.1866ZM112.969 45.3359C112.969 46.4153 112.969 46.7751 114.052 47.1349C115.496 47.8546 116.939 47.8546 118.744 47.8546C119.827 47.8546 120.909 47.1349 121.631 46.4153C122.714 45.3359 123.075 43.8967 121.992 42.4574C121.27 41.7378 120.549 41.0182 119.827 40.2986C119.827 40.2986 119.466 40.2986 119.105 39.9388C119.466 40.6584 119.466 41.0182 119.466 41.7378C119.466 42.4574 119.827 42.8172 119.827 43.5369C119.827 44.2565 119.827 44.6163 119.105 44.9761C118.383 45.3359 118.022 45.3359 117.3 45.3359C115.496 45.3359 114.413 45.3359 112.969 45.3359ZM90.5923 28.4249C90.2314 28.4249 89.8705 28.7847 89.5096 28.7847C88.4268 28.7847 87.705 28.7847 86.6222 28.4249C85.9004 28.4249 85.5395 28.4249 85.5395 28.7847C85.1786 29.1445 85.5395 29.5043 85.9004 29.8641C85.9004 30.2239 86.2613 30.2239 86.6222 30.5838C88.0659 31.3034 89.5096 31.6632 91.3142 31.3034C93.1188 30.9436 93.8406 29.5043 93.1188 27.7053C93.1188 27.3455 92.7579 26.6259 92.7579 26.266C92.3969 25.5464 92.036 25.1866 91.6751 24.467C91.3142 24.1072 90.9533 23.7474 90.2314 24.1072C89.8705 24.467 89.5096 24.8268 89.5096 25.1866C89.5096 25.5464 89.8705 26.266 89.8705 26.6259C90.2314 26.9857 90.2314 27.7053 90.5923 28.4249ZM140.038 32.7426C140.038 32.7426 139.677 33.1024 139.316 33.1024C138.594 33.4622 138.234 33.822 137.512 34.1818C137.151 34.5416 136.429 34.9015 136.429 35.2613C135.707 36.3407 136.429 37.0603 137.512 37.0603C139.677 36.7005 141.482 35.6211 142.925 33.822C143.286 33.1024 143.286 32.3828 142.925 31.6632C142.204 30.9436 141.482 30.5838 140.399 30.9436C140.038 31.6632 140.038 32.023 140.038 32.7426ZM102.503 24.1072C102.864 24.467 102.864 25.1866 103.224 25.5464C103.585 26.266 103.224 26.6259 102.503 26.6259C101.781 26.6259 101.059 26.6259 100.337 26.266C99.9762 26.266 99.2544 26.266 99.2544 26.6259C99.2544 26.9857 99.2544 27.3455 99.2544 27.7053C99.2544 28.0651 99.6153 28.0651 99.9762 28.4249C101.42 29.1445 103.585 28.7847 104.668 28.0651C106.834 26.266 105.39 24.1072 103.585 23.3876C103.224 23.3876 102.503 23.3876 102.503 24.1072Z" fill="#451515"/>
<path d="M92.3932 16.1885C88.4231 16.1885 85.5357 17.9875 82.6484 20.5062C82.2875 20.866 82.2875 20.866 81.9266 21.2258C80.8438 23.7444 79.7611 26.2631 79.7611 28.7818C79.7611 30.5808 80.122 32.02 80.8438 33.4593C83.3702 38.1368 86.6185 42.4545 90.9495 45.6928C94.1978 48.2114 97.807 50.0105 101.416 51.4497C105.025 52.8889 108.995 54.3282 112.966 55.0478C114.77 55.4076 116.575 55.4076 118.74 55.7674C118.018 56.1272 117.657 56.487 116.936 56.8468C113.687 58.2861 110.8 60.0851 107.552 61.5244C106.83 61.8842 105.747 62.244 104.664 62.6038C103.943 62.9636 103.221 63.3234 103.221 64.043C105.025 64.4028 106.469 64.043 107.913 63.6832C109.717 63.6832 111.161 63.3234 112.605 62.6038C114.048 61.8842 115.492 61.1645 117.297 60.4449C116.936 63.6832 117.657 66.9215 116.214 69.7999C115.131 70.1598 114.409 69.4401 114.048 68.7205L113.687 68.3607C113.326 68.0009 113.326 67.2813 112.605 67.2813C111.883 67.2813 111.522 67.6411 111.161 68.3607C110.8 68.7205 110.8 69.4401 110.439 69.7999C109.717 70.8794 108.274 71.2392 107.552 70.1598C107.191 69.4401 106.83 68.7205 106.469 68.0009C106.108 67.2813 106.108 66.9215 105.386 66.9215C104.664 66.9215 104.303 67.2813 103.943 67.6411C103.943 68.0009 103.582 68.3607 103.582 68.7205C102.86 69.8 101.777 69.8 101.055 68.7205C100.694 68.3607 100.694 68.0009 100.333 67.6411C99.9725 67.2813 99.9725 66.9215 99.6116 66.9215C99.2506 66.9215 99.2506 67.2813 98.8897 67.6411V68.0009C98.1679 68.0009 97.446 68.3607 96.7242 68.3607C96.3633 67.6411 96.0024 67.2813 95.2805 67.2813C94.5587 67.2813 94.1978 68.0009 94.1978 68.7205V69.0803C93.8369 70.1598 93.4759 71.2392 93.115 72.3186C92.7541 73.0382 92.7541 73.398 92.0323 73.7578C90.9495 73.0382 90.5886 72.6784 89.8668 71.9588C89.5058 71.2392 89.1449 71.2392 88.4231 71.599C88.0622 71.9588 87.7013 72.3186 87.3403 72.6784C86.9794 73.0382 86.9794 73.398 86.6185 73.7578C85.8967 73.7578 85.1748 73.7578 84.8139 73.398C84.453 72.6784 84.0921 71.9588 83.7312 71.2392C83.3702 70.5196 83.0093 70.1598 82.2875 69.7999C81.5656 69.4401 80.8438 69.8 80.4829 70.5196C80.122 70.8794 80.122 70.8794 79.7611 71.2392C79.0392 72.3186 77.9565 71.9588 77.5956 70.8794C77.2346 69.4401 77.2346 68.3607 77.2346 66.9215C77.9565 66.9215 78.3174 66.9215 79.0392 67.2813C80.122 67.2813 81.2047 67.6411 82.2875 67.6411C84.453 68.0009 86.6185 68.0009 89.1449 68.0009C89.8668 68.0009 90.5886 68.0009 90.9495 67.6411C91.6714 67.6411 92.3932 66.5617 92.3932 66.2019C92.3932 65.4822 92.0323 65.1224 91.3104 64.7626C90.9495 64.7626 90.9495 64.4028 90.5886 64.4028C89.5059 64.043 88.4231 64.043 86.9794 64.043C84.0921 63.6832 81.2047 63.6832 78.3174 62.9636C74.7082 62.244 71.099 61.1645 67.8508 59.0057C66.4071 57.9263 64.6025 56.8468 63.1588 55.7674C63.1588 55.4076 63.1588 55.0478 62.7979 55.4076C62.7979 55.0478 62.7979 54.688 62.7979 54.688C62.0761 53.6086 61.3542 52.8889 60.2715 52.1693C60.9933 51.0899 61.7152 50.3703 62.437 49.2909C63.1588 49.6507 63.8807 50.0105 64.9634 50.3703C66.4071 50.7301 66.768 50.3703 67.1289 49.2909C67.4898 48.2114 67.4898 47.4918 67.8508 46.4124C68.2117 44.6133 67.8508 44.2535 66.0462 43.8937C66.4071 43.5339 66.4071 43.1741 66.768 42.4545C66.768 42.0947 67.1289 42.0947 67.1289 41.7349C67.1289 41.3751 67.1289 40.6555 67.4898 40.2956C67.8508 38.8564 67.4898 37.777 67.1289 36.6976C66.4071 35.2583 65.3243 34.1789 63.8807 33.4593C63.8807 33.0995 63.8807 32.7397 63.8807 32.3799C63.8807 31.6602 63.5197 30.9406 63.5197 30.221C63.5197 28.7818 63.5197 27.3425 63.5197 25.9033C63.5197 24.8239 63.8807 24.1043 63.8807 23.0248C63.8807 26.9827 67.4898 29.5014 70.7381 29.5014C72.1818 29.5014 73.9864 29.1416 75.0691 28.0622C79.7611 24.4641 79.4001 18.7071 75.0691 15.4689C74.7082 15.109 74.7082 15.109 74.3473 14.7492C74.7082 14.7492 75.43 15.109 75.791 15.109C76.1519 15.109 76.5128 15.109 76.5128 15.109C76.5128 13.6698 76.8737 12.2306 76.8737 10.7913C77.9565 10.4315 79.0392 10.4315 80.122 10.0717C80.8438 9.71191 81.9266 9.3521 82.6484 10.0717C83.3702 10.0717 83.3702 10.7913 83.0093 11.8708C83.0093 12.2306 83.0093 12.2306 83.0093 12.5904C84.0921 12.5904 85.1748 12.5904 85.8967 12.5904C86.9794 12.5904 88.4231 12.5904 89.5058 12.5904C91.3104 12.9502 92.7541 14.3894 92.3932 16.1885ZM78.3174 52.1693C78.3174 51.0899 77.9565 50.0105 77.9565 48.9311C77.9565 47.8516 76.8737 47.4918 76.1519 47.8516C75.43 48.2114 74.7082 48.2114 74.3473 48.5712C72.9036 49.6507 71.4599 50.3703 70.0163 51.4497C69.2944 52.1693 69.2944 52.8889 70.0163 53.6086C71.8209 55.0478 73.6255 55.7674 76.1519 55.7674C77.2346 55.7674 77.9565 55.0478 78.3174 53.9684C77.9565 53.2488 77.9565 52.5291 78.3174 52.1693ZM77.9565 37.0574C77.2346 37.0574 76.8737 37.0574 76.5128 37.4172C73.9864 38.4966 71.8209 40.2956 70.0163 42.0947C69.2944 42.8143 69.6554 43.5339 70.3772 43.8937C72.5427 44.9732 74.7082 45.6928 77.2346 45.333L77.5956 44.9732C78.6783 42.8143 79.0392 41.0153 79.0392 38.4966C78.3174 38.1368 77.9565 37.4172 77.9565 37.0574Z" fill="#F6C168"/>
<path d="M127.043 84.1973C128.126 84.1973 129.209 84.1973 130.652 84.1973C131.374 84.1973 132.096 84.1973 132.457 84.5571C133.54 85.2767 134.261 86.3561 134.261 87.7954C134.261 89.2346 133.179 90.314 132.096 90.6738C131.374 91.0336 131.013 91.0336 130.291 91.0336C121.99 91.0336 113.328 91.3934 105.027 91.3934C98.8915 91.3934 92.7559 91.3934 86.6202 91.3934C81.2065 91.3934 75.4318 91.3934 70.018 91.3934C69.2962 91.3934 68.2134 91.3934 67.4916 91.3934C67.1307 91.3934 66.4088 91.3934 66.0479 91.0336C64.6042 90.6738 63.5215 89.2346 63.5215 87.7954C63.5215 86.3561 64.6042 84.9169 66.0479 84.5571C67.1307 84.1973 67.8525 84.5571 68.9353 84.1973C68.9353 84.5571 68.9353 84.5571 68.9353 84.9169C69.2962 84.9169 70.018 84.9169 70.3789 84.9169C83.0111 84.9169 95.6432 84.9169 107.914 84.5571C112.245 84.5571 116.937 84.5571 121.268 84.5571C123.073 84.5571 124.878 84.5571 126.321 84.5571C126.682 84.5571 127.043 84.5571 127.043 84.1973Z" fill="#451515"/>
<path d="M62.0811 48.5746C61.3592 49.6541 60.6374 50.3737 59.9156 51.4531C59.1937 52.1727 58.8328 53.2521 58.111 53.9718C57.3891 55.0512 56.6673 55.7708 55.9455 56.8502C55.9455 57.21 55.5846 57.21 55.2236 57.21C54.5018 57.5699 54.1409 57.21 53.78 56.8502C53.419 55.7708 53.78 54.6914 53.78 53.612C53.78 50.7335 54.1409 47.855 54.5018 44.6167C54.1409 44.6167 53.419 44.2569 53.0581 44.2569C50.8926 43.8971 48.7271 43.5373 46.5616 43.1775C45.1179 42.8177 43.3133 42.8177 41.8697 42.4579C40.426 42.0981 39.3432 41.7383 38.2605 41.3785C37.8996 41.3785 37.1777 41.0187 37.1777 40.299C37.1777 39.5794 37.5387 39.2196 37.8996 39.2196C38.6214 38.8598 39.7042 38.5 40.426 38.1402C41.1478 37.7804 42.2306 37.4206 42.9524 37.0608C43.6743 37.0608 44.0352 36.701 44.757 36.701C46.2007 36.3411 47.2834 35.6215 48.7271 35.2617C49.088 35.2617 49.4489 34.9019 50.1708 34.9019C51.9754 34.1823 53.78 33.4627 55.5846 32.7431C56.6673 32.3832 57.3891 32.3832 58.4719 32.0234C59.9156 32.0234 60.9983 32.3832 62.442 32.3832C62.8029 32.3832 63.1638 32.7431 63.8857 32.7431C65.3293 33.4627 66.4121 34.5421 67.1339 35.9813C67.4949 37.0608 67.8558 38.5 67.4949 39.5794C67.4949 39.9392 67.4949 40.6588 67.1339 41.0187C67.1339 41.3785 66.773 41.3785 66.773 41.7383C66.4121 42.0981 66.4121 42.4579 66.0512 43.1775C64.2466 44.6167 63.1638 46.7756 62.0811 48.5746Z" fill="#451515"/>
<path d="M127.041 84.1963C127.041 84.9159 126.68 84.9159 126.32 84.9159C124.515 84.9159 122.71 84.9159 121.267 84.9159C116.936 84.9159 112.244 84.9159 107.913 84.9159C95.2806 84.9159 82.6485 84.9159 70.3773 85.2757C70.0163 85.2757 69.6554 85.2757 68.9336 85.2757C68.9336 84.9159 68.9336 84.5561 68.9336 84.5561C69.6554 83.4767 70.3773 82.3972 71.8209 81.6776C72.1819 81.3178 72.9037 81.3178 73.2646 81.3178C75.0692 81.3178 76.5129 81.3178 78.3175 81.3178C79.0393 81.3178 80.1221 81.3178 80.8439 80.958C81.5657 79.5188 81.2048 78.4393 81.5657 77.0001C81.9266 75.9207 81.9266 74.4814 81.9266 73.0422C82.2876 73.7618 82.2876 74.1216 82.6485 74.8412C83.7312 76.2805 86.2577 77.0001 88.0623 76.2805C88.0623 77.3599 87.7013 78.4393 87.7013 79.5188C87.7013 79.8786 87.7013 80.5982 87.7013 80.958C93.8369 80.958 99.6116 80.958 105.386 80.958C105.386 79.5188 105.386 78.0795 105.386 76.6403C105.386 75.2011 105.386 73.7618 105.386 72.3226C105.747 72.6824 106.108 73.0422 106.469 73.402C108.274 74.8412 111.883 75.2011 112.966 72.3226C112.966 71.9628 113.327 71.9628 113.327 72.3226C112.966 73.402 113.327 74.4814 113.327 75.5609C113.327 77.0001 113.327 78.4393 113.687 79.8786C113.687 80.2384 113.687 80.5982 113.687 81.3178C114.048 81.3178 114.409 81.3178 114.77 81.3178C116.575 81.3178 118.379 81.3178 120.184 81.3178C122.349 80.5982 125.237 81.6776 127.041 84.1963Z" fill="#F6C168"/>
<path d="M63.164 32.3839C62.8031 32.3839 62.4422 32.0241 61.7204 32.0241C61.3594 31.6642 61.3594 30.9446 60.9985 30.5848C60.2767 30.5848 59.9158 30.225 59.5549 29.8652C59.1939 29.5054 59.1939 28.7858 58.4721 28.7858L58.1112 28.426C56.3066 26.6269 54.1411 25.5475 51.6147 25.1877C49.4491 24.8279 46.9227 25.9073 46.2009 27.7064C45.84 28.7858 45.1181 30.225 44.3963 31.3044C44.0354 30.9446 43.6745 30.5848 43.3135 30.5848C42.5917 29.8652 41.8699 29.1456 40.7871 28.0662C41.148 27.3465 41.148 26.9867 41.5089 26.2671C41.5089 25.9073 41.8699 25.5475 41.8699 24.8279C41.8699 24.4681 42.2308 24.4681 42.2308 24.1083C42.9526 22.3092 44.3963 21.2298 46.2009 20.5102C47.2836 20.1504 48.3664 19.7906 49.4491 19.4308C50.171 19.071 51.2537 19.071 51.9756 19.071C53.7802 19.4308 55.2238 19.7906 57.0284 20.1504C57.3893 19.4308 57.7503 18.7111 58.1112 17.9915C59.1939 15.8327 60.2767 14.0336 61.7204 12.5944C62.0813 12.2346 62.4422 11.8748 62.8031 11.515C64.6077 9.71593 67.1341 8.6365 69.2996 7.55707C69.6606 7.55707 70.0215 7.19727 70.3824 7.19727C71.4652 7.19727 72.187 7.19727 73.2697 7.19727C74.3525 7.19727 75.7962 7.55707 76.8789 7.91688C76.8789 8.27669 76.8789 8.99631 76.8789 9.35612C76.8789 10.7954 76.518 12.2346 76.518 13.6738C76.1571 13.6738 75.7962 13.6738 75.7962 13.6738C75.4353 13.6738 74.7134 13.314 74.3525 13.314C72.9088 12.9542 71.8261 12.9542 70.3824 13.314C69.2996 13.6738 68.2169 14.3934 67.1341 15.1131C64.9686 16.9121 63.8859 18.7111 63.525 21.5896C63.525 22.669 63.164 23.3887 63.164 24.4681C63.164 25.9073 63.164 27.3465 63.164 28.7858C63.164 29.5054 63.525 30.225 63.525 30.9446C63.164 31.6643 63.164 32.0241 63.164 32.3839Z" fill="#EDA098"/>
<path d="M70.3772 7.91579C70.0163 7.91579 69.6553 8.2756 69.2944 8.2756C66.768 9.35502 64.6025 10.4344 62.7979 12.2335C62.437 12.5933 62.0761 12.9531 61.7151 13.3129C59.9106 14.7522 58.8278 16.911 58.106 18.71C57.745 19.4297 57.3841 20.1493 57.0232 20.8689C55.2186 20.5091 53.414 20.1493 51.9704 19.7895C51.2485 19.7895 50.1658 19.7895 49.4439 20.1493C48.3612 20.5091 47.2784 20.8689 46.1957 21.2287C44.3911 21.9483 42.9474 23.3876 42.2256 24.8268C42.2256 25.1866 41.8646 25.1866 41.8646 25.5464H41.5037C40.7819 24.467 39.6991 23.3876 38.9773 21.9483C38.6164 21.2287 38.2555 20.5091 38.9773 19.7895C39.3382 19.0699 40.0601 19.0699 40.7819 19.0699C41.1428 19.0699 41.1428 19.0699 41.5037 19.4297C41.5037 19.0699 41.5037 18.71 41.5037 18.3502C41.1428 17.6306 41.1428 16.911 40.7819 16.1914C40.7819 15.112 41.1428 14.3923 42.5865 14.3923C42.9474 14.3923 43.6692 14.3923 44.3911 14.7522C44.3911 13.6727 44.0302 12.9531 44.0302 11.8737C44.0302 10.7943 44.3911 10.0746 45.4738 10.0746C46.1957 10.0746 46.9175 10.7943 47.2784 11.1541C48.7221 12.5933 50.1658 13.6727 51.2485 14.7522C53.7749 13.3129 56.3014 11.8737 58.8278 10.4344C58.4669 9.71483 58.4669 8.99521 58.106 8.2756C57.745 6.83636 57.3841 5.75694 57.0232 4.3177C56.6623 3.59809 57.0232 2.87847 57.745 2.51866C58.4669 2.15885 58.8278 2.51866 59.5496 3.23828C59.9106 3.59809 60.2715 4.3177 60.6324 4.67751C60.9933 5.03732 61.3542 5.75694 61.7151 6.47655C61.7151 6.11675 61.7151 5.75694 61.7151 5.39713C61.7151 4.67751 61.7151 3.59809 62.0761 2.87847C62.0761 2.15885 62.437 1.79904 63.1588 1.43923C63.8807 1.43923 64.6025 1.79904 64.9634 2.51866C65.3243 3.59809 66.0462 4.67751 66.4071 5.75694C66.768 4.3177 66.768 2.87847 67.1289 1.43923C67.1289 1.07943 67.1289 0.719617 67.4898 0.359809C67.4898 0 68.5726 -0.359809 68.9335 0.719617C69.2944 1.07943 69.6553 1.79904 69.6553 2.15885C69.6553 3.95789 70.0163 5.75694 70.3772 7.91579Z" fill="#F6C168"/>
<path d="M120.547 58.6499C121.991 57.5705 123.073 56.8509 124.517 55.7715C125.239 55.0519 126.322 55.0519 127.404 55.0519C129.57 54.692 131.735 54.3322 133.54 53.2528C135.345 52.1734 137.149 50.3743 136.788 47.8557C136.788 47.4959 136.788 46.7763 136.788 46.0566C138.232 46.0566 139.315 45.6968 140.758 45.6968C142.924 45.337 145.089 44.6174 147.255 43.1782C148.698 42.4585 149.42 41.0193 150.142 39.5801C150.864 39.5801 151.225 39.5801 151.947 39.5801C153.029 39.5801 153.751 39.9399 154.473 40.6595C154.834 41.0193 155.195 41.0193 155.556 41.3791C157.36 42.8184 157 44.9772 155.195 46.0566C154.112 46.4164 153.029 47.1361 152.308 47.4959C151.947 47.4959 151.586 47.8557 151.225 48.2155C151.586 48.5753 151.947 48.9351 151.947 49.2949C152.669 50.3743 152.308 51.8136 151.225 52.5332C149.781 53.2528 148.338 53.6126 146.894 53.6126C145.089 53.9724 143.285 53.9724 141.119 54.3322C141.119 54.692 141.119 55.4117 141.119 55.7715C141.119 57.2107 140.397 58.2901 138.954 58.6499C137.51 59.0097 136.066 59.3696 134.623 59.3696C131.735 59.3696 128.487 59.3696 125.6 59.3696C123.795 59.0097 122.351 59.0097 120.547 58.6499Z" fill="#F6C168"/>
<path d="M87.7025 76.276C85.8979 77.3554 83.3715 76.6358 82.2887 74.8368C81.9278 74.1172 81.5669 73.7573 81.5669 73.0377C81.206 73.0377 81.206 73.3975 80.845 73.3975C79.4014 74.8368 76.514 74.477 75.4313 72.3181C75.0704 71.2387 74.7094 70.1593 75.0704 69.0798C75.0704 68.0004 75.0704 67.2808 75.4313 66.2014C69.6566 64.0425 64.6037 60.4444 61.3555 54.6875C61.7164 54.6875 62.0773 54.6875 62.4382 54.6875L62.7991 55.0473C64.2428 56.1267 66.0474 57.2062 67.4911 58.2856C70.7393 60.4444 74.3485 61.8837 77.9577 62.2435C80.8451 62.9631 83.7324 62.9631 86.6197 63.3229C87.7025 63.3229 88.7853 63.6827 90.2289 63.6827C90.5898 63.6827 90.5898 63.6827 90.9508 64.0425C91.6726 64.4023 92.0335 64.7621 92.0335 65.4818C92.0335 66.2014 91.3117 66.921 90.5898 66.921C89.868 66.921 89.1462 67.2808 88.7853 67.2808C86.6197 67.2808 84.4542 66.921 81.9278 66.921C80.8451 66.921 79.7623 66.5612 78.6795 66.5612C78.3186 66.5612 77.5968 66.5612 76.8749 66.2014C76.8749 67.6406 76.8749 69.0798 77.2359 70.1593C77.5968 71.2387 78.6795 71.5985 79.4014 70.5191C79.4014 70.1593 79.7623 70.1593 80.1232 69.7995C80.4841 69.0798 81.206 69.0798 81.9278 69.0798C82.6496 69.4397 83.0106 69.7995 83.3715 70.5191C83.7324 71.2387 84.0933 71.9583 84.4542 72.6779C84.8151 73.3975 85.537 73.3975 86.2588 73.0377C86.6197 72.6779 86.6197 72.3181 86.9807 71.9583C87.3416 71.5985 87.7025 71.2387 88.0634 70.8789C88.7852 70.5191 89.1462 70.8789 89.5071 71.2387C89.868 72.3181 90.2289 72.6779 91.6726 73.0377C92.3944 72.6779 92.7554 72.3181 92.7554 71.5985C93.1163 70.5191 93.4772 69.4396 93.8381 68.3602V68.0004C93.8381 67.2808 94.5599 66.5612 94.9209 66.5612C95.6427 66.5612 96.0036 66.921 96.3645 67.6406C96.3645 68.3602 96.3645 69.0798 96.0036 69.4396C95.6427 71.2387 94.9209 72.6779 93.8381 74.1172C92.7554 75.5564 90.9508 75.5564 89.5071 74.477C89.1462 74.1172 89.1462 74.1172 88.7853 73.7574C88.4243 75.5564 88.0634 75.9162 87.7025 76.276Z" fill="#451515"/>
<path d="M43.3117 30.5816C43.6726 30.9414 44.0335 31.3012 44.3944 31.3012C45.1163 29.862 45.4772 28.7826 46.199 27.7031C46.199 28.7826 45.8381 29.5022 46.199 30.5816C46.199 32.3806 46.9209 33.8199 48.3645 34.8993C46.9209 35.2591 45.8381 35.9787 44.3944 36.3385C43.6726 36.6983 43.3117 36.6983 42.5898 36.6983C42.5898 34.8993 42.5898 33.4601 42.9508 32.0208C43.3117 31.661 43.3117 30.9414 43.3117 30.5816Z" fill="#F6C168"/>
<path d="M113.329 35.6205C112.607 34.5411 111.885 33.4617 111.163 32.3823C110.802 32.0225 110.441 31.3028 110.441 30.943C110.441 30.5832 110.441 30.2234 110.802 29.8636C111.163 29.5038 111.524 29.5038 111.885 29.8636C112.246 30.2234 112.968 30.2234 113.329 30.5832C114.411 31.6626 115.494 33.1019 116.216 34.9009C116.577 35.9804 116.216 37.0598 115.494 37.7794C114.772 38.1392 114.05 38.8588 112.968 38.8588C111.163 39.2186 109.719 39.2186 107.915 38.499C107.554 38.499 107.554 38.1392 107.193 38.1392C106.832 37.7794 106.832 37.4196 106.832 37.4196C106.832 37.0598 107.193 37.0598 107.554 37.0598C108.637 36.7 110.08 36.7 111.163 36.7C111.885 36.3402 112.607 35.9804 113.329 35.6205Z" fill="#EDA098"/>
<path d="M92.7539 39.939C94.5585 39.5792 96.724 40.2988 97.8068 38.4998C97.4458 37.7802 97.0849 37.4204 96.724 36.7007C96.3631 35.9811 96.3631 35.6213 96.3631 34.9017C96.3631 34.1821 96.724 33.8223 97.4458 33.8223C97.8068 33.8223 98.5286 33.8223 98.8895 34.1821C100.333 35.2615 101.055 36.7007 101.416 38.14C101.777 39.939 100.694 41.0184 98.8895 41.7381C97.4458 42.4577 94.5585 42.0979 92.7539 39.939Z" fill="#EDA098"/>
<path d="M124.876 25.1855H125.237C127.402 25.9052 129.207 27.3444 129.568 29.5032C129.929 31.3023 129.568 32.3817 127.763 33.4611C126.68 33.821 125.598 34.1808 124.515 34.5406C123.793 34.9004 123.071 34.5406 123.071 33.821C122.71 33.1013 123.071 32.3817 123.793 32.0219C124.515 31.6621 125.237 31.3023 125.959 31.3023C127.402 30.9425 127.402 30.5827 126.68 29.1434C125.959 28.064 125.237 26.6248 124.876 25.1855Z" fill="#EDA098"/>
<path d="M112.969 45.3346C114.412 45.3346 115.856 45.3346 116.939 45.3346C117.661 45.3346 118.383 44.9748 118.743 44.9748C119.465 44.615 119.826 44.2552 119.465 43.5356C119.465 42.816 119.104 42.4562 119.104 41.7365C119.104 41.3767 118.743 40.6571 118.743 39.9375C119.104 39.9375 119.465 39.9375 119.465 40.2973C120.187 41.0169 121.27 41.7365 121.631 42.4562C122.714 43.8954 122.353 45.3346 121.27 46.4141C120.548 47.1337 119.465 47.4935 118.383 47.8533C116.939 47.8533 115.134 47.8533 113.691 47.1337C112.969 46.7739 112.969 46.4141 112.969 45.3346Z" fill="#EDA098"/>
<path d="M90.588 28.4242C90.2271 27.7046 90.2271 26.985 89.8662 26.2654C89.8662 25.9055 89.5053 25.5457 89.5053 24.8261C89.5053 24.4663 89.8662 23.7467 90.2271 23.7467C90.588 23.3869 91.3098 23.7467 91.6708 24.1065C92.0317 24.4663 92.3926 25.1859 92.7535 25.9055C93.1144 26.2654 93.1144 26.6252 93.1144 27.3448C93.4754 29.1438 92.7535 30.5831 91.3098 30.9429C89.8662 31.3027 88.0616 30.9429 86.6179 30.2232C86.257 30.2232 86.257 29.8634 85.8961 29.5036C85.5352 29.1438 85.5352 28.784 85.5352 28.4242C85.8961 28.0644 86.257 28.0644 86.6179 28.0644C87.7007 28.4242 88.4225 28.4242 89.5053 28.4242C89.8662 28.4242 90.2271 28.4242 90.588 28.4242Z" fill="#EDA098"/>
<path d="M140.035 32.746C140.035 32.3862 140.035 32.0264 140.035 31.6665C141.118 31.3067 141.84 31.6665 142.562 32.3862C142.922 33.1058 143.283 33.8254 142.562 34.545C141.479 36.3441 139.674 37.4235 137.148 37.7833C136.065 37.7833 135.704 37.0637 136.065 35.9842C136.426 35.6244 136.787 35.2646 137.148 34.9048C137.87 34.545 138.231 34.1852 138.952 33.8254C139.674 33.1058 140.035 32.746 140.035 32.746Z" fill="#EDA098"/>
<path d="M102.501 24.1083C102.862 23.3887 103.222 23.3887 103.944 23.3887C105.749 23.7485 106.832 26.2671 105.027 28.0662C103.944 29.1456 101.418 29.5054 100.335 28.426C99.9742 28.426 99.9742 28.0662 99.6133 27.7064C99.6133 27.3466 99.6133 26.9868 99.6133 26.6269C99.9742 26.2671 100.335 26.2671 100.696 26.2671C101.418 26.2671 102.14 26.6269 102.862 26.6269C103.583 26.6269 103.944 26.2671 103.583 25.5475C102.862 25.1877 102.501 24.4681 102.501 24.1083Z" fill="#EDA098"/>
<path d="M63.1602 21.9478C63.5211 19.4291 64.6038 17.2703 66.7693 15.4712C67.8521 14.7516 68.9348 14.032 70.0176 13.6722C71.4613 13.3124 72.544 13.3124 73.9877 13.6722C74.3486 14.032 74.3486 14.3918 74.7095 14.3918C79.4015 17.6301 79.4015 23.387 74.7095 26.9851C73.2659 28.0645 71.8222 28.4244 70.3785 28.4244C66.7693 28.4244 63.5211 26.2655 63.1602 21.9478ZM65.6866 21.9478C65.6866 25.1861 68.213 26.9851 71.1004 26.2655C72.544 25.9057 73.9877 23.7468 73.6268 21.588C73.2659 18.7095 70.7394 17.2703 67.8521 17.9899C66.4084 18.3497 65.3257 20.5086 65.6866 21.9478Z" fill="#F9F5E7"/>
<path d="M78.3206 52.1749C78.3206 52.8945 77.9597 53.6141 77.9597 54.3337C77.5988 55.4131 77.2378 56.1328 75.7942 56.1328C73.6287 56.1328 71.4632 55.4131 69.6586 53.9739C68.9367 53.2543 68.9367 52.5347 69.6586 51.815C71.1022 50.7356 72.5459 49.6562 73.9896 48.9366C74.7114 48.5768 75.0723 48.217 75.7942 48.217C76.516 47.8572 77.5988 48.217 77.5988 49.2964C77.9597 50.016 77.9597 50.7356 78.3206 52.1749Z" fill="#F9F5E7"/>
<path d="M77.9597 37.0625C78.3206 37.7821 78.3206 38.1419 78.3206 38.5017C78.3206 40.6606 77.9596 42.8194 76.8769 44.9783C76.8769 44.9783 76.8769 45.3381 76.516 45.3381C73.9896 45.6979 71.824 44.9783 69.6585 43.8989C68.9367 43.5391 68.9367 42.8194 69.2976 42.0998C71.1022 40.3008 73.2677 38.5017 75.7941 37.4223C76.8769 37.0625 77.2378 37.0625 77.9597 37.0625Z" fill="#F9F5E7"/>
<path d="M62.0762 48.5749C63.1589 46.7758 64.6026 44.9768 65.6854 43.1777C67.4899 43.1777 67.8509 43.8974 67.4899 45.6964C67.129 46.7758 67.129 47.4954 66.7681 48.5749C66.4072 50.0141 65.6853 50.3739 64.6026 49.6543C63.5198 49.2945 62.798 48.9347 62.0762 48.5749Z" fill="#F9F5E7"/>
<path d="M48.3647 34.901C46.9211 33.8215 46.1992 32.3823 46.1992 30.5833C46.1992 29.5038 46.1992 28.4244 46.1992 27.7048C46.9211 25.9057 49.4475 24.8263 51.613 25.1861C54.1394 25.5459 56.3049 26.6254 58.1095 28.4244L58.4704 28.7842C58.4704 29.8636 58.1095 30.9431 58.1095 31.6627C57.0268 32.0225 56.3049 32.3823 55.2222 32.3823C55.2222 31.3029 55.5831 30.5833 55.2222 29.5038C54.5003 26.9852 50.8912 26.2656 49.0866 27.7048C47.6429 29.144 47.282 31.6627 48.7256 33.4617C49.0866 33.8215 49.0866 34.1813 49.4475 34.5412C49.0866 34.5412 48.7256 34.901 48.3647 34.901Z" fill="#F9F5E7"/>
<path d="M49.4475 34.5406C49.0866 34.1808 49.0866 33.821 48.7257 33.4612C47.282 31.6621 47.6429 29.1435 49.0866 27.7042C50.5303 26.265 54.1395 26.9846 55.2222 29.5033C55.5831 30.5827 55.2222 31.6621 55.2222 32.3817C53.4176 33.1014 51.613 33.821 49.4475 34.5406ZM50.5303 33.1014C51.2521 33.1014 51.9739 32.3817 51.9739 31.3023C51.9739 30.5827 51.2521 29.8631 50.5303 29.8631C49.8084 29.8631 49.0866 30.5827 49.0866 31.6621C49.0866 32.3817 49.8084 33.1014 50.5303 33.1014Z" fill="#CA5769"/>
<path d="M58.1074 31.6636C58.1074 30.5842 58.4683 29.5048 58.4683 28.7852C59.1902 28.7852 59.5511 29.5048 59.912 29.8646C60.2729 30.2244 60.9948 30.5842 61.3557 30.5842C61.7166 30.944 61.7166 31.6636 62.0775 32.0234C60.6338 32.0234 59.1902 32.0234 58.1074 31.6636Z" fill="#F6C168"/>
<path d="M65.6855 21.9479C65.6855 20.5087 66.4074 18.3498 68.212 17.99C71.0993 17.2704 73.2648 18.7096 73.9867 21.5881C74.3476 23.747 72.9039 25.9058 71.4602 26.2656C68.212 27.345 65.6855 25.1862 65.6855 21.9479ZM67.4901 21.9479C67.1292 23.3872 67.1292 24.1068 67.8511 24.4666C68.5729 24.8264 69.2947 24.8264 69.6556 24.1068C70.0166 23.747 70.0166 22.6675 69.6556 21.9479C69.2947 21.5881 68.5729 21.5881 67.4901 21.9479Z" fill="#CA5769"/>
<path d="M50.5277 33.1035C49.8058 33.1035 49.084 32.3839 49.084 31.6643C49.084 30.5849 49.8058 29.8652 50.5277 29.8652C51.2495 29.8652 51.9713 30.5849 51.9713 31.3045C52.3322 32.0241 51.6104 33.1035 50.5277 33.1035Z" fill="#451515"/>
<path d="M67.4912 21.9495C68.574 21.5897 69.2958 21.5897 70.0177 21.9495C70.3786 22.3094 70.3786 23.3888 70.0177 24.1084C69.6567 24.4682 68.9349 24.828 68.2131 24.4682C67.1303 23.7486 67.1303 23.3888 67.4912 21.9495Z" fill="#451515"/>
</svg>
