<svg width="148" height="122" fill="none" xmlns="http://www.w3.org/2000/svg"><path d="M117.974 12.791c.614.084 9.633-4.36 9.633-4.36.205-.493-9.464-4.07-9.464-4.07-.615-1.035-1.662-1.805-1.205-2.937 1.373-1.47 1.807-1.662 2.939-1.205-.783-.349 13.245 5.684 13.245 5.684 0-.482 10.633-4.817 10.633-4.817a2.083 2.083 0 012.962 1.12c1.373 2.072 0 2.409-1.107 2.963.626.156-11.031 4.985-11.031 4.985 1.108-.29-4.443 12.68-4.443 12.68a2.866 2.866 0 01-2.673 1.674c-2.842-.434-2.252-1.205-1.867-2.252l3.336-9.55c-.831.964-9.116 4.131-9.116 4.131-2.263 1-2.589-.289-2.962-1.108-1.565-1.637-.012-2.42 1.12-2.938zM5.443 112.721c.686-.144 8.598-8.309 8.598-8.309 0-.602-11.633-.734-11.633-.734-1.06-.867-2.408-1.289-2.408-2.685.903-2.084 1.289-2.409 2.685-2.409l16.28 1.108c-.228-.494 9.502-9.176 9.502-9.176a2.409 2.409 0 013.612.073c2.252 1.685.951 2.6-.06 3.612.747-.072-9.838 9.513-9.838 9.513 1.06-.735.084 15.209.084 15.209a3.239 3.239 0 01-2.203 2.793c-3.204.614-2.842-.385-2.854-1.698l-.073-11.427c-.517 1.336-8.14 7.863-8.14 7.863-2.035 1.927-2.866.674-3.612 0-2.312-1.337-.952-2.757.06-3.733zM103.536 49.549c.373-.843 1.421-1.084 2.035-1.205h.265c.614 0 3.817-.806 6.948-1.625-1.108-.903-3.528-2.613-5.768-4.118l-.169-.109-.072-.204a5.034 5.034 0 00-.241-.65 2.412 2.412 0 010-2.47l.145-.144c1.337-.975 2.047-1.312 3.191-.445v.072-.072.072c.65.361 1.903 1.313 4.624 3.36l4.299 3.239a66.686 66.686 0 018.887-1.987 2.324 2.324 0 011.818.289c.5.365.841.908.951 1.517a2.408 2.408 0 010 2.023c-.386.546-.995.89-1.662.94-.65.36-2.649.854-9.103 2.119-.325.975-1.59 3.3-5.804 9.404a2.891 2.891 0 01-2.409 1.205 1.3 1.3 0 01-.662-.133c-1.132-.446-1.662-.843-1.83-1.385a1.65 1.65 0 01.373-1.42l.133-.217 3.444-5.768c-2.011.541-5.118 1.083-6.274 1.276a2.517 2.517 0 01-1.987-.193 2.12 2.12 0 01-.783-1.541v-.072a2.022 2.022 0 01-.349-1.758zM66.989 39.972c.216-.879 1.324-1.445 1.999-1.77l.18-.096h.12c.675-.229 4.119-1.975 7.467-3.745-1.494-.446-4.685-1.204-7.623-1.794h-.229l-.12-.157c-.145-.18-.301-.337-.458-.506-.517-.517-1.204-1.204-.686-2.191l.12-.18c1.277-1.301 1.987-1.843 3.517-1.446v.084-.084.084c.818.12 2.504.554 6.117 1.494l5.695 1.384a94.634 94.634 0 019.562-4.696 3.3 3.3 0 012.131-.337 2.131 2.131 0 011.481 1.048c.507.446.73 1.135.578 1.794-.24.71-1.023 1.084-1.65 1.385h-.072c-.638.53-2.781 1.637-9.778 4.889-.108.987-.951 3.48-4.154 10.331a3.781 3.781 0 01-2.408 1.927 2.261 2.261 0 01-.783.108c-1.397 0-2.107-.228-2.409-.65-.3-.421-.144-.951 0-1.397l.097-.24 2.408-6.298c-2.143 1.204-5.527 2.649-6.791 3.203a3.612 3.612 0 01-2.3.481 1.866 1.866 0 01-1.3-1.12 1.541 1.541 0 01-.711-1.505zM44.641 69.82c.602-.854 1.939-.938 2.746-.986H47.723c.76.072 4.914-.205 8.984-.542-1.204-1.204-4.022-3.48-6.61-5.515l-.206-.169v-.229a7.76 7.76 0 00-.204-.758 2.324 2.324 0 01.325-2.698l.205-.132c1.83-.82 2.77-1.06 4.082.084l-.073.072.073-.072-.073.072c.747.518 2.18 1.782 5.287 4.504l4.9 4.299a92.487 92.487 0 0111.464-.578 3.347 3.347 0 012.24.638c.564.448.913 1.112.963 1.83.293.736.194 1.57-.265 2.216a2.926 2.926 0 01-2.24.723h-.072c-.867.264-3.468.445-11.764.686-.566 1-2.517 3.311-8.755 9.212a3.865 3.865 0 01-3.239.939 1.734 1.734 0 01-.819-.253c-1.348-.698-1.95-1.204-2.083-1.842a1.674 1.674 0 01.687-1.493l.204-.205 5.226-5.684c-2.625.229-6.599.265-8.08.265a3.612 3.612 0 01-2.468-.554 2.276 2.276 0 01-.747-1.83v-.084a1.963 1.963 0 01-.024-1.915z" fill="#F5F1E8"/></svg>