<svg width="111" height="63" fill="none" xmlns="http://www.w3.org/2000/svg"><g clip-path="url(#clip0)"><path d="M110.609 51.93l-.73-1.456c-.974-1.941-1.217-1.941-3.164-2.184h-2.435c-.243-.485-.486-.728-.73-1.213.73-.243 1.217-.485 1.948-.485.243.242.486.242.73.485.487.243.974.243 1.217 0 .243-.243.243-.97 0-1.456-.243-.243-.73-.728-1.217-.97-.487-.243-.73-.243-1.217-.243-.974.485-1.948.728-2.678 1.213-.243 0-.487.243-.73.485-.487 0-.974 0-1.461-.242V44.65c.487-.242.731-.485 1.217-.728.244-.242.487-.485.244-.728 0-.242-.487-.485-.974-.485-.73.485-1.46.97-2.19 1.213-.244 0-.244.486-.487.728 0 .243-.244.728-.244.97-1.217.244-2.677.244-3.408 1.7-.243-.728-.486-1.214-.73-1.7.244-.727.73-.97 1.217-1.455.487-.486.487-.728.244-.97-.244-.243-.487-.243-.974 0-.974.484-1.46 1.213-1.948 1.94-.243.243 0 .729 0 1.214h-1.703c0-.243-.244-.485-.244-.485l1.46-1.456c.244-.243.487-.486.244-.971s-.73 0-.974 0c-.973.242-1.703.728-2.19 1.456-.244.728-.244 1.213 0 1.699.243.242.243.485.487.97-.487 0-.487.243-.73.486-.974 0-1.948-.243-2.922-.243-.243-.728-.73-1.213-1.704-1.456 0-.728-.243-1.456-.973-2.184.243-.243.243-.486.487-.486 1.703.971 3.164.729 4.868 0 1.217-.727 1.947-1.456 2.19-2.669-.73 0-1.46.243-2.19.243-1.217 1.213-2.434 1.456-3.165.485-.486-.728-.486-1.699.244-2.184.974-.97 1.947-.728 2.92.243.731-.243 1.461-.243 2.435-.485-.243-1.7-2.678-2.427-4.382-2.427-.973 0-1.703.728-2.434 1.213-.73.486-.973 1.456-.973 2.184-1.704 1.214-2.191 2.427-1.218 3.64-.243.97.244 1.942 1.218 2.427 0 1.213.73 1.456 1.704 1.941 0 .971.73 1.214 1.46 1.456.73.243 1.46.243 2.434.243 0 .243.244.243.487.728-.73.243-1.46.728-2.19.97-.244.243-.73.243-.974.486-.487.243-.73.728-.487.97.243.486.73.486 1.217.486 1.217-.485 2.19-.97 3.164-1.699.244-.242.73-.485 1.217-.242-.486.485-.973.97-1.217 1.698-.243.243-.486.486-.486.971-.244.485 0 .97.486.97.487 0 .974 0 1.217-.242.974-1.213 1.948-2.184 2.678-3.397.73-.486 1.217-.728 1.947-1.214-.243.486-.243.728-.486.971-.244.728-.73 1.456-.974 2.184 0 .243-.243.485-.243.728s.243.485.486.728c.244.243.487 0 .73-.243.244-.242.244-.485.487-.485a22.161 22.161 0 011.704-3.397l1.46.728c-.243.97-.73 1.698-.973 2.426-.243.486-.243.971.244 1.456.486.486.73.728 1.217.971.487.243.973.243 1.46-.243.487-.485.487-.97 0-1.456l-.487-.485c-.243 0-.243-.243-.486-.485 0-.728.243-1.456.243-2.184h1.947c0 .485.244 1.213.244 1.698.243.728.73 1.214 1.46 1.456 1.217.971 2.678.971 4.382.971.243 0 .243 0 .73-.728-1.704-1.456-3.408-2.427-5.112-3.64.487-.97.487-.97 1.461-.728l4.381 1.456c.487.243.731.243 1.217.243v-.486zM48.294 10.92c-1.704.243-3.651.728-5.355.97-2.19.486-4.382.729-6.572 1.214-2.191.243-4.625.728-6.816.97-2.678.486-5.355.486-7.79.486H8.13c-1.704 0-3.408 0-4.868.97-1.217.486-2.191 1.457-2.921 2.67-.487 1.213-.487 2.184.243 3.155.73 1.213 1.948 2.184 3.408 2.67 1.46.485 2.921.97 4.382 1.213.243 0 .486.242.73.242v1.213c.243.971.974 1.942 1.947 2.427 1.46.97 2.921 1.456 4.382 1.699.973.243 1.704.243 2.677.243v1.213c-.243 1.699.73 2.912 2.191 3.64 1.217.728 2.678 1.213 4.138 1.213.73 0 1.46 0 1.948.486.973.728 1.703 1.213 2.677 1.941 0 .243.244.485.244.728 0 1.941 0 3.64.243 5.581 0 .971.244 1.7.974 2.427.73.97 1.46 1.214 2.677.728.487-.242.73-.485 1.217-.728.244-.242.244-.242.244 0 .73 1.942 3.408 1.699 4.381.728l.73-.728s0-.242.244-.242c.243 0 .243.242.487.242 2.19 1.214 3.895-.242 3.895-2.184v-.242c-.244-.243-.244-.486-.487-.486-.244 0-.487.243-.487.486-.244.242-.244.485-.487.727-.487.729-1.217.729-1.704 0-.243-.242-.243-.485-.243-.727-.244-.486-.487-.729-.974-.486-.487 0-.73.243-.73.728l-.73 1.456c-.487.728-1.461.485-1.948-.242-.243-.243-.243-.728-.487-.971-.243-.486-.486-.728-.973-.728s-.487.242-.73.728c0 .242-.244.242-.244.242-.487.486-.73.971-1.46.729-.974-1.942-.73-4.126-.73-6.31 1.216.485 2.19.97 3.164 1.456.973.485 2.19.485 3.164.728.974 0 2.19.485 3.165.243-.244-.728-.73-.97-.974-.97-.73-.244-1.217-.486-1.948-.729-2.19-.97-4.381-2.184-6.328-3.155-.244-.242-.73-.485-1.217-.728 1.46-.242 2.677-.242 3.894-.485 2.678-.485 5.355-1.213 7.79-2.427 2.434-.97 4.868-2.184 7.059-3.882 2.92-2.184 5.112-5.097 6.816-8.251.486-.97.73-1.942.73-3.155 0-1.941-.73-3.397-1.46-5.096 0-.243-.244-.243-.488-.485-2.434-1.942-4.625-2.912-7.059-3.155zM34.176 24.024c.487.485.974.485 1.46.485.73 0 1.704.243 2.435.243.243 0 .486.243.486.243 0 .242 0 .485-.243.485 0 .243-.243.243-.487.243-1.217.242-2.19.485-3.408.242-.486 0-1.217-.485-1.703-.727-.73-.486-.73-1.214-.487-1.942.486-.97.973-1.941 1.947-2.912.243-.243.73-.485.974-.485h.73c.243.242.243.485.243.728 0 .242-.243.728-.486.97-.487.971-.974 1.7-1.461 2.427zm13.875 2.912c-1.217 1.456-3.165 1.699-4.382 1.213-1.217-.485-1.704-1.213-1.704-2.426.244-.97.73-1.941 1.704-2.67.244-.242.487-.242.974-.242s.73.242.73.728c0 .485-.243.728-.243 1.213-.244.486-.487.728-.73 1.213.973 1.457 2.434.729 3.65.971zm-21.664-9.95c-.487.971-.73 1.942-1.218 2.67-.486.97-.243.97.487 1.456.487.243.974.243 1.46.485.488.243.731.728.488 1.214-.244.485-.487.485-.974.485-.73-.243-1.46-.243-2.19-.728-1.218-.728-1.461-1.456-1.218-2.67.487-1.698 1.46-2.426 2.921-2.911h.244zm8.032 13.59c0 .728 0 .97-.73 1.214-.974.485-1.947.485-3.164.485-.73 0-1.46-.485-1.948-.97-.73-.729-.973-1.7-.243-2.67l1.46-1.456s.244 0 .487-.243c-.243.486-.243.728-.243 1.213 0 .486-.244.729-.244 1.214s0 .728.487.97c.487.243.73.243 1.217.243h2.921zm15.092-11.405c.244 0 .487.242.73.242.73 0 1.218 0 1.948-.242.487 0 .73 0 .73.242.244.243 0 .486-.243.728 0 .243-.244.243-.487.486-.974.485-1.947.728-3.164.485-1.218-.243-1.704-1.213-1.218-2.427 0-.242.244-.728.244-.97.243-.486.487-.728.73-1.214.244-.242.487-.485.974-.242.243.242.487.485.487.728 0 .242-.244.728-.244.97-.243.243-.243.728-.487 1.214zm-33.348 2.912s.243.242.487.242c.487.243.73.486 1.217.728.243.243.73.486.73.729.487.727 0 1.213-.73 1.213-1.46-.243-2.678-.97-3.651-2.184a1.542 1.542 0 010-1.456c.487-.486.973-.728 1.704-.486.243.486.243.728.243 1.214zm25.316-5.824c-.244.242-.244.728-.487.97-.244.486 0 .728.487.728.486 0 .973 0 1.46-.242.243 0 .73 0 .73.242v.728c0 .243-.243.243-.486.486-.974.485-2.435.242-3.165-.243-1.46-1.213-.487-2.67.73-3.155.244 0 .73 0 .73.486z" fill="#451515"/><path d="M48.295 10.917c2.677 0 4.625 1.214 6.572 2.912l.487.486c.73 1.698 1.46 3.397 1.46 5.096 0 1.213-.243 2.184-.73 3.154-1.704 3.155-3.895 6.067-6.816 8.251-2.19 1.699-4.625 2.912-7.059 3.883-2.434.97-5.112 1.941-7.79 2.427-1.216.242-2.433.242-3.894.485.487.243.73.485 1.217.728 2.191.97 4.138 2.184 6.33 3.155.486.242 1.216.485 1.947.728.486.242.973.485.973.97-1.217.243-2.19 0-3.164-.242-1.217 0-2.191-.243-3.165-.728-.973-.486-1.947-.97-3.164-1.456.243 2.184-.244 4.368.73 6.31.73.242 1.217-.243 1.46-.729l.244-.242c.243-.243.243-.728.73-.728s.73.242.974.728c.243.242.243.728.487.97.487.728 1.46.97 1.947.243l.73-1.456c.244-.486.244-.728.73-.728.488 0 .73.242.974.485 0 .243.244.486.244.728.487.728 1.217.728 1.704 0 .243-.242.243-.485.486-.728.244-.242.244-.485.487-.485.244 0 .244.242.487.485v.243c.487 0 .974.243 1.46.243.244-.486.488-.728.974-.728.487 0 .73.485.73.97v.243c.244.728.488 1.456.73 2.184.244.485.244.728.731.97.73-.485.974-.727 1.46-1.213.244-.485.488-.485.974-.242l.73.728c.244.242.244.485.487.728.487 0 .974 0 1.218-.243l.73-1.456c.243-.485.487-.728.973-.97.487-.243.974 0 1.218.485l.486.485c.487.728 1.218.485 1.46-.243.244-.97.244-1.698.244-2.67-.486 0-.73 0-1.217.244-.73 0-1.46.242-2.19.242-1.461.243-2.922.243-4.625.243-.487 0-.974 0-1.218-.243-.486 0-.973-.728-.973-.97 0-.486.243-.729.73-.971.243 0 .243-.243.487-.243.73-.242 1.46-.242 2.434-.242 1.947-.243 3.895-.243 5.842-.728 2.434-.486 4.868-1.214 7.06-2.67.973-.728 2.19-1.456 3.164-2.184 0-.243 0-.485.243-.243v-.485a5.677 5.677 0 011.704-1.699c-.487-.728-.974-1.213-1.46-1.941-.487.243-.974.485-1.704.728-.974.243-1.218 0-1.461-.728-.243-.728-.243-1.213-.487-1.941-.243-1.214 0-1.456 1.217-1.699-.243-.243-.243-.485-.487-.97 0-.243-.243-.243-.243-.486s0-.728-.243-.97c-.244-.971 0-1.7.243-2.427a4.77 4.77 0 012.19-2.184v-.729c0-.485.244-.97.244-1.456V17.47c0-.728-.243-1.213-.243-1.94 0 2.668-2.434 4.367-4.625 4.367-.974 0-2.19-.242-2.921-.97-3.165-2.427-2.921-6.31 0-8.494l.487-.485c-.244 0-.73.242-.974.242h-.487c0-.97-.243-1.941-.243-2.912-.73-.242-1.46-.242-2.191-.485-.487-.243-1.217-.485-1.704 0-.487 0-.487.485-.243 1.213v.486h-4.382c-1.217.242-2.19 1.213-1.947 2.426zm9.493 24.267c0-.728.244-1.456.244-2.184 0-.728.73-.97 1.217-.728.486.243.973.243 1.217.486.973.728 1.947 1.213 2.92 1.941.487.485.487.97 0 1.456-1.216.97-2.434 1.456-4.137 1.456-.73 0-1.218-.485-1.461-1.213.244-.486.244-.97 0-1.214zm.244-10.192c.486 0 .73 0 .973.243 1.704.728 3.165 1.941 4.382 3.155.486.485.243.97-.244 1.213-1.46.728-2.92 1.213-4.625.97l-.243-.242c-.73-1.456-.974-2.67-.974-4.368.487-.243.73-.728.73-.97z" fill="#F6C168"/><path d="M24.926 56.787h-2.434c-.487 0-.974 0-1.217.243-.73.485-1.217 1.213-1.217 2.184 0 .97.73 1.699 1.46 1.941.487.243.73.243 1.217.243 5.599 0 11.44.242 17.04.242H65.09c.243 0 .73 0 .974-.242.973-.243 1.704-1.214 1.704-2.184 0-.97-.73-1.941-1.704-2.184-.73-.243-1.217 0-1.948-.243v.486h-.973c-8.52 0-17.04 0-25.316-.243H25.413c-.244 0-.487 0-.487-.243zM68.74 32.76c.486.729.973 1.214 1.46 1.942.487.485.73 1.213 1.217 1.699.487.728.974 1.213 1.46 1.94 0 .244.244.244.487.244.487.242.73 0 .974-.243.243-.728 0-1.456 0-2.184 0-1.941-.243-3.883-.487-6.067.243 0 .73-.242.974-.242l4.381-.729c.974-.242 2.191-.242 3.165-.485a30.72 30.72 0 002.434-.728c.243 0 .73-.243.73-.728s-.243-.728-.487-.728c-.487-.243-1.217-.485-1.704-.728-.486-.243-1.217-.485-1.703-.728-.487 0-.73-.243-1.218-.243-.973-.242-1.704-.728-2.677-.97-.244 0-.487-.243-.974-.243l-3.651-1.456c-.73-.243-1.217-.243-1.948-.485-.973 0-1.704.242-2.677.242-.244 0-.487.243-.974.243a4.769 4.769 0 00-2.19 2.184c-.244.728-.487 1.699-.244 2.427 0 .242 0 .728.243.97 0 .243.244.243.244.486.243.242.243.485.487.97 1.217.971 1.947 2.427 2.677 3.64z" fill="#451515"/><path d="M24.929 56.786c0 .485.243.485.487.485H37.83c8.52 0 17.04 0 25.316.243h.973v-.486c-.487-.727-.974-1.456-1.947-1.94-.244-.244-.73-.244-.974-.244H57.79c-.487 0-1.217 0-1.704-.242-.486-.97-.243-1.699-.486-2.67-.244-.728-.244-1.698-.244-2.669-.243.485-.243.728-.487 1.213-.73.971-2.434 1.456-3.651.971 0 .728.243 1.456.243 2.184v.97H39.534V51.69v-2.912l-.73.728c-1.218.97-3.652 1.213-4.382-.728 0-.243-.243-.243-.243 0 .243.728 0 1.456 0 2.184 0 .97 0 1.941-.244 2.912v.97h-4.381c-1.46-.485-3.408.243-4.625 1.942z" fill="#F6C168"/><path d="M68.01 21.84c.243 0 .486-.242.973-.242.244-.243.244-.728.487-.97.487 0 .73-.244.974-.486.243-.243.243-.728.73-.728l.243-.243a7.56 7.56 0 014.382-2.184c1.46-.243 3.164.485 3.651 1.699.244.728.73 1.698 1.217 2.426.244-.242.487-.485.73-.485l1.705-1.699c-.244-.485-.244-.728-.487-1.213 0-.243-.244-.485-.244-.97 0-.243-.243-.243-.243-.486-.487-1.213-1.46-1.941-2.678-2.427l-2.19-.728c-.487-.242-1.218-.242-1.704-.242-1.218.242-2.191.485-3.408.728l-.73-1.456c-.73-1.456-1.461-2.67-2.435-3.64l-.73-.728c-1.217-1.214-2.921-1.942-4.382-2.67-.243 0-.486-.242-.73-.242h-1.947c-.73 0-1.704.242-2.434.485v.97c0 .971.243 1.942.243 2.913h.487c.243 0 .73-.243.974-.243.973-.243 1.703-.243 2.677 0 .73.243 1.46.728 2.191 1.213 1.46 1.214 2.19 2.427 2.434 4.368 0 .728.244 1.214.244 1.942v2.912c0 .485-.244.97-.244 1.456.244.485.244.728.244.97z" fill="#EDA098"/><path d="M63.143 5.339c.243 0 .487.242.73.242 1.704.728 3.165 1.456 4.382 2.67l.73.728c1.217.97 1.947 2.427 2.434 3.64l.73 1.456c1.218-.243 2.435-.485 3.408-.728.487 0 1.218 0 1.704.243l2.191.728c1.217.485 2.19 1.456 2.678 2.426 0 .243.243.243.243.486h.244c.486-.728 1.217-1.456 1.703-2.427.244-.485.487-.97 0-1.456-.243-.486-.73-.486-1.217-.486-.243 0-.243 0-.486.243v-.728c.243-.485.243-.97.486-1.456 0-.728-.243-1.213-1.217-1.213-.243 0-.73 0-1.217.242 0-.728.244-1.213.244-1.94 0-.729-.244-1.214-.974-1.214-.487 0-.974.485-1.217.728-.974.97-1.947 1.698-2.678 2.426-1.704-.97-3.408-1.94-5.111-2.912.243-.485.243-.97.486-1.456.244-.97.487-1.698.73-2.669.244-.485 0-.97-.486-1.213-.487-.243-.73 0-1.217.485-.244.243-.487.728-.73.97-.244.243-.487.729-.73 1.214V3.64c0-.485 0-1.213-.244-1.699 0-.485-.244-.728-.73-.97-.487 0-.974.242-1.218.728-.243.728-.73 1.456-.973 2.184-.244-.971-.244-1.942-.487-2.912 0-.243 0-.486-.244-.728 0-.243-.73-.486-.973.242-.244.243-.487.728-.487.971 0 1.213-.244 2.427-.487 3.883zM29.307 39.557c-.974-.728-1.704-1.214-2.678-1.942-.487-.485-1.217-.485-1.947-.485-1.46-.242-2.921-.485-4.138-1.213-1.218-.728-2.435-1.942-2.191-3.64v-1.214c-.974 0-1.704-.242-2.678-.242-1.46-.243-2.92-.728-4.381-1.699-.974-.485-1.46-1.456-1.948-2.427H8.13c-.73 0-1.217.243-1.704.728-.243.243-.487.243-.73.486-1.217.97-.974 2.426.243 3.154.73.243 1.461.728 1.948.971.243 0 .487.243.73.485-.243.243-.487.486-.487.728-.487.728-.243 1.7.487 2.184.974.486 1.947.729 2.921.729 1.217.242 2.434.242 3.895.485v.97c0 .971.487 1.7 1.46 1.942.974.242 1.948.485 2.921.485H25.9c1.217-.242 2.19-.242 3.408-.485z" fill="#F6C168"/><path d="M51.459 51.445c1.217.728 2.921.243 3.651-.97.244-.486.487-.729.487-1.214.243 0 .243.243.487.243.974.97 2.92.728 3.651-.728.244-.728.487-1.456.244-2.184 0-.728 0-1.214-.244-1.942 3.895-1.456 7.303-3.883 9.493-7.765h-.73l-.243.242c-.974.728-2.19 1.456-3.165 2.184-2.19 1.456-4.625 2.427-7.059 2.67-1.947.485-3.895.485-5.842.728-.73 0-1.46.242-2.434.242-.243 0-.243 0-.487.243-.487.243-.73.485-.73.97 0 .486.487.972.974.972.486 0 .973.242 1.217.242 1.46 0 2.92-.242 4.625-.242.73 0 1.46-.243 2.19-.243.244 0 .73 0 1.218-.243 0 .97 0 1.942-.244 2.67-.243.728-.974.97-1.46.242 0-.242-.244-.242-.487-.485-.244-.485-.73-.485-1.217-.485-.487.242-.73.485-.974.97l-.73 1.456c-.244.486-.73.486-1.217.243-.244-.243-.244-.485-.487-.728l-.73-.728c-.487-.243-.73 0-.974.243-.244.728-.487.97-1.46 1.213-.487-.243-.73-.485-.73-.97l-.731-2.185v-.242c0-.486-.487-.971-.73-.971-.487 0-.73.243-.974.728 0 .485 0 .97.243 1.213.244 1.214.73 2.184 1.46 3.155.731.97 1.948.97 2.922.243l.487-.486c.243 1.214.486 1.456.73 1.699z" fill="#451515"/><path d="M81.398 20.625c-.243.243-.487.485-.73.485-.487-.97-.73-1.698-1.217-2.426 0 .728.243 1.213 0 1.941 0 1.213-.487 2.184-1.46 2.912.973.243 1.703.728 2.677.97.486.243.73.243 1.217.243 0-1.213 0-2.184-.244-3.154-.243-.243-.243-.728-.243-.971z" fill="#F6C168"/><path d="M34.175 24.026l1.46-2.184c.244-.243.488-.728.488-.971s0-.485-.244-.728c-.243-.243-.487-.243-.73 0-.244.243-.73.243-.974.485a8.725 8.725 0 00-1.947 2.912c-.244.728 0 1.456.487 1.942.486.242.973.728 1.703.728 1.218.242 2.191.242 3.408-.243.244 0 .244-.243.487-.243.244-.242.244-.485.244-.485 0-.243-.244-.243-.487-.243-.73-.242-1.704-.242-2.434-.242l-1.46-.728zM48.05 26.936c-1.216-.243-2.677.243-3.407-.97.243-.486.487-.729.73-1.214.244-.485.244-.728.244-1.213 0-.486-.244-.729-.73-.729-.244 0-.73 0-.974.243-.974.728-1.46 1.699-1.704 2.67-.244 1.213.487 1.941 1.704 2.426.973.486 2.92.243 4.138-1.213zM26.389 16.986h-.244c-1.46.486-2.677 1.456-2.92 2.912-.244 1.214 0 1.942 1.216 2.67l2.191.728c.487.242.974 0 .974-.486.243-.485 0-.97-.487-1.213-.487-.243-.974-.485-1.46-.485-.974-.243-.974-.486-.487-1.456.486-.728.973-1.699 1.217-2.67zM34.418 30.576H31.74c-.486 0-.973-.243-1.217-.243-.487-.243-.73-.485-.487-.97 0-.486.244-.729.244-1.214 0-.243.243-.728.243-1.213-.243 0-.487 0-.487.242-.486.486-1.217.97-1.46 1.456-.73.97-.487 1.942.243 2.67.487.485 1.217.728 1.948.97.973 0 2.19 0 3.164-.485.487-.243.487-.485.487-1.213zM49.512 19.171c.243-.485.243-.97.487-1.456 0-.242.243-.485.243-.97 0-.243-.243-.729-.486-.729-.244-.242-.73 0-.974.243s-.487.728-.73 1.214c-.244.242-.244.485-.244.97-.243 1.214.243 2.184 1.217 2.427.974.243 2.191 0 3.165-.485.243 0 .243-.243.486-.486.244-.242.244-.485.244-.728-.244-.242-.487-.242-.73-.242-.73.242-1.217.242-1.948.242h-.73zM16.165 22.087v-.728c-.73-.243-1.217 0-1.704.485-.244.486-.487.97 0 1.456.73 1.214 1.947 1.942 3.651 2.184.73 0 .974-.485.73-1.213l-.73-.728c-.487-.243-.73-.485-1.217-.728l-.73-.728zM41.478 16.259c-.243-.486-.486-.486-.973-.486-1.217.243-1.948 1.942-.73 3.155.73.728 2.434.97 3.164.243.243 0 .243-.243.487-.485v-.729c-.244-.242-.487-.242-.73-.242-.487 0-.974.242-1.461.242-.487 0-.73-.242-.487-.727.487-.243.73-.729.73-.971z" fill="#EDA098"/><path d="M68.012 14.803c-.244-1.7-.974-3.155-2.434-4.369-.73-.485-1.461-.97-2.191-1.213-.974-.243-1.704-.243-2.678 0-.243.243-.243.485-.487.485-3.164 2.184-3.164 6.067 0 8.494.974.728 1.948.97 2.921.97 2.434 0 4.625-1.456 4.869-4.368zm-1.704 0c0 2.183-1.704 3.397-3.652 2.912-.973-.243-1.947-1.7-1.703-3.155.243-1.942 1.947-2.912 3.894-2.427.974.243 1.704 1.699 1.46 2.67zM57.787 35.19c0 .485.243.97.243 1.456.244.728.487 1.213 1.46 1.213 1.461 0 2.922-.485 4.139-1.456.487-.485.487-.97 0-1.456-.974-.728-1.947-1.456-2.921-1.941-.487-.243-.73-.485-1.217-.485-.487-.243-1.217 0-1.217.728-.244.485-.244.97-.487 1.941zM58.03 24.996c-.244.485-.244.728-.244.97 0 1.457.243 2.913.974 4.369 0 0 0 .242.243.242 1.704.243 3.164-.242 4.625-.97.487-.243.487-.728.243-1.213-1.217-1.214-2.677-2.427-4.381-3.155-.73-.243-.974-.243-1.46-.243zM68.744 32.761c-.73-1.213-1.704-2.427-2.434-3.64-1.217 0-1.46.485-1.217 1.699.243.728.243 1.213.487 1.941.243.97.73 1.213 1.46.728.73-.242 1.217-.485 1.704-.728zM77.989 23.54c.973-.728 1.46-1.699 1.46-2.912v-1.941c-.487-1.214-2.19-1.942-3.651-1.7a7.561 7.561 0 00-4.382 2.185l-.243.243c0 .728.243 1.456.243 1.941.73.243 1.218.485 1.948.485 0-.728-.244-1.213 0-1.941.487-1.699 2.92-2.184 4.138-1.213.974.97 1.217 2.669.243 3.882-.243.243-.243.486-.487.728.244 0 .487.243.73.243z" fill="#F9F5E7"/><path d="M77.26 23.297c.244-.243.244-.486.487-.728.974-1.213.73-2.912-.243-3.883-.974-.97-3.408-.485-4.138 1.213-.244.729 0 1.456 0 1.942 1.217.485 2.434.97 3.894 1.456zm-.73-.97c-.487 0-.973-.486-.973-1.214 0-.485.486-.97.973-.97s.974.485.974 1.212c0 .486-.487.971-.974.971z" fill="#CA5769"/><path d="M71.42 21.355c0-.728-.243-1.456-.243-1.94-.487 0-.73.484-.974.727s-.73.485-.974.485c-.243.243-.243.728-.487.971.974 0 1.948 0 2.678-.243z" fill="#F6C168"/><path d="M66.309 14.803c0-.97-.487-2.427-1.704-2.67-1.948-.485-3.408.486-3.895 2.427-.243 1.456.73 2.912 1.704 3.155 2.19.728 3.895-.728 3.895-2.912zm-1.218 0c.244.97.244 1.456-.243 1.698-.487.243-.974.243-1.217-.242-.243-.243-.243-.97 0-1.456.243-.243.73-.243 1.46 0z" fill="#CA5769"/><path d="M76.532 22.327c.487 0 .974-.486.974-.971 0-.728-.487-1.213-.974-1.213s-.974.485-.974.97c-.243.486.244 1.214.974 1.214zM65.09 14.803c-.73-.243-1.216-.243-1.703 0-.244.243-.244.97 0 1.456.243.243.73.485 1.217.243.73-.485.73-.728.487-1.699z" fill="#451515"/></g><defs><clipPath id="clip0"><path transform="matrix(-1 0 0 1 110.609 0)" fill="#fff" d="M0 0h110.609v62.049H0z"/></clipPath></defs></svg>