<svg xmlns="http://www.w3.org/2000/svg" viewBox="0 0 240.21 152.18"><defs><style>.cls-1{fill:#f5f1e8;}.cls-2{fill:#d25b73;}</style></defs><title>Asset 4Eye2</title><g id="Layer_2" data-name="Layer 2"><g id="Layer_1-2" data-name="Layer 1"><path class="cls-1" d="M47.1,141.37C40.62,139.52,9.33,128.28,5,123.17-1.74,115.9-.35,108,1.63,99.72,4.22,88.84,9.51,79.16,14.71,69.43c6.37-11.9,38.83-37.57,45.38-41.28,5.36-3,21.57-19.11,46.33-25.3,25.56-6.39,52.34,0,52.45,0h0c.11,0,24.78,8.48,34.53,14C199,20,235,42.75,238.28,50.89c2.92,7.15,2.31,14.17-.41,21.25-2.16,5.62-39.8,46.13-46.21,51.08h0a1.37,1.37,0,0,1-2.27-1.17c.41-4.18.82-8.87.24-11.61-5.11-24.21-25.84-41.58-51.82-42.25-15.61-.39-28.91,5.3-40.29,15.65C80.74,99.11,73,118.41,70.47,140c-.38,3.34-1.37,5.64-4.67,5C60.09,143.84,50,142.19,47.1,141.37Z"/><path class="cls-2" d="M72.21,147.61c-2.28-.55-3.26-.55-5.54-2.5C66.35,126.76,81,99.36,98.91,83.05c11.38-10.35,24.68-16,40.28-15.65,26,.67,46.71,18,51.82,42.25a52.2,52.2,0,0,1,1.11,11.43,4.42,4.42,0,0,1-1.3,3c-4.12,4.2-12.18,10.06-18.71,14.08a105.45,105.45,0,0,1-23.84,10.68,9,9,0,0,1-1.54.32c-13.44,1.49-23.37,4.43-50.68,2.11C93.57,151,77,148.75,72.21,147.61Z"/></g></g></svg>