<svg width="99" height="101" viewBox="0 0 99 101" fill="none" xmlns="http://www.w3.org/2000/svg">
<path d="M65.7488 25.9477C65.601 27.8782 65.3054 29.9571 65.4532 31.8876C65.4532 32.0361 65.3054 32.1846 65.3054 32.3331C65.1576 32.3331 65.0098 32.4816 64.8621 32.4816C64.7143 32.4816 64.4187 32.3331 64.2709 32.3331C62.6453 32.3331 61.4631 33.3725 61.1675 34.8575C61.0197 35.4515 61.0197 36.0455 61.0197 36.491C61.0197 37.9759 61.0197 39.3124 61.0197 40.7974C61.1675 41.5398 61.1675 42.2823 61.3153 43.1733C61.4631 44.0643 61.4631 44.8068 61.4631 45.6978C61.4631 45.8463 61.3153 45.9947 61.3153 45.9947C59.8374 45.1038 59.8374 45.1038 58.2118 44.8068C57.4729 44.9553 56.8818 45.2523 56.2906 45.6978C55.6995 46.1432 55.4039 46.7372 55.4039 47.6282C55.4039 48.9647 55.4039 50.1527 55.6995 51.4891C56.4384 54.3106 57.0296 57.132 57.9163 59.9534C58.064 60.3989 58.064 60.6959 58.2118 61.1414C56.5862 62.1809 56.5862 62.1809 55.1084 63.8144C54.5172 65.1508 54.3695 66.4873 54.8128 67.9723C55.2562 69.7542 55.8473 71.5362 56.734 73.1696C57.6207 74.8031 58.6552 76.2881 59.8374 77.6245C59.9852 78.664 59.8374 79.555 59.9852 80.446C60.5764 80.446 61.1675 80.2975 61.7586 80.5945C62.9409 81.337 63.532 82.5249 63.532 84.0099C63.532 84.6039 63.6798 85.1979 63.8276 85.6434C63.8276 85.9404 63.9754 86.3858 63.9754 86.6828C63.9754 88.4648 63.9754 90.2468 63.9754 92.0287C63.9754 92.4742 63.8276 92.9197 63.8276 93.2167C63.8276 93.3652 63.8276 93.6622 63.8276 93.8107C63.9754 93.9592 63.9754 93.9592 63.9754 93.9592C64.7143 93.9592 65.3054 93.9592 66.0443 94.1077C66.3399 93.9592 66.4877 93.8107 66.7832 93.8107C68.4089 93.6622 70.1823 93.2167 71.8079 93.3652C72.6946 93.3652 73.4335 93.0682 74.1724 92.6227C75.2069 92.0287 75.6502 90.6922 75.2069 89.5043C75.0591 89.2073 74.9113 89.0588 74.6158 88.9103C74.1724 88.6133 73.5813 88.3163 72.9901 88.3163C71.069 88.3163 69.1478 88.3163 67.2266 88.3163C66.7832 88.3163 66.1921 88.6133 65.7488 88.6133C65.601 88.6133 65.4532 88.4648 65.1576 88.4648C65.4532 88.0193 65.601 87.7223 65.8965 87.2768C66.7832 85.9404 67.8177 84.6039 68.7044 83.4159C70.0345 82.6734 71.2167 82.5249 72.5468 82.5249C75.798 82.5249 78.9015 82.5249 82.1527 82.6734C83.335 82.6734 84.3695 82.5249 85.5517 82.2279C86.2906 82.0794 87.0296 81.7824 87.7685 81.337C88.3596 81.04 88.803 80.5945 89.2463 80.0005C89.2463 79.852 89.3941 79.7035 89.5419 79.4065C90.2808 77.773 89.6897 76.2881 88.6552 75.1001C88.064 74.3576 87.4729 73.9121 86.734 73.4666C86.1429 73.1696 85.4039 72.8727 84.8128 72.5757C84.3695 72.4272 83.9261 72.4272 83.7783 71.8332C83.9261 71.6847 83.9261 71.5362 84.0739 71.3877C85.5517 70.0512 87.0296 68.8632 88.5074 67.5268C89.0985 67.0813 89.5419 66.4873 89.9852 66.0418C91.0197 65.1508 91.4631 63.9628 91.1675 62.6264C91.1675 62.4779 91.0197 62.1809 91.0197 61.8839C90.5764 60.9929 89.8374 60.3989 88.803 60.1019C88.5074 60.1019 88.064 59.9534 87.9163 59.5079C88.2118 59.0625 88.5074 58.914 88.6552 58.617C89.5419 57.5775 90.5764 56.6865 91.4631 55.647C92.0542 55.053 92.6453 54.3106 93.0887 53.5681C93.6798 52.5286 94.5665 51.4891 95.1576 50.4496C95.7488 49.1132 95.601 47.6282 95.601 46.2917C95.1576 45.2523 94.4187 44.8068 93.532 44.5098C92.6453 44.3613 91.6108 44.5098 90.8719 44.2128C90.8719 43.6188 91.0197 43.3218 91.3153 43.0248C92.6453 41.6883 93.6798 40.0549 94.8621 38.5699C95.4532 37.8274 95.7488 36.9365 96.1921 36.194C96.931 34.5605 96.3399 33.0755 94.7143 32.1846C94.5665 32.0361 94.4187 32.0361 94.1232 31.8876C94.1232 31.7391 94.1232 31.5906 94.1232 31.4421C94.5665 30.6996 95.1576 30.1056 95.601 29.3631C95.7488 29.2146 95.7488 29.2146 95.8966 29.0661C96.4877 28.0267 97.0788 26.9872 97.67 25.9477C98.1133 25.2052 98.2611 24.3142 98.5567 23.5718C98.8522 22.6808 99 21.7898 99 20.8988C99 20.4533 99 20.0078 99 19.7108C98.5567 18.2259 97.67 17.1864 96.4877 16.5924C95.4532 16.1469 94.5665 15.5529 93.6798 14.9589C93.3842 14.5135 93.3842 14.068 93.532 13.771C93.9754 12.7315 94.2709 11.5435 94.4187 10.504C94.7143 9.01908 95.1576 7.68261 95.1576 6.34614C95.1576 5.15817 95.0099 3.97019 94.5665 2.78222C94.1232 2.18823 93.532 1.59425 92.7931 1.14876C91.9064 0.851762 91.1675 1.00026 90.2808 1.00026C89.5419 1.00026 88.6552 1.00026 88.2118 1.00026C86.1429 1.74274 85.1084 3.37621 83.9261 4.56418C83.6305 4.71268 83.4828 4.56418 83.335 4.41568C83.0394 4.11869 82.7438 3.6732 82.4483 3.37621C82.0049 3.22771 81.5616 3.07921 81.1182 2.93072C80.3793 2.63372 79.7882 2.78222 79.0493 3.07921C78.3103 3.5247 77.7192 4.11869 77.2759 4.86117C76.5369 6.19764 76.0936 7.68261 75.6502 9.31607C75.2069 10.801 75.0591 12.4345 74.7635 13.9195C74.6158 14.8104 74.3202 15.7014 74.3202 16.5924C74.3202 17.3349 74.0246 17.9289 73.8768 18.6714C73.7291 19.4138 74.0246 20.0078 73.7291 20.7503C73.5813 20.7503 73.4335 20.7503 73.2857 20.6018C72.6946 19.8593 72.2512 19.1169 71.2167 18.5229C70.4778 18.3744 69.5911 18.3744 68.7044 18.5229C67.5222 19.1169 66.931 20.1563 66.6355 21.3443C66.4877 22.0868 66.1921 22.6808 66.0443 23.4233L65.7488 25.9477ZM72.9901 54.0136C73.1379 54.1621 73.2857 54.1621 73.4335 54.3106C73.7291 54.3106 74.0246 54.4591 74.1724 54.4591C74.468 54.3106 74.7635 54.3106 74.9113 54.1621C75.3547 53.5681 75.6502 52.9741 75.798 52.3801C75.798 52.2316 75.798 52.2316 75.6502 52.0831C75.3547 51.7861 75.0591 51.4891 74.7635 51.1921C73.1379 49.5587 71.6601 47.6282 70.7734 45.5493C69.7389 43.3218 69 41.0944 68.7044 38.5699C68.7044 38.2729 68.7044 37.9759 68.5566 37.6789C68.1133 36.491 68.2611 35.1545 68.4089 33.818C68.5566 32.4816 70.0345 31.5906 71.2167 32.1846C72.6946 32.7785 73.7291 33.6695 74.6158 34.8575C75.3547 35.897 76.0936 36.788 76.5369 37.8274C76.6847 38.1244 76.9803 38.4214 77.2759 38.8669C77.4236 38.7184 77.4236 38.5699 77.5714 38.4214C78.0148 36.491 78.4581 34.5605 79.4926 32.7785C79.6404 32.4816 79.7882 32.1846 79.6404 31.5906C79.0493 30.8481 78.4581 29.8086 78.0148 28.7691C77.2759 26.9872 76.6847 25.2052 76.6847 23.2748C76.6847 21.6413 76.6847 20.1563 76.6847 18.5229C76.6847 18.0774 76.6847 17.6319 76.8325 17.1864C77.1281 16.1469 77.4236 14.9589 77.7192 14.068C78.0148 13.6225 78.3103 13.3255 78.9015 13.0285C79.4926 12.88 80.3793 12.88 81.1182 13.3255C81.266 13.6225 81.5616 14.068 81.7094 14.365C81.8571 14.662 82.0049 15.2559 82.5961 15.2559C82.8916 14.8104 82.7438 14.365 82.7438 13.771C82.8916 13.177 83.0394 12.7315 83.1872 12.1375C83.6305 10.504 84.0739 8.87058 84.9606 7.38562C85.5517 6.34614 86.4384 5.90065 87.6207 5.75215C88.064 5.75215 88.6552 5.75215 89.0985 5.90065C89.8374 6.79163 90.133 7.53411 90.4286 8.42509C90.5764 12.583 90.5764 11.395 89.5419 14.5135C89.0985 15.7014 88.6552 16.7409 88.2118 17.9289C86.734 20.8988 85.8473 24.0172 85.1084 27.1357V27.2842C85.4039 27.5812 85.8473 27.4327 86.2906 27.7297C86.734 27.8782 87.1773 28.1751 87.6207 28.4721C87.9163 28.9176 88.064 29.3631 88.3596 29.8086C88.3596 30.8481 88.3596 31.8876 88.3596 32.7785C88.064 33.3725 87.7685 33.818 87.6207 34.412C87.3251 35.303 87.0296 36.0455 86.4384 36.6395C86.2906 36.788 86.1429 37.0849 85.9951 37.3819C84.665 40.0549 83.0394 42.4308 81.4138 44.8068C80.9704 45.4008 80.5271 45.9947 79.7882 46.4402C79.4926 46.5887 79.197 46.5887 79.0493 46.8857C78.9015 47.4797 78.9015 47.9252 79.0493 48.5192C79.0493 48.6677 79.3448 48.8162 79.6404 48.8162C80.3793 48.3707 80.9704 47.4797 82.1527 47.3312C82.7438 47.3312 83.6305 47.1827 84.3695 47.4797C84.5172 47.6282 84.665 47.6282 84.665 47.7767C85.8473 48.8162 86.1429 50.0042 85.4039 51.4891C84.9606 52.3801 84.5172 53.2711 83.9261 54.0136C83.0394 55.2015 82.3005 56.538 81.4138 57.726C80.8227 58.4685 80.2315 59.211 79.3448 59.5079C79.4926 60.3989 79.4926 61.2899 79.7882 62.1809C79.936 62.6264 79.936 63.0719 79.6404 63.6659C79.0493 64.1113 78.4581 64.2598 77.7192 64.2598C76.5369 64.2598 75.5025 64.2598 74.3202 64.2598C73.8768 64.2598 73.4335 64.2598 72.9901 64.4083C72.9901 64.7053 72.8424 65.1508 72.5468 65.2993C71.9557 65.8933 71.6601 66.4873 71.2167 67.2298C70.9212 67.6753 70.6256 68.2692 70.4778 68.7147C70.1823 69.3087 69.8867 69.6057 69.4433 70.0512C69.1478 70.1997 69 70.3482 68.8522 70.4967C68.8522 70.7937 68.8522 70.9422 68.8522 71.2392C68.8522 71.5362 69 71.8332 69.4433 71.8332C69.5911 71.6847 69.8867 71.3877 70.1823 71.2392C70.9212 70.4967 71.6601 69.9027 72.5468 69.4572C72.8424 69.3087 72.9901 69.1602 73.2857 69.0117C74.0246 68.4177 74.9113 68.1208 75.6502 67.8238C77.1281 67.6753 78.1626 68.1208 78.9015 69.4572C78.9015 69.7542 78.9015 69.9027 78.9015 70.1997C78.9015 70.4967 78.9015 70.9422 78.9015 71.3877C78.6059 71.8332 78.4581 72.4272 78.0148 72.8727C77.5714 73.4666 76.9803 74.0606 76.2414 74.5061C75.2069 75.1001 74.1724 75.8426 73.2857 76.4366C70.7734 78.07 68.2611 79.555 65.601 80.8915C65.3054 81.04 65.0098 81.1885 64.7143 81.1885C63.6798 80.743 63.6798 80.743 63.6798 79.7035C64.8621 78.2185 64.8621 78.2185 65.1576 76.8821C65.1576 76.7336 65.0098 76.4366 65.0098 76.2881C63.532 73.6151 62.4975 70.7937 61.3153 67.9723C60.5764 66.0418 59.8374 64.1113 60.2808 61.5869C60.4286 60.8444 61.1675 59.9534 62.3498 59.3594C62.7931 59.3594 63.3842 59.3594 63.9754 59.3594C63.9754 58.7655 63.8276 58.023 64.1231 57.2805C64.4187 56.9835 64.8621 56.538 65.3054 56.0925C65.3054 55.4985 65.1576 54.9045 65.3054 54.4591C65.601 53.2711 65.8965 52.0831 66.1921 51.0436C66.4877 50.3012 66.931 49.7072 67.6699 49.2617C68.4089 48.8162 69.2956 48.6677 70.1823 48.9647C70.9212 49.5587 71.6601 50.1527 72.1034 51.0436C72.6946 51.7861 72.9901 52.9741 72.9901 54.0136Z" fill="#988FC1"/>
<path d="M66.1915 93.8105C65.4525 93.8105 64.8614 93.8105 64.1225 93.662L63.9747 93.5135C63.9747 93.365 63.9747 93.2165 63.9747 92.9195C63.9747 92.4741 64.1225 92.0286 64.1225 91.7316C64.1225 89.9496 64.1225 88.1677 64.1225 86.3857C64.1225 86.0887 63.9747 85.6432 63.9747 85.3462C63.8269 84.7522 63.8269 84.1582 63.6791 83.7128C63.6791 82.2278 63.088 81.1883 61.9057 80.2973C61.3146 80.0003 60.7235 80.1488 60.1324 80.1488C59.8368 80.4458 59.5412 80.7428 59.2457 81.0398C58.9501 81.3368 58.9501 81.7823 58.5067 82.0793C58.2112 82.0793 58.2112 81.9308 58.0634 81.7823C57.3245 79.7033 56.29 77.7729 55.2555 75.8424C53.9255 73.318 52.2998 70.7935 50.6742 68.4176C50.2309 67.8236 49.7875 67.3781 49.1964 66.7841C48.9008 66.4871 48.4575 66.1901 48.0141 65.7446C47.5708 65.7446 47.1274 65.5962 46.6841 65.7446C45.9452 65.8931 45.354 66.1901 44.9107 66.7841C44.3195 67.6751 44.3195 68.5661 44.9107 69.6056C45.0585 69.9026 45.2062 70.0511 45.354 70.348C47.423 72.8725 49.1964 75.5454 50.6742 78.5154C51.7087 80.4458 52.5954 82.5248 53.6299 84.4552C53.9255 85.1977 54.221 85.9402 54.221 86.6827C54.221 86.8312 54.3688 86.8312 54.3688 86.9797C54.221 86.9797 54.221 86.8312 54.0732 86.8312C53.9255 86.8312 53.6299 86.6827 53.4821 86.6827C52.7432 86.0887 51.8565 85.4947 51.1176 84.9007C49.6397 83.7127 48.1619 82.3763 46.6841 81.3368C45.0585 80.2973 43.5806 79.1094 41.5117 78.8124C40.4772 79.1094 39.4427 79.2578 38.8516 80.4458C38.8516 80.5943 38.7038 81.0398 38.7038 81.3368C38.7038 81.7823 38.7038 82.2278 38.7038 82.5248C39.1471 83.2673 39.7383 83.8612 40.3294 84.3067C41.3639 85.0492 42.3984 85.7917 43.4328 86.6827C43.7284 86.9797 44.024 87.2767 44.3195 87.5737C44.7629 87.7222 45.0585 87.8707 45.354 88.1677C46.3885 89.2071 47.5708 89.9496 48.6053 90.8406C49.0486 91.1376 49.492 91.5831 49.7875 92.0286C50.6742 93.068 51.5609 94.1075 52.4476 95.2955C53.7777 96.929 54.9599 98.5624 55.9944 100.196C57.7678 100.493 59.2457 100.493 60.5757 100.047C62.3491 99.4534 64.1225 99.1564 65.8959 98.5624C66.0437 98.5624 66.1915 98.5624 66.3392 98.5624C67.6693 98.4139 68.556 97.6714 68.8516 96.1865C68.556 94.7015 67.5215 94.1075 66.1915 93.8105Z" fill="#CCDC97"/>
<path d="M56.4375 99.7504C55.2552 97.9684 54.073 96.4835 52.8907 94.85C52.004 93.8105 51.1173 92.6226 50.2306 91.5831C49.935 91.1376 49.4917 90.8406 49.0483 90.3951C47.8661 89.5041 46.8316 88.7616 45.7971 87.7222C45.5015 87.4252 45.0582 87.2767 44.7626 87.1282C44.0237 87.1282 43.2848 87.1282 42.3981 87.2767C41.807 87.2767 41.2158 87.4252 40.7725 87.7222C38.9991 88.9101 38.7035 90.9891 40.4769 92.4741C40.6247 92.6225 40.7725 92.6225 40.7725 92.771C42.3981 93.662 44.0237 94.7015 45.7971 95.444C48.0139 96.335 50.2306 97.5229 52.5951 98.5624C53.3341 98.8594 54.2208 99.1564 54.9597 99.4534C55.403 99.7504 55.8464 99.7504 56.4375 99.7504Z" fill="#988FC1"/>
<path d="M79.3449 59.6563C80.2316 59.3593 80.8228 58.6168 81.4139 57.8744C82.3006 56.6864 83.0395 55.3499 83.9262 54.1619C84.5174 53.4195 84.9607 52.38 85.4041 51.6375C86.143 50.1525 85.8474 48.9646 84.8129 47.7766C84.6651 47.6281 84.5174 47.6281 84.5174 47.4796C83.7784 47.1826 83.0395 47.3311 82.3006 47.3311C81.1183 47.4796 80.5272 48.3706 79.7883 48.8161C79.4927 48.8161 79.1972 48.6676 79.1972 48.5191C79.0494 47.9251 79.0494 47.3311 79.1972 46.8856C79.3449 46.5886 79.6405 46.5886 79.9361 46.4401C80.675 46.1431 81.1183 45.5491 81.5617 44.8067C83.1873 42.4307 84.8129 40.0548 86.143 37.3818C86.2908 37.0848 86.4385 36.7878 86.5863 36.6393C87.1775 35.8969 87.473 35.1544 87.7686 34.4119C87.9164 33.8179 88.2119 33.3724 88.5075 32.7784C88.5075 31.8874 88.5075 30.848 88.5075 29.8085C88.3597 29.363 88.0642 28.9175 87.7686 28.472C87.3252 28.3235 86.8819 28.0265 86.4385 27.7295C85.9952 27.581 85.5518 27.7295 85.2563 27.284V27.1356C85.9952 24.0171 87.0297 20.8987 88.3597 17.9288C88.9509 16.8893 89.3942 15.7013 89.6898 14.5133C90.5765 11.3949 90.5765 12.5829 90.4287 8.42497C90.1331 7.53399 89.8376 6.79151 89.0986 6.34602C88.6553 6.04903 88.0642 6.19752 87.6208 6.19752C86.4385 6.34602 85.5518 6.79151 84.9607 7.83099C84.074 9.31595 83.6307 10.9494 83.1873 12.5829C83.0395 13.1769 82.8917 13.6224 82.744 14.2163C82.5962 14.6618 82.8917 15.2558 82.5962 15.7013C82.005 15.7013 82.005 15.2558 81.7095 14.8103C81.5617 14.5133 81.2661 14.0678 81.1183 13.7709C80.3794 13.3254 79.4927 13.4739 78.9016 13.4739C78.3105 13.7709 78.1627 14.0678 77.7193 14.5133C77.4238 15.4043 77.1282 16.5923 76.8326 17.6318C76.6848 18.0773 76.6848 18.5227 76.6848 18.9682C76.6848 20.6017 76.6848 22.0867 76.6848 23.7201C76.6848 25.6506 77.276 27.581 78.0149 29.2145C78.4582 30.254 78.9016 31.2935 79.6405 32.0359C79.7883 32.6299 79.6405 32.9269 79.4927 33.2239C78.4582 35.0059 78.0149 36.9363 77.5715 38.8668C77.5715 39.0153 77.4238 39.0153 77.276 39.3123C76.9804 39.0153 76.6848 38.7183 76.5371 38.2728C75.9459 37.2333 75.207 36.1938 74.6159 35.3029C73.7292 33.9664 72.5469 33.0754 71.2169 32.6299C69.8868 32.1844 68.5568 32.9269 68.409 34.2634C68.2612 35.5999 68.1134 36.7878 68.5568 38.1243C68.7045 38.4213 68.7045 38.7183 68.7045 39.0153C69.0001 41.3912 69.739 43.7672 70.7735 45.9946C71.808 48.2221 73.138 50.004 74.7637 51.6375C75.0592 51.9345 75.3548 52.2315 75.6504 52.5285C75.6504 52.5285 75.6504 52.677 75.7981 52.8255C75.6504 53.4195 75.3548 54.0134 74.9114 54.6074C74.7637 54.6074 74.4681 54.7559 74.1725 54.9044C74.6159 55.0529 75.0592 55.3499 75.5026 55.4984C75.9459 55.7954 76.3893 56.0924 76.8326 56.5379C76.9804 56.2409 76.9804 55.7954 77.1282 55.4984C78.4582 52.974 80.3794 51.0435 82.8917 49.707C83.1873 49.8555 83.3351 49.8555 83.4829 50.004C83.4829 50.7465 83.3351 51.3405 83.0395 51.786C82.3006 52.974 81.5617 54.3104 80.675 55.3499C79.9361 56.2409 79.1972 57.2804 78.0149 57.8744C78.4582 58.1713 78.9016 58.9138 79.3449 59.6563ZM70.7735 34.8574C70.9213 34.8574 71.0691 34.8574 71.0691 35.0059C72.5469 36.1938 74.0247 37.5303 74.7637 39.3123C75.5026 41.0942 76.3893 42.8762 76.3893 44.9551C76.3893 45.1036 76.3893 45.4006 76.5371 45.5491C76.9804 47.4796 76.9804 48.0736 76.6848 50.1525C76.0937 50.004 76.0937 50.004 75.9459 49.8555C75.5026 49.2616 75.0592 48.6676 74.6159 48.2221C72.5469 45.4006 71.0691 42.2822 70.7735 38.7183C70.7735 38.4213 70.7735 38.1243 70.6257 37.8273C70.3302 36.9363 70.3302 36.1938 70.478 35.3029C70.478 35.3029 70.6257 35.1544 70.7735 34.8574ZM80.2316 42.2822C79.9361 42.1337 79.9361 41.9852 79.9361 41.9852C79.7883 40.9457 79.7883 39.9063 80.0839 38.8668C80.3794 37.5303 80.9706 36.1938 81.4139 34.8574C82.005 33.3724 83.0395 32.0359 84.074 30.848C84.2218 30.551 84.6651 30.4025 84.8129 30.254C85.4041 30.1055 85.6996 30.1055 86.143 30.551C86.4385 31.442 86.2908 32.3329 85.8474 33.2239C85.1085 34.5604 84.5174 35.8969 83.7784 37.0848C82.5962 38.7183 81.4139 40.5002 80.2316 42.2822ZM79.9361 16.1468C80.0839 16.2953 80.2316 16.5923 80.3794 16.8893C80.9706 18.6712 81.5617 20.3047 81.4139 22.2352C81.4139 23.2746 81.4139 24.3141 81.4139 25.3536C81.4139 26.5416 81.1183 27.581 80.675 28.6205C80.675 28.769 80.5272 28.769 80.3794 28.9175C80.2316 28.769 80.0839 28.769 80.0839 28.6205C79.3449 26.8386 78.7538 25.0566 78.9016 23.1261C78.9016 21.9382 78.9016 20.8987 78.9016 19.7107C78.9016 18.5227 79.1972 17.4833 79.4927 16.4438C79.6405 16.2953 79.7883 16.1468 79.9361 16.1468ZM84.5174 19.8592C84.5174 18.9682 84.3696 18.2258 84.6651 17.3348C84.8129 16.8893 84.9607 16.4438 84.9607 16.1468C84.9607 15.2558 85.1085 14.3648 85.4041 13.4739C85.6996 12.2859 85.9952 11.0979 86.4385 9.90994C86.7341 9.16746 87.0297 8.57347 87.9164 8.42497C88.0642 8.57347 88.2119 8.72197 88.2119 8.87046C88.5075 10.5039 88.2119 11.9889 87.6208 13.4739C86.8819 15.4043 85.9952 17.3348 85.2563 19.1167C85.1085 19.4137 85.1085 19.7107 84.5174 19.8592Z" fill="#B8B8CC"/>
<path d="M64.1227 59.2109C63.5316 59.2109 62.9404 59.2109 62.4971 59.2109C61.3148 59.8049 60.7237 60.6958 60.4281 61.4383C59.837 63.9628 60.5759 65.8932 61.4626 67.8237C62.6449 70.6451 63.8272 73.4665 65.1572 76.1395C65.305 76.288 65.305 76.585 65.305 76.7335C64.8616 78.0699 64.8616 78.07 63.8272 79.5549C63.8272 80.5944 63.8271 80.5944 64.8616 81.0399C65.1572 80.8914 65.4528 80.8914 65.7483 80.7429C68.4084 79.5549 71.0685 78.0699 73.4331 76.288C74.4675 75.5455 75.3542 74.9515 76.3887 74.3575C77.1276 73.912 77.571 73.3181 78.1621 72.7241C78.4577 72.2786 78.7533 71.6846 79.0488 71.2391C79.0488 70.7936 79.0488 70.4966 79.0488 70.0511C79.0488 69.9026 79.0488 69.6056 79.0488 69.3086C78.3099 68.1207 77.2754 67.5267 75.7976 67.6752C75.0587 67.9722 74.172 68.4177 73.4331 68.8632C73.1375 69.0117 72.9897 69.1601 72.6941 69.3086C71.8074 69.7541 71.0685 70.3481 70.3296 71.0906C70.034 71.3876 69.7385 71.5361 69.5907 71.6846C69.1473 71.6846 68.9996 71.3876 68.9996 71.0906C68.9996 70.9421 68.9996 70.6451 68.9996 70.3481C69.1473 70.1996 69.4429 70.0511 69.5907 69.9026C70.034 69.6056 70.4774 69.1601 70.6252 68.5662C70.9207 68.1207 71.0685 67.5267 71.3641 67.0812C71.6597 66.3387 72.103 65.7447 72.6941 65.1507C72.9897 64.8537 73.1375 64.5568 73.1375 64.2598C72.2508 63.9628 71.3641 63.8143 70.4774 63.5173C69.4429 63.2203 68.5562 62.7748 67.6695 62.0323C66.7828 61.7353 66.0439 61.1413 65.305 60.3988C64.8616 60.1019 64.4183 59.6564 64.1227 59.2109ZM65.0094 62.0323C65.305 62.4778 65.4528 62.7748 65.7483 63.0718C66.7828 64.4083 67.2262 65.8932 67.2262 67.6752C67.2262 68.4177 67.2262 69.1601 67.2262 69.7541C67.2262 71.0906 67.0784 72.4271 66.635 73.7635H66.4872C65.305 71.3876 63.0882 66.4872 62.6449 63.0718C62.7927 62.7748 62.9404 62.3293 63.236 62.0323C63.3838 61.7353 63.6794 61.5868 64.1227 61.5868C64.2705 61.5868 64.5661 61.7353 65.0094 62.0323ZM76.9799 70.0511C77.1276 70.1996 77.1276 70.3481 77.1276 70.4966C77.1276 70.6451 77.1276 70.9421 76.9799 71.0906C76.5365 71.6846 76.0932 71.9816 75.6498 72.4271C74.0242 73.4665 72.3986 74.506 70.773 75.5455C70.1818 75.991 69.4429 76.288 68.704 76.7335C68.4084 76.882 68.2606 76.7335 67.9651 76.1395C68.1129 75.8425 68.4084 75.5455 68.5562 75.397C69.2951 74.6545 70.034 73.912 70.773 73.1696C71.5119 72.2786 72.3986 71.6846 73.4331 71.2391C74.0242 70.9421 74.4675 70.6451 75.0587 70.1996C75.2065 70.1996 75.3542 70.0511 75.502 70.0511C76.0932 69.9026 76.5365 69.7541 76.9799 70.0511Z" fill="#B8B8CC"/>
<path d="M64.1233 59.2108C64.5667 59.6563 65.01 60.1018 65.3056 60.5473C65.8967 61.2898 66.6356 61.8838 67.6701 62.1808C67.8179 61.5868 67.9657 61.1413 67.9657 60.5473C68.8524 59.3593 70.0346 58.4683 71.3647 58.3198C72.6947 58.4683 73.2859 59.2108 73.877 60.2503C74.1726 60.9928 74.4681 61.7353 74.4681 62.4778C74.4681 63.0717 74.4681 63.6657 74.4681 64.1112C75.6504 64.1112 76.6849 64.1112 77.8672 64.1112C78.6061 64.1112 79.1972 63.9627 79.7883 63.5172C80.0839 63.0717 80.0839 62.4777 79.9361 62.0323C79.6406 61.1413 79.6406 60.2503 79.4928 59.3593C79.0494 58.6168 78.7539 58.0229 78.3105 57.2804C77.8672 56.8349 77.4238 56.3894 77.1282 55.9439C76.6849 55.6469 76.2415 55.2014 75.7982 54.9044C75.3548 54.6074 74.9115 54.4589 74.4681 54.3104C74.1726 54.3104 73.877 54.1619 73.7292 54.1619C73.4337 54.1619 73.2859 54.0134 73.2859 53.8649C71.5125 53.7164 69.8869 54.1619 68.2613 54.6074C67.3746 54.9044 66.6356 55.3499 65.7489 55.6469C65.3056 56.0924 64.8622 56.5379 64.5667 56.8349C63.9755 57.8744 64.1233 58.4683 64.1233 59.2108Z" fill="#EBF4EF"/>
<path d="M65.4533 55.9439C66.34 55.6469 67.0789 55.2014 67.9656 54.9044C69.5912 54.4589 71.2168 54.0134 72.9902 54.1619C72.9902 52.9739 72.6947 51.9344 72.2513 50.895C71.808 50.004 71.0691 49.41 70.3301 48.816C69.4434 48.519 68.5567 48.6675 67.8178 49.113C67.0789 49.5585 66.6356 50.1525 66.34 50.895C66.0444 52.0829 65.6011 53.1224 65.4533 54.3104C65.3055 54.7559 65.4533 55.3499 65.4533 55.9439Z" fill="#B8B8CC"/>
<path d="M74.3203 64.2598C74.3203 63.6658 74.3203 63.0718 74.3203 62.6263C74.3203 61.8838 74.0247 61.1413 73.7292 60.3988C73.2858 59.3594 72.5469 58.6169 71.2169 58.4684C69.739 58.6169 68.7045 59.5079 67.8178 60.6958C67.6701 61.1413 67.5223 61.7353 67.5223 62.3293C68.2612 63.0718 69.2957 63.5173 70.3302 63.8143C71.2169 64.1113 72.1036 64.2598 72.9903 64.5568C73.4336 64.4083 73.877 64.2598 74.3203 64.2598Z" fill="#234E32"/>
<path d="M72.9902 54.0135C73.138 54.162 73.2858 54.3105 73.4336 54.3105C73.2858 54.3105 73.138 54.162 72.9902 54.0135Z" fill="#B8B8CC"/>
<path d="M54.222 86.5342C54.3698 86.5342 54.3698 86.6827 54.5176 86.6827C54.5176 86.6827 54.3698 86.5342 54.222 86.5342C54.3698 86.5342 54.222 86.5342 54.222 86.5342Z" fill="#EBF4EF"/>
<path d="M70.7735 34.8574C70.6257 35.0059 70.4779 35.1544 70.4779 35.3029C70.3302 36.1938 70.3301 36.9363 70.6257 37.8273C70.7735 38.1243 70.9213 38.4213 70.9213 38.7183C71.2169 42.2822 72.6947 45.4006 74.7636 48.2221C75.207 48.816 75.6503 49.41 76.0937 49.8555C76.2415 50.004 76.2415 50.004 76.8326 50.1525C76.9804 48.0736 76.9804 47.4796 76.6848 45.5491C76.6848 45.4006 76.537 45.1036 76.537 44.9551C76.537 42.8762 75.6504 41.0942 74.9114 39.3123C74.1725 37.5303 72.6947 36.1938 71.2169 35.0059C71.0691 35.0059 71.0691 35.0059 70.7735 34.8574Z" fill="#988FC1"/>
<path d="M80.2311 42.2822C81.4134 40.3517 82.5957 38.7183 83.6301 36.9363C84.3691 35.5999 85.108 34.4119 85.6991 33.0754C86.1424 32.1844 86.2902 31.2934 85.9947 30.4025C85.6991 29.957 85.2558 29.957 84.6646 30.1055C84.5168 30.254 84.2213 30.4025 83.9257 30.6995C82.8912 32.0359 82.0045 33.2239 81.2656 34.7089C80.6745 36.0453 80.2311 37.3818 79.9356 38.7183C79.64 39.7578 79.64 40.7972 79.7878 41.8367C79.9356 42.1337 80.0833 42.1337 80.2311 42.2822Z" fill="#988FC1"/>
<path d="M79.9365 16.1469C79.7888 16.1469 79.4932 16.2953 79.4932 16.2953C79.1976 17.3348 78.9021 18.3743 78.9021 19.5623C78.9021 20.7502 78.9021 21.7897 78.9021 22.9777C78.9021 24.9082 79.3454 26.6901 80.0843 28.4721C80.0843 28.6206 80.2321 28.6206 80.3799 28.7691C80.5277 28.6206 80.6755 28.6206 80.6755 28.4721C81.1188 27.4326 81.5622 26.3931 81.4144 25.2051C81.4144 24.1657 81.4144 23.1262 81.4144 22.0867C81.4144 20.1563 80.971 18.5228 80.3799 16.7408C80.3799 16.5923 80.0843 16.2953 79.9365 16.1469Z" fill="#988FC1"/>
<path d="M76.8322 56.2409C77.2755 56.6864 77.7189 57.1319 78.0144 57.5774C79.0489 56.9834 79.9356 56.0924 80.6745 55.0529C81.5612 54.0134 82.3002 52.677 83.0391 51.489C83.3346 50.895 83.4824 50.301 83.4824 49.707C83.3346 49.5585 83.0391 49.5585 82.8913 49.41C80.379 50.7465 78.6056 52.8255 77.1277 55.2014C76.98 55.4984 76.98 55.7954 76.8322 56.2409Z" fill="#988FC1"/>
<path d="M84.5176 19.8592C85.1087 19.7107 85.1087 19.4137 85.2565 19.1167C85.9954 17.1862 86.8821 15.4043 87.621 13.4738C88.2122 11.9888 88.5077 10.5039 88.2122 8.87042C88.2122 8.72192 87.9166 8.57342 87.7688 8.42493C87.0299 8.72192 86.5866 9.31591 86.291 9.90989C85.9954 11.0979 85.6999 12.2858 85.4043 13.4738C85.1087 14.3648 84.8132 15.2558 84.9609 16.1468C84.9609 16.5922 84.8132 17.0377 84.6654 17.3347C84.3698 18.2257 84.5176 18.9682 84.5176 19.8592Z" fill="#988FC1"/>
<path d="M65.0092 62.0323C64.7136 61.8838 64.2702 61.5868 63.9747 61.4383C63.5313 61.4383 63.2358 61.5868 63.088 61.8838C62.9402 62.1808 62.7924 62.6263 62.4968 62.9233C62.9402 66.4872 65.3047 71.2391 66.3392 73.615H66.487C66.9303 72.2786 67.0781 71.0906 67.0781 69.6056C67.0781 68.8631 67.0781 68.1206 67.0781 67.5267C67.0781 65.8932 66.6348 64.2597 65.6003 62.9233C65.4525 62.7748 65.1569 62.3293 65.0092 62.0323Z" fill="#988FC1"/>
<path d="M76.9798 70.0511C76.3887 69.9026 76.0931 69.9026 75.6498 69.9026C75.502 69.9026 75.3542 70.0511 75.2064 70.0511C74.6153 70.3481 74.1719 70.7936 73.5808 71.0906C72.5463 71.5361 71.6596 72.2785 70.9207 73.021C70.1818 73.7635 69.4429 74.506 68.704 75.2485C68.4084 75.5455 68.2606 75.8425 68.1128 75.991C68.4084 76.5849 68.704 76.7334 68.8517 76.5849C69.5907 76.1395 70.1818 75.8425 70.9207 75.397C72.5463 74.3575 74.1719 73.318 75.7976 72.2785C76.3887 71.9815 76.832 71.536 77.1276 70.9421C77.2754 70.7936 77.2754 70.4966 77.2754 70.3481C77.1276 70.3481 77.1276 70.1996 76.9798 70.0511Z" fill="#988FC1"/>
<path d="M14.3 85.8C14.4 86.3 14.4 86.7 14.3 87.3C13.8 88 13.2 88.8 12.6 89.7C12 90.6 11.4 91.6 10.8 92.5C10 93.8 9.3 95.2 8.6 96.5C8.5 96.8 8.3 97.1 8.2 97.4C7.9 97.8 7.7 98.2 7.4 98.6C7.2 98.7 6.9 98.8 6.7 98.9C6.3 98.9 6 98.6 5.8 98.6C5.4 98.3 5.3 97.9 5.2 97.5C4.6 95.5 3.7 93.7 2.8 91.8C2.1 90.7 1.5 89.4 1.1 88C0.8 87.2 0.5 86.5 0.2 85.7C0.1 85.5 0.1 85.4 0 85.2C0.1 84.8 0.4 84.6 0.7 84.4C1 84.3 1.2 84.5 1.3 84.7C1.5 85 1.7 85.3 1.8 85.6C2.6 87.3 3.7 88.8 4.6 90.4C4.7 90.5 4.8 90.6 5 90.5C5 89.7 5 88.8 5 87.9C5 87 5 86.1 5 85.2C5 84.5 5 83.9 5.2 83.2C5.3 82.8 5.3 82.4 5.3 82C5.4 81.8 5.5 81.6 5.6 81.3C6 81.3 6.2 81.1 6.4 81C6.8 81 7 81.2 7.3 81.3C7.4 81.5 7.5 81.8 7.7 82.1C7.7 83 7.7 84 7.7 84.9C7.7 85.3 7.7 85.8 7.8 86.2C7.9 86.5 7.9 86.8 7.9 87.1C8 88 8 88.9 8 89.8C8 90.1 8 90.5 8 90.8C8.1 90.8 8.2 90.8 8.3 90.8L8.4 90.7C9.3 89.1 10.4 87.6 11.5 86.1C11.6 86 11.6 85.9 11.7 85.8C11.9 85.7 12.2 85.5 12.4 85.3C12.9 85.2 13.3 85.2 13.7 85.3C14 85.4 14.2 85.6 14.3 85.8Z" fill="#BBCB7D"/>
<path d="M19.5004 88.3C19.7004 88.3 19.8004 88.3 20.0004 88.4C20.6004 89.1 20.6004 90 20.3004 90.8C19.9004 92.2 19.4004 93.5 18.7004 94.8C18.3004 95.5 18.0004 96.2 17.6004 97C17.3004 97.6 17.0004 98.1 16.7004 98.6C16.4004 99.2 15.9004 99.5 15.3004 99.7C14.4004 99.6 14.0004 99 13.9004 98.1C14.2004 97.4 14.5004 96.6 15.0004 96C15.7004 95 16.3004 93.9 16.8004 92.8C17.3004 91.8 17.8004 90.8 18.3004 89.7C18.6004 89.2 19.0004 88.8 19.5004 88.3Z" fill="#BBCB7D"/>
</svg>
