<svg width="110" height="252" fill="none" xmlns="http://www.w3.org/2000/svg"><g clip-path="url(#clip0)"><path d="M48.955 220.5c.054-12.038 8.346-27.682 9.096-38.182-6.207 6.311-8.828 16.97-12.466 26.091-.589-2.705-1.231-5.356-1.392-8.114-.16.372-.267.743-.481 1.22-2.247-13.257-6.474-26.091-11.235-39.348-22.043-43.856-33.546-30.546-15.088-6.205 15.997 2.386 24.236 61.25 22.952 70.212-2.675-6.894-21.614-44.651-26.002-32.507 11.985 17.553 22.471 37.068 29.534 58.015 3.852 3.182 9.844-18.561 22.363-31.659-2.514-7.849-19.1 16.651-20.758 19.674.963-2.652-1.124-19.462 3.477-19.197zM71.587 162.485c.428-.212.695-.371 1.177-.583-.16.265-1.177-1.114-1.177.583zM65.112 175.424c-.16-.159-.107-.265 0 0 .428.159.642-.954 0 0z" fill="#C2E189"/><path d="M32.744 162.378c-.321-5.833 2.835-12.833 5.831-18.985 5.886.053 10.861-4.666 13.91-10.023 4.709.266 9.685.796 14.072-3.393 6.634-6.258-.16-13.735 7.544-19.834 3.852-7.689 5.296-11.083-3.906-12.674 7.276.371 13.269-12.091 6.58-17.553-5.724-2.758-6.313 4.614-9.362 7-9.202-2.068-6.848 11.19-11.824 14.477-12.306 7.53-.856 17.712-17.228 23.599-1.658-2.175-5.564-2.493-7.864.371 4.708-5.621 9.683-13.417 9.202-22.326 8.828-.159 25.841-22.856 9.79-23.386 7.33-5.091 15.784-25.19 6.046-29.432 3.96-4.667 7.223-10.5 8.347-17.182 1.337-5.303-1.766-9.068-6.527-10.182 1.658-6.31 3.959-27.522-8.347-21.901-8.774 9.492-3.05 25.03-3.37 33.356-16.104-13.682-7.063 17.659-10.7 22.113C28.516 58.81 31.46 67.242 29.8 72.44c-6.367-.053-6.474 5.727-6.688 11.825.321 6.364-.535 12.78 4.44 18.031-1.872.848-7.275-2.97-9.415 3.871C6.1 70.264-.962 96.302 5.672 117.567c-11.236-7.477-2.996 6.523.32 10.447-14.498 13.894 5.725 34.099 11.61 28.266-.053-2.069 7.651-9.016 15.142 6.098z" fill="#A699C1"/><path d="M48.633 40.886a7.395 7.395 0 00-1.82-2.598c-1.123-1.061-2.888-1.38-4.065-.637-.803.53-1.284 1.22-1.445 2.174-.481 2.97 0 5.94.696 8.803.695 2.917 1.658 5.78 3.103 8.38.214.317.481.689-.054 1.06-.32.212-.214.742.214 1.06.321.213.268.425.107.69-.856 1.697-1.551 3.447-2.033 5.303 0 .053-.053.106-.16.265-.321-1.167-.535-2.28-.963-3.288-.428-1.22-.963-2.386-1.873-3.288-1.07-1.06-2.514-.954-3.424.212-.642.902-.91 1.91-1.07 2.97-.267 1.538-.428 3.076-.428 4.614-.107 4.242.696 8.273 2.14 12.25.375 1.007.696 2.015 1.23 3.023.322.583.108 1.113-.213 1.537-1.284 1.485-2.248 3.13-2.836 4.985 0 .053-.053.053-.107.16-.107-.425-.16-.796-.214-1.167-.374-2.334-1.177-4.508-2.515-6.47-.267-.424-.642-.796-1.07-1.114-1.07-.742-2.086-.477-2.568.743-.428 1.113-.481 2.333-.428 3.5.054 1.326.16 2.651.214 3.977.107 1.962.214 3.977.268 5.94.053 1.537.107 3.022.267 4.507.16 1.326.535 2.599 1.177 3.765.214.424.214.637-.267.902-2.354 1.432-3.852 3.606-4.922 6.098-.803 1.856-1.445 3.818-1.605 5.887-.054.318.053.636.214.954.214.371.481.583.91.583.427 0 .748-.318.802-.689.107-.477.374-.689.749-.955 3.05-1.962 5.938-4.136 7.65-7.477.482-.954.857-1.909.857-2.969 0-.637-.215-1.167-.696-1.591-.107-.106-.267-.159-.214-.425.535-2.068.91-4.136 1.284-6.257.053-.318.107-.318.428-.265.75.159 1.445-.106 2.087-.425 2.3-1.06 4.226-2.598 6.045-4.401 1.284-1.273 2.461-2.652 3.21-4.296.642-1.378 1.124-2.81.696-4.348-.696-2.227-2.782-3.553-5.243-2.492-.268.106-.535.265-.856.37.267-1.113.588-2.174.749-3.181.16-1.06.856-1.91.91-2.97 0-.159.106-.265.32-.265 1.659 0 2.675-1.008 3.585-2.174 1.926-2.334 3.264-5.091 4.601-7.796.696-1.378 1.338-2.757 1.552-4.295.16-.902.267-1.803.053-2.652-.374-1.803-1.498-2.12-2.996-1.962-.695.053-1.284.424-1.926.743.16-1.326.267-2.546.428-3.765.107-.69.107-1.38.16-2.069 0-.318.054-.583.268-.795.214-.212.321-.477.321-.742 0-.53.321-.849.696-1.114 1.872-1.379 3.263-3.129 4.654-4.932 1.445-1.856 2.675-3.818 3.585-6.045.588-1.538.802-3.182.588-4.773-.32-2.068-2.086-2.97-4.012-2.174-.214.053-.375.265-.589.106-.214-.16-.053-.425 0-.584.375-1.75.589-3.5.803-5.303.214-1.59.374-3.235.374-4.826.054-1.855.16-3.765-.267-5.62a4.946 4.946 0 00-.535-1.485c-.589-.902-1.712-1.114-2.568-.372-1.177 1.008-1.926 2.334-2.248 3.818-1.07 4.773-.428 9.28 1.873 13.576.16.318.107.583 0 .902-.107.424-.32.795-.535 1.166-.267.478-.214.902.214 1.273.16.106.214.212.107.371-1.873 2.493-2.729 5.41-3.424 8.38zM44.46 81.772c.856.053 1.658.849 1.658 1.644 0 .902-.214 1.697-.588 2.493a13.765 13.765 0 01-2.354 3.129c-1.712 1.75-3.585 3.234-5.725 4.401-.267.16-.588.584-.963.318-.481-.318-.053-.742 0-1.06.803-4.03 2.836-7.319 6.046-9.917.588-.583 1.23-1.008 1.926-1.008zm-4.601-3.022c-.054-.053-.107-.053-.107-.106-.214-.584-.375-1.167-.589-1.75-1.177-3.712-1.765-7.53-1.551-11.455.053-.901.214-1.803.32-2.704.108-.637.268-1.22.429-1.856.053-.213.107-.478.374-.53.268-.054.375.211.482.424.32.477.588 1.007.802 1.537.91 2.44 1.124 4.932 1.124 7.53 0 1.38-.214 2.705-.375 4.084-.214 1.59-.428 3.235-.91 4.826zm6.58-23.227c-.107-.213-.107-.266-.16-.372-1.445-3.977-2.836-7.954-3.05-12.25-.053-.901-.053-1.856.16-2.757.215-.955.857-1.167 1.66-.637.695.478 1.07 1.167 1.39 1.91.642 1.643.75 3.393.75 5.09 0 2.175-.108 4.296-.375 6.417-.054.901-.054 1.697-.375 2.599zm4.067-10.819c.16-1.59.374-3.022.695-4.401a25.762 25.762 0 012.247-6.152c.589-1.113 1.177-2.227 2.3-2.97.964-.636 1.766-.265 1.98.85.214 1.272-.16 2.438-.642 3.552-.856 2.174-2.3 4.03-3.691 5.886-.856 1.114-1.766 2.175-2.89 3.235zM44.032 71.75c.107-1.06.374-2.015.642-3.023.749-3.076 1.765-6.099 3.424-8.856.696-1.114 1.605-1.962 2.89-2.44.427-.158.588 0 .588.372 0 .53 0 1.113-.107 1.644-.268 1.325-.856 2.492-1.445 3.712-1.177 2.492-2.461 4.879-4.173 7.053-.482.636-.963 1.273-1.82 1.538zM31.03 81.826c.802 1.007 1.23 2.015 1.605 3.075 1.07 2.917 1.123 5.94 1.177 8.962 0 1.697-.321 3.341-.535 5.038-.107 1.008-.321 2.015-.482 3.076-.267-.424-.32-.848-.428-1.273-.642-3.075-.481-6.204-.695-9.28-.107-1.644-.268-3.235-.375-4.879-.214-1.59-.428-3.076-.267-4.72zm1.658 22.696c.321 0 .375.213.321.478-.107.371-.214.795-.374 1.166-1.124 2.599-3.157 4.402-5.404 5.993-.107.053-.214.212-.32.106-.108-.106 0-.265 0-.371.48-1.485 1.07-2.97 1.979-4.243.802-1.113 1.712-2.121 2.996-2.81.267-.159.535-.265.802-.319zm20.813-91.053c.695 4.03-.054 7.955-.482 11.826a12.167 12.167 0 01-.535-1.485c-.588-2.439-.749-4.878-.32-7.318.213-1.06.534-2.068 1.337-3.023z" fill="#C6BCD0"/><path d="M48.15 222.41c8.56-2.334 24.932-11.561 16.907-21.106 2.675-1.909 7.009-5.569 5.51-10.182 8.4-3.288 18.138-3.712 12.413-14.159 6.206-1.22 17.977-6.894 8.774-13.258 7.01-2.545 13.536-6.045 7.758-13.682 12.199-3.765 16.051-15.219-.642-13.204 9.524-9.97 13.59-33.144-4.226-13.046-6.153-14-12.68 6.629-13.804 13.258-6.1-11.667-11.342 5.038-11.289 11.667-7.009-9.334-10.005 5.037-10.219 11.825-2.247-7-12.091-11.295-11.663.265-.963 2.281 4.548 12.25.428 10.341-11.556.902-5.885 19.25-2.354 25.455-2.515 3.818-2.515 8.591-.91 13.788 2.14-4.03 7.544-25.402 13.376-25.985-3.906 11.614-8.721 24.182-10.059 38.023zm22.578-57.962c.16-.372-.267-1.326 1.177-.584l-1.177.584zm-6.42 12.939c-.107 0-.321-.265.053-.583.108.106.803.371-.053.583z" fill="#A699C1"/><path d="M72.228 164.607c.054-.531.054-1.061.107-1.644.107-1.379-.16-2.652-1.07-3.766-.856-1.06-2.621-1.007-3.424.053-.91 1.167-1.337 2.546-1.551 3.978-.161 1.166-.161 2.333-.268 3.5-.053.689.107 1.379.053 2.121-.213-.053-.267-.265-.32-.371-.535-.743-1.124-1.432-2.034-1.803-.963-.425-1.926-.478-2.835.159-.696.53-.963 1.273-1.017 2.068-.267 2.174.268 4.242 1.124 6.258.856 2.068 2.033 3.871 3.53 5.515.215.265.536.477.803.689.215.159.268.318.215.583-.268.955-.268 1.963-.322 2.917 0 .159-.053.318-.214.371-1.498.637-2.3 1.962-2.942 3.341-.91 2.015-1.445 4.137-1.659 6.311-.107.848-.214 1.697-.053 2.545.053.371-.16.743-.428 1.008-1.391 1.326-2.247 2.917-2.782 4.72-.107.424-.268.848-.428 1.272a1.451 1.451 0 01-.482.637c-.428.265-.588.583-.428 1.06.107.478.535.584.963.584.428 0 .856-.106 1.23-.266 2.14-1.06 4.12-2.333 5.725-4.083 1.07-1.114 1.766-2.439 1.712-4.083-.053-1.061-.428-1.591-1.498-1.856a57.059 57.059 0 001.498-2.334c.75-1.113 1.391-2.28 1.82-3.553.427-1.113.588-2.28.267-3.447-.053-.265 0-.424.214-.583 2.087-1.273 3.638-3.076 5.083-5.038.963-1.273 1.819-2.651 2.354-4.136.481-1.22.642-2.546.267-3.818-.481-1.644-1.658-2.175-3.21-1.432-1.498.689-2.835 1.644-3.905 2.969-.054.054-.107.054-.16.16a7.484 7.484 0 01-.215-1.061c0-.053 0-.159.054-.212 1.016-1.114 1.498-2.493 2.086-3.818.16-.372.321-.478.75-.425 1.55.266 3.049.053 4.547-.318 2.728-.689 5.296-1.697 7.65-3.235 1.499-.954 2.676-2.174 3.264-3.871.535-1.485-.16-2.492-1.712-2.651-2.033-.212-4.013.265-5.885.901a.407.407 0 00-.214.106h-.107c.963-1.007 1.766-2.121 2.3-3.447.108-.265.268-.371.589-.371 2.194 0 4.28-.689 6.313-1.538 1.23-.53 2.354-1.113 3.37-1.962.803-.636 1.445-1.432 1.499-2.492.107-1.591-.963-2.758-2.622-2.811h-1.658s-.054 0-.054.053c0 0 0-.053.054-.053.588-.53 1.123-1.061 1.712-1.644 1.551-1.591 3.05-3.235 4.013-5.25.641-1.273.855-2.651.588-4.03-.16-.796-.481-1.538-1.338-1.803-.856-.265-1.605 0-2.247.583-.856.689-1.39 1.591-1.872 2.546l-.375.742c-.107-.53-.16-.955-.32-1.326-.75-1.803-2.943-2.121-4.227-.636-.91 1.06-1.498 2.28-1.926 3.553-1.017 2.757-1.82 5.621-2.515 8.485-.107.53-.214 1.113-.321 1.803-.267-.584-.374-1.114-.696-1.538-.535-.743-1.284-1.061-2.193-.955-.803.106-1.284.637-1.659 1.379-.374.796-.428 1.591-.535 2.44-.214 2.386.054 4.719.696 7 .214.795.535 1.537 1.07 2.121.16.212.214.318-.054.477-1.39.636-2.568 1.697-3.745 2.652-.053.053 0 .053 0 0 0 .053-.053.053 0 0zm15.355-18.455l.107-.106c.107-.265.16-.477.268-.743.856-2.28 1.712-4.507 2.889-6.628a5.48 5.48 0 011.284-1.644c.428-.318.802-.212.856.318.107 1.114 0 2.121-.589 3.129-1.177 2.068-2.782 3.818-4.494 5.462a.407.407 0 01-.214.106c0 .106-.053.106-.107.106 0 .053-.053.106-.053.106-.16.318-.428.424-.75.636.054-.477.322-.636.696-.689.054.053.107 0 .107-.053zm-14.231 27.364c.214-.053.32.053.374.265.107.318.16.583.214.901.054 1.167-.374 2.228-.91 3.235-.802 1.538-1.818 2.917-2.995 4.19a20.156 20.156 0 01-2.943 2.704c-.107.053-.16.159-.267.106-.108-.053-.054-.212-.054-.318.267-1.909.963-3.765 1.552-5.621.749-2.281 2.247-3.978 4.333-5.197.16-.106.428-.265.696-.265zm-1.82-5.303c.108-.16.161-.213.215-.266.642-.583 1.337-1.166 1.98-1.75 1.711-1.537 3.584-2.81 5.724-3.606a15.098 15.098 0 014.334-.954c.267 0 .642-.106.802.159.16.265-.107.53-.267.795-.856 1.326-2.087 2.175-3.424 2.864-2.836 1.538-5.886 2.652-9.363 2.758zm-5.617 11.984l-.107-.106c-1.605-2.227-3.05-4.56-3.799-7.265-.374-1.326-.588-2.651-.32-3.977.106-.742.534-.955 1.23-.689.16.053.267.159.374.212 1.07.742 1.605 1.909 2.033 3.075.536 1.432.857 2.917 1.017 4.455.16 1.485.267 2.917-.428 4.295zm15.087-28.848c0-.53.161-.955.268-1.379.642-2.704 1.552-5.356 2.515-8.007.428-1.167.91-2.334 1.712-3.341.16-.212.374-.478.695-.425.321.053.375.372.428.69.054.159.054.318.054.424.053 2.227-.482 4.296-1.391 6.311-.803 1.644-1.873 3.128-3.05 4.507-.374.371-.696.849-1.23 1.22zm.964 3.5c.053-.106.053-.159.053-.159 1.017-1.485 2.247-2.864 3.906-3.712 1.23-.637 2.568-1.167 4.012-1.114.428 0 .803.106.963.477.16.372 0 .69-.214 1.008-.428.583-1.016.954-1.658 1.326-2.247 1.219-4.548 2.015-7.062 2.174zm-13.91 15.379c-.162-.69-.161-1.273-.161-1.856 0-1.379-.054-2.758.107-4.137.107-1.272.374-2.492 1.07-3.606.16-.212.267-.477.588-.477.268 0 .428.265.535.477.535 1.061.428 2.174.214 3.288-.428 2.227-1.551 4.19-2.354 6.311zm-6.1 25.56v-.265c.214-1.856.642-3.712 1.337-5.409.428-1.007.91-1.962 1.659-2.757.16-.16.321-.213.535-.16.214.053.267.266.267.425 0 .583.054 1.113-.053 1.644-.267 1.06-.803 2.068-1.391 3.022-.642 1.22-1.445 2.387-2.354 3.5zm15.89-40.091c.053.425-.107 1.22-.107 1.963 0 .53-.107 1.06-.375 1.537-.053.106-.107.266-.214.266-.16 0-.16-.16-.214-.266-.053-.106-.053-.212-.107-.318-.642-2.068-.856-4.189-.695-6.363.053-.637.107-1.273.374-1.856.16-.372.375-.372.589-.107.214.266.32.584.374.902.214 1.326.321 2.598.375 4.242zm-19.582 48.682c-.107-.159 0-.212.054-.318.267-.795.695-1.538 1.07-2.28.856-1.644 2.247-2.705 3.959-3.5.32-.159.428-.053.374.265-.053.583-.214 1.114-.535 1.591-.749 1.22-1.872 2.068-2.996 2.916-.642.531-1.284 1.008-1.926 1.326zm19.528-43.538c-.053 0-.053.053 0 0h-.107v-.053c.054.053.054.053.107.053zm.16-.053s0-.053 0 0c.054-.053.054-.053 0 0 .054 0 .054-.053 0 0 0 0 .054 0 0 0zM60.724 108.87c-.268-.901-.589-1.697-1.07-2.439-.963-1.379-2.89-1.379-3.906.159-.749 1.113-1.016 2.386-1.23 3.659-.214 1.22-.214 2.492-.107 3.712.107 1.591.267 3.129.588 4.72.054.371.321.795-.053 1.272-.16-.159-.268-.371-.482-.477-.535-.424-1.23-.371-1.819-.159-1.23.424-2.3 1.22-3.21 2.068-2.247 2.121-3.852 4.72-4.976 7.584-.16.371-.214.689.054 1.007.16.159.053.265-.054.371-.16.159-.374.318-.535.478a.594.594 0 00-.16.583c.107.265.267.371.535.371.428.053.856-.053 1.177-.265 2.514-1.485 5.083-2.917 7.062-5.144.803-.901 1.445-1.803 1.926-2.864.054-.106.054-.371.321-.159 1.873 1.326 4.334 1.432 6.26.265 1.23-.742 2.3-1.643 2.836-3.022.642-1.644 0-3.235-1.552-3.765-.91-.319-1.873-.16-2.782 0-.107 0-.268.159-.321 0-.107-.106.053-.213.053-.319.107-.265.268-.53.375-.848.16-.371.214-.796.802-.636.214.053.482-.107.482-.319.053-.371.321-.424.588-.477 1.284-.424 2.301-1.167 3.318-2.015 1.23-1.061 2.247-2.227 2.889-3.712.481-1.167.642-2.387.107-3.606-.321-.796-1.23-1.114-2.14-1.008-.214.053-.375 0-.642.159.267-1.06.588-2.015.642-3.022.053-.743.32-1.167 1.016-1.591 1.391-.849 2.461-2.122 3.531-3.341a16.133 16.133 0 002.087-2.917c.535-1.06.91-2.174.642-3.394-.16-.795-.856-1.326-1.712-1.379-2.033-.053-3.424 1.008-4.601 2.493-.75.954-1.284 2.015-1.552 3.182-.053.159 0 .318-.267.159-1.552-.955-2.996-.425-3.692 1.272-.321.743-.428 1.485-.428 2.228 0 1.909.107 3.818.321 5.727.107 1.061.374 2.068.535 3.076.053.212.053.371 0 .583-.214.583-.481 1.114-.856 1.75zm-14.606 20.311s-.054 0-.054.053c0-.053 0-.053.054-.053 0-.106 0-.159.053-.266 1.124-2.015 2.248-3.977 3.8-5.621.909-.954 1.925-1.803 3.102-2.386.321-.159.428-.106.482.265 0 1.22-.589 2.121-1.284 3.023-1.23 1.644-2.89 2.969-4.655 4.083-.428.318-.91.743-1.498.902zM56.39 118.15c-.16-1.007-.374-2.015-.374-3.022 0-.584.053-1.114.053-1.697.054-1.379.16-2.811.482-4.137.16-.583.32-1.219.749-1.697.374-.477.588-.477.91 0 .267.372.48.796.588 1.22.32 1.167.214 2.28 0 3.447-.375 2.068-1.338 3.924-2.247 5.833.053 0 0 .053-.16.053zm9.577-20.735c-.053-.212.054-.477.107-.689.321-1.856.963-3.606 2.14-5.09.642-.796 1.391-1.486 2.461-1.698.75-.159 1.017.106.91.849-.107.795-.428 1.485-.856 2.12-1.177 1.804-2.729 3.342-4.334 4.774-.053.053-.16.106-.214.159-.16.106-.214.053-.214-.106v-.319zM55.962 121.97c.428-.319.75-.637 1.017-1.061.267-.371.535-.796.749-1.167.16-.318.428-.583.802-.742.642-.265 1.23-.53 1.926-.637.375-.053.75-.053 1.124-.053.803.106 1.177.849.803 1.644-.322.69-.857 1.22-1.445 1.697-1.659 1.273-3.317 1.273-4.976.319zm5.35-9.228c.108-.795.375-1.485.643-2.121.642-1.644 1.337-3.182 2.675-4.455.374-.371.802-.689 1.337-.848.482-.106.75.053.803.53.107.796 0 1.538-.428 2.228-.642 1.06-1.445 1.909-2.354 2.757-.75.743-1.605 1.326-2.675 1.909zm1.605-8.697c0-.636 0-1.272-.053-1.909-.107-1.697-.16-3.447-.053-5.144 0-.318.16-.636.374-.954.107-.106.16-.319.375-.319.16 0 .214.213.267.372.107.318.214.69.214 1.007.054 1.22.054 2.44-.16 3.712-.16 1.114-.375 2.228-.964 3.235z" fill="#C6BCD0"/><path d="M11.021 135.227c.803.212 1.23.902 1.766 1.432.535.477 1.07.955 1.819 1.008.053-.265.107-.584.16-.849.161-1.379 1.017-2.174 2.14-2.863.803-.478 1.66-.637 2.569-.69 2.247-.053 2.996.265 3.691 2.493.054.159.054.371.107.53.642 2.121.16 3.818-1.765 5.091 2.514.636 5.029.53 7.597.053 1.23-.212 2.461-.424 3.585-.955.214-.106.428-.159.642-.265 1.39-.689 1.551-1.379.749-2.651-.375-.637-.696-1.379-1.124-1.962-1.23-1.538-2.514-2.97-3.799-4.455-.32-.371-.856-.583-1.337-.902-1.124-.742-2.461-1.113-3.692-1.696a1.883 1.883 0 00-.535-.107c-1.444.107-2.942-.212-4.387.319-1.177.424-2.407.689-3.531 1.219-.963.478-1.926.849-2.782 1.538-.428.318-.856.69-1.445.584a72.505 72.505 0 01-.428 3.128z" fill="#EAF3ED"/><path d="M21.56 141.325c1.873-1.272 2.355-2.969 1.766-5.091-.053-.159-.053-.371-.107-.53-.696-2.174-1.445-2.545-3.692-2.492-.91 0-1.765.212-2.568.689-1.123.636-1.98 1.485-2.14 2.864-.053.318-.107.583-.16.848.107.212.16.478.374.584 1.98 1.378 4.013 2.757 6.528 3.128z" fill="#9D8FC4"/></g><defs><clipPath id="clip0"><path transform="matrix(-1 0 0 1 110 0)" fill="#fff" d="M0 0h110v252H0z"/></clipPath></defs></svg>