<svg width="516" height="224" fill="none" xmlns="http://www.w3.org/2000/svg"><path d="M148.103 156.15s-23.697-18.703-71.092 17.861c0 0-40.623 9.352-61.776 5.947 0 0-19.47-1.699-14.39 13.606 0 0 2.537 7.653 60.086 5.105 0 0 203.961-3.406 214.96 0 0 0 23.882 2.548 24.727 19.552 0 0 8.279 12.471 15.427.772 0 0 0-10.957 2.252-15.498 2.253-4.541 16.141-10.958 26.71-8.687l80.863-1.135 65.826-3.399s22.568-1.892 24.074-6.803c1.508-4.911-4.896-6.803-4.896-6.803s-37.986-4.154-40.615-1.892c0 0-20.692-3.397-21.068-14.734-.377-11.336-7.895-38.179-22.592-41.205-14.695-3.027-5.264-31.738-5.264-31.738s-2.26-24.186-8.648-30.99c0 0-7.901-24.185-40.623-18.139 0 0-33.097 2.65-47.018 24.186 0 0-14.666 24.564-13.167 33.252l-7.894 29.854s-2.636-31.738-20.692-37.406c0 0-11.284-7.182-35.727 3.019 0 0-26.334 10.958-19.216 46.479 0 0-10.53-16.988-33.098-14.362-17.202 2.022-38.14 8.285-47.149 33.158z" fill="#C6BCD0"/><path d="M404.471 154.231a54.337 54.337 0 01-2.649 17.469 30.115 30.115 0 01-10.109 14.185c-4.601 3.494-10.295 5.24-17.08 5.24-6.693 0-11.901-2.329-15.624-6.987-.181-.28-.369-.37-.55-.28a.565.565 0 00-.279.559v29.907a1.667 1.667 0 01-1.032 1.551 1.657 1.657 0 01-.641.126h-16.349a1.653 1.653 0 01-1.18-.492 1.675 1.675 0 01-.486-1.185v-94.472a1.679 1.679 0 01.486-1.185 1.665 1.665 0 011.18-.492h16.321a1.657 1.657 0 011.185.489c.156.156.279.342.362.546.084.203.127.422.126.642v4.612c0 .28.091.44.279.489a.557.557 0 00.551-.209c3.908-5.125 9.302-7.687 16.181-7.687a26.677 26.677 0 0116.662 5.381c4.694 3.582 8.063 8.59 10.108 15.023a50.73 50.73 0 012.538 16.77zm-20.364-.279c0-5.87-.974-10.528-2.921-13.975-2.138-4.002-5.58-6.005-10.325-6.01-4.271 0-7.476 2.003-9.614 6.01-1.952 3.354-2.93 8.058-2.935 14.114 0 6.243 1.025 11.087 3.075 14.534 2.133 3.727 5.291 5.591 9.474 5.591a10.97 10.97 0 009.76-5.451c2.31-3.633 3.463-8.571 3.458-14.813h.028z" fill="#000"/><path d="M399.115 149.256a54.333 54.333 0 01-2.649 17.469 30.043 30.043 0 01-10.109 14.185c-4.601 3.494-10.295 5.241-17.08 5.241-6.693 0-11.898-2.33-15.617-6.988-.188-.279-.369-.37-.557-.279a.569.569 0 00-.279.559v29.906a1.667 1.667 0 01-.488 1.188c-.156.156-.341.28-.544.364a1.675 1.675 0 01-.641.125h-16.314a1.667 1.667 0 01-1.673-1.677v-94.45a1.667 1.667 0 01.488-1.188 1.667 1.667 0 011.185-.489h16.314a1.656 1.656 0 011.547 1.034c.084.204.127.422.126.643v4.611c0 .28.09.448.279.489a.567.567 0 00.557-.209c3.904-5.124 9.296-7.686 16.174-7.686 6.414 0 11.968 1.793 16.662 5.38 4.695 3.587 8.064 8.595 10.109 15.023 1.673 4.738 2.51 10.321 2.51 16.749zm-20.357-.279c0-5.87-.976-10.528-2.928-13.975-2.138-4.006-5.577-6.01-10.318-6.01-4.271 0-7.478 2.004-9.621 6.01-1.952 3.354-2.928 8.059-2.928 14.115 0 6.246 1.023 11.091 3.068 14.534 2.142 3.726 5.303 5.59 9.481 5.59a10.96 10.96 0 005.624-1.388 10.995 10.995 0 004.136-4.063c2.324-3.633 3.486-8.571 3.486-14.813z" fill="#fff"/><path d="M351.15 212.423h-16.313a3.058 3.058 0 01-3.067-3.075v-94.451c0-.815.323-1.597.898-2.174a3.065 3.065 0 012.169-.9h16.313a3.05 3.05 0 012.172.898 3.069 3.069 0 01.896 2.176v2.097c4.002-4.193 9.244-6.289 15.616-6.289a28.143 28.143 0 0117.506 5.667c4.88 3.752 8.47 9.035 10.596 15.715 1.702 4.835 2.573 10.635 2.573 17.189a55.793 55.793 0 01-2.726 17.923 31.545 31.545 0 01-10.583 14.849c-4.831 3.661-10.854 5.52-17.924 5.52-6.176 0-11.231-1.908-15.058-5.674v27.475a3.073 3.073 0 01-1.893 2.842 3.033 3.033 0 01-1.175.233v-.021zm-16.313-97.826a.287.287 0 00-.279.279v94.472a.274.274 0 00.279.28h16.313a.25.25 0 00.109-.018.261.261 0 00.17-.262v-29.907a1.93 1.93 0 011.053-1.802 1.765 1.765 0 012.301.698c3.485 4.326 8.205 6.422 14.493 6.422 6.442 0 11.908-1.663 16.237-4.954a28.802 28.802 0 009.642-13.542 53.126 53.126 0 002.565-17.001c0-6.233-.815-11.725-2.433-16.302-1.973-6.184-5.193-10.991-9.641-14.387a25.451 25.451 0 00-15.812-5.073c-6.476 0-11.405 2.341-15.065 7.141l-.126.14a1.938 1.938 0 01-1.889.573 1.796 1.796 0 01-1.325-1.845v-4.612a.222.222 0 00-.017-.111.23.23 0 00-.066-.091.221.221 0 00-.089-.062.217.217 0 00-.107-.015l-16.313-.021zm30.675 56.04c-4.699 0-8.296-2.096-10.688-6.289-2.154-3.626-3.255-8.762-3.255-15.233 0-6.288 1.052-11.263 3.116-14.813 2.363-4.437 6.016-6.708 10.827-6.708 5.27 0 9.153 2.271 11.545 6.75 2.049 3.612 3.095 8.546 3.095 14.632 0 6.484-1.248 11.725-3.709 15.568-2.586 4.046-6.26 6.093-10.931 6.093zm0-40.248c-3.751 0-6.498 1.726-8.366 5.275-1.841 3.166-2.789 7.687-2.789 13.451 0 5.961.969 10.615 2.873 13.822 1.896 3.312 4.601 4.891 8.282 4.891s6.518-1.572 8.589-4.807c2.161-3.389 3.262-8.113 3.262-14.059 0-5.59-.92-10.062-2.746-13.277-1.911-3.57-4.887-5.296-9.105-5.296zM111.527 181.608c-5.578-2.376-9.877-5.777-12.898-10.202-3.019-4.423-4.531-16.561-4.531-22.43v-3.075a1.672 1.672 0 01.48-1.185 1.65 1.65 0 011.179-.492h15.909a1.66 1.66 0 011.544 1.025c.084.202.128.419.129.638v2.096c0 3.725 1.722 13.857 5.159 16.421 3.437 2.565 8.087 3.843 13.943 3.843 4.922 0 8.594-1.048 11.015-3.144a9.864 9.864 0 003.625-7.756 7.845 7.845 0 00-2.23-5.66 19.708 19.708 0 00-6.066-4.053c-2.561-1.169-6.627-2.776-12.2-4.821a119.81 119.81 0 01-15.825-6.569 31.882 31.882 0 01-10.876-9.153c-2.928-3.871-4.392-8.646-4.392-14.325a25.246 25.246 0 014.322-14.674c3.001-4.292 7.16-7.637 11.991-9.642 5.113-2.237 11.015-3.355 17.708-3.355a45.064 45.064 0 0118.893 3.774 30.801 30.801 0 0112.967 10.55 27.066 27.066 0 014.671 15.723v2.096a1.677 1.677 0 01-1.659 1.677H148.35a1.663 1.663 0 01-1.673-1.663v-1.132c0-3.913-1.603-7.244-4.81-9.992-3.207-2.748-7.599-4.123-13.176-4.123-4.379 0-7.795.932-10.249 2.795a9.093 9.093 0 00-3.695 7.687 8.398 8.398 0 002.162 5.869 18.997 18.997 0 006.413 4.263c2.831 1.257 7.223 2.958 13.177 5.101a162.815 162.815 0 0115.546 6.428 30.888 30.888 0 0110.179 8.315c3.011 3.694 4.517 8.481 4.517 14.36 0 8.748-3.207 15.666-9.62 20.753-6.414 5.087-15.106 7.625-26.074 7.616-7.436-.014-13.943-1.209-19.52-3.584z" fill="#000"/><path d="M105.95 176.018c-5.577-2.376-9.876-5.777-12.897-10.202a26.738 26.738 0 01-4.532-15.443v-3.074a1.672 1.672 0 011.032-1.551 1.66 1.66 0 01.641-.126h15.895a1.668 1.668 0 011.674 1.663v2.096c0 3.727 1.719 6.871 5.158 9.433 3.44 2.562 8.087 3.843 13.944 3.843 4.922 0 8.593-1.048 11.015-3.144a9.867 9.867 0 003.625-7.756 7.846 7.846 0 00-2.231-5.66 19.715 19.715 0 00-6.065-4.053c-2.561-1.169-6.628-2.776-12.201-4.821a119.81 119.81 0 01-15.825-6.569 31.88 31.88 0 01-10.876-9.153c-2.928-3.862-4.392-8.637-4.392-14.325a25.245 25.245 0 014.323-14.674c3-4.292 7.16-7.637 11.991-9.642 5.112-2.236 11.015-3.354 17.708-3.354a45.06 45.06 0 0118.892 3.773 30.803 30.803 0 0112.968 10.551 27.065 27.065 0 014.67 15.722v2.096a1.677 1.677 0 01-1.659 1.677h-16.034a1.668 1.668 0 01-1.674-1.663v-1.132c0-3.913-1.603-7.243-4.81-9.992-3.207-2.748-7.599-4.123-13.176-4.123-4.378 0-7.794.932-10.248 2.795a9.081 9.081 0 00-3.695 7.687 8.393 8.393 0 002.161 5.869 18.991 18.991 0 006.414 4.263c2.83 1.258 7.222 2.958 13.176 5.101a162.94 162.94 0 0115.547 6.428 30.895 30.895 0 0110.178 8.315c3.012 3.694 4.518 8.481 4.518 14.36 0 8.753-3.207 15.671-9.621 20.753-6.414 5.082-15.105 7.621-26.074 7.616-7.441-.014-13.947-1.209-19.52-3.584z" fill="#fff"/><path d="M125.47 180.979c-7.592 0-14.341-1.237-20.065-3.675a30.52 30.52 0 01-13.504-10.698 28.18 28.18 0 01-4.775-16.232v-3.075a3.078 3.078 0 011.894-2.84 3.053 3.053 0 011.174-.234h15.895a3.051 3.051 0 012.831 1.887c.155.372.235.77.236 1.173v2.096c0 3.292 1.506 6.01 4.594 8.309 3.089 2.299 7.585 3.57 13.114 3.57 4.559 0 7.954-.943 10.102-2.795a8.471 8.471 0 003.144-6.708 6.414 6.414 0 00-1.841-4.688 18.64 18.64 0 00-5.64-3.753c-2.523-1.146-6.595-2.753-12.102-4.779a121.294 121.294 0 01-15.972-6.624 33.484 33.484 0 01-11.357-9.566c-3.102-4.095-4.678-9.203-4.678-15.17a26.738 26.738 0 014.567-15.464 28.873 28.873 0 0112.583-10.11c5.264-2.328 11.434-3.495 18.266-3.495a46.677 46.677 0 0119.471 3.948 32.35 32.35 0 0113.574 10.992 28.58 28.58 0 014.88 16.518v2.097a3.068 3.068 0 01-3.054 3.074h-16.034a3.047 3.047 0 01-2.151-.909 3.068 3.068 0 01-.882-2.165v-1.118c0-3.494-1.394-6.436-4.322-8.93-2.928-2.495-7.062-3.788-12.27-3.788-4.037 0-7.202.846-9.412 2.516a7.703 7.703 0 00-3.137 6.568 6.95 6.95 0 001.799 4.891 17.666 17.666 0 005.947 3.927c2.788 1.244 7.201 2.949 13.085 5.066 5.34 1.91 10.58 4.088 15.7 6.527A32.391 32.391 0 01157.762 136c3.221 3.92 4.88 9.042 4.88 15.212 0 9.168-3.416 16.519-10.151 21.85-6.734 5.332-15.783 7.917-27.021 7.917zm-35.276-33.938a.274.274 0 00-.103.014.27.27 0 00-.176.237v3.103a25.426 25.426 0 004.287 14.673c2.852 4.193 6.972 7.442 12.291 9.706 5.319 2.264 11.768 3.431 18.977 3.431 10.596 0 19.081-2.46 25.209-7.316s9.091-11.271 9.091-19.656c0-5.506-1.395-10.027-4.183-13.437a29.852 29.852 0 00-9.761-7.945 164.185 164.185 0 00-15.407-6.365c-5.932-2.139-10.401-3.865-13.246-5.136a20.527 20.527 0 01-6.894-4.57 9.792 9.792 0 01-2.524-6.848 10.475 10.475 0 014.246-8.804c2.704-2.04 6.434-3.075 11.091-3.075 5.891 0 10.632 1.502 14.083 4.458a14.22 14.22 0 015.298 11.055v1.118a.227.227 0 00.016.106.229.229 0 00.061.089c.024.03.055.053.09.068a.24.24 0 00.112.016h16.035a.256.256 0 00.102-.015.245.245 0 00.089-.053.255.255 0 00.087-.183v-2.097a25.764 25.764 0 00-4.413-14.981 29.558 29.558 0 00-12.402-10.076 43.914 43.914 0 00-18.314-3.648c-6.47 0-12.242 1.09-17.15 3.236a26.272 26.272 0 00-11.399 9.153 24.027 24.027 0 00-4.078 13.913c0 5.345 1.394 9.88 4.106 13.479a30.532 30.532 0 0010.409 8.755 118.868 118.868 0 0015.637 6.491c5.577 2.055 9.76 3.697 12.326 4.892a21.123 21.123 0 016.49 4.353 9.248 9.248 0 012.621 6.61 11.25 11.25 0 01-4.106 8.804c-2.67 2.313-6.679 3.494-11.928 3.494-6.142 0-11.113-1.397-14.773-4.122-3.799-2.795-5.724-6.373-5.724-10.552v-2.096a.247.247 0 00-.083-.203.24.24 0 00-.195-.076H90.194z" fill="#000"/><path d="M340.076 71.54a.437.437 0 01.09-.587c2.294-1.733 16.363-11.88 25.746-6.29 0 0 11.517 5.535 11.636 19.377a.436.436 0 01-.168.35c-1.268.978-9.913 6.784-28.318-.972a4.875 4.875 0 01-2.091-1.733l-6.895-10.146z" fill="#fff"/><path d="M365.026 85.478c1.778-5.841-2.091-11.662-5.403-13.66-4.078-2.285-9.328 2.166-11.217 7.057a4.074 4.074 0 00-1.227 3.298l.983 1.307a4.602 4.602 0 002.091 1.586 45.73 45.73 0 0012.73 2.795c1.22-.67 2.008-1.502 2.043-2.383z" fill="#688564"/><path d="M417.168 93.756l-2.154-1.628c-.648-1.195-1.764-1.9-2.789-2.74-.62-.53-.836-1.397-1.589-1.837-1.29-1.663-2.858-3.11-3.953-4.891-.558-.909-1.29-1.67-1.903-2.523-.697-.999-1.213-2.096-1.924-3.123a23.492 23.492 0 01-3.054-6.1c-.334-1.006-.753-1.992-1.171-2.956a25.178 25.178 0 01-1.861-7.071 179.219 179.219 0 00-.621-4.633 12.48 12.48 0 00-.376-1.398 5.04 5.04 0 00.188-.95c.015-2.674.18-5.345.495-8a4.768 4.768 0 00-.167-1.189c.319-.368.544-.81.655-1.285a41.87 41.87 0 01.509-2.642 9.093 9.093 0 011.317-3.423c.119-.161 0-.462.042-.7.656-1.662 1.255-3.353 1.98-4.988a47.303 47.303 0 013.019-5.821c.286-.41.439-.898.439-1.398a4.708 4.708 0 001.297-2.06c.031-.256.133-.498.293-.7 1.08-1.069 1.485-2.536 2.175-3.822a28.392 28.392 0 001.966-4.192 10.894 10.894 0 011.875-3.138c.105-.126.223-.244.369-.412.461-.23.983-.475 1.485-.755a3.86 3.86 0 013.612-.167 18.684 18.684 0 011.457 2.466c.307.734.99 1.083 1.359 1.733a36.866 36.866 0 003.821 5.066c1.192 1.46 2.091 3.138 3.262 4.577 1.478 2.83 3.305 5.457 4.602 8.385a55.905 55.905 0 012.419 6.68c.138.644.24 1.295.306 1.95.076.735.243 1.458.495 2.152.251.61.365 1.269.335 1.928-.084 1.796 0 3.599-.084 5.395-.046.652-.03 1.307.049 1.956.226 1.294.269 2.614.126 3.92-.119.902 0 1.81-.056 2.698a43.603 43.603 0 01-.697 6.093 54.477 54.477 0 01-2.196 8.035c-.17.541-.404 1.06-.697 1.545-.572.796-.6 1.886-1.339 2.599-.202 1.398-1.527 2.313-1.799 3.738-.083.44-.53.818-.815 1.223-.565.797-1.29 1.496-1.45 2.537-.041.159-.12.305-.23.426a52.247 52.247 0 01-3.835 4.821 2.31 2.31 0 01-.537-2.096c.321-2.096.035-4.248.098-6.373a8.789 8.789 0 01.362-2.648 13.513 13.513 0 001.771-2.397c.453-.964 1.067-1.837 1.506-2.795.334-.832.765-1.623 1.283-2.355.103-.128.181-.275.23-.433.495-1.642 1.227-3.214 1.457-4.94a3.504 3.504 0 00-.139-1.69c-.049-.14-.203-.238-.307-.357-.635-.098-1.067.314-1.618.643-.655.86-1.359 1.767-2.056 2.69a5.318 5.318 0 00-1.046 1.921 2.273 2.273 0 01-1.164 1.482c-.07-.07-.174-.119-.181-.182a30.332 30.332 0 01-.133-3.654c.026-.9-.004-1.801-.091-2.698-.055-.978.049-1.97-.076-2.934a19.591 19.591 0 010-4.249c.467-.608.92-1.3 1.471-1.9.551-.601.648-1.496 1.08-2.188.175-.279.405-.524.572-.803.159-.256.301-.522.425-.797a53.764 53.764 0 001.771-4.556 21.16 21.16 0 001.248-6.24 28.501 28.501 0 01.209-4.15c0-.063-.063-.147-.125-.28a1.827 1.827 0 00-.593-.258c-.369 0-.579.272-.697.58a6.165 6.165 0 01-.397 1.153 21.97 21.97 0 00-1.925 4.192c-.836 2.097-1.659 4.249-2.495 6.366-.109.223-.247.43-.412.615a.578.578 0 01-.383.273.588.588 0 01-.46-.098 2 2 0 01-.314-1.398 10.848 10.848 0 00-.146-3.186c-.391-3.103-.795-6.205-1.179-9.308a12.82 12.82 0 01-.202-3.43 4.653 4.653 0 00-.216-1.95 35.625 35.625 0 01-.871-4.088 2.953 2.953 0 00-1.179-2.04c-.759-.077-1.491-.168-2.091.566-.017 1.23.157 2.456.516 3.633.697 1.887.697 3.871.969 5.814a13.005 13.005 0 00.286 4.41c.313 1.872 0 3.772.293 5.645a9.359 9.359 0 00.132 3.18c.07.698.153 1.467.237 2.173-.146.258-.258.475-.376.698h-.042a5.513 5.513 0 01-1.513-1.572c-.76-1.258-1.631-2.446-2.468-3.654a12.66 12.66 0 00-4.462-4.27 1.307 1.307 0 00-1.248.336 1.3 1.3 0 00-.216 1.258 32.518 32.518 0 012.364 3.884c1.254 2.572 2.621 5.094 3.945 7.638.096.226.21.443.342.65 1.394 1.81 2.294 3.948 3.723 5.653.097.831.223 1.565.265 2.306.042.74-.098 1.474 0 2.2.258 2.614 0 5.234.258 7.848.133.82-.06 1.66-.537 2.34-.697-.363-.92-1.131-1.394-1.663a13.872 13.872 0 01-2.28-3.493 23.844 23.844 0 00-2.824-4.277 6.894 6.894 0 01-.585-.782c-.872-1.572-1.736-3.152-2.594-4.717a5.842 5.842 0 00-1.659-1.223c-.537 0-.697.287-.927.657a10.077 10.077 0 001.269 5.346c.376.628.697 1.292 1.087 1.914a37.072 37.072 0 012.168 3.836 54.03 54.03 0 004.567 7.82c1.087 1.537 1.959 3.2 3.005 4.75.041.162.09.322.118.483.222 1.706.252 3.43.091 5.143a40.296 40.296 0 00-.147 6.645z" fill="#E6EBAF"/><path d="M396.316 44.676c.106.387.162.786.168 1.188a71.32 71.32 0 00-.502 8 5.04 5.04 0 01-.188.95 123.574 123.574 0 01-12.117-4.115 42.245 42.245 0 01-7.397-3.878 64.818 64.818 0 01-9.307-7.288 41.356 41.356 0 01-4.148-4.556 64.618 64.618 0 01-6.337-9.391 42.91 42.91 0 01-4.601-13.493c-.377-2.194-.572-4.416-.781-6.624a15.514 15.514 0 01.118-4.43 7.25 7.25 0 01.258-.867 5.852 5.852 0 012.294-.105c1.478.077 2.949.168 4.427.252 1.806.112 3.591.453 5.312 1.013 4.839 1.565 9.698 3.082 14.445 4.891a75.733 75.733 0 0111.594 5.975c1.129.698 2.259 1.341 3.353 2.096a38.104 38.104 0 013.172 2.34c1.952 1.636 3.884 3.299 5.752 5.039.86.884 1.667 1.817 2.419 2.795 0 .5-.153.988-.439 1.397a47.294 47.294 0 00-3.033 5.842c-.697 1.635-1.324 3.326-1.98 4.99-.251.16-.446.495-.864.258l-2.573-5.283a50.367 50.367 0 00-3.095-5.31c-.941-1.44-2.092-2.747-2.893-4.277a3.297 3.297 0 00-.865-.866 1.223 1.223 0 00-1.743.244 1.973 1.973 0 00-.265.601 9.254 9.254 0 001.485 4.465c1.032 1.866 2.092 3.718 3.103 5.59.327.66.609 1.342.843 2.04a.395.395 0 01-.265.552c-.822-.293-1.024-1.236-1.742-1.683a25.52 25.52 0 01-2.127-1.677 278.335 278.335 0 01-2.3-1.86 5.738 5.738 0 01-1.116-.963 13.784 13.784 0 00-2.51-2.355l-1.227-1.083c-.899-5.479-3.011-10.754-5.263-13.179a3.686 3.686 0 00-.474-.126 2.288 2.288 0 00-.488 0 1.396 1.396 0 00-1.395 1.656c.053.659.228 1.3.516 1.894.335.657.698 1.32.949 2.005.348.832.648 1.692.941 2.544.041.119-.063.293-.119.51-1.743-1.272-3.367-2.648-5.047-3.955-1.68-1.306-3.235-2.536-4.88-3.78a62.46 62.46 0 00-5.097-3.752 1.102 1.102 0 00-.932.308 1.114 1.114 0 00-.322.928c.201.634.572 1.2 1.073 1.635a26.217 26.217 0 013.019 2.9c.71.683 1.457 1.327 2.238 1.929.781.699 1.492 1.516 2.259 2.25 1.484 1.397 2.99 2.795 4.468 4.192a1.864 1.864 0 01.795 1.398c-.159.03-.32.052-.481.063a32.7 32.7 0 01-4.88-.699 20.878 20.878 0 00-3.932-.384l-1.039.663c-.063.413-.125.811-.188 1.21a4.094 4.094 0 002.245 1.572 52.664 52.664 0 007.125 1.781c.481.1.972.152 1.464.154.976-.035 1.987 0 2.83-.629a1.103 1.103 0 011.137-.181l3.973 3.326a9.613 9.613 0 002.294 2.222c1.074.894 2.175 1.754 3.263 2.634.306.252.585.545.85.79a.697.697 0 01-.746.6c-1.882 0-3.771-.055-5.654-.076h-4.183c-.407.04-.808.122-1.199.244a.87.87 0 00-.495.776 1.235 1.235 0 00.314.908c.447.49 1.047.812 1.701.916 1.701.272 3.416.475 5.096.838 2.894.634 5.882.715 8.805.238a2.22 2.22 0 011.604.125 13.848 13.848 0 003.527 3.138z" fill="#3D6334"/><path d="M417.169 93.755a40.195 40.195 0 01.091-6.61 23.095 23.095 0 00-.091-5.143c0-.16-.077-.321-.119-.482-1.045-1.55-1.917-3.214-3.004-4.751a54.03 54.03 0 01-4.567-7.82 37.072 37.072 0 00-2.168-3.835c-.404-.622-.697-1.286-1.087-1.915a10.077 10.077 0 01-1.269-5.346c.216-.37.39-.642.927-.656.621.306 1.183.72 1.659 1.222.858 1.566 1.722 3.145 2.594 4.717.176.274.372.536.585.783a23.9 23.9 0 012.824 4.276 13.895 13.895 0 002.279 3.494c.502.53.698 1.3 1.395 1.663a.692.692 0 00-.056.224c0 .048.077.09.118.132l-.048-.363c.477-.68.67-1.52.536-2.341-.244-2.613 0-5.234-.257-7.847-.077-.699.055-1.474 0-2.201-.056-.727-.168-1.474-.265-2.306-1.43-1.705-2.315-3.843-3.723-5.653a4.423 4.423 0 01-.342-.65c-1.324-2.543-2.691-5.066-3.946-7.637a32.51 32.51 0 00-2.363-3.885 1.303 1.303 0 01.216-1.258 1.308 1.308 0 011.248-.335 12.662 12.662 0 014.462 4.269c.836 1.209 1.708 2.397 2.468 3.655a5.5 5.5 0 001.513 1.572c0 .154-.244.405.167.356l-.126-.356c.119-.217.23-.434.377-.699a89.985 89.985 0 01-.237-2.173 9.36 9.36 0 01-.063-3.228c-.286-1.873 0-3.774-.293-5.646a13.055 13.055 0 01-.286-4.41c-.306-1.942-.292-3.927-.969-5.813a11.954 11.954 0 01-.516-3.634c.565-.698 1.297-.642 2.092-.566a2.946 2.946 0 011.199 2.048c.211 1.378.502 2.743.871 4.087.21.627.284 1.292.217 1.95a12.819 12.819 0 00.202 3.43c.383 3.103.788 6.206 1.178 9.308.206 1.05.255 2.123.146 3.187-.071.488.041.986.314 1.397a.59.59 0 00.68.002.594.594 0 00.164-.177c.164-.185.303-.392.411-.614.837-2.097 1.659-4.249 2.496-6.366a21.902 21.902 0 011.924-4.193c.171-.37.304-.756.397-1.153.126-.307.335-.6.697-.58.212.05.412.138.593.259.063.133.132.217.126.28a28.503 28.503 0 00-.21 4.15 21.16 21.16 0 01-1.248 6.24 53.744 53.744 0 01-1.77 4.556 6.81 6.81 0 01-.447.873c-.167.28-.397.524-.571.804-.432.699-.495 1.551-1.081 2.187-.585.636-1.004 1.293-1.471 1.9a19.72 19.72 0 000 4.249c.126.964 0 1.956.077 2.935.086.896.116 1.797.091 2.697-.029 1.22.015 2.44.132 3.654 0 .063.112.112.181.182a2.27 2.27 0 001.165-1.481 5.3 5.3 0 011.045-1.922 367.46 367.46 0 012.057-2.69c.551-.329.983-.74 1.617-.643.105.119.258.217.307.356.184.544.232 1.125.139 1.691-.23 1.726-.962 3.299-1.457 4.94a1.281 1.281 0 01-.23.434 11.468 11.468 0 00-1.282 2.355c-.44.95-1.053 1.823-1.506 2.795a13.612 13.612 0 01-1.771 2.396 8.758 8.758 0 00-.363 2.649c-.062 2.096.224 4.248-.097 6.372a2.3 2.3 0 00.008 1.116c.093.365.275.702.529.98l-.481.7a.99.99 0 00-.816.419l-.697.97c-.453.532-.872 1.098-1.395 1.594a2.18 2.18 0 01-1.826.873zm3.911-44.636v.126l.091-.084-.091-.042zM396.318 44.675a13.854 13.854 0 01-3.486-3.158 2.218 2.218 0 00-1.603-.126 23.477 23.477 0 01-8.805-.237c-1.681-.364-3.396-.566-5.097-.839a2.928 2.928 0 01-1.701-.915 1.239 1.239 0 01-.313-.908.87.87 0 01.453-.755 6.001 6.001 0 011.199-.217h4.183c1.882 0 3.771.063 5.654.077a.697.697 0 00.746-.6c-.265-.245-.544-.539-.851-.79-1.087-.88-2.189-1.74-3.263-2.635a9.598 9.598 0 01-2.314-2.194l-3.96-3.368a1.1 1.1 0 00-1.136.182c-.844.643-1.855.594-2.831.629a7.388 7.388 0 01-1.464-.154 52.675 52.675 0 01-7.118-1.796 4.093 4.093 0 01-2.21-1.572c.063-.398.126-.796.189-1.209l1.038-.664c1.32.004 2.637.133 3.932.385 1.607.355 3.238.589 4.88.698.162-.01.322-.032.481-.062a1.873 1.873 0 00-.794-1.398c-1.478-1.398-2.984-2.795-4.469-4.192-.767-.734-1.478-1.53-2.259-2.25a27.166 27.166 0 01-2.273-1.929 26.163 26.163 0 00-3.025-2.879 3.615 3.615 0 01-1.067-1.649 1.112 1.112 0 011.255-1.237 62.304 62.304 0 015.096 3.752c1.638 1.244 3.249 2.516 4.88 3.78 1.632 1.266 3.305 2.684 5.048 3.956.055-.217.16-.392.118-.51-.293-.853-.592-1.712-.941-2.544-.279-.699-.614-1.348-.948-2.005a5.273 5.273 0 01-.516-1.894 1.4 1.4 0 01.794-1.531c.188-.086.393-.128.6-.125.162-.017.326-.017.488 0 .161.031.319.073.474.126 2.252 2.425 4.364 7.686 5.264 13.178l1.234 1.063a13.85 13.85 0 012.51 2.354c.329.368.703.692 1.115.965.76.621 1.534 1.243 2.301 1.858a25.341 25.341 0 002.126 1.677c.697.448.92 1.398 1.743 1.684a.398.398 0 00.265-.552c-.232-.7-.512-1.384-.837-2.047-1.011-1.88-2.091-3.731-3.102-5.59a9.244 9.244 0 01-1.485-4.465 1.95 1.95 0 01.265-.601 1.226 1.226 0 011.743-.245c.339.233.633.526.864.867.816 1.53 1.952 2.837 2.893 4.276a50.376 50.376 0 013.096 5.31l2.572 5.283c.419.238.614-.097.865-.258 0 .237.076.538-.042.699a9.101 9.101 0 00-1.276 3.381 42.595 42.595 0 00-.509 2.642 3.011 3.011 0 01-.669 1.279z" fill="#BBCB7D"/><path d="M383.917 74.307l.049.363c-.042-.042-.111-.084-.118-.133a.718.718 0 01.055-.223l.014-.007zM387.738 50.115l.12.042-.085.085-.035-.127zM383.556 49.69l.125.356c-.411.049-.181-.203-.167-.356h.042z" fill="#E6EBAF"/><path d="M93.036 61.15c.956-.294 1.987-.622 3.347-1.007 1.36-.384 2.733-.817 4.315-1.146l2.412-.552c.837-.175 1.701-.314 2.58-.468 1.757-.35 3.632-.545 5.577-.783.962-.111 1.952-.153 2.942-.23l1.506-.105c.502 0 1.011 0 1.527-.042 1.024 0 2.049-.056 3.088-.049l3.144.098a82.39 82.39 0 0112.591 1.621 79.607 79.607 0 0111.754 3.536c.906.363 1.792.761 2.663 1.132.432.188.864.37 1.29.573l1.241.615c.815.419 1.617.81 2.384 1.23l2.217 1.292 1.053.63 1.017.642 1.939 1.258c1.24.817 2.391 1.6 3.423 2.334a38.2 38.2 0 014.74 3.8s7.864 8.91-13.448-1.397l-3.395-1.991c-1.164-.594-2.322-1.223-3.486-1.81l-1.833-.853c-.607-.265-1.206-.565-1.827-.796l-1.868-.74-.934-.378-.956-.321a77.231 77.231 0 00-15.964-3.78 79.326 79.326 0 00-16.962-.336c-1.429.147-2.866.321-4.309.496s-2.872.461-4.308.748l-2.147.475c-.697.16-1.45.314-2.134.489l-4.183 1.013s-12.904 2.362-8.435-1.062c1.729-1.286 5.612-2.963 9.44-4.137z" fill="#3D6334"/><path d="M123.767 44.49c.865-.146 1.792-.307 3.019-.482s2.468-.391 3.855-.475l2.141-.175c.732 0 1.492 0 2.258-.048 1.548-.063 3.159.048 4.818.125.829.042 1.666.168 2.516.259l1.283.146c.426.05.851.14 1.283.217.858.154 1.729.294 2.6.475l2.608.643a56.228 56.228 0 0110.206 3.871 57.967 57.967 0 019.063 5.737c.697.545 1.339 1.111 1.987 1.656.321.273.648.538.955.818l.906.866c.593.58 1.186 1.132 1.736 1.705l1.576 1.747.746.838.697.86c.467.566.92 1.118 1.352 1.656.865 1.076 1.66 2.096 2.371 3.046a35.997 35.997 0 013.151 4.822s4.671 10.754-10.952-3.801l-2.419-2.683c-.844-.825-1.681-1.692-2.545-2.509l-1.339-1.18c-.446-.385-.885-.805-1.394-1.154l-1.394-1.104-.697-.552-.698-.51a55.238 55.238 0 00-12.548-6.722 54.281 54.281 0 00-14.125-3.25c-1.234-.09-2.468-.153-3.716-.216-1.247-.063-2.502 0-3.764.056l-1.903.133c-.635.042-1.283.084-1.89.147l-3.709.356s-11.321.293-6.853-2.537c1.75-1.09 5.362-2.194 8.819-2.78z" fill="#F5ACB9"/><path d="M271.167 171.316a30.683 30.683 0 01-11.433-16.771 49.72 49.72 0 01-1.952-14.254 51.936 51.936 0 011.952-14.814 30.043 30.043 0 0111.573-16.211c5.577-3.913 12.27-5.87 20.078-5.87 7.622 0 14.129 1.934 19.52 5.8 5.392 3.867 9.203 9.247 11.434 16.141a48.051 48.051 0 012.23 14.674 49.439 49.439 0 01-1.952 14.115c-2.049 7.267-5.837 12.974-11.363 17.12-5.526 4.146-12.196 6.219-20.009 6.219-7.808 0-14.5-2.05-20.078-6.149zm27.887-13.556a15.582 15.582 0 004.601-7.687 40.578 40.578 0 001.115-9.782 38.127 38.127 0 00-1.115-9.923 15.592 15.592 0 00-4.741-7.406 12.91 12.91 0 00-15.686 0 14.906 14.906 0 00-4.531 7.406c-.744 2.236-1.116 5.544-1.116 9.923 0 4.192.326 7.453.976 9.782a15.228 15.228 0 004.671 7.687 11.908 11.908 0 008.017 2.795 11.47 11.47 0 007.809-2.795z" fill="#000"/><path d="M265.841 166.347a30.751 30.751 0 01-11.433-16.77 49.802 49.802 0 01-1.952-14.255 51.905 51.905 0 011.952-14.814 30.047 30.047 0 0111.573-16.211c5.577-3.913 12.27-5.87 20.078-5.87 7.617 0 14.124 1.934 19.52 5.8 5.396 3.867 9.207 9.247 11.433 16.142a48.043 48.043 0 012.231 14.674 49.24 49.24 0 01-1.917 14.093c-2.045 7.267-5.833 12.974-11.364 17.12-5.53 4.146-12.2 6.219-20.008 6.219-7.831.014-14.536-2.029-20.113-6.128zm27.886-13.556a15.506 15.506 0 004.602-7.686 40.288 40.288 0 001.115-9.783 37.859 37.859 0 00-1.115-9.922 15.512 15.512 0 00-4.741-7.407 12.91 12.91 0 00-15.686 0 14.88 14.88 0 00-4.497 7.386c-.743 2.236-1.115 5.543-1.115 9.922a38.236 38.236 0 00.976 9.783 15.306 15.306 0 004.671 7.686 11.918 11.918 0 008.017 2.795 11.462 11.462 0 007.773-2.774z" fill="#fff"/><path d="M285.954 173.894c-8.073 0-15.107-2.159-20.915-6.421a32.21 32.21 0 01-11.949-17.511 51.353 51.353 0 01-2.008-14.674 53.42 53.42 0 012.015-15.212 31.496 31.496 0 0112.11-16.959c5.786-4.067 12.813-6.12 20.872-6.12 7.885 0 14.724 2.04 20.336 6.057 5.613 4.018 9.635 9.699 11.95 16.847a49.835 49.835 0 012.293 15.107 51.038 51.038 0 01-2.007 14.514c-2.092 7.518-6.108 13.527-11.852 17.839-5.745 4.311-12.8 6.533-20.845 6.533zm.139-74.068c-7.48 0-13.943 1.887-19.276 5.59a28.79 28.79 0 00-11.043 15.478 50.937 50.937 0 00-1.889 14.429 48.706 48.706 0 001.896 13.856 29.502 29.502 0 0010.89 16.03c5.305 3.906 11.782 5.883 19.248 5.883 7.467 0 13.943-1.998 19.179-5.939 5.235-3.941 8.903-9.448 10.834-16.379a48.198 48.198 0 001.896-13.731c.02-4.832-.71-9.639-2.161-14.247-2.092-6.569-5.801-11.76-10.918-15.436-5.117-3.675-11.398-5.534-18.69-5.534h.034zm-.139 57.158a13.319 13.319 0 01-8.917-3.13 16.724 16.724 0 01-5.11-8.385c-.697-2.481-1.032-5.807-1.032-10.167 0-4.577.391-7.966 1.193-10.37a16.224 16.224 0 014.949-8.028 14.318 14.318 0 0117.478 0 17.078 17.078 0 015.18 8.056 39.622 39.622 0 011.178 10.356 41.642 41.642 0 01-1.157 10.118 17.03 17.03 0 01-5.034 8.385 12.882 12.882 0 01-8.728 3.165zm-.139-40.248c-2.53-.104-5.01.724-6.972 2.327a13.548 13.548 0 00-4.092 6.729c-.697 2.096-1.06 5.317-1.06 9.531a36.998 36.998 0 00.927 9.405 13.922 13.922 0 004.232 6.988 10.485 10.485 0 007.111 2.466c2.524.08 4.986-.795 6.895-2.452a14.26 14.26 0 004.183-6.988 39.024 39.024 0 001.059-9.398 36.546 36.546 0 00-1.066-9.552 14.128 14.128 0 00-4.281-6.701 10.44 10.44 0 00-6.971-2.355h.035zM236.735 121.186c4.555 4.561 6.832 10.757 6.832 18.587v45.839a1.68 1.68 0 01-.488 1.188 1.669 1.669 0 01-1.185.489h-16.313a1.666 1.666 0 01-1.674-1.677v-41.786c0-3.727-1.045-6.755-3.137-9.084a11.61 11.61 0 00-8.296-3.494 11.588 11.588 0 00-8.296 3.494c-2.092 2.329-3.137 5.357-3.137 9.084v41.786a1.685 1.685 0 01-.488 1.188 1.666 1.666 0 01-1.186.489h-16.313a1.657 1.657 0 01-1.185-.489 1.672 1.672 0 01-.488-1.188V91.14a1.668 1.668 0 011.673-1.677h16.313a1.668 1.668 0 011.674 1.677v30.885a.56.56 0 00.279.559.275.275 0 00.35-.033.275.275 0 00.068-.107c3.806-5.399 9.476-8.101 17.01-8.105 7.432-.01 13.428 2.273 17.987 6.847z" fill="#000"/><path d="M231.409 116.196c4.555 4.57 6.832 10.766 6.832 18.587v45.846a1.676 1.676 0 01-.49 1.183 1.664 1.664 0 01-1.183.487h-16.313a1.67 1.67 0 01-1.674-1.67v-41.793c0-3.727-1.045-6.755-3.137-9.084a11.596 11.596 0 00-16.592 0c-2.092 2.329-3.137 5.357-3.137 9.084v41.793a1.677 1.677 0 01-1.034 1.544 1.67 1.67 0 01-.639.126h-16.314a1.675 1.675 0 01-1.183-.487 1.673 1.673 0 01-.49-1.183v-94.48a1.603 1.603 0 01.488-1.18 1.61 1.61 0 011.185-.496h16.314a1.608 1.608 0 011.185.496 1.596 1.596 0 01.488 1.18v30.893a.551.551 0 00.279.552.272.272 0 00.418-.133c3.811-5.408 9.481-8.11 17.01-8.105 7.455 0 13.451 2.28 17.987 6.84z" fill="#fff"/><path d="M236.568 183.697h-16.314a3.048 3.048 0 01-2.168-.896 3.059 3.059 0 01-.899-2.172v-41.792c0-3.396-.906-6.065-2.789-8.148a10.19 10.19 0 00-11.189-2.245 10.232 10.232 0 00-3.326 2.245c-1.868 2.097-2.788 4.752-2.788 8.148v41.792a3.049 3.049 0 01-.895 2.176 3.045 3.045 0 01-2.173.892h-16.313a3.045 3.045 0 01-1.173-.232 3.059 3.059 0 01-1.895-2.836V86.151c0-.816.324-1.598.899-2.174a3.063 3.063 0 012.169-.9h16.313c.814 0 1.594.323 2.169.9.576.576.899 1.358.899 2.174v28.236c3.988-4.269 9.46-6.428 16.313-6.428 7.781 0 14.166 2.438 18.977 7.253 4.803 4.821 7.236 11.404 7.236 19.565v45.845a3.049 3.049 0 01-.894 2.176 3.06 3.06 0 01-2.173.892l.014.007zm-29.392-58.835a11.997 11.997 0 019.335 3.962c2.321 2.578 3.485 5.953 3.485 10.013v41.792a.232.232 0 00.014.108.23.23 0 00.063.088.243.243 0 00.202.077h16.314a.234.234 0 00.111-.012.235.235 0 00.091-.065.234.234 0 00.077-.196v-45.845c0-7.4-2.162-13.318-6.421-17.595-4.267-4.269-9.984-6.435-17.004-6.435-7.02 0-12.263 2.439-15.832 7.456a1.66 1.66 0 01-2.224.635 1.931 1.931 0 01-1.046-1.802V86.151a.237.237 0 00-.084-.203.228.228 0 00-.195-.077h-16.313a.27.27 0 00-.26.172.285.285 0 00-.019.108v94.478a.22.22 0 00.077.196.241.241 0 00.202.077h16.313a.22.22 0 00.202-.077.214.214 0 00.062-.089.217.217 0 00.015-.107v-41.792c0-4.06 1.178-7.435 3.486-10.013a12 12 0 019.349-3.962z" fill="#000"/></svg>