<svg width="499" height="278" viewBox="0 0 499 278" fill="none" xmlns="http://www.w3.org/2000/svg">
<g clip-path="url(#clip0)">
<path d="M438.9 116.305C434.037 115.414 429.232 114.524 424.368 113.633C421.462 109.714 418.496 105.855 415.649 101.877C412.921 98.0175 410.371 93.98 407.701 90.0612C406.1 87.7456 404.499 85.4299 402.838 83.1737C402.482 82.6987 402.067 82.2831 401.355 82.5799C401.236 82.8174 400.94 83.1143 400.999 83.3518C404.083 94.2175 410.964 103.064 417.014 112.268C416.598 112.564 416.42 112.743 416.183 112.921C411.201 112.505 406.219 112.089 401.236 111.674C390.797 110.783 380.358 111.793 369.919 112.446C369.326 112.505 368.733 112.446 368.139 112.446C368.317 109.061 368.555 105.618 368.673 102.233C368.792 98.5519 368.911 94.8112 368.911 91.13C368.911 89.705 368.911 88.1018 367.487 86.7956C366.953 86.855 366.301 86.9737 365.708 87.0331C364.462 90.7143 363.75 97.8394 362.979 112.861C360.963 113.158 358.946 113.396 356.87 113.693C355.98 111.971 355.091 110.308 354.201 108.586C354.616 106.152 354.913 103.836 355.387 101.521C356.751 94.93 356.929 88.2206 356.633 81.5706C356.573 79.6706 356.395 77.7112 355.328 76.1674C354.853 76.0487 354.557 75.9893 354.023 75.8705C353.726 76.583 353.193 77.3549 353.133 78.1268C352.777 81.6893 352.599 85.2518 352.244 88.8143C351.888 92.7925 351.591 96.7706 350.108 100.927C348.092 98.9081 347.024 96.6519 345.897 94.6925C345.897 93.5644 345.897 92.6737 345.897 91.7831C345.897 85.9643 345.956 80.2049 345.838 74.3862C345.838 72.783 345.423 71.1799 345.007 69.5768C344.77 68.6862 343.999 68.1518 342.931 68.3299C341.686 68.983 341.626 70.2299 341.567 71.4174C341.508 75.8705 341.389 80.3237 341.33 84.7768C341.33 85.3706 341.33 85.9643 340.5 86.0237C340.262 85.8456 339.966 85.7268 339.788 85.5487C336.348 80.9174 332.967 76.1674 329.467 71.5362C326.086 67.0236 322.587 62.5705 319.087 58.1767C317.901 56.6924 316.537 55.2674 314.224 54.8517C313.809 55.4455 313.334 56.0392 312.741 56.7517C318.85 65.5393 325.375 73.7924 331.543 83.1737C328.222 82.5206 325.612 81.3331 322.883 80.8581C320.036 80.3237 317.249 78.8987 314.046 79.9081C314.046 80.6799 314.046 81.3331 314.046 82.1049C317.308 84.5393 321.223 85.0143 324.841 86.2612C328.637 87.5675 332.492 88.5768 336.17 89.6456C339.728 94.1581 342.101 98.0769 343.109 101.105C339.432 100.392 335.932 100.214 332.492 99.3831C328.874 98.4925 325.315 97.6019 321.638 96.83C318.198 96.1175 314.995 94.3956 311.377 94.0393C311.021 94.6925 310.784 95.2269 310.487 95.88C311.199 96.5331 311.733 97.305 312.504 97.7206C314.224 98.6112 315.944 99.5019 317.783 100.155C324.485 102.589 331.425 104.311 338.424 105.499C341.211 105.974 343.94 106.449 346.846 106.924C348.566 109.358 350.227 111.793 351.413 114.524C347.202 115.414 342.931 116.305 338.72 117.196C337.593 116.958 336.466 116.602 335.28 116.424C330.891 115.771 326.502 115.296 322.112 114.524C319.087 113.989 316.122 112.921 313.097 112.208C312.326 112.03 311.436 112.208 310.784 112.208C309.894 113.871 310.546 114.88 311.673 115.414C313.809 116.424 316.003 117.314 318.257 118.027C321.045 118.977 323.892 119.749 326.68 120.58C322.883 121.649 319.147 122.777 315.351 123.786C314.402 124.024 313.334 124.083 312.385 124.202C311.199 123.311 310.013 122.48 308.826 121.589C306.335 119.689 304.081 117.611 302.302 114.999C301.471 113.752 300.344 112.743 299.514 111.555C299.04 110.843 298.684 109.952 298.624 109.121C298.387 106.924 300.641 105.083 302.717 105.796C303.785 106.152 304.793 106.805 305.801 107.339C306.572 106.627 305.742 106.271 305.505 105.914C301.946 100.808 297.557 96.4144 294.295 91.0706C293.523 89.8237 292.752 88.5175 292.1 87.2112C291.685 86.3206 291.329 85.3112 291.151 84.3018C290.795 82.0456 292.456 80.2049 294.71 80.2643C296.667 80.3237 298.446 81.0956 300.048 82.2237C301.768 83.4112 303.488 84.5393 305.149 85.6675C305.742 86.2612 306.216 87.0925 307.521 86.6768C307.462 85.7268 306.869 85.1924 306.157 84.6581C304.2 81.8674 302.242 79.0768 300.344 76.2268C299.277 74.6237 298.15 73.0205 298.031 71.0612C299.336 67.2018 299.395 67.2018 304.734 66.9049C304.912 65.5986 303.963 64.7674 303.488 63.758C302.954 62.5111 302.242 61.383 301.887 60.0767C301.293 58.058 302.48 56.158 304.556 55.683C305.149 55.5642 305.742 55.6236 306.335 55.5642C306.75 55.5049 307.165 55.3861 307.759 55.2674C307.64 53.4267 307.403 51.7048 307.343 49.9236C307.284 47.4298 307.284 44.8767 307.284 42.3829C307.284 41.7892 307.343 41.1954 307.462 40.6017C308.114 37.3954 311.021 35.9704 313.868 37.5736C315.825 38.6423 317.605 40.0079 319.443 41.2548C321.757 42.8579 324.01 44.5205 326.502 46.2423C327.213 45.2923 327.688 44.4017 328.34 43.7486C328.933 43.1548 329.823 42.8579 330.416 42.5611C333.382 42.6204 334.983 44.4017 336.288 46.4205C338.068 49.1517 339.669 52.0017 341.33 54.8517C341.686 55.5049 342.042 56.158 343.05 56.158C343.169 55.4455 343.228 54.733 343.347 54.0205C343.465 53.308 343.643 52.5361 343.88 51.883C345.245 48.2611 349.219 47.608 351.65 50.6361C352.599 51.7642 353.311 53.1299 353.904 54.4361C355.743 58.8299 357.522 63.2236 359.302 67.6174C360.014 69.3987 360.607 71.2393 361.259 73.0799C361.496 73.733 361.615 74.5643 362.683 74.9799C362.861 74.5049 363.157 74.0299 363.217 73.4955C363.394 71.8924 363.394 70.2299 363.691 68.6268C363.928 67.3799 364.521 66.133 365.115 64.9455C365.53 64.1143 366.123 63.9361 368.555 63.1643C371.224 63.3424 372.944 64.9455 374.012 67.2018C374.842 68.9237 375.494 70.7643 376.087 72.6049C376.799 74.8612 377.333 77.1768 377.926 79.4924C378.223 80.6206 378.579 81.7487 379.112 83.4706C380.061 81.5112 380.239 80.0268 380.536 78.4831C381.307 74.3862 382.553 70.408 384.273 66.608C384.807 65.4205 385.4 64.1736 386.171 63.1049C388.069 60.3736 391.212 59.8393 394 61.7393C395.839 63.0455 397.322 64.708 398.389 66.7268C398.923 67.7955 399.398 68.8643 399.991 70.0518C400.465 69.8737 400.88 69.8143 401.118 69.5768C403.846 66.4893 403.846 66.4893 407.761 65.7174C408.532 65.0643 408.295 64.1143 408.354 63.283C408.591 61.2049 408.65 59.1267 409.125 57.108C409.718 54.258 411.082 53.4861 414.285 53.4861C414.582 53.4861 414.878 53.4267 415.412 53.4267C415.709 51.408 415.946 49.3892 416.302 47.3705C416.598 45.5892 416.836 43.8673 417.31 42.1454C418.141 39.2361 419.09 38.6423 422.53 38.5829C422.826 38.5829 423.064 38.4642 423.538 38.4048C423.835 37.5142 424.131 36.5642 424.428 35.5548C424.902 34.011 425.317 32.4079 425.97 30.9235C427.038 28.3704 428.52 27.7767 431.308 28.5485C431.723 28.6673 432.138 28.786 432.791 29.0235C433.206 27.8954 433.562 26.8266 433.977 25.7579C434.57 24.3923 435.104 22.9673 435.875 21.7798C437.239 19.7016 439.315 19.6423 441.095 21.4829C441.51 21.8985 441.747 22.3735 442.044 22.7891C443.408 22.611 443.23 21.5423 443.645 20.8298C444.772 18.7516 445.662 16.4954 446.907 14.536C447.856 12.9922 449.221 11.8047 451.653 12.161C452.246 12.5766 453.076 13.111 453.966 13.7047C454.322 13.4672 454.737 13.3485 455.033 13.0516C457.999 9.4891 461.499 6.52034 465.235 3.78908C466.184 3.07658 467.193 2.42345 468.26 1.88907C471.167 0.523444 474.014 1.8297 474.785 5.03596C475.022 6.04534 475.022 7.11409 475.022 8.12347C475.022 9.31097 474.903 10.4391 474.844 11.4485C475.793 12.3985 476.683 11.7454 477.454 11.7454C480.004 11.7454 481.428 12.8735 481.665 15.3672C481.843 16.8516 481.665 18.336 481.606 19.8204C481.546 21.0079 481.487 22.1954 481.428 23.2048C482.258 24.3923 483.148 23.561 483.978 23.561C486.469 23.561 488.071 24.6891 488.249 27.1235C488.427 29.6173 488.308 32.1704 488.071 34.6642C487.893 37.1579 487.418 39.5923 487.122 42.0861C487.774 42.3236 488.13 42.6204 488.545 42.6204C492.045 43.0361 493.646 45.3517 494.299 48.4986C495.011 52.0017 495.07 55.6236 494.417 59.1267C493.765 62.6299 492.697 66.0143 491.748 69.458C491.452 70.5862 490.977 71.6549 490.621 72.6643C491.037 73.7924 491.867 73.4362 492.519 73.5549C495.96 74.2674 497.739 76.5237 497.146 79.9081C496.79 81.8081 496.137 83.6487 495.366 85.3706C493.706 89.1706 491.57 92.7331 489.079 96.1175C488.13 97.4237 487.24 98.73 486.232 100.155C487.003 100.808 487.715 101.402 488.308 101.996C489.85 103.48 490.384 105.261 489.791 107.28C489.316 108.824 488.723 110.368 487.952 111.793C485.817 115.83 482.614 118.858 479.115 121.708C475.971 124.202 472.887 126.755 469.802 129.308C467.43 128.18 464.998 127.171 462.685 125.924C457.525 123.133 452.186 120.699 446.611 118.918C446.196 118.799 445.84 118.502 445.484 118.264C446.196 112.505 446.848 106.746 447.738 101.046C448.806 94.1581 450.051 87.2706 451.237 80.6206C456.338 75.8706 460.846 70.9424 464.82 65.5393C466.244 63.6393 467.904 61.9174 469.447 60.1361C470.396 59.008 471.582 58.058 471.938 56.5736C471.938 55.6236 471.582 55.0892 470.277 55.1486C468.023 57.0486 465.473 59.1267 463.041 61.2643C460.609 63.4018 458.355 65.7768 455.211 67.1424C454.618 64.9455 455.033 63.1643 456.16 61.5018C457.94 58.9486 459.778 56.3955 461.558 53.9017C464.939 49.2111 468.32 44.5205 471.7 39.7704C472.175 39.1173 472.827 38.2861 472.056 37.3361C471.048 37.0986 470.514 37.9298 469.862 38.4642C467.193 40.8392 464.583 43.2142 461.914 45.5892C461.558 45.9455 460.965 46.0642 460.431 46.3017C459.956 42.9767 459.897 42.9767 460.609 40.7798C461.973 36.5642 463.456 32.3485 464.879 28.1329C465.235 27.1235 465.65 26.1735 465.947 25.2235C466.125 24.5704 465.71 24.1548 464.701 24.2141C463.99 25.6391 463.159 27.1829 462.388 28.786C461.617 30.3892 460.965 32.0517 460.134 33.6548C459.363 35.1985 459.245 37.0392 457.702 38.5829C456.22 35.7329 454.678 33.2392 453.669 30.3892C453.313 29.4392 452.898 28.4298 452.364 27.5985C451.949 26.886 451.237 26.7079 450.288 27.4204C450.229 27.9548 449.992 28.6673 450.051 29.3798C450.17 32.3485 450.881 35.2579 452.008 38.0486C453.313 41.3736 454.559 44.6986 455.211 48.2611C454.915 49.2705 454.618 50.2205 454.262 51.2298C453.847 52.358 453.491 53.4861 452.957 54.5549C452.542 55.3861 452.661 56.5736 451.356 57.1674C449.814 55.3267 448.509 53.3674 447.382 51.2892C446.136 49.0923 445.069 46.7767 443.823 44.5798C442.696 42.5017 441.866 40.3048 440.205 38.1673C439.671 38.7611 439.197 39.1173 439.078 39.5923C438.663 41.0767 438.96 42.5611 439.493 43.9861C440.324 46.3611 441.035 48.7955 441.925 51.1705C444.12 56.6924 446.433 62.1549 448.865 67.9736C448.331 71.0612 447.738 74.5643 445.899 77.8893C444.772 76.6424 443.883 75.6924 443.052 74.683C442.103 73.4955 441.273 72.308 440.442 71.0612C437.18 66.0736 432.732 62.0361 428.936 57.4642C428.758 57.2267 428.461 57.0486 428.224 56.9892C427.987 56.8705 427.69 56.9299 427.275 56.9299C427.097 57.2267 426.86 57.583 426.444 58.1767C432.791 67.558 438.841 77.2956 444.298 87.2706C443.23 93.4456 442.222 99.6206 441.095 105.736C441.035 105.974 440.739 106.152 440.442 106.449C440.086 106.33 439.612 106.271 439.256 105.974C437.477 104.43 435.638 102.886 433.918 101.224C432.02 99.3237 430.3 97.305 428.52 95.2862C422.886 88.8143 416.539 82.8768 412.091 75.3955C411.913 75.158 411.379 75.0987 410.667 74.9205C410.608 75.8112 410.371 76.583 410.548 77.2362C411.082 78.8987 411.735 80.6206 412.565 82.1643C414.048 84.8956 415.709 87.5675 417.429 90.18C418.793 92.3175 420.157 94.455 421.759 96.355C427.038 102.768 432.376 109.18 439.019 114.405C438.96 114.821 438.9 115.533 438.9 116.305Z" fill="#2B3D2D"/>
<path d="M438.9 116.305C438.959 115.593 438.959 114.88 439.019 114.108C432.316 108.883 427.038 102.471 421.759 96.0581C420.157 94.0987 418.793 91.9612 417.429 89.8831C415.768 87.2706 414.107 84.5987 412.565 81.8674C411.735 80.3237 411.082 78.6612 410.548 76.9393C410.37 76.3455 410.608 75.5737 410.667 74.6237C411.32 74.8612 411.913 74.8612 412.091 75.0987C416.539 82.5799 422.886 88.5175 428.52 94.9894C430.3 97.0081 432.02 99.0269 433.918 100.927C435.579 102.589 437.417 104.133 439.256 105.677C439.553 105.914 440.027 105.974 440.442 106.152C440.68 105.855 441.035 105.677 441.095 105.439C442.162 99.3237 443.23 93.1487 444.298 86.9737C438.841 76.9393 432.791 67.2611 426.444 57.8799C426.86 57.2861 427.097 56.9299 427.275 56.633C427.631 56.633 427.987 56.633 428.224 56.6924C428.52 56.8111 428.758 56.9892 428.936 57.1674C432.732 61.7392 437.18 65.7174 440.442 70.7643C441.273 72.0112 442.103 73.1987 443.052 74.3862C443.882 75.3955 444.772 76.3455 445.899 77.5924C447.797 74.208 448.331 70.7643 448.865 67.6768C446.433 61.858 444.12 56.3955 441.925 50.8736C440.976 48.558 440.324 46.0642 439.493 43.6892C439.019 42.2642 438.722 40.7798 439.078 39.2954C439.197 38.8204 439.731 38.5235 440.205 37.8704C441.866 40.0079 442.696 42.2642 443.823 44.2829C445.069 46.4798 446.136 48.7955 447.382 50.9923C448.509 53.0705 449.873 54.9705 451.356 56.8705C452.661 56.2767 452.542 55.1486 452.957 54.258C453.491 53.1892 453.847 52.0611 454.262 50.933C454.618 49.983 454.915 48.9736 455.211 47.9642C454.618 44.4017 453.373 41.0173 452.008 37.7517C450.881 34.961 450.17 32.111 450.051 29.0829C450.051 28.3704 450.229 27.6579 450.288 27.1235C451.237 26.411 451.949 26.5298 452.364 27.3016C452.898 28.1923 453.313 29.1423 453.669 30.0923C454.677 32.8829 456.22 35.3767 457.702 38.286C459.245 36.7423 459.363 34.8423 460.134 33.3579C460.965 31.7548 461.617 30.0923 462.388 28.4891C463.159 26.886 463.99 25.3423 464.701 23.9172C465.769 23.8579 466.125 24.2735 465.947 24.9266C465.71 25.936 465.235 26.886 464.879 27.836C463.456 32.0516 461.973 36.2673 460.609 40.4829C459.897 42.6204 459.956 42.6798 460.431 46.0048C460.965 45.7673 461.558 45.5892 461.914 45.2923C464.583 42.9173 467.252 40.5423 469.862 38.1673C470.514 37.5735 471.048 36.8017 472.056 37.0392C472.827 37.9892 472.234 38.8204 471.7 39.4736C468.32 44.1642 464.939 48.8548 461.558 53.6048C459.719 56.158 457.94 58.7111 456.16 61.2049C454.974 62.8674 454.618 64.6486 455.211 66.8455C458.355 65.4799 460.609 63.1642 463.041 60.9674C465.472 58.8299 468.023 56.7517 470.277 54.8517C471.522 54.8517 471.938 55.3861 471.938 56.2767C471.582 57.7611 470.455 58.7111 469.446 59.8392C467.904 61.6205 466.244 63.3424 464.82 65.2424C460.846 70.6455 456.338 75.5737 451.237 80.3237C450.11 86.9737 448.805 93.8612 447.738 100.749C446.848 106.449 446.255 112.208 445.484 117.968C443.289 117.433 441.095 116.839 438.9 116.305Z" fill="#89C5AC"/>
<path d="M351.472 114.405C350.286 111.674 348.625 109.239 346.905 106.805C344.058 106.33 341.271 105.855 338.483 105.38C331.425 104.193 324.544 102.471 317.842 100.036C316.063 99.3832 314.283 98.5519 312.563 97.6019C311.851 97.1863 311.317 96.4738 310.546 95.7613C310.843 95.1081 311.08 94.6331 311.436 93.9206C315.054 94.2769 318.257 95.9988 321.697 96.7113C325.315 97.4831 328.933 98.3738 332.552 99.2644C335.992 100.155 339.491 100.333 343.169 100.986C342.16 97.9581 339.728 94.0394 336.229 89.5269C332.552 88.4581 328.696 87.4487 324.9 86.1425C321.282 84.8956 317.367 84.4206 314.105 81.9862C314.105 81.2737 314.105 80.5612 314.105 79.7893C317.308 78.78 320.096 80.205 322.943 80.7394C325.671 81.2737 328.222 82.4019 331.603 83.055C325.493 73.6737 318.91 65.4799 312.8 56.633C313.334 55.9205 313.868 55.2674 314.283 54.733C316.596 55.0893 317.961 56.5143 319.147 58.058C322.646 62.4518 326.146 66.9049 329.527 71.4175C333.026 76.0487 336.407 80.7394 339.847 85.43C340.025 85.6675 340.322 85.7862 340.559 85.905C341.389 85.8456 341.389 85.2519 341.389 84.6581C341.449 80.205 341.508 75.7518 341.626 71.2987C341.626 70.1112 341.686 68.8643 342.991 68.2112C344.058 67.9737 344.829 68.5081 345.067 69.4581C345.482 71.0018 345.838 72.6643 345.897 74.2675C346.016 80.0862 345.956 85.8456 345.956 91.6644C345.956 92.555 345.956 93.4456 345.956 94.5738C347.083 96.5331 348.151 98.7894 350.168 100.808C351.591 96.6519 351.888 92.6144 352.303 88.6956C352.659 85.1331 352.837 81.5706 353.193 78.0081C353.252 77.2362 353.786 76.4643 354.082 75.7518C354.675 75.8706 354.913 75.93 355.387 76.0487C356.455 77.5925 356.573 79.5518 356.692 81.4519C356.929 88.1612 356.751 94.8113 355.446 101.402C354.972 103.718 354.675 106.093 354.26 108.468C355.15 110.189 356.04 111.911 356.929 113.574C355.15 114.583 353.311 114.346 351.472 114.405Z" fill="#89C5AC"/>
<path d="M416.183 112.861C416.42 112.683 416.658 112.505 417.014 112.208C410.964 103.005 404.083 94.1582 400.999 83.2925C400.94 83.1144 401.236 82.7581 401.355 82.5206C402.067 82.2238 402.482 82.6394 402.838 83.1144C404.498 85.43 406.1 87.6863 407.701 90.0019C410.371 93.9207 412.921 97.9582 415.649 101.818C418.496 105.796 421.462 109.655 424.368 113.574C421.64 113.396 418.912 113.158 416.183 112.861Z" fill="#89C5AC"/>
<path d="M362.92 112.802C363.691 97.78 364.403 90.7143 365.648 86.9737C366.241 86.9143 366.894 86.7956 367.428 86.7362C368.851 88.0425 368.851 89.5862 368.851 91.0706C368.851 94.7519 368.792 98.4925 368.614 102.174C368.495 105.558 368.258 109.002 368.08 112.386C366.419 112.564 364.64 112.683 362.92 112.802Z" fill="#89C5AC"/>
<path d="M326.798 120.461C323.951 119.63 321.163 118.858 318.376 117.908C316.122 117.136 313.927 116.246 311.792 115.296C310.665 114.761 310.013 113.752 310.902 112.089C311.555 112.089 312.444 111.911 313.215 112.089C316.24 112.802 319.147 113.871 322.231 114.405C326.561 115.236 331.009 115.652 335.399 116.305C336.526 116.483 337.653 116.78 338.839 117.077C334.806 118.205 330.772 119.333 326.798 120.461Z" fill="#89C5AC"/>
<path d="M306.335 84.5393C306.988 85.0737 307.64 85.6674 307.699 86.5581C306.454 86.9737 305.92 86.1424 305.327 85.5487C305.683 85.1924 305.979 84.8956 306.335 84.5393Z" fill="#F2BCAA"/>
<path d="M52.9053 156.216C37.3059 169.576 40.2716 220.816 60.8533 221.707C61.2092 221.707 147.866 225.566 148.222 225.566C202.197 225.804 265.365 220.579 266.611 220.579C336.422 220.638 406.234 220.638 476.105 220.638C493.069 220.638 504.16 170.822 496.746 155.563L493.662 149.269C484.409 130.329 470.945 116.791 455.642 111.032C429.188 101.057 434.645 69.7659 381.382 85.0253C375.747 86.6284 371.002 92.3285 365.605 95.5347C357.894 100.166 350.242 105.035 342.294 108.775C337.016 111.269 331.618 112.575 326.043 112.635C324.145 112.694 322.187 112.694 320.289 112.575C319.281 112.516 318.213 112.397 317.264 112.1C313.765 110.913 310.265 109.785 307.122 107.054C306.469 106.46 305.698 106.163 304.986 105.688C300.004 102.66 294.963 99.8691 290.099 96.5441C282.863 91.6753 275.33 89.1816 267.441 88.8847C261.451 88.6472 255.46 88.7066 249.41 89.5972C244.309 90.3691 239.208 90.9628 234.226 92.4472C222.245 95.2378 195.198 117.8 183.276 128.369C176.573 134.247 167.439 136.504 160.737 137.335C155.576 137.988 150.416 136.8 145.968 134.129C133.512 126.469 104.389 110.26 96.026 119.166C95.6108 119.641 95.077 120.057 94.6025 120.472L52.9053 156.216Z" fill="#F69D97"/>
<path d="M443.109 147.478C442.306 150.739 440.229 153.386 437.49 155.466C435.176 157.168 432.91 158.917 430.549 160.571C424.599 164.825 417.988 167.283 410.622 167.708C409.583 167.803 408.497 167.992 407.458 168.134C408.12 164.022 408.025 160.004 407.128 155.891C405.806 150.077 402.217 146.154 396.693 144.027C392.301 142.325 388.051 142.987 383.66 144.311C376.86 146.296 373.225 150.739 372.186 157.546C371.761 160.476 371.761 163.549 371.525 166.574C370.864 166.385 370.203 166.149 369.494 166.007C363.025 165.203 357.831 161.8 352.637 158.255C348.293 155.324 347.443 153.906 346.168 148.234C347.018 143.932 349.898 141.002 353.204 138.449C358.02 134.81 362.931 131.17 367.983 127.814C373.886 123.891 380.402 121.622 387.579 121.291C390.79 121.149 393.954 120.676 397.165 120.535C402.406 120.251 407.506 121.244 412.416 123.04C415.769 124.269 419.169 125.45 422.38 127.01C424.977 128.192 427.432 129.752 429.793 131.359C432.154 132.966 434.326 134.857 436.498 136.653C439.851 139.395 442.542 142.703 443.109 147.478Z" fill="white"/>
<path d="M407.411 168.134C405.853 168.323 404.248 168.512 402.689 168.701C400.234 168.985 397.731 169.221 395.276 169.457C394.048 169.552 392.726 169.883 391.546 169.694C384.888 168.607 378.088 168.654 371.525 166.574C371.761 163.596 371.808 160.524 372.186 157.546C373.177 150.739 376.86 146.296 383.66 144.311C388.051 142.987 392.301 142.325 396.692 144.027C402.217 146.201 405.759 150.077 407.128 155.891C407.978 160.004 408.12 164.022 407.411 168.134Z" fill="#D25B73"/>
</g>
<path d="M73.5205 222.986C73.5205 222.004 73.5205 221.023 73.5652 220.042C72.9835 218.704 73.1178 217.232 73.0283 215.849C72.9835 214.957 72.357 214.199 72.4913 213.262C71.9096 211.032 71.6858 208.712 70.8804 206.571C70.4776 205.501 70.2986 204.341 69.9407 203.226C69.5379 201.932 68.9115 200.772 68.5087 199.479C67.748 197.115 66.6741 194.84 65.2422 192.788C64.6157 191.852 64.034 190.826 63.4522 189.8C62.1546 187.436 60.4989 185.384 58.5747 183.466C57.3666 182.261 56.1584 181.057 54.9502 179.853C54.5922 179.451 54.279 179.005 53.9657 178.604C53.6525 178.47 53.2945 178.336 53.026 178.113C50.6992 176.329 48.2828 174.723 45.7322 173.207C45.3742 172.984 45.1057 172.582 44.7925 172.27C44.2555 172.27 43.7185 172.225 43.2263 171.958C42.3761 171.512 41.4811 171.066 40.5862 170.664C39.378 170.129 38.1698 169.549 36.7826 169.504C36.5589 169.504 36.3799 169.237 36.1561 169.058C34.2767 168.523 32.3973 167.899 30.5179 167.453C28.1911 166.873 25.8194 166.427 23.4031 166.204C22.8661 166.159 22.3739 166.025 21.9264 165.668C21.0314 165.713 20.1365 165.847 19.2863 165.445C19.0625 165.312 18.7493 165.222 18.5256 165.267C16.8699 165.49 15.3485 164.866 13.7375 164.598C12.0819 164.33 10.3815 164.063 8.77055 163.527C7.42812 163.081 6.13043 163.037 4.788 163.081C4.60901 163.081 4.43002 163.126 4.20628 163.126C3.66931 163.394 3.13234 163.661 2.55062 163.929C1.20819 164.509 0.402729 165.49 0 166.962C0.357982 167.899 0.626467 168.969 1.16344 169.861C1.61092 170.62 1.43193 171.422 1.74516 172.181C2.64011 174.322 3.04284 176.597 3.57982 178.871C4.02729 180.879 4.92225 182.752 5.36973 184.759C6.8464 187.926 7.92034 191.272 9.57601 194.305C10.8289 196.58 12.2161 198.765 13.7375 200.862C14.1403 201.442 14.722 201.888 15.2142 202.423C15.7512 203.003 16.3329 203.538 16.7356 204.296C17.0936 204.921 17.6306 205.456 18.1676 205.857C19.7785 206.973 21.2999 208.221 22.9108 209.381C23.4925 209.783 24.0743 210.184 24.5665 210.719C25.5509 211.745 26.6249 212.727 27.8778 213.44C28.728 213.931 29.444 214.645 30.2495 215.18C32.1289 216.384 33.9635 217.678 36.0219 218.614C38.7963 219.863 41.5259 221.202 44.4792 222.049C45.1057 222.227 45.6427 222.406 46.3139 222.45C47.3878 222.495 48.3275 223.209 49.4462 223.03C50.8334 223.833 52.4891 223.253 53.8762 223.967C54.3237 224.19 54.9502 224.056 55.4872 224.056C56.5611 224.101 57.6351 223.922 58.6643 224.502C58.7985 224.591 59.0222 224.591 59.2012 224.591C61.4386 224.547 63.7207 224.77 65.9581 224.458C65.8239 223.566 65.1974 222.986 64.5262 222.629C62.4678 221.514 60.8121 219.819 58.9327 218.481C58.2168 217.945 57.5008 217.41 56.3821 217.053C55.4424 217.053 54.2342 217.232 53.1155 217.009C51.9521 216.741 50.7886 216.696 49.67 216.473C48.6855 216.25 47.7458 215.983 46.7614 216.027C46.5824 216.027 46.4034 215.983 46.2244 215.938C44.4792 215.269 42.5998 214.868 40.9889 213.931C40.4072 213.619 39.9597 213.217 39.6017 212.682C39.5122 212.548 39.5122 212.37 39.5122 212.191C39.8702 211.567 40.4967 211.478 41.1679 211.21C42.3313 211.21 43.629 211.21 44.882 211.21C45.6874 211.21 46.4481 211.255 47.2536 211.567C47.88 211.834 48.6408 211.879 49.312 211.567C49.312 211.478 49.312 211.344 49.2672 211.299C48.238 210.452 47.2983 209.47 46.1796 208.757C45.3294 208.222 44.6582 207.508 43.8975 206.883C43.092 206.17 42.1523 205.634 41.3916 204.876C40.3177 203.806 39.0647 202.914 37.7223 202.066C36.8721 202.066 35.9772 202.021 35.0822 202.066C34.1425 202.155 33.337 201.62 32.4421 201.531C32.0841 201.486 31.7261 201.531 31.3681 201.486C31.0102 201.442 30.6522 201.397 30.2942 201.308C28.549 200.906 26.8486 200.416 25.1482 199.791C22.9556 199.033 20.8077 198.096 18.8835 196.713C17.6753 195.821 16.5119 194.84 15.1247 194.126C15.08 194.082 15.0352 193.993 14.9457 193.814C14.9905 193.636 14.9905 193.323 15.1247 193.145C15.3485 192.788 15.7512 192.833 16.1092 192.922C16.5567 193.056 16.9594 193.323 17.3621 193.323C19.0625 193.457 20.6734 193.993 22.3291 194.483C24.7455 195.152 27.1171 195.866 29.5335 196.535C29.802 196.624 30.0705 196.58 30.3389 196.58C30.7417 196.58 31.0102 196.401 31.0549 195.955C30.8759 195.42 30.5179 194.974 30.0257 194.751C28.9518 194.171 28.1911 193.323 27.3409 192.521C24.9245 190.112 22.5081 187.703 20.047 185.295C19.152 184.402 18.3466 183.466 17.2279 182.841C16.6014 182.484 16.0644 181.949 15.6617 181.369C14.7667 180.12 13.6928 179.05 12.7083 177.89C12.1266 177.221 11.6344 176.418 11.7239 175.482C12.1714 174.768 12.5741 174.099 13.6033 174.099C14.6325 174.946 15.6617 175.838 16.4224 176.953C17.6306 178.782 19.331 180.12 20.8077 181.682C22.2844 182.44 23.3583 183.689 24.4322 184.849C25.8642 186.365 27.6988 187.346 29.1308 188.863C30.2495 189.354 30.9654 190.29 31.8156 191.093C32.3973 191.628 32.9791 192.208 33.5608 192.744C33.874 192.788 34.1425 192.833 34.411 192.877L34.4557 192.833C34.4557 192.03 34.411 191.272 34.0978 190.469C33.516 188.997 33.0686 187.436 32.5763 185.919C31.8604 183.689 31.4576 181.414 31.8604 179.228C32.1736 178.693 32.4868 178.425 32.9791 178.381C33.4713 178.336 33.8293 178.559 34.232 179.005C34.7242 180.522 35.2612 182.128 36.0219 183.644C37.4091 186.454 38.7068 189.309 40.0045 192.119C40.1387 192.342 40.2729 192.61 40.3177 192.833C40.9442 195.241 42.1971 197.427 42.7341 199.836C43.4053 200.46 43.9423 201.085 44.5687 201.575C45.1952 202.111 45.9112 202.467 46.4929 203.003C48.596 204.965 51.0124 206.482 53.1155 208.445C53.7867 209.069 54.5475 209.56 55.4872 209.56C55.6214 208.712 55.1292 207.998 54.9949 207.24C54.7712 205.724 54.1895 204.341 53.5183 202.958C52.6681 201.263 52.1311 199.479 51.6836 197.65C51.5941 197.293 51.5494 196.936 51.4151 196.624C50.6544 194.84 49.8489 193.011 49.0435 191.227C49.0435 190.424 48.8645 189.621 49.0882 188.952C49.4462 188.506 49.8042 188.506 50.2964 188.595C51.9073 189.8 53.2945 191.272 54.1 193.234C54.4132 193.993 54.7712 194.706 55.0397 195.465C55.5767 196.981 56.2031 198.453 56.9191 199.88C58.3958 202.824 59.6934 205.902 60.6779 209.024C61.3044 210.987 62.1546 212.86 62.781 214.778C62.9153 214.912 63.0048 215.046 63.139 215.18C64.4367 216.563 66.0029 217.589 67.5243 218.659C69.7169 220.042 71.7753 221.291 73.5205 222.986Z" fill="#E6EBAF"/>
<path d="M44.882 172.27C45.1952 172.582 45.419 172.984 45.8217 173.207C48.3276 174.723 50.7887 176.329 53.1156 178.113C53.3841 178.336 53.742 178.425 54.0553 178.604C55.8452 174.277 57.2324 169.817 58.5748 165.356C59.4698 162.412 59.8725 159.424 60.141 156.346C60.5437 152.019 60.4095 147.737 60.0515 143.411C59.8725 141.18 59.3803 138.95 58.888 136.764C57.9036 132.75 56.6506 128.825 54.9502 125.033C52.8471 120.216 49.8937 115.934 46.3139 112.053C44.6583 110.269 42.8684 108.619 41.0784 106.968C39.8703 105.853 38.6173 104.872 37.1406 104.114C36.8274 103.98 36.4694 103.846 36.2009 103.757C35.3955 104.292 35.0375 105.006 34.59 105.675C33.6503 107.013 32.7554 108.351 31.8604 109.689C30.7417 111.34 29.8468 113.124 29.1756 114.953C27.2962 120.171 25.372 125.39 23.8058 130.743C22.4634 135.337 21.7922 140.021 21.2552 144.749C21.0762 146.176 20.8972 147.603 20.8077 149.031C20.7182 150.458 20.6735 151.885 20.7182 153.357C20.8525 156.123 20.9867 158.933 21.2552 161.699C21.3895 163.037 21.7922 164.33 22.0607 165.668C22.5081 166.025 23.0004 166.159 23.5373 166.204C25.9537 166.427 28.2806 166.917 30.6522 167.453C32.5764 167.899 34.411 168.523 36.2904 169.058C36.6037 168.969 37.0064 169.014 37.0959 168.479C36.1562 166.605 35.1718 164.642 34.232 162.724C33.2476 160.717 32.4421 158.621 31.6814 156.524C31.055 154.74 30.697 152.911 29.8915 151.172C29.7125 150.77 29.7125 150.28 29.7125 149.834C29.7125 149.075 30.2048 148.585 31.0997 148.496C31.3682 148.451 31.6367 148.629 31.8157 148.674C33.2923 149.834 34.0083 151.35 34.7243 152.911C35.664 155.052 36.5589 157.193 37.4986 159.335C37.8119 160.048 38.2593 160.762 38.7068 161.431C38.8411 161.609 39.1095 161.743 39.378 161.565C39.6465 160.673 38.9753 159.87 39.0648 158.933C39.1543 157.952 39.0648 156.97 39.0201 155.989C39.0201 154.919 38.9753 153.848 38.9306 152.778C38.9306 152.242 38.9753 151.662 38.8411 151.172C38.4383 149.923 38.5726 148.674 38.4831 147.425C38.4383 146.801 38.3936 146.176 38.3936 145.641C34.232 141.225 31.055 135.872 30.4732 132.304C30.5627 132.126 30.6075 131.947 30.697 131.813C30.7865 131.679 30.9207 131.501 31.0102 131.412C31.8157 130.654 32.6211 130.609 33.3818 131.278C33.9188 131.769 34.3663 132.304 34.6795 132.973C35.0375 133.687 35.3955 134.445 35.7982 135.114C36.2904 135.962 36.8274 136.809 37.3644 137.612C37.4539 137.746 37.6776 137.746 37.9014 137.835C37.9461 135.471 37.8566 133.151 37.8566 130.832C37.8566 128.602 37.8119 126.327 37.8566 124.097C37.8566 121.777 37.7671 119.458 37.9909 117.183C38.6173 116.425 39.2438 116.425 39.915 116.915C40.3177 117.54 40.5862 118.209 40.631 118.922C40.7205 120.439 40.7652 121.956 41.1232 123.472C41.3469 124.498 41.2127 125.613 41.3022 126.684C41.3917 127.843 41.6154 129.003 41.7497 130.163C41.9734 132.393 42.1971 134.623 42.4209 136.854C42.4656 137.434 42.5551 138.058 43.0921 138.459C43.2263 138.326 43.3606 138.236 43.4501 138.103C44.524 136.675 45.24 134.98 46.0902 133.419C46.7614 132.17 47.4774 130.921 48.3723 129.761C48.7751 129.628 49.2225 129.449 49.6253 129.315C50.028 129.538 50.4307 129.761 50.7887 129.94C51.1019 131.01 51.0572 131.947 50.6545 132.884C49.7148 135.382 48.7303 137.924 47.4326 140.288C47.1641 140.779 46.9404 141.27 46.5824 141.671C45.9112 142.474 45.2847 143.411 44.166 143.723C43.8081 143.812 43.4948 143.946 43.2263 144.57C43.3158 146.265 43.3606 148.273 43.4501 150.235C43.8976 151.35 43.7633 152.555 43.8081 153.714C43.8528 155.231 43.8528 156.747 43.8976 158.309C43.8976 158.755 43.9871 159.201 44.0318 159.558C44.524 159.781 44.8373 159.602 45.061 159.29C46.3139 157.64 47.5221 155.989 48.7751 154.339C49.7148 153.134 50.6097 151.93 51.5942 150.726C51.8626 150.369 52.2206 150.101 52.5786 149.834C52.8023 149.655 53.2946 149.7 53.6078 149.923C53.921 150.146 54.1 150.414 54.1895 150.815C54.3238 151.529 54.2343 152.242 53.8315 152.911C52.9366 154.562 51.9521 156.168 51.1467 157.907C49.7148 160.851 47.8801 163.483 45.4637 165.713C45.061 166.07 44.6583 166.427 44.4793 167.185C44.9268 168.702 45.0162 170.486 44.882 172.27Z" fill="#3D6334"/>
<path d="M71.5964 223.967C70.8357 224.056 70.075 224.056 69.3143 224.101C68.8668 224.101 68.4193 224.056 68.0166 224.056C67.6586 224.056 67.3454 224.19 67.1216 224.502C66.8084 224.502 66.4952 224.458 66.1819 224.458C66.0477 223.566 65.4212 222.986 64.75 222.629C62.6916 221.514 61.0359 219.819 59.1565 218.481C58.4406 217.945 57.7246 217.41 56.6059 217.053C55.6662 217.053 54.458 217.232 53.3393 217.009C52.1759 216.741 51.0124 216.696 49.8938 216.473C48.9093 216.25 47.9696 215.983 46.9851 216.027C46.8062 216.027 46.6272 215.983 46.4482 215.938C44.703 215.269 42.8236 214.868 41.2127 213.931C40.631 213.619 40.1835 213.217 39.8255 212.682C39.736 212.548 39.736 212.37 39.736 212.191C40.094 211.567 40.7205 211.478 41.3917 211.21C42.5551 211.21 43.8528 211.21 45.1057 211.21C45.9112 211.21 46.6719 211.255 47.4774 211.567C48.1038 211.834 48.8646 211.879 49.5358 211.567C49.5358 211.478 49.5358 211.344 49.491 211.299C48.4618 210.452 47.5221 209.47 46.4034 208.757C45.5532 208.221 44.882 207.508 44.1213 206.883C43.3158 206.17 42.3761 205.634 41.6154 204.876C40.5415 203.806 39.2885 202.914 37.9461 202.066C37.0959 202.066 36.201 202.021 35.306 202.066C34.3663 202.155 33.5608 201.62 32.6659 201.531C32.3079 201.486 31.9499 201.531 31.5919 201.486C31.234 201.442 30.876 201.397 30.518 201.308C28.7728 200.906 27.0724 200.416 25.372 199.791C23.1794 199.033 21.0315 198.096 19.1073 196.713C17.8991 195.821 16.7357 194.84 15.3485 194.126C15.3038 194.082 15.259 193.993 15.1695 193.814C15.2143 193.636 15.2143 193.323 15.3485 193.145C15.5723 192.788 15.975 192.833 16.333 192.922C16.7804 193.056 17.1832 193.323 17.5859 193.323C19.2863 193.457 20.8972 193.993 22.5529 194.483C24.9693 195.152 27.3409 195.866 29.7573 196.535C30.0258 196.624 30.2943 196.58 30.5627 196.58C30.9655 196.58 31.234 196.401 31.2787 195.955C31.0997 195.42 30.7417 194.974 30.2495 194.751C29.1756 194.171 28.4149 193.323 27.5646 192.521C25.1483 190.112 22.7319 187.703 20.2708 185.295C19.3758 184.402 18.5704 183.466 17.4517 182.841C16.8252 182.484 16.2882 181.949 15.8855 181.369C14.9905 180.12 13.9166 179.05 12.9321 177.89C12.3504 177.221 11.8582 176.418 11.9477 175.482C12.3952 174.768 12.7979 174.099 13.8271 174.099C14.8563 174.946 15.8855 175.838 16.6462 176.953C17.8544 178.782 19.5548 180.12 21.0315 181.682C22.5082 182.44 23.5821 183.689 24.656 184.849C26.088 186.365 27.9226 187.346 29.3546 188.863C30.4732 189.354 31.1892 190.29 32.0394 191.093C32.6211 191.628 33.2029 192.208 33.7846 192.744C34.0978 192.788 34.3663 192.833 34.6348 192.877C34.7243 193.011 34.769 193.1 34.8585 193.234C35.1718 192.922 34.8138 192.922 34.6795 192.877C34.6795 192.075 34.6348 191.316 34.3216 190.513C33.7398 189.041 33.2924 187.48 32.8001 185.964C32.0842 183.733 31.6814 181.459 32.0842 179.273C32.3974 178.738 32.7106 178.47 33.2029 178.425C33.6951 178.381 34.0531 178.604 34.4558 179.05C34.948 180.566 35.485 182.172 36.2457 183.689C37.6329 186.499 38.9306 189.354 40.2282 192.164C40.3625 192.387 40.4967 192.654 40.5415 192.877C41.168 195.286 42.4209 197.472 42.9579 199.88C43.6291 200.505 44.166 201.129 44.7925 201.62C45.419 202.155 46.1349 202.512 46.7167 203.047C48.8198 205.01 51.2362 206.526 53.3393 208.489C54.0105 209.114 54.7713 209.604 55.711 209.604C55.8004 209.693 55.8899 209.783 55.9794 209.872C55.9794 209.827 55.9794 209.738 55.9347 209.693C55.8899 209.649 55.8004 209.604 55.711 209.604C55.8452 208.757 55.353 208.043 55.2187 207.285C54.995 205.768 54.4133 204.385 53.7421 203.003C52.8918 201.308 52.3549 199.524 51.9074 197.695C51.8179 197.338 51.7732 196.981 51.6389 196.669C50.8782 194.885 50.0727 193.056 49.2673 191.272C49.2673 190.469 49.0883 189.666 49.312 188.997C49.67 188.551 50.028 188.551 50.5202 188.64C52.1311 189.844 53.5183 191.316 54.3238 193.279C54.637 194.037 54.995 194.751 55.2635 195.509C55.8004 197.026 56.4269 198.498 57.1429 199.925C58.6196 202.869 59.9172 205.947 60.9017 209.069C61.5282 211.032 62.3784 212.905 63.0048 214.823C63.1391 214.957 63.2286 215.091 63.3628 215.224C64.6605 216.607 66.2267 217.633 67.7481 218.704C69.717 220.086 71.8201 221.335 73.5653 223.03C73.1178 223.744 72.3123 223.878 71.5964 223.967ZM32.1289 196.847H32.2632L32.1737 196.713L32.1289 196.847Z" fill="#BBCB7D"/>
<path d="M44.8819 172.27C45.0161 170.486 44.9266 168.701 44.4791 167.14C44.6134 166.382 45.0609 166.025 45.4636 165.668C47.88 163.438 49.7146 160.851 51.1465 157.862C51.952 156.167 52.9365 154.562 53.8314 152.867C54.1894 152.198 54.2789 151.529 54.1894 150.77C54.1446 150.413 53.9209 150.101 53.6077 149.878C53.3392 149.655 52.8022 149.611 52.5785 149.789C52.2205 150.057 51.8625 150.324 51.594 150.681C50.6543 151.885 49.7146 153.09 48.7749 154.294C47.522 155.944 46.3138 157.595 45.0609 159.245C44.8371 159.557 44.5239 159.691 44.0317 159.513C43.9869 159.111 43.9422 158.665 43.8974 158.264C43.8527 156.747 43.8527 155.231 43.8079 153.67C43.7632 152.51 43.8527 151.35 43.4499 150.19C43.3604 148.228 43.271 146.265 43.2262 144.526C43.4499 143.901 43.8079 143.767 44.1659 143.678C45.2846 143.366 45.9111 142.474 46.5823 141.626C46.9403 141.225 47.164 140.734 47.4325 140.244C48.7302 137.879 49.7146 135.382 50.6543 132.839C51.0123 131.858 51.057 130.921 50.7886 129.895C50.3858 129.672 50.0279 129.494 49.6251 129.271C49.1776 129.449 48.7749 129.583 48.3722 129.717C47.4325 130.877 46.7613 132.125 46.0901 133.374C45.2398 134.936 44.5239 136.631 43.4499 138.058C43.3604 138.192 43.2262 138.326 43.092 138.415C42.555 138.013 42.4655 137.389 42.4207 136.809C42.197 134.579 41.9733 132.348 41.7495 130.118C41.6153 128.959 41.3915 127.799 41.3021 126.639C41.2126 125.569 41.3468 124.453 41.1231 123.428C40.8098 121.911 40.7203 120.394 40.6308 118.878C40.5861 118.12 40.3624 117.495 39.9149 116.871C39.2437 116.38 38.6172 116.38 37.9907 117.138C37.7222 119.368 37.8565 121.733 37.8565 124.052C37.8565 126.282 37.8565 128.557 37.8565 130.787C37.8565 133.107 37.9907 135.426 37.9012 137.79C37.6775 137.701 37.4538 137.656 37.3643 137.567C36.8273 136.764 36.2903 135.917 35.7981 135.069C35.3954 134.356 35.0374 133.642 34.6794 132.928C34.3662 132.259 33.9187 131.724 33.3817 131.233C32.621 130.52 31.7708 130.564 31.0101 131.367C30.8758 131.501 30.7863 131.635 30.6969 131.769C30.6074 131.902 30.5626 132.081 30.4731 132.259C31.0996 135.828 34.2319 141.18 38.3935 145.596C38.4382 146.131 38.4382 146.756 38.4829 147.38C38.5724 148.629 38.4382 149.878 38.8409 151.127C38.9752 151.618 38.9304 152.198 38.9304 152.733C38.9752 153.803 38.9752 154.874 39.0199 155.944C39.0199 156.926 39.1542 157.907 39.0647 158.888C38.9752 159.825 39.6464 160.628 39.3779 161.52C39.1094 161.698 38.8409 161.565 38.7067 161.386C38.2592 160.717 37.8117 160.004 37.4985 159.29C36.5588 157.149 35.6191 155.008 34.7241 152.867C34.0529 151.306 33.2922 149.744 31.8155 148.629C31.6366 148.585 31.3681 148.451 31.0996 148.451C30.2494 148.54 29.7124 149.075 29.7124 149.789C29.7124 150.235 29.7124 150.726 29.8914 151.127C30.6968 152.867 31.0548 154.696 31.6813 156.48C32.442 158.576 33.2475 160.673 34.2319 162.68C35.1716 164.598 36.1561 166.516 37.0958 168.434C37.0063 168.969 36.6035 168.88 36.2903 169.014C36.5141 169.148 36.693 169.46 36.9168 169.46C38.304 169.504 39.5121 170.04 40.7203 170.619C41.6153 171.021 42.4655 171.467 43.3604 171.913C43.8079 172.27 44.3449 172.27 44.8819 172.27Z" fill="#BBCB7D"/>
<path d="M55.7557 209.47C55.8452 209.56 55.9347 209.649 56.0242 209.738C56.0242 209.693 56.0242 209.604 55.9795 209.56C55.9347 209.515 55.8452 209.515 55.7557 209.47Z" fill="#E6EBAF"/>
<path d="M32.1735 196.713L32.1288 196.847H32.263L32.1735 196.713Z" fill="#E6EBAF"/>
<path d="M34.6348 192.788C34.7243 192.922 34.769 193.011 34.8585 193.145C35.1717 192.788 34.8138 192.833 34.6348 192.788Z" fill="#E6EBAF"/>
<path d="M338.186 184.678C342.622 189.107 344.874 195.171 344.874 202.802V247.498C344.874 247.975 344.737 248.316 344.396 248.657C344.055 248.997 343.714 249.134 343.236 249.134H327.267C326.789 249.134 326.448 248.997 326.107 248.657C325.765 248.316 325.629 247.975 325.629 247.498V206.754C325.629 203.143 324.605 200.145 322.558 197.896C320.511 195.648 317.781 194.49 314.437 194.49C311.093 194.49 308.363 195.648 306.316 197.896C304.269 200.145 303.245 203.143 303.245 206.754V247.498C303.245 247.975 303.108 248.316 302.767 248.657C302.426 248.997 302.085 249.134 301.607 249.134H285.638C285.16 249.134 284.819 248.997 284.478 248.657C284.136 248.316 284 247.975 284 247.498V155.38C284 154.903 284.136 154.563 284.478 154.222C284.819 153.881 285.16 153.745 285.638 153.745H301.607C302.085 153.745 302.426 153.881 302.767 154.222C303.108 154.563 303.245 154.903 303.245 155.38V185.496C303.245 185.768 303.313 185.973 303.518 186.041C303.723 186.109 303.859 186.109 303.927 185.905C307.681 180.658 313.208 178.001 320.579 178.001C327.881 178.001 333.75 180.249 338.186 184.678Z" fill="black" stroke="black" stroke-width="3"/>
<path d="M335.186 182.681C339.622 187.11 341.874 193.174 341.874 200.805V245.502C341.874 245.979 341.737 246.319 341.396 246.66C341.055 247.001 340.714 247.137 340.236 247.137H324.267C323.789 247.137 323.448 247.001 323.107 246.66C322.765 246.319 322.629 245.979 322.629 245.502V204.757C322.629 201.146 321.605 198.148 319.558 195.9C317.511 193.651 314.781 192.493 311.437 192.493C308.093 192.493 305.363 193.651 303.316 195.9C301.269 198.148 300.245 201.146 300.245 204.757V245.502C300.245 245.979 300.108 246.319 299.767 246.66C299.426 247.001 299.085 247.137 298.607 247.137H282.638C282.16 247.137 281.819 247.001 281.478 246.66C281.136 246.319 281 245.979 281 245.502V153.384C281 152.907 281.136 152.566 281.478 152.225C281.819 151.885 282.16 151.748 282.638 151.748H298.607C299.085 151.748 299.426 151.885 299.767 152.225C300.108 152.566 300.245 152.907 300.245 153.384V183.499C300.245 183.772 300.313 183.976 300.518 184.044C300.723 184.112 300.859 184.112 300.927 183.908C304.681 178.662 310.208 176.004 317.579 176.004C324.881 176.004 330.75 178.253 335.186 182.681Z" fill="white" stroke="black" stroke-width="3"/>
<path d="M418.299 221.309C418.231 222.399 417.616 222.944 416.525 222.944H374.35C373.804 222.944 373.599 223.148 373.804 223.625C374.077 225.465 374.554 227.236 375.305 229.076C377.694 234.186 382.471 236.707 389.773 236.707C395.574 236.639 400.214 234.254 403.558 229.621C403.899 229.076 404.309 228.803 404.787 228.803C405.06 228.803 405.401 229.008 405.742 229.348L415.569 239.024C416.047 239.501 416.252 239.909 416.252 240.25C416.252 240.454 416.047 240.795 415.706 241.34C412.703 245.088 408.813 247.949 404.104 249.993C399.395 252.037 394.209 253.059 388.544 253.059C380.696 253.059 374.077 251.288 368.685 247.745C363.294 244.202 359.404 239.228 357.016 232.891C355.105 228.326 354.149 222.399 354.149 215.04C354.149 210.066 354.832 205.638 356.197 201.822C358.312 195.349 361.929 190.239 367.184 186.424C372.439 182.608 378.649 180.7 385.815 180.7C394.891 180.7 402.193 183.357 407.721 188.604C413.249 193.85 416.593 200.936 417.753 209.726C418.299 213.2 418.435 217.016 418.299 221.309ZM374.623 205.365C374.281 206.523 373.94 208.022 373.667 209.726C373.667 210.203 373.872 210.407 374.35 210.407H397.962C398.508 210.407 398.713 210.203 398.508 209.726C398.03 207.068 397.826 205.842 397.826 205.91C397.007 203.185 395.574 201.072 393.526 199.574C391.479 198.075 388.954 197.325 385.951 197.325C380.219 197.325 376.397 199.982 374.623 205.365Z" fill="black" stroke="black" stroke-width="3"/>
<path d="M415.149 219.312C415.081 220.402 414.467 220.947 413.375 220.947H371.2C370.654 220.947 370.45 221.151 370.654 221.628C370.927 223.468 371.405 225.24 372.156 227.079C374.544 232.189 379.321 234.71 386.623 234.71C392.424 234.642 397.065 232.257 400.409 227.624C400.75 227.079 401.159 226.807 401.637 226.807C401.91 226.807 402.251 227.011 402.592 227.352L412.42 237.027C412.897 237.504 413.102 237.913 413.102 238.253C413.102 238.458 412.897 238.798 412.556 239.343C409.553 243.091 405.663 245.953 400.955 247.997C396.246 250.041 391.059 251.063 385.395 251.063C377.547 251.063 370.927 249.291 365.536 245.748C360.145 242.205 356.255 237.231 353.866 230.895C351.955 226.33 351 220.402 351 213.043C351 208.07 351.682 203.641 353.047 199.825C355.163 193.352 358.78 188.242 364.035 184.427C369.289 180.611 375.5 178.703 382.665 178.703C391.742 178.703 399.044 181.361 404.572 186.607C410.099 191.854 413.443 198.94 414.603 207.729C415.149 211.204 415.286 215.019 415.149 219.312ZM371.473 203.368C371.132 204.527 370.791 206.026 370.518 207.729C370.518 208.206 370.722 208.41 371.2 208.41H394.813C395.359 208.41 395.563 208.206 395.359 207.729C395.359 207.729 395.335 207.594 395.296 207.375C394.624 203.554 393.727 200.03 390.377 197.577C388.329 196.078 385.804 195.328 382.802 195.328C377.069 195.328 373.248 197.986 371.473 203.368Z" fill="white" stroke="black" stroke-width="3"/>
<path d="M422.685 275.523C422.48 275.182 422.412 274.842 422.412 274.365V261.828C422.412 261.351 422.549 261.01 422.89 260.67C423.231 260.329 423.572 260.193 424.05 260.193C427.872 260.125 430.874 259.784 433.127 259.239C435.379 258.694 437.153 257.672 438.45 256.105C439.746 254.538 440.77 252.289 441.521 249.291C441.589 249.087 441.589 248.814 441.521 248.474L419.136 180.611C419.068 180.407 419 180.202 419 179.93C419 179.112 419.478 178.703 420.501 178.703H437.562C438.586 178.703 439.2 179.18 439.473 180.066L450.938 224.218C451.007 224.49 451.143 224.626 451.348 224.626C451.552 224.626 451.689 224.49 451.757 224.218L463.222 180.066C463.495 179.18 464.109 178.703 465.133 178.703H481.785C482.331 178.703 482.74 178.84 482.945 179.18C483.15 179.521 483.218 179.998 483.013 180.611L459.401 251.471C457.149 258.081 454.828 263.054 452.44 266.393C450.051 269.732 446.775 272.116 442.476 273.683C438.177 275.25 432.171 276 424.323 276H423.368C423.095 276 422.822 275.796 422.685 275.523Z" fill="black" stroke="black" stroke-width="3"/>
<path d="M420.685 273.526C420.48 273.186 420.412 272.845 420.412 272.368V259.831C420.412 259.354 420.549 259.014 420.89 258.673C421.231 258.332 421.572 258.196 422.05 258.196C425.872 258.128 428.874 257.787 431.127 257.242C433.379 256.697 435.153 255.675 436.45 254.108C437.746 252.541 438.77 250.292 439.521 247.294C439.589 247.09 439.589 246.817 439.521 246.477L417.136 178.615C417.068 178.41 417 178.206 417 177.933C417 177.116 417.478 176.707 418.501 176.707H435.562C436.586 176.707 437.2 177.184 437.473 178.069L448.938 222.221C449.007 222.493 449.143 222.63 449.348 222.63C449.552 222.63 449.689 222.493 449.757 222.221L461.222 178.069C461.495 177.184 462.109 176.707 463.133 176.707H479.785C480.331 176.707 480.74 176.843 480.945 177.184C481.15 177.524 481.218 178.001 481.013 178.615L457.401 249.475C455.149 256.084 452.828 261.058 450.44 264.396C448.051 267.735 444.775 270.12 440.476 271.687C436.177 273.254 430.171 274.003 422.323 274.003H421.368C421.095 274.003 420.822 273.799 420.685 273.526Z" fill="white" stroke="black" stroke-width="3"/>
<path d="M92.7026 174.289C87.336 172.012 83.1768 168.73 80.2923 164.511C77.4077 160.291 75.9319 155.335 75.9319 149.709V146.762C75.9319 146.294 76.0661 145.959 76.4015 145.624C76.7369 145.289 77.0723 145.155 77.5419 145.155H92.8368C93.3064 145.155 93.6418 145.289 93.9772 145.624C94.3126 145.959 94.4468 146.294 94.4468 146.762V148.772C94.4468 152.321 96.1239 155.335 99.4109 157.813C102.698 160.291 107.193 161.497 112.828 161.497C117.59 161.497 121.079 160.492 123.427 158.483C125.775 156.474 126.915 153.996 126.915 151.049C126.915 148.906 126.177 147.097 124.768 145.624C123.36 144.15 121.414 142.878 118.932 141.739C116.45 140.601 112.559 139.06 107.193 137.118C101.222 135.042 96.1239 132.965 91.9647 130.822C87.8056 128.679 84.3173 125.732 81.4998 122.048C78.6823 118.365 77.2735 113.743 77.2735 108.318C77.2735 102.96 78.6823 98.2721 81.4327 94.2536C84.1831 90.2351 88.0739 87.1542 92.971 85.011C97.868 82.8678 103.57 81.7961 110.01 81.7961C116.785 81.7961 122.89 83.0017 128.19 85.4128C133.489 87.8239 137.648 91.1727 140.667 95.5261C143.686 99.8795 145.161 104.903 145.161 110.596V112.605C145.161 113.074 145.027 113.409 144.692 113.743C144.356 114.078 144.021 114.212 143.552 114.212H128.122C127.653 114.212 127.317 114.078 126.982 113.743C126.647 113.409 126.512 113.074 126.512 112.605V111.533C126.512 107.783 124.97 104.568 121.884 101.956C118.798 99.3437 114.572 98.0042 109.205 98.0042C104.979 98.0042 101.692 98.8749 99.3438 100.683C96.9959 102.492 95.7884 104.903 95.7884 108.051C95.7884 110.261 96.4593 112.136 97.868 113.676C99.2768 115.217 101.289 116.556 104.04 117.762C106.79 118.968 111.016 120.575 116.718 122.651C123.091 124.995 128.055 127.005 131.678 128.813C135.3 130.621 138.587 133.233 141.472 136.783C144.356 140.333 145.832 144.887 145.832 150.513C145.832 158.885 142.747 165.516 136.575 170.405C130.403 175.294 122.018 177.705 111.486 177.705C104.308 177.705 98.0693 176.567 92.7026 174.289Z" fill="black" stroke="black" stroke-width="3"/>
<path d="M88.7707 171.362C83.4041 169.085 79.245 165.803 76.3604 161.584C73.4758 157.364 72 152.408 72 146.782V143.835C72 143.367 72.1342 143.032 72.4696 142.697C72.805 142.362 73.1404 142.228 73.61 142.228H88.9049C89.3745 142.228 89.7099 142.362 90.0453 142.697C90.3807 143.032 90.5149 143.367 90.5149 143.835V145.845C90.5149 149.394 92.192 152.408 95.479 154.886C98.7661 157.364 103.261 158.57 108.896 158.57C113.659 158.57 117.147 157.565 119.495 155.556C121.843 153.547 122.983 151.069 122.983 148.122C122.983 145.979 122.245 144.17 120.836 142.697C119.428 141.223 117.482 139.951 115 138.812C112.518 137.674 108.627 136.133 103.261 134.191C97.2903 132.115 92.192 130.038 88.0328 127.895C83.8737 125.752 80.3854 122.805 77.5679 119.121C74.7504 115.438 73.3417 110.816 73.3417 105.391C73.3417 100.033 74.7504 95.3451 77.5008 91.3266C80.2512 87.3081 84.142 84.2272 89.0391 82.084C93.9361 79.9407 99.6382 78.8691 106.078 78.8691C112.854 78.8691 118.958 80.0747 124.258 82.4858C129.557 84.8969 133.716 88.2457 136.735 92.5991C139.754 96.9525 141.23 101.976 141.23 107.669V109.678C141.23 110.147 141.095 110.482 140.76 110.816C140.425 111.151 140.089 111.285 139.62 111.285H124.191C123.721 111.285 123.386 111.151 123.05 110.816C122.715 110.482 122.581 110.147 122.581 109.678V108.606C122.581 104.856 121.038 101.641 117.952 99.0288C114.866 96.4167 110.64 95.0772 105.273 95.0772C101.047 95.0772 97.7599 95.9479 95.412 97.7562C93.064 99.5646 91.8566 101.976 91.8566 105.124C91.8566 107.334 92.5274 109.209 93.9361 110.749C95.3449 112.29 97.3574 113.629 100.108 114.835C102.858 116.041 107.084 117.648 112.786 119.724C119.159 122.068 124.123 124.078 127.746 125.886C131.368 127.694 134.655 130.306 137.54 133.856C140.425 137.406 141.9 141.96 141.9 147.586C141.9 155.958 138.815 162.589 132.643 167.478C126.471 172.367 118.086 174.778 107.554 174.778C100.376 174.778 94.1374 173.64 88.7707 171.362Z" fill="white" stroke="black" stroke-width="3"/>
<path d="M199.498 107.892C204.138 109.936 207.755 112.73 210.349 116.273C212.942 119.816 214.239 123.768 214.239 128.128V174.324C214.239 174.8 214.102 175.141 213.761 175.482C213.42 175.822 213.078 175.959 212.601 175.959H196.632C196.154 175.959 195.813 175.822 195.471 175.482C195.13 175.141 194.994 174.8 194.994 174.324V169.827C194.994 169.554 194.926 169.35 194.721 169.282C194.516 169.213 194.38 169.282 194.175 169.554C190.353 174.528 184.211 177.049 175.749 177.049C168.652 177.049 162.919 175.346 158.551 171.871C154.184 168.396 152 163.354 152 156.608C152 149.591 154.457 144.208 159.37 140.324C164.284 136.441 171.313 134.533 180.39 134.533H194.311C194.789 134.533 194.994 134.328 194.994 133.851V130.854C194.994 127.856 194.107 125.539 192.264 123.836C190.421 122.132 187.692 121.315 184.075 121.315C181.277 121.315 178.888 121.792 177.046 122.814C175.203 123.836 173.975 125.198 173.429 127.038C173.156 128.06 172.541 128.469 171.654 128.401L155.139 126.22C154.047 126.016 153.57 125.607 153.638 124.994C153.979 121.178 155.549 117.704 158.21 114.637C160.872 111.571 164.42 109.119 168.856 107.415C173.292 105.712 178.206 104.826 183.665 104.826C189.602 104.826 194.857 105.848 199.498 107.892ZM190.899 159.606C193.629 157.494 194.994 154.837 194.994 151.567V146.661C194.994 146.184 194.789 145.979 194.311 145.979H184.484C180.39 145.979 177.182 146.729 174.862 148.296C172.541 149.863 171.381 152.043 171.381 154.837C171.381 157.29 172.268 159.198 173.975 160.628C175.681 162.059 178.001 162.741 180.935 162.741C184.825 162.741 188.169 161.719 190.899 159.606Z" fill="black" stroke="black" stroke-width="3"/>
<path d="M196.498 104.897C201.138 106.941 204.755 109.735 207.349 113.278C209.942 116.821 211.239 120.773 211.239 125.133V171.329C211.239 171.805 211.102 172.146 210.761 172.487C210.42 172.828 210.078 172.964 209.601 172.964H193.632C193.154 172.964 192.813 172.828 192.471 172.487C192.13 172.146 191.994 171.805 191.994 171.329V166.832C191.994 166.559 191.926 166.355 191.721 166.287C191.516 166.218 191.38 166.287 191.175 166.559C187.353 171.533 181.211 174.054 172.749 174.054C165.652 174.054 159.919 172.351 155.551 168.876C151.184 165.401 149 160.359 149 153.614C149 146.596 151.457 141.213 156.37 137.329C161.284 133.446 168.313 131.538 177.39 131.538H191.311C191.789 131.538 191.994 131.333 191.994 130.856V127.859C191.994 124.861 191.107 122.544 189.264 120.841C187.421 119.137 184.692 118.32 181.075 118.32C178.277 118.32 175.888 118.797 174.046 119.819C172.203 120.841 170.975 122.203 170.429 124.043C170.156 125.065 169.541 125.474 168.654 125.406L152.139 123.225C151.047 123.021 150.57 122.612 150.638 121.999C150.979 118.183 152.549 114.709 155.21 111.642C157.872 108.576 161.42 106.124 165.856 104.42C170.292 102.717 175.206 101.831 180.665 101.831C186.602 101.831 191.857 102.853 196.498 104.897ZM187.899 156.611C190.629 154.499 191.994 151.842 191.994 148.572V143.666C191.994 143.189 191.789 142.984 191.311 142.984H181.484C177.39 142.984 174.182 143.734 171.862 145.301C169.541 146.868 168.381 149.048 168.381 151.842C168.381 154.295 169.268 156.203 170.975 157.633C172.681 159.064 175.001 159.746 177.935 159.746C181.825 159.746 185.169 158.724 187.899 156.611Z" fill="white" stroke="black" stroke-width="3"/>
<path d="M223.685 206.637C223.48 206.297 223.412 205.956 223.412 205.479V192.942C223.412 192.465 223.549 192.125 223.89 191.784C224.231 191.443 224.572 191.307 225.05 191.307C228.872 191.239 231.874 190.898 234.127 190.353C236.379 189.808 238.153 188.786 239.45 187.219C240.746 185.652 241.77 183.403 242.521 180.405C242.589 180.201 242.589 179.928 242.521 179.588L220.136 111.726C220.068 111.521 220 111.317 220 111.044C220 110.227 220.478 109.818 221.501 109.818H238.562C239.586 109.818 240.2 110.295 240.473 111.18L251.938 155.332C252.006 155.604 252.143 155.741 252.348 155.741C252.552 155.741 252.689 155.604 252.757 155.332L264.222 111.18C264.495 110.295 265.109 109.818 266.133 109.818H282.785C283.331 109.818 283.74 109.954 283.945 110.295C284.149 110.635 284.218 111.112 284.013 111.726L260.401 182.586C258.148 189.195 255.828 194.169 253.44 197.507C251.051 200.846 247.775 203.231 243.476 204.798C239.177 206.365 233.171 207.114 225.323 207.114H224.368C224.095 207.114 223.89 206.978 223.685 206.637Z" fill="black" stroke="black" stroke-width="3"/>
<path d="M220.685 203.642C220.48 203.302 220.412 202.961 220.412 202.484V189.947C220.412 189.47 220.549 189.13 220.89 188.789C221.231 188.448 221.572 188.312 222.05 188.312C225.872 188.244 228.874 187.903 231.127 187.358C233.379 186.813 235.153 185.791 236.45 184.224C237.746 182.657 238.77 180.408 239.521 177.41C239.589 177.206 239.589 176.933 239.521 176.593L217.136 108.731C217.068 108.526 217 108.322 217 108.049C217 107.232 217.478 106.823 218.501 106.823H235.562C236.586 106.823 237.2 107.3 237.473 108.185L248.938 152.337C249.006 152.609 249.143 152.746 249.348 152.746C249.552 152.746 249.689 152.609 249.757 152.337L261.222 108.185C261.495 107.3 262.109 106.823 263.133 106.823H279.785C280.331 106.823 280.74 106.959 280.945 107.3C281.149 107.64 281.218 108.117 281.013 108.731L257.401 179.591C255.148 186.2 252.828 191.174 250.44 194.512C248.051 197.851 244.775 200.236 240.476 201.803C236.177 203.37 230.171 204.119 222.323 204.119H221.368C221.095 204.119 220.89 203.983 220.685 203.642Z" fill="white" stroke="black" stroke-width="3"/>
<defs>
<clipPath id="clip0">
<rect x="43" width="456" height="225.626" fill="white"/>
</clipPath>
</defs>
</svg>
