<svg width="521" height="382" fill="none" xmlns="http://www.w3.org/2000/svg"><path d="M498.202 122.47c-65.453-17.06-152.051-16.2-224.018 10.1C253.552 142 249.44 151.92 239.05 161c-10.439 8.18-33.611 25.51-52.671 33.52-16.904 7.34-22.737 1.9-43.062 3.61-46.363 7.81-53.55 3.5-82.456 9.16-28.223 7.17-80.291 33.74-52.73 76.55 25.16 27.6 172.445 43.26 201.816 28.83 23.725-6.26 55.073-7.63 63.772-14.69 66.807-42.51 48.924-35.69 81.27-76.66 34.738-30.68 75.071-1.1 139.071-23.6 31.763-6.24 35.776-61.45 4.142-75.25zM274.352 322.88s-32.692 6.84-55.232 14.25c0 0-24.239 9.69-17.477 26.8 0 0-1.127 18.24 29.874 17.67 0 0 42.271-1.14 59.749-9.69 0 0 22.539-4.56 18.595-29.08 0 0-4.508-21.09-35.509-19.95z" fill="#F1E6B2"/><path d="M168.2 188.47c.445-.41 1.859.39 3.539 2.13a27.458 27.458 0 014.884 7.53 33.452 33.452 0 012.817 12.44v1.7a3.657 3.657 0 01-.247 1.21c-.14.372-.352.712-.623 1a2.237 2.237 0 01-1.858.69 2.607 2.607 0 01-1.711-1 2.82 2.82 0 01-.464-.91 2.919 2.919 0 01-.168-1.06 14.22 14.22 0 000-1.46c0-.76-.079-1.76-.198-2.91a40.301 40.301 0 00-1.779-8 64.108 64.108 0 00-3.114-7.4c-.989-2.05-1.622-3.47-1.078-3.96zM205.607 177.15c1.078.67.287 3.8-1.413 8.15-1.701 4.35-4.251 9.92-6.278 15.6a82.25 82.25 0 00-2.511 8.43 58.698 58.698 0 00-1.334 7.61 49.435 49.435 0 00-.287 5.68c0 .73 0 1.35.059 1.82l.07 1a5.844 5.844 0 01-.208 2 5.972 5.972 0 01-.84 1.82 5.328 5.328 0 01-3.223 2.32 4.298 4.298 0 01-2.063-.02 4.333 4.333 0 01-1.822-.98 6.364 6.364 0 01-1.394-1.89 7.043 7.043 0 01-.642-2.51l-.08-1.26c0-.61-.049-1.38-.079-2.3.007-2.341.166-4.68.475-7a57.392 57.392 0 011.977-9 67.344 67.344 0 013.608-9.36 76.457 76.457 0 019.392-15.09c2.926-3.71 5.387-5.76 6.593-5.02zM213.377 204.85c.722.32.514 2.27 0 5.05s-1.374 6.44-2.076 10.17c-.701 3.73-1.235 7.51-1.561 10.5-.327 2.99-.495 5.18-.495 5.64a3.907 3.907 0 01-1.058 2.42 3.045 3.045 0 01-2.263 1 2.817 2.817 0 01-2.165-1.16 3.856 3.856 0 01-.761-2.68c0-.51.168-2.84.583-6a75.901 75.901 0 012.293-11 51.614 51.614 0 013.954-10.1c1.394-2.7 2.768-4.19 3.549-3.84z" fill="#688564"/><path d="M254.873 184.87c-1.641 3-1.404 5.59-.554 10.64-1.571-.46-3.786-8.06-3.232-10.95 4.3-22.26 20.414-26.78 22.737-28 9.025-2.77 17.922-2.53 22.144-2.56a54.89 54.89 0 0113.306 2.85c3.361 1.13 7.058 3.94 7.384 4.68.485 1.12 0 5.8-.296 7-.821 3.37-1.305 8.72-6.011 14.72-4.083 5.2-10.291 8.62-13.77 11.23a48.46 48.46 0 01-8.255 4.31c-.128 0 3.865-6.83 2.195-14.36-.989-5.24-1.77-7.86-6.169-10.82-3.954-2.67-4.686-3.29-10.192-3.55-3.104-.16-8.709 2.59-10.874 4.4-2.986 2.52-4.874 3.97-8.413 10.41z" fill="#F5F1E8"/><path d="M253.568 193.87c-.89-3.37-.198-5.25.831-8.55a18.396 18.396 0 017.186-10.75 22.331 22.331 0 016.248-3.6c5.091-1.43 10.874-1.7 15.145 1.13 4.399 2.95 6.712 5.95 7.711 11.2.988 4.85.474 4.1.267 8-.188 3.49-1.256 6.1-2.492 7.41-.939.8-6.247 1.36-8.986 1.6a56.445 56.445 0 01-17.962-.89c-4.715-1.05-7.019-1.99-7.948-5.55z" fill="#D25B73"/><path d="M127.962 182h16.381c.49 0 .84.14 1.19.49s.49.7.49 1.19v94.643c0 .49-.14.84-.49 1.19s-.7.49-1.19.49h-16.381c-.49 0-.84-.14-1.19-.49s-.49-.7-.49-1.19v-61.742c0-.35-.07-.56-.28-.56-.21 0-.35.14-.56.42l-14.84 23.241c-.49.77-1.121 1.12-1.961 1.12h-8.26c-.84 0-1.47-.35-1.96-1.12l-14.84-23.241c-.21-.28-.35-.42-.56-.35-.21.07-.28.28-.28.63v61.602c0 .49-.14.84-.49 1.19s-.7.49-1.19.49H64.68c-.491 0-.841-.14-1.191-.49-.35-.35-.49-.7-.49-1.19V183.68c0-.49.14-.84.49-1.19s.7-.49 1.19-.49h16.38c.84 0 1.47.35 1.96 1.12l21.001 32.621c.28.56.56.56.84 0l21.141-32.621c.49-.77 1.12-1.12 1.96-1.12z" fill="#000"/><path d="M122.962 180h16.381c.49 0 .84.14 1.19.49s.49.7.49 1.19v94.643c0 .49-.14.84-.49 1.19s-.7.49-1.19.49h-16.381c-.49 0-.84-.14-1.19-.49s-.49-.7-.49-1.19v-61.742c0-.35-.07-.56-.28-.56-.21 0-.35.14-.56.42l-14.84 23.241c-.49.77-1.121 1.12-1.961 1.12h-8.26c-.84 0-1.47-.35-1.96-1.12l-14.84-23.241c-.21-.28-.35-.42-.56-.35-.21.07-.28.28-.28.63v61.602c0 .49-.14.84-.49 1.19s-.7.49-1.19.49H59.68c-.491 0-.841-.14-1.191-.49-.35-.35-.49-.7-.49-1.19V181.68c0-.49.14-.84.49-1.19s.7-.49 1.19-.49h16.38c.84 0 1.47.35 1.96 1.12l21.001 32.621c.28.56.56.56.84 0l21.141-32.621c.49-.77 1.12-1.12 1.96-1.12z" fill="#fff" stroke="#000" stroke-width="3"/><path d="M177.44 297.042c-5.6-4.13-9.45-9.73-11.48-16.8-1.33-4.41-1.96-9.171-1.96-14.281 0-5.53.63-10.43 1.96-14.84 2.17-6.931 6.02-12.321 11.62-16.241s12.321-5.88 20.161-5.88c7.63 0 14.21 1.96 19.601 5.81 5.39 3.85 9.24 9.24 11.48 16.171a48.88 48.88 0 012.24 14.7c0 5.04-.63 9.73-1.96 14.141-2.03 7.28-5.88 13.02-11.41 17.15-5.531 4.13-12.251 6.23-20.091 6.23-7.84 0-14.561-2.03-20.161-6.16zm28.001-13.58c2.17-1.89 3.71-4.41 4.62-7.701.77-3.01 1.12-6.23 1.12-9.8 0-3.92-.35-7.21-1.12-9.94-1.05-3.15-2.59-5.67-4.76-7.42s-4.76-2.66-7.84-2.66c-3.15 0-5.81.91-7.91 2.66-2.1 1.75-3.64 4.27-4.55 7.42-.77 2.24-1.12 5.53-1.12 9.94 0 4.2.35 7.49.98 9.8.91 3.291 2.52 5.811 4.69 7.701 2.17 1.89 4.9 2.8 8.05 2.8 3.08 0 5.74-.91 7.84-2.8z" fill="#000"/><path d="M172.44 295.042c-5.6-4.13-9.45-9.73-11.48-16.8-1.33-4.41-1.96-9.171-1.96-14.281 0-5.53.63-10.43 1.96-14.84 2.17-6.931 6.02-12.321 11.62-16.241 5.601-3.92 12.321-5.88 20.161-5.88 7.63 0 14.211 1.96 19.601 5.81 5.39 3.85 9.24 9.24 11.48 16.171a48.88 48.88 0 012.24 14.7c0 5.04-.63 9.73-1.96 14.141-2.03 7.28-5.88 13.02-11.41 17.15-5.53 4.13-12.251 6.23-20.091 6.23-7.84 0-14.56-2.03-20.161-6.16zm28.001-13.58c2.17-1.89 3.71-4.41 4.62-7.701.771-3.01 1.121-6.23 1.121-9.8 0-3.92-.35-7.21-1.121-9.94-1.05-3.15-2.59-5.67-4.76-7.42s-4.76-2.66-7.84-2.66c-3.15 0-5.81.91-7.91 2.66-2.1 1.75-3.64 4.27-4.55 7.42-.77 2.24-1.12 5.53-1.12 9.94 0 4.2.35 7.49.98 9.8.91 3.291 2.52 5.811 4.69 7.701 2.17 1.89 4.9 2.8 8.05 2.8 3.08 0 5.74-.91 7.84-2.8z" fill="#fff" stroke="#000" stroke-width="3"/><path d="M256.44 294.042c-5.6-4.13-9.45-9.73-11.48-16.8-1.33-4.41-1.96-9.171-1.96-14.281 0-5.53.63-10.43 1.96-14.84 2.17-6.931 6.02-12.321 11.62-16.241 5.601-3.92 12.321-5.88 20.161-5.88 7.63 0 14.211 1.96 19.601 5.81 5.39 3.85 9.24 9.24 11.48 16.171a48.88 48.88 0 012.24 14.7c0 5.04-.63 9.73-1.96 14.141-2.03 7.28-5.88 13.02-11.41 17.15-5.53 4.13-12.251 6.23-20.091 6.23-7.84 0-14.56-2.03-20.161-6.16zm28.001-13.58c2.17-1.89 3.71-4.41 4.62-7.701.771-3.01 1.121-6.23 1.121-9.8 0-3.92-.35-7.21-1.121-9.94-1.05-3.15-2.59-5.67-4.76-7.42s-4.76-2.66-7.84-2.66c-3.15 0-5.81.91-7.91 2.66-2.1 1.75-3.64 4.27-4.55 7.42-.77 2.24-1.12 5.53-1.12 9.94 0 4.2.35 7.49.98 9.8.91 3.291 2.52 5.811 4.69 7.701 2.17 1.89 4.9 2.8 8.05 2.8 3.08 0 5.67-.91 7.84-2.8z" fill="#000"/><path d="M251.44 292.042c-5.6-4.13-9.45-9.73-11.48-16.8-1.33-4.41-1.96-9.171-1.96-14.281 0-5.53.63-10.43 1.96-14.84 2.17-6.931 6.02-12.321 11.62-16.241 5.601-3.92 12.321-5.88 20.161-5.88 7.63 0 14.211 1.96 19.601 5.81 5.39 3.85 9.24 9.24 11.48 16.171a48.88 48.88 0 012.24 14.7c0 5.04-.63 9.73-1.96 14.141-2.03 7.28-5.88 13.02-11.41 17.15-5.53 4.13-12.251 6.23-20.091 6.23-7.84 0-14.56-2.03-20.161-6.16zm28.001-13.58c2.17-1.89 3.71-4.41 4.62-7.701.771-3.01 1.121-6.23 1.121-9.8 0-3.92-.35-7.21-1.121-9.94-1.05-3.15-2.59-5.67-4.76-7.42s-4.76-2.66-7.84-2.66c-3.15 0-5.81.91-7.91 2.66-2.1 1.75-3.64 4.27-4.55 7.42-.77 2.24-1.12 5.53-1.12 9.94 0 4.2.35 7.49.98 9.8.91 3.291 2.52 5.811 4.69 7.701 2.17 1.89 4.9 2.8 8.05 2.8 3.08 0 5.67-.91 7.84-2.8z" fill="#fff" stroke="#000" stroke-width="3"/><path d="M366.832 165.49c.35-.35.7-.49 1.19-.49h16.38c.49 0 .84.14 1.19.49s.49.7.49 1.19v94.643c0 .49-.14.84-.49 1.19s-.7.49-1.19.49h-16.38c-.49 0-.84-.14-1.19-.49s-.491-.7-.491-1.19v-4.62c0-.28-.07-.42-.28-.49-.21-.07-.35 0-.56.21-3.92 5.11-9.31 7.7-16.1 7.7-6.51 0-12.18-1.82-16.871-5.46-4.69-3.64-8.12-8.61-10.15-14.98-1.61-4.831-2.38-10.501-2.38-16.941 0-6.65.84-12.39 2.52-17.361 2.17-5.95 5.53-10.71 10.15-14.21 4.621-3.5 10.361-5.25 17.151-5.25 6.72 0 11.97 2.31 15.68 7 .21.28.35.35.56.28.21-.07.28-.28.28-.56V166.68c0-.49.141-.84.491-1.19zm-.631 61.532c0-6.23-1.05-11.13-3.08-14.7-2.17-3.641-5.25-5.461-9.38-5.461-4.41 0-7.7 1.82-9.94 5.461-2.31 3.64-3.5 8.61-3.5 14.84 0 5.6.98 10.29 2.94 14 2.31 3.991 5.81 6.021 10.36 6.021 4.2 0 7.49-2.03 9.8-6.021 1.82-3.43 2.8-8.19 2.8-14.14z" fill="#000"/><path d="M361.832 163.49c.35-.35.7-.49 1.19-.49h16.38c.49 0 .84.14 1.19.49s.49.7.49 1.19v94.643c0 .49-.14.84-.49 1.19s-.7.49-1.19.49h-16.38c-.49 0-.84-.14-1.19-.49s-.491-.7-.491-1.19v-4.62c0-.28-.07-.42-.28-.49-.21-.07-.35 0-.56.21-3.92 5.11-9.31 7.7-16.1 7.7-6.51 0-12.18-1.82-16.871-5.46-4.69-3.64-8.12-8.61-10.15-14.98-1.61-4.831-2.38-10.501-2.38-16.941 0-6.65.84-12.39 2.52-17.361 2.17-5.95 5.53-10.71 10.15-14.21 4.621-3.5 10.361-5.25 17.151-5.25 6.72 0 11.97 2.31 15.68 7 .21.28.35.35.56.28.21-.07.28-.28.28-.56V164.68c0-.49.141-.84.491-1.19zm-.631 61.532c0-6.23-1.05-11.13-3.08-14.7-2.17-3.641-5.25-5.461-9.38-5.461-4.41 0-7.7 1.82-9.94 5.461-2.31 3.64-3.5 8.61-3.5 14.84 0 5.6.98 10.29 2.94 14 2.31 3.991 5.81 6.021 10.36 6.021 4.2 0 7.49-2.03 9.8-6.021 1.82-3.43 2.8-8.19 2.8-14.14z" fill="#fff" stroke="#000" stroke-width="3"/><path d="M361.36 50.003s2.029-1.78 9.882-3.857a14.52 14.52 0 002.404-7.633l4.626 1.333 2.11 3.257 21.538 1.934-.244 7.399s2.263 2.167 3.967 4.07c1.704 1.904 14.507 32.08 14.507 32.08l-6.218 24.516-12.286-4.071-33.022-18.736-19.285-11.073 5.285-17.138 6.736-12.08zM476.83 136.47l-16.557 2.279-4.545-12.619-5.072-48.73s8.917 2.555 13.624 9.863c4.708 7.307 5.306 18.848 5.306 18.848l7.244 30.359z" fill="#F1EBDF"/><path d="M331.9 102.631l-2.953 25.738s37.689 6.106 53.069 3.369c15.379-2.738-13.858-30.257-13.858-30.257l-24.034-6.92-12.224 8.07z" fill="#89C5AC"/><path d="M375.615 108.157c.142-4.631-.446-9.241-.436-13.862 0-2.91-.203-5.81-.376-8.711-.223-3.95-.132-7.908-.162-11.857v-3.359c-.446-3.785-.365-7.592-.548-11.388a119.156 119.156 0 00-.456-6.238 19.856 19.856 0 00-.65-2.84 3.838 3.838 0 00-.426-.753.881.881 0 00-.892.682c-.853 2.178-1.837 4.315-2.486 6.544-.933 3.236-1.613 6.534-2.415 9.81-.131.5-2.384 13.506-2.485 14.106-.213 1.405-.467 2.81-.7 4.204-.081.519-.203 1.017-.244 1.546-.192 2.606-.334 5.222-.557 7.817a31.785 31.785 0 01-.518 3.775 56.542 56.542 0 00-.467 6.249c-.446 5.292-.436 10.585-.547 15.887a19.146 19.146 0 01-.599 3.755c-.203.896-.598 1.018-1.927 1.018a5.025 5.025 0 01-.68-1.313 24.356 24.356 0 01-.507-3.999c0-10.829-.071-21.658 0-32.476.171-2.685.51-5.357 1.014-8 0-.264.304-.508.467-.763a4.08 4.08 0 01-1.502-4.07c.174-1.661.756-3.252 1.694-4.631a44.769 44.769 0 001.816-5.628c1.187-5.089 2.313-10.239 4.566-15.083a.563.563 0 000-.224c-.224-.326-.528-.264-.842-.153l-2.029.743-1.4 1.018a1.71 1.71 0 01-.65 1.394 22.718 22.718 0 00-4.281 5.974c-2.029 3.827-4.19 7.613-5.955 11.541a77.571 77.571 0 00-5.072 14.015c-.508 2.106-.771 4.264-1.238 6.38a22.911 22.911 0 01-1.106 3.43c-.152.367-.619.621-1.014 1.018a3.228 3.228 0 01-1.371-1.379 3.25 3.25 0 01-.334-1.918c.102-1.781.213-3.573.335-5.354.304-4.752 2.029-9.159 3.541-13.688.304-.906.882-1.791.527-2.809a3.327 3.327 0 01-.751-2.31c-.233-1.934-.375-3.868-.558-5.862a36.397 36.397 0 003.977-6.89 58.98 58.98 0 001.563-4.244c.274-.845 0-1.16-1.106-1.608-.66.193-.741.743-.903 1.231a31.255 31.255 0 01-2.699 5.527 1.331 1.331 0 01-.943.804 50.528 50.528 0 01-.335-5.781c.042-1.92-.07-3.839-.335-5.74-.233-.092-.446-.224-.527-.183-.244.162-.578.356-.639.59a6.11 6.11 0 00-.153 1.537v15.48c0 1.119.183 2.228.274 3.348.061.824.112 1.638.163 2.452-.599.224-.751-.203-.934-.468a88.737 88.737 0 01-6.371-10.35c-.304-.59-.436-1.313-1.308-1.476a.85.85 0 00-.672.738.888.888 0 00.032.351c.199.88.47 1.741.812 2.575a53.839 53.839 0 005.986 10.523c.862 1.17 1.937 2.209 3.043 3.43a25.234 25.234 0 01-2.84 5.302 6.004 6.004 0 01-2.212-1.506 50.66 50.66 0 01-7.66-8.732 13.072 13.072 0 00-2.647-3.206c-.295-.224-.619-.509-1.066-.234.092 1.272.913 3.053 2.821 6.107a35.193 35.193 0 004.22 5.506 31.097 31.097 0 005.194 4.62c.071.224.193.397.152.509-1.075 2.819-2.16 5.628-3.246 8.467l-1.197.255 1.014.712c-1.014 4.244-1.937 8.458-2.911 12.671l5.762-.621c.558-.061 1.116-.163 1.674-.244a42.269 42.269 0 017.041-2.524 2.022 2.022 0 012.456.883c.159.274.253.581.273.898a6.563 6.563 0 01-.081 1.781c-.325 1.771-.64 3.542-1.076 5.282a53.393 53.393 0 01-1.735 5.832c-.852 2.239-1.684 4.488-2.556 6.717 1.351.261 2.654.728 3.865 1.384l.203-.387a8.213 8.213 0 011.694-1.883 1.502 1.502 0 011.816-.234 1.652 1.652 0 01.173 1.893c-.335.926-.711 1.842-1.086 2.758a12.43 12.43 0 013.368 7.45 29.45 29.45 0 003.561.234c.816-.027 1.634.007 2.445.102 3.419.468 6.868.244 10.297.447a9.224 9.224 0 001.502-.142c.72-5.414 1.42-10.757 4.149-15.632-.061-2.881-.152-5.72-.071-8.549z" fill="#89C5AC"/><path d="M363.694 78.756a6.556 6.556 0 01-4.636-.794 4.07 4.07 0 01-1.502-4.071c.174-1.66.757-3.252 1.695-4.63a51.33 51.33 0 013.662-4.428s1.867-.712 2.435 2.361c.345 1.323.963 3.98 1.095 4.63.144.654.232 1.318.264 1.986a4.785 4.785 0 01-.672 2.984 4.764 4.764 0 01-2.341 1.962zM333.788 89.288c-1.785-.183-3.581-.336-5.366-.55a18.853 18.853 0 01-6.006-1.862 3.833 3.833 0 01-1.979-1.914 2.323 2.323 0 01.133-2.234 2.307 2.307 0 011.957-1.073 8.306 8.306 0 011.928.183c.467.071.923.214 1.369.316.305-.713-.314-.886-.608-1.14a39.756 39.756 0 01-6.087-6.687 7.668 7.668 0 01-.883-1.343 2.222 2.222 0 011.603-3.206c.384-.102.774-.18 1.167-.234.335-.387.081-.723 0-1.018-.579-1.78-1.177-3.562-1.725-5.363a3.464 3.464 0 01-.081-1.333 2.128 2.128 0 011.917-1.771 19.96 19.96 0 012.09 0c-.243-.652-.456-1.191-.639-1.75-.416-1.283-.862-2.566-1.207-3.868a6.097 6.097 0 01-.152-1.781 2.911 2.911 0 012.232-2.677 3.153 3.153 0 013.297.967c.344.413.666.844.963 1.292.183.214.224.58.68.57.436-.346.183-.793.183-1.19 0-1.568-.102-3.135-.132-4.702a4.982 4.982 0 01.142-1.344 2.674 2.674 0 011.77-1.72 2.66 2.66 0 012.42.468c.483.468.931.972 1.339 1.507.517 0 .426-.428.446-.672.112-1.415.213-2.83.274-4.254.079-1.35.381-2.678.893-3.928.13-.362.307-.704.527-1.018a2.438 2.438 0 011.854-.971 2.427 2.427 0 011.92.828c.19.24.36.495.508.764.152.234.162.6.629.6.324-1.68.689-3.358 1.014-5.088a8.576 8.576 0 011.857-3.624 1.834 1.834 0 013.043.102 10.866 10.866 0 011.613 3.501c.344 1.61.528 3.25.548 4.895 0 .428-.112.906.436 1.273.32-.338.659-.658 1.015-.957a2.437 2.437 0 013.622.285 7.006 7.006 0 011.755 3.654c.111.885.223 1.78.355 2.666.065.233.157.459.274.672.456-.306.821-.58 1.227-.815a2.625 2.625 0 013.764.855 6.91 6.91 0 011.116 4.295l-1.4 1.018-4.718 3.053-1.44-1.018c-.386.306-.903.52-1.015.855a21.132 21.132 0 00-.771 2.585 9.655 9.655 0 01-1.532 2.23 44.356 44.356 0 00-6.624 9.85.772.772 0 00-.485.394.787.787 0 00-.043.624 3.326 3.326 0 01-.75-2.31c-.234-1.933-.376-3.867-.558-5.862a36.443 36.443 0 003.976-6.89 58.98 58.98 0 001.563-4.244c.274-.845 0-1.16-1.106-1.608-.66.194-.741.743-.903 1.232a31.248 31.248 0 01-2.699 5.526 1.33 1.33 0 01-.943.804 50.527 50.527 0 01-.335-5.78c.042-1.92-.07-3.84-.335-5.74-.243-.093-.446-.225-.527-.184-.244.163-.578.356-.639.59a6.063 6.063 0 00-.223 1.618v15.48c0 1.12.182 2.229.273 3.348.061.825.112 1.639.163 2.453-.599.224-.751-.204-.934-.468a88.729 88.729 0 01-6.371-10.35c-.304-.59-.436-1.313-1.308-1.476a.85.85 0 00-.56.403.862.862 0 00-.079.686c.198.88.469 1.74.811 2.575a53.842 53.842 0 005.986 10.523c.862 1.17 1.937 2.208 3.043 3.43a25.234 25.234 0 01-2.84 5.302 6.004 6.004 0 01-2.212-1.506 50.608 50.608 0 01-7.659-8.732 13.098 13.098 0 00-2.648-3.206c-.295-.224-.619-.509-1.066-.234.092 1.272.913 3.053 2.821 6.106a35.193 35.193 0 004.22 5.506 30.717 30.717 0 005.194 4.62c.071.225.193.398.152.51-1.075 2.819-2.16 5.628-3.246 8.467l-1.248.214zM345.557 134.933c1.217.091 2.424.152 3.611.284 1.786.204 3.551.55 5.336.652 4.058.244 8.116.376 12.235.56.65 0 1.299.112 1.948.142a71.56 71.56 0 0011.991-.173c1.776-.214 3.571-.346 5.357-.488 2.445-.204 4.89-.326 7.325-.56a74.07 74.07 0 009.13-1.69 5.587 5.587 0 003.257-1.791l-1.684-.56a35.2 35.2 0 01-6.219.061 20.863 20.863 0 01-6.158.57 6.676 6.676 0 01-.315-1.292 84.828 84.828 0 01-.061-4.254 26.752 26.752 0 00-1.836-9.435 10.785 10.785 0 00-.264-.62 5.6 5.6 0 00-6.087-3.634 7.798 7.798 0 01-1.014 0c-.294.122-.568.285-.862.377a11.36 11.36 0 00-4.799 2.87c-.274.264-.578.499-.862.753-2.729 4.875-3.429 10.177-4.15 15.632a9.326 9.326 0 01-1.501.143c-3.429-.204-6.878 0-10.297-.448a16.377 16.377 0 00-2.445-.102c-3.044 0-26.722-3.114-29.684-3.674 0 0-3.155.458 1.136 2.646 4.291 2.188 13.868 3.491 16.912 4.031z" fill="#2B3D2D"/><path d="M382.169 112.665c-.294.122-.568.285-.862.377a11.36 11.36 0 00-4.799 2.87c-.274.264-.578.498-.862.753 0-2.84-.112-5.679 0-8.508.142-4.631-.447-9.242-.436-13.862 0-2.91-.203-5.811-.376-8.712-.223-3.948-.132-7.907-.162-11.856v-3.359l1.227.082c-.274 2.127-.72 4.244-.182 6.34a7.105 7.105 0 003.287 2.636l2.029.753c0 .886 0 1.71.061 2.524 0 1.12.05 2.24.121 3.359.082 1.404.244 2.819.284 4.233.082 2.616-.06 5.242.203 7.837.294 2.839.264 5.669.295 8.498v4.071c.03.631.111 1.292.172 1.964zM363.694 78.756c.73.336.73.936.629 1.537-.213 1.404-.467 2.809-.7 4.203-.081.52-.203 1.018-.244 1.547-.192 2.605-.335 5.221-.558 7.816a31.578 31.578 0 01-.517 3.776 56.307 56.307 0 00-.467 6.249c-.446 5.292-.436 10.584-.548 15.887a19.168 19.168 0 01-.598 3.755c-.203.896-.599 1.018-1.928 1.018a5.008 5.008 0 01-.679-1.313 24.37 24.37 0 01-.508-4c0-10.829-.071-21.657 0-32.476a64.817 64.817 0 011.015-7.999c0-.264.304-.509.467-.763a6.554 6.554 0 004.636.763zM356.645 53.087l4.717-3.053a1.698 1.698 0 01-.649 1.394 22.72 22.72 0 00-4.281 5.974c-2.029 3.827-4.19 7.613-5.955 11.541a77.65 77.65 0 00-5.073 14.014c-.507 2.107-.771 4.265-1.237 6.382a22.906 22.906 0 01-1.106 3.43c-.152.366-.619.62-1.015 1.017a3.247 3.247 0 01-1.745-3.369c.102-1.78.213-3.572.335-5.353.305-4.753 2.029-9.16 3.541-13.688.304-.906.882-1.792.527-2.81.558-.152.619-.539.528-1.017a44.328 44.328 0 016.625-9.852 9.68 9.68 0 001.531-2.229 12.65 12.65 0 003.257-2.381zM361.505 65.921c-.061.265-.142.51-.528.459l-.163-.49.691.031z" fill="#F1EBDF"/><path d="M401.687 9.488c.65-1.18.832-2.585 2.029-3.664l1.552-.101.843.915a18.616 18.616 0 01-1.39 6.33 5.495 5.495 0 00-1.015 3.054 8.735 8.735 0 001.928-2.91 2.194 2.194 0 011.958-1.293l.852.458c.578 1.282-.274 2.28-.457 3.348-.182 1.069-.456 2.035-.71 3.145 1.015.498 2.273.743 2.151 2.127-.081 1.964-1.299 3.613-2.029 5.384a.601.601 0 00.671.2.598.598 0 00.212-.13 1.942 1.942 0 012.262-.192 1.866 1.866 0 01.669 2.228 10.19 10.19 0 01-1.014 2.27c-.822 1.374-1.755 2.687-2.638 4.07.477.49 1.279.723 1.37 1.802-.589 2.3-2.181 4.468-3.622 6.819.194.217.408.415.639.59a1.551 1.551 0 01.79.944 1.562 1.562 0 01-.141 1.224 17.457 17.457 0 01-4.93 6.401l-2.212-1.811-2.201-1.76c.467-.693 1.014-1.375 1.39-2.097a.668.668 0 00.089-.59.677.677 0 00-.414-.428 6.791 6.791 0 00-2.648 2.076l-5.478-2.544c1.441-1.527 2.82-3.053 4.322-4.58a26.355 26.355 0 004.159-5.262 8.29 8.29 0 001.4-2.656l-.842-.57c-.466.52-.893.957-1.278 1.425-1.086 1.313-2.029 2.707-3.257 3.928-1.846 1.893-3.824 3.685-5.772 5.496a5.573 5.573 0 01-1.015.56 37.74 37.74 0 011.157-6.758c.51-.276 1.001-.585 1.471-.926a27.629 27.629 0 007-8.834 27.489 27.489 0 001.542-4.01 4.855 4.855 0 000-1.577l-1.075-.081c-.619 1.455-1.116 2.89-1.826 4.213a39.981 39.981 0 01-2.618 4.07 7.762 7.762 0 01-3.429 3.176c.122-.76.292-1.51.507-2.25 1.015-3.052 2.151-6.105 3.216-9.159a65.229 65.229 0 001.238-3.867c.061-.5.061-1.006 0-1.506h-.913c-.183.346-.365.672-.528 1.018-.811 1.628-1.613 3.266-2.444 4.885 0 .091-.254.122-.457.203l-1.167-1.303-.791.112c-.345 1.018-.345 1.018.751 4.723-.751 3.185-1.218 4.498-2.029 5.617-1.735-1.893-2.435-4.366-4.221-6.187a.825.825 0 00-.598 1.017c.14.66.337 1.308.588 1.934a42.35 42.35 0 003.551 7.002c-.396 2.035-.761 3.939-1.136 5.852a5.34 5.34 0 01-.213.641.433.433 0 01-.142.183 1.469 1.469 0 01-.386.061c-.436-.396-1.014-.844-1.43-1.343a34.414 34.414 0 01-4.707-6.554c-.327-.6-.693-1.178-1.096-1.73a.904.904 0 00-1.086-.346c-.527.671-.06 1.292.224 1.872a40.839 40.839 0 006.249 9.862c.293.354.561.728.801 1.12-1.014 0-2.1.132-3.145.112a7.566 7.566 0 01-3.236-.224c-.497-.804-1.014-1.71-1.603-2.596a3.594 3.594 0 00-.659-.56 2.235 2.235 0 00.284 1.822c.243.611.761 1.16.578 1.883h-.051a5.139 5.139 0 00-2.475.417h-.233l-.213.102a2.107 2.107 0 00-1.634.356h-.182l-.142.102-1.451-.06c-.761-2.28-1.552-4.56-2.273-6.85a5.104 5.104 0 01-.162-2.85c.477-.956 1.319-1.017 2.273-.906l.487.224v-.57c-.305-2.29-.599-4.58-.883-6.717 1.146-1.465 1.146-1.465 3.703-1.2.192-1.244.307-2.498.345-3.756.03-.896.111-1.79.243-2.677.325-1.638 1.664-2.167 3.277-1.343.31.188.609.395.893.62.196-.33.375-.669.538-1.017l1.724-4.427c.132-.356.284-.702.426-1.018a2.037 2.037 0 011.684-1.455 1.935 1.935 0 011.897 1.018c0 .254.102.62.153 1.017.05.397 0 .5.101 1.018 1.451-2.249 1.491-4.946 4.149-6.32.411.22.785.506 1.106.845.29.578.527 1.18.71 1.801.284-.417.568-.763.771-1.14.792-1.465 1.563-2.951 2.354-4.427.426-.773.436-.773 1.907-1.353l1.694.692c.122-.072.295-.122.345-.234.518-1.09 1.015-2.199 1.522-3.298.254-.54.548-1.018.741-1.445a1.76 1.76 0 012.029-.163 1.559 1.559 0 01.7 1.364 17.473 17.473 0 01-.65 5.353c-.213.794-.476 1.578-.72 2.371a2.51 2.51 0 00-.396 2.3 3.888 3.888 0 001.248-2.147z" fill="#2B3D2D"/><path d="M383.953 44.781a9.715 9.715 0 00-.801-1.12 40.84 40.84 0 01-6.249-9.861c-.284-.58-.751-1.201-.224-1.873a.901.901 0 011.086.346c.403.552.769 1.13 1.096 1.73a34.445 34.445 0 004.707 6.544c.456.5 1.014.947 1.43 1.344.131-.003.261-.024.386-.061a.432.432 0 00.142-.183c.084-.21.156-.423.213-.642.375-1.913.74-3.816 1.136-5.852a42.346 42.346 0 01-3.551-7.001 11.757 11.757 0 01-.588-1.934.836.836 0 01.085-.636.828.828 0 01.514-.382c1.785 1.822 2.485 4.295 4.22 6.188.801-1.12 1.268-2.432 2.029-5.618-1.096-3.715-1.096-3.715-.751-4.722l.791-.112 1.218 1.252c.203-.082.416-.112.456-.204.832-1.618 1.634-3.257 2.445-4.885.163-.336.345-.662.528-1.018h.913c.061.5.061 1.006 0 1.507a65.202 65.202 0 01-1.238 3.867c-1.065 3.053-2.171 6.106-3.216 9.16-.216.738-.385 1.489-.507 2.249a7.759 7.759 0 003.419-3.094 39.801 39.801 0 002.617-4.071c.71-1.323 1.207-2.758 1.826-4.214.098-.28.294-.514.552-.658.258-.145.56-.19.848-.125a11.362 11.362 0 01-.314 2.442 27.493 27.493 0 01-1.542 4.01 27.629 27.629 0 01-7 8.834c-.47.34-.961.65-1.471.926a37.74 37.74 0 00-1.157 6.758c.357-.15.697-.338 1.015-.56 1.948-1.811 3.926-3.603 5.772-5.496 1.197-1.22 2.171-2.615 3.257-3.928.385-.468.811-.906 1.278-1.425l.842.57a8.312 8.312 0 01-1.451 2.677 26.35 26.35 0 01-4.159 5.261c-1.502 1.476-2.881 3.054-4.322 4.58l-2.171-.152-.527-.194-2.608-.071-.974-.153z" fill="#89C5AC"/><path d="M412.48 64.782l3.287-.733v-3.541a11.649 11.649 0 01.061-1.791 3.369 3.369 0 011.151-2.002 3.35 3.35 0 012.166-.787 3.48 3.48 0 012.27.528 3.5 3.5 0 011.433 1.843c.196.72.352 1.45.467 2.188.06.296.131.58.192.845.497.122.619-.153.639-.437.203-2.392.386-4.774.589-7.125a7.311 7.311 0 01.223-1.557 3.568 3.568 0 011.36-1.753 3.552 3.552 0 012.13-.608 3.455 3.455 0 013.246 2.626c.203.946.315 1.913.467 2.9.629-.111.527-.539.619-.824a17.54 17.54 0 00.71-2.83c.233-2.035 1.329-3.836 2.029-5.729.15-.354.363-.678.629-.957a2.617 2.617 0 012.144-.854 2.61 2.61 0 011.985 1.18c.128.191.227.4.294.62.518 1.945 1.218 3.868 1.015 5.934-.224 2.31-.376 4.62-.558 6.93.578.133.608-.335.811-.59.203-.254.487-.783.802-1.109a4.256 4.256 0 014.271-1.017 3.5 3.5 0 011.753 1.263c.437.595.676 1.314.682 2.054a6.206 6.206 0 01-.366 1.75c-.426 1.202-.923 2.393-1.369 3.594-.183.478-.487.946-.223 1.495.639.245 1.014-.264 1.521-.437 2.739-.957 5.235.59 5.144 3.287a8.163 8.163 0 01-1.015 3.898c-.832 1.455-1.633 2.92-2.455 4.386l-.903.224h-1.126l-.324 1.75a4.14 4.14 0 01-3.216 1.395l-1.664-.448c-1.278-.6-1.36-1.7-1.42-2.809-.082-.112-.142-.305-.244-.325a4.145 4.145 0 00-2.759.254h-.782c.447-.63.873-1.262 1.35-1.862a16.181 16.181 0 002.445-4.376c.203-.55.406-1.16-.234-1.65-.852-.142-1.146.459-1.491.937a34.828 34.828 0 01-5.072 5.475 4.676 4.676 0 01-.873.428c.396-2.931.741-5.669 1.136-8.407a9.19 9.19 0 00-.537-5.414c-.254.285-.528.478-.599.723-.365 1.221-.74 2.452-1.014 3.694-.295 1.394-.457 2.809-.68 4.214-.051.285-.061.6-.609.722-.304-.224-.7-.458-1.014-.763-1.106-1.018-2.192-2.036-3.297-3.053a1.12 1.12 0 00-1.076-.387c-.365.804-.395.895-.264 1.19a9.858 9.858 0 002.029 3.054c1.106 1.089 2.232 2.157 3.389 3.277a14.23 14.23 0 01-.781 4.55l-3.541 2.493a6.405 6.405 0 00-2.029 2.239c-1.014 1.882-2.08 3.735-2.952 5.658a80.524 80.524 0 00-4.444 11.897c-.933 3.481-2.029 6.951-2.698 10.463-.487 2.361-1.309 4.62-1.867 6.951-.081.356-.355.458-.72.356a28.402 28.402 0 010-7.124c.296-1.679.388-3.388.274-5.089.172-1.018.335-2.035.507-3.134a3182.48 3182.48 0 002.293-9.272c1.43-3.328 2.851-6.656 4.342-10.177 0-.163-.091-.53-.193-.886-.852-2.727-1.613-5.475-2.597-8.141-1.278-3.532-2.404-7.125-4.586-10.34a2.99 2.99 0 01-.263-.927z" fill="#2B3D2D"/><path d="M394.404 78.377c0 1.11 0 2.229.061 3.338.101 1.405.294 2.809.457 4.213.253 2.3.558 4.59.771 6.88.425 2.95.659 5.925.7 8.905a35.22 35.22 0 00.081 4.071c.213 2.819.568 5.628.75 8.447.244 3.573.396 7.125.528 10.717.071 2.158 0 4.315.071 6.473a20.893 20.893 0 01-6.158.57 6.593 6.593 0 01-.314-1.293 83.636 83.636 0 01-.061-4.254 26.748 26.748 0 00-1.837-9.434c-.081-.214-.172-.417-.263-.621a5.628 5.628 0 00-2.4-2.902 5.593 5.593 0 00-3.687-.731 7.813 7.813 0 01-1.015 0c-.061-.672-.142-1.333-.162-2.036v-4.071c0-2.829 0-5.658-.294-8.498-.264-2.595-.122-5.22-.203-7.836 0-1.415-.203-2.83-.284-4.234-.071-1.12-.092-2.239-.122-3.358 0-.814 0-1.639-.061-2.524l-2.029-.753h2.871a3.746 3.746 0 002.465-3.278 7.876 7.876 0 00-.172-3.297c-.66-2.3-1.258-4.61-1.897-6.91a10.358 10.358 0 00-.406-1.08l-1.248-.65a.546.546 0 01-.294-.173c.167-.32.283-.663.345-1.018 0-1.842-.132-3.684-.223-5.537 0-.508-.203-1.017-.183-1.536a25.67 25.67 0 00-1.725-9.577 2.234 2.234 0 01-.071-.438h1.583l2.12.204.396.305.71.61c4.058 3.542 6.026 8.071 7.173 12.977.426 1.821 1.014 3.602 1.542 5.414v1.608M412.97 107.607c.114 1.701.022 3.41-.274 5.089a28.496 28.496 0 000 7.124c.365.102.639 0 .72-.356.558-2.331 1.38-4.59 1.867-6.951.71-3.512 1.765-6.982 2.699-10.463a80.387 80.387 0 014.494-11.846c.872-1.923 1.958-3.776 2.952-5.659a6.406 6.406 0 012.029-2.239l3.541-2.493c.506-1.463.77-3 .781-4.55-1.157-1.119-2.283-2.187-3.389-3.276a9.858 9.858 0 01-2.029-3.053c-.131-.296-.101-.387.264-1.191a1.112 1.112 0 011.076.386c1.105 1.018 2.191 2.036 3.297 3.054.345.305.74.54 1.014.763.548-.122.558-.438.609-.723.223-1.404.385-2.819.68-4.213.253-1.242.629-2.473 1.014-3.694.071-.245.345-.438.599-.723a9.19 9.19 0 01.537 5.414c-.395 2.738-.74 5.476-1.136 8.407.305-.112.597-.255.873-.428a34.828 34.828 0 005.072-5.475c.345-.478.639-1.079 1.491-.936.64.488.437 1.099.234 1.648a16.183 16.183 0 01-2.445 4.377c-.477.6-.903 1.231-1.349 1.862l-2.79.845a5.255 5.255 0 00-2.689 1.832 44.306 44.306 0 00-3.865 5.699c-1.643 2.931-3.044 5.944-4.454 8.966a56.988 56.988 0 00-4.595 13.658c-.376 2.036-.873 3.949-1.279 5.923a79.4 79.4 0 00-.649 3.745c-.264 1.7-.517 3.4-.74 5.089-.427 3.328-1.238 6.615-1.228 9.994-.029.447-.083.892-.162 1.333a12.174 12.174 0 01-2.029-.407 3.223 3.223 0 00-3.135.367 2.797 2.797 0 01-.335-1.73c0-.652-.081-1.303-.122-2.036-1.663 0-2.942.743-4.332 1.089l-1.684-.56a44.76 44.76 0 00-.233-5.343c-.304-3.714-.406-7.45-.558-11.195-.091-2.31.061-4.641-.213-6.93-.274-2.29-.284-4.763-.335-7.125 0-1.414 0-2.839-.142-4.243-.375-3.786-.852-7.562-1.258-11.338-.406-3.776-.7-7.43-1.146-11.124a7.748 7.748 0 00-.893-3.653 7.506 7.506 0 00-.69-4.071c-.101-.428-.162-.855-.294-1.272-.132-.418-.396-2.138-.588-2.931-.355-1.537-.802-3.054-1.177-4.57-.097-.491-.165-.987-.203-1.486.517-.153.73 0 .862.326 1.096 2.249 2.222 4.478 3.247 6.757a108.137 108.137 0 015.163 15.612 968.823 968.823 0 014.058 14.96c.853 3.258 1.603 6.545 2.405 9.812.111.345.24.685.385 1.018.071 1.068-.111 2.157.477 3.134zM449.733 77.625l.903-.224a13.111 13.111 0 015.073 7.216 135.542 135.542 0 015.285 19.092 70.58 70.58 0 011.248 11.796c.051 3.124.477 6.238.741 9.363 0 .295.071.6.081.895l.456 11.857a78.382 78.382 0 00-11.464-.417 7.021 7.021 0 01-1.186-.204l2.607-.346c.32-.789.419-1.652.284-2.493 0-10.524.132-21.047-.386-31.55-.118-4.846-.48-9.683-1.085-14.492a73.705 73.705 0 00-2.557-10.493z" fill="#89C5AC"/><path d="M450.881 137.009c.39.094.787.159 1.187.193a78.527 78.527 0 0111.464.417c.649.061 1.308.082 1.947.204.264 0 .487.315.863.57-.355.336-.568.692-.893.804-.833.317-1.697.549-2.577.692-1.866.234-3.733.448-5.61.529-5.478.255-10.957.479-16.445.356-1.39 0-2.769-.203-4.149-.305-.822-.061-1.634-.122-2.455-.153l-10.795-.366a1.882 1.882 0 01-.486 0c-3.298-.845-6.787-1.018-9.983-2.229-.751-.275-1.471-.641-2.029-.865a2.037 2.037 0 01-.446-2.29 3.217 3.217 0 013.134-.366c.664.192 1.343.328 2.029.407 1.868.455 3.773.737 5.692.845a7.29 7.29 0 004.25.559 7.69 7.69 0 00.609-2.707 19.197 19.197 0 011.684-5.811 5.259 5.259 0 015.073-3.328c.243 0 .476-.071.72-.102a5.894 5.894 0 013.906 3.053c.294.52.608 1.018.913 1.547a34.462 34.462 0 011.42 6.514c-.055.579.12 1.157.487 1.608 2.456.158 4.919.158 7.375 0l3.115.224z" fill="#2B3D2D"/><path d="M462.203 85.442c.366.092.64.092.761.214.5.478.937 1.018 1.299 1.608 1.451 2.768 2.901 5.537 4.21 8.356a53.732 53.732 0 013.49 11.419c1.075 4.986 2.029 9.994 3.043 14.991.548 2.717 1.147 5.434 1.664 8.142.345 2.078.42 4.192.223 6.289a42.629 42.629 0 01-7.162 1.14c-.116-.537-.2-1.081-.254-1.628-.152-3.359-.213-6.717-.416-10.076-.172-2.758-.497-5.506-.74-8.264a23.672 23.672 0 01-.132-2.239 81.192 81.192 0 00-4.058-23.408c-.578-1.862-1.177-3.735-1.755-5.597a8.206 8.206 0 01-.173-.947zM412.482 64.781c.041.296.127.584.254.855 2.181 3.206 3.307 6.809 4.585 10.34 1.015 2.687 1.745 5.435 2.597 8.142.102.356.163.723.193.885-1.491 3.522-2.912 6.85-4.342 10.178-.751-3.43-1.491-6.87-2.262-10.29-1.309-5.77-2.597-11.54-4.424-17.2a84.603 84.603 0 00-4.149-10.278 4.66 4.66 0 01-.781-2.33c.523.443 1.018.919 1.481 1.424 1.583 1.944 3.104 3.939 4.687 5.893.68.834 1.441 1.557 2.161 2.381z" fill="#89C5AC"/><path d="M455.456 70.665c.761-.825 1.38-.855 2.151-.194.588 1.73 1.248 3.563 1.816 5.415.192.639.254 1.31.182 1.974a2.645 2.645 0 01-2.526 2.32c-.707.02-1.4-.2-1.967-.625a3.153 3.153 0 01-1.157-1.715 5.227 5.227 0 01.132-1.771c.426-1.873.943-3.745 1.369-5.404z" fill="#2B3D2D"/><path d="M395.672 47.896a6.795 6.795 0 012.618-2.147.662.662 0 01.413.428.672.672 0 01-.089.59c-.426.722-.923 1.404-1.389 2.096l-1.553-.967z" fill="#89C5AC"/><path d="M412.968 107.607c-.588-1.017-.406-2.035-.517-3.053h1.014c-.162.967-.324 2.015-.497 3.053zM396.007 54.797c-.406-.051-.558-.275-.436-.611a.494.494 0 01.396-.112c.304.152.365.407.04.723zM392.709 65.431a2.306 2.306 0 01-.812 1.608v-1.608h.812zM404.153 55.103c-.223-.092-.436-.163-.65-.265a.255.255 0 010-.203c.122-.062.366-.153.386-.123.114.19.216.388.305.591h-.041zM379.978 45.922h-1.583c.518-.447 1.045-.234 1.583 0zM371.568 46.076a2.11 2.11 0 011.633-.357 1.9 1.9 0 01-1.633.357zM369.792 46.086l1.45.062c-.771.508-.771.508-1.45-.062zM380.546 64.261l-.923.174c.213-.112.426-.224.629-.347.077.088.18.149.294.174zM382.485 46.43l-.397-.305.397.306zM387.558 45.007l.529.193-.529-.193z" fill="#F1EBDF"/><path d="M356.643 53.089a12.664 12.664 0 01-3.257 2.422c.202-.877.459-1.74.771-2.585.142-.336.66-.55 1.015-.855l1.471 1.018zM345.231 67.59c.091.448 0 .835-.529 1.018a.792.792 0 01.043-.624.797.797 0 01.486-.393z" fill="#89C5AC"/><path d="M394.403 78.378h1.714a2.593 2.593 0 002.638-1.924c.337-1.304.434-2.66.284-4l-.213-1.77.365-.316h.071c.594 1.126.9 2.38.893 3.654.447 3.694.751 7.409 1.147 11.124.395 3.714.882 7.551 1.258 11.337.142 1.405.111 2.83.142 4.244.05 2.382.05 4.763.334 7.124.284 2.361.122 4.621.213 6.931.153 3.725.254 7.46.558 11.195.184 1.775.262 3.559.234 5.343a35.294 35.294 0 01-6.219.061c0-2.158 0-4.315-.071-6.473-.132-3.572-.284-7.124-.528-10.716-.182-2.819-.537-5.628-.75-8.448a35.207 35.207 0 01-.082-4.07 68.766 68.766 0 00-.7-8.906c-.213-2.29-.517-4.58-.771-6.88-.162-1.404-.355-2.808-.456-4.213-.071-1.068-.041-2.188-.061-3.297zM421.399 135.422a31.424 31.424 0 01-5.691-.845c.079-.441.133-.886.162-1.333 0-3.379.802-6.666 1.228-9.994.223-1.7.477-3.399.74-5.089.193-1.252.396-2.503.65-3.745.405-1.974.903-3.939 1.278-5.923a56.948 56.948 0 014.596-13.658c1.41-3.053 2.81-6.035 4.453-8.966a44.313 44.313 0 013.865-5.7 5.255 5.255 0 012.689-1.831l2.79-.845h.781l3.043.071c.061 1.11.142 2.209 1.421 2.809-.051.438-.071.885-.163 1.313-.233 1.099-.547 2.188-.74 3.287-.558 3.247-1.126 6.493-1.603 9.74-.477 3.246-1.015 6.513-1.197 9.79-.325 4.987-.426 9.994-.599 15.002-.061 2.035-.061 4.182-.071 6.269a7.677 7.677 0 01-.477 2.87c-.304-.519-.618-1.018-.913-1.547a5.871 5.871 0 00-3.906-3.053c.112-1.018.295-2.036.325-3.115.122-4.315.264-8.63.477-12.955.193-3.868.233-7.755.73-11.592.538-4.214.812-8.458 1.745-12.63a3.238 3.238 0 00-.071-.936c-.334.254-.568.356-.679.529-.711 1.017-1.471 1.974-2.08 3.053-1.431 2.504-3.044 4.926-3.906 7.674l-1.187.59c-.558 1.18-1.014 2.27-1.572 3.348a14.288 14.288 0 00-1.634 7.755 6.215 6.215 0 00-1.014 3.155 339.818 339.818 0 00-1.228 6.361 95.774 95.774 0 00-.72 4.631c-.315 2.442-.619 4.875-.842 7.317-.294 2.707-.883 5.425-.68 8.193z" fill="#F1EBDF"/><path d="M438.513 128.614c.34-.918.502-1.892.477-2.87 0-2.036 0-4.183.071-6.269.172-5.008.274-10.015.598-15.002.213-3.277.731-6.534 1.197-9.79a268.353 268.353 0 011.603-9.74c.193-1.1.508-2.188.741-3.287.091-.428.112-.876.162-1.313l1.705.427a7.78 7.78 0 00.101 1.547c1.491 5.69 1.806 11.5 2.141 17.302.304 5.21.243 10.431.436 15.652.253 7.124.061 14.33.051 21.485-2.456.157-4.92.157-7.376 0a2.216 2.216 0 01-.487-1.608 34.398 34.398 0 00-1.42-6.534z" fill="#89C5AC"/><path d="M447.796 136.757c0-7.124.203-14.33-.051-21.484-.193-5.221-.132-10.442-.436-15.653-.335-5.8-.65-11.612-2.141-17.301a7.934 7.934 0 01-.101-1.547 4.128 4.128 0 003.216-1.395l.324-1.75h1.126A73.595 73.595 0 01452.3 88.1c.607 4.822.969 9.673 1.086 14.533.517 10.523.345 21.046.385 31.549a4.662 4.662 0 01-.284 2.494l-2.607.356-3.084-.275z" fill="#F1EBDF"/><path d="M441.944 77.534l-3.044-.07a4.149 4.149 0 012.76-.255c.142-.02.203.213.284.325z" fill="#89C5AC"/><path d="M398.796 70.47a641.472 641.472 0 01-1.176-4.132l.953-.092a7.506 7.506 0 01.69 4.07h-.071a.851.851 0 01-.396.153zM398.572 66.245l-.953.092a2.12 2.12 0 01-.416-2.036.89.89 0 011.075.642c.132.447.193.875.294 1.302z" fill="#F1EBDF"/><path d="M397.162 64.292c1.968 4.845 5.691 16.111-3.368 13.72-5.458-1.15-1.877-19.144 3.368-13.72zM382.149 65.056c2.404 4.57 6.138 17.302-3.622 14.788-5.884-1.252-2.029-20.589 3.622-14.787z" fill="#2B3D2D"/><path d="M430.236 94.04c.842-2.747 2.475-5.17 3.906-7.673.608-1.017 1.369-2.035 2.079-3.053.112-.173.345-.275.68-.53.069.308.092.623.071.937-.933 4.173-1.207 8.417-1.745 12.63-.497 3.837-.537 7.725-.73 11.592a618.634 618.634 0 00-.477 12.956c0 1.017-.213 2.035-.325 3.114-.243 0-.476.092-.72.102a5.25 5.25 0 00-3.061.858 5.273 5.273 0 00-2.011 2.47 19.2 19.2 0 00-1.685 5.811 7.694 7.694 0 01-.608 2.707 7.284 7.284 0 01-4.251-.56c-.203-2.768.386-5.485.639-8.223.223-2.442.528-4.875.842-7.317.203-1.547.447-3.054.72-4.631.386-2.127.802-4.244 1.228-6.361a6.206 6.206 0 011.015-3.155c.355.316.7.631 1.014.926a5.683 5.683 0 005.265.743 2.873 2.873 0 001.897-2.198 9.2 9.2 0 00-.111-4c-.345-1.15-.639-2.31-1.015-3.45-.253-.793-.588-1.557-.913-2.32a2.31 2.31 0 00-1.704-1.374zM398.798 70.47a.854.854 0 00.397-.061l-.367.316a.144.144 0 01-.095-.118.14.14 0 01.013-.078.137.137 0 01.052-.059z" fill="#89C5AC"/><path d="M430.234 94.04a2.31 2.31 0 011.786 1.394c.324.764.659 1.527.913 2.321.375 1.14.669 2.3 1.014 3.45a9.184 9.184 0 01.112 4 2.884 2.884 0 01-1.897 2.198 5.678 5.678 0 01-5.265-.743c-.355-.295-.7-.61-1.015-.926a14.288 14.288 0 011.633-7.755c.528-1.079 1.015-2.168 1.573-3.348l1.146-.59z" fill="#2B3D2D"/></svg>