<svg width="450" height="369" fill="none" xmlns="http://www.w3.org/2000/svg"><path d="M387.272 202.528c-50.133-7.676-68.239-62.372-68.239-62.372a52.265 52.265 0 01-5.194-7.058c-.491-.819-.972-1.638-1.508-2.441-3.07-4.741-6.113-9.521-9.263-14.24-1.401-2.069-3.016-4.069-4.622-6.069-3.569-4.456-7.21-8.896-11.77-12.873a1.157 1.157 0 01-.098-.263c-2.588-2.317-5.167-4.533-8.032-6.626a12.843 12.843 0 01-1.204-1.004c-3.347-3.32-7.8-5.66-12.806-7.452a110.264 110.264 0 00-11.208-3.359 43.14 43.14 0 00-11.502-1.49c-.741 0-1.482-.078-2.204-.093-2.579-.077-5.141-.209-7.719-.185a35.522 35.522 0 00-10.048 1.374c-2.615.773-5.274 1.452-7.934 2.109-7.87 1.9-14.857 5.058-21.684 8.378-.798.408-1.567.856-2.302 1.344a1550.95 1550.95 0 00-9.816 6.44 43.648 43.648 0 00-4.069 2.726c-4.757 3.97-9.54 7.931-14.064 12.032-3.177 2.857-5.907 5.938-8.825 8.919l-.072.116c-1.642 2.37-28.136 58.573-51.328 75.531-.152 0-.384-.093-.643-.131-1.606 1.328-3.141 2.749-4.881 4a178.897 178.897 0 01-16.188 10.525 43.97 43.97 0 01-7.139 3.321c-4.729 1.676-9.458 3.375-14.277 4.996-2.097.711-7.21 3.699-7.21 4.634 0 7.498-16.26 13.606-25.7 20.495-9.656 7.081-17.74 22.024-17.74 32.024v42.377c0 6.628 5.372 12 12 12H72.91c176.128 23.772 43.388-9.339 362.509 12.761 7.641.529 14.459-5.583 14.246-13.239-1.381-49.631-6.985-118.553-62.394-127.207z" fill="#C4D6A4"/><path d="M271.292 173.994a19.911 19.911 0 01-9.04-3.927 56.281 56.281 0 01-6.554-5.597 11.207 11.207 0 01-1.175-1.54 3.623 3.623 0 01.338-2.502 25.75 25.75 0 015.372-8.376 18.847 18.847 0 015.894-4.181 8.219 8.219 0 012.134-.77c3.3-.408 6.554-1.124 9.908-1.1 2.164 0 4.144.769 6.216 1.201 1.021.271 2.017.629 2.978 1.07 6.085 2.348 9.662 7.006 11.972 12.911-.837 2.864-10.023 10.008-12.717 11.14-10.076 3.257-15.326 1.671-15.326 1.671z" fill="#F4F0E9"/><path d="M263.564 170.922a55.7 55.7 0 011.758-5.636c1.896-4.458 7.275-7.083 12.026-6.021.767.17 1.466.385 2.195.57 3.192.816 5.195 2.933 6.515 5.867a22.175 22.175 0 011.313 5.751c-.184.239-.323.577-.568.701a24.491 24.491 0 01-12.732 2.355 28.834 28.834 0 01-8.91-2.132l-1.597-1.455z" fill="#988FC1"/><path d="M225.734 165.948c-3.959 2.608-7.927 5.206-11.876 7.841-.924.586-1.8 1.245-2.618 1.972-3.012 2.764-6.603 4.543-10.305 6.183a17.5 17.5 0 00-5.391.728 20.25 20.25 0 01-6.485.921 278.384 278.384 0 00-9.184 0c-2.553 0-5.107-.175-7.633.479a5.624 5.624 0 01-2.893-.12 16.7 16.7 0 00-2.158-.304 7.231 7.231 0 00-.606-.424 5.642 5.642 0 01-2.001-1.793 5.683 5.683 0 01-.948-2.519c.166-3.243 2.113-4.902 4.877-5.841a37.195 37.195 0 018.524-2.083c.634-.055.634-.083 1.607-.921-1.837-1.483-3.738-2.764-5.593-4.119-.395-.294-.809-.552-1.222-.82a12.215 12.215 0 01-4.666-5.206 13.178 13.178 0 010-5.122c.212-.332.441-.774.735-1.152 1.516-1.917 3.481-2.138 5.621-1.355 1.598.59 3.15 1.309 4.73 1.972.322.129.643.231.919.323.358-.175.468-.397.312-.655-1.167-2.008-2.333-4.017-3.518-6.016a47.426 47.426 0 01-3.839-7.924 16.57 16.57 0 01-.56-7.629 3.834 3.834 0 01.75-1.869 3.808 3.808 0 011.592-1.227c2.682-1.272 4.904-1.004 7.044 1.17a46.035 46.035 0 018.046 10.006c.469.857.919 1.723 1.451 2.553.101.184.386.258.607.387.459-.507.275-1.115.192-1.659-.799-5.62-.514-11.268-.321-16.907.08-1.347.271-2.684.569-3.999.478-2.322 1.635-4.091 4.152-4.607.239-.046.477-.129.799-.212 2.627.424 4.133 2.276 5.281 4.542a24.076 24.076 0 012.085 7.021 109.613 109.613 0 011.717 11.656 1.483 1.483 0 00.983 1.474 48.306 48.306 0 001.837-5.16c.551-1.492 1.02-3.022 1.626-4.487a18.39 18.39 0 011.423-2.57 5.574 5.574 0 013.05-2.516c.455-.173.9-.373 1.332-.599l2.691.092c.395.258.789.516 1.203.765a6.524 6.524 0 013.315 5.39c.294 4.773.386 9.537-1.019 14.19-.423 1.4-.772 2.828-1.13 4.247a.815.815 0 00.331.922 2.28 2.28 0 00.643-.24c1.212-1.023 2.388-2.091 3.609-3.105a49.02 49.02 0 014.299-3.4c2.617-1.732 5.511-2.663 8.597-1.843a4.155 4.155 0 012.149 3.437 24.773 24.773 0 01-1.277 4.828 16.3 16.3 0 01-3.352 5.621 95.66 95.66 0 01-8.983 8.615c-.422.359-.744.727-1.12 1.068z" fill="#3D6334"/><path d="M198.471 171.55a16.1 16.1 0 01-7.302-3.179 44.353 44.353 0 01-5.29-4.514 8.35 8.35 0 01-.919-1.253 2.892 2.892 0 01.267-2.018 20.772 20.772 0 014.316-6.763 15.156 15.156 0 014.758-3.373 6.41 6.41 0 011.727-.598 61.2 61.2 0 018.009-.922 27.98 27.98 0 015.015.977c.825.215 1.63.502 2.406.857 4.914 1.898 7.798 5.657 9.662 10.421-.67 2.312-8.091 8.099-10.268 9.002-8.147 2.589-12.381 1.363-12.381 1.363z" fill="#F4F0E9"/><path d="M192.227 169.016a45.01 45.01 0 011.424-4.552 8.775 8.775 0 014.008-4.135 8.74 8.74 0 015.7-.757c.597.129 1.184.304 1.772.461a7.716 7.716 0 013.204 1.728 7.756 7.756 0 012.059 3.007 17.915 17.915 0 011.056 4.607c-.147.194-.257.461-.459.562a19.814 19.814 0 01-10.296 1.908 23.498 23.498 0 01-7.191-1.723l-1.277-1.106z" fill="#988FC1"/><path d="M261.419 301.646c.304.305.426.61.426 1.037v11.585c0 .427-.122.732-.426 1.037-.304.305-.608.427-1.034.427h-11.803c-.426 0-.609.183-.609.609v46.22c0 .427-.121.732-.425 1.037-.305.304-.609.426-1.035.426h-14.297c-.426 0-.73-.122-1.035-.426-.304-.305-.425-.61-.425-1.037v-46.22c0-.426-.183-.609-.609-.609h-7.179c-.426 0-.73-.122-1.034-.427-.305-.305-.426-.61-.426-1.037v-11.585c0-.427.121-.732.426-1.037.304-.305.608-.426 1.034-.426h7.179c.426 0 .609-.183.609-.61v-2.683c0-5.061.79-8.964 2.311-11.768 1.522-2.805 4.016-4.818 7.484-5.976 3.468-1.159 8.213-1.707 14.297-1.524h4.624c.426 0 .73.121 1.035.426.304.305.425.61.425 1.037V290c0 .427-.121.732-.425 1.037-.305.304-.609.426-1.035.426h-4.015c-2.86.061-4.807.671-5.902 1.769-1.095 1.097-1.642 3.109-1.642 6.036v1.342c0 .427.182.61.608.61h11.803c.426 0 .791.121 1.095.426zm12.777-10.122c-1.826-1.829-2.738-4.146-2.738-6.89 0-2.866.912-5.183 2.677-6.951 1.764-1.768 4.076-2.683 6.936-2.683 2.859 0 5.171.915 6.935 2.683 1.765 1.768 2.677 4.085 2.677 6.951 0 2.744-.912 5.061-2.737 6.89-1.826 1.83-4.138 2.744-6.875 2.744-2.799 0-5.05-.914-6.875-2.744zm-1.521 72.074c-.305-.305-.426-.61-.426-1.037v-59.878c0-.427.121-.732.426-1.037.304-.305.608-.426 1.034-.426h14.237c.425 0 .73.121 1.034.426.304.305.426.61.426 1.037v59.878c0 .427-.122.732-.426 1.037-.304.304-.609.426-1.034.426h-14.237c-.365 0-.73-.122-1.034-.426zM349.638 306.683c3.954 3.963 5.962 9.39 5.962 16.219v40c0 .427-.122.732-.426 1.037-.304.305-.608.427-1.034.427h-14.237c-.426 0-.73-.122-1.034-.427-.304-.305-.426-.61-.426-1.037v-36.463c0-3.232-.913-5.915-2.738-7.927-1.825-2.012-4.259-3.049-7.24-3.049s-5.415 1.037-7.24 3.049c-1.825 2.012-2.738 4.695-2.738 7.927v36.463c0 .427-.121.732-.425 1.037-.305.305-.609.427-1.035.427h-14.236c-.426 0-.73-.122-1.035-.427-.304-.305-.426-.61-.426-1.037v-59.756c0-.427.122-.731.426-1.036.305-.305.609-.427 1.035-.427h14.236c.426 0 .73.122 1.035.427.304.305.425.609.425 1.036v4.269c0 .243.061.426.244.487.182.061.304.061.365-.122 3.346-4.695 8.274-7.073 14.845-7.073 6.51 0 11.742 2.012 15.697 5.976zM405.793 282.427c.305-.305.609-.427 1.035-.427h14.236c.426 0 .731.122 1.035.427.304.305.426.61.426 1.036v82.439c0 .427-.122.732-.426 1.037-.304.305-.609.427-1.035.427h-14.236c-.426 0-.73-.122-1.035-.427-.304-.305-.425-.61-.425-1.037v-4.024c0-.244-.061-.366-.244-.427-.182-.061-.304 0-.486.183-3.408 4.451-8.092 6.707-13.994 6.707-5.658 0-10.586-1.585-14.662-4.756-4.077-3.17-7.058-7.5-8.822-13.048-1.4-4.208-2.069-9.147-2.069-14.757 0-5.792.73-10.792 2.191-15.121 1.886-5.183 4.806-9.33 8.821-12.379 4.016-3.048 9.005-4.573 14.906-4.573 5.841 0 10.404 2.013 13.629 6.098.182.244.304.305.486.244.183-.061.244-.244.244-.488v-26.098c0-.426.182-.731.425-1.036zm-.547 53.597c0-5.426-.913-9.695-2.677-12.804-1.886-3.171-4.563-4.757-8.153-4.757-3.833 0-6.692 1.586-8.639 4.757-2.008 3.17-3.042 7.5-3.042 12.926 0 4.878.852 8.964 2.555 12.195 2.008 3.476 5.05 5.244 9.005 5.244 3.65 0 6.51-1.768 8.517-5.244 1.643-2.987 2.434-7.134 2.434-12.317zM119.697 317.939c-.304.305-.608.427-1.034.427h-11.681c-.426 0-.609.183-.609.61v25.853c0 2.683.548 4.695 1.643 5.976 1.095 1.28 2.859 1.951 5.293 1.951h4.016c.425 0 .73.122 1.034.427.304.305.426.61.426 1.037v11.585c0 .915-.487 1.402-1.46 1.585-3.408.183-5.841.244-7.301.244-6.754 0-11.743-1.097-15.089-3.354-3.346-2.256-5.05-6.463-5.11-12.621v-32.683c0-.427-.183-.61-.609-.61h-6.935c-.426 0-.73-.122-1.035-.427-.304-.305-.426-.61-.426-1.037v-10.853c0-.427.122-.732.426-1.037.304-.305.609-.427 1.035-.427h6.935c.426 0 .609-.183.609-.609v-14.513c0-.426.121-.731.426-1.036.304-.305.608-.427 1.034-.427h13.628c.426 0 .73.122 1.034.427.305.305.426.61.426 1.036v14.513c0 .426.183.609.609.609h11.681c.426 0 .73.122 1.034.427.305.305.426.61.426 1.037v10.853c0 .427-.121.732-.426 1.037zM137.28 362.878c-4.867-3.598-8.213-8.476-9.978-14.634-1.156-3.842-1.703-7.988-1.703-12.439 0-4.817.547-9.086 1.703-12.927 1.886-6.037 5.233-10.732 10.1-14.146 4.867-3.415 10.708-5.122 17.522-5.122 6.632 0 12.351 1.707 17.035 5.061 4.685 3.353 8.031 8.048 9.978 14.085a42.655 42.655 0 011.947 12.805c0 4.39-.548 8.476-1.704 12.317-1.764 6.341-5.11 11.341-9.917 14.939-4.806 3.598-10.647 5.427-17.461 5.427-6.814 0-12.655-1.768-17.522-5.366zm24.336-11.829c1.886-1.647 3.225-3.842 4.016-6.708.669-2.622.973-5.426.973-8.536 0-3.415-.304-6.281-.973-8.659-.913-2.744-2.251-4.939-4.137-6.463-1.886-1.525-4.137-2.317-6.814-2.317-2.738 0-5.05.792-6.875 2.317-1.826 1.524-3.164 3.719-3.955 6.463-.669 1.951-.973 4.817-.973 8.659 0 3.658.304 6.524.851 8.536.791 2.866 2.191 5.061 4.077 6.708 1.886 1.646 4.258 2.439 6.996 2.439 2.677 0 4.928-.793 6.814-2.439zM26.648 269.146L5.111 186.585l-.122-.487c0-.732.426-1.098 1.338-1.098h15.089c.79 0 1.338.427 1.582 1.22l11.56 49.634c.06.305.182.487.364.487.183 0 .305-.182.365-.487l11.195-49.513c.243-.914.791-1.341 1.582-1.341h14.723c.913 0 1.46.427 1.704 1.22l12.168 49.634c.06.244.182.366.365.426.183.061.304-.121.365-.426l11.195-49.513c.243-.914.79-1.341 1.581-1.341h14.359c1.156 0 1.582.549 1.338 1.585l-19.955 82.561c-.244.793-.791 1.22-1.704 1.22h-14.48c-.79 0-1.338-.427-1.582-1.22L55.73 216.341c-.061-.304-.183-.487-.365-.487-.183 0-.305.183-.365.487l-11.56 52.683c-.182.915-.67 1.342-1.582 1.342H28.352c-.913 0-1.46-.427-1.704-1.22zM162.894 207.683c3.955 3.963 5.963 9.39 5.963 16.219v40c0 .427-.122.732-.426 1.037-.305.305-.609.427-1.035.427H153.16c-.426 0-.73-.122-1.035-.427-.304-.305-.425-.61-.425-1.037v-36.463c0-3.232-.913-5.915-2.738-7.927-1.825-2.012-4.259-3.049-7.24-3.049s-5.415 1.037-7.24 3.049c-1.825 2.012-2.738 4.695-2.738 7.927v36.463c0 .427-.122.732-.426 1.037-.304.305-.608.427-1.034.427h-14.237c-.426 0-.73-.122-1.034-.427-.304-.305-.426-.61-.426-1.037v-82.439c0-.426.122-.731.426-1.036.304-.305.608-.427 1.034-.427h14.237c.426 0 .73.122 1.034.427.304.305.426.61.426 1.036v26.952c0 .244.061.426.243.487.183.061.304.061.365-.122 3.347-4.695 8.275-7.073 14.845-7.073 6.449 0 11.682 2.013 15.697 5.976zM234.795 243.341c-.061.976-.608 1.464-1.582 1.464h-37.599c-.487 0-.669.183-.487.61.244 1.646.67 3.231 1.339 4.878 2.129 4.573 6.388 6.829 12.898 6.829 5.171-.061 9.309-2.195 12.29-6.342.304-.487.669-.731 1.095-.731.243 0 .547.183.852.488l8.761 8.658c.426.427.608.793.608 1.098 0 .183-.182.487-.487.975-2.677 3.354-6.144 5.915-10.342 7.744-4.198 1.829-8.822 2.744-13.872 2.744-6.997 0-12.898-1.585-17.705-4.756-4.806-3.171-8.274-7.622-10.403-13.293-1.704-4.085-2.556-9.39-2.556-15.975 0-4.452.609-8.415 1.826-11.83 1.886-5.792 5.11-10.365 9.795-13.78 4.685-3.415 10.221-5.122 16.609-5.122 8.092 0 14.602 2.378 19.53 7.073 4.928 4.695 7.909 11.037 8.944 18.903.486 3.109.669 6.524.486 10.365zm-38.938-14.268c-.304 1.037-.608 2.378-.851 3.903 0 .426.182.609.608.609h21.051c.487 0 .669-.183.487-.609-.426-2.378-.609-3.476-.609-3.415-.73-2.439-2.008-4.329-3.833-5.671-1.825-1.341-4.076-2.012-6.753-2.012-5.111 0-8.457 2.378-10.1 7.195zM281.691 199.537c.669.304.913.914.73 1.829l-2.555 13.902c-.061.976-.669 1.281-1.704.854-1.216-.427-2.616-.61-4.259-.61-.669 0-1.521.061-2.676.244-2.921.244-5.415 1.342-7.423 3.232-2.008 1.89-3.042 4.451-3.042 7.622v33.292c0 .427-.122.732-.426 1.037-.304.305-.608.427-1.034.427h-14.237c-.426 0-.73-.122-1.034-.427-.304-.305-.426-.61-.426-1.037v-59.756c0-.427.122-.731.426-1.036.304-.305.608-.427 1.034-.427h14.237c.426 0 .73.122 1.034.427.304.305.426.609.426 1.036v4.634c0 .244.061.427.243.488.183.061.305.061.365-.122 3.347-4.878 7.788-7.317 13.385-7.317 2.921 0 5.233.549 6.936 1.708zM343.444 242.927c-.061.975-.608 1.463-1.582 1.463h-37.599c-.487 0-.67.183-.487.61a20.83 20.83 0 001.338 4.878c2.13 4.573 6.389 6.829 12.899 6.829 5.171-.061 9.308-2.195 12.289-6.341.305-.488.67-.732 1.096-.732.243 0 .547.183.851.488l8.761 8.659c.426.426.609.792.609 1.097 0 .183-.183.488-.487.976-2.677 3.353-6.145 5.914-10.343 7.744-4.198 1.829-8.822 2.743-13.872 2.743-6.996 0-12.898-1.585-17.704-4.756-4.806-3.17-8.274-7.622-10.404-13.292-1.703-4.086-2.555-9.391-2.555-15.976 0-4.451.608-8.415 1.825-11.829 1.886-5.793 5.111-10.366 9.795-13.781 4.685-3.414 10.222-5.122 16.61-5.122 8.092 0 14.602 2.378 19.53 7.074 4.928 4.695 7.909 11.036 8.943 18.902.487 3.11.669 6.524.487 10.366zm-38.938-14.268c-.304 1.036-.608 2.378-.852 3.902 0 .427.183.61.609.61h21.05c.487 0 .67-.183.487-.61-.426-2.378-.608-3.476-.608-3.415-.73-2.439-2.008-4.329-3.833-5.67-1.825-1.342-4.076-2.013-6.753-2.013-5.111 0-8.457 2.378-10.1 7.196z" fill="#000"/><path d="M258.426 297.646c.304.305.426.61.426 1.037v11.585c0 .427-.122.732-.426 1.037-.305.305-.609.427-1.035.427h-11.803c-.426 0-.608.183-.608.609v46.22c0 .427-.122.732-.426 1.037-.304.304-.608.426-1.034.426h-14.298c-.426 0-.73-.122-1.034-.426-.304-.305-.426-.61-.426-1.037v-46.22c0-.426-.182-.609-.608-.609h-7.179c-.426 0-.731-.122-1.035-.427-.304-.305-.426-.61-.426-1.037v-11.585c0-.427.122-.732.426-1.037.304-.305.609-.426 1.035-.426h7.179c.426 0 .608-.183.608-.61v-2.683c0-5.061.791-8.964 2.312-11.768 1.521-2.805 4.016-4.818 7.483-5.976 3.468-1.159 8.214-1.707 14.298-1.524h4.624c.426 0 .73.121 1.034.426.304.305.426.61.426 1.037V286c0 .427-.122.732-.426 1.037-.304.304-.608.426-1.034.426h-4.016c-2.859.061-4.806.671-5.901 1.769-1.095 1.097-1.643 3.109-1.643 6.036v1.342c0 .427.183.61.609.61h11.803c.425 0 .79.121 1.095.426zm12.776-10.122c-1.825-1.829-2.738-4.146-2.738-6.89 0-2.866.913-5.183 2.677-6.951 1.765-1.768 4.077-2.683 6.936-2.683 2.86 0 5.172.915 6.936 2.683 1.764 1.768 2.677 4.085 2.677 6.951 0 2.744-.913 5.061-2.738 6.89-1.825 1.83-4.137 2.744-6.875 2.744-2.799 0-5.05-.914-6.875-2.744zm-1.521 72.074c-.304-.305-.426-.61-.426-1.037v-59.878c0-.427.122-.732.426-1.037.304-.305.609-.426 1.034-.426h14.237c.426 0 .73.121 1.034.426.305.305.426.61.426 1.037v59.878c0 .427-.121.732-.426 1.037-.304.304-.608.426-1.034.426h-14.237c-.365 0-.73-.122-1.034-.426zM346.644 302.683c3.955 3.963 5.963 9.39 5.963 16.219v40c0 .427-.122.732-.426 1.037-.304.305-.609.427-1.034.427H336.91c-.426 0-.73-.122-1.034-.427-.305-.305-.426-.61-.426-1.037v-36.463c0-3.232-.913-5.915-2.738-7.927-1.825-2.012-4.259-3.049-7.24-3.049s-5.415 1.037-7.24 3.049c-1.825 2.012-2.738 4.695-2.738 7.927v36.463c0 .427-.122.732-.426 1.037-.304.305-.608.427-1.034.427h-14.237c-.426 0-.73-.122-1.034-.427-.304-.305-.426-.61-.426-1.037v-59.756c0-.427.122-.731.426-1.036.304-.305.608-.427 1.034-.427h14.237c.426 0 .73.122 1.034.427.304.305.426.609.426 1.036v4.269c0 .243.061.426.243.487.183.061.305.061.365-.122 3.347-4.695 8.275-7.073 14.845-7.073 6.51 0 11.743 2.012 15.697 5.976zM402.8 278.427c.304-.305.609-.427 1.034-.427h14.237c.426 0 .73.122 1.034.427.305.305.426.61.426 1.036v82.439c0 .427-.121.732-.426 1.037-.304.305-.608.427-1.034.427h-14.237c-.425 0-.73-.122-1.034-.427-.304-.305-.426-.61-.426-1.037v-4.024c0-.244-.061-.366-.243-.427-.183-.061-.304 0-.487.183-3.407 4.451-8.092 6.707-13.993 6.707-5.658 0-10.586-1.585-14.663-4.756-4.076-3.17-7.057-7.5-8.822-13.048-1.399-4.208-2.068-9.147-2.068-14.757 0-5.792.73-10.792 2.19-15.121 1.886-5.183 4.807-9.33 8.822-12.379 4.015-3.048 9.004-4.573 14.906-4.573 5.841 0 10.404 2.013 13.628 6.098.183.244.304.305.487.244.182-.061.243-.244.243-.488v-26.098c0-.426.183-.731.426-1.036zm-.547 53.597c0-5.426-.913-9.695-2.677-12.804-1.886-3.171-4.563-4.757-8.153-4.757-3.833 0-6.692 1.586-8.639 4.757-2.008 3.17-3.042 7.5-3.042 12.926 0 4.878.851 8.964 2.555 12.195 2.008 3.476 5.05 5.244 9.004 5.244 3.651 0 6.51-1.768 8.518-5.244 1.643-2.987 2.434-7.134 2.434-12.317zM116.704 313.939c-.304.305-.608.427-1.034.427h-11.681c-.426 0-.609.183-.609.61v25.853c0 2.683.548 4.695 1.643 5.976 1.095 1.28 2.859 1.951 5.293 1.951h4.015c.426 0 .73.122 1.035.427.304.305.426.61.426 1.037v11.585c0 .915-.487 1.402-1.461 1.585-3.407.183-5.84.244-7.3.244-6.754 0-11.743-1.097-15.089-3.354-3.346-2.256-5.05-6.463-5.11-12.621v-32.683c0-.427-.183-.61-.609-.61h-6.936c-.425 0-.73-.122-1.034-.427-.304-.305-.426-.61-.426-1.037v-10.853c0-.427.122-.732.426-1.037.304-.305.609-.427 1.034-.427h6.936c.426 0 .609-.183.609-.609v-14.513c0-.426.121-.731.425-1.036.305-.305.609-.427 1.035-.427h13.628c.426 0 .73.122 1.034.427.304.305.426.61.426 1.036v14.513c0 .426.183.609.609.609h11.681c.426 0 .73.122 1.034.427.304.305.426.61.426 1.037v10.853c0 .427-.122.732-.426 1.037zM134.287 358.878c-4.867-3.598-8.213-8.476-9.978-14.634-1.156-3.842-1.703-7.988-1.703-12.439 0-4.817.547-9.086 1.703-12.927 1.886-6.037 5.232-10.732 10.1-14.146 4.867-3.415 10.708-5.122 17.522-5.122 6.631 0 12.35 1.707 17.035 5.061 4.685 3.353 8.031 8.048 9.978 14.085a42.655 42.655 0 011.947 12.805c0 4.39-.548 8.476-1.704 12.317-1.764 6.341-5.11 11.341-9.917 14.939-4.806 3.598-10.647 5.427-17.461 5.427-6.814 0-12.655-1.768-17.522-5.366zm24.336-11.829c1.886-1.647 3.225-3.842 4.016-6.708.669-2.622.973-5.426.973-8.536 0-3.415-.304-6.281-.973-8.659-.913-2.744-2.251-4.939-4.137-6.463-1.886-1.525-4.138-2.317-6.815-2.317-2.737 0-5.049.792-6.875 2.317-1.825 1.524-3.163 3.719-3.954 6.463-.669 1.951-.974 4.817-.974 8.659 0 3.658.305 6.524.852 8.536.791 2.866 2.19 5.061 4.076 6.708 1.887 1.646 4.259 2.439 6.997 2.439 2.677 0 4.928-.793 6.814-2.439zM23.655 265.146L2.117 182.585l-.121-.487c0-.732.425-1.098 1.338-1.098h15.088c.791 0 1.339.427 1.582 1.22l11.56 49.634c.06.305.183.487.365.487.183 0 .304-.182.365-.487l11.195-49.513c.243-.914.79-1.341 1.582-1.341h14.723c.913 0 1.46.427 1.704 1.22l12.168 49.634c.06.244.182.366.365.426.182.061.304-.121.365-.426l11.194-49.513c.244-.914.791-1.341 1.582-1.341h14.359c1.155 0 1.581.549 1.338 1.585l-19.956 82.561c-.243.793-.79 1.22-1.703 1.22H66.73c-.791 0-1.339-.427-1.582-1.22l-12.411-52.805c-.061-.304-.183-.487-.366-.487-.182 0-.304.183-.365.487l-11.56 52.683c-.182.915-.668 1.342-1.581 1.342H25.358c-.912 0-1.46-.427-1.703-1.22zM159.901 203.683c3.955 3.963 5.962 9.39 5.962 16.219v40c0 .427-.121.732-.426 1.037-.304.305-.608.427-1.034.427h-14.237c-.425 0-.73-.122-1.034-.427-.304-.305-.426-.61-.426-1.037v-36.463c0-3.232-.912-5.915-2.738-7.927-1.825-2.012-4.258-3.049-7.24-3.049-2.981 0-5.414 1.037-7.24 3.049-1.825 2.012-2.737 4.695-2.737 7.927v36.463c0 .427-.122.732-.426 1.037-.304.305-.609.427-1.035.427h-14.236c-.426 0-.73-.122-1.034-.427-.305-.305-.426-.61-.426-1.037v-82.439c0-.426.121-.731.426-1.036.304-.305.608-.427 1.034-.427h14.236c.426 0 .731.122 1.035.427.304.305.426.61.426 1.036v26.952c0 .244.06.426.243.487s.304.061.365-.122c3.346-4.695 8.274-7.073 14.845-7.073 6.449 0 11.681 2.013 15.697 5.976zM231.802 239.341c-.061.976-.608 1.464-1.582 1.464h-37.599c-.487 0-.669.183-.487.61a20.798 20.798 0 001.339 4.878c2.129 4.573 6.388 6.829 12.898 6.829 5.171-.061 9.308-2.195 12.29-6.342.304-.487.669-.731 1.095-.731.243 0 .547.183.851.488l8.761 8.658c.426.427.609.793.609 1.098 0 .183-.183.487-.487.975-2.677 3.354-6.145 5.915-10.343 7.744-4.198 1.829-8.822 2.744-13.871 2.744-6.997 0-12.899-1.585-17.705-4.756-4.806-3.171-8.274-7.622-10.404-13.293-1.703-4.085-2.555-9.39-2.555-15.975 0-4.452.608-8.415 1.825-11.83 1.886-5.792 5.111-10.365 9.796-13.78 4.684-3.415 10.221-5.122 16.609-5.122 8.092 0 14.602 2.378 19.53 7.073 4.928 4.695 7.909 11.037 8.943 18.903.487 3.109.67 6.524.487 10.365zm-38.938-14.268c-.304 1.037-.608 2.378-.852 3.903 0 .426.183.609.609.609h21.051c.486 0 .669-.183.486-.609-.426-2.378-.608-3.476-.608-3.415-.73-2.439-2.008-4.329-3.833-5.671-1.825-1.341-4.076-2.012-6.753-2.012-5.111 0-8.457 2.378-10.1 7.195zM278.698 195.537c.669.304.912.914.73 1.829l-2.555 13.902c-.061.976-.67 1.281-1.704.854-1.217-.427-2.616-.61-4.259-.61-.669 0-1.521.061-2.677.244-2.92.244-5.415 1.342-7.422 3.232-2.008 1.89-3.042 4.451-3.042 7.622v33.292c0 .427-.122.732-.426 1.037-.304.305-.609.427-1.034.427h-14.237c-.426 0-.73-.122-1.034-.427-.305-.305-.426-.61-.426-1.037v-59.756c0-.427.121-.731.426-1.036.304-.305.608-.427 1.034-.427h14.237c.425 0 .73.122 1.034.427.304.305.426.609.426 1.036v4.634c0 .244.061.427.243.488.183.061.304.061.365-.122 3.346-4.878 7.788-7.317 13.385-7.317 2.92 0 5.232.549 6.936 1.708zM340.451 238.927c-.061.975-.609 1.463-1.582 1.463H301.27c-.487 0-.67.183-.487.61a20.83 20.83 0 001.338 4.878c2.13 4.573 6.389 6.829 12.898 6.829 5.172-.061 9.309-2.195 12.29-6.341.304-.488.669-.732 1.095-.732.244 0 .548.183.852.488l8.761 8.659c.426.426.609.792.609 1.097 0 .183-.183.488-.487.976-2.677 3.353-6.145 5.914-10.343 7.744-4.198 1.829-8.822 2.743-13.872 2.743-6.996 0-12.898-1.585-17.704-4.756-4.807-3.17-8.275-7.622-10.404-13.292-1.703-4.086-2.555-9.391-2.555-15.976 0-4.451.608-8.415 1.825-11.829 1.886-5.793 5.111-10.366 9.795-13.781 4.685-3.414 10.221-5.122 16.61-5.122 8.091 0 14.601 2.378 19.529 7.074 4.929 4.695 7.91 11.036 8.944 18.902.487 3.11.669 6.524.487 10.366zm-38.938-14.268c-.304 1.036-.609 2.378-.852 3.902 0 .427.183.61.609.61h21.05c.487 0 .67-.183.487-.61-.426-2.378-.608-3.476-.608-3.415-.73-2.439-2.008-4.329-3.833-5.67-1.826-1.342-4.077-2.013-6.754-2.013-5.11 0-8.456 2.378-10.099 7.196z" fill="#fff" stroke="#000" stroke-width="3"/><path d="M254.435 13.827l-7.705 12.514s-27.068-1.2-37.112 8.035c0 0-16.562 20.536-25.205 23.37 0 0-9.569 3.77-18.437 1.886 0 0-14.247-5.429-13.997-16.814 0 0-4.203-9.908 3.027-18.41 0 0 4.903-6.617 10.507-7.554 0 0 5.829-1.898 10.269 2.125 0 0 9.332 11.325-1.401 15.817 0 0-5.14 5.668-14.009-3.303 0 0-3.965 4.96.938 13.21 0 0 12.834 11.097 25.905-.708 0 0 10.044-7.794 8.168-20.548 0 0-3.965-17.234-14.935-20.536 0 0-15.873-7.794-29.407 2.125 0 0-13.772 11.806-15.434 25.028 0 0-3.027 17.702 4.44 27.154 0 0 11.67 20.295 25.668 23.838 0 0 12.37 3.783 20.075 5.909a8.903 8.903 0 00-2.668 4.08 8.992 8.992 0 00-.133 4.891l4.44 12.742s6.304-5.188 10.685-8.73c0 0 17.511-9.212 19.375-9.92 1.864-.71 3.265 6.617 20.301 6.845 0 0-8.868-10.388.238-12.514l18.437 4.492s17.737 14.639 25.905 11.565a29.525 29.525 0 000-16.525s9.106 2.594 14.71-.709l.463-4.251s9.569.48 12.133-.937c0 0 1.638-11.337-.689-15.348 0 0-9.343-8.263-9.343-8.971v.708l-2.374-8.97s.225-1.418-1.876-1.658l-6.767-.24s-17.856-28.739-34.192-29.688z" fill="#FDD26E"/><path d="M234.3 48.042c-.059-2.245 1.935-7.29 4.618-12.706 1.924-3.879 5.034-7.602 7.124-11.349 3.193-5.68 5.556-10.652 6.268-11.817a1.786 1.786 0 011.059-.805c.442-.121.913-.065 1.316.157a1.578 1.578 0 01.595 1.075c.024.21.005.424-.055.627a1.579 1.579 0 01-.291.555c-1.935 3.183-3.562 7.338-5.758 11.301a267.237 267.237 0 00-5.936 11.337 129.822 129.822 0 00-4.998 12.01c-2.636 2.233-3.918.504-3.942-.385zM181.505 86.58a32.905 32.905 0 01-11.35-2.125c-3.562-1.393-7.123-3.819-11.005-6.22a109.91 109.91 0 01-12.359-8.792c-.653-.6-1.092-2.005-.499-2.666.594-.66 3.396 1.357 4.06 1.958.095.084 3.194 2.101 9.569 6.124a67.716 67.716 0 0011.991 6.005c4.298 1.645 8.714 3.7 13.06 3.603.89 0 2.291 0 2.374.84.083.841-1.353 1.202-2.244 1.286-.89.084-2.73.036-3.597-.012z" fill="#572D2D"/><path d="M187.548 110.239c-1.888-4.707-2.303-4.551-4.191-9.259a37.525 37.525 0 01-1.816-5.693 9.975 9.975 0 01-.035-5.017 9.904 9.904 0 012.409-4.386c2.493-2.702 3.502-3.975 7.717-8.335.605-.612 2.054 1.562 1.46 2.174-5.414 5.585-5.758 4.684-9.011 11.29-2.137 4.334.321 6.004 2.125 10.471 1.805 4.468 1.187 2.402 3.028 6.834.308.78 1.187 2.306.427 2.606-.237.06-1.864-.072-2.113-.685zM217.537 94.423a1.191 1.191 0 01-.596-.523 1.214 1.214 0 01-.14-.786c.356-1.946-1.342-7.206-2.517-12.754-.902-4.396-1.698-9.103-2.648-12.61a1 1 0 01.119-.78c.344-.565.475-1.01 1.021-1.202 6.233-1.645 6.079-2.21 12.312-3.855 6.232-1.645 6.197-1.73 12.43-3.374.665-.18.748.372.854 1.032.088.436.007.888-.224 1.266-.232.377-.598.65-1.022.764-7.408 1.922-4.25 1.49-10.459 3.135-5.83 1.549-5.936 1.405-11.255 4.179.677 2.582 1.187 7.206 2.172 12.117 1.057 5.213 1.888 10.256 1.378 12.61-.19.78-1.235.853-1.425.78zM234.193 92.742c-.878-.169-1.187-.937-.973-1.826 1.721-8.575.926-8.587 2.647-17.161.167-.89.974-1.201 1.852-.973.879.228 1.188.66.95 1.537-1.709 8.587-1.65 8.67-3.36 17.246a1.682 1.682 0 01-1.116 1.177zM303.835 80.252c-3.443 0-5.556-1.057-9.592-1.754 0 0 .724-.372.724-4.07 4.476.708 9.866 2.653 13.142 2.317 0-3.855-.498-12.766-2.671-17.09a1.581 1.581 0 010-1.14c1.603-4.156 2.28-1.946 3.372-.781 1.923 2.041 2.374 6.305 2.707 10.064.231 3.51.27 7.03.118 10.544-.044.386-.21.747-.473 1.03a1.787 1.787 0 01-.987.543 54.02 54.02 0 01-6.34.337z" fill="#572D2D"/><path d="M283.142 84.563l.938 5.512a19.732 19.732 0 01-.309 4.252l-1.092 5.5s-18.319-.336-23.34-21.269l23.803 6.005z" fill="#D25B73"/><path d="M289.601 85.608c-3.443 0-5.556-1.069-9.593-1.766-4.037-.696-19.601-4.239-20.052-4.37-.843-.277-3.146-1.55-2.873-2.403.273-.853.582-1.861 1.436-1.597.107 0 18.2 3.675 22.213 4.311 4.476.709 9.854 2.642 13.143 2.318 0-3.855-.499-12.778-2.672-17.09a1.616 1.616 0 01-.059-1.2c1.603-4.156 2.268-1.946 3.372-.769 1.923 2.042 2.374 6.293 2.707 10.064.237 3.51.272 7.03.106 10.544a1.762 1.762 0 01-.461 1.03c-.262.283-.609.47-.987.532-2.084.26-4.181.392-6.28.396z" fill="#572D2D"/><path d="M271.044 33.727c-3.217-1.681-13.664-7.29-15.433-9.968 0 0-1.639-2.954 3.265-.708l13.332 8.995s2.374 2.03 1.08 2.27a4.145 4.145 0 01-2.244-.589zM196.143 85.872c-1.092 1.982-4.749 8.407-7.016 9.271 0 0-2.505.709-1.187-2.401l6.446-7.927s1.532-1.405 1.947-.432a1.85 1.85 0 01-.19 1.49zM260.953 35.396c-1.496-.672-6.304-2.978-6.957-4.972 0 0-.558-2.281 1.745-1.56l5.936 4.647s1.045 1.2.333 1.801a1.05 1.05 0 01-1.057.084zM221.467 78.558c-.404-1.597-1.579-6.845-.44-8.598 0 0 1.425-1.85 2.292.42l.071 7.626s-.273 1.573-1.187 1.381a1.083 1.083 0 01-.736-.829zM218.13 34.051c.167.54.451 1.045.618 1.586.237.744.522 1.477.783 2.21.261.732.677 1.524.938 2.33.146.453.358.882.629 1.272.208.413.367.848.475 1.297.214.54.594.997.784 1.55.11.334.245.659.403.972.547.985.867 2.078 1.449 3.05.301.546.575 1.108.819 1.682.558 1.2 1.187 2.306 1.733 3.47.107.24.273.445.392.661a.258.258 0 00.344.12.437.437 0 00.297-.3 1.195 1.195 0 000-.348 5.415 5.415 0 00-.178-1.201 5.507 5.507 0 01-.309-1.441 5.043 5.043 0 01.392-1.982c.404-.949.867-1.885 1.259-2.822.222-.414.306-.89.237-1.357a4.89 4.89 0 00-.914-1.597 2.205 2.205 0 01-.499-1.394 3.333 3.333 0 01.594-1.705c.307-.384.592-.785.855-1.2.287-.497.545-1.01.771-1.538.202-.404.267-.863.186-1.308a2.072 2.072 0 00-.637-1.154 7.235 7.235 0 00-2.125-1.309 2.52 2.52 0 01-.736-.468.551.551 0 01-.225-.637 3.144 3.144 0 011.08-1.537 12.143 12.143 0 002.232-2.174 2.735 2.735 0 00.76-1.753 59.076 59.076 0 00-13.641 3.122c.13.517.261 1.045.427 1.55.226.792.558 1.549.807 2.353zM205.463 43.37a5.8 5.8 0 001.888 3.351 25.342 25.342 0 012.671 2.27 6.54 6.54 0 011.187 2.15 4.488 4.488 0 001.805 2.51c1.294.9 2.6 1.777 3.906 2.678.142.096.261.24.403.324.143.084.689 0 .641-.24a1.698 1.698 0 00-.38-1.045 8.717 8.717 0 01-.641-.829 2.421 2.421 0 01-.213-2.558c.32-.828.759-1.62 1.032-2.474a3.858 3.858 0 00.042-2.545 3.815 3.815 0 00-1.549-2.006 2.154 2.154 0 00-1.259-.3 3.915 3.915 0 01-1.721-.42.698.698 0 01-.368-.697c.136-1.17.423-2.317.855-3.41.537-1.258.935-2.57 1.187-3.916a4.429 4.429 0 00-.221-2.3 4.39 4.39 0 00-1.346-1.867l-.262-.192a18.39 18.39 0 00-3.466 2.401s-2.102 2.606-5.212 6.101a.237.237 0 010 .084 8.16 8.16 0 011.021 2.93zM194.386 57.83c1.437 3.183 2.802 6.39 4.393 9.487.202.385.463.733.629 1.13a.617.617 0 00.19.204.28.28 0 00.285 0 .251.251 0 00.166-.205c.082-.238.115-.492.095-.744a3.218 3.218 0 01.178-1.55 6.82 6.82 0 00.523-1.645 1.88 1.88 0 00-.523-1.56c-.439-.625-1.187-1.058-1.413-1.85a1.43 1.43 0 010-.805 10.99 10.99 0 01.808-1.633 39.322 39.322 0 001.662-3.891 2.659 2.659 0 00.13-2.066 4.268 4.268 0 00-1.187-1.441 1.452 1.452 0 01-.51-.66 3.243 3.243 0 01.51-2.066 10.58 10.58 0 00.974-2.174 1.399 1.399 0 00-.071-.974 1.374 1.374 0 00-.689-.683 108.384 108.384 0 01-8.311 7.986l.214.504c.653 1.538 1.247 3.11 1.947 4.636zM178.952 65.204a5.697 5.697 0 00.16 2.366 5.64 5.64 0 001.111 2.09 14.53 14.53 0 002.374 2.173 5.236 5.236 0 011.615 1.982.62.62 0 00.095.204c.106.156.237.324.427.252.19-.072.107-.312 0-.48-.261-.973-.605-1.922-.902-2.883a2.631 2.631 0 01.498-2.546 4.824 4.824 0 001.188-2.305 3.367 3.367 0 00-.227-1.789 3.312 3.312 0 00-1.115-1.406c-.309-.24-.582-.504-.879-.757-.486-.42-.379-.948-.249-1.465a4.055 4.055 0 011.508-2.113c.487-.4.89-.895 1.187-1.454-.482.235-.977.44-1.484.613a39.256 39.256 0 01-7.123 1.873c.273.685.605 1.333.89 2.006a6.633 6.633 0 01.926 3.639zM164.563 60.82c-.083.349-.095.709-.166 1.057-.071.348-.19.961-.273 1.453-.083.493-.119 1.033-.226 1.55a3.28 3.28 0 00-.059.9 4.244 4.244 0 01-.142.853c0 .36 0 .733-.072 1.093a6.146 6.146 0 00-.083.648c0 .709-.19 1.406-.178 2.126 0 .396-.059.78-.083 1.201-.071.817-.083 1.633-.154 2.402v.492c0 .168 0 .144.142.168a.285.285 0 00.261-.072.577.577 0 00.131-.168c.123-.218.215-.452.273-.696.061-.303.156-.597.285-.877.221-.366.507-.688.843-.949.51-.372 1.056-.732 1.567-1.117a1.39 1.39 0 00.558-.66 3.15 3.15 0 000-1.201 1.347 1.347 0 01.166-.913c.216-.321.516-.575.867-.732.287-.114.568-.242.843-.385.308-.204.57-.408.843-.624.233-.156.41-.385.504-.65.094-.267.1-.557.018-.827a4.503 4.503 0 00-.736-1.393 1.717 1.717 0 01-.249-.493.337.337 0 01.083-.408 1.936 1.936 0 011.068-.493 7.255 7.255 0 001.9-.36c.399-.108.743-.365.961-.72a1.011 1.011 0 00-.083-.937c-2.455.174-4.921.02-7.337-.456 0 0-.439-.169-1.187-.505v.192c-.142.469-.142.985-.285 1.501zM145.556 60.544c10.364-4.431 10.495-1.981 10.281-5.056.261-1.297 1.828-.468 3.075 0a20.214 20.214 0 01-5.057-5.752c-5.984 6.065-9.249 11.072-8.299 10.808zM167.496 36.309a.777.777 0 00-.285.72c.091.235.264.428.487.541.32.208.668.37 1.032.48.229.07.429.214.57.409.026.039.039.085.039.132a.238.238 0 01-.039.132c-.052.102-.12.195-.202.276-.224.227-.409.49-.546.78a.86.86 0 00.155.961c.126.17.269.328.427.469.139.117.286.226.439.324.189.137.337.324.428.54a.912.912 0 010 .59 2.054 2.054 0 00-.107.708c.04.172.126.33.249.456l.796.853c.172.196.305.425.391.672.054.183.078.374.072.565.019.154.05.307.095.456a.587.587 0 00.059.12.155.155 0 00.142.072.121.121 0 00.07-.03.121.121 0 00.037-.066v-.3c0-.505.107-1.009.143-1.513 0-.24 0-.493.059-.733.083-.432 0-.889.107-1.321.018-.14.018-.28 0-.42 0-.229.071-.445.071-.673a2.71 2.71 0 010-.54 2.221 2.221 0 000-.565v-.973-.924-.673-.973c0-.324 0-.456-.059-.684a7.352 7.352 0 01-4.666.072.34.34 0 00.036.06zM176.863 33.811a.313.313 0 00-.226.336.512.512 0 00.392.396c.267.07.529.159.784.265.405.22.763.518 1.056.877.42.439.97.726 1.567.816.535.033 1.066.101 1.591.205.357.115.691.294.986.528.366.322.832.505 1.317.516h2.399c.178 0 .285-.156.19-.252a.714.714 0 00-.404-.312 3.178 3.178 0 01-.439-.06 1.084 1.084 0 01-.713-.937c-.083-.396-.118-.817-.213-1.2a1.771 1.771 0 00-.615-.996 1.732 1.732 0 00-1.095-.386.99.99 0 00-.558.204c-.233.15-.497.245-.772.276a.304.304 0 01-.308-.18 5.877 5.877 0 01-.475-1.561 8.842 8.842 0 00-.534-1.825 2.065 2.065 0 00-.523-.754c-.228-.208-.5-.361-.795-.447a6.347 6.347 0 01-2.102 3.602.483.483 0 000 .12c-.225.265-.19.65-.51.77zM138.813 38.519c1.496-.949 3.858 5.644 6.945.468.214 0 .261-.276 1.187.372a8.37 8.37 0 004.963 3.17 19.883 19.883 0 01-1.033-7.985c-4.417-.42-17.12 4.047-12.062 3.975zM156.063 22.594c-.522 0-1.057-.156-1.579-.18-1.187-.072-2.268-.204-3.395-.264-2.375-.12-4.749-.288-7.124-.288a6.95 6.95 0 01-.866 0 .568.568 0 00-.19.06.178.178 0 00-.107.156.2.2 0 000 .18c.126.119.27.216.427.288.346.114.657.317.903.589.24.311.519.59.831.828a1.179 1.179 0 001.068.216c.522-.071 1.033-.42 1.567-.276a.83.83 0 01.475.265c.267.32.513.656.736 1.008a24.32 24.32 0 001.805 2.246c.293.377.718.627 1.187.697.245 0 .489-.037.724-.108a18.01 18.01 0 012.375-3.603s.522-.697 1.412-1.682v-.06c.083-.108-.118-.06-.249-.072zM164.267 15.245c.783-8.143-3.788-3.675-3.942-9.164-3.68 8.911-.451 7.746-.083 13.439a13.227 13.227 0 015.402-2.522 11.603 11.603 0 012.837-.433l.214-.084c-.546-1.165-3.752-.552-4.428-1.237zM183.844 23.375a4.447 4.447 0 003.134-1.201 9.349 9.349 0 001.365-1.79 3.58 3.58 0 011.306-1.2c.052-.021.1-.05.143-.084.095-.085.213-.18.13-.3-.083-.12-.225 0-.344 0-.689.252-1.353.564-2.018.84a2.186 2.186 0 01-1.912-.108 3.625 3.625 0 00-1.792-.6c-.44-.014-.876.09-1.264.3-.387.211-.713.522-.945.9-.142.217-.32.42-.474.637-.155.216-.653.336-1.045.288a3.058 3.058 0 01-1.674-.804 3.611 3.611 0 00-2.125-.865h-.238c.686.917 1.297 1.89 1.829 2.906 0 0 .071 0 .083.072.012.072 0 0 0 .06.285.553.558 1.201.807 1.778l.202.084c.154.072.202.132.095.264a.615.615 0 00-.107.192l.178.553a14.89 14.89 0 002.09-1.057 5.062 5.062 0 012.576-.865z" fill="#F5F1E8"/><path d="M176.578 14.464a5.348 5.348 0 001.745-3.399c.048-.827.001-1.658-.142-2.474a4.248 4.248 0 01.201-1.981 1.16 1.16 0 00.072-.18c0-.133 0-.313-.107-.349-.107-.036-.226.144-.285.276-.392.733-.724 1.49-1.092 2.234-.152.333-.371.63-.643.871a2.596 2.596 0 01-.936.534 4.175 4.175 0 00-1.924.925 2.925 2.925 0 00-.846 1.182c-.178.46-.238.958-.175 1.448 0 .288 0 .576.06.865 0 .492-.309.78-.665 1.057a3.534 3.534 0 01-1.983.66 3.978 3.978 0 00-1.187.264l-.214.084c2.194-.11 4.368.46 6.233 1.634.119-.337.226-.685.356-1.021a6.363 6.363 0 011.532-2.63z" fill="#F5F1E8"/><path d="M184.366 61.541a2.288 2.288 0 010-2.774 108.96 108.96 0 017.349-8.287c2.493-2.594 5.153-5.728 8.394-8.598a110.178 110.178 0 019.806-8.13 58.986 58.986 0 0111.065-6.234 26.274 26.274 0 0112.406-1.513c.879.06.606 2.402-.273 2.306-3.668-.264-7.444.96-11.421 2.51-8.975 3.506-16.383 10.808-19.292 13.426-3.206 2.823-16.158 17.042-16.253 17.15-.368.456-1.532.348-1.781.144zM173.135 38.075c-3.823 1.417-8.311-.157-13.226-3.687a1.34 1.34 0 01-.632-.92 1.351 1.351 0 01.276-1.086c.511-.709.926-.96 1.627-.456 4.108 2.942 8.108 3.927 11.029 3.026a8.43 8.43 0 003.059-1.964 8.545 8.545 0 001.963-3.08 7.5 7.5 0 00-.238-6.16 13.861 13.861 0 00-5.746-5.873c-.831-.24-3.312-1.201-3.063-2.078.25-.877 1.045-.937 1.888-.685.285.085 7.23 1.658 10.008 6.99a11.188 11.188 0 01.273 8.887v.096c-.024.216-2.422 5.212-7.218 6.99zm5.651-7.95l.166.395c-.107-.192-.166-.396-.166-.396z" fill="#572D2D"/><path d="M273.431 52.498c0 3.867-2.268 7.83-4.749 10.364-2.481 2.534-6.423 2.906-10.246 2.906a12.633 12.633 0 01-5.125-.833 12.743 12.743 0 01-4.372-2.83c-2.505-2.534-5.189-5.74-5.189-9.607 0-3.867 3.337-6.401 5.853-8.935 2.517-2.534 4.999-5.453 8.833-5.453 3.726.114 7.26 1.701 9.842 4.42 2.505 2.522 5.153 6.1 5.153 9.968z" fill="#F5F1E8"/><path d="M270.902 51.129c0 2.954-1.745 5.392-3.657 7.326a9.733 9.733 0 01-3.267 2.388 9.644 9.644 0 01-7.889 0 9.737 9.737 0 01-3.268-2.389c-1.912-1.921-3.752-4.323-3.752-7.277a10.942 10.942 0 013.562-7.41 10.454 10.454 0 013.335-2.425c1.26-.578 2.62-.896 4.002-.938a10.715 10.715 0 017.586 3.099 11.17 11.17 0 013.348 7.626z" fill="#D25B73"/><path d="M313.95 47.334s3.74.948 3.74 3.062-.7 8.035-1.401 8.275c-.7.24-7.539-.961-7.539-.961s.309-10.592 5.2-10.376z" fill="#FDD26E"/><path d="M324.979 50.312c-.463-10.808-7.467-10.748-7.467-10.748l-15.517 1.417c-3.134-6.497-11.445-2.474-11.445-2.474l-25.917 5.548c-2.374-3.314-5.01.349-5.01.349-2.101 3.074-.356 9.21-.356 9.21.141.496.393.95.738 1.33.344.379.772.672 1.247.854a3.245 3.245 0 002.918-.298l25.905 7.554c4.666 1.417 6.886.48 6.886.48a12.49 12.49 0 005.723-3.902l10.423 2.714c4.191 1.657 4.892.24 4.892.24 7.74-1.537 6.98-12.274 6.98-12.274zm-25.513 6.27c-1.056 2.521-1.959 5.163-3.811 5.163-1.852 0-3.466-2.402-4.511-4.804a16.839 16.839 0 01-1.46-6.4c-.113-2.25.184-4.502.878-6.642 1.057-2.522 3.229-4.563 5.093-4.563 1.864 0 3.277 2.401 4.334 4.887a16.4 16.4 0 011.602 6.317c0 2.354-1.389 4.264-2.125 6.041zm22.854-5.754a14.81 14.81 0 01-.629 5.177c-.819 2.101-2.042 3.686-3.502 3.686-1.461 0-3.158-1.393-3.966-3.494a15.44 15.44 0 01-.819-5.369c.072-1.789.475-3.548 1.187-5.188.82-2.113 2.102-3.146 3.562-3.146.895.01 1.765.295 2.495.819a4.44 4.44 0 011.589 2.111c.594 1.453.083 3.459.083 5.404z" fill="#572D2D"/></svg>