<svg xmlns="http://www.w3.org/2000/svg" viewBox="0 0 635.36 342.86"><defs><style>.cls-3{fill:#fff}.cls-4{fill:#f1ebdf}.cls-5{fill:#89c5ac}.cls-6{fill:#2b3d2d}.cls-8{fill:#f4f0e9}.cls-9{fill:#988fc1}</style></defs><g id="Layer_2" data-name="Layer 2"><g id="Layer_1-2" data-name="Layer 1"><path d="M231.38 321.4H262.51z" fill="#5f4d45"/><path d="M593.13 319.63a207 207 0 01-27.79-19.58c-3.21-2.68-6.25-5.51-9.4-8.26a89.16 89.16 0 01-12-12.74 45 45 0 01-5.22-5.75c-4.61-5.29-8.71-10.9-13.69-16l-3.87-4A19.76 19.76 0 01517 250a74.32 74.32 0 00-22.64-15.32 70.84 70.84 0 00-13.78-4.43c-4.65-1-9.4-1.57-14.1-2.29a84.5 84.5 0 01-9.81-.07l-.43.07a120 120 0 01-31.2-1.5c-56.18-9.94-76.47-57.46-76.47-57.46a68 68 0 01-5.82-9.14c-.55-1.06-1.09-2.12-1.69-3.16-3.44-6.14-6.85-12.33-10.38-18.44-1.57-2.68-3.38-5.27-5.18-7.86-4-5.77-8.08-11.52-13.19-16.67a1.69 1.69 0 01-.11-.34c-2.9-3-5.79-5.87-9-8.58a15.1 15.1 0 01-1.35-1.3c-3.75-4.3-8.74-7.33-14.35-9.65a111.46 111.46 0 00-12.56-4.35 42.25 42.25 0 00-12.89-1.93c-.83 0-1.66-.1-2.47-.12-2.89-.1-5.76-.27-8.65-.24A34.83 34.83 0 00239.67 89c-2.93 1-5.91 1.88-8.89 2.73-8.82 2.46-16.65 6.55-24.3 10.85a25.86 25.86 0 00-2.58 1.74c-3.7 2.78-7.36 5.56-11 8.34a49.25 49.25 0 00-4.56 3.53c-5.33 5.14-10.69 10.27-15.76 15.58-3.56 3.7-6.62 7.69-9.89 11.55l-.08.15c-1.84 3.07-31.53 52.54-57.52 74.5-.17 0-.43-.12-.72-.17-1.8 1.72-3.52 3.56-5.47 5.18a200.14 200.14 0 01-18.14 13.63 46.55 46.55 0 01-8 4.3c-5.3 2.17-10.6 4.37-16 6.47-2.35.92-8.08 4.79-8.08 6 0 9.71-18.22 17.62-28.8 26.54C9.06 289.09 0 308.44 0 321.39l48.92.12c1.52 0 3-.07 4.53-.07h429.47l-.06-.24h.14c.17-.55 60-.31 60.1 0 1.66.05 3.29.15 4.93.17h45.19a3 3 0 001.92-.46c-.69-.46-1.32-.91-2.01-1.28z" fill="#c4d6a4"/><g id="Layer_2-2" data-name="Layer 2"><g id="Layer_1-2-2" data-name="Layer 1-2"><path d="M344 296.72a1.71 1.71 0 01-1.63 1.78h-45.53c-.59 0-.78.24-.59.73a25.87 25.87 0 001.62 5.86q3.79 8.21 15.53 8.21a17.68 17.68 0 0014.8-7.62 1.31 1.31 0 012.34-.29l10.55 10.39a2 2 0 01.74 1.32 3.16 3.16 0 01-.59 1.17 32 32 0 01-12.45 9.3 41.7 41.7 0 01-16.71 3.3q-12.6 0-21.32-5.72a31.79 31.79 0 01-12.53-16q-3.08-7.34-3.08-19.19a42.26 42.26 0 012.2-14.2 32.18 32.18 0 0111.8-16.56 33 33 0 0120-6.16q14.66 0 23.52 8.5t10.77 22.72a63.09 63.09 0 01.56 12.46zm-46.9-17.15a34.4 34.4 0 00-1 4.69.64.64 0 00.54.73h25.54c.59 0 .79-.24.59-.73-.49-2.83-.73-4.2-.73-4.1a12.75 12.75 0 00-4.62-6.82 13.4 13.4 0 00-8.13-2.41q-9.23 0-12.16 8.64z"/><path class="cls-3" d="M339.63 292.34a1.7 1.7 0 01-1.63 1.76 1.22 1.22 0 01-.27 0h-45.28c-.59 0-.79.25-.59.74a26.52 26.52 0 001.61 5.86q3.81 8.21 15.53 8.2a17.66 17.66 0 0014.8-7.62 1.32 1.32 0 012.35-.29l10.55 10.4a2 2 0 01.73 1.32 3.26 3.26 0 01-.58 1.18 32.05 32.05 0 01-12.46 9.3 41.67 41.67 0 01-16.71 3.3q-12.6 0-21.32-5.72a31.79 31.79 0 01-12.53-16q-3.07-7.32-3.07-19.2a41.89 41.89 0 012.2-14.21 32.22 32.22 0 0111.79-16.56 33 33 0 0120-6.15q14.65 0 23.52 8.5T339 279.88a62.54 62.54 0 01.63 12.46zm-46.89-17.15a35.65 35.65 0 00-1 4.69.64.64 0 00.55.73h25.51c.58 0 .78-.24.58-.73-.49-2.84-.73-4.2-.73-4.1A12.66 12.66 0 00313 269a13.46 13.46 0 00-8.13-2.42q-9.19-.04-12.13 8.61z"/><path d="M307.68 327.94c-8.65 0-16.11-2-22.12-5.95a33.33 33.33 0 01-13.1-16.69c-2.09-5-3.17-11.63-3.17-19.71a43.72 43.72 0 012.29-14.7 33.65 33.65 0 0112.31-17.25 34.74 34.74 0 0120.86-6.44c10.11 0 18.37 3 24.53 8.91s9.9 13.81 11.21 23.57a64.37 64.37 0 01.6 12.71v.07a3.13 3.13 0 01-3.17 3.11h-44.45a25.84 25.84 0 001.35 4.55c2.3 4.92 6.94 7.33 14.18 7.33a16.15 16.15 0 0013.62-7 2.74 2.74 0 013.69-1.17 2.68 2.68 0 01.86.71l10.55 10.38a3.4 3.4 0 011.18 2.36 3.76 3.76 0 01-.83 2l-.08.1a33.52 33.52 0 01-13 9.74 43.35 43.35 0 01-17.31 3.37zm-2.93-77.81a31.86 31.86 0 00-19.13 5.87 30.85 30.85 0 00-11.27 15.84 41 41 0 00-2.13 13.76c0 7.68 1 13.93 2.93 18.64a30.5 30.5 0 0012 15.31c5.54 3.66 12.46 5.47 20.51 5.47a40.15 40.15 0 0016.12-3.18 30.59 30.59 0 0011.87-8.84l.22-.35-.22-.24L325.12 302l-.06.1a19.19 19.19 0 01-16 8.24c-8.43 0-14.1-3.05-16.86-9.06v-.07a27.65 27.65 0 01-1.68-6 2 2 0 01.2-1.71 2 2 0 011.79-.85h45.27a.92.92 0 00.37-.05.8.8 0 00.07-.34 60.76 60.76 0 00-.57-12.13c-1.22-9.13-4.69-16.48-10.33-21.92s-13.24-8.08-22.57-8.08zM318 282.07h-25.55a2.1 2.1 0 01-2.2-2 .67.67 0 010-.2v-.22a35.67 35.67 0 011.07-4.9c2.2-6.4 6.73-9.64 13.55-9.64a14.85 14.85 0 019 2.7 14.23 14.23 0 015.13 7.58 9 9 0 01.26 1.17c.13.67.29 1.66.52 3a1.93 1.93 0 01-.2 1.73 1.76 1.76 0 01-.49.49zm-24.69-2.93h23.44c-.29-1.69-.47-2.67-.52-2.93a11.17 11.17 0 00-4.08-6 12 12 0 00-7.25-2.21c-5.49 0-9 2.5-10.77 7.63a30.72 30.72 0 00-.81 3.51z"/></g></g><g id="Layer_2-3" data-name="Layer 2"><g id="Layer_1-2-3" data-name="Layer 1-2"><path d="M499.42 295.72a1.71 1.71 0 01-1.63 1.78h-45.56c-.58 0-.78.24-.58.73a26.37 26.37 0 001.61 5.86q3.81 8.21 15.53 8.21a17.66 17.66 0 0014.8-7.62 1.32 1.32 0 011.68-.81 1.34 1.34 0 01.67.52l10.55 10.39a2 2 0 01.73 1.32 3.29 3.29 0 01-.58 1.17 32.05 32.05 0 01-12.46 9.3 41.67 41.67 0 01-16.71 3.3q-12.6 0-21.32-5.72a31.79 31.79 0 01-12.53-16q-3.08-7.34-3.07-19.19a42 42 0 012.2-14.2 32.22 32.22 0 0111.79-16.56 33 33 0 0120-6.16q14.65 0 23.52 8.5t10.77 22.72a62.34 62.34 0 01.59 12.46zm-46.89-17.15a34.44 34.44 0 00-1 4.69.64.64 0 00.54.73h25.55c.58 0 .78-.24.58-.73-.49-2.83-.73-4.2-.73-4.1a12.7 12.7 0 00-4.62-6.82 13.38 13.38 0 00-8.13-2.41q-9.25 0-12.19 8.64z"/><path class="cls-3" d="M495 291.34a1.69 1.69 0 01-1.64 1.76 1.13 1.13 0 01-.26 0h-45.26c-.59 0-.79.25-.59.74a26.52 26.52 0 001.61 5.86q3.81 8.21 15.54 8.2a17.68 17.68 0 0014.8-7.62 1.32 1.32 0 011.68-.81 1.36 1.36 0 01.66.52l10.55 10.4a2.06 2.06 0 01.74 1.32 3.12 3.12 0 01-.59 1.18 31.91 31.91 0 01-12.46 9.3 41.66 41.66 0 01-16.7 3.3q-12.6 0-21.32-5.72a31.79 31.79 0 01-12.53-16q-3.08-7.32-3.08-19.2a42.39 42.39 0 012.2-14.21 32.18 32.18 0 0111.8-16.56 33 33 0 0120-6.15q14.66 0 23.52 8.5t10.77 22.71a63.29 63.29 0 01.56 12.48zm-46.89-17.15a34.08 34.08 0 00-1 4.69.64.64 0 00.54.73h25.54c.59 0 .78-.24.59-.73-.5-2.84-.74-4.2-.74-4.1a12.65 12.65 0 00-4.61-6.82 13.49 13.49 0 00-8.14-2.42q-9.23 0-12.16 8.65z"/><path d="M463.08 326.94c-8.65 0-16.12-2-22.13-5.95a33.31 33.31 0 01-13.09-16.69c-2.1-5-3.17-11.63-3.17-19.71a43.71 43.71 0 012.28-14.7 33.65 33.65 0 0112.31-17.25 34.79 34.79 0 0120.87-6.44c10.11 0 18.37 3 24.53 8.91s9.9 13.81 11.21 23.57a65.14 65.14 0 01.6 12.71v.07a3.14 3.14 0 01-3.18 3.11h-44.45a25.84 25.84 0 001.35 4.55c2.3 4.92 6.94 7.33 14.19 7.33a16.15 16.15 0 0013.61-7 2.74 2.74 0 014.56-.46l10.55 10.38a3.39 3.39 0 011.17 2.36 3.68 3.68 0 01-.83 2l-.08.1a33.45 33.45 0 01-13 9.74 43.3 43.3 0 01-17.3 3.37zm-2.93-77.81A31.87 31.87 0 00441 255a30.91 30.91 0 00-11.27 15.84 41 41 0 00-2.12 13.76c0 7.68 1 13.93 2.93 18.64a30.43 30.43 0 0012 15.31C448.1 322.2 455 324 463.08 324a40.22 40.22 0 0016.12-3.18A30.63 30.63 0 00491 312l.22-.35a2 2 0 00-.22-.24L480.52 301l-.06.1a19.21 19.21 0 01-16 8.24c-8.43 0-14.1-3.05-16.85-9.06v-.07a28.22 28.22 0 01-1.68-6 2 2 0 01.2-1.71 2 2 0 011.79-.85h45.28a.87.87 0 00.36-.05 1 1 0 00.08-.34 61.52 61.52 0 00-.57-12.13c-1.23-9.13-4.7-16.48-10.33-21.92s-13.27-8.08-22.59-8.08zm13.25 31.94h-25.56a2.1 2.1 0 01-2.2-2v-.42a37.24 37.24 0 011.08-4.9c2.2-6.4 6.72-9.64 13.54-9.64a14.83 14.83 0 019 2.7 14.17 14.17 0 015.13 7.58 7.62 7.62 0 01.26 1.17c.13.67.3 1.66.52 3a1.93 1.93 0 01-.19 1.73 1.9 1.9 0 01-.49.49zm-24.69-2.93h23.45c-.3-1.69-.47-2.67-.53-2.93a11.15 11.15 0 00-4.07-6 12.08 12.08 0 00-7.27-2.15c-5.49 0-9 2.5-10.77 7.63a35.64 35.64 0 00-.81 3.51z"/></g></g><g id="Layer_2-4" data-name="Layer 2"><g id="Layer_1-2-4" data-name="Layer 1-2"><path d="M212.38 340.08a26.25 26.25 0 01-11.38-7.77 17.46 17.46 0 01-4-11.31v-1.47a1.77 1.77 0 011.75-1.76H215a1.76 1.76 0 011.76 1.75v.16c0 2.15 1.19 4 3.59 5.5a16.51 16.51 0 009 2.27 14.71 14.71 0 008.06-2c2.06-1.32 3.08-2.95 3.08-4.91a4.23 4.23 0 00-2.64-4 44.54 44.54 0 00-8.65-2.79 86 86 0 01-10.84-3.37q-9.39-3.23-14.95-7.93t-5.57-13.48a20.45 20.45 0 018.43-17.21q8.43-6.37 22.35-6.36a41.55 41.55 0 0116.41 3 25.26 25.26 0 0110.97 8.54 20.69 20.69 0 013.88 12.3 1.75 1.75 0 01-1.74 1.76h-15.7a1.75 1.75 0 01-1.76-1.74q0-3.21-3.29-5.42a15.54 15.54 0 00-8.72-2.2 15.88 15.88 0 00-7.92 1.76 5.39 5.39 0 00-3.07 4.84 4.68 4.68 0 003 4.39 50.78 50.78 0 0010 3.07c1.08.29 2.29.61 3.66.95s2.83.73 4.4 1.25q10.4 3.08 16.41 7.91t6 14.07q0 10.84-8.57 16.92t-23.08 6.08a48.33 48.33 0 01-17.12-2.8z"/><path class="cls-3" d="M208 334.23a26.1 26.1 0 01-11.36-7.77 17.44 17.44 0 01-4-11.28v-1.46a1.72 1.72 0 01.51-1.25 1.68 1.68 0 011.25-.51h16.26a1.74 1.74 0 011.76 1.74v.16q0 3.22 3.59 5.5a16.59 16.59 0 009 2.27 14.69 14.69 0 008.06-2c2.06-1.32 3.08-2.95 3.08-4.91a4.21 4.21 0 00-2.64-3.95 44.45 44.45 0 00-8.64-2.79 85.65 85.65 0 01-10.87-3.35 46.77 46.77 0 01-14.94-7.91q-5.58-4.7-5.57-13.48A20.46 20.46 0 01201.9 266q8.43-6.37 22.35-6.38a41.7 41.7 0 0116.41 3 25.31 25.31 0 0110.92 8.42 20.61 20.61 0 013.88 12.31 1.74 1.74 0 01-1.74 1.76H238a1.74 1.74 0 01-1.75-1.74q0-3.21-3.3-5.42a15.44 15.44 0 00-8.72-2.2 15.87 15.87 0 00-7.91 1.76 5.39 5.39 0 00-3.08 4.84 4.68 4.68 0 003 4.39 50.87 50.87 0 0010 3.08c1.08.29 2.3.61 3.67.95s2.83.74 4.39 1.25q10.41 3.08 16.41 7.91t6 14.07q0 10.85-8.57 16.92T225.13 337a48.28 48.28 0 01-17.13-2.77z"/><path d="M224.13 338.49a49.54 49.54 0 01-16.64-2.88 27.71 27.71 0 01-12-8.21 19 19 0 01-4.36-12.22v-1.45a3.2 3.2 0 011-2.3 3.12 3.12 0 012.3-.93h16.25a3.18 3.18 0 012.25.93 3.22 3.22 0 011 2.28v.16c0 1.63 1 3 2.9 4.26a15.21 15.21 0 008.23 2 13.35 13.35 0 007.27-1.74c1.62-1 2.41-2.24 2.4-3.68a2.74 2.74 0 00-1.72-2.6 43.53 43.53 0 00-8.4-2.71 86.93 86.93 0 01-11.14-3.4 48.21 48.21 0 01-15.37-8.16c-4-3.4-6.09-8.32-6.09-14.6a21.93 21.93 0 019-18.39c5.85-4.42 13.67-6.67 23.23-6.67a42.71 42.71 0 0117 3.11 26.68 26.68 0 0111.55 8.91 22.29 22.29 0 014.17 13.2 3.21 3.21 0 01-3.21 3.21H238a3.23 3.23 0 01-3.21-3.21c0-1.65-.86-3-2.65-4.22a14 14 0 00-7.86-1.95 14.5 14.5 0 00-7.24 1.59 3.91 3.91 0 00-2.28 3.54 3.24 3.24 0 002.18 3.08 50.14 50.14 0 009.72 3c1.13.31 2.33.62 3.69 1s2.86.74 4.5 1.28c7.05 2.08 12.74 4.83 16.87 8.16 4.35 3.5 6.55 8.62 6.56 15.21 0 7.7-3.1 13.79-9.19 18.12-5.94 4.21-14 6.35-23.93 6.35zm-15.64-5.63a46.49 46.49 0 0016.61 2.69c9.35 0 16.83-2 22.26-5.81s8-8.94 8-15.73c0-5.74-1.79-10-5.47-12.93s-9.18-5.66-15.9-7.65c-1.6-.52-3.09-.91-4.34-1.23s-2.61-.66-3.69-1a51 51 0 01-10.3-3.17 6.11 6.11 0 01-3.82-5.71 6.81 6.81 0 013.81-6.11 17.34 17.34 0 018.7-1.95h.05a16.74 16.74 0 019.42 2.44c2.62 1.76 3.95 4 3.95 6.64a.31.31 0 00.29.3h15.64a.26.26 0 00.21-.09.27.27 0 00.09-.2 19.29 19.29 0 00-3.61-11.46 23.67 23.67 0 00-10.27-7.89 39.94 39.94 0 00-15.84-2.9c-8.94 0-16.16 2.05-21.49 6.08a18.91 18.91 0 00-7.85 16.05c0 5.45 1.65 9.5 5.05 12.36a45.5 45.5 0 0014.48 7.65 86.53 86.53 0 0010.71 3.33 46.51 46.51 0 018.89 2.86 5.66 5.66 0 013.52 5.32c0 2.46-1.26 4.52-3.76 6.12a16.15 16.15 0 01-8.85 2.21 18.11 18.11 0 01-9.79-2.49c-2.84-1.8-4.27-4.06-4.27-6.74v-.14a.26.26 0 00-.09-.21.27.27 0 00-.2-.09h-16.27a.36.36 0 00-.2.07.31.31 0 00-.1.2v1.49a16.07 16.07 0 003.7 10.35 24.84 24.84 0 0010.73 7.34z"/></g></g><g id="Layer_2-5" data-name="Layer 2"><g id="Layer_1-2-5" data-name="Layer 1-2"><path d="M358.74 331.33a1.65 1.65 0 01-.51-1.24V231a1.74 1.74 0 011.76-1.74h17.14a1.75 1.75 0 011.76 1.74v99.1a1.75 1.75 0 01-1.74 1.76H360a1.65 1.65 0 01-1.26-.53z"/><path class="cls-3" d="M354.34 326.22a1.72 1.72 0 01-.51-1.25v-99.05a1.72 1.72 0 01.51-1.25 1.68 1.68 0 011.25-.51h17.14a1.74 1.74 0 011.76 1.76V325a1.74 1.74 0 01-1.74 1.76h-17.16a1.68 1.68 0 01-1.25-.54z"/><path d="M355.53 328.2a3.21 3.21 0 01-3.16-3.26v-99a3.23 3.23 0 013.25-3.23h17.11a3.23 3.23 0 013.23 3.24v99a3.23 3.23 0 01-3.2 3.23h-17.23zm.05-102.58a.25.25 0 00-.18.07.27.27 0 00-.1.2V325a.28.28 0 00.06.2.17.17 0 00.16.07h17.17a.29.29 0 00.3-.29v-99.06a.25.25 0 00-.08-.2.3.3 0 00-.19-.1h-17.14z"/></g></g><g id="Layer_2-6" data-name="Layer 2"><g id="Layer_1-2-6" data-name="Layer 1-2"><path d="M396.69 325.33a1.68 1.68 0 01-.51-1.24V225a1.74 1.74 0 011.76-1.74h17.14a1.74 1.74 0 011.76 1.74v99.1a1.74 1.74 0 01-1.74 1.76h-17.16a1.66 1.66 0 01-1.25-.53z"/><path class="cls-3" d="M392.3 320.22a1.73 1.73 0 01-.52-1.25v-99.05a1.73 1.73 0 01.52-1.25 1.65 1.65 0 011.24-.51h17.15a1.68 1.68 0 011.24.51 1.73 1.73 0 01.52 1.25V319a1.75 1.75 0 01-1.75 1.76h-17.16a1.65 1.65 0 01-1.24-.54z"/><path d="M393.48 322.2a3.21 3.21 0 01-3.16-3.26v-99a3.23 3.23 0 013.25-3.23h17.12a3.23 3.23 0 013.22 3.24v99a3.22 3.22 0 01-3.2 3.23h-17.23zm0-102.58a.25.25 0 00-.18.07.27.27 0 00-.1.2V319a.24.24 0 00.07.2.17.17 0 00.16.07h17.18a.29.29 0 00.39-.27v-99.08a.28.28 0 00-.07-.2.32.32 0 00-.2-.1h-17.2z"/></g></g><g id="Layer_2-7" data-name="Layer 2"><g id="Layer_1-2-7" data-name="Layer 1-2"><path d="M563 249.55a1.81 1.81 0 01.88 2.2l-3.08 16.71c-.1 1.18-.79 1.53-2 1a16.22 16.22 0 00-5.13-.74 24.71 24.71 0 00-3.22.3 14.39 14.39 0 00-8.94 3.88 12 12 0 00-3.66 9.16v40a1.75 1.75 0 01-1.75 1.76h-17.22a1.75 1.75 0 01-1.76-1.74V250.3a1.76 1.76 0 011.75-1.76H536a1.77 1.77 0 011.76 1.75v5.57a.57.57 0 00.29.59.29.29 0 00.4-.08v-.07q6-8.79 16.12-8.79a15 15 0 018.43 2.04z"/><path class="cls-3" d="M558.59 244.44a1.8 1.8 0 01.88 2.2l-3.07 16.7c-.11 1.18-.79 1.52-2.06 1a15.93 15.93 0 00-5.13-.73 23.21 23.21 0 00-3.22.29 14.45 14.45 0 00-8.94 3.88 12 12 0 00-3.66 9.16v40a1.75 1.75 0 01-1.74 1.76h-17.16a1.74 1.74 0 01-1.76-1.76v-71.8a1.65 1.65 0 01.51-1.24 1.69 1.69 0 011.25-.52h17.14a1.75 1.75 0 011.76 1.75v5.57a.59.59 0 00.29.59.29.29 0 00.4-.07.2.2 0 000-.08q6-8.79 16.12-8.79 5.32.04 8.39 2.09z"/><path d="M514.43 320.2a3.14 3.14 0 01-2.24-1 3.1 3.1 0 01-.93-2.3v-71.73a3.21 3.21 0 013.26-3.22h17.12a3.21 3.21 0 013.21 3.2v2.7a19.68 19.68 0 0115.39-6.93 16.48 16.48 0 019.1 2.25 3.26 3.26 0 011.57 3.74l-3.06 16.64a2.69 2.69 0 01-1.2 2.13 3 3 0 01-2.79.07 14.71 14.71 0 00-4.62-.65 22 22 0 00-3 .28h-.13a13 13 0 00-8 3.49 10.46 10.46 0 00-3.21 8.09v40a3.22 3.22 0 01-3.2 3.23h-17.27zm.05-75.32a.22.22 0 00-.19.07.27.27 0 00-.1.19V317a.28.28 0 00.07.2.27.27 0 00.2.1h17.17a.28.28 0 00.29-.29V277a13.42 13.42 0 014.13-10.23 15.9 15.9 0 019.78-4.27 26.73 26.73 0 013.35-.3 17.41 17.41 0 015.6.8h.18l3.04-16.63c.1-.52 0-.58-.09-.62l-.16-.09a13.54 13.54 0 00-7.54-1.81c-6.24 0-11.09 2.64-14.84 8.06a2.39 2.39 0 01-.13.21 1.75 1.75 0 01-2.37.45 2.05 2.05 0 01-1-1.9v-5.5a.29.29 0 00-.28-.29h-17.11z"/></g></g><path class="cls-4" d="M216.18 49.29s2-1.75 9.74-3.79a14.23 14.23 0 002.37-7.5l4.56 1.31 2.08 3.2 21.23 1.9-.24 7.27s2.23 2.13 3.91 4 14.3 31.52 14.3 31.52L268 111.29l-12.11-4-32.55-18.41L204.33 78l5.21-16.84zM330 134.25l-16.32 2.24-4.48-12.4-5-47.88s8.79 2.51 13.43 9.69 5.23 18.52 5.23 18.52z"/><path class="cls-5" d="M187.14 101l-2.91 25.29s37.15 6 52.31 3.31-13.66-29.73-13.66-29.73l-23.69-6.8z"/><path class="cls-5" d="M230.23 106.43c.14-4.55-.44-9.08-.43-13.62 0-2.86-.2-5.71-.37-8.56-.22-3.88-.13-7.77-.16-11.65v-3.3c-.44-3.72-.36-7.46-.54-11.19-.1-2-.24-4.1-.45-6.13a19.41 19.41 0 00-.64-2.79 3.83 3.83 0 00-.42-.74.87.87 0 00-.88.67c-.84 2.14-1.81 4.24-2.45 6.43-.92 3.18-1.59 6.42-2.38 9.64-.13.49-2.35 13.27-2.45 13.86-.21 1.38-.46 2.76-.69 4.13-.08.51-.2 1-.24 1.52-.19 2.56-.33 5.13-.55 7.68a30.92 30.92 0 01-.51 3.71 55.14 55.14 0 00-.46 6.14c-.44 5.2-.43 10.4-.54 15.61a18.78 18.78 0 01-.59 3.69c-.2.88-.59 1-1.9 1a4.94 4.94 0 01-.67-1.29 23.87 23.87 0 01-.5-3.93c0-10.64-.07-21.28 0-31.91a63.4 63.4 0 011-7.86c0-.26.3-.5.46-.75a4 4 0 01-1.48-4 9.91 9.91 0 011.67-4.55 44 44 0 001.79-5.53c1.17-5 2.28-10.06 4.5-14.82a.54.54 0 000-.22c-.22-.32-.52-.26-.83-.15l-2 .73-1.38 1a1.68 1.68 0 01-.64 1.37 22.32 22.32 0 00-4.22 5.87c-2 3.76-4.13 7.48-5.87 11.34a76.12 76.12 0 00-5 13.77c-.5 2.07-.76 4.19-1.22 6.27a22.44 22.44 0 01-1.09 3.37c-.15.36-.61.61-1 1a3.18 3.18 0 01-1.68-3.24c.1-1.75.21-3.51.33-5.26.3-4.67 2-9 3.49-13.45.3-.89.87-1.76.52-2.76a3.26 3.26 0 01-.74-2.27c-.23-1.9-.37-3.8-.55-5.76a35.79 35.79 0 003.92-6.77c.57-1.37 1.08-2.77 1.54-4.17.27-.83 0-1.14-1.09-1.58-.65.19-.73.73-.89 1.21a30.67 30.67 0 01-2.66 5.43 1.31 1.31 0 01-.93.79 49.56 49.56 0 01-.33-5.68 35.17 35.17 0 00-.33-5.64c-.23-.09-.44-.22-.52-.18-.24.16-.57.35-.63.58a6 6 0 00-.15 1.51v15.21c0 1.1.18 2.19.27 3.29.06.81.11 1.61.16 2.41-.59.22-.74-.2-.92-.46a87 87 0 01-6.28-10.17c-.3-.58-.43-1.29-1.29-1.45a.84.84 0 00-.63 1.07 15.83 15.83 0 00.8 2.53 52.84 52.84 0 005.9 10.34c.85 1.15 1.91 2.17 3 3.37a24.73 24.73 0 01-2.8 5.21 5.92 5.92 0 01-2.18-1.48 49.84 49.84 0 01-7.55-8.58 12.85 12.85 0 00-2.61-3.15c-.29-.22-.61-.5-1.05-.23.09 1.25.9 3 2.78 6a34.63 34.63 0 004.16 5.41 30.61 30.61 0 005.12 4.54c.07.22.19.39.15.5-1.06 2.77-2.13 5.53-3.2 8.32l-1.18.25 1 .7c-1 4.17-1.91 8.31-2.87 12.45l5.68-.61c.55-.06 1.1-.16 1.65-.24a41.81 41.81 0 016.94-2.48 2 2 0 012.69 1.75 6.41 6.41 0 01-.08 1.75c-.32 1.74-.63 3.48-1.06 5.19a52.33 52.33 0 01-1.71 5.73c-.84 2.2-1.66 4.41-2.52 6.6a13.32 13.32 0 013.81 1.36l.2-.38a8.1 8.1 0 011.67-1.85 1.48 1.48 0 011.79-.23 1.62 1.62 0 01.17 1.86c-.33.91-.7 1.81-1.07 2.71a12.2 12.2 0 013.32 7.32 29.14 29.14 0 003.51.23 16.14 16.14 0 012.41.1c3.37.46 6.77.24 10.15.44a9.18 9.18 0 001.48-.14c.71-5.32 1.4-10.57 4.09-15.36-.06-2.83-.15-5.62-.07-8.4z"/><path class="cls-6" d="M218.48 77.54a6.48 6.48 0 01-4.57-.78 4 4 0 01-1.48-4 9.91 9.91 0 011.67-4.55 50.52 50.52 0 013.61-4.35s1.84-.7 2.4 2.32c.34 1.3.95 3.91 1.08 4.55a11.71 11.71 0 01.26 1.95 4.69 4.69 0 01-2.97 4.86zM189 87.89c-1.76-.18-3.53-.33-5.29-.54a18.63 18.63 0 01-5.92-1.83 3.77 3.77 0 01-1.95-1.88 2.27 2.27 0 012.06-3.25 8.21 8.21 0 011.9.18c.46.07.91.21 1.35.31.3-.7-.31-.87-.6-1.12a39.1 39.1 0 01-6-6.57 7.53 7.53 0 01-.87-1.32 2.18 2.18 0 011.58-3.15 9.75 9.75 0 011.15-.23c.33-.38.08-.71 0-1-.57-1.75-1.16-3.5-1.7-5.27a3.39 3.39 0 01-.08-1.31 2.09 2.09 0 011.89-1.74 19.72 19.72 0 012.06 0c-.24-.64-.45-1.17-.63-1.72-.41-1.26-.85-2.52-1.19-3.8a6 6 0 01-.15-1.75 2.87 2.87 0 012.2-2.63 3.12 3.12 0 013.25.95 14.47 14.47 0 01.95 1.27c.18.21.22.57.67.56.43-.34.18-.78.18-1.17 0-1.54-.1-3.08-.13-4.62a4.9 4.9 0 01.14-1.32 2.63 2.63 0 014.13-1.23 13.18 13.18 0 011.32 1.48c.51 0 .42-.42.44-.66.11-1.39.21-2.78.27-4.18a12 12 0 01.88-3.86 4.26 4.26 0 01.52-1 2.4 2.4 0 013.72-.14 5.43 5.43 0 01.5.75c.15.23.16.59.62.59.32-1.65.68-3.3 1-5a8.42 8.42 0 011.83-3.56 1.81 1.81 0 013 .1 10.68 10.68 0 011.59 3.44 24.36 24.36 0 01.54 4.81c0 .42-.11.89.43 1.25a12 12 0 011-.94 2.41 2.41 0 013.57.28 6.87 6.87 0 011.73 3.59c.11.87.22 1.75.35 2.62a3.17 3.17 0 00.27.66c.45-.3.81-.57 1.21-.8a2.59 2.59 0 013.71.84 6.77 6.77 0 011.1 4.22l-1.38 1-4.65 3-1.42-1c-.38.3-.89.51-1 .84a20.58 20.58 0 00-.76 2.54 9.51 9.51 0 01-1.51 2.19 43.57 43.57 0 00-6.53 9.68.77.77 0 00-.52 1 3.26 3.26 0 01-.74-2.27c-.23-1.9-.37-3.8-.55-5.76a35.79 35.79 0 003.92-6.77c.57-1.37 1.08-2.77 1.54-4.17.27-.83 0-1.14-1.09-1.58-.65.19-.73.73-.89 1.21a30.67 30.67 0 01-2.66 5.43 1.31 1.31 0 01-.93.79 49.56 49.56 0 01-.33-5.68 35.17 35.17 0 00-.33-5.64c-.24-.09-.44-.22-.52-.18-.24.16-.57.35-.63.58a6 6 0 00-.22 1.59v15.21c0 1.1.18 2.19.27 3.29.06.81.11 1.61.16 2.41-.59.22-.74-.2-.92-.46a87 87 0 01-6.28-10.17c-.3-.58-.43-1.29-1.29-1.45a.84.84 0 00-.63 1.07 15.83 15.83 0 00.8 2.53 52.84 52.84 0 005.9 10.34c.85 1.15 1.91 2.17 3 3.37a24.73 24.73 0 01-2.8 5.21 5.92 5.92 0 01-2.18-1.48 49.84 49.84 0 01-7.55-8.58 12.85 12.85 0 00-2.61-3.15c-.29-.22-.61-.5-1.05-.23.09 1.25.9 3 2.78 6a34.63 34.63 0 004.16 5.41 30.22 30.22 0 005.12 4.54c.07.22.19.39.15.5-1.06 2.77-2.13 5.53-3.2 8.32zM200.6 132.74c1.2.09 2.39.15 3.56.28 1.76.2 3.5.54 5.26.64 4 .24 8 .37 12.06.55.64 0 1.28.11 1.92.14a70.71 70.71 0 0011.82-.17c1.75-.21 3.52-.34 5.28-.48 2.41-.2 4.82-.32 7.22-.55a73.19 73.19 0 009-1.66 5.51 5.51 0 003.21-1.76l-1.66-.55a34.87 34.87 0 01-6.13.06 20.65 20.65 0 01-6.07.56 6.51 6.51 0 01-.31-1.27 83.07 83.07 0 01-.06-4.18 26.22 26.22 0 00-1.81-9.27c-.08-.21-.17-.41-.26-.61a5.53 5.53 0 00-6-3.57 7.71 7.71 0 01-1 0c-.29.12-.56.28-.85.37a11.21 11.21 0 00-4.73 2.82c-.27.26-.57.49-.85.74-2.69 4.79-3.38 10-4.09 15.36a9.18 9.18 0 01-1.48.14c-3.38-.2-6.78 0-10.15-.44a16.14 16.14 0 00-2.41-.1c-3 0-26.34-3.06-29.26-3.61 0 0-3.11.45 1.12 2.6s13.67 3.43 16.67 3.96z"/><path class="cls-4" d="M236.69 110.86c-.29.12-.56.28-.85.37a11.21 11.21 0 00-4.73 2.82c-.27.26-.57.49-.85.74 0-2.79-.11-5.58 0-8.36.14-4.55-.44-9.08-.43-13.62 0-2.86-.2-5.71-.37-8.56-.22-3.88-.13-7.77-.16-11.65v-3.3l1.21.08c-.27 2.09-.71 4.17-.18 6.23a7 7 0 003.24 2.59l2 .74c0 .87 0 1.68.06 2.48 0 1.1.05 2.2.12 3.3.08 1.38.24 2.77.28 4.16.08 2.57-.06 5.15.2 7.7.29 2.79.26 5.57.29 8.35v4c.03.62.11 1.27.17 1.93zM218.48 77.54c.72.33.72.92.62 1.51-.21 1.38-.46 2.76-.69 4.13-.08.51-.2 1-.24 1.52-.19 2.56-.33 5.13-.55 7.68a30.92 30.92 0 01-.51 3.71 55.14 55.14 0 00-.46 6.14c-.44 5.2-.43 10.4-.54 15.61a18.78 18.78 0 01-.59 3.69c-.2.88-.59 1-1.9 1a4.94 4.94 0 01-.67-1.29 23.87 23.87 0 01-.5-3.93c0-10.64-.07-21.28 0-31.91a63.4 63.4 0 011-7.86c0-.26.3-.5.46-.75a6.48 6.48 0 004.57.75zM211.53 52.32l4.65-3a1.67 1.67 0 01-.64 1.37 22.32 22.32 0 00-4.22 5.87c-2 3.76-4.13 7.48-5.87 11.34a76.12 76.12 0 00-5 13.77c-.5 2.07-.76 4.19-1.22 6.27a22.44 22.44 0 01-1.09 3.37c-.15.36-.61.61-1 1a3.18 3.18 0 01-1.72-3.31c.1-1.75.21-3.51.33-5.26.3-4.67 2-9 3.49-13.45.3-.89.87-1.76.52-2.76.55-.15.61-.53.52-1a43.57 43.57 0 016.53-9.68 9.51 9.51 0 001.51-2.19 12.47 12.47 0 003.21-2.34zM216.32 64.93c-.06.26-.14.5-.52.45l-.16-.48z"/><path class="cls-6" d="M255.93 9.48c.64-1.16.82-2.54 2-3.6l1.53-.1.83.9a18.23 18.23 0 01-1.37 6.22 5.39 5.39 0 00-1 3 8.58 8.58 0 001.9-2.86 2.16 2.16 0 011.93-1.27l.84.45c.57 1.26-.27 2.24-.45 3.29s-.45 2-.7 3.09c1 .49 2.24.73 2.12 2.09-.08 1.93-1.28 3.55-2 5.29a.59.59 0 00.87.07 1.92 1.92 0 012.23-.19 1.83 1.83 0 01.66 2.19 10 10 0 01-1 2.23c-.81 1.35-1.73 2.64-2.6 4 .47.48 1.26.71 1.35 1.77-.58 2.26-2.15 4.39-3.57 6.7a4.42 4.42 0 00.63.58 1.53 1.53 0 01.64 2.13 17.17 17.17 0 01-4.86 6.29l-2.18-1.78-2.17-1.73c.46-.68 1-1.35 1.37-2.06a.66.66 0 00-.32-1 6.69 6.69 0 00-2.61 2.04l-5.4-2.5c1.42-1.5 2.78-3 4.26-4.5a25.9 25.9 0 004.1-5.17 8.15 8.15 0 001.38-2.61l-.83-.56c-.46.51-.88.94-1.26 1.4-1.07 1.29-2 2.66-3.21 3.86-1.82 1.86-3.77 3.62-5.69 5.4a5.51 5.51 0 01-1 .55 37 37 0 011.14-6.64 13 13 0 001.45-.91 27.16 27.16 0 006.9-8.68 26.93 26.93 0 001.52-3.94 4.75 4.75 0 000-1.55l-1.06-.08c-.61 1.43-1.1 2.84-1.8 4.14a39.17 39.17 0 01-2.58 4 7.64 7.64 0 01-3.38 3.12 18.06 18.06 0 01.5-2.21c1-3 2.12-6 3.17-9 .44-1.26.86-2.52 1.22-3.8a6.09 6.09 0 000-1.48h-.9c-.18.34-.36.66-.52 1-.8 1.6-1.59 3.21-2.41 4.8 0 .09-.25.12-.45.2L244 20.78l-.78.11c-.34 1-.34 1 .74 4.64-.74 3.13-1.2 4.42-2 5.52-1.71-1.86-2.4-4.29-4.16-6.08a.81.81 0 00-.59 1 11.56 11.56 0 00.58 1.9 41.54 41.54 0 003.5 6.88c-.39 2-.75 3.87-1.12 5.75a5.17 5.17 0 01-.21.63.42.42 0 01-.14.18 1.45 1.45 0 01-.38.06c-.43-.39-1-.83-1.41-1.32a33.83 33.83 0 01-4.64-6.44 15.21 15.21 0 00-1.08-1.7.89.89 0 00-1.07-.34c-.52.66-.06 1.27.22 1.84a40.13 40.13 0 006.16 9.69 9.57 9.57 0 01.79 1.1c-1 0-2.07.13-3.1.11a7.48 7.48 0 01-3.19-.22c-.49-.79-1-1.68-1.58-2.55a3.55 3.55 0 00-.65-.55 2.19 2.19 0 00.28 1.79c.24.6.75 1.14.57 1.85h-.05a5.08 5.08 0 00-2.44.41h-.23l-.21.1a2.08 2.08 0 00-1.61.35h-.18l-.14.1-1.43-.06c-.75-2.24-1.53-4.48-2.24-6.73a5 5 0 01-.16-2.8c.47-.94 1.3-1 2.24-.89l.48.22v-.56c-.3-2.25-.59-4.5-.87-6.6 1.13-1.44 1.13-1.44 3.65-1.18a30.12 30.12 0 00.34-3.69 23.15 23.15 0 01.24-2.63c.32-1.61 1.64-2.13 3.23-1.32a8.54 8.54 0 01.88.61 11.28 11.28 0 00.53-1l1.7-4.35c.13-.35.28-.69.42-1a2 2 0 011.66-1.43 1.91 1.91 0 011.87 1c0 .25.1.61.15 1s0 .49.1 1c1.43-2.21 1.47-4.86 4.09-6.21a4.32 4.32 0 011.09.83 10.7 10.7 0 01.7 1.77c.28-.41.56-.75.76-1.12.78-1.44 1.54-2.9 2.32-4.35.42-.76.43-.76 1.88-1.33l1.67.68c.12-.07.29-.12.34-.23.51-1.07 1-2.16 1.5-3.24.25-.53.54-1 .73-1.42a1.74 1.74 0 012-.16 1.53 1.53 0 01.69 1.34A17.12 17.12 0 01255.8 7c-.21.78-.47 1.55-.71 2.33a2.46 2.46 0 00-.39 2.26 3.82 3.82 0 001.23-2.11z"/><path class="cls-5" d="M238.45 44.16a9.57 9.57 0 00-.79-1.1 40.13 40.13 0 01-6.16-9.69c-.28-.57-.74-1.18-.22-1.84a.89.89 0 011.07.34 15.21 15.21 0 011.08 1.7 33.83 33.83 0 004.64 6.43c.45.49 1 .93 1.41 1.32a1.45 1.45 0 00.38-.06.42.42 0 00.14-.18 5.17 5.17 0 00.21-.63c.37-1.88.73-3.75 1.12-5.75a41.54 41.54 0 01-3.5-6.88 11.56 11.56 0 01-.58-1.9.81.81 0 01.59-1c1.76 1.79 2.45 4.22 4.16 6.08.79-1.1 1.25-2.39 2-5.52-1.08-3.65-1.08-3.65-.74-4.64l.78-.11 1.2 1.23c.2-.08.41-.11.45-.2.82-1.59 1.61-3.2 2.41-4.8.16-.33.34-.65.52-1h.9a6.09 6.09 0 010 1.48c-.36 1.28-.78 2.54-1.22 3.8-1.05 3-2.14 6-3.17 9a18.06 18.06 0 00-.5 2.21 7.64 7.64 0 003.37-3.04 39.17 39.17 0 002.58-4c.7-1.3 1.19-2.71 1.8-4.14a1.19 1.19 0 011.38-.77 11.15 11.15 0 01-.31 2.4 26.93 26.93 0 01-1.52 3.94 27.16 27.16 0 01-6.9 8.68 13 13 0 01-1.45.91 37 37 0 00-1.14 6.64 5.51 5.51 0 001-.55c1.92-1.78 3.87-3.54 5.69-5.4 1.18-1.2 2.14-2.57 3.21-3.86.38-.46.8-.89 1.26-1.4l.83.56a8.15 8.15 0 01-1.43 2.63 25.9 25.9 0 01-4.1 5.17c-1.48 1.45-2.84 3-4.26 4.5l-2.14-.15-.52-.19-2.57-.07z"/><path class="cls-6" d="M266.57 63.81l3.24-.72v-3.48a11.47 11.47 0 01.06-1.76 3.31 3.31 0 013.27-2.74 3.44 3.44 0 013.65 2.33 19.57 19.57 0 01.46 2.15c.06.29.13.57.19.83.49.12.61-.15.63-.43.2-2.35.38-4.69.58-7a7.15 7.15 0 01.22-1.53 3.51 3.51 0 013.44-2.32 3.4 3.4 0 013.2 2.58c.2.93.31 1.88.46 2.85.62-.11.52-.53.61-.81a17.15 17.15 0 00.7-2.78c.23-2 1.31-3.77 2-5.63a3.13 3.13 0 01.62-.94 2.58 2.58 0 014.07.32 2.28 2.28 0 01.29.61c.51 1.91 1.2 3.8 1 5.83-.22 2.27-.37 4.54-.55 6.81.57.13.6-.33.8-.58s.48-.77.79-1.09a4.2 4.2 0 014.21-1 3.45 3.45 0 012.4 3.26 6.07 6.07 0 01-.36 1.72c-.42 1.18-.91 2.35-1.35 3.53-.18.47-.48.93-.22 1.47.63.24 1-.26 1.5-.43 2.7-.94 5.16.58 5.07 3.23a8 8 0 01-1 3.83c-.82 1.43-1.61 2.87-2.42 4.31l-.89.22h-1.11l-.32 1.72a4.08 4.08 0 01-3.17 1.37L297 79.1c-1.26-.59-1.34-1.67-1.4-2.76-.08-.11-.14-.3-.24-.32a4.1 4.1 0 00-2.72.25h-.77c.44-.62.86-1.24 1.33-1.83a15.89 15.89 0 002.41-4.3c.2-.54.4-1.14-.23-1.62-.84-.14-1.13.45-1.47.92a34.25 34.25 0 01-5 5.38 4.59 4.59 0 01-.86.42c.39-2.88.73-5.57 1.12-8.26a9 9 0 00-.53-5.32c-.25.28-.52.47-.59.71-.36 1.2-.73 2.41-1 3.63-.29 1.37-.45 2.76-.67 4.14-.05.28-.06.59-.6.71-.3-.22-.69-.45-1-.75-1.09-1-2.16-2-3.25-3a1.1 1.1 0 00-1.06-.38c-.36.79-.39.88-.26 1.17a9.68 9.68 0 002 3c1.09 1.07 2.2 2.12 3.34 3.22a13.91 13.91 0 01-.77 4.47l-3.49 2.45a6.3 6.3 0 00-2 2.2c-1 1.85-2.05 3.67-2.91 5.56a78.9 78.9 0 00-4.38 11.69c-.92 3.42-2 6.83-2.66 10.28-.48 2.32-1.29 4.54-1.84 6.83-.08.35-.35.45-.71.35a27.86 27.86 0 010-7 20.76 20.76 0 00.27-5c.17-1 .33-2 .5-3.08.75-3 1.51-6.07 2.26-9.11 1.41-3.27 2.81-6.54 4.28-10 0-.16-.09-.52-.19-.87-.84-2.68-1.59-5.38-2.56-8-1.26-3.47-2.37-7-4.52-10.16a2.92 2.92 0 01-.26-.91z"/><path class="cls-5" d="M248.75 77.17c0 1.09 0 2.19.06 3.28.1 1.38.29 2.76.45 4.14.25 2.26.55 4.51.76 6.76a67.58 67.58 0 01.69 8.75 34.67 34.67 0 00.08 4c.21 2.77.56 5.53.74 8.3.24 3.51.39 7 .52 10.53.07 2.12 0 4.24.07 6.36a20.65 20.65 0 01-6.07.56 6.51 6.51 0 01-.31-1.27 83.07 83.07 0 01-.06-4.18 26.22 26.22 0 00-1.81-9.27c-.08-.21-.17-.41-.26-.61a5.53 5.53 0 00-6-3.57 7.71 7.71 0 01-1 0c-.06-.66-.14-1.31-.16-2v-4c0-2.78 0-5.56-.29-8.35-.26-2.55-.12-5.13-.2-7.7 0-1.39-.2-2.78-.28-4.16-.07-1.1-.09-2.2-.12-3.3 0-.8 0-1.61-.06-2.48l-2-.74h2.83a3.69 3.69 0 002.43-3.22 7.72 7.72 0 00-.17-3.24c-.65-2.26-1.24-4.53-1.87-6.79a10.18 10.18 0 00-.4-1.06l-1.23-.64a.54.54 0 01-.29-.17 3.4 3.4 0 00.34-1c0-1.81-.13-3.62-.22-5.44 0-.5-.2-1-.18-1.51a25.16 25.16 0 00-1.7-9.41 2.14 2.14 0 01-.07-.43h1.56l2.09.2.39.3.7.6c4 3.48 5.94 7.93 7.07 12.75.42 1.79 1 3.54 1.52 5.32v1.58M267.05 105.89a20.76 20.76 0 01-.27 5 27.86 27.86 0 000 7c.36.1.63 0 .71-.35.55-2.29 1.36-4.51 1.84-6.83.7-3.45 1.74-6.86 2.66-10.28a78.9 78.9 0 014.43-11.64c.86-1.89 1.93-3.71 2.91-5.56a6.3 6.3 0 012-2.2l3.49-2.45a13.91 13.91 0 00.77-4.47c-1.14-1.1-2.25-2.15-3.34-3.22a9.68 9.68 0 01-2-3c-.13-.29-.1-.38.26-1.17a1.1 1.1 0 011.06.38c1.09 1 2.16 2 3.25 3 .34.3.73.53 1 .75.54-.12.55-.43.6-.71.22-1.38.38-2.77.67-4.14.25-1.22.62-2.43 1-3.63.07-.24.34-.43.59-.71a9 9 0 01.53 5.32c-.39 2.69-.73 5.38-1.12 8.26a4.59 4.59 0 00.86-.42 34.25 34.25 0 005-5.38c.34-.47.63-1.06 1.47-.92.63.48.43 1.08.23 1.62a15.89 15.89 0 01-2.41 4.3c-.47.59-.89 1.21-1.33 1.83l-2.75.83a5.18 5.18 0 00-2.65 1.8 43.52 43.52 0 00-3.81 5.6c-1.62 2.88-3 5.84-4.39 8.81a55.89 55.89 0 00-4.53 13.42c-.37 2-.86 3.88-1.26 5.82a76.47 76.47 0 00-.64 3.68c-.26 1.67-.51 3.34-.73 5-.42 3.27-1.22 6.5-1.21 9.82a11.71 11.71 0 01-.16 1.31 12.16 12.16 0 01-2-.4 3.18 3.18 0 00-3.09.36 2.74 2.74 0 01-.33-1.7c0-.64-.08-1.28-.12-2-1.64 0-2.9.73-4.27 1.07l-1.66-.55a43.92 43.92 0 00-.23-5.25c-.3-3.65-.4-7.32-.55-11-.09-2.27.06-4.56-.21-6.81s-.28-4.68-.33-7c0-1.39 0-2.79-.14-4.17-.37-3.72-.84-7.43-1.24-11.14s-.69-7.3-1.13-10.93a7.59 7.59 0 00-.88-3.59 7.36 7.36 0 00-.68-4c-.1-.42-.16-.84-.29-1.25s-.39-2.1-.58-2.88c-.35-1.51-.79-3-1.16-4.49a12.47 12.47 0 01-.2-1.46c.51-.15.72 0 .85.32 1.08 2.21 2.19 4.4 3.2 6.64a106.05 106.05 0 015.09 15.34q2.06 7.34 4 14.7c.84 3.2 1.58 6.43 2.37 9.64a10.71 10.71 0 00.38 1c.07 1.05-.11 2.12.47 3.08zM303.29 76.43l.89-.22a12.88 12.88 0 015 7.09 132.87 132.87 0 015.21 18.76 69.16 69.16 0 011.23 11.59c.05 3.07.47 6.13.73 9.2 0 .29.07.59.08.88l.45 11.65a77.54 77.54 0 00-11.3-.41 6.82 6.82 0 01-1.17-.2l2.57-.34a4.57 4.57 0 00.28-2.45c0-10.34.13-20.68-.38-31a141.22 141.22 0 00-1.07-14.24 72.2 72.2 0 00-2.52-10.31z"/><path class="cls-6" d="M304.42 134.78a7.92 7.92 0 001.17.19 77.54 77.54 0 0111.3.41c.64.06 1.29.08 1.92.2.26 0 .48.31.85.56-.35.33-.56.68-.88.79a13 13 0 01-2.54.68c-1.84.23-3.68.44-5.53.52-5.4.25-10.8.47-16.21.35-1.37 0-2.73-.2-4.09-.3-.81-.06-1.61-.12-2.42-.15l-10.64-.36a1.91 1.91 0 01-.48 0c-3.25-.83-6.69-1-9.84-2.19-.74-.27-1.45-.63-2-.85a2 2 0 01-.44-2.25 3.18 3.18 0 013.09-.36 12.16 12.16 0 002 .4 31.13 31.13 0 005.61.83 7.21 7.21 0 004.19.55 7.55 7.55 0 00.6-2.66 18.81 18.81 0 011.66-5.71 5.19 5.19 0 015-3.27c.24 0 .47-.07.71-.1a5.79 5.79 0 013.85 3c.29.51.6 1 .9 1.52a33.72 33.72 0 011.4 6.4 2.17 2.17 0 00.48 1.58 56.81 56.81 0 007.27 0z"/><path class="cls-5" d="M315.58 84.11c.36.09.63.09.75.21a7.92 7.92 0 011.28 1.58c1.43 2.72 2.86 5.44 4.15 8.21a52.68 52.68 0 013.44 11.22c1.06 4.9 2 9.82 3 14.73.54 2.67 1.13 5.34 1.64 8a24 24 0 01.22 6.18 42.19 42.19 0 01-7.06 1.12 14.05 14.05 0 01-.25-1.6c-.15-3.3-.21-6.6-.41-9.9-.17-2.71-.49-5.41-.73-8.12-.07-.73-.13-1.47-.13-2.2a79.57 79.57 0 00-4-23c-.57-1.83-1.16-3.67-1.73-5.5a8 8 0 01-.17-.93zM266.57 63.81a2.92 2.92 0 00.25.84c2.15 3.15 3.26 6.69 4.52 10.16 1 2.64 1.72 5.34 2.56 8 .1.35.16.71.19.87-1.47 3.46-2.87 6.73-4.28 10-.74-3.37-1.47-6.75-2.23-10.11-1.29-5.67-2.56-11.34-4.36-16.9a83 83 0 00-4.09-10.1 4.57 4.57 0 01-.77-2.29 16.15 16.15 0 011.46 1.4c1.56 1.91 3.06 3.87 4.62 5.79.67.82 1.42 1.53 2.13 2.34z"/><path class="cls-6" d="M308.93 69.59c.75-.81 1.36-.84 2.12-.19.58 1.7 1.23 3.5 1.79 5.32a4.88 4.88 0 01.18 1.94 2.61 2.61 0 01-2.49 2.28 3.1 3.1 0 01-3.08-2.3 5.13 5.13 0 01.13-1.74c.42-1.84.93-3.68 1.35-5.31z"/><path class="cls-5" d="M250 47.22a6.69 6.69 0 012.58-2.11.66.66 0 01.32 1c-.42.71-.91 1.38-1.37 2.06z"/><path class="cls-4" d="M267.05 105.89c-.58-1-.4-2-.51-3h1c-.16.95-.32 1.98-.49 3zM250.33 54c-.4-.05-.55-.27-.43-.6a.49.49 0 01.39-.11c.3.15.36.4.04.71zM247.08 64.45a2.26 2.26 0 01-.8 1.58v-1.58zM258.36 54.3c-.22-.09-.43-.16-.64-.26a.25.25 0 010-.2c.12-.06.36-.15.38-.12a5.28 5.28 0 01.3.58zM234.53 45.28h-1.56c.51-.44 1.03-.23 1.56 0zM226.24 45.43a2.08 2.08 0 011.61-.35 1.88 1.88 0 01-1.61.35zM224.49 45.44l1.43.06c-.76.5-.76.5-1.43-.06zM235.09 63.3l-.91.17c.21-.11.42-.22.62-.34a.54.54 0 00.29.17zM237 45.78l-.39-.3zM242 44.38l.52.19zM218.14 63.89h-.43z"/><path class="cls-5" d="M211.53 52.32a12.47 12.47 0 01-3.21 2.38 20.58 20.58 0 01.76-2.54c.14-.33.65-.54 1-.84zM200.28 66.57c.09.44 0 .82-.52 1a.77.77 0 01.52-1z"/><path class="cls-4" d="M248.75 77.17h1.69a2.56 2.56 0 002.6-1.89 10.85 10.85 0 00.28-3.93l-.21-1.74.36-.31h.07a7.59 7.59 0 01.88 3.59c.44 3.63.74 7.28 1.13 10.93s.87 7.42 1.24 11.14c.14 1.38.11 2.78.14 4.17.05 2.34.05 4.68.33 7s.12 4.54.21 6.81c.15 3.66.25 7.33.55 11a43.92 43.92 0 01.23 5.25 34.87 34.87 0 01-6.13.06c0-2.12 0-4.24-.07-6.36-.13-3.51-.28-7-.52-10.53-.18-2.77-.53-5.53-.74-8.3a34.67 34.67 0 01-.08-4 67.58 67.58 0 00-.69-8.75c-.21-2.25-.51-4.5-.76-6.76-.16-1.38-.35-2.76-.45-4.14-.07-1.05-.04-2.15-.06-3.24zM275.36 133.22a31.13 31.13 0 01-5.61-.83 11.71 11.71 0 00.16-1.31c0-3.32.79-6.55 1.21-9.82.22-1.67.47-3.34.73-5 .19-1.23.39-2.46.64-3.68.4-1.94.89-3.87 1.26-5.82a55.89 55.89 0 014.53-13.42c1.39-3 2.77-5.93 4.39-8.81a43.52 43.52 0 013.81-5.6 5.18 5.18 0 012.65-1.8l2.75-.83h.77l3 .07c.06 1.09.14 2.17 1.4 2.76-.05.43-.07.87-.16 1.29-.23 1.08-.54 2.15-.73 3.23-.55 3.19-1.11 6.38-1.58 9.57s-1 6.4-1.18 9.62c-.32 4.9-.42 9.82-.59 14.74-.06 2-.06 4.11-.07 6.16a7.53 7.53 0 01-.47 2.82c-.3-.51-.61-1-.9-1.52a5.79 5.79 0 00-3.85-3c.11-1 .29-2 .32-3.06.12-4.24.26-8.48.47-12.73.19-3.8.23-7.62.72-11.39.53-4.14.8-8.31 1.72-12.41a3.22 3.22 0 00-.07-.92c-.33.25-.56.35-.67.52-.7 1-1.45 1.94-2.05 3-1.41 2.46-3 4.84-3.85 7.54l-1.17.58c-.55 1.16-1 2.23-1.55 3.29a14 14 0 00-1.61 7.62 6.09 6.09 0 00-1 3.1c-.42 2.08-.83 4.16-1.21 6.25-.27 1.51-.51 3-.71 4.55-.31 2.4-.61 4.79-.83 7.19-.29 2.66-.87 5.33-.67 8.05z"/><path class="cls-5" d="M292.23 126.53a7.53 7.53 0 00.47-2.82c0-2 0-4.11.07-6.16.17-4.92.27-9.84.59-14.74.21-3.22.72-6.42 1.18-9.62s1-6.38 1.58-9.57c.19-1.08.5-2.15.73-3.23.09-.42.11-.86.16-1.29l1.68.42a7.72 7.72 0 00.1 1.52c1.47 5.59 1.78 11.3 2.11 17 .3 5.12.24 10.25.43 15.38.25 7 .06 14.08.05 21.11a56.81 56.81 0 01-7.27 0 2.17 2.17 0 01-.48-1.58 33.72 33.72 0 00-1.4-6.42z"/><path class="cls-4" d="M301.38 134.53c0-7 .2-14.08-.05-21.11-.19-5.13-.13-10.26-.43-15.38-.33-5.7-.64-11.41-2.11-17a7.72 7.72 0 01-.1-1.52 4.08 4.08 0 003.17-1.37l.32-1.72h1.11a72.2 72.2 0 012.53 10.29 141.22 141.22 0 011.07 14.28c.51 10.34.34 20.68.38 31a4.57 4.57 0 01-.28 2.45l-2.57.35z"/><path class="cls-5" d="M295.61 76.34l-3-.07a4.1 4.1 0 012.72-.25c.14-.02.2.21.28.32z"/><path class="cls-4" d="M253.08 69.4c-.39-1.35-.78-2.71-1.16-4.06l.94-.09a7.36 7.36 0 01.68 4h-.07a.84.84 0 01-.39.15z"/><path class="cls-4" d="M252.86 65.25l-.94.09a2.08 2.08 0 01-.41-2 .88.88 0 011.06.63c.13.44.19.86.29 1.28z"/><path class="cls-6" d="M251.47 63.33c1.94 4.76 5.61 15.83-3.32 13.48-5.38-1.13-1.85-18.81 3.32-13.48zM236.67 64.08c2.37 4.49 6.05 17-3.57 14.53-5.8-1.23-2-20.23 3.57-14.53z"/><path class="cls-5" d="M284.07 92.56c.83-2.7 2.44-5.08 3.85-7.54.6-1 1.35-2 2.05-3 .11-.17.34-.27.67-.52a3.22 3.22 0 01.07.92c-.92 4.1-1.19 8.27-1.72 12.41-.49 3.77-.53 7.59-.72 11.39-.21 4.25-.35 8.49-.47 12.73 0 1-.21 2-.32 3.06-.24 0-.47.09-.71.1a5.19 5.19 0 00-5 3.27 18.81 18.81 0 00-1.66 5.71 7.55 7.55 0 01-.6 2.66 7.21 7.21 0 01-4.19-.55c-.2-2.72.38-5.39.63-8.08.22-2.4.52-4.79.83-7.19.2-1.52.44-3 .71-4.55.38-2.09.79-4.17 1.21-6.25a6.09 6.09 0 011-3.1c.35.31.69.62 1 .91a5.62 5.62 0 005.19.73 2.83 2.83 0 001.87-2.16 9 9 0 00-.11-3.93c-.34-1.13-.63-2.27-1-3.39-.25-.78-.58-1.53-.9-2.28a2.27 2.27 0 00-1.68-1.35zM253.08 69.4a.84.84 0 00.39-.06l-.36.31a.14.14 0 01-.03-.25z"/><path class="cls-6" d="M284.07 92.56a2.27 2.27 0 011.76 1.37c.32.75.65 1.5.9 2.28.37 1.12.66 2.26 1 3.39a9 9 0 01.11 3.93 2.83 2.83 0 01-1.87 2.16 5.62 5.62 0 01-5.19-.73c-.35-.29-.69-.6-1-.91a14 14 0 011.61-7.62c.52-1.06 1-2.13 1.55-3.29z"/><g id="Layer_2-8" data-name="Layer 2"><g id="Layer_1-2-8" data-name="Layer 1-2"><path d="M81.2 324.53l-18.32-40.6a.94.94 0 00-.88-.58H48.38a.65.65 0 00-.74.54.61.61 0 000 .19v40a1.74 1.74 0 01-1.74 1.75H28.74A1.75 1.75 0 0127 324.1V225a1.76 1.76 0 011.76-1.75h41.89a34.42 34.42 0 0116.48 3.81 26.66 26.66 0 0111 10.85A33.14 33.14 0 01102 254.2a29 29 0 01-5 17.07 26.51 26.51 0 01-13.93 10 .74.74 0 00-.48.92v.11l19.93 41.47a2.3 2.3 0 01.3.88c0 .78-.55 1.17-1.62 1.17h-18a2.07 2.07 0 01-2-1.29zm-33.56-82.8v25.06a.64.64 0 00.55.73h19.38a14.05 14.05 0 0010-3.66 12.51 12.51 0 003.88-9.53 12.75 12.75 0 00-3.88-9.59 13.89 13.89 0 00-10-3.74H48.38a.65.65 0 00-.74.54.6.6 0 000 .19z"/><path class="cls-3" d="M76.8 319.41l-18.31-40.59a1 1 0 00-.88-.59H44a.65.65 0 00-.73.55.6.6 0 000 .19v40a1.75 1.75 0 01-1.75 1.76H24.34a1.68 1.68 0 01-1.24-.51 1.73 1.73 0 01-.52-1.25v-99.06a1.78 1.78 0 011.76-1.76h41.91A34.46 34.46 0 0182.74 222a26.78 26.78 0 0111 10.85 33.14 33.14 0 013.88 16.26 29 29 0 01-5 17.08 26.56 26.56 0 01-13.92 10 .74.74 0 00-.49.92v.11l19.99 41.46a2.13 2.13 0 01.29.88c0 .78-.53 1.17-1.61 1.17h-18a2.08 2.08 0 01-2.08-1.32zm-33.55-82.79v25.06a.64.64 0 00.54.73h19.39a14 14 0 0010-3.66 12.54 12.54 0 003.89-9.53 12.75 12.75 0 00-3.89-9.6 13.86 13.86 0 00-10-3.73H44a.64.64 0 00-.73.54.61.61 0 00-.02.19z"/><path d="M78.73 322.2a3.54 3.54 0 01-3.28-2.2l-18.17-40.3H44.71V319a3.22 3.22 0 01-3.2 3.23H24.34a3.21 3.21 0 01-3.22-3.26v-99a3.21 3.21 0 013.25-3.22h41.88a36 36 0 0117.16 4A28.13 28.13 0 0195 232.11a34.61 34.61 0 014.07 17A30.51 30.51 0 0193.83 267 28.16 28.16 0 0180 277.32L99.49 318a3.72 3.72 0 01.46 1.41v.16c0 1.27-.81 2.64-3.08 2.64H78.73zm-21.11-45.43a2.39 2.39 0 012.22 1.49l18.33 40.62a.59.59 0 00.6.39h18.08L77 277.84a2.16 2.16 0 011.32-3.06 25.18 25.18 0 0013.16-9.48 27.66 27.66 0 004.72-16.23 31.79 31.79 0 00-3.72-15.57 25.11 25.11 0 00-10.38-10.24 33 33 0 00-15.77-3.64H24.34a.22.22 0 00-.19.07.24.24 0 00-.1.19V319a.22.22 0 00.07.19.23.23 0 00.19.1h17.18a.28.28 0 00.29-.28v-39.96a2 2 0 010-.49 2 2 0 01.83-1.38 2.09 2.09 0 011.43-.41h13.58zm0 2.93zm-.46-.28zm22.43-2.86zm-35.7-12.68h-.3a2.09 2.09 0 01-1.39-.83 2.11 2.11 0 01-.41-1.43V236.7a2 2 0 010-.49 2.11 2.11 0 012.26-1.79h19.13a15.36 15.36 0 0111.05 4.15 14.2 14.2 0 014.33 10.65 14 14 0 01-4.34 10.59 15.49 15.49 0 01-11 4.06H43.88zm.83-2.94h18.46a12.51 12.51 0 009-3.26 11 11 0 003.42-8.41v-.1a11.25 11.25 0 00-3.44-8.49 12.33 12.33 0 00-9-3.33H44.71z"/></g></g><g id="Layer_2-9" data-name="Layer 2"><g id="Layer_1-2-9" data-name="Layer 1-2"><path d="M180.93 297.72a1.71 1.71 0 01-1.63 1.78h-45.56c-.58 0-.78.24-.58.73a26.37 26.37 0 001.61 5.86q3.81 8.21 15.53 8.21a17.66 17.66 0 0014.8-7.62 1.32 1.32 0 011.68-.81 1.34 1.34 0 01.67.52L178 316.77a2 2 0 01.73 1.32 3.29 3.29 0 01-.58 1.17 32.05 32.05 0 01-12.46 9.3 41.67 41.67 0 01-16.71 3.3q-12.6 0-21.32-5.72a31.79 31.79 0 01-12.53-16q-3.07-7.34-3.07-19.19a42 42 0 012.2-14.2 32.22 32.22 0 0111.79-16.56 33 33 0 0120-6.16q14.65 0 23.52 8.5t10.77 22.72a62.34 62.34 0 01.59 12.47zM134 280.57a34.44 34.44 0 00-1 4.69.64.64 0 00.54.73h25.56c.58 0 .78-.24.58-.73-.49-2.83-.73-4.2-.73-4.1a12.7 12.7 0 00-4.62-6.82 13.38 13.38 0 00-8.13-2.41q-9.2 0-12.2 8.64z"/><path class="cls-3" d="M176.53 293.34a1.69 1.69 0 01-1.64 1.76 1.13 1.13 0 01-.26 0h-45.28c-.59 0-.79.25-.59.74a26.52 26.52 0 001.61 5.86q3.81 8.21 15.54 8.2a17.68 17.68 0 0014.8-7.62 1.32 1.32 0 011.68-.81 1.36 1.36 0 01.66.52l10.55 10.4a2.06 2.06 0 01.74 1.32 3.12 3.12 0 01-.59 1.18 31.91 31.91 0 01-12.46 9.3 41.66 41.66 0 01-16.7 3.3q-12.6 0-21.32-5.72a31.79 31.79 0 01-12.53-16q-3.08-7.32-3.08-19.2a42.39 42.39 0 012.2-14.21 32.18 32.18 0 0111.8-16.56 33 33 0 0120-6.15q14.66 0 23.52 8.5T176 280.88a63.29 63.29 0 01.53 12.46zm-46.89-17.15a34.08 34.08 0 00-1 4.69.64.64 0 00.54.73h25.52c.59 0 .78-.24.59-.73-.5-2.84-.74-4.2-.74-4.1a12.65 12.65 0 00-4.61-6.82 13.49 13.49 0 00-8.14-2.42q-9.23 0-12.16 8.65z"/><path d="M144.59 328.94c-8.65 0-16.12-2-22.13-5.95a33.31 33.31 0 01-13.09-16.69c-2.1-5-3.17-11.63-3.17-19.71a43.71 43.71 0 012.28-14.7 33.65 33.65 0 0112.31-17.25 34.79 34.79 0 0120.87-6.44c10.11 0 18.37 3 24.53 8.91s9.9 13.81 11.21 23.57a65.14 65.14 0 01.6 12.71v.07a3.14 3.14 0 01-3.18 3.11h-44.45a25.84 25.84 0 001.35 4.55c2.3 4.92 6.94 7.33 14.19 7.33a16.15 16.15 0 0013.61-7 2.74 2.74 0 014.56-.46l10.55 10.38a3.39 3.39 0 011.17 2.36 3.68 3.68 0 01-.83 2l-.08.1a33.45 33.45 0 01-13 9.74 43.3 43.3 0 01-17.3 3.37zm-2.93-77.81a31.87 31.87 0 00-19.14 5.87 30.91 30.91 0 00-11.27 15.84 41 41 0 00-2.12 13.76c0 7.68 1 13.93 2.93 18.64a30.43 30.43 0 0012 15.31c5.54 3.66 12.46 5.47 20.52 5.47a40.22 40.22 0 0016.12-3.18 30.63 30.63 0 0011.85-8.84l.22-.35a2 2 0 00-.22-.24L162 303l-.06.1a19.21 19.21 0 01-16 8.24c-8.43 0-14.1-3.05-16.85-9.06v-.07a28.22 28.22 0 01-1.68-6 2 2 0 01.2-1.71 2 2 0 011.79-.85h45.28a.87.87 0 00.36-.05 1 1 0 00.08-.34 61.52 61.52 0 00-.57-12.13c-1.23-9.13-4.7-16.48-10.33-21.92s-13.22-8.08-22.56-8.08zm13.25 31.94h-25.56a2.1 2.1 0 01-2.2-2v-.42a37.24 37.24 0 011.08-4.9c2.2-6.4 6.72-9.64 13.54-9.64a14.83 14.83 0 019 2.7 14.17 14.17 0 015.13 7.58 7.62 7.62 0 01.26 1.17c.13.67.3 1.66.52 3a1.93 1.93 0 01-.19 1.73 1.9 1.9 0 01-.49.49zm-24.69-2.93h23.45c-.3-1.69-.47-2.67-.53-2.93a11.15 11.15 0 00-4.07-6 12.08 12.08 0 00-7.27-2.21c-5.49 0-9 2.5-10.77 7.63a35.64 35.64 0 00-.81 3.51z"/></g></g><g id="Layer_2-10" data-name="Layer 2"><g id="Layer_1-2-10" data-name="Layer 1-2"><path d="M586.57 332.36a26.19 26.19 0 01-11.36-7.77 17.46 17.46 0 01-4-11.28v-1.47a1.76 1.76 0 011.74-1.76h16.25a1.75 1.75 0 011.76 1.75v.17q0 3.22 3.59 5.5a16.59 16.59 0 009 2.27 14.69 14.69 0 008.06-2c2.06-1.32 3.09-3 3.08-4.91a4.21 4.21 0 00-2.64-3.95 44.45 44.45 0 00-8.64-2.79 85.65 85.65 0 01-10.85-3.37q-9.37-3.22-14.94-7.93t-5.57-13.48a20.48 20.48 0 018.42-17.22q8.43-6.37 22.35-6.36a41.7 41.7 0 0116.41 3 25.25 25.25 0 0110.92 8.42 20.61 20.61 0 013.85 12.34 1.74 1.74 0 01-1.74 1.76h-15.65a1.75 1.75 0 01-1.76-1.74c0-2.15-1.1-3.95-3.3-5.42a15.52 15.52 0 00-8.72-2.2 15.87 15.87 0 00-7.91 1.76 5.39 5.39 0 00-3.08 4.84 4.68 4.68 0 003 4.39 50.64 50.64 0 0010 3.07c1.08.29 2.3.6 3.67 1s2.82.73 4.39 1.24q10.41 3.09 16.41 7.92t6 14.06q0 10.85-8.57 16.93t-23.08 6.08a48.28 48.28 0 01-17.09-2.85z"/><path class="cls-3" d="M582.17 326.51a26.25 26.25 0 01-11.36-7.77 17.44 17.44 0 01-4-11.28V306a1.67 1.67 0 01.52-1.24 1.65 1.65 0 011.24-.51h16.27a1.75 1.75 0 011.76 1.74v.15c0 2.15 1.19 4 3.59 5.5a16.57 16.57 0 009 2.27 14.74 14.74 0 008.06-2c2-1.32 3.08-3 3.07-4.91a4.24 4.24 0 00-2.63-4 44.51 44.51 0 00-8.65-2.78 87.16 87.16 0 01-10.84-3.37 46.83 46.83 0 01-14.97-7.85q-5.58-4.69-5.57-13.48a20.44 20.44 0 018.43-17.22q8.43-6.37 22.35-6.38a41.73 41.73 0 0116.41 3 25.15 25.15 0 0110.91 8.42 20.66 20.66 0 013.89 12.31 1.75 1.75 0 01-1.75 1.76h-15.69a1.76 1.76 0 01-1.76-1.74q0-3.21-3.3-5.42a15.4 15.4 0 00-8.71-2.2 15.88 15.88 0 00-7.92 1.76 5.37 5.37 0 00-3.07 4.84 4.68 4.68 0 003 4.39 51.33 51.33 0 0010 3.08c1.07.29 2.29.61 3.66.95s2.84.73 4.4 1.25q10.49 3.07 16.49 7.9t6 14.07q0 10.84-8.58 16.92t-23.08 6.08a48.12 48.12 0 01-17.17-2.78z"/><path d="M598.31 330.77a49.52 49.52 0 01-16.63-2.88 27.7 27.7 0 01-12-8.22 19 19 0 01-4.35-12.21V306a3.23 3.23 0 013.25-3.22h16.25A3.21 3.21 0 01588 306v.17c0 1.63 1 3 2.91 4.26a15.25 15.25 0 008.23 2 13.48 13.48 0 007.27-1.74c1.62-1 2.4-2.24 2.4-3.68a2.77 2.77 0 00-1.72-2.6 44 44 0 00-8.4-2.71 87.58 87.58 0 01-11.07-3.43 48.15 48.15 0 01-15.36-8.16c-4-3.41-6.1-8.32-6.09-14.61a21.91 21.91 0 019-18.38c5.85-4.42 13.66-6.67 23.22-6.67a42.76 42.76 0 0117 3.11 26.65 26.65 0 0111.54 8.91 22.29 22.29 0 014.17 13.2 3.13 3.13 0 01-.93 2.25 3.24 3.24 0 01-2.27 1h-15.7a3.21 3.21 0 01-3.21-3.21c0-1.66-.87-3-2.65-4.22a14 14 0 00-7.87-1.95 14.5 14.5 0 00-7.24 1.59 3.89 3.89 0 00-2.29 3.54 3.24 3.24 0 002.18 3.08 50.14 50.14 0 009.72 3c1.13.31 2.34.62 3.7 1s2.85.74 4.49 1.28c7 2.08 12.75 4.83 16.88 8.16 4.34 3.5 6.55 8.62 6.55 15.21 0 7.7-3.09 13.79-9.19 18.12-5.94 4.21-14 6.35-23.93 6.35zm-15.63-5.64a46.43 46.43 0 0016.61 2.7c9.34 0 16.82-2 22.26-5.81s8-8.94 8-15.73c0-5.74-1.79-10-5.46-12.93-3.83-3.09-9.19-5.66-15.91-7.65-1.6-.52-3.09-.91-4.34-1.23s-2.6-.66-3.69-1a51.7 51.7 0 01-10.29-3.17 6.1 6.1 0 01-3.83-5.71 6.79 6.79 0 013.82-6.11 17.3 17.3 0 018.69-1.95A16.8 16.8 0 01608 269c2.62 1.75 3.95 4 3.95 6.64a.29.29 0 00.28.29h15.69a.27.27 0 00.21-.08.27.27 0 00.08-.2 19.29 19.29 0 00-3.61-11.46 23.62 23.62 0 00-10.27-7.92 39.74 39.74 0 00-15.83-2.9c-9 0-16.17 2.05-21.5 6.08s-7.84 9.23-7.84 16c0 5.45 1.64 9.5 5 12.35a45.52 45.52 0 0014.48 7.65 87.12 87.12 0 0010.71 3.34 45.69 45.69 0 018.9 2.86 5.65 5.65 0 013.51 5.31c0 2.46-1.26 4.53-3.75 6.13a16.19 16.19 0 01-8.85 2.21 18.06 18.06 0 01-9.8-2.5c-2.83-1.79-4.27-4.05-4.27-6.73V306a.34.34 0 00-.08-.21.34.34 0 00-.2-.08h-16.27a.22.22 0 00-.19.07.24.24 0 00-.1.19v1.5a16 16 0 003.69 10.35 24.83 24.83 0 0010.74 7.31z"/></g></g><path d="M228 210.92c-4.31 2.83-8.63 5.65-12.93 8.51a22.09 22.09 0 00-2.85 2.14c-3.28 3-7.19 4.93-11.22 6.71a19.16 19.16 0 00-5.87.79 22.07 22.07 0 01-7.06 1c-3.32-.06-6.63-.05-10 0-2.78 0-5.56-.19-8.31.52a6.15 6.15 0 01-3.15-.13 18.21 18.21 0 00-2.35-.33 7.75 7.75 0 00-.66-.46 6.14 6.14 0 01-3.21-4.68c.18-3.52 2.3-5.32 5.31-6.34a40.59 40.59 0 019.28-2.26c.69-.06.69-.09 1.75-1-2-1.61-4.07-3-6.09-4.47-.43-.32-.88-.6-1.33-.89a13.27 13.27 0 01-5.08-5.65 14.24 14.24 0 010-5.56c.23-.36.48-.84.8-1.25 1.65-2.08 3.79-2.32 6.12-1.47 1.74.64 3.43 1.42 5.15 2.14.35.14.7.25 1 .35.39-.19.51-.43.34-.71-1.27-2.18-2.54-4.36-3.83-6.53a51.36 51.36 0 01-4.18-8.6 17.92 17.92 0 01-.61-8.28 4.15 4.15 0 012.55-3.36c2.92-1.38 5.34-1.09 7.67 1.27a50 50 0 018.76 10.86c.51.93 1 1.87 1.58 2.77.11.2.42.28.66.42.5-.55.3-1.21.21-1.8-.87-6.1-.56-12.23-.35-18.35a26.69 26.69 0 01.62-4.34c.52-2.52 1.78-4.44 4.52-5 .26-.05.52-.14.87-.23 2.86.46 4.5 2.47 5.75 4.93a26.07 26.07 0 012.27 7.62 118.79 118.79 0 011.87 12.65 1.61 1.61 0 001.07 1.6 52.45 52.45 0 002-5.6c.6-1.62 1.11-3.28 1.77-4.87a20 20 0 011.55-2.79 6.06 6.06 0 013.32-2.73 13.39 13.39 0 001.45-.65l2.93.1c.43.28.86.56 1.31.83a7.08 7.08 0 013.61 5.85c.32 5.18.42 10.35-1.11 15.4-.46 1.52-.84 3.07-1.23 4.61a.88.88 0 00.36 1 2.46 2.46 0 00.7-.26c1.32-1.11 2.6-2.27 3.93-3.37a53.41 53.41 0 014.68-3.69c2.85-1.88 6-2.89 9.36-2a4.51 4.51 0 012.34 3.73 26.77 26.77 0 01-1.39 5.24 17.66 17.66 0 01-3.65 6.1 104 104 0 01-9.78 9.35c-.46.39-.81.79-1.22 1.16z" fill="#3d6334"/><path class="cls-8" d="M198.32 217a17.56 17.56 0 01-7.95-3.45 48.23 48.23 0 01-5.76-4.9 9 9 0 01-1-1.36 3.13 3.13 0 01.29-2.19 22.54 22.54 0 014.7-7.34 16.49 16.49 0 015.18-3.66 7 7 0 011.88-.65 67 67 0 018.72-1 30.46 30.46 0 015.46 1.06 16.05 16.05 0 012.62.93c5.35 2.06 8.49 6.14 10.52 11.31-.73 2.51-8.81 8.79-11.18 9.77-8.87 2.81-13.48 1.48-13.48 1.48z"/><path class="cls-9" d="M191.52 214.25a48.82 48.82 0 011.55-4.94 9.55 9.55 0 0110.57-5.31c.65.14 1.29.33 1.93.5a8.41 8.41 0 015.73 5.14 19.41 19.41 0 011.15 5c-.16.21-.28.5-.5.61a21.64 21.64 0 01-11.21 2.07 25.64 25.64 0 01-7.83-1.87z"/><path class="cls-8" d="M293.38 218.17a26 26 0 01-11.78-5.1 73.33 73.33 0 01-8.54-7.27 14.68 14.68 0 01-1.53-2 4.69 4.69 0 01.44-3.25 33.42 33.42 0 017-10.88 24.55 24.55 0 017.68-5.43 10.67 10.67 0 012.78-1c4.3-.53 8.54-1.46 12.91-1.43 2.82 0 5.4 1 8.1 1.56a24.3 24.3 0 013.88 1.39c7.93 3.05 12.59 9.1 15.6 16.77-1.09 3.72-13.06 13-16.57 14.47-13.13 4.23-19.97 2.17-19.97 2.17z"/><path class="cls-9" d="M283.31 214.18a72.29 72.29 0 012.29-7.32c2.47-5.79 9.48-9.2 15.67-7.82 1 .22 1.91.5 2.86.74 4.16 1.06 6.77 3.81 8.49 7.62a28.73 28.73 0 011.71 7.47c-.24.31-.42.75-.74.91a32 32 0 01-16.59 3.06 37.69 37.69 0 01-11.61-2.77z"/></g></g></svg>