<svg width="516" height="224" viewBox="0 0 516 224" fill="none" xmlns="http://www.w3.org/2000/svg">
<path d="M148.103 156.15C148.103 156.15 124.406 137.447 77.0111 174.011C77.0111 174.011 36.388 183.363 15.2348 179.958C15.2348 179.958 -4.23498 178.259 0.845778 193.564C0.845778 193.564 3.38231 201.217 60.9309 198.669C60.9309 198.669 264.892 195.263 275.891 198.669C275.891 198.669 299.773 201.217 300.618 218.221C300.618 218.221 308.897 230.692 316.045 218.993C316.045 218.993 316.045 208.036 318.297 203.495C320.55 198.954 334.438 192.537 345.007 194.808L425.87 193.673L491.696 190.274C491.696 190.274 514.264 188.382 515.77 183.471C517.277 178.56 510.874 176.668 510.874 176.668C510.874 176.668 472.888 172.514 470.259 174.776C470.259 174.776 449.567 171.379 449.191 160.042C448.814 148.706 441.296 121.863 426.599 118.837C411.904 115.81 421.335 87.0988 421.335 87.0988C421.335 87.0988 419.075 62.913 412.687 56.1097C412.687 56.1097 404.786 31.9239 372.064 37.9704C372.064 37.9704 338.967 40.6191 325.046 62.1562C325.046 62.1562 310.38 86.7204 311.879 95.4079L303.985 125.262C303.985 125.262 301.349 93.5236 283.293 87.8555C283.293 87.8555 272.009 80.6739 247.566 90.8749C247.566 90.8749 221.232 101.833 228.35 137.354C228.35 137.354 217.82 120.366 195.252 122.992C178.05 125.014 157.112 131.277 148.103 156.15Z" fill="#C6BCD0"/>
<path d="M404.471 154.231C404.547 160.16 403.652 166.061 401.822 171.7C399.921 177.324 396.404 182.259 391.713 185.885C387.112 189.379 381.418 191.125 374.633 191.125C367.94 191.125 362.732 188.796 359.009 184.138C358.828 183.858 358.64 183.768 358.459 183.858C358.362 183.913 358.284 183.996 358.234 184.095C358.184 184.195 358.166 184.307 358.18 184.417V214.324C358.181 214.545 358.138 214.763 358.054 214.967C357.971 215.171 357.847 215.356 357.692 215.512C357.536 215.668 357.351 215.791 357.148 215.875C356.945 215.959 356.727 216.002 356.507 216.001H340.158C339.939 216.001 339.722 215.958 339.519 215.873C339.317 215.789 339.133 215.665 338.978 215.509C338.823 215.354 338.7 215.169 338.617 214.965C338.534 214.762 338.491 214.544 338.492 214.324V119.852C338.491 119.632 338.534 119.415 338.617 119.211C338.7 119.008 338.823 118.823 338.978 118.667C339.133 118.511 339.317 118.387 339.519 118.303C339.722 118.219 339.939 118.175 340.158 118.175H356.479C356.699 118.174 356.917 118.217 357.12 118.301C357.324 118.385 357.508 118.509 357.664 118.664C357.82 118.82 357.943 119.006 358.026 119.21C358.11 119.413 358.153 119.632 358.152 119.852V124.464C358.152 124.744 358.243 124.904 358.431 124.953C358.533 124.973 358.639 124.964 358.736 124.927C358.833 124.89 358.918 124.827 358.982 124.744C362.89 119.619 368.284 117.057 375.163 117.057C381.162 116.924 387.031 118.82 391.825 122.438C396.519 126.02 399.888 131.028 401.933 137.461C403.714 142.868 404.572 148.538 404.471 154.231ZM384.107 153.952C384.107 148.082 383.133 143.424 381.186 139.977C379.048 135.975 375.606 133.972 370.861 133.967C366.59 133.967 363.385 135.97 361.247 139.977C359.295 143.331 358.317 148.035 358.312 154.091C358.312 160.334 359.337 165.178 361.387 168.625C363.52 172.352 366.678 174.216 370.861 174.216C372.826 174.266 374.768 173.786 376.485 172.828C378.201 171.869 379.63 170.466 380.621 168.765C382.931 165.132 384.084 160.194 384.079 153.952H384.107Z" fill="black"/>
<path d="M399.115 149.256C399.191 155.185 398.296 161.087 396.466 166.725C394.569 172.351 391.051 177.287 386.357 180.91C381.756 184.404 376.062 186.151 369.277 186.151C362.584 186.151 357.379 183.821 353.66 179.163C353.472 178.884 353.291 178.793 353.103 178.884C353.007 178.939 352.929 179.022 352.879 179.121C352.83 179.22 352.81 179.332 352.824 179.443V209.349C352.825 209.57 352.782 209.788 352.698 209.992C352.615 210.196 352.491 210.381 352.336 210.537C352.18 210.693 351.995 210.817 351.792 210.901C351.589 210.984 351.371 211.027 351.151 211.026H334.837C334.617 211.027 334.399 210.984 334.196 210.901C333.992 210.817 333.808 210.693 333.652 210.537C333.497 210.381 333.373 210.196 333.29 209.992C333.206 209.788 333.163 209.57 333.164 209.349V114.899C333.163 114.678 333.206 114.46 333.29 114.256C333.373 114.052 333.497 113.867 333.652 113.711C333.808 113.555 333.992 113.431 334.196 113.347C334.399 113.263 334.617 113.221 334.837 113.222H351.151C351.371 113.221 351.589 113.263 351.792 113.347C351.995 113.431 352.18 113.555 352.336 113.711C352.491 113.867 352.615 114.052 352.698 114.256C352.782 114.46 352.825 114.678 352.824 114.899V119.51C352.824 119.79 352.914 119.958 353.103 119.999C353.206 120.019 353.313 120.01 353.411 119.973C353.509 119.936 353.596 119.873 353.66 119.79C357.564 114.666 362.956 112.104 369.834 112.104C376.248 112.104 381.802 113.897 386.496 117.484C391.191 121.071 394.56 126.079 396.605 132.507C398.278 137.245 399.115 142.828 399.115 149.256ZM378.758 148.977C378.758 143.107 377.782 138.449 375.83 135.002C373.692 130.996 370.253 128.992 365.512 128.992C361.241 128.992 358.034 130.996 355.891 135.002C353.939 138.356 352.963 143.061 352.963 149.117C352.963 155.363 353.986 160.208 356.031 163.651C358.173 167.377 361.334 169.241 365.512 169.241C367.477 169.291 369.419 168.812 371.136 167.853C372.852 166.894 374.281 165.491 375.272 163.79C377.596 160.157 378.758 155.219 378.758 148.977Z" fill="white"/>
<path d="M351.15 212.423H334.837C334.434 212.424 334.035 212.345 333.662 212.191C333.289 212.036 332.951 211.81 332.666 211.524C332.381 211.239 332.155 210.899 332.001 210.526C331.847 210.152 331.769 209.752 331.77 209.348V114.897C331.77 114.082 332.093 113.3 332.668 112.723C333.243 112.147 334.023 111.823 334.837 111.823H351.15C351.554 111.822 351.953 111.901 352.325 112.055C352.698 112.209 353.037 112.436 353.322 112.721C353.607 113.007 353.832 113.346 353.986 113.72C354.14 114.093 354.219 114.493 354.218 114.897V116.994C358.22 112.801 363.462 110.705 369.834 110.705C376.137 110.578 382.301 112.574 387.34 116.372C392.22 120.124 395.81 125.407 397.936 132.087C399.638 136.922 400.509 142.722 400.509 149.276C400.583 155.36 399.663 161.414 397.783 167.199C395.792 173.086 392.11 178.251 387.2 182.048C382.369 185.709 376.346 187.568 369.276 187.568C363.1 187.568 358.045 185.66 354.218 181.894V209.369C354.219 209.773 354.14 210.173 353.986 210.547C353.832 210.92 353.607 211.26 353.322 211.545C353.037 211.831 352.698 212.057 352.325 212.211C351.953 212.366 351.554 212.445 351.15 212.444V212.423ZM334.837 114.597C334.764 114.599 334.694 114.629 334.642 114.681C334.59 114.733 334.56 114.803 334.558 114.876V209.348C334.557 209.385 334.564 209.422 334.577 209.456C334.591 209.491 334.612 209.522 334.638 209.548C334.664 209.574 334.695 209.595 334.729 209.608C334.763 209.622 334.8 209.629 334.837 209.628H351.15C351.188 209.63 351.225 209.624 351.259 209.61C351.294 209.597 351.326 209.577 351.352 209.55C351.378 209.524 351.399 209.492 351.412 209.457C351.425 209.423 351.431 209.385 351.429 209.348V179.441C351.413 179.071 351.503 178.704 351.69 178.384C351.877 178.064 352.152 177.805 352.482 177.639C352.883 177.444 353.342 177.407 353.769 177.537C354.195 177.666 354.557 177.952 354.783 178.337C358.268 182.663 362.988 184.759 369.276 184.759C375.718 184.759 381.184 183.096 385.513 179.805C389.986 176.34 393.34 171.629 395.155 166.263C396.927 160.774 397.794 155.031 397.72 149.262C397.72 143.029 396.905 137.537 395.287 132.96C393.314 126.776 390.094 121.969 385.646 118.573C381.088 115.161 375.522 113.375 369.834 113.5C363.358 113.5 358.429 115.841 354.769 120.641L354.643 120.781C354.408 121.037 354.109 121.225 353.776 121.325C353.444 121.426 353.091 121.436 352.754 121.354C352.355 121.247 352.005 121.004 351.763 120.668C351.522 120.332 351.404 119.923 351.429 119.509V114.897C351.433 114.859 351.427 114.821 351.412 114.786C351.398 114.751 351.375 114.719 351.346 114.695C351.322 114.667 351.291 114.646 351.257 114.633C351.223 114.619 351.187 114.614 351.15 114.618L334.837 114.597ZM365.512 170.637C360.813 170.637 357.216 168.541 354.824 164.348C352.67 160.722 351.569 155.586 351.569 149.115C351.569 142.827 352.621 137.852 354.685 134.302C357.048 129.865 360.701 127.594 365.512 127.594C370.782 127.594 374.665 129.865 377.057 134.344C379.106 137.956 380.152 142.89 380.152 148.976C380.152 155.46 378.904 160.701 376.443 164.544C373.857 168.59 370.183 170.637 365.512 170.637ZM365.512 130.389C361.761 130.389 359.014 132.115 357.146 135.664C355.305 138.83 354.357 143.351 354.357 149.115C354.357 155.076 355.326 159.73 357.23 162.937C359.126 166.249 361.831 167.828 365.512 167.828C369.193 167.828 372.03 166.256 374.101 163.021C376.262 159.632 377.363 154.908 377.363 148.962C377.363 143.372 376.443 138.9 374.617 135.685C372.706 132.115 369.73 130.389 365.512 130.389Z" fill="black"/>
<path d="M111.527 181.608C105.949 179.232 101.65 175.831 98.6292 171.406C95.6105 166.983 94.0977 154.845 94.0977 148.976V145.901C94.0959 145.682 94.1374 145.464 94.22 145.26C94.3025 145.057 94.4245 144.872 94.5787 144.716C94.733 144.56 94.9165 144.436 95.1187 144.352C95.321 144.268 95.5379 144.224 95.7569 144.224H111.666C111.885 144.223 112.102 144.265 112.304 144.349C112.507 144.432 112.691 144.554 112.846 144.708C113.002 144.863 113.125 145.046 113.21 145.249C113.294 145.451 113.338 145.668 113.339 145.887V147.983C113.339 151.708 115.061 161.84 118.498 164.404C121.935 166.969 126.585 168.247 132.441 168.247C137.363 168.247 141.035 167.199 143.456 165.103C144.603 164.166 145.525 162.982 146.152 161.64C146.78 160.297 147.098 158.83 147.081 157.347C147.105 156.302 146.92 155.263 146.537 154.291C146.154 153.319 145.58 152.433 144.851 151.687C143.098 149.97 141.041 148.595 138.785 147.634C136.224 146.465 132.158 144.858 126.585 142.813C121.161 141.004 115.872 138.809 110.76 136.244C106.494 134.052 102.776 130.923 99.8841 127.091C96.9561 123.22 95.492 118.445 95.492 112.766C95.381 107.544 96.8914 102.417 99.8144 98.0923C102.815 93.7998 106.974 90.4546 111.805 88.4495C116.918 86.2135 122.82 85.0955 129.513 85.0955C136.008 84.9764 142.453 86.2635 148.406 88.8687C153.616 91.121 158.103 94.7724 161.373 99.4199C164.518 104.049 166.15 109.543 166.044 115.142V117.238C166.044 117.681 165.87 118.105 165.559 118.419C165.248 118.733 164.826 118.912 164.385 118.915H148.35C148.131 118.916 147.915 118.874 147.712 118.791C147.51 118.708 147.325 118.585 147.17 118.431C147.015 118.277 146.891 118.093 146.807 117.891C146.722 117.688 146.678 117.471 146.677 117.252V116.12C146.677 112.207 145.074 108.876 141.867 106.128C138.66 103.38 134.268 102.005 128.691 102.005C124.312 102.005 120.896 102.937 118.442 104.8C117.246 105.68 116.283 106.841 115.639 108.182C114.994 109.522 114.688 111 114.747 112.487C114.685 114.649 115.46 116.752 116.909 118.356C118.734 120.201 120.917 121.651 123.322 122.619C126.153 123.876 130.545 125.577 136.499 127.72C141.788 129.593 146.977 131.739 152.045 134.148C155.994 136.156 159.465 138.992 162.224 142.463C165.235 146.157 166.741 150.944 166.741 156.823C166.741 165.571 163.534 172.489 157.121 177.576C150.707 182.663 142.015 185.201 131.047 185.192C123.611 185.178 117.104 183.983 111.527 181.608Z" fill="black"/>
<path d="M105.95 176.018C100.373 173.642 96.0736 170.241 93.0526 165.816C89.9927 161.258 88.4102 155.866 88.5211 150.373V147.299C88.5202 147.078 88.5628 146.86 88.6466 146.656C88.7303 146.452 88.8535 146.267 89.0091 146.111C89.1646 145.955 89.3494 145.832 89.5529 145.748C89.7563 145.664 89.9743 145.621 90.1942 145.622H106.089C106.308 145.621 106.525 145.663 106.728 145.746C106.93 145.829 107.114 145.952 107.27 146.106C107.425 146.26 107.548 146.444 107.633 146.646C107.718 146.849 107.762 147.066 107.763 147.285V149.381C107.763 153.108 109.482 156.252 112.921 158.814C116.361 161.376 121.008 162.657 126.865 162.657C131.787 162.657 135.458 161.609 137.88 159.513C139.027 158.576 139.948 157.393 140.576 156.05C141.203 154.707 141.521 153.24 141.505 151.757C141.529 150.712 141.343 149.673 140.96 148.701C140.577 147.729 140.004 146.844 139.274 146.097C137.521 144.38 135.464 143.005 133.209 142.044C130.648 140.875 126.581 139.268 121.008 137.223C115.584 135.414 110.295 133.219 105.183 130.654C100.917 128.462 97.1994 125.333 94.3075 121.501C91.3794 117.639 89.9154 112.864 89.9154 107.176C89.8044 101.954 91.3148 96.8267 94.2377 92.5025C97.2378 88.21 101.398 84.8648 106.229 82.8596C111.341 80.6236 117.244 79.5056 123.937 79.5056C130.432 79.3866 136.876 80.6736 142.829 83.2789C148.039 85.5311 152.527 89.1826 155.797 93.8301C158.941 98.459 160.574 103.953 160.467 109.552V111.648C160.467 112.091 160.293 112.515 159.982 112.829C159.672 113.143 159.25 113.322 158.808 113.325H142.774C142.555 113.326 142.338 113.284 142.135 113.201C141.933 113.118 141.749 112.996 141.593 112.841C141.438 112.687 141.315 112.503 141.23 112.301C141.145 112.099 141.101 111.882 141.1 111.662V110.53C141.1 106.617 139.497 103.287 136.29 100.538C133.083 97.7897 128.691 96.4155 123.114 96.4155C118.736 96.4155 115.32 97.3472 112.866 99.2105C111.669 100.091 110.706 101.252 110.062 102.592C109.418 103.932 109.112 105.41 109.171 106.897C109.109 109.06 109.883 111.163 111.332 112.766C113.157 114.611 115.34 116.061 117.746 117.029C120.576 118.287 124.968 119.987 130.922 122.13C136.211 124.003 141.4 126.149 146.469 128.558C150.417 130.566 153.888 133.402 156.647 136.873C159.659 140.567 161.165 145.354 161.165 151.233C161.165 159.986 157.958 166.904 151.544 171.986C145.13 177.068 136.439 179.607 125.47 179.602C118.029 179.588 111.523 178.393 105.95 176.018Z" fill="white"/>
<path d="M125.47 180.979C117.878 180.979 111.129 179.742 105.405 177.304C99.9728 175.111 95.2848 171.397 91.9015 166.606C88.6852 161.815 87.0179 156.147 87.126 150.374V147.299C87.126 146.895 87.2054 146.496 87.3595 146.123C87.5137 145.75 87.7396 145.411 88.0245 145.125C88.3093 144.84 88.6475 144.613 89.0196 144.459C89.3918 144.304 89.7907 144.225 90.1935 144.225H106.089C106.491 144.224 106.889 144.302 107.26 144.455C107.632 144.609 107.97 144.834 108.255 145.118C108.54 145.402 108.766 145.74 108.92 146.112C109.075 146.484 109.155 146.882 109.156 147.285V149.381C109.156 152.673 110.662 155.391 113.75 157.69C116.839 159.989 121.335 161.26 126.864 161.26C131.423 161.26 134.818 160.317 136.966 158.465C137.963 157.659 138.764 156.636 139.309 155.474C139.853 154.312 140.127 153.041 140.11 151.757C140.135 150.892 139.985 150.03 139.669 149.224C139.352 148.418 138.876 147.685 138.269 147.069C136.633 145.483 134.722 144.212 132.629 143.316C130.106 142.17 126.034 140.563 120.527 138.537C115.052 136.712 109.715 134.498 104.555 131.913C100.103 129.616 96.2221 126.347 93.1983 122.347C90.0959 118.252 88.5203 113.144 88.5203 107.177C88.4154 101.674 90.0103 96.2725 93.0867 91.7131C96.2374 87.2128 100.602 83.7055 105.67 81.6022C110.934 79.2753 117.104 78.1084 123.936 78.1084C130.633 78.0117 137.274 79.358 143.407 82.0563C148.851 84.4041 153.547 88.2064 156.981 93.0478C160.267 97.9184 161.971 103.688 161.861 109.566V111.663C161.861 112.476 161.54 113.256 160.968 113.832C160.395 114.408 159.619 114.733 158.807 114.737H142.773C141.964 114.732 141.191 114.405 140.622 113.828C140.054 113.252 139.737 112.473 139.74 111.663V110.545C139.74 107.051 138.346 104.109 135.418 101.615C132.49 99.12 128.356 97.8273 123.148 97.8273C119.111 97.8273 115.946 98.6727 113.736 100.343C112.713 101.092 111.89 102.085 111.343 103.231C110.795 104.377 110.54 105.642 110.599 106.911C110.542 108.714 111.187 110.468 112.398 111.802C114.094 113.502 116.117 114.838 118.345 115.729C121.133 116.973 125.546 118.678 131.43 120.795C136.77 122.705 142.01 124.883 147.13 127.322C151.252 129.421 154.877 132.38 157.762 136C160.983 139.92 162.642 145.042 162.642 151.212C162.642 160.38 159.226 167.731 152.491 173.062C145.757 178.394 136.708 180.979 125.47 180.979ZM90.1935 147.041C90.1587 147.039 90.1239 147.044 90.091 147.055C90.0582 147.067 90.0279 147.085 90.002 147.108C89.9761 147.132 89.955 147.16 89.9401 147.192C89.9251 147.223 89.9164 147.257 89.9147 147.292V150.395C89.8053 155.611 91.3024 160.735 94.2022 165.068C97.0535 169.261 101.174 172.51 106.493 174.774C111.812 177.038 118.261 178.205 125.47 178.205C136.066 178.205 144.551 175.745 150.679 170.889C156.807 166.033 159.77 159.618 159.77 151.233C159.77 145.727 158.375 141.206 155.587 137.796C152.933 134.483 149.606 131.774 145.826 129.851C140.801 127.47 135.659 125.345 130.419 123.486C124.487 121.347 120.018 119.621 117.173 118.35C114.59 117.311 112.244 115.756 110.279 113.78C108.587 111.909 107.683 109.456 107.755 106.932C107.695 105.229 108.051 103.537 108.79 102.003C109.53 100.469 110.632 99.1388 112.001 98.1277C114.705 96.0873 118.435 95.0532 123.092 95.0532C128.983 95.0532 133.724 96.5555 137.175 99.5112C138.825 100.84 140.158 102.523 141.075 104.436C141.992 106.349 142.469 108.443 142.473 110.566V111.684C142.47 111.72 142.475 111.756 142.489 111.79C142.502 111.824 142.523 111.855 142.55 111.879C142.574 111.909 142.605 111.932 142.64 111.947C142.676 111.961 142.714 111.967 142.752 111.963H158.787C158.821 111.965 158.856 111.96 158.889 111.948C158.922 111.937 158.952 111.919 158.978 111.895C159.004 111.872 159.025 111.844 159.04 111.812C159.055 111.781 159.064 111.746 159.065 111.712V109.615C159.179 104.284 157.637 99.0484 154.652 94.6339C151.519 90.1982 147.228 86.7122 142.25 84.5579C136.476 82.0429 130.231 80.7991 123.936 80.9104C117.466 80.9104 111.694 82.0004 106.786 84.1456C102.199 86.0552 98.2468 89.2292 95.3873 93.2993C92.6285 97.404 91.204 102.263 91.309 107.212C91.309 112.557 92.7033 117.092 95.4152 120.691C98.1839 124.356 101.742 127.349 105.824 129.446C110.876 131.979 116.102 134.148 121.461 135.937C127.038 137.992 131.221 139.634 133.787 140.829C136.201 141.863 138.402 143.339 140.277 145.182C141.128 146.056 141.798 147.09 142.247 148.224C142.697 149.359 142.919 150.571 142.898 151.792C142.915 153.474 142.554 155.138 141.843 156.662C141.133 158.186 140.09 159.53 138.792 160.596C136.122 162.909 132.113 164.09 126.864 164.09C120.722 164.09 115.751 162.693 112.091 159.968C108.292 157.173 106.367 153.595 106.367 149.416V147.32C106.37 147.282 106.364 147.244 106.35 147.209C106.335 147.174 106.313 147.142 106.284 147.117C106.259 147.09 106.229 147.07 106.195 147.056C106.161 147.043 106.125 147.038 106.089 147.041H90.1935Z" fill="black"/>
<path d="M340.076 71.5394C340.013 71.4484 339.988 71.337 340.005 71.2279C340.022 71.1188 340.08 71.0203 340.166 70.9524C342.46 69.2195 356.529 59.0736 365.912 64.6636C365.912 64.6636 377.429 70.1978 377.548 84.0401C377.549 84.1074 377.534 84.1739 377.505 84.2346C377.476 84.2952 377.434 84.3483 377.38 84.3895C376.112 85.3677 367.467 91.1744 349.062 83.4182C348.215 83.0504 347.49 82.4495 346.971 81.6853L340.076 71.5394Z" fill="white"/>
<path d="M365.026 85.4782C366.804 79.6366 362.935 73.816 359.623 71.8175C355.545 69.5326 350.295 73.9837 348.406 78.8749C347.968 79.2972 347.63 79.8128 347.417 80.3838C347.205 80.9547 347.123 81.5663 347.179 82.1731L348.162 83.4797C348.691 84.2006 349.417 84.7517 350.253 85.0659C354.342 86.6008 358.629 87.542 362.983 87.8609C364.203 87.1901 364.991 86.3586 365.026 85.4782Z" fill="#688564"/>
<path d="M417.168 93.7561L415.014 92.128C414.366 90.9331 413.25 90.2273 412.225 89.3888C411.605 88.8578 411.389 87.9913 410.636 87.5511C409.346 85.8881 407.778 84.4417 406.683 82.6598C406.125 81.7515 405.393 80.9898 404.78 80.1373C404.083 79.1381 403.567 78.0411 402.856 77.0139C401.547 75.1406 400.518 73.0855 399.802 70.9138C399.468 69.9076 399.049 68.9223 398.631 67.958C397.67 65.7044 397.043 63.3221 396.77 60.8866C396.581 59.3424 396.379 57.7981 396.149 56.2539C396.051 55.7811 395.925 55.3144 395.773 54.8564C395.866 54.5465 395.929 54.2282 395.961 53.9061C395.976 51.2319 396.141 48.5608 396.456 45.9053C396.451 45.5038 396.394 45.1047 396.289 44.7174C396.608 44.3486 396.833 43.9073 396.944 43.4317C397.09 42.5443 397.251 41.6639 397.453 40.7904C397.655 39.5712 398.103 38.4061 398.77 37.3665C398.889 37.2058 398.77 36.9053 398.812 36.6678C399.468 35.0047 400.067 33.3137 400.792 31.6787C401.663 29.6707 402.671 27.7258 403.811 25.858C404.097 25.4483 404.25 24.9605 404.25 24.4605C404.855 23.8995 405.303 23.1886 405.547 22.3992C405.578 22.1437 405.68 21.9019 405.84 21.7004C406.92 20.6313 407.325 19.164 408.015 17.8782C408.783 16.5369 409.441 15.1347 409.981 13.6857C410.425 12.5415 411.059 11.4807 411.856 10.5483C411.961 10.4225 412.079 10.3037 412.225 10.136C412.686 9.90546 413.208 9.66089 413.71 9.38139C414.253 9.06029 414.866 8.87713 415.495 8.8479C416.125 8.81867 416.752 8.94425 417.322 9.21369C417.87 9.99718 418.357 10.8218 418.779 11.6803C419.086 12.414 419.769 12.7634 420.138 13.4132C421.264 15.2087 422.542 16.9036 423.959 18.4792C425.151 19.9396 426.05 21.6166 427.221 23.056C428.699 25.886 430.526 28.5133 431.823 31.4411C432.77 33.6139 433.578 35.8451 434.242 38.1212C434.38 38.7648 434.482 39.4157 434.548 40.0707C434.624 40.8058 434.791 41.5286 435.043 42.2229C435.294 42.8336 435.408 43.4918 435.378 44.1514C435.294 45.9472 435.378 47.75 435.294 49.5458C435.248 50.1981 435.264 50.8533 435.343 51.5023C435.569 52.7965 435.612 54.1163 435.469 55.4224C435.35 56.3237 435.469 57.2321 435.413 58.1195C435.324 60.1645 435.091 62.2007 434.716 64.2127C434.19 66.9437 433.456 69.6302 432.52 72.2484C432.35 72.7893 432.116 73.3077 431.823 73.7926C431.251 74.5892 431.223 75.6793 430.484 76.392C430.282 77.7895 428.957 78.7049 428.685 80.1303C428.602 80.5706 428.155 80.9479 427.87 81.3532C427.305 82.1497 426.58 82.8485 426.42 83.8896C426.379 84.0487 426.3 84.1952 426.19 84.3159C425.007 85.9975 423.727 87.6074 422.355 89.1373C422.101 88.8586 421.92 88.5217 421.826 88.1562C421.733 87.7907 421.73 87.4078 421.818 87.041C422.139 84.9448 421.853 82.7926 421.916 80.6684C421.901 79.7722 422.023 78.879 422.278 78.0201C422.955 77.2887 423.549 76.485 424.049 75.6234C424.502 74.6591 425.116 73.7856 425.555 72.8283C425.889 71.9959 426.32 71.2055 426.838 70.4735C426.941 70.3451 427.019 70.1981 427.068 70.0403C427.563 68.3982 428.295 66.826 428.525 65.1001C428.618 64.5335 428.57 63.9527 428.386 63.4091C428.337 63.2694 428.183 63.1716 428.079 63.0528C427.444 62.9549 427.012 63.3672 426.461 63.6956C425.806 64.5551 425.102 65.4635 424.405 66.3858C423.927 66.9465 423.571 67.601 423.359 68.3074C423.282 68.6233 423.138 68.919 422.937 69.1745C422.736 69.43 422.483 69.6395 422.195 69.7888C422.125 69.7189 422.021 69.67 422.014 69.6071C421.896 68.3927 421.852 67.1723 421.881 65.9526C421.907 65.0525 421.877 64.1517 421.79 63.2554C421.735 62.2771 421.839 61.2849 421.714 60.3206C421.56 58.9087 421.56 57.4842 421.714 56.0722C422.181 55.4643 422.634 54.7725 423.185 54.1716C423.736 53.5707 423.833 52.6763 424.265 51.9845C424.44 51.705 424.67 51.4604 424.837 51.1809C424.996 50.925 425.138 50.6589 425.262 50.3843C425.918 48.889 426.517 47.3727 427.033 45.8285C427.761 43.8236 428.182 41.7198 428.281 39.5886C428.25 38.2018 428.319 36.8145 428.49 35.438C428.49 35.3751 428.427 35.2912 428.365 35.1585C428.184 35.0375 427.983 34.95 427.772 34.8999C427.403 34.8999 427.193 35.1724 427.075 35.4799C426.981 35.8766 426.848 36.2629 426.678 36.6328C425.891 37.9586 425.246 39.3639 424.753 40.8254C423.917 42.9216 423.094 45.0738 422.258 47.191C422.149 47.4139 422.011 47.6208 421.846 47.8059C421.805 47.8755 421.749 47.9356 421.683 47.9826C421.617 48.0295 421.542 48.0622 421.463 48.0786C421.383 48.095 421.302 48.0948 421.222 48.0779C421.143 48.0611 421.068 48.0279 421.003 47.9806C420.729 47.5696 420.618 47.0718 420.689 46.5831C420.798 45.5196 420.748 44.4458 420.543 43.3968C420.152 40.2943 419.748 37.1918 419.364 34.0894C419.143 32.96 419.075 31.806 419.162 30.6585C419.229 30.0006 419.156 29.336 418.946 28.709C418.576 27.3646 418.285 25.9997 418.075 24.6212C418.029 24.2181 417.901 23.8287 417.698 23.4776C417.496 23.1265 417.223 22.8212 416.896 22.5809C416.137 22.504 415.405 22.4132 414.805 23.1469C414.788 24.3775 414.962 25.6033 415.321 26.7804C416.018 28.667 416.018 30.6515 416.29 32.594C416.133 34.0693 416.23 35.5606 416.576 37.0032C416.889 38.8758 416.576 40.7764 416.869 42.6491C416.731 43.7087 416.776 44.784 417.001 45.8285C417.071 46.5272 417.154 47.2958 417.238 48.0016C417.092 48.2601 416.98 48.4767 416.862 48.7003H416.82C416.216 48.2825 415.702 47.748 415.307 47.1281C414.547 45.8704 413.676 44.6825 412.839 43.4736C411.726 41.7032 410.193 40.2364 408.377 39.2043C408.158 39.1474 407.928 39.1483 407.709 39.2071C407.49 39.2659 407.291 39.3805 407.129 39.5397C406.988 39.713 406.894 39.9198 406.857 40.1401C406.819 40.3604 406.838 40.5868 406.913 40.7974C407.791 42.0354 408.58 43.3336 409.277 44.6825C410.531 47.2539 411.898 49.7764 413.222 52.3199C413.318 52.5456 413.432 52.763 413.564 52.9697C414.958 54.7795 415.858 56.9177 417.287 58.6227C417.384 59.4542 417.51 60.1879 417.552 60.9285C417.594 61.6692 417.454 62.4029 417.552 63.1296C417.81 65.743 417.552 68.3633 417.81 70.9766C417.943 71.7973 417.75 72.6376 417.273 73.3175C416.576 72.9541 416.353 72.1855 415.879 71.6544C414.947 70.6116 414.179 69.4337 413.599 68.1607C412.814 66.6377 411.867 65.204 410.775 63.8843C410.562 63.6376 410.366 63.3761 410.19 63.1017C409.318 61.5295 408.454 59.9503 407.596 58.3851C407.12 57.8824 406.558 57.4684 405.937 57.1623C405.4 57.1623 405.24 57.4487 405.01 57.8191C404.93 59.6844 405.369 61.5352 406.279 63.1646C406.655 63.7934 406.976 64.4573 407.366 65.0791C408.164 66.3136 408.888 67.5946 409.534 68.9153C410.835 71.6454 412.363 74.2609 414.101 76.7344C415.188 78.2716 416.06 79.9347 417.106 81.4859C417.147 81.6466 417.196 81.8074 417.224 81.9681C417.446 83.6736 417.476 85.3986 417.315 87.1109C417.083 89.3181 417.034 91.5408 417.168 93.7561Z" fill="#E6EBAF"/>
<path d="M396.316 44.6758C396.422 45.0631 396.478 45.4623 396.484 45.8637C396.167 48.5191 395.999 51.1902 395.982 53.8645C395.95 54.1866 395.887 54.5049 395.794 54.8148C391.687 53.6531 387.642 52.2794 383.677 50.6991C381.09 49.6542 378.612 48.3552 376.28 46.821C372.963 44.681 369.848 42.2415 366.973 39.533C365.479 38.1199 364.093 36.5971 362.825 34.9771C360.442 32.039 358.322 28.8964 356.488 25.5859C354.213 21.3774 352.658 16.8166 351.887 12.0929C351.51 9.89881 351.315 7.67677 351.106 5.46871C350.933 3.99398 350.973 2.5019 351.224 1.0386C351.292 0.744609 351.378 0.455211 351.482 0.172138C352.233 -0.013969 353.012 -0.0495897 353.776 0.0673251C355.254 0.144188 356.725 0.235026 358.203 0.318877C360.009 0.431099 361.794 0.771524 363.515 1.33208C368.354 2.89729 373.213 4.41359 377.96 6.22336C381.989 7.87755 385.868 9.87639 389.554 12.1977C390.683 12.8965 391.813 13.5393 392.907 14.294C394.004 15.0191 395.063 15.8004 396.079 16.6348C398.031 18.2699 399.963 19.9329 401.831 21.6728C402.691 22.5569 403.498 23.4901 404.25 24.4678C404.25 24.9678 404.097 25.4557 403.811 25.8654C402.666 27.7395 401.652 29.6914 400.778 31.707C400.081 33.342 399.454 35.033 398.798 36.6961C398.547 36.8568 398.352 37.1922 397.934 36.9546L395.361 31.672C394.438 29.8403 393.405 28.0668 392.266 26.3615C391.325 24.922 390.174 23.6154 389.373 22.0851C389.141 21.7447 388.848 21.4508 388.508 21.2186C388.379 21.1177 388.23 21.0439 388.072 21.0015C387.913 20.9591 387.748 20.949 387.585 20.9718C387.423 20.9946 387.266 21.0498 387.126 21.1342C386.985 21.2186 386.862 21.3305 386.765 21.4632C386.644 21.6471 386.554 21.8503 386.5 22.0641C386.602 23.6561 387.114 25.1944 387.985 26.5292C389.017 28.3949 390.077 30.2466 391.088 32.1192C391.415 32.7794 391.697 33.4611 391.931 34.1596C391.956 34.2128 391.968 34.2706 391.967 34.3291C391.967 34.3876 391.953 34.4452 391.928 34.4979C391.903 34.5506 391.866 34.597 391.821 34.634C391.776 34.6709 391.723 34.6974 391.666 34.7116C390.844 34.4181 390.642 33.4748 389.924 33.0276C389.186 32.5068 388.476 31.947 387.797 31.3506C387.03 30.7357 386.256 30.1138 385.497 29.4919C385.085 29.2198 384.71 28.8957 384.381 28.5276C383.646 27.641 382.803 26.8499 381.871 26.1728L380.644 25.0897C379.745 19.6115 377.633 14.3359 375.381 11.9112C375.226 11.8587 375.067 11.8167 374.907 11.7854C374.745 11.768 374.581 11.768 374.419 11.7854C374.212 11.7819 374.007 11.8245 373.818 11.9103C373.63 11.9961 373.463 12.1229 373.329 12.2814C373.196 12.44 373.099 12.6264 373.046 12.827C372.994 13.0277 372.986 13.2376 373.024 13.4415C373.077 14.0995 373.252 14.7418 373.54 15.3351C373.875 15.9919 374.238 16.6558 374.489 17.3405C374.837 18.1721 375.137 19.0315 375.43 19.884C375.471 20.0028 375.367 20.1775 375.311 20.3941C373.568 19.1224 371.944 17.7458 370.264 16.4392C368.584 15.1325 367.029 13.9027 365.384 12.6589C363.749 11.3225 362.048 10.0701 360.287 8.90658C360.119 8.88276 359.947 8.89814 359.786 8.95155C359.624 9.00495 359.477 9.09493 359.355 9.21453C359.234 9.33412 359.142 9.48011 359.086 9.64119C359.03 9.80227 359.012 9.9741 359.033 10.1434C359.234 10.777 359.605 11.3428 360.106 11.7785C361.188 12.6628 362.197 13.6325 363.125 14.6783C363.835 15.3615 364.582 16.0053 365.363 16.6069C366.144 17.3056 366.855 18.1232 367.622 18.8568C369.106 20.2544 370.612 21.6519 372.09 23.0494C372.318 23.2085 372.508 23.4165 372.645 23.6582C372.782 23.9 372.864 24.1694 372.885 24.4469C372.726 24.4777 372.565 24.4987 372.404 24.5098C370.762 24.4 369.131 24.1664 367.524 23.811C366.228 23.5589 364.912 23.4302 363.592 23.4267L362.553 24.0905C362.49 24.5028 362.428 24.9011 362.365 25.2994C362.911 26.0663 363.704 26.6215 364.61 26.8716C366.941 27.6306 369.321 28.226 371.735 28.6534C372.216 28.7533 372.707 28.8048 373.199 28.8071C374.175 28.7722 375.186 28.8071 376.029 28.1782C376.184 28.0459 376.371 27.9589 376.572 27.9268C376.772 27.8948 376.978 27.9189 377.166 27.9966L381.139 31.3226C381.775 32.1864 382.55 32.9375 383.433 33.5447C384.507 34.4391 385.608 35.2986 386.696 36.179C387.002 36.4305 387.281 36.724 387.546 36.9686C387.522 37.1452 387.431 37.3059 387.292 37.4176C387.154 37.5293 386.978 37.5837 386.8 37.5695C384.918 37.5695 383.029 37.5136 381.146 37.4926C379.752 37.4926 378.358 37.4926 376.963 37.4926C376.556 37.5332 376.155 37.6151 375.764 37.7372C375.617 37.8068 375.493 37.9165 375.406 38.0537C375.318 38.1909 375.271 38.35 375.269 38.5128C375.258 38.6776 375.28 38.8429 375.334 38.999C375.388 39.1551 375.473 39.2987 375.583 39.4212C376.03 39.9103 376.63 40.233 377.284 40.3366C378.985 40.6091 380.7 40.8117 382.38 41.1751C385.274 41.8091 388.262 41.8897 391.185 41.4127C391.717 41.2526 392.289 41.2975 392.789 41.5384C393.777 42.7788 394.97 43.8401 396.316 44.6758Z" fill="#3D6334"/>
<path d="M417.169 93.7555C417.018 91.5533 417.048 89.3424 417.26 87.1453C417.421 85.433 417.391 83.7079 417.169 82.0024C417.169 81.8417 417.092 81.681 417.05 81.5203C416.005 79.9691 415.133 78.306 414.046 76.7688C412.308 74.2953 410.78 71.6798 409.479 68.9497C408.833 67.629 408.109 66.348 407.311 65.1135C406.907 64.4916 406.614 63.8278 406.224 63.1989C405.314 61.5696 404.875 59.7188 404.955 57.8535C405.171 57.4831 405.345 57.2106 405.882 57.1966C406.503 57.5028 407.065 57.9168 407.541 58.4195C408.399 59.9847 409.263 61.5639 410.135 63.1361C410.311 63.4104 410.507 63.672 410.72 63.9187C411.812 65.2384 412.758 66.6721 413.544 68.195C414.124 69.4681 414.892 70.646 415.823 71.6888C416.325 72.2199 416.521 72.9885 417.218 73.3519C417.187 73.4228 417.168 73.4983 417.162 73.5755C417.162 73.6244 417.239 73.6663 417.28 73.7082L417.232 73.3449C417.709 72.665 417.902 71.8246 417.768 71.004C417.524 68.3907 417.768 65.7704 417.511 63.157C417.434 62.4583 417.566 61.6826 417.511 60.9559C417.455 60.2292 417.343 59.4816 417.246 58.65C415.816 56.9451 414.931 54.8069 413.523 52.9971C413.391 52.7904 413.277 52.573 413.181 52.3473C411.857 49.8038 410.49 47.2813 409.235 44.7099C408.539 43.361 407.749 42.0628 406.872 40.8248C406.797 40.6142 406.778 40.3878 406.815 40.1675C406.853 39.9472 406.947 39.7404 407.088 39.567C407.249 39.4079 407.449 39.2933 407.668 39.2345C407.887 39.1757 408.117 39.1747 408.336 39.2316C410.152 40.2638 411.685 41.7306 412.798 43.501C413.634 44.7099 414.506 45.8978 415.266 47.1555C415.66 47.7754 416.175 48.3099 416.779 48.7277C416.779 48.8815 416.535 49.133 416.946 49.0841L416.82 48.7277C416.939 48.5111 417.05 48.2945 417.197 48.029C417.113 47.3302 417.03 46.5895 416.96 45.8558C416.752 44.7915 416.731 43.6992 416.897 42.6276C416.611 40.7549 416.897 38.8543 416.604 36.9816C416.259 35.5391 416.162 34.0478 416.318 32.5725C416.012 30.63 416.026 28.6455 415.349 26.7589C414.991 25.5818 414.817 24.356 414.833 23.1253C415.398 22.4266 416.13 22.4825 416.925 22.5593C417.256 22.7984 417.533 23.1039 417.74 23.4564C417.946 23.8089 418.077 24.2007 418.124 24.6067C418.335 25.9851 418.626 27.35 418.995 28.6944C419.205 29.3214 419.279 29.9861 419.212 30.6439C419.125 31.7915 419.193 32.9455 419.414 34.0748C419.797 37.1773 420.202 40.2798 420.592 43.3822C420.798 44.4313 420.847 45.505 420.738 46.5686C420.667 47.0573 420.779 47.5551 421.052 47.9661C421.118 48.0134 421.193 48.0465 421.272 48.0634C421.351 48.0802 421.433 48.0805 421.512 48.0641C421.591 48.0477 421.666 48.0149 421.732 47.968C421.798 47.9211 421.854 47.8609 421.896 47.7914C422.06 47.6063 422.199 47.3994 422.307 47.1765C423.144 45.0802 423.966 42.9281 424.803 40.8108C425.295 39.3493 425.94 37.944 426.727 36.6183C426.898 36.2484 427.031 35.8621 427.124 35.4653C427.25 35.1579 427.459 34.8644 427.821 34.8854C428.033 34.9354 428.233 35.023 428.414 35.1439C428.477 35.2767 428.546 35.3605 428.54 35.4234C428.369 36.8 428.299 38.1872 428.33 39.574C428.231 41.7052 427.81 43.8091 427.082 45.8139C426.567 47.3582 425.967 48.8745 425.312 50.3698C425.184 50.6713 425.035 50.9632 424.865 51.2432C424.698 51.5227 424.468 51.7673 424.294 52.0468C423.862 52.7456 423.799 53.598 423.213 54.2339C422.628 54.8698 422.209 55.5266 421.742 56.1345C421.589 57.5465 421.589 58.971 421.742 60.383C421.868 61.3472 421.742 62.3395 421.819 63.3177C421.905 64.214 421.935 65.1148 421.91 66.0149C421.881 67.2347 421.925 68.455 422.042 69.6694C422.042 69.7323 422.154 69.7812 422.223 69.8511C422.512 69.7018 422.765 69.4924 422.966 69.2368C423.166 68.9813 423.31 68.6856 423.388 68.3697C423.599 67.6633 423.955 67.0088 424.433 66.4482C425.13 65.5258 425.828 64.6174 426.49 63.7579C427.041 63.4295 427.473 63.0173 428.107 63.1151C428.212 63.2339 428.365 63.3317 428.414 63.4715C428.598 64.0151 428.646 64.5959 428.553 65.1624C428.323 66.8884 427.591 68.4606 427.096 70.1026C427.048 70.2604 426.97 70.4074 426.866 70.5359C426.348 71.2679 425.918 72.0582 425.584 72.8907C425.144 73.841 424.531 74.7144 424.078 75.6857C423.577 76.5473 422.983 77.351 422.307 78.0824C422.051 78.9413 421.929 79.8345 421.944 80.7307C421.882 82.827 422.168 84.9791 421.847 87.1034C421.758 87.4701 421.761 87.853 421.855 88.2185C421.948 88.584 422.13 88.9209 422.384 89.1996L421.903 89.8984C421.743 89.8972 421.585 89.9347 421.443 90.0077C421.301 90.0807 421.179 90.187 421.087 90.3176L420.39 91.2889C419.937 91.82 419.518 92.3859 418.995 92.8821C418.784 93.1647 418.507 93.3917 418.189 93.5439C417.871 93.696 417.521 93.7686 417.169 93.7555ZM421.08 49.119V49.2448L421.171 49.1609L421.08 49.119Z" fill="#BBCB7D"/>
<path d="M396.318 44.6755C394.985 43.8296 393.806 42.7614 392.832 41.5171C392.332 41.2762 391.76 41.2313 391.229 41.3914C388.305 41.8684 385.317 41.7878 382.424 41.1538C380.743 40.7904 379.028 40.5878 377.327 40.3153C376.673 40.2117 376.074 39.889 375.626 39.3999C375.516 39.2774 375.431 39.1338 375.377 38.9777C375.323 38.8217 375.301 38.6563 375.313 38.4915C375.314 38.3366 375.357 38.1849 375.436 38.0522C375.516 37.9195 375.63 37.8106 375.766 37.7369C376.157 37.6242 376.559 37.5517 376.965 37.5203C378.359 37.5203 379.753 37.5203 381.148 37.5203C383.03 37.5203 384.919 37.5832 386.802 37.5971C386.979 37.6113 387.155 37.5569 387.294 37.4452C387.433 37.3335 387.523 37.1729 387.548 36.9962C387.283 36.7516 387.004 36.4582 386.697 36.2066C385.61 35.3262 384.508 34.4667 383.434 33.5723C382.546 32.9754 381.764 32.2338 381.12 31.3782L377.16 28.0102C376.972 27.9326 376.767 27.9084 376.566 27.9405C376.366 27.9726 376.178 28.0596 376.024 28.1919C375.18 28.8347 374.169 28.7858 373.193 28.8208C372.701 28.8184 372.211 28.7669 371.729 28.667C369.318 28.2347 366.939 27.6347 364.611 26.8712C363.718 26.614 362.938 26.0595 362.401 25.299C362.464 24.9007 362.527 24.5025 362.59 24.0902L363.628 23.4264C364.948 23.4298 366.265 23.5585 367.56 23.8107C369.167 24.1661 370.798 24.3997 372.44 24.5094C372.602 24.4984 372.762 24.4774 372.921 24.4466C372.901 24.1691 372.819 23.8997 372.681 23.6579C372.544 23.4162 372.354 23.2082 372.127 23.049C370.649 21.6515 369.143 20.254 367.658 18.8565C366.891 18.1228 366.18 17.3262 365.399 16.6065C364.607 16.006 363.848 15.3622 363.126 14.678C362.196 13.6391 361.184 12.6764 360.101 11.7991C359.6 11.3588 359.231 10.7879 359.034 10.15C359.013 9.98076 359.031 9.80892 359.087 9.64785C359.143 9.48677 359.236 9.34078 359.357 9.22118C359.478 9.10159 359.625 9.0116 359.787 8.9582C359.949 8.9048 360.12 8.88941 360.289 8.91324C362.05 10.0768 363.751 11.3292 365.385 12.6655C367.023 13.9093 368.634 15.1811 370.265 16.4458C371.897 17.7106 373.57 19.129 375.313 20.4008C375.368 20.1842 375.473 20.0095 375.431 19.8907C375.138 19.0382 374.839 18.1787 374.49 17.3472C374.211 16.6484 373.876 15.9986 373.542 15.3418C373.253 14.7485 373.078 14.1061 373.026 13.4481C372.988 13.2443 372.995 13.0344 373.048 12.8337C373.1 12.6331 373.197 12.4467 373.331 12.2881C373.464 12.1295 373.631 12.0028 373.82 11.917C374.008 11.8312 374.213 11.7885 374.42 11.7921C374.582 11.7747 374.746 11.7747 374.908 11.7921C375.069 11.8233 375.227 11.8653 375.382 11.9179C377.634 14.3426 379.746 19.6042 380.646 25.0964L381.88 26.1585C382.811 26.8356 383.654 27.6267 384.39 28.5133C384.719 28.8814 385.093 29.2055 385.505 29.4776C386.265 30.0995 387.039 30.7214 387.806 31.3363C388.484 31.9327 389.194 32.4925 389.932 33.0133C390.629 33.4605 390.852 34.4108 391.675 34.6973C391.731 34.6831 391.784 34.6566 391.829 34.6197C391.875 34.5827 391.911 34.5363 391.936 34.4836C391.962 34.4309 391.975 34.3733 391.976 34.3148C391.976 34.2563 391.964 34.1985 391.94 34.1453C391.708 33.4446 391.428 32.7606 391.103 32.0979C390.092 30.2183 389.012 28.3666 388.001 26.5079C387.129 25.1731 386.618 23.6348 386.516 22.0428C386.57 21.829 386.659 21.6258 386.781 21.4419C386.878 21.3092 387 21.1973 387.141 21.1129C387.282 21.0285 387.438 20.9733 387.601 20.9505C387.763 20.9277 387.929 20.9378 388.087 20.9802C388.246 21.0226 388.394 21.0964 388.524 21.1973C388.863 21.4295 389.157 21.7234 389.388 22.0638C390.204 23.5941 391.34 24.9007 392.281 26.3402C393.42 28.0455 394.454 29.819 395.377 31.6507L397.949 36.9333C398.368 37.1709 398.563 36.8355 398.814 36.6748C398.814 36.9124 398.89 37.2128 398.772 37.3735C398.125 38.4038 397.691 39.5539 397.496 40.7555C397.294 41.629 397.134 42.5094 396.987 43.3968C396.871 43.8712 396.641 44.3101 396.318 44.6755Z" fill="#BBCB7D"/>
<path d="M383.917 74.3066L383.966 74.67C383.924 74.6281 383.855 74.5861 383.848 74.5372C383.854 74.4601 383.873 74.3846 383.903 74.3136L383.917 74.3066Z" fill="#E6EBAF"/>
<path d="M387.738 50.1152L387.858 50.1573L387.773 50.2416L387.738 50.1152Z" fill="#E6EBAF"/>
<path d="M383.556 49.6895L383.681 50.0458C383.27 50.0947 383.5 49.8432 383.514 49.6895H383.556Z" fill="#E6EBAF"/>
<path d="M93.0364 61.1494C93.9915 60.8559 95.0233 60.5275 96.3827 60.1432C97.7422 59.7589 99.1156 59.3256 100.698 58.9972L103.11 58.4452C103.947 58.2705 104.811 58.1308 105.69 57.977C107.447 57.6277 109.322 57.432 111.267 57.1944C112.229 57.0826 113.219 57.0407 114.209 56.9638L115.715 56.859C116.217 56.859 116.726 56.859 117.242 56.8171C118.266 56.8171 119.291 56.7612 120.33 56.7682L123.474 56.866C127.706 57.0817 131.916 57.6237 136.065 58.4871C140.068 59.3613 143.997 60.5433 147.819 62.0228C148.725 62.3862 149.611 62.7845 150.482 63.1548C150.914 63.3435 151.346 63.5251 151.772 63.7278L153.013 64.3427C153.828 64.7619 154.63 65.1532 155.397 65.5725L157.614 66.8652L158.667 67.4941L159.684 68.1369L161.623 69.3947C162.863 70.2122 164.014 70.9948 165.046 71.7285C166.724 72.8674 168.309 74.1385 169.786 75.5298C169.786 75.5298 177.65 84.4389 156.338 74.1323L152.943 72.1408C151.779 71.5469 150.621 70.918 149.457 70.331L147.624 69.4785C147.017 69.213 146.418 68.9126 145.797 68.682L143.929 67.9413L142.995 67.564L142.039 67.2425C136.866 65.4191 131.515 64.1518 126.075 63.4623C120.449 62.7445 114.762 62.632 109.113 63.1269C107.684 63.2736 106.247 63.4483 104.804 63.623C103.361 63.7977 101.932 64.0842 100.496 64.3706L98.3487 64.8458C97.6516 65.0065 96.8986 65.1602 96.2154 65.3349L92.0325 66.3481C92.0325 66.3481 79.1282 68.7099 83.5969 65.286C85.3259 64.0003 89.209 62.3233 93.0364 61.1494Z" fill="#3D6334"/>
<path d="M123.767 44.4904C124.632 44.3436 125.559 44.1829 126.786 44.0082C128.013 43.8335 129.254 43.6169 130.641 43.5331L132.782 43.3584C133.514 43.3584 134.274 43.3584 135.04 43.3095C136.588 43.2466 138.199 43.3584 139.858 43.4352C140.687 43.4772 141.524 43.603 142.374 43.6938L143.657 43.8405C144.083 43.8894 144.508 43.9803 144.94 44.0571C145.798 44.2109 146.669 44.3506 147.54 44.5323L150.148 45.1752C153.667 46.1313 157.085 47.4278 160.354 49.0463C163.545 50.6738 166.579 52.5943 169.417 54.783C170.114 55.3281 170.756 55.8941 171.404 56.4391C171.725 56.7116 172.052 56.9771 172.359 57.2566L173.265 58.1231C173.858 58.7031 174.451 59.2551 175.001 59.828L176.577 61.5749L177.323 62.4134L178.02 63.2729C178.487 63.8389 178.94 64.3909 179.372 64.929C180.237 66.005 181.032 67.0252 181.743 67.9755C182.92 69.4954 183.974 71.1078 184.894 72.7969C184.894 72.7969 189.565 83.5508 173.942 68.9957L171.523 66.3125C170.679 65.488 169.842 64.6215 168.978 63.804L167.639 62.6231C167.193 62.2388 166.754 61.8195 166.245 61.4701L164.851 60.3661L164.154 59.8141L163.456 59.304C159.58 56.531 155.362 54.2716 150.908 52.582C146.365 50.8721 141.615 49.7794 136.783 49.3327C135.549 49.2419 134.315 49.179 133.067 49.1161C131.82 49.0532 130.565 49.1161 129.303 49.172L127.4 49.3048C126.765 49.3467 126.117 49.3886 125.51 49.4515L121.801 49.8079C121.801 49.8079 110.48 50.1014 114.948 47.2714C116.698 46.1814 120.31 45.0773 123.767 44.4904Z" fill="#F5ACB9"/>
<path d="M271.167 171.316C265.567 167.189 261.535 161.275 259.734 154.545C258.396 149.914 257.738 145.112 257.782 140.291C257.715 135.284 258.373 130.295 259.734 125.477C261.639 118.911 265.721 113.192 271.307 109.266C276.884 105.353 283.577 103.396 291.385 103.396C299.007 103.396 305.514 105.33 310.905 109.196C316.297 113.063 320.108 118.443 322.339 125.337C323.838 130.083 324.59 135.034 324.569 140.011C324.603 144.786 323.946 149.541 322.617 154.126C320.568 161.393 316.78 167.1 311.254 171.246C305.728 175.392 299.058 177.465 291.245 177.465C283.437 177.465 276.745 175.415 271.167 171.316ZM299.054 157.76C301.306 155.705 302.906 153.032 303.655 150.073C304.422 146.87 304.797 143.585 304.77 140.291C304.835 136.949 304.46 133.612 303.655 130.368C302.817 127.494 301.171 124.923 298.914 122.962C296.661 121.239 293.905 120.306 291.071 120.306C288.237 120.306 285.482 121.239 283.228 122.962C281.017 124.925 279.44 127.503 278.697 130.368C277.953 132.604 277.581 135.912 277.581 140.291C277.581 144.483 277.907 147.744 278.557 150.073C279.305 153.049 280.934 155.728 283.228 157.76C285.468 159.646 288.321 160.64 291.245 160.555C294.105 160.63 296.889 159.634 299.054 157.76Z" fill="black"/>
<path d="M265.841 166.347C260.245 162.216 256.213 156.303 254.408 149.577C253.071 144.945 252.413 140.143 252.456 135.322C252.389 130.316 253.046 125.326 254.408 120.508C256.313 113.942 260.395 108.224 265.981 104.297C271.558 100.384 278.251 98.4277 286.059 98.4277C293.676 98.4277 300.183 100.361 305.579 104.227C310.975 108.094 314.786 113.474 317.012 120.369C318.511 125.114 319.264 130.065 319.243 135.043C319.289 139.809 318.644 144.556 317.326 149.136C315.281 156.403 311.493 162.11 305.962 166.256C300.432 170.402 293.762 172.475 285.954 172.475C278.123 172.489 271.418 170.446 265.841 166.347ZM293.727 152.791C295.983 150.739 297.584 148.065 298.329 145.105C299.099 141.902 299.474 138.616 299.444 135.322C299.512 131.98 299.137 128.643 298.329 125.4C297.495 122.524 295.849 119.951 293.588 117.993C291.335 116.27 288.579 115.337 285.745 115.337C282.911 115.337 280.155 116.27 277.902 117.993C275.706 119.954 274.141 122.524 273.405 125.379C272.662 127.615 272.29 130.922 272.29 135.301C272.193 138.59 272.521 141.879 273.266 145.084C274.019 148.057 275.646 150.735 277.937 152.77C280.177 154.655 283.03 155.649 285.954 155.565C288.799 155.638 291.569 154.649 293.727 152.791Z" fill="white"/>
<path d="M285.954 173.894C277.881 173.894 270.847 171.735 265.039 167.473C259.197 163.156 254.986 156.984 253.09 149.962C251.715 145.194 251.039 140.251 251.082 135.288C251.018 130.146 251.697 125.023 253.097 120.076C255.095 113.209 259.366 107.228 265.207 103.117C270.993 99.0504 278.02 96.9961 286.079 96.9961C293.964 96.9961 300.803 99.0365 306.415 103.054C312.028 107.072 316.05 112.753 318.365 119.901C319.901 124.788 320.675 129.884 320.658 135.008C320.691 139.918 320.014 144.806 318.651 149.522C316.559 157.04 312.543 163.049 306.799 167.361C301.054 171.672 293.999 173.894 285.954 173.894ZM286.093 99.826C278.613 99.826 272.15 101.713 266.817 105.416C261.492 109.172 257.599 114.629 255.774 120.894C254.457 125.588 253.821 130.447 253.885 135.323C253.847 140.009 254.486 144.676 255.781 149.179C257.505 155.6 261.342 161.248 266.671 165.209C271.976 169.115 278.453 171.092 285.919 171.092C293.386 171.092 299.862 169.094 305.098 165.153C310.333 161.212 314.001 155.705 315.932 148.774C317.222 144.313 317.861 139.688 317.828 135.043C317.848 130.211 317.118 125.404 315.667 120.796C313.575 114.227 309.866 109.036 304.749 105.36C299.632 101.685 293.351 99.826 286.059 99.826H286.093ZM285.954 156.984C282.7 157.066 279.529 155.953 277.037 153.854C274.534 151.635 272.754 148.714 271.927 145.469C271.23 142.988 270.895 139.662 270.895 135.302C270.895 130.725 271.286 127.336 272.088 124.932C272.907 121.824 274.63 119.029 277.037 116.904C279.543 114.973 282.616 113.927 285.776 113.927C288.937 113.927 292.009 114.973 294.515 116.904C296.974 119.039 298.771 121.834 299.695 124.96C300.542 128.345 300.938 131.827 300.873 135.316C300.903 138.723 300.514 142.121 299.716 145.434C298.893 148.662 297.143 151.578 294.682 153.819C292.265 155.923 289.154 157.051 285.954 156.984ZM285.815 116.736C283.285 116.632 280.805 117.46 278.843 119.063C276.844 120.85 275.419 123.192 274.751 125.792C274.054 127.888 273.691 131.109 273.691 135.323C273.597 138.485 273.908 141.646 274.618 144.728C275.299 147.429 276.773 149.864 278.85 151.716C280.835 153.39 283.368 154.269 285.961 154.182C288.485 154.262 290.947 153.387 292.856 151.73C294.899 149.858 296.353 147.43 297.039 144.742C297.772 141.664 298.127 138.508 298.098 135.344C298.165 132.127 297.806 128.915 297.032 125.792C296.275 123.193 294.789 120.867 292.751 119.091C290.789 117.485 288.311 116.649 285.78 116.736H285.815Z" fill="black"/>
<path d="M236.735 121.186C241.29 125.747 243.567 131.943 243.567 139.773V185.612C243.568 185.832 243.525 186.051 243.442 186.254C243.358 186.458 243.235 186.644 243.079 186.8C242.924 186.955 242.739 187.079 242.535 187.163C242.332 187.247 242.114 187.29 241.894 187.289H225.581C225.361 187.29 225.143 187.247 224.939 187.163C224.736 187.079 224.551 186.955 224.395 186.8C224.24 186.644 224.117 186.458 224.033 186.254C223.949 186.051 223.906 185.832 223.907 185.612V143.826C223.907 140.099 222.862 137.071 220.77 134.742C219.689 133.636 218.398 132.757 216.973 132.157C215.549 131.557 214.019 131.248 212.474 131.248C210.929 131.248 209.399 131.557 207.975 132.157C206.55 132.757 205.259 133.636 204.178 134.742C202.086 137.071 201.041 140.099 201.041 143.826V185.612C201.042 185.832 200.999 186.051 200.915 186.254C200.831 186.458 200.708 186.644 200.553 186.8C200.397 186.955 200.212 187.079 200.009 187.163C199.805 187.247 199.587 187.29 199.367 187.289H183.054C182.834 187.29 182.616 187.247 182.413 187.163C182.209 187.079 182.024 186.955 181.869 186.8C181.713 186.644 181.59 186.458 181.506 186.254C181.423 186.051 181.38 185.832 181.381 185.612V91.1399C181.38 90.9194 181.423 90.7009 181.506 90.4971C181.59 90.2932 181.713 90.1079 181.869 89.952C182.024 89.7961 182.209 89.6726 182.413 89.5887C182.616 89.5047 182.834 89.462 183.054 89.4629H199.367C199.587 89.462 199.805 89.5047 200.009 89.5887C200.212 89.6726 200.397 89.7961 200.553 89.952C200.708 90.1079 200.831 90.2932 200.915 90.4971C200.999 90.7009 201.042 90.9194 201.041 91.1399V122.025C201.026 122.135 201.045 122.248 201.095 122.347C201.145 122.447 201.223 122.529 201.32 122.584C201.355 122.608 201.395 122.623 201.437 122.629C201.48 122.634 201.522 122.63 201.563 122.617C201.603 122.603 201.64 122.581 201.67 122.551C201.701 122.521 201.724 122.484 201.738 122.444C205.544 117.045 211.214 114.343 218.748 114.339C226.18 114.329 232.176 116.612 236.735 121.186Z" fill="black"/>
<path d="M231.409 116.196C235.964 120.766 238.241 126.962 238.241 134.783V180.629C238.241 180.848 238.198 181.066 238.114 181.269C238.03 181.472 237.906 181.657 237.751 181.812C237.595 181.967 237.411 182.09 237.208 182.173C237.005 182.257 236.787 182.299 236.568 182.299H220.255C220.035 182.299 219.818 182.257 219.615 182.173C219.412 182.09 219.227 181.967 219.072 181.812C218.916 181.657 218.793 181.472 218.709 181.269C218.625 181.066 218.581 180.848 218.581 180.629V138.836C218.581 135.109 217.536 132.081 215.444 129.752C214.363 128.646 213.072 127.767 211.648 127.167C210.223 126.567 208.693 126.258 207.148 126.258C205.603 126.258 204.073 126.567 202.649 127.167C201.224 127.767 199.933 128.646 198.852 129.752C196.76 132.081 195.715 135.109 195.715 138.836V180.629C195.715 180.848 195.671 181.066 195.587 181.269C195.503 181.472 195.38 181.657 195.224 181.812C195.069 181.967 194.884 182.09 194.681 182.173C194.478 182.257 194.261 182.299 194.042 182.299H177.728C177.509 182.299 177.291 182.257 177.088 182.173C176.885 182.09 176.701 181.967 176.545 181.812C176.39 181.657 176.267 181.472 176.183 181.269C176.098 181.066 176.055 180.848 176.055 180.629V86.1498C176.051 85.9299 176.092 85.7114 176.176 85.5082C176.26 85.3049 176.385 85.1213 176.543 84.9689C176.696 84.8092 176.88 84.6827 177.084 84.5973C177.288 84.512 177.507 84.4696 177.728 84.4728H194.042C194.263 84.4696 194.482 84.512 194.686 84.5973C194.89 84.6827 195.074 84.8092 195.227 84.9689C195.385 85.1213 195.51 85.3049 195.594 85.5082C195.678 85.7114 195.719 85.9299 195.715 86.1498V117.042C195.701 117.151 195.72 117.262 195.77 117.361C195.819 117.459 195.897 117.54 195.994 117.594C196.028 117.619 196.068 117.636 196.11 117.643C196.152 117.65 196.196 117.647 196.236 117.634C196.277 117.621 196.314 117.598 196.345 117.568C196.375 117.538 196.398 117.502 196.412 117.461C200.223 112.053 205.893 109.351 213.422 109.356C220.877 109.356 226.873 111.636 231.409 116.196Z" fill="white"/>
<path d="M236.568 183.697H220.254C219.852 183.698 219.453 183.619 219.081 183.465C218.709 183.312 218.371 183.086 218.086 182.801C217.801 182.516 217.575 182.178 217.421 181.805C217.266 181.432 217.187 181.033 217.187 180.629V138.837C217.187 135.441 216.281 132.772 214.398 130.689C213.449 129.728 212.318 128.965 211.073 128.444C209.827 127.923 208.491 127.655 207.141 127.655C205.791 127.655 204.455 127.923 203.209 128.444C201.964 128.965 200.833 129.728 199.883 130.689C198.015 132.786 197.095 135.441 197.095 138.837V180.629C197.097 181.033 197.019 181.434 196.865 181.807C196.711 182.181 196.485 182.52 196.2 182.805C195.915 183.09 195.576 183.316 195.203 183.469C194.83 183.622 194.43 183.7 194.027 183.697H177.714C177.311 183.698 176.913 183.619 176.541 183.465C176.168 183.312 175.83 183.086 175.545 182.801C175.26 182.516 175.034 182.178 174.88 181.805C174.726 181.432 174.646 181.033 174.646 180.629V86.1507C174.646 85.3353 174.97 84.5533 175.545 83.9767C176.12 83.4001 176.9 83.0762 177.714 83.0762H194.027C194.841 83.0762 195.621 83.4001 196.196 83.9767C196.772 84.5533 197.095 85.3353 197.095 86.1507V114.387C201.083 110.118 206.555 107.959 213.408 107.959C221.189 107.959 227.574 110.397 232.385 115.212C237.188 120.033 239.621 126.616 239.621 134.777V180.622C239.623 181.026 239.545 181.427 239.391 181.8C239.238 182.174 239.012 182.513 238.727 182.798C238.441 183.083 238.102 183.309 237.729 183.462C237.356 183.615 236.957 183.693 236.554 183.69L236.568 183.697ZM207.176 124.862C208.926 124.801 210.668 125.124 212.28 125.808C213.893 126.492 215.337 127.522 216.511 128.824C218.832 131.402 219.996 134.777 219.996 138.837V180.629C219.992 180.666 219.997 180.703 220.01 180.737C220.024 180.771 220.045 180.801 220.073 180.825C220.099 180.853 220.13 180.874 220.165 180.887C220.2 180.9 220.238 180.906 220.275 180.902H236.589C236.626 180.907 236.664 180.903 236.7 180.89C236.735 180.876 236.766 180.854 236.791 180.825C236.818 180.801 236.839 180.771 236.853 180.736C236.866 180.702 236.871 180.666 236.868 180.629V134.784C236.868 127.384 234.706 121.466 230.447 117.189C226.18 112.92 220.463 110.754 213.443 110.754C206.423 110.754 201.18 113.193 197.611 118.21C197.408 118.562 197.083 118.829 196.697 118.957C196.483 119.027 196.256 119.053 196.031 119.034C195.806 119.015 195.587 118.951 195.387 118.845C195.058 118.677 194.785 118.418 194.6 118.098C194.414 117.778 194.325 117.412 194.341 117.043V86.1507C194.344 86.1127 194.339 86.0744 194.324 86.0391C194.309 86.0038 194.287 85.9726 194.257 85.9481C194.233 85.9207 194.203 85.8994 194.169 85.886C194.135 85.8727 194.099 85.8676 194.062 85.8712H177.749C177.712 85.8702 177.675 85.8768 177.641 85.8905C177.607 85.9042 177.576 85.9248 177.55 85.9509C177.523 85.9771 177.503 86.0083 177.489 86.0426C177.476 86.077 177.469 86.1137 177.47 86.1507V180.629C177.466 180.666 177.471 180.703 177.484 180.737C177.497 180.771 177.519 180.801 177.547 180.825C177.572 180.853 177.604 180.874 177.639 180.887C177.674 180.9 177.711 180.906 177.749 180.902H194.062C194.1 180.907 194.138 180.903 194.173 180.89C194.209 180.876 194.24 180.854 194.264 180.825C194.292 180.801 194.313 180.771 194.326 180.736C194.34 180.702 194.345 180.666 194.341 180.629V138.837C194.341 134.777 195.519 131.402 197.827 128.824C199.003 127.52 200.449 126.489 202.064 125.805C203.679 125.121 205.423 124.799 207.176 124.862Z" fill="black"/>
</svg>
