<?xml version="1.0" encoding="UTF-8"?>
<svg width="920px" height="270px" viewBox="0 0 920 270" version="1.1" xmlns="http://www.w3.org/2000/svg" xmlns:xlink="http://www.w3.org/1999/xlink">
    <!-- Generator: Sketch 64 (93537) - https://sketch.com -->
    <title>AB_Elements-Header-Shop-920x270-v1</title>
    <desc>Created with Sketch.</desc>
    <defs>
        <path d="M46.3326002,133.927441 C60.0866803,133.927441 70.9850404,130.751181 79.0276804,124.398661 C87.0703204,118.046141 91.0916405,109.391561 91.0916405,98.434921 C91.0916405,91.0916409 89.1975405,85.1179409 85.4093404,80.5138209 C81.6211404,75.9097008 77.3667004,72.4420408 72.6460204,70.1108408 C67.9253404,67.7796408 61.4271203,65.0987608 53.1513603,62.0682008 C45.6915202,59.3873207 40.1840602,57.2601007 36.6289802,55.6865407 C33.0739002,54.1129807 30.3930202,52.3354407 28.5863401,50.3539207 C26.7796601,48.3724007 25.8763201,45.9246407 25.8763201,43.0106407 C25.8763201,38.9310406 27.4207401,35.7256406 30.5095802,33.3944406 C33.5984202,31.0632406 37.8820002,29.8976406 43.3603202,29.8976406 C50.3539203,29.8976406 55.8613803,31.6169006 59.8827003,35.0554206 C63.9040203,38.4939406 65.9146803,42.6609607 65.9146803,47.5564807 L65.9146803,47.5564807 L65.9146803,48.9552007 C65.9146803,49.5380007 66.1186603,50.0333807 66.5266203,50.4413407 C66.9345803,50.8493007 67.4299603,51.0532807 68.0127604,51.0532807 L68.0127604,51.0532807 L88.1193605,51.0532807 C88.7021605,51.0532807 89.1975405,50.8493007 89.6055005,50.4413407 C90.0134605,50.0333807 90.2174405,49.5380007 90.2174405,48.9552007 L90.2174405,48.9552007 L90.2174405,46.3326007 C90.2174405,38.8727606 88.2650605,32.3162606 84.3603004,26.6631006 C80.4555404,21.0099406 75.0355004,16.6098005 68.1001804,13.4626805 C61.1648603,10.3155605 53.2679203,8.74200049 44.4093602,8.74200049 C36.0170402,8.74200049 28.6154801,10.1407205 22.2046801,12.9381605 C15.7938801,15.7356005 10.7818001,19.7569205 7.16844004,25.0021206 C3.55508002,30.2473206 1.74840001,36.3667206 1.74840001,43.3603207 C1.74840001,50.4704807 3.58422002,56.4441807 7.25586004,61.2814208 C10.9275001,66.1186608 15.4733401,69.9360008 20.8933801,72.7334408 C26.3134201,75.5308808 32.9282002,78.2700408 40.7377202,80.9509209 C47.7313202,83.5152409 52.8308203,85.5259009 56.0362203,86.9829009 C59.2416203,88.4399009 61.7768003,90.1300209 63.6417603,92.0532609 C65.5067203,93.9765009 66.4392003,96.3368409 66.4392003,99.134281 C66.4392003,102.980761 64.9239203,106.215301 61.8933603,108.837901 C58.8628003,111.460501 54.2586803,112.771801 48.0810002,112.771801 C40.7377202,112.771801 34.9097202,111.169101 30.5970002,107.963701 C26.2842801,104.758301 24.1279201,100.824401 24.1279201,96.1620009 L24.1279201,96.1620009 L24.1279201,93.5394009 C24.1279201,92.9566009 23.9239401,92.4612209 23.5159801,92.0532609 C23.1080201,91.6453009 22.6126401,91.4413209 22.0298401,91.4413209 L22.0298401,91.4413209 L2.09808001,91.4413209 C1.51528001,91.4413209 1.01990001,91.6453009 0.611940003,92.0532609 C0.203980001,92.4612209 6.87236939e-13,92.9566009 6.87236939e-13,93.5394009 L6.87236939e-13,93.5394009 L6.87236939e-13,97.3858809 C6.87236939e-13,104.729161 1.89410001,111.169101 5.68230003,116.705701 C9.47050005,122.242301 14.8614001,126.496741 21.8550001,129.469021 C28.8486001,132.441301 37.0078002,133.927441 46.3326002,133.927441 Z M138.123601,132.528721 C138.706401,132.528721 139.201781,132.324741 139.609741,131.916781 C140.017701,131.508821 140.221681,131.013441 140.221681,130.430641 L140.221681,130.430641 L140.221681,78.1534808 C140.221681,73.4910808 141.532981,69.7028808 144.155581,66.7888808 C146.778181,63.8748808 150.245841,62.4178808 154.558561,62.4178808 C158.871281,62.4178808 162.338941,63.8748808 164.961541,66.7888808 C167.584141,69.7028808 168.895441,73.4910808 168.895441,78.1534808 L168.895441,78.1534808 L168.895441,130.430641 C168.895441,131.013441 169.099421,131.508821 169.507381,131.916781 C169.915341,132.324741 170.410721,132.528721 170.993521,132.528721 L170.993521,132.528721 L191.449801,132.528721 C192.032601,132.528721 192.527981,132.324741 192.935941,131.916781 C193.343901,131.508821 193.547881,131.013441 193.547881,130.430641 L193.547881,130.430641 L193.547881,73.0831208 C193.547881,63.2920808 190.692161,55.5408407 184.980721,49.8294007 C179.269281,44.1179607 171.751161,41.2622407 162.426361,41.2622407 C152.985001,41.2622407 145.874841,44.6424807 141.095881,51.4029607 C140.979321,51.6360807 140.804481,51.6943607 140.571361,51.5778007 C140.338241,51.4612407 140.221681,51.2281207 140.221681,50.8784407 L140.221681,50.8784407 L140.221681,12.2388005 C140.221681,11.6560005 140.017701,11.1606205 139.609741,10.7526605 C139.201781,10.3447005 138.706401,10.1407205 138.123601,10.1407205 L138.123601,10.1407205 L117.667321,10.1407205 C117.084521,10.1407205 116.589141,10.3447005 116.181181,10.7526605 C115.773221,11.1606205 115.569241,11.6560005 115.569241,12.2388005 L115.569241,12.2388005 L115.569241,130.430641 C115.569241,131.013441 115.773221,131.508821 116.181181,131.916781 C116.589141,132.324741 117.084521,132.528721 117.667321,132.528721 L117.667321,132.528721 L138.123601,132.528721 Z M259.112881,133.927441 C268.903921,133.927441 277.267101,131.333981 284.202421,126.147061 C291.137742,120.960141 295.887562,113.820841 298.451882,104.729161 C300.083722,99.250841 300.899642,93.3645609 300.899642,87.0703209 C300.899642,80.6595209 299.967162,74.5401208 298.102202,68.7121208 C295.304762,60.0866808 290.525801,53.3553407 283.765321,48.5181007 C277.004841,43.6808607 268.845641,41.2622407 259.287721,41.2622407 C249.496681,41.2622407 241.104361,43.7100007 234.110761,48.6055207 C227.117161,53.5010407 222.279921,60.2615208 219.599041,68.8869608 C217.967201,74.3652808 217.151281,80.5429609 217.151281,87.4200009 C217.151281,93.8308009 217.967201,99.775361 219.599041,105.253681 C222.163361,114.112241 226.942321,121.105841 233.935921,126.234481 C240.929521,131.363121 249.321841,133.927441 259.112881,133.927441 Z M259.112881,112.771801 C255.149841,112.771801 251.798741,111.606201 249.059581,109.275001 C246.320421,106.943801 244.368041,103.738401 243.202441,99.658801 C242.386521,96.7448009 241.978561,92.6652009 241.978561,87.4200009 C241.978561,81.9416809 242.444801,77.8038008 243.377281,75.0063608 C244.542881,71.0433208 246.436981,67.9544808 249.059581,65.7398408 C251.682181,63.5252008 254.975001,62.4178808 258.938041,62.4178808 C262.784521,62.4178808 266.048201,63.5252008 268.729081,65.7398408 C271.409961,67.9544808 273.391481,71.0433208 274.673641,75.0063608 C275.606121,78.3866008 276.072361,82.5244809 276.072361,87.4200009 C276.072361,91.8492809 275.606121,95.9288809 274.673641,99.658801 C273.508041,103.738401 271.584801,106.943801 268.903921,109.275001 C266.223041,111.606201 262.959361,112.771801 259.112881,112.771801 Z M348.805802,165.048961 C349.388602,165.048961 349.883982,164.844981 350.291942,164.437021 C350.699902,164.029061 350.903882,163.533681 350.903882,162.950881 L350.903882,162.950881 L350.903882,125.535121 C350.903882,125.185441 351.020442,124.952321 351.253562,124.835761 C351.486682,124.719201 351.719802,124.835761 351.952922,125.185441 C356.615322,131.013441 363.142682,133.927441 371.535002,133.927441 C380.043882,133.927441 387.183182,131.741941 392.952902,127.370941 C398.722622,122.999941 402.947922,117.084521 405.628802,109.624681 C407.843442,103.097321 408.950762,95.8123209 408.950762,87.7696809 C408.950762,79.7270409 407.901722,72.7334408 405.803642,66.7888808 C403.239322,58.7462407 399.014022,52.4811407 393.127742,47.9935807 C387.241462,43.5060207 380.277002,41.2622407 372.234362,41.2622407 C363.608922,41.2622407 356.848442,44.4676407 351.952922,50.8784407 C351.719802,51.1115607 351.486682,51.1989807 351.253562,51.1407007 C351.020442,51.0824207 350.903882,50.8784407 350.903882,50.5287607 L350.903882,50.5287607 L350.903882,44.7590407 C350.903882,44.1762407 350.699902,43.6808607 350.291942,43.2729007 C349.883982,42.8649407 349.388602,42.6609607 348.805802,42.6609607 L348.805802,42.6609607 L328.349522,42.6609607 C327.766722,42.6609607 327.271342,42.8649407 326.863382,43.2729007 C326.455422,43.6808607 326.251442,44.1762407 326.251442,44.7590407 L326.251442,44.7590407 L326.251442,162.950881 C326.251442,163.533681 326.455422,164.029061 326.863382,164.437021 C327.271342,164.844981 327.766722,165.048961 328.349522,165.048961 L328.349522,165.048961 L348.805802,165.048961 Z M366.814322,112.771801 C361.569122,112.771801 357.606082,110.440601 354.925202,105.778201 C352.360882,101.465481 351.078722,95.4043609 351.078722,87.5948409 C351.078722,80.0184409 352.302602,74.1321608 354.750362,69.9360008 C357.431242,64.9239208 361.452562,62.4178808 366.814322,62.4178808 C372.758882,62.4178808 377.071602,64.9239208 379.752482,69.9360008 C382.200242,74.2487208 383.424122,80.0767209 383.424122,87.4200009 C383.424122,95.2295209 381.967122,101.407201 379.053122,105.953041 C376.139122,110.498881 372.059522,112.771801 366.814322,112.771801 Z" id="path-1"></path>
    </defs>
    <g id="Symbols" stroke="none" stroke-width="1" fill="none" fill-rule="evenodd">
        <g id="AB_Elements-Header-Shop-v1" transform="translate(-141.000000, -51.000000)" fill-rule="nonzero">
            <g id="AB_Elements-Header-Shop-920x270-v1" transform="translate(141.000000, 51.000000)">
                <g id="AB_Assets-Header-Shop-Illustration">
                    <path d="M190.579202,182.975618 C190.579202,182.975618 160.09997,159.033218 99.1526411,205.82669 C99.1526411,205.82669 46.9136645,217.79789 19.6972802,213.443714 C19.6972802,213.443714 -5.33644809,211.272194 1.20038399,230.860419 C1.20038399,230.860419 4.46323202,240.660099 78.4730888,237.397251 C78.4730888,237.397251 340.781572,233.043075 354.924292,237.397251 C354.924292,237.397251 385.648516,240.660099 386.728708,262.430979 C386.728708,262.430979 397.374724,278.388867 406.561924,263.388675 C406.561924,263.388675 406.561924,249.368451 409.46842,243.555459 C412.374916,237.742467 430.270469,229.535235 443.811845,232.419459 L547.81095,230.971779 L632.444551,226.617602 C632.444551,226.617602 661.476103,224.20109 663.402631,217.90925 C665.329159,211.61741 657.121927,209.200898 657.121927,209.200898 C657.121927,209.200898 608.257159,203.87789 604.871815,206.784386 C604.871815,206.784386 578.26791,202.43021 577.789062,187.920002 C577.310214,173.409794 567.621894,139.06637 548.75751,135.191041 C529.893126,131.315713 541.986822,94.555777 541.986822,94.555777 C541.986822,94.555777 539.091462,63.5976967 530.850822,54.8893446 C530.850822,54.8893446 520.69479,23.9312643 478.611845,31.6707843 C478.611845,31.6707843 436.038917,35.0115844 418.143365,62.6288647 C418.143365,62.6288647 399.27898,94.076929 401.216644,105.201793 L391.049476,143.420546 C391.049476,143.420546 387.708676,102.785281 364.445572,95.535745 C364.445572,95.535745 349.968772,86.3485449 318.487299,99.4110731 C318.487299,99.4110731 284.633859,113.431297 293.821059,158.910722 C293.821059,158.910722 280.279683,137.139842 251.248131,140.525186 C229.14317,143.108738 202.216322,151.126658 190.579202,182.975618 Z" id="Path" fill="#C6BCD0"></path>
                    <path d="M845.543049,85.4131209 C845.543049,85.4131209 843.727881,55.6688646 812.892297,55.3459206 C812.892297,55.3459206 782.413065,52.0830726 775.163528,80.3796489 C775.163528,80.3796489 749.394824,79.6558089 745.775624,98.5201931 L716.020232,99.9790091 C716.020232,99.9790091 710.218376,101.092609 710.942216,106.872193 C710.942216,106.872193 710.218376,111.215233 714.205064,112.674049 C714.205064,112.674049 763.916168,117.384577 809.974665,114.121729 C809.974665,114.121729 827.513865,115.691905 827.870217,122.228737 C827.870217,122.228737 824.618505,138.431618 832.959369,138.431618 C843.304713,138.431618 840.877065,133.364737 841.367049,123.353473 C841.45246,121.854209 842.045471,120.428626 843.048585,119.311105 C844.500841,117.610773 846.055337,116.000494 847.703433,114.489217 L911.924746,114.121729 C913.528861,114.043789 915.004068,113.219651 915.911434,111.894529 C917.37025,109.667329 922.080778,107.896705 917.025034,100.647169 C917.025034,100.647169 910.176394,97.0502411 892.447882,97.9188491 C890.381493,98.021352 888.325091,97.571634 886.490122,96.6159371 C882.035722,94.266241 873.572362,89.466625 869.786122,84.7226889 C868.317608,82.8990976 866.291033,81.6080357 864.017673,81.0478089 C858.939657,79.7560329 850.576521,78.9431049 845.543049,85.4131209 Z" id="Path" fill="#F5ACB9"></path>
                    <path d="M790.720521,80.3351049 C790.582803,80.1374344 790.627205,79.8660896 790.820745,79.7226249 C793.192713,77.9297289 807.825417,67.4730247 817.547145,73.2080648 C824.941051,77.2027584 829.575071,84.9047898 829.640853,93.308545 C829.641841,93.4464614 829.580446,93.5774392 829.473801,93.664897 C828.148617,94.678273 819.161865,100.702849 800.030217,92.662657 C799.149434,92.2802384 798.39609,91.6543834 797.858697,90.858625 L790.720521,80.3351049 Z" id="Path" fill="#FFFFFF"></path>
                    <path d="M816.645129,94.789633 C818.504841,88.731649 814.417929,82.6959369 811.077129,80.6246409 C806.845449,78.2526729 801.388809,82.8518409 799.451145,87.918721 C798.51383,88.7890472 798.02573,90.040062 798.125961,91.315201 L799.139337,92.673793 C799.704214,93.4269977 800.479051,93.9965034 801.366537,94.310785 C805.614759,95.9109294 810.069452,96.8971115 814.596105,97.2395531 C815.798793,96.5713931 816.611721,95.702785 816.645129,94.789633 Z" id="Path" fill="#688564"></path>
                    <path d="M675.195655,151.271426 C674.627719,151.349378 666.286855,147.240194 666.286855,147.240194 C666.097543,146.783618 675.039751,143.476226 675.039751,143.476226 C675.607687,142.51853 676.576519,141.805826 676.153351,140.759042 C674.883847,139.40045 674.482951,139.222274 673.436167,139.645442 C674.160007,139.322498 661.186567,144.901634 661.186567,144.901634 C661.186567,144.456194 651.353479,140.447234 651.353479,140.447234 C650.859711,140.176192 650.272056,140.134819 649.745182,140.334003 C649.218308,140.533188 648.804994,140.952975 648.614023,141.482882 C647.344519,143.398274 648.614023,143.710082 649.638535,144.222338 C649.059463,144.367106 659.839111,148.832642 659.839111,148.832642 C658.814599,148.565378 663.948295,160.55885 663.948295,160.55885 C664.388807,161.522649 665.361077,162.131412 666.420487,162.106754 C669.048583,161.705858 668.502919,160.993154 668.146567,160.024322 L665.061895,151.193474 C665.830279,152.084354 673.491847,155.013122 673.491847,155.013122 C675.585415,155.93741 675.886087,154.745858 676.231303,153.98861 C677.678983,152.474114 676.242439,151.750274 675.195655,151.271426 Z" id="Path" fill="#C4D6A4"></path>
                    <path d="M779.261577,243.677955 C778.626825,243.544323 771.310472,235.994115 771.310472,235.994115 C771.310472,235.437315 782.067849,235.314819 782.067849,235.314819 C783.047817,234.513027 784.295049,234.123267 784.295049,232.831491 C783.459849,230.904963 783.103497,230.604291 781.811721,230.604291 L766.755848,231.628803 C766.967432,231.172227 757.969544,223.14317 757.969544,223.14317 C757.537234,222.672087 756.923315,222.40952 756.284059,222.422305 C755.644803,222.43509 755.041873,222.721994 754.628744,223.209986 C752.546312,224.769026 753.749,225.615362 754.684424,226.550786 C753.993992,226.48397 763.782536,235.348227 763.782536,235.348227 C762.802568,234.668931 763.704584,249.412995 763.704584,249.412995 C763.807735,250.603576 764.608654,251.618949 765.742472,251.996547 C768.704648,252.564483 768.370568,251.640195 768.381704,250.426371 C768.381704,250.359555 768.44852,239.858307 768.44852,239.858307 C768.927368,241.094403 775.976456,247.130115 775.976456,247.130115 C777.85844,248.911875 778.626825,247.753731 779.317257,247.130115 C781.455369,245.894019 780.197001,244.579971 779.261577,243.677955 Z" id="Path" fill="#C4D6A4"></path>
                    <path d="M688.54772,185.269634 C688.202504,184.490114 687.233672,184.267394 686.665735,184.156034 L686.498695,184.156034 L686.420743,184.156034 C685.852807,184.156034 682.890631,183.409922 679.995271,182.652674 C681.019783,181.817474 683.258119,180.236162 685.329415,178.844162 L685.485319,178.743938 L685.552135,178.554626 C685.612855,178.349427 685.687262,178.148528 685.774855,177.953282 C686.194498,177.250176 686.194498,176.373507 685.774855,175.670402 L685.641223,175.53677 C684.405127,174.634754 683.748103,174.322946 682.690183,175.124738 L682.690183,175.191554 L682.690183,175.191554 L682.690183,175.124738 L682.690183,175.191554 C682.088839,175.525634 680.930695,176.405378 678.413959,178.298498 L674.438407,181.294082 C671.744018,180.495061 668.998162,179.88115 666.220039,179.456642 C665.646635,179.310444 665.038322,179.40713 664.538503,179.723906 C664.075799,180.06115 663.760749,180.563636 663.658759,181.127042 C663.384143,181.720425 663.384143,182.404507 663.658759,182.99789 C664.015821,183.502144 664.579358,183.820665 665.195527,183.866498 L665.195527,183.866498 C665.796871,184.200578 667.645447,184.657154 673.614343,185.826434 C673.915015,186.72845 675.084295,188.877698 678.981895,194.52365 C679.495461,195.239147 680.328559,195.655695 681.209095,195.63725 C681.420481,195.651071 681.631766,195.608813 681.821575,195.514754 C682.868359,195.102722 683.358343,194.735234 683.514247,194.234114 C683.611325,193.766206 683.483552,193.279843 683.169031,192.920066 L683.046535,192.719618 L679.861639,187.385474 C681.721351,187.886594 684.594439,188.387714 685.663495,188.56589 C686.27435,188.762325 686.939203,188.697854 687.500936,188.387714 C687.933834,188.037047 688.197046,187.518723 688.224776,186.962306 L688.224776,186.89549 C688.579742,186.433402 688.699138,185.832306 688.54772,185.269634 Z" id="Path" fill="#C4D6A4"></path>
                    <path d="M722.34548,176.405378 C722.145032,175.59245 721.12052,175.069058 720.496904,174.768386 L720.329864,174.679298 L720.218504,174.679298 C719.594888,174.467714 716.409992,172.852994 713.314184,171.216002 C714.695048,170.80397 717.646088,170.102402 720.363272,169.556738 L720.574856,169.556738 L720.686216,169.41197 C720.819848,169.24493 720.964616,169.100162 721.109384,168.944258 C721.588232,168.46541 722.222984,167.830658 721.744136,166.917506 L721.632776,166.750466 C720.45236,165.547778 719.795336,165.046658 718.381064,165.414146 L718.381064,165.492098 L718.381064,165.492098 L718.381064,165.414146 L718.381064,165.492098 C717.623816,165.603458 716.064776,166.004354 712.723976,166.872962 L707.456648,168.153602 C704.593186,166.541083 701.641184,165.091108 698.614664,163.810562 C698.01116,163.488638 697.316993,163.378826 696.643592,163.498754 C696.065504,163.601565 695.563348,163.956749 695.273864,164.467586 C694.804812,164.88075 694.599657,165.517584 694.739336,166.12685 C694.962056,166.783874 695.685896,167.12909 696.264968,167.40749 L696.331784,167.40749 C696.921992,167.897474 698.9042,168.921986 705.374216,171.928706 C705.47444,172.841858 706.25396,175.14701 709.216136,181.483394 C709.671559,182.366864 710.481443,183.014771 711.443336,183.265154 C711.676875,183.340738 711.921886,183.374663 712.167176,183.365378 C713.458952,183.365378 714.115976,183.153794 714.394376,182.764034 C714.672776,182.374274 714.528008,181.88429 714.394376,181.472258 L714.305288,181.249538 L712.078088,175.42541 C714.060296,176.53901 717.189512,177.87533 718.358792,178.387586 C718.998331,178.768952 719.746947,178.925731 720.485768,178.833026 C721.031018,178.703522 721.479457,178.317367 721.688456,177.797378 L721.688456,177.797378 C722.160705,177.501674 722.417361,176.957912 722.34548,176.405378 Z" id="Path" fill="#C4D6A4"></path>
                    <path d="M743.013896,204.011522 C742.457096,203.220866 741.221,203.142914 740.474888,203.09837 L740.27444,203.09837 L740.16308,203.09837 C739.461512,203.165186 735.619592,202.909058 731.855624,202.59725 C732.969224,201.48365 735.575048,199.378946 737.969288,197.496962 L738.1586,197.341058 L738.1586,197.129474 C738.209882,196.892587 738.273066,196.658434 738.347912,196.427906 C738.794746,195.618317 738.673649,194.613668 738.04724,193.933442 L737.857928,193.810946 C736.165256,193.053698 735.296648,192.830978 734.082824,193.888898 L734.14964,193.955714 L734.14964,193.955714 L734.082824,193.888898 L734.14964,193.955714 C733.459208,194.434562 732.134024,195.603842 729.260936,198.120578 L724.728584,202.09613 C721.209234,201.698641 717.668594,201.520122 714.127112,201.561602 C713.388293,201.504091 712.653354,201.713509 712.055816,202.15181 C711.534434,202.565979 711.211147,203.180224 711.164936,203.844482 C710.894029,204.524867 710.98625,205.29617 711.409928,205.893506 C711.976422,206.396294 712.727708,206.638645 713.481224,206.561666 L713.54804,206.561666 C714.349832,206.806658 716.755208,206.973698 724.427912,207.196418 C724.951304,208.120706 726.755336,210.258818 732.523784,215.715458 C733.336684,216.448318 734.44052,216.768389 735.519368,216.584066 C735.787375,216.5707 736.047742,216.490293 736.276616,216.35021 C737.523848,215.704322 738.080648,215.23661 738.203144,214.646402 C738.247636,214.106777 738.006926,213.583128 737.568392,213.265538 L737.37908,213.076226 L732.546056,207.820034 C734.973704,208.031618 738.648584,208.065026 740.018312,208.065026 C740.816142,208.175027 741.626854,207.993111 742.301192,207.55277 C742.777145,207.123164 743.031317,206.500034 742.991624,205.860098 L742.991624,205.782146 C743.305954,205.235834 743.314385,204.565568 743.013896,204.011522 L743.013896,204.011522 Z" id="Path" fill="#C4D6A4"></path>
                    <path d="M398.44378,7.98451209 L402.074116,0 C402.074116,0 420.214661,22.4947202 423.844997,21.4033922 C427.475333,20.3120642 428.199173,8.7083521 461.573765,16.6928642 C461.573765,16.6928642 463.867781,17.2385282 462.965765,18.5637122 C461.027282,19.908837 458.850405,20.8725586 456.551429,21.4033922 C456.551429,21.4033922 445.727237,29.2654083 443.433221,28.6640643 C443.433221,28.6640643 433.277189,29.3210883 433.032197,29.3879043 L446.517893,37.3056004 C446.517893,37.3056004 449.725061,38.4192004 451.473413,37.3056004 C451.473413,37.3056004 462.486917,30.9024003 464.179589,29.3210883 C465.141486,28.4664949 466.231135,27.7676162 467.409029,27.2497923 C470.214031,26.910872 473.053258,26.9783833 475.838981,27.4502403 C475.960476,27.4723893 476.084974,27.4723893 476.206469,27.4502403 C477.219845,27.3166083 481.774469,27.0493443 482.798981,26.6039043 C483.400325,26.3366403 485.026181,24.9780483 486.061829,26.3589123 C486.061829,26.3589123 486.574085,27.9402243 485.182085,28.4524803 L480.727685,32.9068804 C480.727685,32.9068804 475.838981,39.1430404 475.471493,39.4437124 L475.104005,39.7443844 C475.104005,39.7443844 470.148485,42.3390725 466.339973,42.1608965 L456.540293,41.6152325 C456.540293,41.6152325 472.509317,48.1520645 475.293317,48.5084165 C475.293317,48.5084165 487.387013,51.0474246 487.988357,51.2367366 C487.988357,51.2367366 491.496197,52.9294086 491.006213,55.8247686 C491.006213,55.8247686 490.583045,58.7869446 487.988357,58.6087686 C482.946179,58.1403038 477.964902,57.1589735 473.121797,55.6800006 C473.121797,55.6800006 450.849797,47.3948165 449.736197,47.4504965 C449.736197,47.4504965 453.845381,52.7735046 453.544709,56.8826886 C453.544709,56.8826886 453.544709,65.7914887 454.513541,67.6512007 C454.513541,67.6512007 457.297541,72.6735368 456.083717,73.9987208 C456.083717,73.9987208 448.656005,67.3171207 446.473349,66.6266887 C446.473349,66.6266887 437.887493,61.9050247 437.408645,57.3726726 C437.408645,57.3726726 435.348485,50.3569926 436.439813,46.2366725 C436.439813,46.2366725 437.709317,41.7822725 436.673669,41.0361604 L422.887301,31.3032963 C422.887301,31.3032963 426.640133,37.0494724 426.228101,38.4303364 C426.228101,38.4303364 427.564421,43.3301765 425.381765,47.3391365 C425.381765,47.3391365 422.909573,50.0563205 423.087749,51.9939846 C423.087749,51.9939846 424.000901,56.4483846 421.974149,56.6488326 C421.450558,56.8040561 420.885053,56.718331 420.43099,56.4149048 C419.976926,56.1114786 419.681363,55.6217976 419.624453,55.0786566 C418.567104,51.2350598 416.374183,47.8001304 413.332613,45.2232965 C413.332613,45.2232965 408.978436,37.9626244 409.5241,35.9136004 C409.5241,35.9136004 408.80026,24.7776003 412.241284,22.1829122 L398.44378,7.98451209 Z" id="Path" fill="#688564"></path>
                </g>
                <g id="AB_Web-Shop-Header-v1" transform="translate(63.000000, 61.000000)">
                    <g id="Shop" fill="#000000">
                        <use xlink:href="#path-1"></use>
                        <use xlink:href="#path-1"></use>
                    </g>
                    <path d="M55.0746003,125.185441 C68.8286804,125.185441 79.7270404,122.009181 87.7696805,115.656661 C95.8123205,109.304141 99.8336405,100.649561 99.8336405,89.6929205 C99.8336405,82.3496404 97.9395405,76.3759404 94.1513405,71.7718204 C90.3631405,67.1677003 86.1087004,63.7000403 81.3880204,61.3688403 C76.6673404,59.0376403 70.1691204,56.3567603 61.8933603,53.3262003 C54.4335203,50.6453203 48.9260603,48.5181003 45.3709802,46.9445402 C41.8159002,45.3709802 39.1350202,43.5934402 37.3283402,41.6119202 C35.5216602,39.6304002 34.6183202,37.1826402 34.6183202,34.2686402 C34.6183202,30.1890402 36.1627402,26.9836401 39.2515802,24.6524401 C42.3404202,22.3212401 46.6240002,21.1556401 52.1023203,21.1556401 C59.0959203,21.1556401 64.6033803,22.8749001 68.6247004,26.3134201 C72.6460204,29.7519402 74.6566804,33.9189602 74.6566804,38.8144802 L74.6566804,38.8144802 L74.6566804,40.2132002 C74.6566804,40.7960002 74.8606604,41.2913802 75.2686204,41.6993402 C75.6765804,42.1073002 76.1719604,42.3112802 76.7547604,42.3112802 L76.7547604,42.3112802 L96.8613605,42.3112802 C97.4441605,42.3112802 97.9395405,42.1073002 98.3475005,41.6993402 C98.7554605,41.2913802 98.9594405,40.7960002 98.9594405,40.2132002 L98.9594405,40.2132002 L98.9594405,37.5906002 C98.9594405,30.1307602 97.0070605,23.5742601 93.1023005,17.9211001 C89.1975405,12.2679401 83.7775004,7.86780004 76.8421804,4.72068002 C69.9068604,1.57356001 62.0099203,-7.92965699e-14 53.1513603,-7.92965699e-14 C44.7590402,-7.92965699e-14 37.3574802,1.39872001 30.9466802,4.19616002 C24.5358801,6.99360004 19.5238001,11.0149201 15.9104401,16.2601201 C12.2970801,21.5053201 10.4904001,27.6247201 10.4904001,34.6183202 C10.4904001,41.7284802 12.3262201,47.7021802 15.9978601,52.5394203 C19.6695001,57.3766603 24.2153401,61.1940003 29.6353802,63.9914403 C35.0554202,66.7888803 41.6702002,69.5280404 49.4797203,72.2089204 C56.4733203,74.7732404 61.5728203,76.7839004 64.7782203,78.2409004 C67.9836204,79.6979004 70.5188004,81.3880204 72.3837604,83.3112604 C74.2487204,85.2345004 75.1812004,87.5948405 75.1812004,90.3922805 C75.1812004,94.2387605 73.6659204,97.4733005 70.6353604,100.095901 C67.6048003,102.718501 63.0006803,104.029801 56.8230003,104.029801 C49.4797203,104.029801 43.6517202,102.427101 39.3390002,99.2217005 C35.0262802,96.0163005 32.8699202,92.0824005 32.8699202,87.4200005 L32.8699202,87.4200005 L32.8699202,84.7974004 C32.8699202,84.2146004 32.6659402,83.7192204 32.2579802,83.3112604 C31.8500202,82.9033004 31.3546402,82.6993204 30.7718402,82.6993204 L30.7718402,82.6993204 L10.8400801,82.6993204 C10.2572801,82.6993204 9.76190005,82.9033004 9.35394005,83.3112604 C8.94598005,83.7192204 8.74200005,84.2146004 8.74200005,84.7974004 L8.74200005,84.7974004 L8.74200005,88.6438805 C8.74200005,95.9871605 10.6361001,102.427101 14.4243001,107.963701 C18.2125001,113.500301 23.6034001,117.754741 30.5970002,120.727021 C37.5906002,123.699301 45.7498002,125.185441 55.0746003,125.185441 Z M150.012721,125.535121 C150.595521,125.535121 151.090901,125.331141 151.498861,124.923181 C151.906821,124.515221 152.110801,124.019841 152.110801,123.437041 L152.110801,123.437041 L152.110801,71.1598804 C152.110801,66.4974803 153.422101,62.7092803 156.044701,59.7952803 C158.667301,56.8812803 162.134961,55.4242803 166.447681,55.4242803 C170.760401,55.4242803 174.228061,56.8812803 176.850661,59.7952803 C179.473261,62.7092803 180.784561,66.4974803 180.784561,71.1598804 L180.784561,71.1598804 L180.784561,123.437041 C180.784561,124.019841 180.988541,124.515221 181.396501,124.923181 C181.804461,125.331141 182.299841,125.535121 182.882641,125.535121 L182.882641,125.535121 L203.338921,125.535121 C203.921721,125.535121 204.417101,125.331141 204.825061,124.923181 C205.233021,124.515221 205.437001,124.019841 205.437001,123.437041 L205.437001,123.437041 L205.437001,66.0895203 C205.437001,56.2984803 202.581281,48.5472403 196.869841,42.8358002 C191.158401,37.1243602 183.640281,34.2686402 174.315481,34.2686402 C164.874121,34.2686402 157.763961,37.6488802 152.985001,44.4093602 C152.868441,44.6424802 152.693601,44.7007602 152.460481,44.5842002 C152.227361,44.4676402 152.110801,44.2345202 152.110801,43.8848402 L152.110801,43.8848402 L152.110801,5.24520003 C152.110801,4.66240002 151.906821,4.16702002 151.498861,3.75906002 C151.090901,3.35110002 150.595521,3.14712002 150.012721,3.14712002 L150.012721,3.14712002 L129.556441,3.14712002 C128.973641,3.14712002 128.478261,3.35110002 128.070301,3.75906002 C127.662341,4.16702002 127.458361,4.66240002 127.458361,5.24520003 L127.458361,5.24520003 L127.458361,123.437041 C127.458361,124.019841 127.662341,124.515221 128.070301,124.923181 C128.478261,125.331141 128.973641,125.535121 129.556441,125.535121 L129.556441,125.535121 L150.012721,125.535121 Z M268.204561,125.535121 C277.995601,125.535121 286.358781,122.941661 293.294102,117.754741 C300.229422,112.567821 304.979242,105.428521 307.543562,96.3368405 C309.175402,90.8585205 309.991322,84.9722404 309.991322,78.6780004 C309.991322,72.2672004 309.058842,66.1478003 307.193882,60.3198003 C304.396442,51.6943603 299.617482,44.9630202 292.857002,40.1257802 C286.096521,35.2885402 277.937321,32.8699202 268.379401,32.8699202 C258.588361,32.8699202 250.196041,35.3176802 243.202441,40.2132002 C236.208841,45.1087202 231.371601,51.8692003 228.690721,60.4946403 C227.058881,65.9729603 226.242961,72.1506404 226.242961,79.0276804 C226.242961,85.4384804 227.058881,91.3830405 228.690721,96.8613605 C231.255041,105.719921 236.034001,112.713521 243.027601,117.842161 C250.021201,122.970801 258.413521,125.535121 268.204561,125.535121 Z M267.854881,104.029801 C263.891841,104.029801 260.540741,102.864201 257.801581,100.533001 C255.062421,98.2018005 253.110041,94.9964005 251.944441,90.9168005 C251.128521,88.0028005 250.720561,83.9232004 250.720561,78.6780004 C250.720561,73.1996804 251.186801,69.0618004 252.119281,66.2643603 C253.284881,62.3013203 255.178981,59.2124803 257.801581,56.9978403 C260.424181,54.7832003 263.717001,53.6758803 267.680041,53.6758803 C271.526521,53.6758803 274.790201,54.7832003 277.471081,56.9978403 C280.151961,59.2124803 282.133481,62.3013203 283.415641,66.2643603 C284.348121,69.6446004 284.814361,73.7824804 284.814361,78.6780004 C284.814361,83.1072804 284.348121,87.1868804 283.415641,90.9168005 C282.250041,94.9964005 280.326801,98.2018005 277.645921,100.533001 C274.965041,102.864201 271.701361,104.029801 267.854881,104.029801 Z M359.820722,156.656641 C360.403522,156.656641 360.898902,156.452661 361.306862,156.044701 C361.714822,155.636741 361.918802,155.141361 361.918802,154.558561 L361.918802,154.558561 L361.918802,117.142801 C361.918802,116.793121 362.035362,116.560001 362.268482,116.443441 C362.501602,116.326881 362.734722,116.443441 362.967842,116.793121 C367.630242,122.621121 374.157602,125.535121 382.549922,125.535121 C391.058802,125.535121 398.198102,123.349621 403.967822,118.978621 C409.737542,114.607621 413.962842,108.692201 416.643722,101.232361 C418.858362,94.7050005 419.965682,87.4200005 419.965682,79.3773604 C419.965682,71.3347204 418.916642,64.3411203 416.818562,58.3965603 C414.254242,50.3539203 410.028942,44.0888202 404.142662,39.6012602 C398.256382,35.1137002 391.291922,32.8699202 383.249282,32.8699202 C374.623842,32.8699202 367.863362,36.0753202 362.967842,42.4861202 C362.734722,42.7192402 362.501602,42.8066602 362.268482,42.7483802 C362.035362,42.6901002 361.918802,42.4861202 361.918802,42.1364402 L361.918802,42.1364402 L361.918802,36.3667202 C361.918802,35.7839202 361.714822,35.2885402 361.306862,34.8805802 C360.898902,34.4726202 360.403522,34.2686402 359.820722,34.2686402 L359.820722,34.2686402 L339.364442,34.2686402 C338.781642,34.2686402 338.286262,34.4726202 337.878302,34.8805802 C337.470342,35.2885402 337.266362,35.7839202 337.266362,36.3667202 L337.266362,36.3667202 L337.266362,154.558561 C337.266362,155.141361 337.470342,155.636741 337.878302,156.044701 C338.286262,156.452661 338.781642,156.656641 339.364442,156.656641 L339.364442,156.656641 L359.820722,156.656641 Z M377.829242,104.379481 C372.584042,104.379481 368.621002,102.048281 365.940122,97.3858805 C363.375802,93.0731605 362.093642,87.0120404 362.093642,79.2025204 C362.093642,71.6261204 363.317522,65.7398403 365.765282,61.5436803 C368.446162,56.5316003 372.467482,54.0255603 377.829242,54.0255603 C383.773802,54.0255603 388.086522,56.5316003 390.767402,61.5436803 C393.215162,65.8564003 394.439042,71.6844004 394.439042,79.0276804 C394.439042,86.8372004 392.982042,93.0148805 390.068042,97.5607205 C387.154042,102.106561 383.074442,104.379481 377.829242,104.379481 Z" id="Shop" stroke="#000000" stroke-width="3.49680002" fill="#FFFFFF"></path>
                </g>
            </g>
        </g>
    </g>
</svg>