<svg width="74" height="74" xmlns="http://www.w3.org/2000/svg"><path d="M37 0c20.435 0 37 16.565 37 37S57.435 74 37 74 0 57.435 0 37 16.565 0 37 0zm12.805 46.835c-3.03 5.435-7.454 8.152-13.273 8.152-5.693 0-10.051-2.6-13.074-7.801l-.2-.35-3.587 2.067c1.913 3.584 4.275 6.32 7.085 8.21 2.81 1.891 6.069 2.836 9.776 2.836 7.2 0 12.75-3.55 16.646-10.648l.214-.398-3.587-2.068zm-27.354-22.48c-1.29 0-2.387.453-3.294 1.36-.906.906-1.36 2.004-1.36 3.293 0 1.289.454 2.397 1.36 3.324.907.926 2.005 1.39 3.294 1.39 1.289 0 2.397-.464 3.324-1.39.926-.927 1.39-2.035 1.39-3.324 0-1.29-.464-2.387-1.39-3.294-.927-.906-2.035-1.36-3.324-1.36zm29.098 0c-1.289 0-2.397.453-3.324 1.36-.926.906-1.39 2.004-1.39 3.293 0 1.289.464 2.397 1.39 3.324.927.926 2.035 1.39 3.324 1.39 1.29 0 2.387-.464 3.294-1.39.906-.927 1.36-2.035 1.36-3.324 0-1.29-.454-2.387-1.36-3.294-.907-.906-2.005-1.36-3.294-1.36z" fill="#C4D6A4" fill-rule="nonzero"/></svg>