<svg xmlns="http://www.w3.org/2000/svg" viewBox="0 0 529.05 270.61"><defs><style>.cls-1{fill:#f1e6b2;}.cls-2{fill:#688564;}.cls-3{fill:#f5f1e8;}.cls-4{fill:#d25b73;}.cls-5{fill:#fff;}.cls-6{fill:#fdd26e;}.cls-7{fill:#572d2d;}</style></defs><title>Asset 70Social_header</title><g id="Layer_2" data-name="Layer 2"><g id="Layer_1-2" data-name="Layer 1"><path class="cls-1" d="M507,11.47C440.79-5.59,353.19-4.73,280.39,21.57,259.52,31,255.36,40.92,244.85,50c-10.56,8.18-34,25.51-53.28,33.52-17.1,7.34-23,1.9-43.56,3.61-46.9,7.81-54.17,3.5-83.41,9.16-28.55,7.17-81.22,33.74-53.34,76.55,25.45,27.6,174.44,43.26,204.15,28.83,24-6.26,55.71-7.63,64.51-14.69,67.58-42.51,49.49-35.69,82.21-76.66,35.14-30.68,75.94-1.1,140.68-23.6C534.94,80.48,539,25.27,507,11.47Z"/><path class="cls-1" d="M280.56,211.88s-33.07,6.84-55.87,14.25c0,0-24.52,9.69-17.68,26.8,0,0-1.14,18.24,30.22,17.67,0,0,42.76-1.14,60.44-9.69,0,0,22.8-4.56,18.81-29.08C316.48,231.83,311.92,210.74,280.56,211.88Z"/><path class="cls-2" d="M233.48,65.72c.45-.41,1.88.39,3.58,2.13A27.41,27.41,0,0,1,242,75.38a33.14,33.14,0,0,1,2.85,12.44c0,.88,0,1.48,0,1.7a3.62,3.62,0,0,1-.25,1.21,3,3,0,0,1-.63,1,2.27,2.27,0,0,1-1.88.69,2.64,2.64,0,0,1-1.73-1,2.81,2.81,0,0,1-.47-.91,2.88,2.88,0,0,1-.17-1.06,14.1,14.1,0,0,0,0-1.46c0-.76-.08-1.76-.2-2.91a39.84,39.84,0,0,0-1.8-8,63.75,63.75,0,0,0-3.15-7.4C233.57,67.63,232.93,66.21,233.48,65.72Z"/><path class="cls-2" d="M271.32,54.4c1.09.67.29,3.8-1.43,8.15s-4.3,9.92-6.35,15.6A81.44,81.44,0,0,0,261,86.58a58,58,0,0,0-1.35,7.61,48.84,48.84,0,0,0-.29,5.68c0,.73,0,1.35.06,1.82l.07,1a5.77,5.77,0,0,1-.21,2,5.93,5.93,0,0,1-.85,1.82,5.39,5.39,0,0,1-3.26,2.32,4.4,4.4,0,0,1-3.93-1,6.36,6.36,0,0,1-1.41-1.89,7,7,0,0,1-.65-2.51l-.08-1.26c0-.61-.05-1.38-.08-2.3a53.55,53.55,0,0,1,.48-7,56.82,56.82,0,0,1,2-9,66.88,66.88,0,0,1,3.65-9.36,76.36,76.36,0,0,1,9.5-15.09C267.61,55.71,270.1,53.66,271.32,54.4Z"/><path class="cls-2" d="M279.18,82.1c.73.32.52,2.27,0,5.05s-1.39,6.44-2.1,10.17-1.25,7.51-1.58,10.5S275,113,275,113.46a3.89,3.89,0,0,1-1.07,2.42,3.1,3.1,0,0,1-2.29,1,2.87,2.87,0,0,1-2.19-1.16,3.83,3.83,0,0,1-.77-2.68c0-.51.17-2.84.59-6a75.11,75.11,0,0,1,2.32-11,51.2,51.2,0,0,1,4-10.1C277,83.24,278.39,81.75,279.18,82.1Z"/><g id="Layer_2-2" data-name="Layer 2"><g id="Layer_1-2-2" data-name="Layer 1-2"><path class="cls-3" d="M351.7,54.08c-1.66,3-1.42,5.59-.56,10.64-1.59-.46-3.83-8.06-3.27-10.95,4.35-22.26,20.65-26.78,23-28C380,23,389,23.24,393.27,23.21a56.09,56.09,0,0,1,13.46,2.85c3.4,1.13,7.14,3.94,7.47,4.68.49,1.12,0,5.8-.3,7-.83,3.37-1.32,8.72-6.08,14.72-4.13,5.2-10.41,8.62-13.93,11.23A49.21,49.21,0,0,1,385.54,68c-.13,0,3.91-6.83,2.22-14.36-1-5.24-1.79-7.86-6.24-10.82-4-2.67-4.74-3.29-10.31-3.55-3.14-.16-8.81,2.59-11,4.4C357.19,46.19,355.28,47.64,351.7,54.08Z"/><path class="cls-4" d="M350.38,63.08c-.9-3.37-.2-5.25.84-8.55a18.39,18.39,0,0,1,7.27-10.75,22.64,22.64,0,0,1,6.32-3.6c5.15-1.43,11-1.7,15.32,1.13,4.45,2.95,6.79,5.95,7.8,11.2,1,4.85.48,4.1.27,8-.19,3.49-1.27,6.1-2.52,7.41-.95.8-6.32,1.36-9.09,1.6a57.73,57.73,0,0,1-18.17-.89C353.65,67.58,351.32,66.64,350.38,63.08Z"/></g></g><path d="M68,180.69a29.61,29.61,0,0,1-13.26-10.47c-3.1-4.53-4.66-17-4.66-23v-3.15a1.72,1.72,0,0,1,1.72-1.72H68.17a1.71,1.71,0,0,1,1.72,1.72v2.15c0,3.82,1.77,14.21,5.3,16.84S83.51,167,89.53,167q7.59,0,11.32-3.22a10.15,10.15,0,0,0,3.73-8,8,8,0,0,0-2.3-5.8,20.38,20.38,0,0,0-6.23-4.16q-3.94-1.79-12.54-4.94a122.94,122.94,0,0,1-16.27-6.74,32.62,32.62,0,0,1-11.18-9.39q-4.52-5.94-4.51-14.69a25.89,25.89,0,0,1,4.44-15,28.34,28.34,0,0,1,12.32-9.89,45.26,45.26,0,0,1,18.21-3.44,46.69,46.69,0,0,1,19.42,3.87,31.72,31.72,0,0,1,13.33,10.83,27.67,27.67,0,0,1,4.8,16.12v2.15a1.71,1.71,0,0,1-1.72,1.72H105.86a1.72,1.72,0,0,1-1.72-1.72v-1.15a13,13,0,0,0-4.94-10.25q-5-4.22-13.54-4.22-6.75,0-10.54,2.86a9.35,9.35,0,0,0-3.79,7.89,8.53,8.53,0,0,0,2.22,6,19.35,19.35,0,0,0,6.59,4.38q4.36,1.94,13.54,5.23a167.27,167.27,0,0,1,16,6.59,31.7,31.7,0,0,1,10.46,8.53q4.66,5.66,4.66,14.69,0,13.47-9.89,21.28t-26.8,7.81A51.08,51.08,0,0,1,68,180.69Z"/><path class="cls-5" d="M62.3,175A29.47,29.47,0,0,1,49,164.49a27.34,27.34,0,0,1-4.66-15.84V145.5a1.71,1.71,0,0,1,1.72-1.72H62.44a1.71,1.71,0,0,1,1.72,1.72v2.15q0,5.73,5.3,9.68t14.33,3.94q7.6,0,11.33-3.23a10.12,10.12,0,0,0,3.72-7.95,8,8,0,0,0-2.29-5.81,20.3,20.3,0,0,0-6.24-4.15c-2.62-1.2-6.8-2.84-12.54-4.95a122.06,122.06,0,0,1-16.26-6.73,32.64,32.64,0,0,1-11.18-9.39q-4.52-5.94-4.52-14.69a25.83,25.83,0,0,1,4.45-15.05,28.27,28.27,0,0,1,12.32-9.89A45.21,45.21,0,0,1,80.78,76a46.5,46.5,0,0,1,19.42,3.87,31.65,31.65,0,0,1,13.33,10.82,27.7,27.7,0,0,1,4.8,16.13V109a1.72,1.72,0,0,1-1.72,1.72H100.13A1.72,1.72,0,0,1,98.41,109v-1.15a13,13,0,0,0-4.94-10.25q-4.95-4.23-13.55-4.23-6.73,0-10.53,2.87a9.34,9.34,0,0,0-3.8,7.88,8.6,8.6,0,0,0,2.22,6,19.39,19.39,0,0,0,6.6,4.37q4.36,1.94,13.54,5.23a170.7,170.7,0,0,1,16,6.6,31.79,31.79,0,0,1,10.46,8.52q4.67,5.67,4.66,14.69,0,13.49-9.89,21.29t-26.8,7.81A50.87,50.87,0,0,1,62.3,175Z"/><path d="M82.36,180a52.61,52.61,0,0,1-20.62-3.77,31,31,0,0,1-13.88-11A28.87,28.87,0,0,1,43,148.65V145.5a3.14,3.14,0,0,1,3.15-3.15H62.44a3.14,3.14,0,0,1,3.15,3.15v2.15c0,3.38,1.55,6.16,4.73,8.53s7.79,3.65,13.47,3.65c4.69,0,8.18-1,10.39-2.87a8.68,8.68,0,0,0,3.23-6.87,6.6,6.6,0,0,0-1.89-4.81,19.12,19.12,0,0,0-5.8-3.85c-2.59-1.17-6.78-2.82-12.44-4.9a124.7,124.7,0,0,1-16.43-6.81,34.27,34.27,0,0,1-11.66-9.79,25.1,25.1,0,0,1-4.81-15.56,27.36,27.36,0,0,1,4.7-15.86A29.82,29.82,0,0,1,62,78.12a46.79,46.79,0,0,1,18.77-3.56,48.06,48.06,0,0,1,20,4,33.21,33.21,0,0,1,13.91,11.31,29.18,29.18,0,0,1,5.06,16.94V109a3.14,3.14,0,0,1-3.16,3.15H100.13A3.16,3.16,0,0,1,97,109v-1.15a11.55,11.55,0,0,0-4.44-9.16c-3-2.58-7.26-3.88-12.62-3.88-4.15,0-7.4.86-9.67,2.57A7.91,7.91,0,0,0,67,104.08a7.19,7.19,0,0,0,1.84,5.06,18.17,18.17,0,0,0,6.12,4c2.87,1.28,7.4,3,13.44,5.2A169.43,169.43,0,0,1,104.56,125a33.51,33.51,0,0,1,10.94,8.9c3.31,4,5,9.28,5,15.6,0,9.41-3.51,17-10.43,22.41S93.91,180,82.36,180ZM46.1,145.22a.23.23,0,0,0-.2.08.21.21,0,0,0-.09.2v3.15a26.11,26.11,0,0,0,4.41,15,28.19,28.19,0,0,0,12.64,9.95,49.76,49.76,0,0,0,19.5,3.55c10.89,0,19.61-2.53,25.91-7.51s9.35-11.56,9.35-20.16c0-5.64-1.46-10.28-4.33-13.78a30.83,30.83,0,0,0-10-8.15c-3.81-1.87-9.13-4.07-15.84-6.53-6.1-2.19-10.69-4-13.63-5.27a21,21,0,0,1-7.08-4.71,10,10,0,0,1-2.59-7,10.72,10.72,0,0,1,4.37-9c2.77-2.1,6.6-3.16,11.39-3.16,6.06,0,10.93,1.54,14.48,4.57a14.47,14.47,0,0,1,5.44,11.34V109a.23.23,0,0,0,.08.2.24.24,0,0,0,.21.08h16.48a.24.24,0,0,0,.21-.08.23.23,0,0,0,.08-.2v-2.15a26.38,26.38,0,0,0-4.55-15.31A30.31,30.31,0,0,0,99.61,81.17a45.21,45.21,0,0,0-18.83-3.74,43.75,43.75,0,0,0-17.62,3.32,26.94,26.94,0,0,0-11.72,9.38,24.61,24.61,0,0,0-4.19,14.24,22.3,22.3,0,0,0,4.22,13.82,31.24,31.24,0,0,0,10.69,9,121.56,121.56,0,0,0,16.08,6.66c5.76,2.11,10,3.79,12.67,5a21.88,21.88,0,0,1,6.67,4.47,9.43,9.43,0,0,1,2.7,6.8,11.53,11.53,0,0,1-4.23,9c-2.74,2.37-6.86,3.57-12.26,3.57-6.31,0-11.42-1.42-15.18-4.22s-5.88-6.54-5.88-10.83V145.5a.22.22,0,0,0-.09-.2.21.21,0,0,0-.2-.08Z"/><path d="M154.27,184.3a31.53,31.53,0,0,1-11.75-17.2,51,51,0,0,1-2-14.62,53.06,53.06,0,0,1,2-15.19,30.78,30.78,0,0,1,11.9-16.63q8.6-6,20.63-6,11.76,0,20.07,6a31.71,31.71,0,0,1,11.75,16.55,49.08,49.08,0,0,1,2.29,15.05,50.43,50.43,0,0,1-2,14.48,32,32,0,0,1-11.68,17.55q-8.53,6.39-20.57,6.38T154.27,184.3Zm28.67-13.91a16,16,0,0,0,4.73-7.88,41.55,41.55,0,0,0,1.14-10,39.1,39.1,0,0,0-1.14-10.18,16,16,0,0,0-4.88-7.59,13.26,13.26,0,0,0-16.12,0A15.3,15.3,0,0,0,162,142.3a34.39,34.39,0,0,0-1.14,10.18,39,39,0,0,0,1,10,15.65,15.65,0,0,0,4.8,7.88,12.22,12.22,0,0,0,8.24,2.87A11.79,11.79,0,0,0,182.94,170.39Z"/><path class="cls-5" d="M148.54,178.56a31.46,31.46,0,0,1-11.75-17.2,50.89,50.89,0,0,1-2-14.61,53.18,53.18,0,0,1,2-15.2,30.79,30.79,0,0,1,11.89-16.62q8.61-6,20.64-6,11.76,0,20.07,6a31.67,31.67,0,0,1,11.75,16.55,49.08,49.08,0,0,1,2.29,15.05,50.71,50.71,0,0,1-2,14.47,32.08,32.08,0,0,1-11.68,17.56q-8.53,6.38-20.57,6.38T148.54,178.56Zm28.66-13.9a15.88,15.88,0,0,0,4.73-7.88,41,41,0,0,0,1.15-10,38.53,38.53,0,0,0-1.15-10.18,15.9,15.9,0,0,0-4.87-7.6,13.3,13.3,0,0,0-16.12,0,15.26,15.26,0,0,0-4.66,7.6,34,34,0,0,0-1.15,10.18,38.91,38.91,0,0,0,1,10,15.62,15.62,0,0,0,4.8,7.88,12.27,12.27,0,0,0,8.24,2.87A11.79,11.79,0,0,0,177.2,164.66Z"/><path d="M169.18,186.3c-8.3,0-15.53-2.21-21.49-6.58h0a33.09,33.09,0,0,1-12.28-18,52.47,52.47,0,0,1-2.06-15,54.9,54.9,0,0,1,2.06-15.61,32.42,32.42,0,0,1,12.45-17.39c5.95-4.16,13.17-6.27,21.46-6.27,8.1,0,15.13,2.09,20.9,6.21A33.29,33.29,0,0,1,202.5,131a50.78,50.78,0,0,1,2.37,15.49,52.15,52.15,0,0,1-2.07,14.88,33.57,33.57,0,0,1-12.2,18.3C184.69,184.06,177.48,186.3,169.18,186.3Zm.14-76c-7.69,0-14.35,1.94-19.81,5.76A29.53,29.53,0,0,0,138.16,132a51.87,51.87,0,0,0-1.94,14.77,49.79,49.79,0,0,0,1.94,14.2,30.29,30.29,0,0,0,11.23,16.46h0c5.45,4,12.11,6,19.79,6s14.3-2.05,19.71-6.1a30.79,30.79,0,0,0,11.16-16.79A49.62,49.62,0,0,0,202,146.46a47.79,47.79,0,0,0-2.23-14.61A30.48,30.48,0,0,0,188.55,116C183.28,112.25,176.81,110.34,169.32,110.34ZM169.18,169a13.71,13.71,0,0,1-9.17-3.21,17.1,17.1,0,0,1-5.25-8.58,40,40,0,0,1-1.06-10.42c0-4.7.4-8.17,1.22-10.63a16.61,16.61,0,0,1,5.09-8.24,14.73,14.73,0,0,1,18,0,17.43,17.43,0,0,1,5.33,8.26,40.53,40.53,0,0,1,1.21,10.62,42.93,42.93,0,0,1-1.19,10.38,17.48,17.48,0,0,1-5.17,8.61A13.26,13.26,0,0,1,169.18,169ZM169,127.68a10.63,10.63,0,0,0-7.18,2.39,13.88,13.88,0,0,0-4.2,6.9,33,33,0,0,0-1.09,9.78,37.84,37.84,0,0,0,1,9.64,14.33,14.33,0,0,0,4.35,7.18,10.76,10.76,0,0,0,7.31,2.52,10.32,10.32,0,0,0,7.08-2.51h0a14.64,14.64,0,0,0,4.3-7.2,40,40,0,0,0,1.09-9.63,37.46,37.46,0,0,0-1.1-9.8,14.5,14.5,0,0,0-4.4-6.87A10.74,10.74,0,0,0,169,127.68Z"/><path d="M238,174.14a31.3,31.3,0,0,1-12-15.77,52.43,52.43,0,0,1-2.44-16.91A50.64,50.64,0,0,1,226,124.84a29.73,29.73,0,0,1,11.9-15.34,35.23,35.23,0,0,1,19.92-5.59A35.67,35.67,0,0,1,278,109.64q8.67,5.74,11.54,14.48a18.34,18.34,0,0,1,1.15,5.16v.29a1.52,1.52,0,0,1-1.44,1.57l-16.48,2.44h-.28a1.72,1.72,0,0,1-1.72-1.44l-.43-2.29a10.88,10.88,0,0,0-4.45-6.16,13.78,13.78,0,0,0-8.17-2.44,12.81,12.81,0,0,0-7.74,2.3,12.16,12.16,0,0,0-4.44,6.3A35.28,35.28,0,0,0,244,141.6a38.41,38.41,0,0,0,1.43,11.76,12.74,12.74,0,0,0,4.51,6.73,12.54,12.54,0,0,0,7.81,2.44,13.22,13.22,0,0,0,7.81-2.37,12,12,0,0,0,4.66-6.52,1.89,1.89,0,0,0,.15-.86.58.58,0,0,0,.14-.43c.09-1.14.76-1.62,2-1.43L289,153.5a1.53,1.53,0,0,1,1.43,1.58,20.42,20.42,0,0,1-.86,4.3,26.72,26.72,0,0,1-11.68,15,36.72,36.72,0,0,1-20,5.45A34.31,34.31,0,0,1,238,174.14Z"/><path class="cls-5" d="M232.28,168.4a31.22,31.22,0,0,1-12-15.76,52.48,52.48,0,0,1-2.44-16.91,50.74,50.74,0,0,1,2.44-16.63,29.69,29.69,0,0,1,11.89-15.33,35.27,35.27,0,0,1,19.92-5.59,35.68,35.68,0,0,1,20.14,5.73q8.67,5.73,11.54,14.48a18.24,18.24,0,0,1,1.14,5.16v.28a1.52,1.52,0,0,1-1.43,1.58L267,127.85h-.29a1.72,1.72,0,0,1-1.72-1.44l-.43-2.29a10.91,10.91,0,0,0-4.44-6.16,13.73,13.73,0,0,0-8.17-2.44,12.85,12.85,0,0,0-7.74,2.29,12.19,12.19,0,0,0-4.44,6.31,35.2,35.2,0,0,0-1.58,11.75,38.25,38.25,0,0,0,1.44,11.75A12.24,12.24,0,0,0,252,156.8a13.22,13.22,0,0,0,7.81-2.37,12.08,12.08,0,0,0,4.66-6.52,2.1,2.1,0,0,0,.14-.86.56.56,0,0,0,.15-.43c.09-1.15.76-1.62,2-1.43l16.48,2.58a1.52,1.52,0,0,1,1.44,1.57,20.3,20.3,0,0,1-.86,4.3,26.71,26.71,0,0,1-11.68,15.05,36.82,36.82,0,0,1-20,5.45A34.21,34.21,0,0,1,232.28,168.4Z"/><path d="M252.12,175.57a35.82,35.82,0,0,1-20.65-6A32.83,32.83,0,0,1,219,153.12a54.1,54.1,0,0,1-2.52-17.39,52.46,52.46,0,0,1,2.51-17.1,31.4,31.4,0,0,1,12.46-16.06,39.72,39.72,0,0,1,41.64.15,29,29,0,0,1,12.11,15.22,19.27,19.27,0,0,1,1.22,5.61v.28a2.94,2.94,0,0,1-2.59,3l-.07,0L267,129.28h-.29a3.15,3.15,0,0,1-3.09-2.46l0-.14-.41-2.24a9.43,9.43,0,0,0-3.88-5.31A12.35,12.35,0,0,0,252,117a11.5,11.5,0,0,0-6.9,2,10.76,10.76,0,0,0-3.92,5.59,34.16,34.16,0,0,0-1.5,11.31,37,37,0,0,0,1.36,11.3,11.36,11.36,0,0,0,4,6.05,11.13,11.13,0,0,0,6.95,2.14,11.79,11.79,0,0,0,7-2.1,10.61,10.61,0,0,0,4.11-5.77l.06-.17a1.23,1.23,0,0,0,0-.27v-.59l.17-.18a2.89,2.89,0,0,1,1.05-2,3.22,3.22,0,0,1,2.58-.54l16.49,2.58a3,3,0,0,1,2.64,3,20.65,20.65,0,0,1-.91,4.68,28.26,28.26,0,0,1-12.3,15.88A38.36,38.36,0,0,1,252.12,175.57Zm0-76A34.07,34.07,0,0,0,233,105a28.52,28.52,0,0,0-11.33,14.62,49.65,49.65,0,0,0-2.36,16.15,51.63,51.63,0,0,0,2.36,16.45,30,30,0,0,0,11.42,15h0a33,33,0,0,0,19,5.48,35.58,35.58,0,0,0,19.24-5.22,25.47,25.47,0,0,0,11.07-14.27,17.58,17.58,0,0,0,.79-3.87v-.09a1.94,1.94,0,0,0-.28-.08l-16.42-2.57a2.48,2.48,0,0,0-.33,0,.37.37,0,0,0,0,.12,2.09,2.09,0,0,1-.16.76,3,3,0,0,1-.22,1,13.55,13.55,0,0,1-5.17,7.18,14.7,14.7,0,0,1-8.64,2.63,14,14,0,0,1-8.67-2.73,14.2,14.2,0,0,1-5-7.46,39.47,39.47,0,0,1-1.49-12.17,36.84,36.84,0,0,1,1.66-12.25,13.65,13.65,0,0,1,5-7,14.27,14.27,0,0,1,8.58-2.56,15.18,15.18,0,0,1,9,2.7,12.35,12.35,0,0,1,5,7l0,.1.42,2.22c.11.34.19.34.32.34h.18L283.26,124a.77.77,0,0,0,.25-.09v-.36a16.24,16.24,0,0,0-1.07-4.71,26.24,26.24,0,0,0-11-13.73A34.42,34.42,0,0,0,252.12,99.61Z"/><path d="M316.14,99.14a11.79,11.79,0,1,1,8.09,3.22A11,11,0,0,1,316.14,99.14Zm-1.72,84.7a1.64,1.64,0,0,1-.51-1.22V112.25a1.67,1.67,0,0,1,.51-1.22,1.65,1.65,0,0,1,1.21-.5H332.4a1.71,1.71,0,0,1,1.72,1.72v70.37a1.67,1.67,0,0,1-.5,1.22,1.64,1.64,0,0,1-1.22.5H315.63A1.61,1.61,0,0,1,314.42,183.84Z"/><path class="cls-5" d="M310.4,93.41a11.8,11.8,0,1,1,8.1,3.22A11,11,0,0,1,310.4,93.41Zm-1.72,84.7a1.68,1.68,0,0,1-.5-1.22V106.52a1.71,1.71,0,0,1,1.72-1.72h16.77a1.71,1.71,0,0,1,1.72,1.72v70.37a1.71,1.71,0,0,1-1.72,1.72H309.9A1.68,1.68,0,0,1,308.68,178.11Z"/><path d="M326.67,180H309.9a3.14,3.14,0,0,1-3.15-3.15V106.52a3.14,3.14,0,0,1,3.15-3.15h16.77a3.11,3.11,0,0,1,2.23.91,3.16,3.16,0,0,1,.92,2.24v70.37a3.14,3.14,0,0,1-3.15,3.15ZM309.9,106.23a.29.29,0,0,0-.29.29v70.37a.23.23,0,0,0,.08.2h0a.23.23,0,0,0,.2.08h16.77a.31.31,0,0,0,.29-.29V106.52a.24.24,0,0,0-.09-.21.23.23,0,0,0-.2-.08Zm8.6-8.17a12.76,12.76,0,1,1,9.18-21.94,13.39,13.39,0,0,1-.07,18.3A12.4,12.4,0,0,1,318.5,98.06Zm0-22.64a10,10,0,0,0-7.08,17,9.89,9.89,0,0,0,17-7.08,9.37,9.37,0,0,0-9.89-9.89Z"/><path d="M400.14,115.18A27.41,27.41,0,0,1,411.53,124a20.57,20.57,0,0,1,4.09,12.47v48.58a1.71,1.71,0,0,1-1.72,1.72H397.13a1.63,1.63,0,0,1-1.22-.5,1.67,1.67,0,0,1-.5-1.22v-4.73a.59.59,0,0,0-.29-.57c-.19-.09-.38,0-.57.29q-6,7.88-19.35,7.88-11.18,0-18.06-5.45t-6.88-16.05q0-11,7.74-17.13t22.07-6.09h14.62a.63.63,0,0,0,.72-.71v-3.16a9.57,9.57,0,0,0-2.87-7.38c-1.91-1.76-4.78-2.65-8.6-2.65a15.51,15.51,0,0,0-7.38,1.58,7.33,7.33,0,0,0-3.79,4.44,1.64,1.64,0,0,1-1.87,1.43l-17.34-2.29c-1.15-.19-1.67-.62-1.58-1.29a19.13,19.13,0,0,1,4.8-10.89,28.06,28.06,0,0,1,11.18-7.6A42.47,42.47,0,0,1,383.51,112,40.81,40.81,0,0,1,400.14,115.18Zm-9,54.39a10.17,10.17,0,0,0,4.3-8.45V156a.64.64,0,0,0-.72-.72H384.37q-6.45,0-10.1,2.44a7.79,7.79,0,0,0-3.65,6.88,7.42,7.42,0,0,0,2.72,6.09,11.21,11.21,0,0,0,7.31,2.22A16.69,16.69,0,0,0,391.11,169.57Z"/><path class="cls-5" d="M394.41,109.45a27.41,27.41,0,0,1,11.39,8.82,20.62,20.62,0,0,1,4.08,12.46v48.59a1.64,1.64,0,0,1-.5,1.22,1.67,1.67,0,0,1-1.22.5H391.4a1.67,1.67,0,0,1-1.22-.5,1.64,1.64,0,0,1-.5-1.22v-4.73a.57.57,0,0,0-.29-.57c-.19-.1-.38,0-.57.28q-6,7.89-19.35,7.89-11.18,0-18.06-5.45t-6.88-16.05q0-11,7.74-17.13t22.07-6.09H389a.64.64,0,0,0,.72-.72V133.6a9.57,9.57,0,0,0-2.87-7.38q-2.87-2.66-8.6-2.65a15.51,15.51,0,0,0-7.38,1.57,7.42,7.42,0,0,0-3.8,4.45,1.63,1.63,0,0,1-1.86,1.43l-17.34-2.29c-1.15-.19-1.68-.62-1.58-1.29a19,19,0,0,1,4.8-10.89,28.06,28.06,0,0,1,11.18-7.6,42.43,42.43,0,0,1,15.55-2.72A40.84,40.84,0,0,1,394.41,109.45Zm-9,54.39a10.23,10.23,0,0,0,4.3-8.45v-5.16a.64.64,0,0,0-.72-.72H378.64q-6.45,0-10.1,2.44a7.78,7.78,0,0,0-3.66,6.87,7.44,7.44,0,0,0,2.73,6.1,11.2,11.2,0,0,0,7.3,2.22A16.7,16.7,0,0,0,385.38,163.84Z"/><path d="M369.47,183.62c-7.75,0-14.13-1.94-19-5.76s-7.42-9.67-7.42-17.17c0-7.79,2.79-13.93,8.28-18.25s13.12-6.4,23-6.4h13.9V133.6a8.12,8.12,0,0,0-2.4-6.33c-1.63-1.5-4.2-2.27-7.63-2.27a14.07,14.07,0,0,0-6.7,1.41,5.91,5.91,0,0,0-3.1,3.59,3.05,3.05,0,0,1-3.39,2.45l-17.38-2.3c-2.93-.49-2.89-2.36-2.81-2.92A20.47,20.47,0,0,1,350,115.61a29.51,29.51,0,0,1,11.74-8,43.79,43.79,0,0,1,16.07-2.83,42.39,42.39,0,0,1,17.2,3.35h0a28.89,28.89,0,0,1,12,9.28,22.15,22.15,0,0,1,4.36,13.31v48.59a3.09,3.09,0,0,1-.92,2.23,3.13,3.13,0,0,1-2.24.92H391.4a3.14,3.14,0,0,1-3.16-3.15v-2.19C383.93,181.44,377.63,183.62,369.47,183.62Zm4.87-44.72c-9.18,0-16.31,1.95-21.18,5.79s-7.2,9-7.2,16c0,6.67,2.08,11.55,6.34,14.93s10.08,5.13,17.17,5.13c8.36,0,14.47-2.45,18.18-7.29a1.82,1.82,0,0,1,2.37-.73,2,2,0,0,1,1.09,1.86v4.73a.21.21,0,0,0,.08.2.23.23,0,0,0,.21.09h16.76a.22.22,0,0,0,.21-.09.23.23,0,0,0,.08-.2V130.73a19.31,19.31,0,0,0-3.81-11.62,26.23,26.23,0,0,0-10.81-8.35h0a39.58,39.58,0,0,0-16.05-3.1,41.18,41.18,0,0,0-15,2.62,26.94,26.94,0,0,0-10.62,7.2,17.91,17.91,0,0,0-4.42,9.76,3.56,3.56,0,0,0,.35.07l17.3,2.29a.24.24,0,0,0,.13,0,1,1,0,0,0,.16-.38,8.8,8.8,0,0,1,4.5-5.33,17,17,0,0,1,8.06-1.75c4.17,0,7.4,1,9.57,3a11,11,0,0,1,3.33,8.43v3.15A2.05,2.05,0,0,1,389,138.9Zm-26.66-11.35v0Zm27.24,41A12.67,12.67,0,0,1,366.7,166a8.83,8.83,0,0,1-3.25-7.21,9.19,9.19,0,0,1,4.29-8.07c2.67-1.77,6.34-2.67,10.9-2.67H389a2.05,2.05,0,0,1,2.15,2.15v5.16a11.62,11.62,0,0,1-4.86,9.59A18.17,18.17,0,0,1,374.92,168.57Zm3.72-17.63c-4,0-7.12.74-9.31,2.2a6.38,6.38,0,0,0-3,5.68,6,6,0,0,0,2.19,5,9.84,9.84,0,0,0,6.41,1.9,15.34,15.34,0,0,0,9.58-3h0a8.76,8.76,0,0,0,3.73-7.31v-4.45Z"/><path d="M434.25,178.47a1.61,1.61,0,0,1-.5-1.21V80.37a1.71,1.71,0,0,1,1.72-1.72h16.76A1.71,1.71,0,0,1,454,80.37v96.89a1.61,1.61,0,0,1-.5,1.21,1.64,1.64,0,0,1-1.22.51H435.47A1.64,1.64,0,0,1,434.25,178.47Z"/><path class="cls-5" d="M428.52,172.74a1.64,1.64,0,0,1-.51-1.22V74.64a1.72,1.72,0,0,1,1.72-1.72H446.5a1.71,1.71,0,0,1,1.72,1.72v96.88a1.67,1.67,0,0,1-.5,1.22,1.64,1.64,0,0,1-1.22.5H429.73A1.61,1.61,0,0,1,428.52,172.74Z"/><path d="M446.5,174.68H429.73a3.16,3.16,0,0,1-3.15-3.16V74.64a3.14,3.14,0,0,1,3.15-3.15H446.5a3,3,0,0,1,2.23.92,3.08,3.08,0,0,1,.92,2.23v96.88a3.16,3.16,0,0,1-3.15,3.16ZM429.73,74.35a.23.23,0,0,0-.2.08.25.25,0,0,0-.08.21v96.88a.22.22,0,0,0,.07.2h0a.22.22,0,0,0,.2.08H446.5a.27.27,0,0,0,.29-.29V74.64a.24.24,0,0,0-.09-.21.23.23,0,0,0-.2-.08Z"/><path class="cls-6" d="M100.58,19.1,94.09,29.52s-22.8-1-31.26,6.69c0,0-13.95,17.1-21.23,19.46,0,0-8.06,3.14-15.53,1.57,0,0-12-4.52-11.79-14,0,0-3.54-8.25,2.55-15.33,0,0,4.13-5.51,8.85-6.29,0,0,4.91-1.58,8.65,1.77,0,0,7.86,9.43-1.18,13.17,0,0-4.33,4.72-11.8-2.75,0,0-3.34,4.13.79,11,0,0,10.81,9.24,21.82-.59,0,0,8.46-6.49,6.88-17.11,0,0-3.34-14.35-12.58-17.1,0,0-13.37-6.49-24.77,1.77,0,0-11.6,9.83-13,20.84,0,0-2.55,14.74,3.74,22.61,0,0,9.83,16.9,21.62,19.85,0,0,10.42,3.15,16.91,4.92a7.41,7.41,0,0,0-2.36,7.47l3.74,10.61s5.31-4.32,9-7.27c0,0,14.75-7.67,16.32-8.26s2.75,5.51,17.1,5.7c0,0-7.47-8.65.2-10.42l15.53,3.74s14.94,12.19,21.82,9.63a24.32,24.32,0,0,0,0-13.76s7.67,2.16,12.39-.59l.39-3.54s8.06.4,10.22-.78c0,0,1.38-9.44-.58-12.78,0,0-7.87-6.88-7.87-7.47v.59l-2-7.47s.19-1.18-1.58-1.38l-5.7-.2S114.34,19.89,100.58,19.1Z"/><path class="cls-7" d="M83.62,47.59c-.05-1.87,1.63-6.07,3.89-10.58,1.62-3.23,4.24-6.33,6-9.45,2.69-4.73,4.68-8.87,5.28-9.84a1.5,1.5,0,0,1,2-.54,1.32,1.32,0,0,1,.21,1.88c-1.63,2.65-3,6.11-4.85,9.41s-3.54,6.51-5,9.44a107.41,107.41,0,0,0-4.21,10C84.72,49.77,83.64,48.33,83.62,47.59Z"/><path class="cls-7" d="M39.15,79.68a28,28,0,0,1-9.56-1.77c-3-1.16-6-3.18-9.27-5.18A92.62,92.62,0,0,1,9.91,65.41c-.55-.5-.92-1.67-.42-2.22s2.86,1.13,3.42,1.63c.08.07,2.69,1.75,8.06,5.1a57.29,57.29,0,0,0,10.1,5c3.62,1.37,7.34,3.08,11,3,.75,0,1.93,0,2,.7s-1.14,1-1.89,1.07S39.88,79.72,39.15,79.68Z"/><path class="cls-7" d="M44.24,99.38c-1.59-3.92-1.94-3.79-3.53-7.71a31,31,0,0,1-1.53-4.74,8.22,8.22,0,0,1,2-7.83c2.1-2.25,2.95-3.31,6.5-6.94.51-.51,1.73,1.3,1.23,1.81-4.56,4.65-4.85,3.9-7.59,9.4-1.8,3.61.27,5,1.79,8.72s1,2,2.55,5.69c.26.65,1,1.92.36,2.17C45.82,100,44.45,99.89,44.24,99.38Z"/><path class="cls-7" d="M69.5,86.21a1,1,0,0,1-.62-1.09c.3-1.62-1.13-6-2.12-10.62C66,70.84,65.33,66.92,64.53,64a.82.82,0,0,1,.1-.65c.29-.47.4-.84.86-1,5.25-1.37,5.12-1.84,10.37-3.21s5.22-1.44,10.47-2.81c.56-.15.63.31.72.86A1.45,1.45,0,0,1,86,58.88c-6.24,1.6-3.58,1.24-8.81,2.61-4.91,1.29-5,1.17-9.48,3.48,0,0,0,0,0,0,.57,2.15,1,6,1.83,10.09.89,4.34,1.59,8.54,1.16,10.5C70.54,86.21,69.66,86.27,69.5,86.21Z"/><path class="cls-7" d="M83.53,84.81c-.74-.14-1-.78-.82-1.52,1.45-7.14.78-7.15,2.23-14.29.14-.74.82-1,1.56-.81s1,.55.8,1.28c-1.44,7.15-1.39,7.22-2.83,14.36A1.42,1.42,0,0,1,83.53,84.81Z"/><path class="cls-7" d="M142.19,74.41c-2.9,0-4.68-.88-8.08-1.46,0,0,.61-.31.61-3.39,3.77.59,8.31,2.21,11.07,1.93,0-3.21-.42-10.63-2.25-14.23a1.3,1.3,0,0,1,0-.95c1.35-3.46,1.92-1.62,2.84-.65,1.62,1.7,2,5.25,2.28,8.38a79.64,79.64,0,0,1,.1,8.78,1.51,1.51,0,0,1-1.23,1.31A46,46,0,0,1,142.19,74.41Z"/><path class="cls-4" d="M124.76,78l.79,4.59a16.24,16.24,0,0,1-.26,3.54l-.92,4.58S108.94,90.43,104.71,73Z"/><path class="cls-7" d="M130.2,78.87c-2.9,0-4.68-.89-8.08-1.47s-16.51-3.53-16.89-3.64c-.71-.23-2.65-1.29-2.42-2s.49-1.55,1.21-1.33c.09,0,15.33,3.06,18.71,3.59,3.77.59,8.3,2.2,11.07,1.93,0-3.21-.42-10.64-2.25-14.23a1.33,1.33,0,0,1-.05-1c1.35-3.46,1.91-1.62,2.84-.64,1.62,1.7,2,5.24,2.28,8.38a75.75,75.75,0,0,1,.09,8.78,1.46,1.46,0,0,1-1.22,1.3A43.72,43.72,0,0,1,130.2,78.87Z"/><path class="cls-3" d="M114.57,35.67c-2.71-1.4-11.51-6.07-13-8.3,0,0-1.38-2.46,2.75-.59l11.23,7.49s2,1.69.91,1.89A3.52,3.52,0,0,1,114.57,35.67Z"/><path class="cls-3" d="M51.48,79.09c-.92,1.65-4,7-5.91,7.72,0,0-2.11.59-1-2L50,78.21s1.29-1.17,1.64-.36A1.52,1.52,0,0,1,51.48,79.09Z"/><path class="cls-3" d="M106.07,37.06c-1.26-.56-5.31-2.48-5.86-4.14,0,0-.47-1.9,1.47-1.3l5,3.87s.88,1,.28,1.5A.89.89,0,0,1,106.07,37.06Z"/><path class="cls-3" d="M72.81,73c-.34-1.33-1.33-5.7-.37-7.16,0,0,1.2-1.54,1.93.35l.06,6.35s-.23,1.31-1,1.15A.91.91,0,0,1,72.81,73Z"/><path class="cls-3" d="M70,35.94c.14.45.38.87.52,1.32.2.62.44,1.23.66,1.84s.57,1.27.79,1.94a4,4,0,0,0,.53,1.06,5,5,0,0,1,.4,1.08c.18.45.5.83.66,1.29a5.77,5.77,0,0,0,.34.81c.46.82.73,1.73,1.22,2.54a15.13,15.13,0,0,1,.69,1.4c.47,1,1,1.92,1.46,2.89.09.2.23.37.33.55a.22.22,0,0,0,.29.1.37.37,0,0,0,.25-.25,1,1,0,0,0,0-.29,4.46,4.46,0,0,0-.15-1,4.52,4.52,0,0,1-.26-1.2,4.15,4.15,0,0,1,.33-1.65c.34-.79.73-1.57,1.06-2.35a1.81,1.81,0,0,0,.2-1.13,4.06,4.06,0,0,0-.77-1.33,1.82,1.82,0,0,1-.42-1.16,2.75,2.75,0,0,1,.5-1.42,11.15,11.15,0,0,0,.72-1A11.85,11.85,0,0,0,80,38.7a1.72,1.72,0,0,0-.38-2.05,6.12,6.12,0,0,0-1.79-1.09,2.12,2.12,0,0,1-.62-.39.46.46,0,0,1-.19-.53,2.62,2.62,0,0,1,.91-1.28,10.15,10.15,0,0,0,1.88-1.81,2.26,2.26,0,0,0,.64-1.46,50.26,50.26,0,0,0-11.49,2.6c.11.43.22.87.36,1.29C69.51,34.64,69.79,35.27,70,35.94Z"/><path class="cls-3" d="M59.33,43.7a4.82,4.82,0,0,0,1.59,2.79,21.24,21.24,0,0,1,2.25,1.89,5.43,5.43,0,0,1,1,1.79,3.74,3.74,0,0,0,1.52,2.09c1.09.75,2.19,1.48,3.29,2.23.12.08.22.2.34.27s.58,0,.54-.2a1.41,1.41,0,0,0-.32-.87A7.3,7.3,0,0,1,69,53a2,2,0,0,1-.18-2.13c.27-.69.64-1.35.87-2.06a3.18,3.18,0,0,0-1.27-3.79,1.83,1.83,0,0,0-1.06-.25,3.33,3.33,0,0,1-1.45-.35.58.58,0,0,1-.31-.58A11.22,11.22,0,0,1,66.32,41a15.42,15.42,0,0,0,1-3.26A3.65,3.65,0,0,0,66,34.27l-.22-.16a15.49,15.49,0,0,0-2.92,2s-1.77,2.17-4.39,5.08a.18.18,0,0,1,0,.07A6.74,6.74,0,0,1,59.33,43.7Z"/><path class="cls-3" d="M50,55.74c1.21,2.65,2.36,5.32,3.7,7.9.17.32.39.61.53.94a.52.52,0,0,0,.16.17.24.24,0,0,0,.24,0,.21.21,0,0,0,.14-.17,1.52,1.52,0,0,0,.08-.62A2.65,2.65,0,0,1,55,62.67a5.6,5.6,0,0,0,.44-1.37A1.55,1.55,0,0,0,55,60c-.37-.52-1-.88-1.19-1.54a1.18,1.18,0,0,1,0-.67,9.08,9.08,0,0,1,.68-1.36,32.33,32.33,0,0,0,1.4-3.24A2.2,2.2,0,0,0,56,51.47a3.57,3.57,0,0,0-1-1.2,1.21,1.21,0,0,1-.43-.55A2.68,2.68,0,0,1,55,48a8.75,8.75,0,0,0,.82-1.81,1.15,1.15,0,0,0-.64-1.38,90.87,90.87,0,0,1-7,6.65l.18.42C48.91,53.16,49.41,54.47,50,55.74Z"/><path class="cls-3" d="M37,61.88a4.68,4.68,0,0,0,1.07,3.71,12.19,12.19,0,0,0,2,1.81,4.36,4.36,0,0,1,1.36,1.65.53.53,0,0,0,.08.17c.09.13.2.27.36.21s.09-.26,0-.4c-.22-.81-.51-1.6-.76-2.4a2.17,2.17,0,0,1,.42-2.12,4,4,0,0,0,1-1.92,2.77,2.77,0,0,0-1.13-2.66c-.26-.2-.49-.42-.74-.63-.41-.35-.32-.79-.21-1.22a3.38,3.38,0,0,1,1.27-1.76,4,4,0,0,0,1-1.21,11,11,0,0,1-1.25.51,33.37,33.37,0,0,1-6,1.56c.23.57.51,1.11.75,1.67A5.48,5.48,0,0,1,37,61.88Z"/><path class="cls-3" d="M24.88,58.23c-.07.29-.08.59-.14.88s-.16.8-.23,1.21-.1.86-.19,1.29a2.71,2.71,0,0,0-.05.75,3.51,3.51,0,0,1-.12.71c0,.3,0,.61-.06.91a5,5,0,0,0-.07.54c0,.59-.16,1.17-.15,1.77,0,.33-.05.65-.07,1-.06.68-.07,1.36-.13,2,0,.14,0,.27,0,.41s0,.12.12.14a.24.24,0,0,0,.22-.06.49.49,0,0,0,.11-.14,2.19,2.19,0,0,0,.23-.58,3.28,3.28,0,0,1,.24-.73,2.91,2.91,0,0,1,.71-.79c.43-.31.89-.61,1.32-.93a1.16,1.16,0,0,0,.47-.55,2.58,2.58,0,0,0,0-1,1.11,1.11,0,0,1,.14-.76,1.73,1.73,0,0,1,.73-.61,7.65,7.65,0,0,0,.71-.32c.26-.17.48-.34.71-.52a1.09,1.09,0,0,0,.44-1.23,3.74,3.74,0,0,0-.62-1.16,1.45,1.45,0,0,1-.21-.41.28.28,0,0,1,.07-.34,1.64,1.64,0,0,1,.9-.41A6.17,6.17,0,0,0,31.56,59a1.37,1.37,0,0,0,.81-.6.84.84,0,0,0-.07-.78,23.61,23.61,0,0,1-6.18-.38s-.37-.14-1-.42c0,0,0,.11,0,.16C25,57.37,25,57.8,24.88,58.23Z"/><path class="cls-3" d="M8.87,58c8.73-3.69,8.84-1.65,8.66-4.21.22-1.08,1.54-.39,2.59,0A16.9,16.9,0,0,1,15.86,49C10.82,54.05,8.07,58.22,8.87,58Z"/><path class="cls-3" d="M27.35,37.82a.64.64,0,0,0-.24.6.85.85,0,0,0,.41.45,3.46,3.46,0,0,0,.87.4.93.93,0,0,1,.48.34.2.2,0,0,1,0,.22.91.91,0,0,1-.17.23,2.34,2.34,0,0,0-.46.65.71.71,0,0,0,.13.8,2.64,2.64,0,0,0,.36.39,3.52,3.52,0,0,0,.37.27,1.07,1.07,0,0,1,.36.45.75.75,0,0,1,0,.49,1.69,1.69,0,0,0-.09.59.8.8,0,0,0,.21.38l.67.71a1.69,1.69,0,0,1,.33.56,1.48,1.48,0,0,1,.06.47,2.33,2.33,0,0,0,.08.38.47.47,0,0,0,.05.1.13.13,0,0,0,.12.06.1.1,0,0,0,.09-.08c0-.08,0-.16,0-.25,0-.42.09-.84.12-1.26,0-.2,0-.41.05-.61.07-.36,0-.74.09-1.1a1.37,1.37,0,0,0,0-.35c0-.19.06-.37.06-.56a2.26,2.26,0,0,1,0-.45,1.83,1.83,0,0,0,0-.47c0-.27,0-.54,0-.81s0-.51,0-.77,0-.37,0-.56,0-.54,0-.81,0-.38-.05-.57v0a6.26,6.26,0,0,1-3.93.06A.27.27,0,0,0,27.35,37.82Z"/><path class="cls-3" d="M35.24,35.74a.26.26,0,0,0-.19.28.43.43,0,0,0,.33.33,5.11,5.11,0,0,1,.66.22,3,3,0,0,1,.89.73,2.31,2.31,0,0,0,1.32.68,10.23,10.23,0,0,1,1.34.17,2.65,2.65,0,0,1,.83.44,1.75,1.75,0,0,0,1.11.43l1.82,0,.2,0c.15,0,.24-.13.16-.21a.6.6,0,0,0-.34-.26A2.72,2.72,0,0,1,43,38.5a.9.9,0,0,1-.6-.78c-.07-.33-.1-.68-.18-1a1.47,1.47,0,0,0-1.44-1.15.84.84,0,0,0-.47.17,1.54,1.54,0,0,1-.65.23.26.26,0,0,1-.26-.15A4.87,4.87,0,0,1,39,34.52,7.29,7.29,0,0,0,38.55,33a1.71,1.71,0,0,0-1.11-1,5.27,5.27,0,0,1-1.77,3,.34.34,0,0,0,0,.1C35.48,35.32,35.51,35.64,35.24,35.74Z"/><path class="cls-3" d="M3.19,39.66c1.26-.79,3.25,4.7,5.85.39.18,0,.22-.23,1,.31A7.06,7.06,0,0,0,14.22,43a16.38,16.38,0,0,1-.87-6.65C9.63,36-1.07,39.72,3.19,39.66Z"/><path class="cls-3" d="M17.72,26.4c-.44,0-.89-.13-1.33-.15-1-.06-1.91-.17-2.86-.22-2-.1-4-.24-6-.24a5.93,5.93,0,0,1-.73,0,.49.49,0,0,0-.16.05.15.15,0,0,0-.09.13.17.17,0,0,0,0,.15,1.33,1.33,0,0,0,.36.24,1.77,1.77,0,0,1,.76.49,3.8,3.8,0,0,0,.7.69,1,1,0,0,0,.9.18c.44-.06.87-.35,1.32-.23a.7.7,0,0,1,.4.22,7.94,7.94,0,0,1,.62.84,20.27,20.27,0,0,0,1.52,1.87,1.56,1.56,0,0,0,1,.58,2.1,2.1,0,0,0,.61-.09,15,15,0,0,1,2-3s.44-.58,1.19-1.4l0-.05C18,26.37,17.83,26.41,17.72,26.4Z"/><path class="cls-3" d="M24.63,20.28c.66-6.78-3.19-3.06-3.32-7.63-3.1,7.42-.38,6.45-.07,11.19a11.2,11.2,0,0,1,4.55-2.1,9.88,9.88,0,0,1,2.39-.36l.18-.07C27.9,20.34,25.2,20.85,24.63,20.28Z"/><path class="cls-3" d="M41.12,27.05a3.77,3.77,0,0,0,2.64-1,7.81,7.81,0,0,0,1.15-1.49,3,3,0,0,1,1.1-1,.47.47,0,0,0,.12-.07c.08-.07.18-.15.11-.25s-.19,0-.29,0c-.58.21-1.14.47-1.7.7a1.86,1.86,0,0,1-1.61-.09,3.08,3.08,0,0,0-1.51-.5,2.11,2.11,0,0,0-1.86,1c-.12.18-.27.35-.4.53s-.55.28-.88.24a2.59,2.59,0,0,1-1.41-.67,3.06,3.06,0,0,0-1.79-.72h-.2a17.87,17.87,0,0,1,1.54,2.42s.06,0,.07.06,0,0,0,.05c.24.46.47,1,.68,1.48l.17.07c.13.06.17.11.08.22a.51.51,0,0,0-.09.16l.15.46a12.57,12.57,0,0,0,1.76-.88A4.3,4.3,0,0,1,41.12,27.05Z"/><path class="cls-3" d="M35,19.63a4.44,4.44,0,0,0,1.47-2.83,8.82,8.82,0,0,0-.12-2.06,3.49,3.49,0,0,1,.17-1.65.94.94,0,0,0,.06-.15c0-.11,0-.26-.09-.29s-.19.12-.24.23c-.33.61-.61,1.24-.92,1.86A2.19,2.19,0,0,1,34,15.91a3.53,3.53,0,0,0-1.62.77,2.43,2.43,0,0,0-.86,2.19c0,.24,0,.48.05.72,0,.41-.26.65-.56.88a3,3,0,0,1-1.67.55,3.38,3.38,0,0,0-1,.22l-.18.07a9.09,9.09,0,0,1,5.25,1.36c.1-.28.19-.57.3-.85A5.28,5.28,0,0,1,35,19.63Z"/><path class="cls-7" d="M41.56,58.83a1.89,1.89,0,0,1,0-2.31,91.05,91.05,0,0,1,6.19-6.9c2.1-2.16,4.34-4.77,7.07-7.16a92.71,92.71,0,0,1,8.26-6.77A49.85,49.85,0,0,1,72.4,30.5a22.37,22.37,0,0,1,10.45-1.26c.74.05.51,2-.23,1.92-3.09-.22-6.27.8-9.62,2.09-7.56,2.92-13.8,9-16.25,11.18-2.7,2.35-13.61,14.19-13.69,14.28C42.75,59.09,41.77,59,41.56,58.83Z"/><path class="cls-7" d="M32.1,39.29c-3.22,1.18-7-.13-11.14-3.07a1.12,1.12,0,0,1-.3-1.67c.43-.59.78-.8,1.37-.38,3.46,2.45,6.83,3.27,9.29,2.52a7.11,7.11,0,0,0,4.23-4.2,6.18,6.18,0,0,0-.2-5.13,11.61,11.61,0,0,0-4.84-4.89c-.7-.2-2.79-1-2.58-1.73s.88-.78,1.59-.57c.24.07,6.09,1.38,8.43,5.82a9.23,9.23,0,0,1,.23,7.4s0,.06,0,.08C38.16,33.65,36.14,37.81,32.1,39.29Zm4.76-6.62L37,33C36.91,32.84,36.86,32.67,36.86,32.67Z"/><path class="cls-3" d="M116.58,51.3c0,3.22-1.91,6.52-4,8.63s-5.41,2.42-8.63,2.42a10.75,10.75,0,0,1-8-3.05c-2.11-2.11-4.37-4.78-4.37-8s2.81-5.33,4.93-7.44,4.21-4.54,7.44-4.54A12,12,0,0,1,112.24,43C114.35,45.1,116.58,48.08,116.58,51.3Z"/><path class="cls-4" d="M114.45,50.16c0,2.46-1.47,4.49-3.08,6.1a8.2,8.2,0,0,1-12.15,0c-1.61-1.6-3.16-3.6-3.16-6.06a9.07,9.07,0,0,1,3-6.17,8.8,8.8,0,0,1,6.18-2.8,9.08,9.08,0,0,1,6.39,2.58A9.25,9.25,0,0,1,114.45,50.16Z"/><path class="cls-6" d="M150.71,47s3.15.79,3.15,2.55-.59,6.69-1.18,6.89-6.35-.8-6.35-.8S146.59,46.82,150.71,47Z"/><path class="cls-7" d="M160,49.48c-.39-9-6.29-8.95-6.29-8.95l-13.07,1.18C138,36.3,131,39.65,131,39.65l-21.83,4.62c-2-2.76-4.22.29-4.22.29-1.77,2.56-.3,7.67-.3,7.67a2.76,2.76,0,0,0,4.13,1.57l21.82,6.29c3.93,1.18,5.8.4,5.8.4a10.52,10.52,0,0,0,4.82-3.25L150,59.5c3.53,1.38,4.12.2,4.12.2C160.64,58.42,160,49.48,160,49.48ZM138.51,54.7c-.89,2.1-1.65,4.3-3.21,4.3s-2.92-2-3.8-4a13.89,13.89,0,0,1-1.23-5.33,15.26,15.26,0,0,1,.74-5.53c.89-2.1,2.72-3.8,4.29-3.8s2.76,2,3.65,4.07a13.53,13.53,0,0,1,1.35,5.26C140.3,51.63,139.13,53.22,138.51,54.7Zm19.25-4.79a12.19,12.19,0,0,1-.53,4.31c-.69,1.75-1.72,3.07-2.95,3.07s-2.66-1.16-3.34-2.91a12.72,12.72,0,0,1-.69-4.47,11.93,11.93,0,0,1,1-4.32c.69-1.76,1.77-2.62,3-2.62a3.7,3.7,0,0,1,3.44,2.44C158.19,46.62,157.76,48.29,157.76,49.91Z"/></g></g></svg>