<svg width="148" height="162" viewBox="0 0 148 162" fill="none" xmlns="http://www.w3.org/2000/svg">
<g clip-path="url(#clip0)">
<path d="M99.7789 148.755C99.2659 149.519 99.0094 150.028 98.7529 150.538C97.7269 153.085 96.4444 155.632 95.4184 158.179C94.9054 159.708 93.8794 160.726 92.0839 160.981C90.5449 160.726 90.0319 159.453 89.7754 158.179C90.2884 156.651 90.8014 154.868 91.5709 153.34C94.1359 147.226 96.9574 141.368 99.5224 135.255C100.805 132.198 102.344 129.142 103.883 125.83C106.961 118.698 110.039 111.821 113.63 104.943C114.143 103.925 114.656 102.906 115.169 101.632C117.477 96.5378 119.786 91.6982 122.094 86.6038C124.403 82.0189 126.711 77.434 129.02 72.8491C130.046 72.8491 131.072 73.1038 131.072 74.8869C127.737 82.7831 124.403 90.934 121.068 99.085C120.299 100.868 119.529 102.396 119.273 104.179C119.016 104.689 118.503 104.943 118.503 105.453C115.425 111.311 112.86 117.17 110.552 123.283C110.552 123.538 110.039 124.047 110.552 124.557" fill="#5F4D45"/>
<path d="M0 104.688C0.512998 103.67 0.512998 102.651 0.512998 101.377C0.512998 98.3205 1.2825 95.2639 1.53899 92.2073C1.79549 90.679 2.05199 89.1507 2.30849 87.6224C3.07799 83.547 4.36048 79.7262 6.92548 76.1602C8.97747 73.3583 10.5165 70.047 12.825 67.2451C17.4419 61.3866 23.3414 57.5658 30.7799 55.7828C32.8319 55.2734 35.1404 55.0187 37.4489 55.0187C41.5529 55.0187 45.6568 55.0187 49.7608 55.0187C50.5303 55.0187 51.5563 55.2734 52.3258 54.7639C52.8388 52.9809 52.8388 51.4526 52.5823 49.4149C52.0693 45.3394 51.5563 41.5187 51.2998 37.4432C51.0433 34.896 50.7868 32.3489 50.5303 29.8017C50.0173 23.4338 49.7608 17.3206 50.0173 11.2073C50.5303 10.1885 51.2998 9.93376 52.3258 10.4432C52.5823 12.7356 52.5823 15.0281 53.0953 17.3206C53.8648 21.396 54.3778 25.2168 54.8908 29.2922C55.1473 31.33 55.4038 33.113 55.6603 35.1507C56.6863 41.0092 57.9688 46.613 58.4818 52.4715C58.4818 53.7451 58.9948 55.0187 59.5078 56.2922C60.0208 56.547 60.5338 56.547 61.0468 56.8017C61.5598 57.0564 62.3293 57.0564 62.8423 57.3111C70.5373 59.8583 77.2062 63.679 82.8492 69.2828C84.3882 70.8111 85.6707 72.3394 87.2097 73.613C92.3397 78.4526 95.9307 84.0564 97.9827 90.679C98.2392 91.1885 98.2392 91.9526 98.4957 92.462C98.4957 92.7168 98.7521 92.7168 99.0086 92.7168C100.035 92.4621 99.7781 91.6979 100.035 90.9337C102.087 85.5847 103.882 79.9809 105.678 74.6319C109.269 64.9526 112.603 55.2734 116.194 45.8488C116.964 43.8111 117.99 41.7734 118.759 39.7356C119.272 38.7168 120.042 37.9526 121.068 37.4432C121.581 37.6979 122.094 38.2073 122.607 38.4621C122.863 41.2639 121.581 43.5564 120.811 45.8488C119.529 49.1602 118.503 52.2168 117.22 55.5281C113.373 66.9904 109.525 78.7073 105.934 90.4243C104.395 95.0092 102.856 99.3394 101.317 103.924C101.061 105.198 100.548 106.217 100.291 107.49C100.035 109.783 99.7782 112.33 99.7782 114.877C99.7782 117.424 99.2652 119.717 98.7522 122.009C96.1872 131.434 91.5702 139.839 84.6447 146.971C82.3362 149.519 79.5147 151.556 76.6932 153.339C75.9237 153.849 74.8977 154.104 74.6412 155.377C73.6152 155.377 72.5892 156.141 71.5632 156.396C68.9983 157.67 66.1768 158.943 63.6118 159.962C60.2773 161.236 56.9428 162.254 53.3518 162C51.8128 162 50.2738 162 48.9913 162C43.3483 162 37.9619 160.981 32.8319 158.943C28.2149 157.16 23.8544 155.377 20.0069 152.321C18.9809 151.556 17.9549 150.538 16.9289 149.773C16.4159 149.264 15.6464 149.009 15.1334 148.5C14.8769 147.481 14.1075 146.971 13.338 146.207C11.5425 144.17 9.74697 141.877 8.46447 139.33C6.15598 135 4.61698 130.415 3.33449 125.575C3.07799 124.556 2.82149 123.792 2.56499 122.773C2.82149 120.99 2.56499 119.207 2.05199 117.679C2.05199 117.17 2.05199 116.66 2.05199 116.151C0 112.585 0 108.509 0 104.688ZM86.1837 117.679C87.7227 117.17 88.2357 116.405 88.7487 115.387C89.2617 114.113 89.2617 113.094 89.2617 111.821C89.0052 107.745 88.7487 103.67 88.4922 99.3394C88.2357 97.5564 87.9792 95.7734 87.4662 93.9904C86.1837 88.6413 84.3882 83.2922 82.5927 77.9432C82.3362 77.179 81.8232 76.6696 81.3102 76.1602C80.5407 75.396 79.0017 75.6507 78.4887 76.6696C78.2322 77.179 78.2322 77.6885 78.2322 78.1979C78.2322 79.4715 78.4887 80.7451 78.7452 82.0187C80.2842 86.3488 81.3102 90.679 82.0797 95.0092C82.3362 96.0281 82.3362 97.047 82.5927 97.8111C82.8492 103.16 83.1057 108.254 83.3622 113.604C83.3622 114.877 83.6187 116.151 84.6447 117.17C84.9012 117.17 85.6707 117.424 86.1837 117.679ZM8.72097 110.038C8.72097 111.821 8.72097 113.858 8.97747 115.896C9.49047 119.207 10.26 122.264 11.0295 125.575C12.312 130.924 14.3639 136.019 17.6984 140.604C18.4679 141.622 19.2374 142.641 20.5199 143.405C21.2894 143.915 22.3154 144.424 23.3414 144.424C23.8544 144.424 24.6239 144.424 25.1369 143.915C25.6499 143.405 25.9064 142.896 25.6499 142.132C25.3934 141.877 25.1369 141.368 24.8804 140.858C22.0589 138.311 20.2634 135 18.9809 131.688C16.4159 125.066 14.1075 118.188 13.338 110.802C13.338 109.783 12.825 108.764 12.0555 108.255C11.799 108 11.286 108 11.0295 108C10.0035 108.255 9.49047 108.764 8.72097 110.038ZM31.0364 73.1036C31.0364 70.5564 30.0104 68.7734 27.7019 67.7545C25.3934 66.7356 23.0849 66.7356 21.0329 68.2639C18.2114 70.5564 16.6724 73.3583 16.9289 77.179C17.1854 79.7262 18.7244 81.7639 21.0329 82.2734C23.8544 83.0375 26.4194 82.2734 28.2149 79.9809C30.0104 78.1979 31.0364 75.9055 31.0364 73.1036ZM45.9133 83.8017C45.9133 82.5281 45.6568 81.5092 45.1438 80.4904C43.0918 77.6885 39.2444 76.9243 36.4229 78.9621C33.6014 80.9998 32.8319 84.8205 34.8839 87.6224C36.4229 89.6602 38.9879 90.4243 41.2964 89.4054C42.0659 88.896 43.0918 88.3866 43.8613 87.8771C45.1438 86.8583 45.9133 85.5847 45.9133 83.8017ZM31.8059 95.2639C31.8059 91.9526 29.7539 89.4054 26.6759 89.4054C23.5979 89.1507 21.0329 91.1885 20.5199 94.4998C20.5199 95.5186 20.2634 96.5375 20.5199 97.3017C21.0329 100.104 24.3674 102.396 27.1889 101.632C30.0104 100.868 31.5494 98.5753 31.8059 95.2639ZM26.4194 127.868C26.6759 127.613 27.1889 127.358 27.4454 127.104C27.7019 126.594 27.9584 126.085 27.9584 125.321C27.9584 124.556 27.7019 123.538 27.4454 122.773C26.4194 119.462 25.6499 115.896 24.6239 112.585C24.3674 112.075 24.3674 111.566 24.3674 111.056C23.8544 109.783 22.5719 109.019 21.5459 109.273C20.5199 109.528 19.7504 110.802 19.7504 112.075V112.33C20.2634 116.151 21.0329 119.717 22.3154 123.283C22.8284 124.302 23.3414 125.321 23.8544 126.085C24.3674 127.358 25.1369 127.613 26.4194 127.868ZM76.9497 137.802C79.2582 137.292 80.7972 136.019 81.8232 133.981C82.5927 132.707 83.1057 131.179 83.8752 129.651C84.9012 127.868 84.9012 125.83 84.6447 124.047C84.6447 123.792 84.3882 123.538 84.1317 123.538C83.6187 123.283 83.1057 123.283 82.5927 123.538C81.0537 124.556 80.0277 126.085 79.2582 127.613C77.9757 130.16 76.6932 132.962 74.6412 135C74.3847 135.254 74.6412 135.509 74.3847 135.764C75.4107 137.038 75.4107 137.038 76.9497 137.802ZM62.8423 65.7168C64.3813 66.7356 65.9203 67.7545 67.2028 68.7734C67.7158 69.0281 67.9723 69.2828 68.4853 69.5375C68.7418 69.5375 68.9983 69.7922 69.2548 69.7922C70.2808 70.047 71.3067 69.7922 71.8197 69.0281C72.3327 68.2639 72.3327 67.2451 71.5632 66.7356C69.7678 64.6979 67.9723 62.6602 65.1508 62.4055C62.5858 62.9149 62.5858 62.9149 62.8423 65.7168Z" fill="#5F4D45"/>
<path d="M120.043 37.4432C119.017 37.9527 118.247 38.7168 117.734 39.7357C116.965 41.7734 115.939 43.8112 115.169 45.8489C111.578 55.5281 108.244 65.2074 104.653 74.6319C102.601 79.981 100.805 85.5847 99.0096 90.9338C98.7531 91.4432 99.0096 92.4621 97.9836 92.7168C97.7271 92.7168 97.4706 92.4621 97.4706 92.4621C97.2141 91.9527 96.9576 91.4432 96.9576 90.6791C94.9056 84.0564 91.0581 78.4527 86.1847 73.613C84.6457 72.0847 83.1067 70.8112 81.8242 69.2829C76.1812 63.4244 69.5122 59.6036 61.8172 57.3112C61.3042 57.0564 60.5347 57.0564 60.0217 56.8017C59.5088 56.547 58.9958 56.547 58.4828 56.2923C57.9698 55.0187 57.7133 53.7451 57.4568 52.4715C56.9438 46.613 55.6613 41.0093 54.6353 35.1508C54.3788 33.113 53.8658 31.33 53.8658 29.2923C53.6093 25.2168 52.8398 21.3961 52.0703 17.3206C51.5573 15.0281 51.5573 12.7357 51.3008 10.4432C51.8138 10.1885 52.0703 9.67908 52.0703 9.16965C52.0703 8.66021 52.0703 7.89606 52.3268 7.13191C55.9178 5.85832 59.2523 3.82059 63.6127 3.82059C64.1257 5.34889 64.6387 6.87719 64.6387 8.66021C64.6387 10.6979 65.4082 12.481 65.9212 14.264C65.9212 14.5187 66.1777 14.7734 66.4342 15.0281C66.6907 15.2829 66.9472 15.0281 66.9472 14.7734C67.4602 10.4432 67.9732 6.11304 68.4862 2.03757C68.9992 1.0187 69.5122 0.254551 70.5382 -0.254883C75.1552 -0.254883 80.0287 -0.254883 84.6457 -0.254883C86.9542 0.509268 89.2626 0.254551 91.5711 0.254551C93.1101 0.763985 94.3926 1.52814 95.6751 2.80172C97.7271 4.58474 98.2401 6.87719 97.7271 9.42436C97.2141 11.2074 96.7011 12.9904 96.1881 14.7734C95.6751 16.3017 95.4186 17.5753 94.9056 18.8489C94.3926 20.3772 94.1361 22.1602 94.1361 23.9432C94.1361 25.2168 94.1361 26.4904 93.8796 27.5093C93.6231 28.5281 93.6231 29.547 93.6231 30.3112C93.6231 31.5847 93.6231 33.113 93.1101 34.3866C92.8536 34.8961 92.8536 35.6602 92.8536 36.1696C92.8536 38.4621 92.5971 40.4998 92.0841 42.7923C92.0841 43.3017 92.0841 43.8112 92.0841 44.3206C92.8536 44.5753 92.8536 44.0659 93.1101 43.8112C95.1621 40.7546 96.9576 37.6979 98.7531 34.3866C101.831 29.2923 104.909 24.1979 107.987 19.1036C109.526 16.5564 110.552 13.7546 112.091 11.2074C112.604 10.4432 112.861 9.42436 113.63 8.91493C114.656 8.66021 115.426 9.16965 115.939 9.67908C119.53 11.2074 122.864 12.7357 125.686 14.5187C126.199 15.5376 126.199 16.3017 125.942 17.0659C124.147 22.6696 122.608 28.2734 120.812 33.8772C120.556 35.1508 120.299 36.1696 120.043 37.4432Z" fill="#B3CF9C"/>
<path d="M73.6133 155.123C73.8698 154.104 74.8958 153.595 75.6653 153.085C78.4868 151.048 81.3082 149.01 83.6167 146.717C90.5422 139.585 95.1592 131.434 97.7242 121.755C98.2372 119.463 98.7502 116.916 98.7502 114.623C98.7502 112.076 99.0067 109.783 99.2632 107.236C99.5197 105.963 99.7762 104.944 100.289 103.67C101.828 99.0853 103.367 94.7552 104.906 90.1703C108.754 78.708 112.345 66.991 116.192 55.274C117.218 51.9627 118.501 48.9061 119.783 45.5948C120.04 45.8495 120.04 45.8495 120.296 46.1042C120.553 46.1042 120.809 46.1042 120.809 45.8495C121.322 44.8306 122.092 44.0665 122.605 43.0476C124.144 39.991 125.426 36.9344 126.709 33.6231C127.991 30.3118 129.53 27.0004 130.813 23.9438C131.069 23.6891 131.326 23.4344 131.582 23.1797C132.608 23.1797 133.378 23.6891 134.404 24.1986C137.738 25.9816 145.69 31.0759 147.998 33.1136C148.255 33.8778 147.742 34.3872 147.229 35.1514C145.177 39.4816 142.868 43.8118 140.816 48.1419C137.995 54.2552 134.917 60.1136 132.095 66.2269C131.582 66.991 131.326 68.0099 131.326 69.0287C130.043 70.0476 129.53 71.3212 129.017 72.8495C126.709 77.4344 124.4 82.0193 122.092 86.6042C119.783 91.9533 117.475 96.7929 115.423 101.887C114.91 102.906 114.397 104.18 113.884 105.199C110.293 112.076 107.215 118.953 104.137 126.085C102.854 129.142 101.315 132.199 99.7762 135.51C97.2112 141.623 94.3897 147.482 91.8247 153.595C91.0552 155.123 90.5422 156.906 90.0292 158.434C86.1817 158.689 82.3342 158.18 78.4868 157.67C76.6913 156.906 75.4088 155.633 73.6133 155.123Z" fill="#B3CF9C"/>
<path d="M86.183 117.679C85.67 117.425 85.157 117.17 84.644 116.915C83.618 115.896 83.3615 114.623 83.3615 113.349C83.105 108 82.8485 102.906 82.592 97.5567C82.592 96.5378 82.3355 95.519 82.079 94.7548C81.3095 90.4246 80.2835 85.8397 78.7445 81.7642C78.2315 80.4906 77.975 79.2171 78.2315 77.9435C78.2315 77.434 78.488 76.9246 78.488 76.4152C79.001 75.3963 80.54 75.1416 81.3095 75.9057C81.8225 76.4152 82.3355 77.1793 82.592 77.6888C84.3875 83.0378 86.183 88.3869 87.4655 93.7359C87.9785 95.5189 88.235 97.302 88.4915 99.085C88.748 103.16 89.0044 107.236 89.2609 111.566C89.2609 112.84 89.2609 114.113 88.7479 115.132C88.2349 116.406 87.722 117.17 86.183 117.679Z" fill="#B3CF9C"/>
<path d="M8.7207 110.038C9.4902 108.764 10.0032 108.255 10.7727 108C11.0292 108 11.2857 108.255 11.7987 108.255C12.8247 108.764 13.0812 109.783 13.0812 110.802C13.8507 117.934 15.9027 124.811 18.7242 131.689C20.0067 135 21.8022 138.311 24.6237 140.858C25.1367 141.368 25.3932 141.877 25.3932 142.132C25.6497 143.151 25.1367 143.66 24.8802 143.915C24.3672 144.425 23.8542 144.425 23.0847 144.425C22.0587 144.425 21.0327 144.17 20.2632 143.406C19.2372 142.641 18.2112 141.623 17.4417 140.604C14.3637 136.019 12.3117 130.925 10.7727 125.575C10.2597 122.264 9.4902 119.208 8.9772 115.896C8.7207 113.858 8.7207 111.821 8.7207 110.038Z" fill="#B3CF9C"/>
<path d="M31.0368 73.1033C31.0368 75.9051 30.0108 78.1976 28.4718 80.2353C26.6763 82.5278 24.1114 83.0372 21.2899 82.5278C18.9814 82.0184 17.4424 79.9806 17.1859 77.4334C16.9294 73.6127 18.4684 70.8108 21.2899 68.5183C23.3419 66.99 25.6503 66.99 27.9588 68.0089C30.0108 69.0278 31.0368 70.8108 31.0368 73.1033Z" fill="#F4F0E9"/>
<path d="M45.9134 83.8014C45.9134 85.3297 45.4004 86.858 43.8614 87.8769C43.0919 88.3863 42.3224 88.8958 41.2964 89.4052C38.7314 90.4241 36.4229 89.6599 34.8839 87.6222C32.8319 84.8203 33.6014 80.7448 36.4229 78.9618C39.2444 76.9241 43.3484 77.6882 45.1439 80.4901C45.6569 81.509 45.9134 82.5279 45.9134 83.8014Z" fill="#F4F0E9"/>
<path d="M31.8055 95.2637C31.8055 98.575 30.01 100.867 27.1885 101.632C24.367 102.396 21.0325 100.358 20.5195 97.3014C20.5195 96.2826 20.5195 95.2637 20.5195 94.4995C21.0325 91.1882 23.341 89.1505 26.6755 89.4052C29.7535 89.4052 31.8055 91.9524 31.8055 95.2637Z" fill="#F4F0E9"/>
<path d="M26.417 127.868C25.1345 127.868 24.365 127.358 23.852 126.34C23.339 125.321 22.5695 124.557 22.313 123.538C21.0305 119.972 20.0045 116.406 19.748 112.585V112.33C19.748 111.057 20.5175 109.783 21.5435 109.528C22.5695 109.274 23.852 110.038 24.365 111.311C24.6215 111.821 24.6215 112.33 24.6215 112.84C25.6475 116.151 26.6735 119.717 27.443 123.028C27.6995 123.792 27.956 124.557 27.956 125.575C27.956 126.085 27.6995 126.849 27.443 127.358C27.1865 127.358 26.6735 127.613 26.417 127.868Z" fill="#B3CF9C"/>
<path d="M76.9491 137.801C75.4101 137.037 75.4101 137.037 74.6406 135.764C74.6406 135.509 74.6406 135.254 74.8971 135C76.9491 132.707 78.2316 130.16 79.5141 127.613C80.2836 125.83 81.3096 124.301 82.8486 123.537C83.3616 123.283 83.8746 123.283 84.3876 123.537C84.6441 123.792 84.6441 123.792 84.9006 124.047C85.1571 126.084 85.1571 127.867 84.1311 129.65C83.3616 131.179 82.8486 132.452 82.0791 133.981C80.7966 135.764 79.2576 137.292 76.9491 137.801Z" fill="#B3CF9C"/>
<path d="M62.8434 65.7167C62.5869 63.1696 62.5869 63.1696 65.4083 61.896C68.2298 62.4054 70.0253 64.1884 71.8208 66.2262C72.3338 66.9903 72.3338 67.7545 72.0773 68.5186C71.5643 69.2828 70.5383 69.7922 69.5123 69.2828C69.2558 69.2828 68.9993 69.2828 68.7428 69.0281C68.2298 68.7734 67.7168 68.5186 67.4603 68.2639C65.9213 67.7545 64.6389 66.7356 62.8434 65.7167Z" fill="#B3CF9C"/>
</g>
<defs>
<clipPath id="clip0">
<rect width="148" height="162" fill="white"/>
</clipPath>
</defs>
</svg>
