<svg width="563" height="24" fill="none" xmlns="http://www.w3.org/2000/svg"><g clip-path="url(#clip0)"><path d="M19.55 18.25c7.39 0 10.94-3.55 15-7.66 4.06-4.11 8.81-8.83 17.87-8.83s13.74 4.69 17.87 8.83c4.13 4.14 7.71 7.66 15.07 7.66s10.94-3.55 15.001-7.66c4.06-4.11 8.81-8.83 17.87-8.83s13.82 4.64 17.91 8.79c4.09 4.15 7.63 7.65 15 7.65s10.92-3.54 15-7.65 8.86-8.84 17.91-8.84 13.74 4.69 17.87 8.83c4.13 4.14 7.64 7.66 15 7.66s10.94-3.55 15-7.66c4.06-4.11 8.81-8.83 17.87-8.83s13.74 4.69 17.87 8.83c4.13 4.14 7.64 7.66 15 7.66s10.94-3.55 15-7.66c4.06-4.11 8.81-8.83 17.87-8.83s13.73 4.69 17.86 8.83c4.13 4.14 7.64 7.66 15 7.66s10.94-3.55 15-7.66c4.06-4.11 8.8-8.83 17.84-8.83s13.77 4.69 17.85 8.83c4.08 4.14 7.87 7.71 15.27 7.71 7.4 0 10.94-3.55 15-7.66 4.06-4.11 8.81-8.83 17.87-8.83s13.78 4.69 17.86 8.83 7.64 7.66 15 7.66 10.94-3.55 15-7.66c4.06-4.11 9-8.88 18-8.88s13.74 4.69 17.87 8.83c4.13 4.14 7.64 7.66 15 7.66s12-7.91 13.86-11.67c.23-.47 1.46-4.07 2.06-5.65l.21-.88L.051.12c1.65 1.3 2.87 8.2 4.47 10.42 2.02 2.82 7.64 7.71 15.03 7.71z" fill="#F5F1E8"/><path d="M480.08 22c-8.19 0-12.19-4-16.42-8.24-4.05-4.07-8.22-8.25-16.44-8.25s-12.64 4.37-16.45 8.23C426.58 18 422.62 22 414.35 22c-8.27 0-12.62-4.22-16.69-8.3-4.07-4.08-8.22-8.24-16.43-8.24-8.21 0-12.61 4.37-16.42 8.23-4 4.06-8.15 8.26-16.42 8.26-8.27 0-12.19-4-16.42-8.25-4.05-4.06-8.22-8.24-16.44-8.24s-12.64 4.37-16.45 8.23c-4 4.06-8.15 8.26-16.42 8.26-8.27 0-12.19-4-16.42-8.24-4-4.06-8.22-8.25-16.45-8.25-8.23 0-12.64 4.37-16.45 8.23-4 4.06-8.15 8.26-16.42 8.26-8.27 0-12.19-4-16.42-8.25-4-4.05-8.22-8.24-16.45-8.24-8.23 0-12.66 4.38-16.49 8.25-4.21 4.24-8.18 8.24-16.42 8.24-8.24 0-12.43-4.19-16.43-8.25-3.78-3.84-8.08-8.19-16.48-8.19s-12.64 4.37-16.45 8.23c-4 4.06-8.15 8.26-16.42 8.26-8.27 0-12.26-4-16.49-8.29-4-4.05-8.22-8.24-16.45-8.24-8.23 0-12.64 4.37-16.42 8.23-4 4.06-8.18 8.3-16.45 8.3S5.17 16.59 2.89 13.42A22.49 22.49 0 01.58 7.87C.09 6.37 0 3.08 0 .07h3.92a22.89 22.89 0 00.65 7.17c.66 2.39.94 3.16 2.18 4.56a16.94 16.94 0 0012.8 6.2c6.59 0 9.67-3.12 13.57-7.07 3.9-3.95 9.31-9.42 19.3-9.42s15.1 5.22 19.28 9.42C75.64 14.84 78.76 18 85.36 18c6.6 0 9.64-3.16 13.57-7.11 3.93-3.95 9.31-9.42 19.3-9.42s15.43 5.42 19.33 9.38c3.9 3.96 6.95 7.06 13.58 7.06s9.66-3.12 13.58-7.06c4.17-4.2 9.36-9.43 19.33-9.43 9.97 0 15.1 5.22 19.28 9.42 4.18 4.2 7.06 7.07 13.59 7.07s9.67-3.12 13.57-7.07c3.9-3.95 9.31-9.42 19.3-9.42s15.1 5.22 19.28 9.42c4.18 4.2 7.06 7.07 13.59 7.07s9.67-3.12 13.57-7.07c3.9-3.95 9.31-9.42 19.3-9.42s15.08 5.21 19.26 9.4c4.18 4.19 7.07 7.09 13.6 7.09 6.53 0 9.67-3.12 13.57-7.07 4.15-4.2 9.31-9.42 19.27-9.42 9.96 0 15.08 5.22 19.26 9.42 3.81 3.82 7.11 7.16 13.86 7.16 6.59 0 9.67-3.12 13.57-7.07 3.9-3.95 9.31-9.42 19.3-9.42s15.08 5.21 19.26 9.4c4.18 4.19 7.07 7.09 13.6 7.09 6.53 0 9.67-3.12 13.57-7.07 3.9-3.95 9.36-9.47 19.4-9.47s15.1 5.22 19.28 9.42c4.18 4.2 7.06 7.07 13.59 7.07 4.71 0 8.38-4.42 10.71-8 1.86-2.88 1.76-6.5 1.79-9.81H562c.06 0 0 3.47 0 3.8a22.164 22.164 0 01-.5 4 17.011 17.011 0 01-3 5.86c-2.38 3.36-5.39 6.61-9.46 7.77a11.87 11.87 0 01-3.13.43c-8.19 0-12.19-4-16.42-8.24-4-4.06-8.22-8.25-16.45-8.25-8.23 0-12.9 4.49-16.54 8.19-4.01 4.06-8.16 8.3-16.42 8.3z" fill="#fff"/></g><defs><clipPath id="clip0"><path fill="#fff" d="M0 0h562.08v24H0z"/></clipPath></defs></svg>