<svg xmlns="http://www.w3.org/2000/svg" viewBox="0 0 311.65 246.13"><defs><style>.cls-1{fill:#fff;}</style></defs><title>Asset 1Logo-2v</title><g id="Layer_2" data-name="Layer 2"><g id="Layer_1-2" data-name="Layer 1"><path d="M292.2,136.61h7.63V138H297.7V151.5h-3.28V138H292.2Zm10.28,6.22v8.67h-1.82V136.61h3.72l1.73,8.83,1.82-8.83h3.72V151.5h-3.16v-8.71l-1.78,8.71h-2.45Z"/><path d="M33.64,6,20.35,75.57a55.18,55.18,0,0,0-13.9-2.49L6,85a41.93,41.93,0,0,1,12.08,2.43l-5.37,28.13H23.4l4.25-22.72A45.43,45.43,0,0,0,46.5,97.07l3.61,18.48H76.83L54.72,6ZM30,80.54l6.51-34.76,7.69,39.28A31.49,31.49,0,0,1,30,80.54Z"/><path d="M109.79,117c18.41,0,30.58-6.68,30.58-30.13V6H129.09V86.9c0,12.47-2.38,16.77-11.43,16.77s-11.43-4.3-11.43-16.62V6h-27V86.9C79.21,110.35,91.39,117,109.79,117Z"/><path d="M175.11,73.24h2.38l9.94,42.31H214.6L203.17,66.71c7-5.49,11-14.25,11-27,0-27.76-14.4-33.7-32.8-33.7H149V115.55h26.13Zm0-57.44h5.2c5.34,0,7.57,2.52,7.57,22.56,0,19.45-2.23,23.6-7.57,23.6h-5.2Z"/><path d="M54.4,187.79C66,185,74.15,177.69,74.15,163c0-24.64-14.55-27.61-34.29-27.61H12V244.94H39.86c19.74,0,35.32-7,35.32-29.69C75.18,197,66.58,190.16,54.4,187.79Zm-16.92-42.6h2.38c6.38,0,8.31,1.78,8.31,20,0,17.21-1.93,18.85-8.31,18.85H37.48Zm3,89.95h-3v-42h3c5.79,0,8.16,2.38,8.16,20.64C48.61,234.25,46.68,235.14,40.45,235.14Z"/><path d="M114.53,134.2c-22.71,0-34.14,13.81-34.14,56s11.43,56,34.14,56c22.56,0,34.14-13.81,34.14-56S137.09,134.2,114.53,134.2Zm0,103c-6.53,0-7-3.71-7-47.06s.45-47,7-47,7,3.71,7,47S121.06,237.22,114.53,237.22Z"/><path d="M221,169.09c0-27.76-14.39-33.7-32.8-33.7H155.8V244.94h26.13V202.63h2.37l9.95,42.31h27.16L210,196.1C217,190.61,221,181.85,221,169.09Zm-33.84,22.26h-5.19V145.19h5.19c5.34,0,7.57,2.52,7.57,22.56C194.69,187.2,192.46,191.35,187.12,191.35Z"/><path d="M223.85,115.55h10.68l4.26-22.72a45.42,45.42,0,0,0,18.84,4.24l3.62,18.48H288L265.85,6H244.78l-13.3,69.57a55.06,55.06,0,0,0-13.89-2.49L217.14,85a41.93,41.93,0,0,1,12.08,2.43ZM247.6,45.78l7.68,39.27a31.33,31.33,0,0,1-14.19-4.51Z"/><path d="M270.79,245.05h26.72L275.39,135.51H254.31L241,205.07a55.68,55.68,0,0,0-13.9-2.49l-.44,11.91a42.48,42.48,0,0,1,12.07,2.43l-5.37,28.13h10.69l4.25-22.71a45.45,45.45,0,0,0,18.85,4.23Zm-20.17-35,6.51-34.76,7.69,39.27A31.38,31.38,0,0,1,250.62,210.05Z"/><path class="cls-1" d="M286.2,130.61h7.63V132H291.7V145.5h-3.28V132H286.2Zm10.28,6.22v8.67h-1.82V130.61h3.72l1.73,8.83,1.82-8.83h3.72V145.5h-3.16v-8.71l-1.78,8.71h-2.45Z"/><path class="cls-1" d="M27.64,0,14.35,69.57A55.18,55.18,0,0,0,.45,67.08L0,79a41.93,41.93,0,0,1,12.08,2.43L6.71,109.55H17.4l4.25-22.72A45.43,45.43,0,0,0,40.5,91.07l3.61,18.48H70.83L48.72,0ZM24,74.54l6.51-34.76,7.69,39.28A31.49,31.49,0,0,1,24,74.54Z"/><path class="cls-1" d="M103.79,111c18.41,0,30.58-6.68,30.58-30.13V0H123.09V80.9c0,12.47-2.38,16.77-11.43,16.77s-11.43-4.3-11.43-16.62V0h-27V80.9C73.21,104.35,85.39,111,103.79,111Z"/><path class="cls-1" d="M169.11,67.24h2.38l9.94,42.31H208.6L197.17,60.71c7-5.49,11-14.25,11-27,0-27.76-14.4-33.7-32.8-33.7H143V109.55h26.13Zm0-57.44h5.2c5.34,0,7.57,2.52,7.57,22.56,0,19.45-2.23,23.6-7.57,23.6h-5.2Z"/><path class="cls-1" d="M48.4,181.79C60,179,68.15,171.69,68.15,157c0-24.64-14.55-27.61-34.29-27.61H6V238.94H33.86c19.74,0,35.32-7,35.32-29.69C69.18,191,60.58,184.16,48.4,181.79Zm-16.92-42.6h2.38c6.38,0,8.31,1.78,8.31,20,0,17.21-1.93,18.85-8.31,18.85H31.48Zm3,89.95h-3v-42h3c5.79,0,8.16,2.38,8.16,20.64C42.61,228.25,40.68,229.14,34.45,229.14Z"/><path class="cls-1" d="M108.53,128.2c-22.71,0-34.14,13.81-34.14,56s11.43,56,34.14,56c22.56,0,34.14-13.81,34.14-56S131.09,128.2,108.53,128.2Zm0,103c-6.53,0-7-3.71-7-47.06s.45-47,7-47,7,3.71,7,47S115.06,231.22,108.53,231.22Z"/><path class="cls-1" d="M215,163.09c0-27.76-14.39-33.7-32.8-33.7H149.8V238.94h26.13V196.63h2.37l9.95,42.31h27.16L204,190.1C211,184.61,215,175.85,215,163.09Zm-33.84,22.26h-5.19V139.19h5.19c5.34,0,7.57,2.52,7.57,22.56C188.69,181.2,186.46,185.35,181.12,185.35Z"/><path class="cls-1" d="M217.85,109.55h10.68l4.26-22.72a45.42,45.42,0,0,0,18.84,4.24l3.62,18.48H282L259.85,0H238.78l-13.3,69.57a55.06,55.06,0,0,0-13.89-2.49L211.14,79a41.93,41.93,0,0,1,12.08,2.43ZM241.6,39.78l7.68,39.27a31.33,31.33,0,0,1-14.19-4.51Z"/><path class="cls-1" d="M264.79,239.05h26.72L269.39,129.51H248.31L235,199.07a55.68,55.68,0,0,0-13.9-2.49l-.44,11.91a42.48,42.48,0,0,1,12.07,2.43l-5.37,28.13h10.69l4.25-22.71a45.45,45.45,0,0,0,18.85,4.23Zm-20.17-35,6.51-34.76,7.69,39.27A31.38,31.38,0,0,1,244.62,204.05Z"/></g></g></svg>