<svg width="276" height="230" viewBox="0 0 276 230" fill="none" xmlns="http://www.w3.org/2000/svg">
<path d="M32.0213 4.71362L19.7254 69.9922C13.7161 68.0225 7.7992 67.6474 6.87469 67.6474L6.50488 78.8085C8.5388 78.9023 13.6236 79.4651 17.6914 81.0595L12.6991 107.415H22.5913L26.5667 86.1242C30.727 88.0938 36.6439 89.9696 43.9475 90.0634L47.2757 107.415H71.9601L51.5285 4.71362H32.0213ZM28.6931 74.5879L34.7024 41.9487L41.8211 78.8085C35.6269 78.3396 31.1893 76.2762 28.6931 74.5879Z" fill="black"/>
<path d="M102.471 108.822C119.482 108.822 130.761 102.538 130.761 80.5905V4.71362H120.314V80.5905C120.314 92.3144 118.095 96.3474 109.774 96.3474C101.361 96.3474 99.2348 92.3144 99.2348 80.7781V4.71362H74.273V80.5905C74.1806 102.631 85.4596 108.822 102.471 108.822Z" fill="black"/>
<path d="M162.839 67.7412H165.057L174.21 107.415H199.357L188.817 61.6448C195.289 56.4863 198.987 48.2326 198.987 36.3212C198.987 10.2473 185.674 4.71362 168.571 4.71362H138.709V107.415H162.839V67.7412ZM162.839 13.9051H167.646C172.546 13.9051 174.672 16.2499 174.672 35.1019C174.672 53.2974 172.638 57.2366 167.646 57.2366H162.839V13.9051Z" fill="black"/>
<path d="M51.2516 175.226C61.9759 172.6 69.4644 165.753 69.4644 151.966C69.4644 128.893 56.0591 126.079 37.7538 126.079H11.96V228.78H37.7538C55.9666 228.78 70.3889 222.215 70.3889 200.925C70.4814 183.855 62.5306 177.477 51.2516 175.226ZM35.6274 135.271H37.8462C43.7631 135.271 45.5196 136.959 45.5196 154.029C45.5196 170.161 43.7631 171.756 37.8462 171.756H35.6274V135.271V135.271ZM38.3085 219.589H35.5349V180.197H38.3085C43.6706 180.197 45.8894 182.448 45.8894 199.518C45.8894 218.745 44.1329 219.589 38.3085 219.589Z" fill="black"/>
<path d="M106.814 124.954C85.8275 124.954 75.2881 137.897 75.2881 177.477C75.2881 217.057 85.8275 230 106.814 230C127.708 230 138.34 217.057 138.34 177.477C138.34 137.897 127.708 124.954 106.814 124.954ZM106.814 221.559C100.805 221.559 100.342 218.088 100.342 177.383C100.342 136.772 100.712 133.207 106.814 133.207C112.823 133.207 113.285 136.678 113.285 177.383C113.285 218.088 112.916 221.559 106.814 221.559Z" fill="black"/>
<path d="M205.274 157.687C205.274 131.613 191.961 126.079 174.95 126.079H144.996V228.78H169.126V189.107H171.345L180.497 228.78H205.644L195.104 183.01C201.576 177.852 205.274 169.692 205.274 157.687ZM173.933 178.602H169.126V135.271H173.933C178.833 135.271 180.959 137.616 180.959 156.468C180.959 174.663 178.926 178.602 173.933 178.602Z" fill="black"/>
<path d="M207.863 107.415H217.755L221.731 86.1242C225.891 88.0938 231.808 89.9696 239.112 90.0634L242.44 107.415H267.217L246.785 4.71362H227.278L214.982 69.9922C208.973 68.0225 203.056 67.6474 202.131 67.6474L201.669 78.8085C203.703 78.9023 208.788 79.4651 212.855 81.0595L207.863 107.415ZM229.866 42.0424L236.985 78.9023C230.791 78.4333 226.446 76.2762 223.857 74.6817L229.866 42.0424Z" fill="black"/>
<path d="M251.316 228.968H276L255.569 126.267H236.061L223.765 191.452C217.756 189.482 211.839 189.107 210.915 189.107L210.545 200.268C212.486 200.362 217.664 200.925 221.731 202.519L216.739 228.874H226.631L230.607 207.584C234.767 209.553 240.684 211.429 247.988 211.523L251.316 228.968ZM232.641 196.048L238.65 163.408L245.769 200.268C239.575 199.799 235.229 197.736 232.641 196.048Z" fill="black"/>
<path d="M25.5165 0L13.2205 65.2785C7.21116 63.3089 1.29431 62.9338 0.369798 62.9338L0 74.0949C2.03392 74.1887 7.11873 74.7514 11.1866 76.3459L6.19422 102.701H16.0865L20.0619 81.4106C24.2222 83.3802 30.139 85.256 37.4426 85.3498L40.7709 102.701H65.4552L45.0236 0H25.5165ZM22.1882 69.8743L28.1975 37.235L35.3163 74.0949C29.1221 73.6259 24.6844 71.5625 22.1882 69.8743Z" fill="white"/>
<path d="M95.9647 104.108C112.976 104.108 124.255 97.824 124.255 75.8769V0H113.808V75.8769C113.808 87.6008 111.589 91.6338 103.268 91.6338C94.8553 91.6338 92.7289 87.6008 92.7289 76.0645V0H67.7672V75.8769C67.6747 97.9178 78.9537 104.108 95.9647 104.108Z" fill="white"/>
<path d="M156.334 63.0276H158.553L167.705 102.701H192.852L182.313 56.9311C188.784 51.7726 192.482 43.519 192.482 31.6076C192.482 5.53367 179.169 0 162.066 0H132.204V102.701H156.334V63.0276ZM156.334 9.19152H161.141C166.041 9.19152 168.168 11.5363 168.168 30.3883C168.168 48.5837 166.134 52.523 161.141 52.523H156.334V9.19152Z" fill="white"/>
<path d="M44.7467 170.512C55.471 167.886 62.9596 161.039 62.9596 147.252C62.9596 124.179 49.5542 121.365 31.2489 121.365H5.45508V224.067H31.2489C49.4617 224.067 63.8841 217.501 63.8841 196.211C63.9765 179.141 56.0257 172.763 44.7467 170.512ZM29.1225 130.557H31.3413C37.2582 130.557 39.0148 132.245 39.0148 149.315C39.0148 165.447 37.2582 167.042 31.3413 167.042H29.1225V130.557ZM31.8036 214.875H29.0301V175.483H31.8036C37.1657 175.483 39.3846 177.734 39.3846 194.804C39.3846 214.031 37.628 214.875 31.8036 214.875Z" fill="white"/>
<path d="M100.309 120.24C79.3226 120.24 68.7832 133.183 68.7832 172.763C68.7832 212.343 79.3226 225.286 100.309 225.286C121.203 225.286 131.835 212.343 131.835 172.763C131.835 133.183 121.203 120.24 100.309 120.24ZM100.309 216.845C94.2997 216.845 93.8374 213.374 93.8374 172.669C93.8374 132.058 94.2072 128.494 100.309 128.494C106.318 128.494 106.781 131.964 106.781 172.669C106.781 213.374 106.411 216.845 100.309 216.845Z" fill="white"/>
<path d="M198.769 152.973C198.769 126.899 185.456 121.365 168.445 121.365H138.491V224.067H162.621V184.393H164.84L173.992 224.067H199.139L188.6 178.297C195.071 173.138 198.769 164.978 198.769 152.973ZM167.428 173.888H162.621V130.557H167.428C172.328 130.557 174.455 132.902 174.455 151.754C174.455 169.949 172.421 173.888 167.428 173.888Z" fill="white"/>
<path d="M201.357 102.701H211.25L215.225 81.4106C219.385 83.3802 225.302 85.256 232.606 85.3498L235.934 102.701H260.711L240.279 0H220.772L208.476 65.2785C202.467 63.3089 196.55 62.9338 195.625 62.9338L195.163 74.0949C197.197 74.1887 202.282 74.7514 206.35 76.3459L201.357 102.701ZM223.361 37.3288L230.479 74.1887C224.285 73.7197 219.94 71.5625 217.351 69.9681L223.361 37.3288Z" fill="white"/>
<path d="M244.81 224.254H269.494L249.063 121.553H229.555L217.26 186.738C211.25 184.768 205.333 184.393 204.409 184.393L204.039 195.554C205.981 195.648 211.158 196.211 215.226 197.805L210.233 224.16H220.125L224.101 202.87C228.261 204.839 234.178 206.715 241.482 206.809L244.81 224.254ZM226.135 191.333L232.144 158.694L239.263 195.554C233.069 195.085 228.723 193.022 226.135 191.333Z" fill="white"/>
</svg>
