<svg xmlns="http://www.w3.org/2000/svg" viewBox="0 0 3008.08 779.77"><defs><clipPath id="clip-path"><path class="cls-1" d="M1071.36 613.2a45.78 45.78 0 01-1.32 10.74c-.87 3.65-2.73 6.67-4.38 9.54-1.84 3.18-3.76 6-6.31 7.91a13.82 13.82 0 01-18.1.07 24.65 24.65 0 01-6.9-7.52 38.09 38.09 0 01-3.77-10 40.73 40.73 0 01.08-21.47 36.35 36.35 0 014.16-9.67c1.84-3.18 3.68-6.37 6.23-8.22a16.1 16.1 0 019.27-3.25c3.23 0 6 2.13 8.78 4.11a23.61 23.61 0 016.74 7.34 37.46 37.46 0 013.48 9.89c.81 3.33 2.04 6.78 2.04 10.53z"/></clipPath><clipPath id="clip-path-2"><path class="cls-1" d="M1108.82 653.38c3.07 21.14-14 39.74-33 39.64-18.18-.1-33.22-17.82-33.22-39.19s14.74-38.78 32.92-38.68c17.7.1 29.78 13.98 33.3 38.23z"/></clipPath><style>.cls-1{fill:none}.cls-2{fill:#f5f1e8}.cls-3{fill:#fadbd8}.cls-5{fill:#f69d97}.cls-6{fill:#d25b73}.cls-7{fill:#481414}.cls-8{fill:#572d2d}.cls-9{fill:#fdd26e}.cls-10{fill:#adcd9b}.cls-11{fill:#fcc062}.cls-12{fill:#f8f3e5}.cls-13{fill:#c4d6a4}.cls-14{fill:#f5acb9}</style></defs><g id="Layer_2" data-name="Layer 2"><g id="Layer_1-2" data-name="Layer 1"><path class="cls-2" d="M.88 530.18h3004.26v249.59H.88z"/><path class="cls-3" d="M880.23 737.85c-.67-.39-1.16-.86-.72-1.72a1.21 1.21 0 01.72 1.72zM886.43 766.07c-.66-.39-1.16-.86-.69-1.71a1.21 1.21 0 01.69 1.71zM1798.07 771.15c-.67-.39-1.16-.86-.74-1.72a1.22 1.22 0 01.74 1.72z"/><path d="M3006 529.57L1.46 527.4C.15 514.07 0 0 0 0h3006z" fill="#c6bcd0"/><path class="cls-5" d="M1127.63 474.68c.19 1.35.34 2.7.57 4 .76 4.44 1.55 8.88 2.3 13.32.21 1.24.33 2.51.49 3.77a1 1 0 00.42 1.36c.54 5.33 1.51 10.54 2.47 15.75.71 3.8 1.43 7.6 2.13 11.4a1.07 1.07 0 00.45 1.36c.19 1.39.37 2.77.55 4.16h-2.94c-168.33 0-375.91-1-544.24-1 0 0 46.18-152.75 48-153.19 2.89-.69 5.77-1.39 8.68-2 1.72-.35 3.51-.28 5.21-.75 2.63-.72 5.3-.4 8-.83a38.64 38.64 0 016.09-.17l29.88.06h3.78a10.9 10.9 0 003.25-.45 12.59 12.59 0 012.08-.58 17.38 17.38 0 006.44-2.64 9.51 9.51 0 003.2-3.88 39.64 39.64 0 003.47-9.61c.88-4.13 2-8.2 2.82-12.33 1.89-9 3.95-17.87 5.69-26.89 1.82-9.37 3.91-18.65 5.94-27.95 2.62-11.94 5.8-23.64 8.76-35.43a19.62 19.62 0 017.88-11.74 17.22 17.22 0 016.31-2.88 125.47 125.47 0 0014.94-4.4 33.3 33.3 0 017.67-1.41c1.54-.15 3.06-.47 4.6-.62 1-.09 1.49-.73 1.83-1.89 1.21-4.18 2.45-8.34 3.75-12.48q1.7-5.43 3.72-10.66 3-7.86 6.22-15.61a13.1 13.1 0 015.1-6.31 12.52 12.52 0 015.89-1.79c.91-.06 1.83-.07 2.74 0a39.27 39.27 0 007.3-.9c1.74-.28 3.48-.56 5.22-.7 3.35-.28 6.73-.28 10.07-.73 5-.66 9.94-.27 14.91-.49a47 47 0 017.75.77c3 .38 6 .87 9 1a29.63 29.63 0 014.78.53 22.15 22.15 0 003.77.5c2.38.08 4.73.61 7.12.6 2.88 0 5.75.2 8.6-.5a.43.43 0 01.16 0c3.18 0 6.32-.51 9.48-.75 5-.37 10.09-.21 15.13-.57 3-.22 6-.1 9-.56s6.16-.17 9.22-.8a23.16 23.16 0 014.41-.13c7.93 0 15.86.41 23.77-.15a194 194 0 0120.6-.27c2.8.1 5.61.34 8.41.57 2.3.19 4.6.24 6.89.43 2.93.25 5.86.59 8.79.9a5.43 5.43 0 002 0 9.78 9.78 0 017.44.66c1.27.72 2.62.51 4 .62a51.12 51.12 0 018.51 1.57 4.27 4.27 0 012 1.4 23.09 23.09 0 014.23 6.75c1.07 2.68 2 5.41 2.86 8.23 2.81 9.64 5.5 19.34 7.86 29.18q2.82 11.76 5.31 23.63c2.1 10 4 20.11 6 30.19 1.34 6.89 2.92 13.71 4.22 20.61 1.1 5.84 2 11.74 3.21 17.56.47 2.29.93 4.58 1.4 6.87a2.44 2.44 0 00.06.26c1.13 4.77 3.34 7 7.22 7.26 3 .2 6 .63 9 .94a9.64 9.64 0 001.52 0c2.56-.14 5.09.44 7.63.66a9.62 9.62 0 011.3.25 15.77 15.77 0 005.2.87 5.33 5.33 0 012.81.94c2.63 1.48 4.44 4 5.76 7.25a40.59 40.59 0 012.68 9.44c1.14 8 2.52 15.88 4 23.77 1.14 6.21 2.2 12.43 3.43 18.61a98.26 98.26 0 011.35 10.49c.26 2.82.79 5.55 1.14 8.34.57 4.58 1.29 9.13 1.57 13.76 0 .72.2 1.43.3 2.14.79 5.57 1.76 11.07 2.79 16.56 1.3 6.91 2.54 13.83 3.81 20.75.16.88.29 1.78.43 2.67a1 1 0 00.44 1.33zM1213.6 532.25a7.33 7.33 0 011.36-2.84 46 46 0 014.32-5.51 117.53 117.53 0 0111.83-12.2q7.67-6.92 14.67-14.48 5.87-6.32 12-12.33c1.88-1.83 3.84-3.57 5.73-5.38.62-.58 1.14-1.26 1.72-1.88a28 28 0 016.08-5.24 12.11 12.11 0 001.47-1.21c1-.87 2-1.77 3.09-2.6a13.36 13.36 0 016.78-2.92 8 8 0 002.47-.76 8.21 8.21 0 013.43-.76c5.17-.12 10.34-.1 15.5-.43 8.65-.54 17.29-.32 25.93-.27 5.53 0 11 .52 16.57.28s10.92-.14 16.36-.47c7.35-.45 14.68 0 22-.6a5.18 5.18 0 011.36.06c2.1.37 3.14.42 4-.83a54.87 54.87 0 019.92-10l.36-.29a102.22 102.22 0 0012.43-10.4 30.25 30.25 0 017.58-5.4 21 21 0 017.09-2.13q4.63-.59 9.28-1c4.52-.39 9-.6 13.56-.89 4.32-.27 8.64-.14 13-.38 10.13-.55 20.27-.16 30.4-.48 5-.16 9.93 0 14.87-.41s9.64-.1 14.44-.41c6.09-.4 12.2-.06 18.28-.43 4.46-.27 8.93-.14 13.37-.44 3.19-.22 6.37-.26 9.56-.32a2.68 2.68 0 002.32-1.17 112.34 112.34 0 008.31-12.82c2-3.6 3.92-7.26 5.9-10.88a2.75 2.75 0 01.19-.28 28.34 28.34 0 004.1-8.37c1.5-4.27 3-8.56 4.59-12.79a30.87 30.87 0 018.27-12.43 18.17 18.17 0 016.48-3.94c2.61-.84 5.22-1.66 7.86-2.39l.29-.06c4.41-.61 8.89-.69 13.3-1.43a6.31 6.31 0 011.79 0 9 9 0 001.37-.08c5.11 0 10.18-.59 15.29-.53 8.65.1 17.31.08 26 .13a22.74 22.74 0 002.31.2c2.11-.19 4.23.37 6.33-.14a6.86 6.86 0 011.7-.1c3.47 0 7-.18 10.42 0 3.89.25 7.79.2 11.67.44 4.16.27 8.33.58 12.45 1.24.42.07.82.25 1.24.28 2.7.25 4.16 2 5.48 4.15 3.24 5.27 4.24 11.37 6.24 17a71.61 71.61 0 012.34 7.95c2.89 12.75 6.72 25.2 10.73 37.61 1.92 5.92 3.61 11.92 5.48 17.85 1.09 3.44 2.26 6.87 3.57 10.22a44.71 44.71 0 003.11 6.28 22.34 22.34 0 003.31 4.4 11.65 11.65 0 005.33 2.95 59.5 59.5 0 006.88 1.28c1.47.22 3 .33 4.42.58a56.35 56.35 0 0010.77.83 11.72 11.72 0 013.39.22 6.31 6.31 0 001.69.09c2.8 0 5.59-.08 8.37-.36h.18a42.43 42.43 0 009.69.09c.64-.05 1.28-.07 1.92-.07 4 0 8-.06 12.08 0a9.49 9.49 0 003.94-.77c2.87-1.2 5.75-2.39 8.59-3.67a23.3 23.3 0 005.67-3.71 40.82 40.82 0 0111.46-7.2 20.59 20.59 0 014.71-1.24 52.08 52.08 0 015.71-.45c2.77-.09 5.53 0 8.3-.1 7.8-.19 15.6-.53 23.4-.65a13.51 13.51 0 002-.16c3.05-.52 6.15-.15 9.18-.77 3.25-.18 6.5-.32 9.74-.54 3-.21 5.92-.5 8.88-.73 1.83-.14 3.67-.28 5.5-.4 4.76-.32 9.4-1.35 14.17-1.69a6.64 6.64 0 001.58-.33c.87-.29 1.83-.35 2.7-.67a7.31 7.31 0 003.65-2.74c2.59-3.78 4.59-7.88 6.89-11.82.06-.12.18-.3.25-.41a17.88 17.88 0 002-3.59 13.07 13.07 0 011.9-3.28c2.22-2.88 4.39-5.78 6.68-8.59a2.27 2.27 0 01.31-.31 22.7 22.7 0 004.08-4.52c3.26-4.72 6.82-9.22 10.48-13.64a86.46 86.46 0 0111.29-11.51c1.15-.95 2.24-1.95 3.41-2.88a10.06 10.06 0 015.57-2.3 1.19 1.19 0 00.48-.16 29.71 29.71 0 016.62-2.82c6.22-1.86 12.64-2.87 18.94-4.46a33.17 33.17 0 014-.71c8.31-1 16.55-2.47 24.79-3.94 4-.73 8.1-1.25 12.16-1.84 3.78-.55 7.56-1.09 11.34-1.58 1.83-.24 3.67-.3 5.49-.54 3.23-.43 6.48-.61 9.69-1.11 5.12-.8 10.3-1.2 15.41-2.07a14.69 14.69 0 012.89-.2 52.72 52.72 0 007.83-.68 4.55 4.55 0 01.63-.09c2.77 0 5.52-.38 8.26-.61 3.13-.27 6.29-.06 9.4-.66h.06c3.06-.18 6.12-.31 9.18-.52 3.32-.22 6.63-.62 9.94-.72a72.67 72.67 0 0111.89.2 25 25 0 016.54 1.72 26.15 26.15 0 014.66 2.94 43.39 43.39 0 016.45 5.45 2.85 2.85 0 00.57.47c2.81 1.65 5.79 3 8.32 5a2.62 2.62 0 001.95.65l2.75-.22c1.14-.11 2.26-.56 3.46.59a1.06 1.06 0 001.37.07c2.81-2.09 5.75-1.57 8.67-2 2-.33 4.09-.37 6.13-.57 2.25-.22 4.5-.49 6.75-.71 1.76-.17 3.52-.21 5.29-.45 2.16-.3 4.39-.24 6.55-.58s4.5-.28 6.73-.69a8 8 0 01.84-.11q7.3-.61 14.61-1.18c1.69-.13 3.39-.17 5.08-.39 2.38-.33 4.8-.36 7.19-.57s4.93-.47 7.39-.71h.42c2.76-.18 5.52-.32 8.27-.53 2.32-.19 4.64-.45 7-.7a48.3 48.3 0 005.45-.6 7 7 0 011.12-.16c5.22-.22 10.45-.43 15.67-.74a108 108 0 0011.19-1.05c2-.33 4.1-.26 6.12-.6 2.78-.47 5.6-.2 8.38-.77a9.83 9.83 0 011.53-.18c4.53-.05 9-1 13.57-.65a6.74 6.74 0 001.68-.06c5-.89 10.09-1.52 14.94.22a16 16 0 015.35 3.38c1 .94 1.64 2.27 2.82 3.09.78 2.49 2.13 4.79 2.4 7.47a25.14 25.14 0 001 4.33c1.18 4.08 2.41 8.14 3.63 12.21a26.23 26.23 0 003.4 7.05 8.87 8.87 0 003.89 3.16 39.64 39.64 0 007.14 2 27.22 27.22 0 006.55.52l28.93-.06c2.7 0 5.41-.11 8.08.12s5.52.1 8.25.62c1.38.26 2.81.33 4.22.46 2.26.21 4.47.68 6.71 1.05 2 .33 4 .82 6 1.05 1.61.18 4.89 119.14 4.89 119.14H1213.6z"/><path class="cls-6" d="M1108.29 528.61h-31.2q-21.85 0-43.7-.06c-.91 0-.87 0-.9-.91q-.21-6.75-.46-13.49c-.21-5.87-1-11.7-1-17.6a14 14 0 016.52-12.18c1.23-.85 2.46-1.7 3.64-2.61a2.56 2.56 0 00.81-1.18c.32-1 .52-2.1.79-3.16a1 1 0 00-.47-1.08c-2.16-1.79-4.38-3.51-6.42-5.43a13.43 13.43 0 01-4.09-13 56.49 56.49 0 013.92-11.61 107.23 107.23 0 004.56-13.05 115 115 0 017.2-18.86c1.72-3.48 3-7.15 4.54-10.74a68.08 68.08 0 015.8-11.26 9 9 0 017.67-4.28c1.53 0 3.07 0 4.61.05.85 0 1.1-.26 1-1.11-.06-.4-.2-.78-.29-1.18-.65-3.06.29-5.8 1.69-8.46a5 5 0 013.46-2.7c8.46-2.22 16.91-4.5 25.32-6.93 7.41-2.14 14.75-4.49 22.11-6.79a66.29 66.29 0 006.52-2.31 11.09 11.09 0 016.58-.55 13.05 13.05 0 018.58 4.85 10.31 10.31 0 002.58 2.44c3 2 5.26 4.75 7.49 7.51a3.35 3.35 0 01.51.63c.72 1.43 2 1.66 3.46 2 4.48.95 9 .8 13.57 1 5.82.32 11.65.65 17.47.92 2.13.1 4.26 0 6.38.09 3 .09 6.06.17 9.08.38 1.64.11 3.26.48 4.9.69 3.59.47 7.18.85 10.76 1.38a23.6 23.6 0 017.37 2 17.56 17.56 0 016.18 4.51 14.07 14.07 0 012.4 5.62c.85 3.46 1.54 7 2.32 10.45q2 8.91 4 17.79c1 4.3 2 8.6 3 12.89a1.8 1.8 0 00.79 1c1.27.72 2.59 1.38 3.91 2q4.14 2 8.3 4a17.55 17.55 0 002.53 1 15.52 15.52 0 016.23 3.47c2.55 2.44 4.22 5.34 3.75 9a31.81 31.81 0 01-.93 3.67c-.56 2.24-1.12 4.48-1.65 6.72a4.81 4.81 0 00-.08 1c-.3 6.5-.73 13-.84 19.51 0 3.07-.13 6.13-.37 9.18-.51 6.63-1.12 13.25-1.75 19.87-.32 3.35-.72 6.7-1.15 10-.18 1.39-.55 2.75-.81 4.13-.1.52-.35.68-.88.68h-62.03c-.69 0-1-.18-1.15-.87a93.25 93.25 0 00-3.18-11.47 62 62 0 00-6.52-14.57c-.14-.24-.3-.46-.43-.69a3.17 3.17 0 00-2.24-1.58 26.25 26.25 0 01-4.07-1.26 7.81 7.81 0 01-5.24-7.79 23.61 23.61 0 01.44-4.51 59.73 59.73 0 001-8.74 101.27 101.27 0 011.67-13.45c.32-1.76.52-3.53.78-5.3a.8.8 0 00-.52-1c-5.76-2.67-11.47-5.47-17.3-8a30.92 30.92 0 00-9.51-2.84 17.14 17.14 0 00-3.56.27c-4.27.5-8.55.93-12.8 1.57-3.1.46-6.17 1.19-9.25 1.81-.6.12-1.19.28-1.79.36a1.39 1.39 0 00-1.26 1c-1.35 3.79-2.73 7.57-4.06 11.37-.89 2.54-1.7 5.11-2.58 7.65a10.19 10.19 0 01-4.75 5.78 5 5 0 01-2.89.72c-3.22-.19-6.45-.41-9.67-.62-.43 0-.86-.08-1.28-.13s-.65.13-.56.63c.58 3.32 1.2 6.63 1.71 10 .81 5.18 1.57 10.38 2.29 15.57.82 5.87 1.58 11.74 2.37 17.62.36 2.69.72 5.37 1.09 8.06a2.32 2.32 0 01-.02.51z"/><path class="cls-7" d="M1076.94 528.78c-.54-3.06-1.1-6.12-1.62-9.18-.21-1.24-.32-2.5-.47-3.76a2.28 2.28 0 01.58-1.55q3.42-5 7.1-9.73c.74-1 1.5-1.91 2.28-2.85.31-.36.29-.59-.09-.88a34.81 34.81 0 00-6.63-4.29 16.28 16.28 0 01-5.86-4.06 1.87 1.87 0 01-.53-1.58c.61-4.76 1.39-9.49 2.06-14.24.64-4.53 1.3-9.06 1.89-13.59.34-2.68.6-5.38.84-8.07a2.74 2.74 0 011.64-2.47 24.83 24.83 0 015.69-1.7 57.3 57.3 0 0010.21-3.36c3.62-1.6 7.12-3.44 10.79-4.91a19.41 19.41 0 014.42-1.26.69.69 0 00.69-.69c.11-1.44.23-2.88.36-4.31a54.21 54.21 0 011.39-8.87 1.78 1.78 0 011.31-1.38q7-2.34 13.9-4.78a1.46 1.46 0 011.64.35 117.55 117.55 0 019.63 10.46 1.2 1.2 0 01.19.27 2.35 2.35 0 002.37 1.38 102 102 0 0111 .88c2.93.41 5.87.7 8.78 1.13 3.86.57 7.7 1.22 11.55 1.83 1.89.3 3.8.48 5.71.59 2.41.15 4.82.24 7.22.52.59.07.63.35.55.83-.58 3.56-1.13 7.12-1.59 10.69-.3 2.24-.61 4.47-.84 6.71-.08.78-.15.79-.88.47-4.76-2.08-9.51-4.18-14.15-6.55-.13-.06-.27-.18-.44-.09l-.26-.13a12.32 12.32 0 00-3.51-1.67c-1.59-.57-3.2-1.12-4.81-1.63a12.11 12.11 0 00-5.8-.49c-2 .35-4.08.52-6.12.74a106.69 106.69 0 00-13.77 2.09c-1.62.41-3.26.74-4.9 1.05a1.76 1.76 0 00-1.46 1.19c-1.16 2.82-2.12 5.71-3.1 8.59-1.27 3.76-2.52 7.52-3.88 11.24a7.94 7.94 0 01-4.18 4.68c-.1.05-.24.08-.29.17-.56.85-1.43.69-2.26.71a84.86 84.86 0 01-11.14-.75c-.94-.11-1 0-.88.89 1.07 5.75 2 11.51 2.87 17.29.57 3.84 1.09 7.68 1.6 11.53.36 2.7.65 5.42 1 8.12.45 3.47 1 6.93 1.44 10.39.16 1.2.31 2.41.5 3.62 0 .29 0 .43-.33.43h-30.86zM1200.83 528.58c-.14-.52-.26-1.06-.45-1.56a.89.89 0 01.35-1.12c3.55-2.79 7.36-5.23 11.16-7.66q6.09-3.91 12.35-7.58 6.46-3.77 12.93-7.53c4-2.31 8-4.62 12-6.89 2.69-1.53 5.4-3 8.12-4.5q4.76-2.6 9.53-5.15c.32-.17.65-.31 1-.46.75-.35.74-.35.74.5 0 .19-.1.41.12.56l-.08 1.1a1.82 1.82 0 00-.06 1.61v.72a1.65 1.65 0 00-.11 1.58l-.08 1.37a.72.72 0 000 .94v.31c-.35.22-.26.49-.09.77l-.09 1.11a.56.56 0 000 .79v.31c-.32.18-.28.4-.09.64l-.09 1.24a.41.41 0 000 .66v.31c-.36.22-.25.5-.09.78l-.09 1.64c-.31.24-.15.56-.15.85-.22 2.66-.43 5.32-.65 8a.53.53 0 00-.07.79v.58c-.3.18-.27.4-.07.64l-.08.71a.89.89 0 00-.08 1v.31c-.32.18-.28.4-.09.65l-.1 1a.42.42 0 000 .66v.31c-.3.12-.26.3-.09.51l-.1 1.09c-.21.16-.26.34 0 .54l-.06.3c-.25.07-.26.2-.07.37l-.1 1c-.18.11-.24.24 0 .39v.31c-.26.07-.27.2-.08.37l-.08.7c-.2.1-.26.22-.07.39l-.06.29c-.22.09-.24.22-.07.38l-.07.43a.77.77 0 00-.21.93l-.06.43a.44.44 0 00-.19.66l-.09.42c-.19.06-.22.17-.1.32-.21.42-.6.23-.91.23h-61.82zM1251.12 436.25a2.43 2.43 0 01-1.09.26c-3.16.18-6.33.1-9.49.17-2.16.05-4.32.22-6.49.35-1.09.07-1.2 0-1.19-1.11.05-3.59.09-7.18.17-10.77q.09-4.87.27-9.75c.1-2.73.25-5.45.4-8.18.23-4.23.72-8.44.84-12.68.07-2.26 0-4.52.21-6.77 0-.29 0-.59.15-.85a3.89 3.89 0 01.84 1.53 27.57 27.57 0 011.59 5.94c.4 2.22 1 4.41 1.48 6.6.83 3.59 1.61 7.19 2.43 10.78.9 4 1.77 8 2.74 12 .75 3.09 1.47 6.19 2.13 9.31.18.83.93 1.07 1.52 1.41a15.13 15.13 0 003.18 1.56 1 1 0 01.31.2z"/><path class="cls-2" d="M1008.89 306.17c4.93-6.55 5.21-12.79 4.85-25.06 3.63 1.61 6.44 20.39 4.15 27.06-17.69 51.45-57.88 56.81-63.78 59-22.78 3.48-44 0-54.13-1.34-12.33-2.42-25.19-8.31-31-11.21-7.7-3.82-15.67-11.69-16.2-13.58-.8-2.84 2-13.78 3-16.48 3.06-7.74 6-20.3 19.3-33 11.52-11 27.57-17 36.8-22.07 5.9-3.23 20.33-7.48 21.24-7.49.31 0-11.54 14.93-10 33.38.72 12.78 1.67 19.27 11.26 27.73 8.72 7.7 10.18 9.37 23.31 11.86 7.44 1.41 21.8-3.25 27.54-6.83 8.01-5.03 13.03-7.84 23.66-21.97z"/><path class="cls-6" d="M1015 285.24c1 8.3-1.27 12.55-4.82 20a44.16 44.16 0 01-20.82 23.14c-5.17 2.72-10.33 5.48-16.2 6.46-12.69 1.7-26.77.4-36-7.75-9.59-8.46-14.16-16.36-14.87-29.14-.8-11.86.22-9.92 2-19.1 1.61-8.24 5-14.06 8.44-16.78 2.51-1.6 15.47-1.19 22.13-.81 16.12.91 28.56 2.84 42.85 8.12 11 4.09 16.23 7.1 17.29 15.86z"/><path class="cls-5" d="M1414.54 692.07a2.25 2.25 0 00-1.18.67 3.32 3.32 0 00.06 4.68 25.12 25.12 0 007.5 5 41.31 41.31 0 005.81 2.15 18.47 18.47 0 005.52 1 2.89 2.89 0 002.83-2.7 4.58 4.58 0 00-1.95-3.53 16.18 16.18 0 00-3.4-1.9 119.61 119.61 0 00-11.15-4.85 6.69 6.69 0 00-4.04-.52zM1394.94 670.87a23.53 23.53 0 00-.77-2.78 35.27 35.27 0 00-2.51-6.49 10.29 10.29 0 00-2.51-3.38 3.06 3.06 0 00-4.15.22 3.22 3.22 0 00-.71 2.77 35.28 35.28 0 001 4.64 34.45 34.45 0 003.42 7.55 6.55 6.55 0 002.17 2.36 2.88 2.88 0 004.26-1.84 7 7 0 00-.2-3.05zM1337 595.09c.06.31.1.63.19.93a3.6 3.6 0 001.92 2.53 3.15 3.15 0 004.35-2.5 13.26 13.26 0 00-.14-4.49 64.32 64.32 0 01-.56-6.49 11.38 11.38 0 00-.61-3.83 2.7 2.7 0 00-4.69-.78 10.61 10.61 0 00-1.09 1.69 4.66 4.66 0 00-.63 3.67c.37 1.36.35 2.8.61 4.19.32 1.68.29 3.4.65 5.08zM1349 624.89a2.49 2.49 0 00.9 1.62c.35.34.76.6 1.13.92a31.08 31.08 0 006.21 4.32 10.2 10.2 0 005 1.4 2.64 2.64 0 002.43-1.59 3.12 3.12 0 00-.46-3.26 8.63 8.63 0 00-2.11-2 28.46 28.46 0 00-7.1-3.45 15 15 0 00-3.55-1 2.44 2.44 0 00-2.45 3.04zM1413.81 709.27c.25-.06.51-.09.76-.16a1.3 1.3 0 00.64-2.19 3.82 3.82 0 01-.92-1.45 4.36 4.36 0 00-1.22-1.9 33 33 0 00-7.46-5.52 7.58 7.58 0 00-2.92-1 2.65 2.65 0 00-2.88 3.2 4.17 4.17 0 001.25 2.13 32.48 32.48 0 003.17 2.81 27.71 27.71 0 005 3.33 6.76 6.76 0 004.58.75zM1352.18 635.07a3.53 3.53 0 00-2-2.17 11.63 11.63 0 01-2.31-1.6 13.1 13.1 0 00-3.53-2.7 10.48 10.48 0 00-4.83-1.4 2.6 2.6 0 00-2.58 3.1 3.73 3.73 0 001.12 2 30.72 30.72 0 003.67 3 33.07 33.07 0 004.1 2.51 9.22 9.22 0 003.45 1.2c1.93.16 3.41-1.47 2.91-3.94zM1374.41 664.9a10.69 10.69 0 002.57 5.79 2.23 2.23 0 003.35.13 3.26 3.26 0 00.66-2.17 10.78 10.78 0 00-.71-4.43 34.41 34.41 0 01-1.57-5 6 6 0 00-1.51-3 2.43 2.43 0 00-2.72-.59 2.49 2.49 0 00-1.36 2.38 2.44 2.44 0 01-.11 1 2.74 2.74 0 00.15 2.17 9.82 9.82 0 011.25 3.72zM1332.66 586.2c-.09-.43-.17-.88-.28-1.31a3.26 3.26 0 00-4.11-2.52 3.78 3.78 0 00-3.07 3.28 10.05 10.05 0 00.12 3c.24 1.48.36 3 1.45 4.21a3.42 3.42 0 003.78 1.25 3.47 3.47 0 002.35-2.82 12.32 12.32 0 00-.24-5.09zM1310 560a3.42 3.42 0 00-.4-1.09 10.11 10.11 0 00-1.77-1.75 13.43 13.43 0 00-2.72-2.21 8.9 8.9 0 00-2.61-1.08 2.49 2.49 0 00-3 2.92 4.82 4.82 0 001.2 2.22 19.15 19.15 0 002.78 2.31 7.65 7.65 0 003.9 1.68 2.44 2.44 0 002.62-3zM1337.39 568a3.16 3.16 0 00-5.05-2.17 4.06 4.06 0 00-1.66 3.27c-.09 1.71.23 3.24 1.88 4.22a3.31 3.31 0 004.55-1.42 8.18 8.18 0 00.28-3.9zM1387.43 646.43c-.09-.28-.16-.57-.27-.85a4.56 4.56 0 00-2.68-2.45 2.76 2.76 0 00-4 2 4.66 4.66 0 001.81 4.61 3.26 3.26 0 003.15.61 3.17 3.17 0 001.99-3.92zM1339 616.61a4.75 4.75 0 002.66 3.38 2.84 2.84 0 004.29-2.65 4.79 4.79 0 00-2.17-3.85 3.1 3.1 0 00-3.52-.14 2.88 2.88 0 00-1.26 3.26zM1392.71 694.4a2.45 2.45 0 002.09-1.82 2.17 2.17 0 00-.59-2.42 17.34 17.34 0 00-2.5-2 2.62 2.62 0 00-4 2.17c.11 2.55 1.9 4.67 5 4.07zM1398.59 684.25a3.9 3.9 0 004.42 3 2.67 2.67 0 002-1.85 2.45 2.45 0 00-.72-2.59l-1.07-1.06a2.69 2.69 0 00-4.61 2.5zM1321.11 574.54a5.63 5.63 0 001.29 2.1 2.47 2.47 0 003.72-.34 3.35 3.35 0 00.14-4.15 2.9 2.9 0 00-3.4-1.33c-1.44.55-2.13 1.84-1.75 3.72zM1371.2 642.57a2.87 2.87 0 00-2.26 3.43 3.7 3.7 0 004.06 2.62 2.77 2.77 0 002-3.42c-.25-1.6-2.13-3.14-3.8-2.63zM1294.76 551.35a3.39 3.39 0 00-2.24-2.46 2.67 2.67 0 00-2.89.58 2.18 2.18 0 00-.55 2.52 4.19 4.19 0 003 2.69 2.3 2.3 0 002.41-1.12 3 3 0 00.27-2.21zM1292.84 544.78a2.36 2.36 0 002.78 1.87 2.27 2.27 0 001.87-2.56 2.63 2.63 0 00-2.89-2 2.29 2.29 0 00-1.76 2.69z"/><path class="cls-8" d="M1742.06 564.87c-.06 0-1.64-.19-2-.21-.71-.08-1.43-.15-2.14-.24-1.42-.18-2.85-.39-4.28-.56-1-.11-1.91-.23-2.86-.42-1.26-.25-2.52-.55-3.78-.86-1.87-.46-3.73-1-5.63-1.29-1.09-.18-2.21-.22-3.31-.32-2.13-.2-4.26-.4-6.38-.57s-4-.35-6.06-.47c-2.59-.15-5.17-.3-7.76-.38l-5.78-.21c-2.5-.1-5-.18-7.5-.3s-5-.18-7.51-.23h-3.77c-1.91.06-3.8-.21-5.7-.32a23.63 23.63 0 01-2.92-.25 12.52 12.52 0 01-6.12-2.61 7.08 7.08 0 01-2.07-3.76 6.72 6.72 0 01.63-5 12.11 12.11 0 00.77-1.82 1.44 1.44 0 00-.39-1.63 6.88 6.88 0 00-3.86-1.86c-2-.36-4.06-.77-6.11-1-1-.11-2.07-.12-3.11-.19-3.08-.19-6.17-.09-9.26-.19-1.61 0-3.23.06-4.83-.12-2.3-.26-4.61-.18-6.92-.3a19.39 19.39 0 01-5.09-1.16 13.2 13.2 0 01-4.53-2.62 7.26 7.26 0 01-1.66-2.12 4.79 4.79 0 01-.68-1.49h3.12c90.43 0 274.12 0 274.66.05-.8.31-13.91 4.12-17.3 4.68-9.47 3.39-39.29 4.06-46.54 5.9-2.49.75-8.9 3.45-12.91 8.12-4.68 4.35-7.91 13.92-47.54 14.68a19.46 19.46 0 01-3.58 0c-.62-.05-4.62-.18-6-.25s-10.64-.59-10.81-.54l-1.36-.08z"/><path class="cls-9" d="M1745.4 565.07c.17-.06.33 0 .5 0 1.52 0 3 .2 4.53.21h1.69c1.36.09 2.72.21 4.08.28s2.76.07 4.13.17c.62 0 1.24 0 1.86.08a19.56 19.56 0 003.59 0c1.78-.2 3.57-.34 5.35-.57s3.85-.46 5.77-.73 3.62-.54 5.41-.9 3.55-.77 5.34-1.09a51.62 51.62 0 005.23-1.24 22.26 22.26 0 004.83-2.17q2.64-1.5 5.26-3a64.5 64.5 0 005.36-3.62c1.23-.9 2.46-1.8 3.64-2.76.86-.7 1.66-1.47 2.57-2.11a40.18 40.18 0 014.3-2.51 41 41 0 017.27-2.79 34.31 34.31 0 014.59-1.06c1.46-.22 2.92-.44 4.39-.57s2.72-.27 4.08-.36 2.53-.17 3.79-.31c1.9-.21 3.81-.36 5.73-.4 1.24 0 2.48-.06 3.73-.14 2-.14 4.08-.25 6.12-.52 1.81-.25 3.62-.48 5.42-.79 2.2-.38 4.39-.83 6.59-1.19 3.39-.55 6.7-1.41 10-2.23 1.79-.45 3.54-1 5.3-1.54.82-.24 1.64-.45 2.43-.76H1938c.16 0 .42-.09.47.06s-.21.26-.34.36c-.35.28-2.57 2.17-3.12 2.6s-2.93 2.21-3.37 2.55a18.39 18.39 0 01-2.6 1.55c-.77.41-1.57.77-2.35 1.16s-1.52.66-2.29 1-1.71.65-2.57.94-1.85.52-2.78.77-1.86.38-2.79.54c-1.84.32-3.65.74-5.5 1-1.27.18-2.54.41-3.82.6-1 .15-2.07.28-3.11.41l-3 .39c-.95.12-1.91.25-2.86.34-1.38.14-2.75.34-4.13.54-1.21.17-2.43.34-3.65.49s-2.27.25-3.41.36c-.74.07-1.48.1-2.22.15-2.07.15-4.13.28-6.21.32-1.07 0-2.14.09-3.21.12-2.11.07-4.22.17-6.33.17a32.6 32.6 0 00-7.22 1 66.46 66.46 0 00-7 1.81 51.3 51.3 0 00-5.33 2 32.51 32.51 0 00-6.39 4.07 18.89 18.89 0 00-2.55 2.51c-.53.62-1.11 1.2-1.69 1.77-2 1.93-3.8 4-5.59 6.09-1.09 1.27-2.08 2.63-3.18 3.9a51.53 51.53 0 01-3.92 4 49.74 49.74 0 01-3.86 3.24 30 30 0 01-4 2.52 57.57 57.57 0 01-7.29 3.31 64.44 64.44 0 01-6.63 2.08 44.8 44.8 0 01-4.63.81c-1.19.17-2.37.43-3.55.67a19.62 19.62 0 01-3 .33c-1.7.06-3.38.22-5.07.37-.81.07-1.63.11-2.44.15-2 .1-4 .19-6 .24-1.06 0-2.12.08-3.18.13-1.55.08-3.1.11-4.65.17h-2.05c-1.78 0-3.56.11-5.34.07-2.08 0-4.15-.09-6.22-.15-1.67-.06-3.34-.11-5-.23s-3.43-.22-5.13-.4c-1.48-.16-3-.26-4.44-.39l-5.13-.5c-1.29-.12-2.59-.24-3.89-.38l-4.2-.48c-1-.12-2.06-.2-3.09-.33-1.41-.17-2.83-.35-4.24-.54l-4.59-.62c-1.18-.16-2.36-.34-3.55-.49-1-.12-2-.21-3-.32-1.79-.21-3.59-.25-5.38-.49-1.34-.18-2.69-.25-4-.39s-2.75-.33-4.12-.54a28.43 28.43 0 00-3-.33c-1.53-.1-3.06-.23-4.58-.42-1.1-.14-2.21-.23-3.31-.31-1.66-.13-3.31-.26-5-.36-1.19-.07-2.38-.18-3.57-.31-.85-.09-1.69-.21-2.54-.3s-1.53-.17-2.29-.2c-1.32 0-2.63-.12-4-.18-1.72-.08-3.45-.28-5.17-.4s-3.68-.38-5.52-.61c-1.36-.18-2.72-.39-4.07-.63s-2.92-.44-4.37-.67-3.14-.57-4.69-.95l-4.79-1.18c-.79-.19-1.48-.62-2.25-.88-2-.69-3.93-1.66-6-2.35a4.36 4.36 0 01-2.16-1.63c-.47-.66-1-1.27-1.5-1.93a7.42 7.42 0 01-1.69-5 10.22 10.22 0 01.4-1.74c.34-1.27.84-2.5 1.13-3.78a4.51 4.51 0 00-1.67-4.65 12.34 12.34 0 00-4.09-2.37 19.92 19.92 0 00-4.12-1c-1.34-.14-2.68-.36-4-.48a47 47 0 00-5.17-.41c-2 .05-4-.06-6-.14a44.06 44.06 0 01-5.83-.75 33.5 33.5 0 01-8.37-2.67 9.66 9.66 0 01-3.29-2.4c-.54-.61-1.16-1.16-1.66-1.8-.91-1.18-1.74-2.41-2.62-3.6a25.49 25.49 0 00-4.94-5.17 12 12 0 00-2.65-1.67s-.07-.05-.13-.09c.14-.16.31-.09.45-.09h37.14a5 5 0 00.67 1.49 7.33 7.33 0 001.67 2.12 13.2 13.2 0 004.53 2.63 19.78 19.78 0 005.09 1.15c2.3.12 4.61 0 6.91.3 1.6.18 3.22.08 4.83.13 3.09.09 6.18 0 9.27.18 1 .07 2.08.08 3.11.19 2.05.22 4.07.64 6.1 1a6.85 6.85 0 013.86 1.86 1.46 1.46 0 01.4 1.64 14.46 14.46 0 01-.77 1.81 6.71 6.71 0 00-.63 5 7 7 0 002.07 3.75 12.49 12.49 0 006.12 2.62 23.62 23.62 0 002.92.24c1.9.11 3.79.39 5.7.33h3.77c2.5 0 5 .1 7.5.22s5 .2 7.51.3c1.92.07 3.85.16 5.78.21 2.59.08 5.17.23 7.75.39 2 .12 4 .29 6.06.46s4.26.38 6.38.57c1.11.1 2.22.14 3.32.32 1.9.33 3.76.83 5.63 1.3 1.25.31 2.51.6 3.78.86.94.19 1.9.31 2.86.42 1.43.16 2.85.37 4.28.55.71.09 1.42.16 2.14.24z"/><path class="cls-9" d="M1682.43 549.2c-1 0-1.89 0-2.81-.12-1.85-.16-3.7-.28-5.55-.39a11.29 11.29 0 01-4.94-1.21 1.2 1.2 0 01-.7-1.61 8.21 8.21 0 00.14-4.58 5 5 0 00-2.92-3.49c-.64-.28-1.29-.53-1.93-.78a3.23 3.23 0 00-1.84-.19 1.32 1.32 0 00-1.06 1.07c0 .55.19.89.82 1.15a2 2 0 01.51.28 16.22 16.22 0 001.67 1.18 2.59 2.59 0 011.07 1.48 4.1 4.1 0 01-.05 2.59 6 6 0 00-.25 2.31 4.43 4.43 0 002.32 3.71 18.36 18.36 0 002.68 1.19 19.56 19.56 0 005.37.8c1.42.12 2.86.15 4.28.29a39.69 39.69 0 005.56.06c1.53-.06 3 0 4.58.09 1.37.08 2.75.18 4.13.14 1.07 0 2.15 0 3.22-.09 2.21-.1 4.42.06 6.64 0a3.6 3.6 0 002.1-.5 1.07 1.07 0 000-1.92 4.45 4.45 0 00-1.49-.58 30.74 30.74 0 00-9.56-.7 16.76 16.76 0 01-2.35 0c-2.07-.14-4.14-.35-6.21-.33-1.17.03-2.32.11-3.43.15zm15.83-3h2.43a3.11 3.11 0 001.6-.44 1.68 1.68 0 00.27-2.74 1.94 1.94 0 00-1.34-.5h-6c-.74 0-1.49.08-2.23.16a27.39 27.39 0 01-4.53.19 41.81 41.81 0 00-4.75 0 38.71 38.71 0 00-4.45.61.83.83 0 00-.7.7.77.77 0 00.61.77c.46.09.9.23 1.35.32a23.75 23.75 0 003.56.37c1.44.07 2.88.18 4.32.16a2.26 2.26 0 01.26 0c1.34.09 2.67.19 4 .24 1.74.11 3.44.14 5.6.19z"/><path class="cls-2" d="M1643.38 566.55a4.07 4.07 0 00.07 1 5.83 5.83 0 002.41 3.75 19.14 19.14 0 003.09 1.58 32.3 32.3 0 007.85 2.1c2 .26 4 .44 6.06.7 1.29.17 2.59.28 3.88.47 2.12.29 4.25.56 6.38.7s4.16.21 6.24.43c1.4.16 2.81.25 4.21.4 1.85.2 3.7.3 5.55.35h1c1.31.18 2.65.14 4 .25s2.67.16 4 .24h1.14c1 0 1.93-.34 2.92-.37a.88.88 0 00.89-.81.92.92 0 00-.84-.9 1.14 1.14 0 01-.54-.2 9.37 9.37 0 00-2.94-1.27 36.15 36.15 0 00-7-.88c-.87-.07-1.74 0-2.6-.1-1.72-.12-3.46-.15-5.18-.34-1.07-.12-2.16-.18-3.23-.32-1.22-.16-2.45-.28-3.67-.32-1.72-.06-3.44-.1-5.15-.24-1.51-.13-3-.29-4.51-.46s-2.73-.34-4.09-.49-3-.16-4.52-.36a36.63 36.63 0 01-4.53-.77 39.57 39.57 0 01-6.13-2.18 3.67 3.67 0 01-1.72-1.56 5.15 5.15 0 01-.59-2c-.1-.82-.69-1.27-1.35-1a1.25 1.25 0 00-.55.52 3.72 3.72 0 00-.55 2.08zm-10.5-10.68a3.16 3.16 0 00.65 2.19 1.32 1.32 0 002.18.08 1.65 1.65 0 00.32-1 6.38 6.38 0 01.1-1.23 4.17 4.17 0 00-.71-3.53 15.49 15.49 0 01-1.19-1.72 8.45 8.45 0 00-4.52-3.62A27.56 27.56 0 001626 546c-1.45-.35-2.91-.62-4.36-.89-1.27-.23-2.55-.4-3.83-.57l-3.25-.45c-1.28-.18-2.55-.4-3.83-.57a31.32 31.32 0 00-3.62-.41 10.86 10.86 0 01-1.6-.17 22.8 22.8 0 00-3.18-.38 36.77 36.77 0 01-4.06-.44 30.91 30.91 0 01-3.31-.86c-.86-.22-1.63-.71-2.5-.92a.8.8 0 01-.42-.33 4 4 0 00-1-1 3.39 3.39 0 01-1-.64 2.31 2.31 0 00-1.36-.79c-.32-.06-.61-.09-.82.2a.86.86 0 00-.13 1 3.91 3.91 0 01.51 1.12 1.37 1.37 0 00.31.53 18.37 18.37 0 011.35 1.68 2.37 2.37 0 00.88.75 33.61 33.61 0 006.21 2.54 18.45 18.45 0 004.31.68c.59 0 1.19.11 1.78.17a34.85 34.85 0 003.66.46 24.51 24.51 0 013 .32c1.47.22 2.93.49 4.4.71s2.68.33 4 .53 2.79.42 4.18.7a36.72 36.72 0 016.11 1.55 4.56 4.56 0 012.39 1.67 12.29 12.29 0 001.46 1.9 1.92 1.92 0 01.6 1.78zm29.93 10c-.82 0-1.63.11-2.45.09a.79.79 0 00-.85.7.74.74 0 00.68.84c.54.11 1.08.19 1.62.26.75.1 1.51.07 2.26.19 1.06.16 2.11.33 3.17.46s2.23.26 3.35.33a10.84 10.84 0 011.27.09c.84.14 1.7.14 2.54.23 1.21.12 2.43.23 3.63.42 1.39.22 2.8.33 4.2.47s2.65.18 4 .31c1.65.17 3.29.38 4.93.57 2 .22 4 .46 6.06.66 1.63.16 3.23.45 4.84.72a5.74 5.74 0 002.64.1 1.53 1.53 0 00.88-2.53 2.74 2.74 0 00-1.72-1 53.55 53.55 0 00-5.65-.89l-5.23-.52c-1-.11-2.08-.24-3.13-.32s-2.32-.23-3.48-.34c-.72-.07-1.44-.1-2.15-.17-1.51-.14-3-.19-4.53-.26h-1.13c-1.32-.15-2.64-.23-4-.27-2.14-.06-4.27.05-6.41-.06-1.78-.09-3.56.05-5.34-.09zm-18.35-12.54a11 11 0 00-.36-2.47 9 9 0 00-3.45-4.24 12.12 12.12 0 00-4-1.85 21.28 21.28 0 01-2.07-.6 3 3 0 00-1.41-.34 1.2 1.2 0 00-1.06.82 1 1 0 00.32 1.18 5.92 5.92 0 001 .66c1 .54 2.1 1 3.09 1.58a8.32 8.32 0 012.11 1.42c.42.5.85 1 1.27 1.51a2.4 2.4 0 01.63 1.17c.08.48.12 1 .17 1.45a2.79 2.79 0 00.92 1.93 1.53 1.53 0 002.2 0 3.17 3.17 0 00.64-2.23z"/><path class="cls-8" d="M2015 547.77s-14.59 6.89-14.22 13.45c0 0-.67 6.11 4.4 7.53 0 0 12.16 4.35 29.16 1a31.56 31.56 0 01-1.54-7.75s-15.91-12.44-17.8-14.23z"/><path class="cls-2" d="M2033.1 561.94s-30.43-15.8-36-46.19c0 0-8.21-33.59 14.57-55 0 0 29.36-12.62 47.24-4.47 0 0 24.56 22.92 20.92 58.49l22.54 15.94s16.84 27.16 2.2 52c0 0-12.68 19.07-26.79 25.26 0 0-21.19 9.22-32.86-11.69-.05.07-11.92-24.84-11.82-34.34z"/><path class="cls-10" d="M2032.71 560.53c.6-4.17.93-10 3.77-13.75a72.31 72.31 0 01-3.1-11.36c-.49-2.61-1-5.21-1.45-7.83-.59-3.65-1.4-7.26-2.06-10.91-.44-2.47-.95-4.93-1.41-7.4s-.92-4.87-1.3-7.33c-.24-1.59-.47-3.18-.68-4.77-.15-1.12-.22-2.25-.33-3.37-.17-1.73-.34-3.46-.48-5.19-.07-1-.15-2-.22-2.95-.12-1.56-.29-3.12-.43-4.68-.1-1.07-.19-2.15-.29-3.23-.14-1.5-.29-3-.44-4.49-.13-1.28-.23-2.55-.39-3.82-.24-1.83-.49-3.67-.63-5.51a1 1 0 01.3 0 6.7 6.7 0 001.52.41 65.76 65.76 0 018.13 1.52 10.27 10.27 0 001.91.3.4.4 0 01.41.4c.09.76.19 1.52.27 2.29.11.95.17 1.92.3 2.87.18 1.39.41 2.77.61 4.15.25 1.77.51 3.54.75 5.32.19 1.38.34 2.77.52 4.16s.28 2.54.48 3.8c.32 2 .52 4 .85 6q.45 2.69.75 5.39c.15 1.28.32 2.56.45 3.84s.17 2.43.29 3.65c.21 2 .26 4 .53 6 .18 1.33.32 2.66.51 4s.48 2.85.66 4.28a66.4 66.4 0 01.44 6.9c.06 2.34.54 7.88.59 10.07 2.58-4.08 5.9-7.52 8.15-8.9.18-.18-1.18-6-1.34-8.74 0-.8-.11-1.6-.19-2.4-.23-2.19-.43-4.39-.56-6.58 0-.93-.15-1.85-.2-2.77-.08-1.37-.22-2.73-.34-4.09-.08-.89-.18-1.77-.25-2.65-.09-1-.26-2.06-.38-3.09-.17-1.51-.39-3-.62-4.52-.27-1.84-.58-3.68-.83-5.53-.28-2-.6-4.08-1-6.1-.5-2.79-1.1-5.55-1.61-8.33-.54-3-1-6-1.65-8.92 0-.18-.11-.41.07-.5.59-.33 1-.87 1.66-1.16a11 11 0 001.75-.7 1.24 1.24 0 00.43-.11c.38-.12.68-.44 1.1-.44.35.85.69 1.7 1 2.56a39.77 39.77 0 011.91 6.21c.4 1.74.69 3.49 1 5.24.22 1.37.44 2.73.65 4.1.32 2 .63 4 1 6.06.26 1.51.6 3 .84 4.52.36 2.32.86 4.61 1.13 6.95q.27 2.31.51 4.62c.14 1.25.17 2.53.41 3.76a55.07 55.07 0 01.75 6.64c.11 1.53.17 3.06.3 4.6.14 1.75.63 5.55.87 7.79 0 .13.05 1.21.21 1.27s.27-.11.37-.21a50.39 50.39 0 015.68-5 1 1 0 00.41-.85v-2.63c0-.88.05-1.73 0-2.58-.17-1.67-.11-3.35-.22-5 .14 0 .18.15.24.25 1.38 2.32 2.6 4.74 3.9 7.11a34.13 34.13 0 004.34 6 30.14 30.14 0 012.85 3.43 6.59 6.59 0 011 1.64c0 .16-.07.33.08.46v.28a.13.13 0 00.08.17v.38a.11.11 0 00.06.17v.19c0 .14 0 .25.15.28v.17c-.08.07-.08.13 0 .18l.12.64c0 .08 0 .13.06.17v.28a.13.13 0 00.07.18v.28a.12.12 0 00.06.17v.28c0 .12 0 .17.14.2v.25c-.1.1-.11.19 0 .27v.28a.13.13 0 00.08.17v.37c0 .11 0 .2.06.27v.28c0 .1 0 .2.08.26v.28c0 .13-.07.26.07.36v.19c0 .1 0 .2.08.26v.28c0 .13-.07.26.07.36v.19c0 .12-.07.26.09.35v.19c0 .1 0 .2.07.27v.18c0 .11 0 .21.08.27v.19c0 .1 0 .2.07.26v.19c0 .11 0 .21.08.26v.2a.12.12 0 00.06.17v.19c0 .08 0 .14.07.17v.19a.81.81 0 00.17.62v.2a.12.12 0 00.07.17v.19a.58.58 0 00.15.45v.19a.13.13 0 00.08.17v.19a1.36 1.36 0 00.25.72v.19c0 .18 0 .38.23.47v.35c0 .18 0 .38.23.47v.34c0 .19 0 .38.24.48l.05.43a.32.32 0 00.16.35l.11.47a2.78 2.78 0 00.34 1v.18c0 .08 0 .15.08.17v.2a.49.49 0 00.16.44v.19a.72.72 0 00.17.53v.2a.55.55 0 00.16.53v.2a.12.12 0 00.06.17v.19c0 .1 0 .2.09.26v.19c0 .26 0 .56.23.74v.17c-.1.09-.1.18 0 .26v.06c0 .13-.06.27.09.35v.2c0 .13-.07.26.07.35v.19c0 .11 0 .21.08.26v.29c0 .1-.05.19.06.26v.28c0 .13-.07.26.08.35v.38c0 .13-.07.26.07.35v.28c0 .16-.09.32.08.44v.29c0 .15-.09.32.07.44v.29c0 .17-.1.37.15.46v.35a.22.22 0 000 .36v.37c0 .15-.08.32.08.44v.38c0 .12-.07.25.07.35v.37c0 .16-.08.32.08.44v.38c0 .15-.08.31.07.44v.37c0 .22-.09.44.09.63v.46c0 .19-.09.38.07.54v.64a63.2 63.2 0 00.15 2 .71.71 0 000 .72v1.37a5.71 5.71 0 00.08 1.89 10.2 10.2 0 00.07 1.46 2.68 2.68 0 000 1.29l.05 3.32a3.22 3.22 0 000 1.66 14.64 14.64 0 00-.07 2.73c-.2.26-.1.57-.09.85a3.26 3.26 0 00.09 1.39 16.49 16.49 0 000 2.11 2.45 2.45 0 00.06 1.17v1.46a6 6 0 00.08 1.89 2.61 2.61 0 00.07.92.34.34 0 00-.07.15v4.47a7.07 7.07 0 000 1.38 4.42 4.42 0 00-.08 1.62v.74c-.17.22-.08.47-.06.71v.65c-.18.19-.09.41-.08.62v.45c-.17.15-.09.35-.08.53s0 .31 0 .46c-.19.1 0 .23 0 .34a.45.45 0 01-.1.13c-.9.54-1.78 1.09-2.69 1.6a16.3 16.3 0 01-2.74 1.37 2.81 2.81 0 000-.65c-.24-1-.41-2-.56-3-.25-1.69-.63-3.37-.84-5.06s-.35-3.38-.55-5.07c-.25-2.24-.62-4.47-.94-6.7-.25-1.76-.53-3.51-.79-5.26-.23-1.55-.4-3.11-.67-4.65s-.43-3.19-.68-4.78-.56-3.44-.86-5.16c-.21-1.18-.44-2.36-.6-3.56-.2-1.52-.42-3-.59-4.56s-.47-3.15-.68-4.73c-.26-1.93-.66-3.82-1-5.73-.14-.74-.33-1.47-.42-2.21-.13-1-.19-2-.27-3a13.9 13.9 0 01-.08-1.44c0-.69.13-1.38.14-2.07 0-1.27-.18-2.53-.18-3.8a2 2 0 00-1.41-1.76 1.84 1.84 0 00-2.09.82 12.66 12.66 0 00-1.57 3.64 24 24 0 00-.4 6.11c0 2.48.15 5 .22 7.42v2.41c.17 1.94.2 3.88.35 5.82.09 1.15.16 2.31.28 3.46s.19 2.22.27 3.32c.06.88.14 1.75.21 2.63.09 1.27.24 2.54.33 3.82.06.79.12 1.59.2 2.38.1 1 .23 2 .34 3 .13 1.31.23 2.64.39 4s.39 2.89.61 4.33c.29 2 .6 3.93.87 5.89.2 1.47.36 2.94.49 4.41.1 1.17.24 2.33.43 3.48.28 1.64.6 3.29.94 4.92.24 1.18.39 2.38.72 3.53a10.59 10.59 0 01-1.87.19 16.93 16.93 0 01-3.76-.16.72.72 0 00-.06-.35c-.37-.69-.74-1.39-1.12-2.07a57.59 57.59 0 01-4.52-10.75c-.72-2.31-1.43-4.63-2.11-7-.74-2.56-1.49-5.12-2.16-7.7-.49-1.85-.83-3.74-1.24-5.61a34.5 34.5 0 01-.72-5c-.06-1-.13-2.05-.23-3.08-.15-1.48-.26-3-.27-4.45v-7.09c0-1.25-.22-8.9-.22-10.16a1.68 1.68 0 00-1.74-1.66 2.24 2.24 0 00-1.92 1.49c-1.38 4.18-2.26 16.16-2.3 17.67-.06 2 .12 4 .25 6 .11 1.65.19 3.31.38 5 .25 2.33.72 4.62 1.18 6.91.32 1.57.69 3.13 1.09 4.67 1.05 4 2 8 3.05 12.07a42.22 42.22 0 002.67 7.72.22.22 0 01-.2-.07 33.83 33.83 0 01-7.6-7.6c-.6-.79-1.1-1.66-1.75-2.41a.61.61 0 00-.12-.38 38.57 38.57 0 01-2-3.67 43.33 43.33 0 01-3-6.93c-.55-1.92-2.21-5-2.78-6.9-.87-3-3.66-11.83-3.9-13.35z"/><path class="cls-10" d="M2012.78 459.52a8.47 8.47 0 003.34 1.73c.16.05.31.12.46.18a8.05 8.05 0 00.11 1.3c.08 1.19.17 2.37.28 3.56.14 1.65.3 3.29.44 4.94.1 1.22.22 2.43.29 3.65.11 1.79.29 3.57.43 5.36.08 1.05.13 2.1.2 3.15.14 2.18.28 4.36.44 6.54.06.89.12 1.77.2 2.66.18 1.91.37 3.83.6 5.74s.48 3.67.77 5.5c.32 2 .7 4 1.08 5.95.59 3.07 1.17 6.15 1.83 9.21.78 3.64 1.52 7.3 2.17 11 .8 4.49 1.91 8.92 3 13.34.76 3 1.6 6 2.43 9 .67 2.37 2.82 9.92 1.83 9.68-2.88-.7-8.92-17.28-10.61-21-1.27-2.78-2.61-5.54-3.69-8.41-.89-2.36-1.68-4.75-2.42-7.16-.5-1.61-1-3.22-1.57-4.81a45.43 45.43 0 01-2.36-9.17l-.84-6c-.34-2.4-.77-4.78-1.15-7.17-.26-1.61-.5-3.21-.72-4.82-.18-1.25-.33-2.51-.45-3.76s-.19-2.61-.3-3.92c-.16-1.9-.24-3.81-.42-5.72-.13-1.45-.29-2.9-.41-4.36q-.23-2.83-.33-5.68c0-.48 0-1-.06-1.45a13 13 0 010-3.73v-.16a.43.43 0 00.35-.38l.09-.1a.6.6 0 00.36-.45.48.48 0 00.29-.34.87.87 0 00.53-.56 11.71 11.71 0 001.27-1.27 1.12 1.12 0 00.65-.63.5.5 0 00.35-.28.63.63 0 00.45-.37.42.42 0 00.38-.35h.08c.34-.09.42-.37.63-.44zM2094.66 595.56c-.21 0-.18-.2-.18-.35v-.82c0-1.48 0-3-.11-4.43s-.12-3.17-.18-4.75-.11-3.19-.18-4.79-.13-3.1-.18-4.65c-.06-1.92-.12-3.83-.28-5.74-.12-1.49-.3-3-.5-4.48s-.43-3.28-.66-4.91q-.48-3.33-1.14-6.62a68.7 68.7 0 00-2.53-9c-.91-2.63-1.83-5.26-2.72-7.9-.36-1.07-.69-2.15-1.1-3.2-.18-.47-.13-.56.36-.49s1.23.08 1.84.14a9.9 9.9 0 001.8-.07c.65-.06 1.28-.18 1.93-.25a4.75 4.75 0 00.64-.2c.32.16.61-.07.92-.07a1.08 1.08 0 00.13.43c1 2.37 2 4.74 2.9 7.17 1.13 3.13 2.23 6.28 3.21 9.47q1.17 3.75 2 7.59c.4 1.89.84 3.76 1.16 5.66.23 1.37.38 2.75.48 4.12s.1 2.68.19 4a45.86 45.86 0 01-.2 5.11c-.06 1.74-.27 3.48-.42 5.22-.1 1.09-.22 2.18-.34 3.28-.09.79-.19 1.58-.28 2.37v.24a.19.19 0 00-.16.21.1.1 0 000 .07.17.17 0 00-.16.2.24.24 0 000 .08.17.17 0 00-.17.19 11.27 11.27 0 00-.92 1.26.17.17 0 00-.16.2.14.14 0 000 .07.18.18 0 00-.17.2c-.24.11-.29.37-.45.55a.39.39 0 00-.27.36.14.14 0 000 .07.18.18 0 00-.17.2.5.5 0 00-.28.34.19.19 0 00-.17.2.31.31 0 00-.19.26c-.16 0-.26.12-.26.29a.14.14 0 000 .07 1.1 1.1 0 00-.62.65 1.6 1.6 0 00-.63.73l-.1.09a3.82 3.82 0 00-1 1.09 2.06 2.06 0 00-.68.54zM2054 459.31a5.75 5.75 0 011.39-1.12 20.8 20.8 0 002.8-2.6 7.87 7.87 0 01.59-.57c.64.39 1.39 1.21 2 1.66.92.65 3.46 4.89 4.5 6.59a24.56 24.56 0 012.57 5.67c.54 1.8.92 3.65 1.41 5.46.42 1.53.9 3 1.26 4.58.93 4 1.83 8.08 2.71 12.12a34.46 34.46 0 01.65 4.65 17.54 17.54 0 01-1.43-1.15 8 8 0 00-5.73-1.77 6.42 6.42 0 00-3.56 1.51c-.1.09-.18.21-.33.21-.26-1.56-.51-3.12-.81-4.67-.42-2.16-.79-4.34-1.19-6.51-.27-1.51-.55-3-.82-4.53-.52-2.86-1.18-5.68-1.92-8.49-.47-1.77-1.07-3.5-1.69-5.23-.71-1.98-1.5-3.92-2.4-5.81zM1997.31 485.83c.3-.89.6-1.79.88-2.69.57-1.78 1.13-3.56 1.71-5.4a1.08 1.08 0 01.2.75c0 .79.13 1.57.13 2.35 0 1.72.13 3.43.18 5.14s.2 4.18.37 5.76.32 3.31.52 5 .39 3.25.56 4.88c.14 1.37.36 2.74.52 4.11s.28 2.82.48 4.22c.29 2.05.53 4.11 1 6.14a59.46 59.46 0 001.87 6.67q1 3.07 2 6.2a91.91 91.91 0 003.39 9.51c1.22 2.91 3.51 5.64 4.87 8.49.07.16 2.59 3.88 2.23 4.12-.29-.11-6.7-6-7.11-6.61-1.19-1.47-5.16-7-5.51-7.64l-4.68-8.59c-.75-1.58-1.21-3.83-1.86-5.45-4.9-9.12-3.42-22.56-3.49-24.07v-.41a11.37 11.37 0 00.15-2.33v-.13a6.28 6.28 0 00.17-1.73v-.18c0-.05.07-.1.08-.15a56.59 56.59 0 01.91-5.64c.14-.7.3-1.4.44-2.11zM2110.09 563.88c-.41-.16-.3-.56-.35-.85-.26-1.62-.59-3.22-1-4.81-.35-1.37-.68-2.75-1.05-4.11-.47-1.69-.88-3.4-1.43-5.08-.75-2.24-1.42-4.5-2.2-6.73-1.12-3.23-2.49-6.36-3.89-9.48-.29-.65-.55-1.31-.82-2a22.12 22.12 0 012.79-1.2l.21.19a.65.65 0 00.44.48.14.14 0 000 .06 3.14 3.14 0 00.89 1.12.2.2 0 000 .07.64.64 0 00.36.47.09.09 0 000 .07c0 .12.06.18.17.2a.08.08 0 000 .07.64.64 0 00.35.48l.11.25a.39.39 0 00.25.38l.11.25a.19.19 0 00.16.21l.2.43a.41.41 0 00.25.39l.29.61a.21.21 0 00.16.21v.15c.06.18 0 .39.26.47v.16c0 .12.05.18.15.21v.16c.11.29.12.64.42.84v.24c.2.57.39 1.14.62 1.69.34.81.52 1.69.9 2.49v.18a18 18 0 00.7 2.27 1.1 1.1 0 010 .18.65.65 0 00.16.46v.17a.68.68 0 00.16.55v.18a1 1 0 00.17.64v.18a1.06 1.06 0 00.17.73v.18a14.61 14.61 0 00.35 2.36v.18a5.32 5.32 0 00.17 1.54v.36c0 .31-.1.62.08.91v4.54c-.19.29-.08.61-.08.91v.45c-.15.17-.08.36-.08.55v.18c-.16.2-.08.42-.07.64v.45a3.29 3.29 0 00-.17 1.36v.18a3.42 3.42 0 00-.16 1.27z"/><path class="cls-11" d="M2033.73 467.19a9.51 9.51 0 01-1.91-.31 67.65 67.65 0 00-8.13-1.51 6.24 6.24 0 01-1.52-.42 1 1 0 00-.3 0c-.61-.14-1.23-.28-1.84-.44l-5.49-1.47c-.16-.06-.31-.13-.47-.18a8.31 8.31 0 01-3.33-1.73 1.45 1.45 0 00-.37-.56 4.53 4.53 0 01.43-5.91 5.76 5.76 0 014.91-1.4 9.55 9.55 0 002.33.22h.14a4.17 4.17 0 001.32.18c.11 0 .27.06.33-.06s-.1-.24-.2-.31a16.19 16.19 0 01-2.24-2 5.27 5.27 0 01-1.56-4.4 4.06 4.06 0 012.08-3.15 5.19 5.19 0 014.8-.06c2 .92 4.17 1.31 6.17 2.2.22.09.29 0 .25-.21s-.09-.26-.13-.39a46.4 46.4 0 01-2.17-8.53 5.79 5.79 0 01.65-3.84 4.39 4.39 0 013.08-2.06c2.66-.46 3.65 1.36 5.33 2.83a4.54 4.54 0 01.61.63 38.59 38.59 0 013.57 6.63 5.72 5.72 0 00.41.91c0 .16 0 .37.19.41s.15-.15.17-.26c.54-3 .79-6 1.19-9a12.68 12.68 0 011.29-4.36 4.8 4.8 0 015.16-2.5c1.68.1 3.43 2.2 3.43 2.2.36.89 1.72 2.37 1.35 4.84 0 .07.33 6.18-.54 9.13 0 .05-.3 1.31-.42 1.9 0 .21.13.13.24.06.36-.24.72-.5 1.09-.72a6.51 6.51 0 015.84-.71 4.9 4.9 0 013.18 4.32c.3 2.54-2.12 6.07-2.12 6.1s-3.32 3.78-3.37 3.83a25.85 25.85 0 01-3.31 2.68l-2 1.42a56 56 0 01-5.17 3.24 12.54 12.54 0 01-1.44.73 1.24 1.24 0 01-.43.11c.57-1.71 1.14-3.41 1.7-5.12.87-2.62 1.8-5.22 2.54-7.88.36-1.32.67-2.66 1.07-4a5.28 5.28 0 00.26-1.36 2.21 2.21 0 00-1.17-2.06 2.35 2.35 0 00-2.66.13 6.72 6.72 0 00-2.46 3.18c-1.23 3.36-2.44 6.72-3.67 10.08 0 .13 0 .34-.24.33s-.15-.17-.19-.28c-1-2.82-2-5.65-3.07-8.47a47 47 0 00-2.14-5.33 5.42 5.42 0 00-1.78-2 1.37 1.37 0 00-2 .82 8.42 8.42 0 000 1.81 42.08 42.08 0 001.28 5.41c.62 2.25 1.29 4.48 1.92 6.73.08.28.36.73.15.83s-.44-.35-.64-.58c-1.72-1.88-3.27-3.91-5-5.77a2.29 2.29 0 01-.8-1.32 1.23 1.23 0 00-.39-.66 2.36 2.36 0 00-2.64-.45 2.52 2.52 0 00-1.77 1.84 3.09 3.09 0 00.33 2.19 62.42 62.42 0 004.93 7.56 42.44 42.44 0 004.56 5.28c.28.34.53.68.8 1.01z"/><path class="cls-12" d="M2041.44 467.08c.59-.32 1-.86 1.66-1.15a11 11 0 001.75-.7c.57-1.7 1.14-3.41 1.7-5.11.87-2.62 1.79-5.23 2.54-7.89.36-1.32.67-2.65 1.06-4a4.83 4.83 0 00.27-1.36 2.2 2.2 0 00-1.18-2 2.32 2.32 0 00-2.65.13 6.7 6.7 0 00-2.46 3.17c-1.24 3.36-2.44 6.73-3.67 10.09 0 .13 0 .33-.24.32s-.15-.17-.19-.28c-1-2.82-2-5.65-3.07-8.46a48.34 48.34 0 00-2.14-5.34 5.39 5.39 0 00-1.78-2 1.36 1.36 0 00-2 .82 8.43 8.43 0 000 1.81 41.55 41.55 0 001.28 5.4c.62 2.25 1.29 4.49 1.92 6.74.08.27.36.72.15.82s-.44-.35-.64-.57c-1.72-1.89-3.27-3.92-5-5.77a2.32 2.32 0 01-.8-1.33 1.2 1.2 0 00-.39-.65 2.34 2.34 0 00-2.64-.45 2.49 2.49 0 00-1.77 1.83 3.08 3.08 0 00.33 2.19 43.53 43.53 0 003.49 5.84c1.8 2.52 6.75 8 6.75 8s6.22.41 7.72-.1zM2158.17 602.57c.24-.13 0-.16.08-.91z"/><path class="cls-11" d="M2076.36 530.22a6 6 0 00-1-1.68 29.85 29.85 0 00-3.08-3.83 25.18 25.18 0 01-3.77-5.48c-1.34-2.53-2.57-5.13-4-7.63-.06-.1-.1-.23-.24-.26a4.64 4.64 0 00-.5-1.17c-1.45-2.91-2.93-5.8-3.11-9.16a9.3 9.3 0 01.85-4.8 15.91 15.91 0 011.22-1.7c.15 0 .24-.12.34-.21a6.31 6.31 0 013.59-1.46 7.9 7.9 0 015.71 1.88 16 16 0 001.42 1.19c.19.54.69.84 1 1.29.14.2.29.56.53.46s0-.44 0-.68a.57.57 0 010-.13c.05-1.88-.09-3.76.05-5.64s.18-3.57.4-5.34a9.87 9.87 0 011.08-3.76 6.08 6.08 0 015.69-3.34 6.74 6.74 0 014.72 2.17 13 13 0 012.75 4.7 35.21 35.21 0 011.47 5.8 95 95 0 011.41 10.47c0 .55.1 1.1.17 1.64 0 .12 0 .31.16.34s.17-.14.23-.25l.87-1.6a51.46 51.46 0 014.1-6.33 18.86 18.86 0 001.51-2 .07.07 0 000-.06c.33-.11.46-.43.65-.66a10.93 10.93 0 001.18-1.46.06.06 0 000-.06 1.48 1.48 0 00.71-.75.09.09 0 000-.06 3.43 3.43 0 001.09-1.12l.09-.1c.19-.06.28-.22.41-.35 1.6-1.54 3.11-3.18 4.85-4.55a8.09 8.09 0 015.54-2 6.29 6.29 0 015.56 4.16 3.11 3.11 0 00.34.94v.18c0 .06-.09.37.11.5v.15a6.64 6.64 0 000 1.94 1.77 1.77 0 000 .23c-.23.17-.18.38-.1.59a2.46 2.46 0 000 .26 1.93 1.93 0 00-.21 1v.27a.78.78 0 00-.16.64v.28c-.13.07-.11.21-.14.32a27.38 27.38 0 01-1.1 3.43 11.7 11.7 0 00-.66 1.64l-.15.42c-.13 0-.18.16-.23.27-.91 1.85-1.92 3.64-2.92 5.44 0 .08-.12.15-.08.25s.19.09.29.07c.38-.06.77-.15 1.16-.2a9.63 9.63 0 013.82.11 5.49 5.49 0 013.92 6.79 13.52 13.52 0 01-1 2.19.08.08 0 000 .07c-.47.3-.7.81-1.07 1.2-.21.22-.5.39-.58.73a.07.07 0 000 .06 1.61 1.61 0 00-.73.75.31.31 0 00-.18.19 16.54 16.54 0 00-1.85 1.8l-.1.1a8.6 8.6 0 00-1.66 1.53.93.93 0 00-.2.08c-1.12 1-2.33 1.92-3.54 2.82a3.93 3.93 0 00-1 .77 4.7 4.7 0 00-.37.27h-.06c-.14 0-.23.07-.33.14-.87.57-1.75 1.13-2.62 1.71a52.71 52.71 0 01-5.71 3.36 3.33 3.33 0 00-1.3.75 23.93 23.93 0 00-2.82 1.17 9.85 9.85 0 00-1.59.52 56.16 56.16 0 01-5.45 1.48c-.31 0-.6.23-.92.06.45-.47.88-1 1.35-1.42l5.78-5.66a59.79 59.79 0 004.84-5.1c.92-1.13 1.82-2.29 2.7-3.45a2.59 2.59 0 00.41-2.63 2.52 2.52 0 00-3.8-1.14c-.3.21-.58.44-.87.66a54.32 54.32 0 00-4.44 3.4c-1.36 1.25-2.71 2.5-4 3.77-1.18 1.14-2.33 2.32-3.49 3.48-.09.09-.18.27-.33.18s0-.25 0-.38c.18-.66.37-1.32.53-2 .44-1.83.87-3.67 1.25-5.52a16.5 16.5 0 00.37-4.14 2 2 0 00-1.18-1.91 1.86 1.86 0 00-2 .68 16.67 16.67 0 00-2.85 5.4c-1 3-1.83 6-2.62 9 0 .13 0 .28-.23.32a1.42 1.42 0 01-.05-.16c-.45-1.9-.83-3.82-1.2-5.73-.48-2.41-1-4.81-1.43-7.23a6 6 0 01-.14-2.36 2.08 2.08 0 00-2-2.37 2.1 2.1 0 00-1.91 1.39 14 14 0 00-.47 5.11c.27 1.71.61 3.4.94 5.09.52 2.65 1 5.31 1.49 8 .11.58.23 1.17.34 1.75 0 .14.1.34-.06.42s-.22-.12-.32-.2a8.83 8.83 0 00-.87-.86c-.06-.11-.13-.13-.2-.14z"/><path class="cls-12" d="M2091.65 533.34c4.14-3.68 21.74-18.66 13.24-20.32-14.8 6.21-16.68 23.2-13.18.12-3.75-8.27-8 11.31-8.94 13.94-1.94-3.64-2.2-22.58-6.75-17.43-3.14 3.78-.06 17.27.73 20.83a1.34 1.34 0 001.07 1l12.4 2.23a1.69 1.69 0 001.43-.37z"/><path class="cls-8" d="M2045 596.14c.65.75 1.15 1.62 1.75 2.41a33.58 33.58 0 007.59 7.6c.06.05.12.1.2.07l.17.12a.34.34 0 00.37.24.08.08 0 00.07 0 .36.36 0 00.39.23.07.07 0 00.07 0 1.09 1.09 0 00.75.41l.13.07c0 .1.13.13.21.17a21.16 21.16 0 003.36 1.33 3.65 3.65 0 001.39.3h.18c0 .1.1.11.18 0h.27a.18.18 0 00.27.05h.18c.05.09.11.09.19 0h.45a.18.18 0 00.27 0h.19c.1.14.23.11.36 0a1.18 1.18 0 00.53 0 17 17 0 003.77.16 10.76 10.76 0 001.87-.18h.25c.17.06.32.09.46-.07h.27a.26.26 0 00.36 0h.37c.13.06.26.08.36-.07h.18a.17.17 0 00.27 0h.28a.84.84 0 00.72-.14h.18c.14.08.27 0 .39 0a23.72 23.72 0 003-.92c.14-.06.33-.06.42-.23l.22-.1a.83.83 0 00.67-.29.07.07 0 00.06 0 16.59 16.59 0 002.73-1.37c.91-.51 1.8-1.06 2.69-1.6.05 0 .07-.08.11-.13a13.22 13.22 0 002.11-1.31 64.75 64.75 0 006.52-5 .65.65 0 01.7-.19 8.49 8.49 0 015.38 4.86c.07.2.06.43.24.58v.12a1.5 1.5 0 00.16.78V605.84a1.5 1.5 0 00-.16.78v.12a10.39 10.39 0 00-.57 1.43.26.26 0 00-.14.25.66.66 0 00-.28.46.27.27 0 00-.19.27l-1.82 1.82a.5.5 0 00-.38.28l-.06.05a.16.16 0 00-.2.13.29.29 0 00-.27.19.89.89 0 00-.4.2 48.51 48.51 0 01-13.74 5.59 11 11 0 00-1.88.47h-.17a1.55 1.55 0 00-.87.17h-.13a1.54 1.54 0 00-.87.16h-.12a1.38 1.38 0 00-.67 0 74.19 74.19 0 01-8.78 1c-3.94.23-7.86.6-11.8.86a65.62 65.62 0 01-11.81-.13 18.37 18.37 0 01-7.93-2.67 10.49 10.49 0 01-4.15-4.5 9.92 9.92 0 01.1-7.94 10.3 10.3 0 014.85-5.27 60 60 0 018.18-3.42z"/><path class="cls-2" d="M1575.16 499.66c-3.16-.37-17.85-6.19-19.91-8.61-3.18-3.44-3.21-6.07-3.44-10.11-1-17.93 24.22-35 27.32-36.77a99.06 99.06 0 0124.09-10c12.09-3 24.75 0 24.8 0s29.38 9.19 37.55 22.72a13.07 13.07 0 01-.19 10.05c-1 2.66-22.57 24.29-35.72 28.6 0-.02-37.18 6.14-54.5 4.12z"/><path class="cls-6" d="M1603.52 458.75c4.82-.91 9.62-1.47 14.45-.4 8.17 1.82 13.63 6.65 15.9 14.78 1.29 4.62 3.29 9.75 3.35 14.61 0 2.25.78 3.78-1.17 4.89a32.93 32.93 0 01-7 3.52 115.76 115.76 0 01-37.74 5.16c-9.76-.29-15.81-1.4-15.85-1.65-.82-4.91-1.35-10.35-.51-15.31a23.12 23.12 0 016.79-13.16c4.44-4.26 9.24-8 15-10.24 2.26-.84 4.52-1.47 6.78-2.2z"/><path class="cls-13" d="M1206.64 481.48s-7.9 6.12-19-4.6l-2.08-45c-1.49-13.79-15.51-23.1-29.21-19.11l-1 .31a30.88 30.88 0 00-14 27.21c.7 18.71-5.26 21.43 2.81 51.71 2.34 8.78 8.24 32.83 22.73 37.18l33.07 9a18.6 18.6 0 0111.22 5.55l.35 38.1a10.63 10.63 0 009 8.37c11.23 1.63 32.52 4 47.23 1.38a10.71 10.71 0 008.91-10.18l1.91-74.07s41.05-6.46 55.44-18.37 19-33.34 19.65-41.16c.54-6 .67-28.22.69-38.09a26.44 26.44 0 00-2.87-12.16c-3.17-6.23-14.73-22.52-25.37-22.73-7.14-.13-12.58 5-17.37 7.66-6.84 3.85-6.3 16.42-6.35 24.09-.08 11.41-.31 28.86-1 30-1.05 1.7-22.8 2.38-22.8 2.38l.7-148.32s-4.92-27.22-25.62-31-40.7 9.86-41.41 23.47-1 97.3-1 97.3-.88 91.66-.88 91.85c-.03 1-1.9 8.93-3.75 9.23z"/><path class="cls-8" d="M1214.83 584.9c-1.17-1-3-5.73-3.51-5.45-2.86 1.52-4.56 9.19-2.46 13.5 4.61 9.43 49.13 9 70.65 6.23 13-1.64 18.32-5.27 20.13-8.59a5.75 5.75 0 00-1.35-7 27.74 27.74 0 00-13.55-6.52 2.87 2.87 0 01-2.44-2.78l-.22-37.9s-.7-16.1-3.5-16.1c-.92 0-1.58 2.66-1.58 7 0 14.79-1 36.27-.91 54a8.12 8.12 0 01-6.58 7.67c-14.2 2.49-22.35 3.59-48.48-.63-3.03-.52-6.2-3.43-6.2-3.43z"/><path class="cls-2" d="M1242.43 418.71s-1.75-10.72-5.26-12.93-4.91-.68-5.09.85 1.75 13.78 4.91 15 5.79 1.16 5.44-2.92zM1266.47 402.89s-3.33-3.91 13.33-15.31c0 0 9.3-3.06 5.09 6l-12.81 10s-3.15 3.56-5.61-.69zM1255.42 365.64s-3.16.17-3.69 2.72-3.33 9.7-2.46 11.23 1.06 3.74 4 3.57 3.86-5.27 3.86-5.27l1.4-9.19s-.31-3.23-3.11-3.06zM1226.11 359s-6-.85-5.43-12.75c0 0-.36-4.94 2.63-5.45s4 2.9 4 2.9.7 8.5 1.76 10.71c.03 0 .73 4.42-2.96 4.59zM1268.34 338.54c2.6-1.7 8.2-5.22 10.06-5.22 0 0 3.16-1.53 5.61-.85 0 0 4.74 2 1.41 5.27a16.56 16.56 0 01-7 3.74s-4.91 2.39-6.67 2.56c0 0-3.47.51-4.55-1.8a3 3 0 011.14-3.7zM1216.28 382.74a4.6 4.6 0 00-1.49-3.11c-1.73-1.62-5.12-4.37-8-4.13 0 0-5.08-.68-4.56 3.58 0 0 1.76 3.57 5.09 4.25.02 0 9.32 5.58 8.96-.59zM1218.22 312.57l-6.49-6.64s-6-2.21-6.67.85c0 0-2.81 1.88 1 5.62s7.72 6.46 9 6.46 7.72-1.19 3.16-6.29zM1245.94 286.2s-3.86-2.89 1-7c0 0 4-4.59 6.5-1.7 0 0 4.91 3.91-2.46 8.5.02 0-1.35 2.07-5.04.2zM1248.37 320.17c.54-3.66 2.66-15.59 7.4-18.32 0 0 5.61-2.72 5.61 2.72l-7.37 16s-2.31 3.07-4.51 1.93a2.22 2.22 0 01-1.13-2.33zM1325.53 502c-3.67-1-15.57-4.7-17.71-9.62 0 0-2-5.76 3.55-5l15.33 9.27s2.82 2.65 1.35 4.6a2.37 2.37 0 01-2.52.75zM1220.15 436.74s-7.37-9.36-9.83-10c-2.25-.62-4.91 2.05-3.68 5.45 0 0 4.39 10 11.75 10.54 0-.04 5.09.64 1.76-5.99zM1252.08 433.51s-3.69-2.44-7.79 6.21a11.49 11.49 0 01-.61 1.08c-.68 1.07-3.35 5-2.48 6.83 1.76 3.74 2.68 2.56 4.39 2.72s3.67-3.21 4.56-4.76c1.76-3.07 4.74-9.7 1.93-12.08zM1310.74 413.1s-7.25-4-8.19-4.43c0 0-5.26-3.28-5.73 1.48a4.3 4.3 0 002.81 4.53l7.49 3.63a3.8 3.8 0 004.09-.79 3.31 3.31 0 00-.47-4.42zM1323.49 411.51s-3.62-.57-3.62-7.26.7-7.82 2.22-8.62c0 0 4.21-1.13 4.79 2.16a54 54 0 00.12 5.89s1 3.07.82 4.2a3.7 3.7 0 01-4.33 3.63zM1343.84 410.15s.59-2.61 10.18-7.49c0 0 3-1.58 4.68-.45s2.57 2.72 1.87 3.86c0 0-.7 3.06-4.91 4.53l-8.42 3.4s-3.75 1-3.4-3.85zM1342.74 442.21a4.06 4.06 0 012.44-1.88c2.19-.65 7.08-2.13 9.31-3.08 2.92-1.25 4-2.38 6.2-1.47s3.16 1.92 2.45 3.51a21.18 21.18 0 01-9.68 6 7.57 7.57 0 00-1 .33c-1.21.51-4.9 1.82-8.36.61-.02-.02-2.7-1.6-1.36-4.02zM1310.39 443s-.12-4.53 5-7.59c5-3 6.34.85 4 4.48a7.67 7.67 0 00-.45.79c-.55 1.13-2.19 4.35-3.44 4.82.04.03-3.82 2.75-5.11-2.5zM1176.34 413.89c5.74-8.62 9-3.17 9-1.13s-2.57 8.05-8.54 11.79c-1.36.86-6.19-2.04-.46-10.66zM1318.74 463.9c-2.28-10 4-8.44 5.51-7s4.08 7.44 2.62 14.18c-.33 1.55-5.87 2.83-8.13-7.18zM1182.89 454.94s1.06-4.08 6.67-5.78 5.15 2.61 5.15 2.61-.12 3.17-4.68 5.21c-.03.02-6.78 4.42-7.14-2.04zM1149 449.75a4.44 4.44 0 00-.17-5.14c-1.92-2.63-3.46-4.19-7.43-7 0 0-3.53-3-4.82.27a4.8 4.8 0 00.31 4 24.19 24.19 0 005.68 6.81s4 4.59 6.43 1.06zM1174.24 488.39s-6.46-6.91-8.89-6.57c-.82.11-5.38-1-5.26 3.51a4.44 4.44 0 002.33 2.95s4.92 6.8 8.66 7.94c0 0 4.33 2.15 6.2-1.25 0 .03 2.72-2.38-3.04-6.58zM1192.72 501.21s-2.46-.34-2.69 2.61l-.47 11.56s.24 3.86 3 3.74c0 0 3.63.57 4-3.85.02 0 1.54-14.27-3.84-14.06zM1164.53 534.77l2.11-6.8a3.33 3.33 0 013.86-2.72c3.39.34 2.33 4.65 2.33 4.65l-2.69 6.8s-.23 1.82-3.39 1.36a2.43 2.43 0 01-2.22-3.29zM1232.75 536.12l4.42-6.22s1.87-1.93 3.62-.8 2.11 2.27 1.64 3.29-4.56 7.49-4.56 7.49a4.3 4.3 0 01-4 .68 2.69 2.69 0 01-1.69-2.5 3 3 0 01.57-1.94zM1258 521.17a19.15 19.15 0 00-.94-5.45c-.82-1.81.94-4.65.94-4.65s2.57-1.81 3.62.68a46.75 46.75 0 012.7 7.83c.11 1.25.93 4.53.35 5.21s-2.46 2.27-4.1 1.71-2.46-2.39-2.57-5.33zM1249.1 556.15s-3.33-1.36-6.84 9.7c0 0-2.28 6.8 2.1 7 0 0 4.39 1.53 5.79-5.27 0 0 2.81-7.15 2.11-9.19 0-.03-.88-3.26-3.16-2.24zM1208.74 561.42c.71 0 9-1.53 9.65 1.53s.88 4.26-.7 4.77-7.37 1.87-9.82 1.19-5.29-3.43-4-4.77c1.72-1.87 1.89-2.72 4.87-2.72z"/><path class="cls-9" d="M1368.39 369.87c-1.56 2.49-4 4.08-6.45 5.53a82.41 82.41 0 01-18.56 8l-3.91 1.21-.18.05a20.71 20.71 0 01-3.49.87 3.82 3.82 0 01.45-.45c2.48-1.9 5-3.78 7.44-5.7a49 49 0 004.91-4.18 4.14 4.14 0 001.2-2.1 2.82 2.82 0 00-2.77-3.05 6.52 6.52 0 00-4.06 1.29c-2.43 1.49-4.82 3-7.11 4.71-.21.16-.41.42-.83.26.19-.56.41-1.1.59-1.66.87-2.73 1.71-5.46 2.61-8.18.48-1.44 1-2.85 1.6-4.27a8.43 8.43 0 00.2-5.09c-.28-1.2-1.17-1.54-2.44-1.1a2.88 2.88 0 00-.57.32 10.06 10.06 0 00-4 5c-2 5.09-4.47 10-6.93 14.83-.1.2-.12.5-.48.49a1.45 1.45 0 01-.28-.68c-.81-3.36-1.52-6.74-2.18-10.13-.43-2.21-.76-4.44-1.32-6.63a3.65 3.65 0 00-1-1.95 1.78 1.78 0 00-2.29-.2 3 3 0 00-1.31 1.76 18.52 18.52 0 00-.35 3.14 33.61 33.61 0 00.74 10.09 35.91 35.91 0 01.92 5.83 68.6 68.6 0 00.67 7.15l-2.07-.56-5.09-1.34a.55.55 0 00-.47-.21c-3.35-1.26-6.72-2.49-10.06-3.79a44.87 44.87 0 01-6.27-3 9.25 9.25 0 01-1.8-1.36 4.8 4.8 0 01-1.22-5.46 5 5 0 014.72-3.36c.82-.07 1.66 0 2.46 0 .21-.44-.14-.56-.32-.74a36.85 36.85 0 01-3.11-3.26 8.4 8.4 0 01-2-4.62c-.18-2.74 1-5.28 4.1-6.06a6.36 6.36 0 013.43.2 49.87 49.87 0 015.07 1.63.56.56 0 00.58 0 1.85 1.85 0 00-.29-.94 37.41 37.41 0 01-2.38-8.12 17.24 17.24 0 010-5.17c.64-4.42 5-5.75 8.49-3.82a9.48 9.48 0 012.57 2.27 18.54 18.54 0 013 5c1.11 2.72 2.19 5.45 3.26 8.19 1.31 3.4 2.71 6.77 3.84 10.23 0 .06.09.11.21.25a2.88 2.88 0 00.35-1.09c.82-4.15 1.59-8.31 2.15-12.5.4-3 .73-6 1.36-8.88a26.92 26.92 0 011.69-5.24 6 6 0 011.3-1.94 4.94 4.94 0 017.73 1 10.54 10.54 0 011.27 4.23 80.5 80.5 0 01.47 11.09v1.17a3.87 3.87 0 001-1.24 61.42 61.42 0 013.85-5.76 10.08 10.08 0 012.65-2.64 5.34 5.34 0 013.84-.79 4.41 4.41 0 013.17 2.37 5.18 5.18 0 01.53 3.08 25.7 25.7 0 01-3.25 9.58c-2.11 3.78-4.44 7.45-6.67 11.16a1.58 1.58 0 00-.35.88c-.08.06-.17.13 0 .21s.1-.06.15-.09a42.15 42.15 0 003.9-1.85c2.1-1 7.74-3.85 12.06-3.78a21.16 21.16 0 012.38.17 7.65 7.65 0 013 1.38c2.39 2.19 3.33 4.69-.05 8.36z"/><path class="cls-2" d="M1335.8 385.55a36.05 36.05 0 01-7.4 1.46c-3.14.33-7.19-1-9.16-1.91a68.6 68.6 0 01-.67-7.15 35.91 35.91 0 00-.92-5.83c-1.47-4.82-.65-12.2-.39-13.23a3 3 0 011.31-1.76 1.78 1.78 0 012.29.2 3.65 3.65 0 011 1.95c.56 2.19.89 4.42 1.32 6.63.66 3.39 1.37 6.77 2.18 10.13a1.45 1.45 0 00.28.68c.36 0 .38-.29.48-.49 2.46-4.88 4.95-9.74 6.93-14.83a10.06 10.06 0 014-5 2.88 2.88 0 01.57-.32c1.27-.44 2.16-.1 2.44 1.1a8.43 8.43 0 01-.2 5.09c-.55 1.42-1.12 2.83-1.6 4.27-.9 2.72-1.74 5.45-2.61 8.18-.18.56-.4 1.1-.59 1.66.42.16.62-.1.83-.26 2.29-1.68 4.68-3.22 7.11-4.71a6.52 6.52 0 014.06-1.29 2.82 2.82 0 012.77 3.05 4.14 4.14 0 01-1.2 2.1 49 49 0 01-4.91 4.18c-2.46 1.92-3 2.53-5.43 4.43-.2.12-2.29 1.52-2.49 1.67zM1245.65 490.64c-1.46-.4-8.48-2.84-9.46-3.95-1.5-1.59-1.19-3.3-.75-5.11a27.21 27.21 0 012.94-6.59c1.43-2.59 8.71-8.17 10.18-9 1.2-.66 4.84-4.16 10.4-5.5a28.94 28.94 0 0111.77 0 67.72 67.72 0 017.75 3c1.26.7 9.32 5.64 10.07 7.41a5.84 5.84 0 01-.09 4.62c-.49 1.22-8.93 10-10.37 11.11a.31.31 0 01-.51-.25 9.94 9.94 0 00.05-2.53 11.88 11.88 0 00-11.63-9.19 12.86 12.86 0 00-9 3.41 18.48 18.48 0 00-6.07 12.22c-.08.73-.31 1.23-1.05 1.08-1.32-.19-3.59-.55-4.23-.73z"/><path class="cls-6" d="M1251.28 492a2.26 2.26 0 01-1.24-.54c-.07-4 3.21-10 7.23-13.5a12.77 12.77 0 019-3.41 11.88 11.88 0 0111.63 9.19 11 11 0 01.25 2.49.92.92 0 01-.29.66 25.26 25.26 0 01-4.2 3.07 24.34 24.34 0 01-5.35 2.32 2 2 0 01-.35.07 44 44 0 01-11.37.46c-.52-.07-4.23-.56-5.31-.81z"/><path class="cls-14" d="M1234.28 270.06s-11.18-8.81-14-13.53c0 0-14-16.37-14-17.79 0 0-2.2-4.25.47-7.09s2.21-2.83 5-3.3 12.44 3.46 17.47 10.23c0 0 .63-18.73 2.36-20.94 0 0 2.68-4.88 6.46-3.93s9.44 3.62 9.29 16.21a13.74 13.74 0 0112.12-4.72s7.71 3.46 2.52 14.17a6.87 6.87 0 017.55 2 5.52 5.52 0 010 6.77s-9.29 12.6-23.77 20.31a9.62 9.62 0 01-11.47 1.61z"/><path class="cls-2" d="M1238.81 270.91c-.07.41-.65.71-1.7.83a4.67 4.67 0 01-2.19-.28 3.11 3.11 0 01-1.19-.89 2 2 0 00-.72-.6 4.06 4.06 0 01-.54-.39l-.64-.53c-.39-.38-.76-.81-1.13-1.25s-.67-.92-1-1.41-.58-1-.81-1.51a46.35 46.35 0 01-2.39-6.45c-.67-2.16-1.28-4.27-2-6.05-.17-.45-.37-.84-.54-1.26s-.39-.73-.58-1.07l-.29-.43c-.1-.15-.17-.27-.33-.48l-.79-1a13.85 13.85 0 00-2.51-2.59 6.75 6.75 0 00-1.23-.74 3.59 3.59 0 01-1.49-1.39 6.62 6.62 0 01-1.14-2.32 2.32 2.32 0 011.29-2.5 4.77 4.77 0 014.18 0 13.32 13.32 0 012.6 1.57 19.75 19.75 0 013.71 3.91l.87 1.2c.13.17.31.47.48.73l.5.83c.28.55.56 1.12.81 1.68s.46 1.14.64 1.71a60.12 60.12 0 011.72 6.74c.47 2.18.9 4.25 1.42 6 .12.46.28.83.41 1.24s.3.72.43 1.08.32.59.47.89l.25.35a2 2 0 00.35.47 7 7 0 01.58.74 2.37 2.37 0 01.2.35.63.63 0 01.07.19 1.14 1.14 0 00.15.45 2.39 2.39 0 00.83.75c.84.52 1.33.96 1.25 1.43z"/><path class="cls-2" d="M1236.85 269.45c-.63.21-1.77-1.38-2.55-4.19a29.35 29.35 0 01-.49-10.62 72.15 72.15 0 012.19-10.54c.81-2.89 1.45-4.94 1.59-5.39a3.21 3.21 0 013.71-2.46c1.49.43 2.26 2.31 1.68 4.14-.14.46-.76 2.52-1.62 5.34s-1.88 6.32-2.61 9.76a54.77 54.77 0 00-1.12 9.37c-.04 2.55 0 4.34-.78 4.59z"/><path class="cls-2" d="M1239.48 271.29c-.37.18-1-.14-1.65-1a9.11 9.11 0 01-1.61-4.28 12.64 12.64 0 011.12-6.65 22.5 22.5 0 014.33-6.13 43.83 43.83 0 015.47-4.73 86.63 86.63 0 015.18-3.57c3.18-2 5.61-3.31 6.14-3.6 2.16-1.13 4.61-.55 5.42 1.19s-.19 3.93-2.19 5c-.5.27-2.77 1.49-5.79 3.32a81.31 81.31 0 00-10 6.94 21.8 21.8 0 00-3.83 4.18 11.42 11.42 0 00-1.71 4.12c-.47 2.59.04 4.78-.88 5.21z"/><path class="cls-13" d="M1461.47 442.49s-40.09-7.4-44-17.43c0 0-.87-8.28 12.64-4.79 0 0-10.67-9.37-10.67-10.68 0 0-3.06-7.19 4.13-6.32 0 0 12 3.27 14.17 6.54 0 0-6.1-12.64-3.71-15.47 0 0-.43-1.52 2.62-2s12.42 5.67 13.07 10.46c0 0-5.88-17.87.22-22.66s11.55 7.19 13.29 12.2l4.79-25.27s.44-4.14 3-3.71c0 0 3.92 0 4.36 7l-1.31 35.07 8.5-17.43s2.61-4.57 5.45-4.57 6.1 1.09 5.23 5.66c0 0-2.4 13.29-5.67 18.74 0 0 9.81-5.88 11.55-4.58 0 0 6.75-2.17 8.06 1.31a9.52 9.52 0 01-1.74 9.59s-13.46 15.73-21.2 19.55a8.23 8.23 0 00-1.24.76c-2.65 1.95-13.07 8.97-21.54 8.03z"/><path class="cls-2" d="M1490.48 417a59.85 59.85 0 00-9.31 4.67 73.26 73.26 0 00-6.15 4.16 75.234 75.234 0 00-4.28 3.47l-.07.05-.73.56 1.32-1.95c.29-.42 2.45-3.69 5-6.94s5.39-6.48 6.14-7.48c.89-1.2 1.18-2.53.62-3.44s-2-.87-3.27.1a79.69 79.69 0 00-6.58 6.57 92.93 92.93 0 00-6.37 7.88c0-.35.08-.62.12-.82.1-.4.59-4 .65-4.46.1-.7.77-6 1.56-11.62s1.67-11.39 1.8-13.07c.16-2-.3-3.64-1.27-4.11s-2.22.78-2.78 2.79c-.25.88-1.41 6.16-2.52 12-1.09 5.67-2.12 11.84-2.54 14.89-.28-1.78-.64-4.2-.94-6.7-.57-4.57-.94-9.37-1.16-10.73-.27-1.64-1-2.88-2.1-3.1s-2 1-2.14 2.73c-.06.76-.09 5.26.2 10.18.1 1.77.24 3.58.4 5.3-.89-1.41-1.75-2.8-2.46-4-.85-1.44-1.49-2.6-1.81-3.1a4.63 4.63 0 00-1.36-1.39 2.22 2.22 0 00-1.57-.38 1.43 1.43 0 00-1.13 1 3.15 3.15 0 000 2c.11.33.53 1.46 1.21 3s1.62 3.35 2.64 5.22l2.94 5.4c.9 1.65 1.59 3.06 2 3.95-.25-.34-.47-.61-.55-.7s-.29-.36-.64-.73l-.6-.64-.72-.71c-1-1-2.42-2.31-3.89-3.56s-3-2.44-4.33-3.38l-.94-.65a8.71 8.71 0 00-.89-.56 5.43 5.43 0 00-1.38-.59 2.6 2.6 0 00-1.14 0 1.6 1.6 0 00-1.22 2 6.89 6.89 0 00.48 1.22 1.6 1.6 0 01.12.45v.16a.06.06 0 000 .08 3.11 3.11 0 00.29.18l.38.27.24.2.37.31c1.06.9 2.4 2.09 3.76 3.38s2.72 2.68 3.89 3.95l.84.91.66.76c.4.48.73.93 1 1.27v.06c.2.39.66 1.13 1.27 2.16a39.66 39.66 0 002.32 3.51c.89 1.19 1.27 2.37 2.14 3.06.71.14 1.47.33 1.47.33a15.75 15.75 0 007.58-.22c1-1.15 1.81-3.17 2.86-4.31 1.26-1.36 2.39-2.49 2.84-2.88.28-.19 2.43-2.11 2.74-2.37a86.22 86.22 0 017.3-5.85c1.84-1.31 3.78-2.57 5.42-3.55s3-1.72 3.55-2.09c1.38-.88 2.24-2.05 2.07-3.11s-1.66-1.56-3.35-.99z"/><path class="cls-8" d="M1862.48 608.36s-11.87-4.67-14-1.58c0 0-2.86 1.16-3.26 23.5 0 0-2.16 43.53-.62 47.24 0 0 9 21.92 43.22 30 0 0 28.41 6.79 52.49-10.81 0 0 18.53-19.76-7.41-30.26l-32.73-42.61z"/><path class="cls-13" d="M1849.22 661.66s0-111.15-4.94-121-13.58-11.11-21-9.88-44.46 1.24-58-34.58c0 0-6.25-93.17-5.86-103.12.3-8 2.16-25.32 2.16-25.32s3.7-27.17 28.4-24.7 25.94 18.53 25.94 18.53 4.52 91.56 9.26 95.71c4.94 4.32 13 14.2 20.38-3.09 0 0 1.23-159.31 8.64-196.36 0 0 16.06-55.58 61.75-23.47 0 0 8.65 8.65 8.65 30.88 0 0 6.17 171.66 4.94 189l4.94 212.42s-8.65 18.53-32.11 24.7c-.04-.08-54.37 9.8-53.15-29.72z"/><path class="cls-9" d="M1755.27 338l5.57.24 4.27.19c.41 0 3.43.21 3.77.34a7.94 7.94 0 00.86.05 41.65 41.65 0 01-3.54-4.56v-.09c-1-1.15-2.46-3.06-4.05-5.16-.68-.9-1.39-1.83-2.11-2.76-1-1.23-1.93-2.44-2.88-3.51a29.49 29.49 0 00-4.5-4.3c-1.24-.91-2.12-1.34-2.37-1.52a2.16 2.16 0 01-.71-.78 4.34 4.34 0 01-.5-1.13 6.1 6.1 0 01-.13-2.93c.42-2 1.95-3.36 3.84-3.06a14 14 0 014.43 2 34.28 34.28 0 015.54 4.54l.6.6c2 2 3.78 4.1 5.15 5.69l2.53 3c.3.37 2.52 2.95 2.72 3.31a26.69 26.69 0 002 2l-.26-.75c-.94-2.7-1.93-5.82-2.63-8.47s-1.19-4.84-1.37-5.93v-.15c-.52-2-1.25-5.07-2-8.71l-.18-.94c-.76-4.05-1.45-8.7-1.93-13.2a98.94 98.94 0 01-.7-11.83l-1.13-2.58c-.66-1.48-1.28-2.93-1.87-4.29-2.49-5.81-3.93-9.18-5.91-9.82a9.48 9.48 0 00-6.07-3.29 6.33 6.33 0 00-5.33 1.93c-1.51.78-2.31 2.52-2.15 4.71a9.91 9.91 0 00.06 2.83 11 11 0 002.61 5.68c1.45 3.85 3.54 8.29 5.42 12.17.79 1.62 1.55 3.12 2.2 4.42.86 1.72 1.61 3.21 1.91 3.91.53 1.38 2.62 5.78 3.52 7.66.08.19.27.57.53 1.11a254.417 254.417 0 013.76 8.06c-1.73-2.12-3.32-4.1-4.62-5.7l-2.21-2.74c-1.17-1.85-5-7.08-8.77-11.92-5.64-7.14-8.24-9.42-10.16-8.7a6.08 6.08 0 00-5.61 1.32 9.57 9.57 0 00-3.1 5.18 5.8 5.8 0 00-.06 5 9.48 9.48 0 00.77 2.19 6.92 6.92 0 003.39 3.35c2.1 2.59 4.78 5.74 7 8.29 1.85 2.17 3.46 4.06 4.06 4.85.94 1.43 4.24 5.38 4.27 5.42l.15.17c3.65 4.22 7.3 8.24 10.62 11.69v1c-4.32-2.14-7.85-4.23-9-4.89l-.07-.06c-.5-.38-1.37-1-2.47-1.8-2.13-1.54-5.06-3.64-7.84-5.76l-.89-.67c-5.07-3.8-7.88-5.91-9.69-4.89a5.63 5.63 0 00-4.88 2.23 9.07 9.07 0 00-1.89 5.51 5.6 5.6 0 00.94 4.6 9.18 9.18 0 001.16 1.9 6.56 6.56 0 003.68 2.35c.67.54 1.39 1.07 2.14 1.62l1.41 1.06c1 .7 2 1.39 3 2.06l4.81 3.14c.49.3.91.55 1.25.77a4 4 0 012.59-1.45c1.37-.35 6.31-.05 11.05.2z"/><path class="cls-9" d="M1834.72 337.46a9.12 9.12 0 00-2.47-4.85A3 3 0 001829 331a5 5 0 00-1.53.1 5.54 5.54 0 00-3.2 2.32c-1.86.94-4.4 2.2-6.7 3.09a38.15 38.15 0 01-5 1.72c-.36.05-1.16.21-3.06.61-.86.18-1.64.35-1.9.39l-.38.08c-1.84.37-3.6.66-5.32.91l.06-.18a137.21 137.21 0 0013.62-11.86A80.22 80.22 0 001826 317.3c6.74-8.43 7.25-11.82 6.88-13.42a9.91 9.91 0 00-1.2-6.66 6.05 6.05 0 00-4-3 2.78 2.78 0 00-3.51.58 6.35 6.35 0 00-1.42 1.08 8.76 8.76 0 00-2.27 4.14c-.44.64-.92 1.31-1.42 2l-1 1.46c-.87 1.18-1.77 2.35-2.63 3.47l-3.05 3.78c-.79.91-1.34 1.52-1.64 1.82-.67.61-3.41 3.4-4.18 4.18 3.91-1.63 7-2.76 7.61-3 1.76-.48 3.43.78 3.76 2.87a5.78 5.78 0 01-2.14 5.42c-1.32 1.06-6.28 3.61-10.79 6.25-.51.3-1 .6-1.51.91-1.68 1-3.22 2.08-4.45 3-1.58 1.17-2.62 2.08-2.87 2.29s-.9.74-1.58 1.37-1.35 1.25-1.52 1.32a23.89 23.89 0 00-2.93 3.68 33.84 33.84 0 00-3.09 5.86 3.37 3.37 0 01-.41 2.49 2.07 2.07 0 01-.73.68c-.35.58-.85.65-1.52.4a5.29 5.29 0 01-3.12-.95c-1 .92-3.76 1.24-6.69 1.22a43.8 43.8 0 01-8.35-.85l-.2-.05h-.09c-2.52-.15-7.93-.83-12.89-1.67s-9.48-1.77-10.23-2a3.72 3.72 0 01-2.27-2.92l-.25-.05c-1-.2-1.87-.37-2.64-.5-1.3-.22-3.17-.54-4.33.71a7.17 7.17 0 00-4 3.69 9.75 9.75 0 00-.92 5.91 4.9 4.9 0 001.81 4.24 7.08 7.08 0 001.5 1.41 5.21 5.21 0 004.14.82 44 44 0 008.51 1.48c1.86.14 3.49.18 4.69.2h1.29a21.53 21.53 0 002.54.12h.27c1 0 2.11 0 2.58-.07h.42c.63-.05 2.32-.18 4.54-.45s5-.69 8.85-1.31c2.93-.48 6.29-1 9-1.38h.18c.45.07.9.14 1.36.19a17.26 17.26 0 009.86-2.06c1 .09 2 .17 3 .23 1.37.07 2.69.1 3.95.1 2.65 0 5-.13 6.68-.27 1.87-.17 3.32-.34 4.49-.53 1.33-.18 2.49-.42 3.3-.59a46.27 46.27 0 0012.32-3.08c8.4-3.31 9.92-6.19 10.11-7.83a10.08 10.08 0 00.92-6.57z"/><path class="cls-9" d="M1777.23 301.77c.84 3.74 1.56 6.46 1.71 7s1.46 5.54 1.55 6.13.59 2 1.18 3.7c.16-.41.31-.75.43-1l.06-.12a65.83 65.83 0 013.31-7.82c1.09-2.22 2.37-4.53 3.7-6.75-.15-.07-.29-.15-.44-.21.13-.93.26-1.8.38-2.58l.33-2.28v-.06c.59-2.3 2-9.41 3.19-16.32 1.54-9.21 1.93-14.43-.23-16.09a8.07 8.07 0 00-4.78-4.72 7.78 7.78 0 00-5.73.19 4.2 4.2 0 00-3.45 2.75 9 9 0 00-1.18 2.13 9.3 9.3 0 00-.31 5.66c-.65 4.1-1.3 9.17-1.83 13.29-.16 1.27-.31 2.44-.44 3.44.22 1.47.46 3 .71 4.46.61 3.33 1.24 6.52 1.84 9.2zM1803.34 288.88a6.92 6.92 0 01-.09 6.31c-.82 1.8-4.29 7.44-7.22 13.05l-.07.12c-1.47 2.83-2.8 5.64-3.73 7.86s-1.5 3.82-1.62 4.19-.49 1.33-.86 2.39-.7 2.12-.79 2.33a21.16 21.16 0 00-.59 2.45 19.36 19.36 0 011.79-1.37h.09a41.3 41.3 0 015.66-4.13 59.66 59.66 0 015.93-3.18c-.13-.41-.27-.81-.41-1.2 3-5.83 5.76-11.11 7.34-14.31a.35.35 0 010-.08c.15-.24 14.59-25.75 14-32a4.22 4.22 0 00-.33-1.28 8.48 8.48 0 00-2.82-6.6 6 6 0 00-5.24-1.23 3.87 3.87 0 00-3.64 2 9.56 9.56 0 00-1.55 1.84 11.33 11.33 0 00-1.82 5.39l-1.26 2.87c-2.11 4.7-4.55 10.23-6.11 13.7a2.41 2.41 0 013.34.88z"/><path class="cls-2" d="M1742.79 346c.75.26 5.26 1.21 10.23 2s10.37 1.52 12.89 1.67h.09l.2.05a43.8 43.8 0 008.35.85c2.93 0 5.68-.3 6.69-1.22a5.29 5.29 0 003.12.95c.67.25 1.17.18 1.52-.4a2.07 2.07 0 00.73-.68 3.37 3.37 0 00.41-2.49 33.84 33.84 0 013.09-5.86 23.89 23.89 0 012.93-3.68c.17-.07.82-.73 1.52-1.32s1.41-1.21 1.58-1.37 1.29-1.12 2.87-2.29c1.23-.9 2.77-1.95 4.45-3 .49-.31 1-.61 1.51-.91 4.51-2.64 9.47-5.19 10.79-6.25a5.78 5.78 0 002.14-5.42c-.33-2.09-2-3.35-3.76-2.87-.63.21-3.7 1.34-7.61 3-.92.38-1.89.8-2.88 1.23-.6.27-1.21.55-1.81.84a59.66 59.66 0 00-5.93 3.18 41.3 41.3 0 00-5.66 4.13h-.09a19.36 19.36 0 00-1.79 1.37 21.16 21.16 0 01.59-2.45c.09-.21.44-1.26.79-2.33s.76-2.13.86-2.39.69-2 1.62-4.19 2.26-5 3.73-7.86l.07-.12c2.93-5.61 6.4-11.25 7.22-13.05a6.92 6.92 0 00.09-6.31 2.41 2.41 0 00-3.34-.81 4.18 4.18 0 00-1.16.94c-.65.77-4.3 5.55-8.07 11.47-.53.83-1 1.68-1.57 2.55-1.33 2.22-2.61 4.53-3.7 6.75a65.83 65.83 0 00-3.31 7.82l-.06.12c-.12.25-.27.59-.43 1-.59-1.69-1-3-1.18-3.7s-1.4-5.45-1.55-6.13-.87-3.28-1.71-7c-.6-2.68-1.26-5.87-1.82-9.18-.25-1.49-.49-3-.71-4.46-.37-2.46-.67-4.83-.82-6.89a60.34 60.34 0 01-.12-7.09 17.44 17.44 0 00-.35-3.88 5.65 5.65 0 00-1.34-2.81 1.68 1.68 0 00-2.41.08 7.48 7.48 0 00-2.15 4 40.88 40.88 0 00-.85 7.53v1a98.94 98.94 0 00.7 11.83c.48 4.5 1.17 9.15 1.93 13.2l.18.94c.7 3.64 1.43 6.73 2 8.71v.15c.18 1.09.66 3.28 1.37 5.93s1.69 5.77 2.63 8.47l.26.75a26.69 26.69 0 01-2-2c-.2-.36-2.42-2.94-2.72-3.31l-2.53-3c-1.37-1.59-3.17-3.68-5.15-5.69l-.6-.6a34.28 34.28 0 00-5.54-4.54 14 14 0 00-4.43-2c-1.89-.3-3.42 1-3.84 3.06a6.1 6.1 0 00.05 2.98 4.34 4.34 0 00.5 1.13 2.16 2.16 0 00.71.78c.25.18 1.13.61 2.37 1.52a29.49 29.49 0 014.5 4.3c1 1.07 1.92 2.28 2.88 3.51.72.93 1.43 1.86 2.11 2.76 1.59 2.1 3.06 4 4.05 5.16v.09a41.65 41.65 0 003.54 4.56 7.94 7.94 0 01-.86-.05c-.34-.13-3.36-.32-3.77-.34l-4.27-.19-5.57-.24c-4.74-.22-9.68-.52-11.12-.35a4 4 0 00-2.59 1.45 5.09 5.09 0 00-1 2.14 4.44 4.44 0 000 1.85 3.72 3.72 0 002.31 2.92zM1796.73 448.93s-2.58-16.25-7.73-19.6-7.23-1-7.49 1.29 2.58 20.89 7.23 22.7 8.51 1.8 7.99-4.39zM1910.68 320.79s-4.9-5.93 19.61-23.21c0 0 13.67-4.65 7.48 9l-18.83 15.22s-4.65 5.44-8.26-1.01zM1800.46 402.3s-4.9-5.93 19.6-23.21c0 0 13.68-4.65 7.48 9l-18.83 15.22s-4.64 5.44-8.25-1.01zM1874.61 215s-3.81 2.67-2.43 6.36 3.57 15.08 5.89 16.38 4.31 4 7.9 1.48.61-9.79.61-9.79l-5.58-12.95s-3-3.89-6.39-1.48zM1862.68 271.13a7.12 7.12 0 00-2.2-4.72c-2.54-2.46-7.52-6.62-11.72-6.26 0 0-7.48-1-6.71 5.42 0 0 2.58 5.42 7.48 6.45 0-.02 13.68 8.46 13.15-.89zM1769.13 389.69a7.16 7.16 0 00-2.2-4.72c-2.54-2.46-7.52-6.62-11.72-6.26 0 0-7.49-1-6.71 5.42 0 0 2.58 5.42 7.48 6.45.02 0 13.68 8.47 13.15-.89zM1888 412s-10.84-14.19-14.45-15.22c-3.31-.95-7.22 3.09-5.42 8.25 0 0 6.45 15.22 17.29 16-.03-.03 7.45.97 2.58-9.03zM1891.53 664s3.64-17.48 2.06-20.88c-1.45-3.12-7.07-3.44-9.79 1.3 0 0-7.29 14.84-.78 23.54-.02-.05 4.12 6.28 8.51-3.96zM1934.92 407.06s-5.43-3.71-11.47 9.41a14.55 14.55 0 01-.89 1.65c-1 1.61-4.92 7.52-3.64 10.35 2.58 5.67 3.94 3.88 6.45 4.12 2.68.26 5.4-4.86 6.71-7.22 2.58-4.64 6.92-14.7 2.84-18.31zM1931.63 248.83s-2.63-2.53-5.52.91l-10.77 13.86s-3.13 4.95.33 7.22c0 0 3.83 3.8 8.16-1.35 0 0 14.43-16.32 7.8-20.64zM1906.49 562.67l6.5-9.44s2.75-2.92 5.33-1.2 3.1 3.44 2.41 5-6.71 11.35-6.71 11.35a6.18 6.18 0 01-5.85 1 4 4 0 01-2.48-3.78 4.54 4.54 0 01.8-2.93zM1753.66 459.85l6.5-9.43s2.75-2.92 5.33-1.2 3.09 3.44 2.41 5-6.71 11.35-6.71 11.35a6.17 6.17 0 01-5.85 1 4.06 4.06 0 01-2.48-3.79 4.58 4.58 0 01.8-2.93zM1795.79 493.81l7.88-11.45s3.34-3.55 6.48-1.46 3.76 4.17 2.92 6.05-8.14 13.78-8.14 13.78a7.5 7.5 0 01-7.1 1.26 4.92 4.92 0 01-3-4.59 5.58 5.58 0 01.96-3.59zM1867.11 587.5s-.18-5.5-1.38-8.25 1.38-7.06 1.38-7.06 3.78-2.75 5.33 1 3.78 10 4 11.86 1.38 6.88.52 7.91-3.61 3.44-6 2.58-3.68-3.54-3.85-8.04zM1895.33 340.49s-4.9-2.07-10.06 14.7c0 0-3.35 10.32 3.1 10.58 0 0 6.45 2.32 8.51-8 0 0 4.13-10.83 3.1-13.93.02 0-1.29-4.9-4.65-3.35zM1946.35 527.26c-6.45-1.86-27.39-8.51-31.15-17.45 0 0-3.54-10.47 6.25-9.11l27 16.83s5 4.8 2.38 8.33a4.1 4.1 0 01-4.48 1.4zM1932.28 619.36c1.23 0 15.74-2.77 17 2.78s1.54 7.72-1.24 8.65-13 3.39-17.29 2.16-9.31-6.22-7.1-8.65c3.07-3.39 3.35-4.94 8.63-4.94zM1834.24 506.9s6.8-23.3 32.24-26.47c0 0 25.77-1.91 29.67 13.24 0 0-.16 10.75-14.24 22.12a30.36 30.36 0 01-20.11 6.85c-9.34-.3-21.95-3.22-27.56-15.74z"/><path class="cls-6" d="M1862.29 523.18a29.93 29.93 0 0010.78-1.65 18.38 18.38 0 00-.55-5.07 18.15 18.15 0 00-34.06-3.08c6.4 7.55 16.2 9.55 23.83 9.8z"/><ellipse class="cls-8" cx="1423.05" cy="570.77" rx="27.27" ry="11.15"/><path class="cls-13" d="M1419.57 576s-25.77 1.49-30.73-38.16c0 0 5-40.14 20.32-40.63 0 0 12.88-.5 21.31 8.42 0 0 6-14.37 14.37-14.37a16.66 16.66 0 0114.37 13.88s1.49 18.83-14.37 28.24c0 0 0 24.78-5.45 31.23 0-.03-9.39 13.39-19.82 11.39z"/><path class="cls-1" d="M1442.72 491.54a13 13 0 00-5.5 3.57 54.64 54.64 0 00-1.47 5.68c-.87 4.48-1.28 10.34 1.79 12.85a1.78 1.78 0 01-2.25 2.75c-3.14-2.57-4.29-7.14-3.45-13.62-.89 1.67-1.37 2.83-1.37 2.83a26.6 26.6 0 00-12.12-7.12c8.22 7.44 15.57 30.91 17.82 38.65a192.06 192.06 0 015.06 21.46c.11.67.21 1.3.3 1.9 2.68-7.57 3.19-20.64 3.29-25.36a1.78 1.78 0 01-1.23-.52c-6.52-6.52-2.82-32.13-.87-43.07z"/><path class="cls-1" d="M1426.91 520.74c-6.72-17.18-11.24-20.34-12.87-20.89a1.78 1.78 0 01-1.11-2.26 1.11 1.11 0 01.09-.19 27 27 0 00-3.86-.22 8.79 8.79 0 00-3.36.78c9.87 6.74 22.65 55.74 25.07 75a37.19 37.19 0 007.64-7.2 90.87 90.87 0 00-2.34-14.44 224 224 0 00-9.26-30.58zM1455.83 521.41a34.83 34.83 0 003.38-16.3 17.19 17.19 0 00-4.38-8.88c.8 7.08 1.63 17.19 1 25.18zM1397.06 507.94a73.47 73.47 0 00-4.78 13c1.1 11.39 5.6 40.67 23.26 54.65a20.15 20.15 0 002.25.31c-6.79-9.73-12.35-24.33-16.56-43.46a269.435 269.435 0 01-4.17-24.5z"/><path class="cls-1" d="M1417.29 530.29c-6.19-19.82-11.15-28.26-13.72-29.54a1.87 1.87 0 01-.79-.81 19.63 19.63 0 00-2.87 3.22 1.78 1.78 0 01.28.79c0 .5 4.78 50 22.1 72.09a.67.67 0 00.07.11 14.55 14.55 0 005.47-1.47 1.74 1.74 0 01-.44-1c-1.32-10.86-5.39-28.3-10.1-43.39zM1390 530.82c-.8 4.17-1.15 7-1.15 7 2.62 20.94 11 30.4 18.4 34.67-6.6-7.66-11.74-18.31-15.08-31.38-.95-3.67-1.65-7.11-2.17-10.29zM1450.9 493.23a17.92 17.92 0 00-4.57-1.74c-2.68 14.76-4.74 36.1-.23 40.61a1.76 1.76 0 01.24.3 27.91 27.91 0 004.6-3.91c2.76-7.07 1.31-24.71-.04-35.26z"/><path class="cls-2" d="M1392.28 521c-1 3.6-1.75 7-2.29 9.87.53 3.14 1.23 6.62 2.17 10.28 3.34 13.07 8.48 23.72 15.08 31.38a26.4 26.4 0 008.3 3.12c-17.66-14.03-22.16-43.31-23.26-54.65z"/><path class="cls-2" d="M1400.19 504a1.78 1.78 0 00-.28-.79 34.89 34.89 0 00-2.85 4.78c.59 4.87 1.88 14.08 4.17 24.51 4.21 19.13 9.77 33.73 16.56 43.46a13.21 13.21 0 001.78.06 11.46 11.46 0 002.79.18.67.67 0 01-.07-.11c-17.29-22.17-22.06-71.64-22.1-72.09zM1405.8 498a11.82 11.82 0 00-3 2 1.87 1.87 0 00.79.81c2.57 1.28 7.53 9.72 13.72 29.54 4.72 15.09 8.78 32.53 10.1 43.42a1.74 1.74 0 00.44 1 22.83 22.83 0 003-1.75c-2.4-19.32-15.18-68.32-25.05-75.02zM1436.17 537.13c-2.25-7.74-9.6-31.21-17.82-38.65a34.45 34.45 0 00-5.33-1.08 1.11 1.11 0 00-.09.19 1.78 1.78 0 001.11 2.26c1.63.55 6.15 3.71 12.87 20.89a224 224 0 019.26 30.55 90.87 90.87 0 012.34 14.44c.57-.71.88-1.15.88-1.15a13.45 13.45 0 002.14-4.09c-.09-.6-.19-1.23-.3-1.9a192.06 192.06 0 00-5.06-21.46zM1435.29 516.39a1.78 1.78 0 002.25-2.75c-3.07-2.51-2.66-8.37-1.79-12.85a54.64 54.64 0 011.47-5.68 33.81 33.81 0 00-5.38 7.66c-.84 6.48.31 11.05 3.45 13.62zM1446.33 491.49a12.25 12.25 0 00-1.49-.26 7.55 7.55 0 00-2.12.31c-2 10.94-5.65 36.55.87 43.07a1.78 1.78 0 001.23.52v-1.78c.52-.3 1-.62 1.5-1a1.76 1.76 0 00-.24-.3c-4.49-4.46-2.43-25.8.25-40.56zM1450.94 528.49a28.31 28.31 0 004.89-7.08c.63-8-.2-18.1-1-25.18a16.18 16.18 0 00-3.93-3c1.35 10.55 2.8 28.19.04 35.26z"/><path class="cls-6" d="M1461.24 487.15c-.76-1.2-3.46-1.5-5.2.47l-4.3 6.38 2.34-11.35a2.51 2.51 0 00-.39-1.94 2.74 2.74 0 00-1.78-1.15c-1.47-.27-2.05.64-2.34 2.05l-.75 4-1.33-10.4a2.36 2.36 0 00-2.78-2.11 2.76 2.76 0 00-1.87 1 2.51 2.51 0 00-.53 1.9l2.18 12.37-3.33-5.7c-.61-1.29-2.63-2.5-4-1.94a2.7 2.7 0 00-1.47 1.5c-.21.53.45 4.61.87 6.49a23.49 23.49 0 001.61 3.11l7.23 8.37a.67.67 0 00.06.12 1.08 1.08 0 00.11.18l.1.15a1 1 0 00.13.16 1.05 1.05 0 00.15.15l.12.12.15.11.11.08.09.06.19.1.12.07.23.08.14.05.26.06h.12a2.6 2.6 0 00.4 0 2.31 2.31 0 00.37 0l.33-.06a1.72 1.72 0 00.4-.14.38.38 0 00.13-.06l.13-.06 7.82-5.74a14.4 14.4 0 003.12-3.93c.2-.61 1.44-3.95 1.06-4.55z"/><path class="cls-2" d="M1442.14 497.29s-.77-5.4 0-6.06c0 0 1.21-1.54 1.77.11l2.2 7.05s.44-8.59.77-9.91c0 0 .66-2.1 1.65-1.11 0 0 1.32 1.33.88 10.47 0 0 2.42-3.64 3.42-3.53 0 0 1.87-.33 1.87 2.09 0 0-1.43 3.64-2.2 4.08 0 0-6.83 4.52-10.36-3.19z"/><path class="cls-6" d="M1401.71 493.36s-8.14-10.33-11.32-5.95c0 0 1 5.39 8.47 10.87 0 0-12.21-1.59-11.81-.46 0 0-3 2.32.31 4.66 0 0 9 1.44 17.52 1.89 0 0 5.28 3 12.9-4.65 0 0 9.06-7.49 6.86-10 0 0-3.64-4.26-11.82 4.55 0 0 7.73-16.45 1.78-17 0 0-4.51-1.23-6.53 10.5 0 0-1.26-12.28-5.85-10.28 0-.04-5.92 1.19-.51 15.87z"/><path class="cls-2" d="M1410.65 504.48l.77-6.94a4 4 0 00.22-1l.85-4.76a1.33 1.33 0 10-2.55-.76l-1.58 8.14h-.06l-3-13a1.33 1.33 0 00-1.83-.92 1.39 1.39 0 00-.74 1.6l2.89 12.56h-.05l-3-3.91a2.24 2.24 0 00-2.19-.52 1.34 1.34 0 00-.36 2l3.32 3.61a2.66 2.66 0 01.66 1.43l.33 2.15c.35.65 1.15.62 1.86.82l1.48.11a8.23 8.23 0 003-.65z"/><path class="cls-8" d="M1024.77 636c.66-3.89 11-4.84 23-2.25s21.54 7.88 20.88 11.76-11.42 5.5-23.37 2.91-21.17-8.54-20.51-12.42z"/><path class="cls-13" d="M1071.36 613.2a45.78 45.78 0 01-1.32 10.74c-.87 3.65-2.73 6.67-4.38 9.54-1.84 3.18-3.76 6-6.31 7.91a13.82 13.82 0 01-18.1.07 24.65 24.65 0 01-6.9-7.52 38.09 38.09 0 01-3.77-10 40.73 40.73 0 01.08-21.47 36.35 36.35 0 014.16-9.67c1.84-3.18 3.68-6.37 6.23-8.22a16.1 16.1 0 019.27-3.25c3.23 0 6 2.13 8.78 4.11a23.61 23.61 0 016.74 7.34 37.46 37.46 0 013.48 9.89c.81 3.33 2.04 6.78 2.04 10.53z"/><g clip-path="url(#clip-path)"><path class="cls-2" d="M1045.55 640.19c-.94-2.72-2.09-6.18-3-9.21l-1.23-4.1c-.33-1.16-.57-2.06-.69-2.56s-1.24-5.39-1.4-6.06c-.1-.47-.57-2.51-1.14-5.4-.26-1.44-.62-3.09-.87-4.87-.13-.89-.28-1.81-.42-2.75s-.22-1.9-.34-2.86l-.17-1.45c0-.48-.08-1-.12-1.45-.07-1-.15-1.92-.22-2.86s-.07-1.87-.1-2.77-.08-1.76-.06-2.58 0-1.6 0-2.33 0-1.4.06-2c.06-1.2.1-2.15.1-2.73v-2a9.94 9.94 0 00-.2-1.65 3 3 0 00-1-2c-.94-.6-2.22 1.29-2.81 4.3 0 .33-.15 1.07-.27 2.13s-.3 2.44-.36 4.05l-.15 2.58v2.85c0 2 .08 4.07.16 6.22a133.84 133.84 0 003.26 21.7v.14c.15 1 .62 3.08 1.21 5.6s1.42 5.45 2.29 8.24c1.73 5.59 3.63 10.58 4.38 10.55h.12c.81 1.26 1.86 2 2.82 1.86a2.25 2.25 0 001.6-1.78c.35-.35.48-1 .22-2a8.4 8.4 0 00-.22-1.61 8.18 8.18 0 00-1.45-3.2z"/><path class="cls-2" d="M1049.76 645.54c-.56-3.15-1.24-7.16-1.71-10.69-.26-1.76-.46-3.4-.61-4.74s-.27-2.39-.3-3c0-.33-.11-1.87-.23-3.43s-.21-3.14-.23-3.52c0-.54-.2-2.89-.38-6.18s-.32-7.56-.36-11.91 0-8.81.12-12.5c0-1.85.12-3.5.16-4.85s.07-2.4.1-3c.07-1.5.14-2.77.3-3.84a8.24 8.24 0 00.24-2.57.6.6 0 00-.65-.48 2.38 2.38 0 00-1.41.64 6.17 6.17 0 00-1.53 2 10.12 10.12 0 00-1 2.76c-.09.42-.24 1.38-.36 2.58s-.22 2.62-.37 4.34c-.25 3.45-.54 7.88-.65 12.53-.29 9.28.08 19.38.45 24v.16c0 2.28.47 9.35 1.4 15.86s2.22 12.41 3 12.51h.12c.67 1.55 1.64 2.58 2.61 2.6.8 0 1.45-.62 1.85-1.66.39-.32.59-1 .44-2.14a11.9 11.9 0 000-1.78 10.35 10.35 0 00-1-3.69z"/><path class="cls-2" d="M1052.82 647.64c.29-6.77 1-17.17 1.24-19.58.12-.67.7-6.48.79-7.28.11-1.14 1-9.84 2.07-18.91a89.55 89.55 0 012.16-12.66 37.62 37.62 0 011.54-4.59c.52-1.24 1-2.15 1.29-2.72q.27-.49.51-1l.49-.91c.29-.62.59-1.13.81-1.66a4.18 4.18 0 00.56-2.46c-.15-.6-.82-.73-1.85-.35a7.26 7.26 0 00-1.68 1 10 10 0 00-.89.85 7.54 7.54 0 00-.88 1 27.69 27.69 0 00-3.5 6.79 67.31 67.31 0 00-3.18 13.27c-1.48 9.52-2.76 19.87-3.24 24.69v.16c-.36 2.33-1.24 9.61-1.71 16.42s-.59 13.11.1 13.46l.11.06c.28 1.77 1 3.1 1.9 3.43.76.27 1.54-.18 2.18-1.11.45-.19.79-.78.93-2a11.63 11.63 0 00.4-1.82 12.1 12.1 0 00-.15-4.08z"/><path class="cls-2" d="M1059.39 646.89a115.47 115.47 0 002.29-11.73c.57-3.83 1-7.08 1.17-8.29.15-.67 1-6.5 1.17-7.28.1-.57.46-3 1.14-6.39a73.72 73.72 0 013.31-11.75 42.19 42.19 0 016-10.81 33 33 0 015.35-5.4c1.14-1 2.16-1.8 2.91-2.59a3.71 3.71 0 001.26-2.11c0-.63-.58-1-1.63-1a8.23 8.23 0 00-4 1.24 28.79 28.79 0 00-5.62 4.55 42.93 42.93 0 00-7.74 11.34 69.76 69.76 0 00-4.81 14.22c-1 4.49-1.66 8.35-2 10.78v.16c-.24 1.17-.67 3.59-1.15 6.52s-1.05 6.37-1.68 9.62-1.31 6.3-1.85 8.59-.88 3.83-.6 4.13l.08.1c-.25 1.71-.09 3.21.65 4s1.47.54 2.41-.12c.49 0 1-.46 1.58-1.68a10.92 10.92 0 00.93-1.74 11.37 11.37 0 00.83-4.36z"/></g><path class="cls-9" d="M1043.74 579.22s-8-4.54-8.45-.45 7.45 5.68 9.26 6.14 4.43 2.27 5.23 1.81 10.87-3 11.67-5.68c0 0 2.62-2.73-.2-4.32 0 0-6.24.91-7.45 1.82 0 0 2.62-6.59 1.21-8.64 0 0-1.21-2.5-2.41-2a8.34 8.34 0 00-4.43 7.5s-1.81-6.14-4.23-5.68c0 0-3 .91-2.61 3a64.61 64.61 0 002.41 6.5z"/><path class="cls-2" d="M1054.1 580.6a.66.66 0 00-.91 0c-.1.09-.27.33-.52.6s-.27.28-.41.43-.31.29-.48.42l-.37.29v-.06a31.48 31.48 0 00.84-3.63c0-.38.1-.75.12-1.11v-1.01-.78-.41a1.17 1.17 0 00-1.2-1 1.07 1.07 0 00-1 .88c0 .2-.09.63-.18 1.17 0 .27-.12.57-.18.87s-.15.62-.24.93c-.36 1.24-.79 2.43-.84 2.59v.06c-.11-.24-.22-.5-.33-.77s-.17-.48-.26-.72-.15-.47-.2-.69c-.12-.43-.17-.78-.22-.94a.8.8 0 00-1-.52 1.38 1.38 0 00-1.11 1.06v.36a4.66 4.66 0 000 .65v.41c0 .14 0 .28.06.42 0 .3.1.6.16.91a20.66 20.66 0 00.92 2.84 14.35 14.35 0 00.53 1.77c.25.69.48 1.31.83 1.21h.06a1.11 1.11 0 00.62.09.82.82 0 00.44.15c.23.22.64-.14 1.09-.55a11.44 11.44 0 001.07-1.08 15.17 15.17 0 001.79-1.72c.17-.2.33-.39.47-.59s.14-.2.2-.3.12-.2.18-.29a3.75 3.75 0 00.25-.48c.06-.13.11-.23.12-.27a1.22 1.22 0 00-.3-1.19z"/><path class="cls-8" d="M1053.48 684.38c.5-3.65 6.91-5.82 15.3-6.6a75 75 0 0117.18.11 77.87 77.87 0 0116.76 4c7.88 3 13.07 7.29 12.57 11s-6.62 6.65-15 7.44c-5 .46-10.91-.54-17.18-1.39a78.75 78.75 0 01-16.73-3.76c-7.91-3.08-13.38-7.18-12.9-10.8z"/><path class="cls-13" d="M1109.05 653.34a35.09 35.09 0 01-7.9 27.28c-6.27 7.62-15.57 12.73-25.33 12.68-9.56 0-18.38-5.14-24.47-12.9a43.38 43.38 0 01-9-26.57 42.93 42.93 0 018.94-26.32c6-7.68 14.71-12.24 24.28-12.19 9.83 0 18.23 4 24.08 11.94 4.65 6.38 7.83 15.3 9.4 26.08z"/><g clip-path="url(#clip-path-2)"><path class="cls-2" d="M1072.14 693.64a110 110 0 01-6.86-9c-.54-.76-1-1.52-1.48-2.23s-.88-1.37-1.25-2c-.73-1.22-1.28-2.18-1.57-2.71-.14-.3-.87-1.75-1.63-3.2s-1.46-3-1.63-3.32-.45-.94-.92-2l-.82-1.76-.94-2.2a125.38 125.38 0 01-4.28-11.74l-1-3.29c-.29-1.09-.57-2.18-.8-3.25a42.18 42.18 0 01-.91-6.07 24.65 24.65 0 01.63-7.93c.07-.39.2-.74.27-1.1 0-.19.08-.36.12-.54s.1-.34.14-.51c.1-.33.16-.66.23-1s.16-.6.22-.89a11.08 11.08 0 00.21-1.53 2.22 2.22 0 00-.22-1.14c-.33-.6-1.15-.59-2.3.07a8.12 8.12 0 00-1.73 1.54 13.66 13.66 0 00-.83 1.15 10.24 10.24 0 00-.71 1.36 8.28 8.28 0 00-.41 1c-.15.47-.39 1.06-.55 1.76a25.86 25.86 0 00-.8 5.3 47.58 47.58 0 001.68 14.17 121.45 121.45 0 004.43 14.18c1.63 4.31 3.37 7.91 4.48 10.17l.07.16c.5 1.12 1.57 3.41 3.08 6.13.75 1.37 1.62 2.83 2.54 4.33s1.92 3 3 4.44a68.33 68.33 0 006 7.42c1.81 1.84 3.13 3 3.58 2.76h.15c1.56 1 3.14 1.36 4.19.77a2.66 2.66 0 001.11-2.7c.25-.52.14-1.23-.63-2.21a10.09 10.09 0 00-.91-1.61 10.52 10.52 0 00-1.4-1.62 9.33 9.33 0 00-1.55-1.16z"/><path class="cls-2" d="M1064.54 685.66l-1.27-2.3c-.44-.81-.8-1.69-1.22-2.56-.87-1.73-1.5-3.62-2.2-5.34-.28-.89-.56-1.74-.81-2.55s-.51-1.54-.67-2.24c-.34-1.37-.6-2.44-.72-3-.06-.33-.32-1.94-.59-3.56-.16-.81-.25-1.63-.34-2.3l-.17-1.38c0-.29-.17-1-.27-2.16s-.27-2.61-.36-4.36a118.87 118.87 0 01-.07-12.64c.22-4.63.77-9.39 1.3-13.25a26.42 26.42 0 011.2-4.82 16.67 16.67 0 011.29-2.77 16.25 16.25 0 012.42-3.24 6.49 6.49 0 001.75-2.17.75.75 0 00-.38-.87 3 3 0 00-1.74-.41 4.85 4.85 0 00-1.32.16 6.43 6.43 0 00-1.48.53 9.1 9.1 0 00-2.83 2.14c-.17.2-.45.53-.8 1s-.71 1-1.07 1.7a24 24 0 00-2.1 5.15c-.29 1-.54 2.11-.75 3.24s-.37 2.15-.57 3.29-.35 2.33-.52 3.55c-.08.6-.16 1.22-.25 1.84s-.13 1.25-.19 1.88c-.29 2.52-.44 5.12-.58 7.67 0 1.27 0 2.54-.08 3.77s0 2.46 0 3.63v1.73c0 .57.08 1.12.11 1.66.08 1.08.13 2.11.22 3.07.23 1.92.39 3.58.61 4.86v.17a60.44 60.44 0 001.16 7c.08.39.17.8.26 1.2s.21.82.33 1.24c.23.83.47 1.69.71 2.57s.58 1.74.88 2.62.61 1.75 1 2.6.74 1.68 1.11 2.5a23.24 23.24 0 001.14 2.35l1.18 2.11.56 1 .59.86a28.49 28.49 0 002 2.58c.55.59 1 .87 1.23.81h.15c1.46 1.26 3 1.8 4.1 1.31a2.71 2.71 0 001.41-2.57c.32-.5.29-1.2-.34-2.25-.19-.53-.39-1.11-.66-1.69a9.26 9.26 0 00-1.1-1.77c-.21-.27-.43-.51-.65-.75s-.39-.63-.61-.84zM1077.52 619a30.28 30.28 0 013.72 4.79 44 44 0 013 5.9 59 59 0 013 9.05c0 .2.16.77.33 1.53s.39 1.71.57 2.67c.42 1.91.74 3.86.84 4.33l.43 2.54c.2 1.32.46 3.07.7 5.13a119.69 119.69 0 01.74 14.89c0 2.73-.18 5.49-.38 8.14s-.5 5.18-.89 7.43a45.69 45.69 0 01-1.37 5.83c-.5 1.59-1 2.78-1.3 3.52-.72 1.77-1.4 3.32-1.87 4.6s-.71 2.29-.42 2.94 1.16.62 2.44-.08a12 12 0 004-4.21 35.12 35.12 0 003.49-8.64 63.27 63.27 0 001.53-7.62c.37-2.74.71-5.64.9-8.64a119 119 0 00-.13-17.75 112 112 0 00-1.87-13.16v-.2a80.86 80.86 0 00-1.73-8c-.47-1.83-1.12-3.82-1.86-5.85a53 53 0 00-2.74-6.08 39.45 39.45 0 00-3.58-5.5 26.86 26.86 0 00-4-4.12c-2.65-2.16-4.89-2.95-5.23-2.69l-.14.09c-2.31-.72-4.22-.3-4.85.7a2.72 2.72 0 00.4 2.94c0 .56.4 1.2 1.47 1.83.2.22.41.44.63.65s.48.4.71.64a9.16 9.16 0 00.85.69c.29.22.56.45.85.65.62.34 1.18.75 1.76 1.06z"/><path class="cls-2" d="M1090.52 615.09a30.88 30.88 0 013.72 4.79 45.14 45.14 0 013 5.9 59 59 0 013 9.05l.32 1.53c.17.76.39 1.71.58 2.67.42 1.91.74 3.86.84 4.33l.43 2.54c.2 1.32.46 3.07.69 5.13a119.52 119.52 0 01.75 14.89c0 2.73-.18 5.49-.38 8.14s-.5 5.18-.89 7.43a43.91 43.91 0 01-1.38 5.83c-.5 1.59-1 2.78-1.29 3.52-.72 1.77-1.41 3.32-1.87 4.6s-.71 2.29-.43 2.94 1.17.62 2.45-.08a12 12 0 004-4.21 34.7 34.7 0 003.49-8.64 62.81 62.81 0 001.54-7.62c.37-2.74.71-5.64.9-8.64a120.34 120.34 0 00-.13-17.75 109.88 109.88 0 00-1.88-13.16v-.2c-.22-1.46-.78-4.41-1.73-8a61.06 61.06 0 00-1.87-5.85 52.93 52.93 0 00-2.73-6.08 39.49 39.49 0 00-3.59-5.5 26.82 26.82 0 00-4-4.12c-2.65-2.16-4.89-3-5.24-2.69l-.13.09c-2.31-.72-4.22-.3-4.86.7a2.75 2.75 0 00.41 2.95c0 .55.4 1.19 1.47 1.83a6.41 6.41 0 00.63.65c.23.21.47.4.71.64a8 8 0 00.85.69c.28.22.55.45.85.65.63.34 1.18.75 1.77 1.05zM1065.51 621.7c.5 7.19 1.31 18.25 1.36 20.83 0 .72.23 6.93.27 7.79.07 1.21.57 10.5 1.09 20.2.27 4.85.59 9.88 1.23 14a47 47 0 002 8.75 12 12 0 002.25 3.93 3.11 3.11 0 002.32 1.26c.66-.08 1-.8 1.1-1.84a13.78 13.78 0 00-.44-4 55.49 55.49 0 01-1.27-6.56 118 118 0 01-.86-13.16c-.24-10.11-.53-21.14-.75-26.23v-.17c.11-5-.55-30.92-2.36-31.46h-.15c-.55-1.81-1.56-3.12-2.76-3.36a2.56 2.56 0 00-2.57 1.45c-.53.26-.89.93-.92 2.28a11 11 0 00-.26 2 10.75 10.75 0 00.72 4.29z"/></g><path class="cls-14" d="M1109.71 609a2.83 2.83 0 00-1.36-1.77 2.87 2.87 0 00-2.28-.24c-.23.07-1 .41-3.14 1.37-2.68 1.2-6.35 2.83-8.5 3.66a21.45 21.45 0 01-4.63 1.48c.46-.79 1.17-2 1.83-3 1.11-1.8 2.36-3.85 3.1-5.23.63-1.17 1.34-2.47 2-3.69 1.11-2 2.08-3.77 2.34-4.43.55-1.4.34-4.06-.69-5.17a2.34 2.34 0 00-1.82-.65 5.12 5.12 0 00-3.4 1.32c-.4.46-2.41 3.19-4.48 6.3s-4.21 6.68-5 8.21l-1.14 1.78a.17.17 0 01-.17 0 3 3 0 01-1-1.65c.12-.4.65-1.93 1.27-3.67 2.38-6.77 4.72-13.51 4.9-15.27a7.8 7.8 0 01.18-.89 3.66 3.66 0 00-.11-2.93 3.55 3.55 0 00-2.43-1.38c-1.59-.32-4.68 1.84-5.34 3.42-.48 1.14-3.68 11.24-5.36 17-.18-.35-.33-.63-.37-.72-.26-.49-2.15-3.88-4.17-7.22l-1.54-2.54c-.6-1-1.12-1.75-1.6-2.39a11.78 11.78 0 00-2.85-2.89 3.11 3.11 0 00-2.41-.46 2.72 2.72 0 00-1.76 1.41 10 10 0 00-.75 3.06c0 .43.33.92 1.75 2.86a31.49 31.49 0 012.42 3.59l4.67 9.36c.31.9 1.33 3.29 2.41 5.66-.27-.2-.47-.37-.58-.47s-.45-.45-1.3-1.24c-.26-.23-.47-.43-.54-.5s-.28-.42-.48-.74a31.37 31.37 0 00-3.15-4.47c-.43-.5-1.07-1.38-1.73-2.32a29 29 0 00-2.53-3.24 11.07 11.07 0 00-2.73-2.07 2.84 2.84 0 00-2.23-.11 3.1 3.1 0 00-1.57 1.49 4.62 4.62 0 00-.47 2 2.33 2.33 0 00.46 1.64s.13.14.25.25a12.68 12.68 0 01.94 1c.74.84 2.25 2.69 3.2 4l1.74 2.44c-1.75-.09-4.06-.06-4.38 0a12.65 12.65 0 00-3.27.34 3.17 3.17 0 00-1.8 1.25 3.53 3.53 0 000 4.14 2.53 2.53 0 001.68 1 5.74 5.74 0 00.78 0h1.28a28.27 28.27 0 013.83.69 56.72 56.72 0 016.94 2.44l.63.26a8.13 8.13 0 001.29.57 15.49 15.49 0 013.86 1.94c1.56 1.18 4.46 1.53 7.06 1.53a25.75 25.75 0 004.29-.33 3.34 3.34 0 001.38-.44c1.24-.49 2.75-1.13 4.09-1.7s2.68-1.14 3.17-1.3c.66-.14 2.85-1 2.9-1 1.13-.47 4.09-1.73 7.08-3.18a66.55 66.55 0 007.79-4.23 3.91 3.91 0 001.55-3.93z"/><path class="cls-2" d="M1074.21 624.63h-.12c-1.12-.47-.08-4 .81-6.33l-.08-.06h-.1c-.31 0-.54-.36-.76-.88a9.21 9.21 0 01-.46-1.59c-.64-.73-1.66-1.89-2.66-3.07a50.66 50.66 0 01-3.31-4.4 2.36 2.36 0 00-2.29-.89 1.6 1.6 0 00-1.17 2.1 15.62 15.62 0 00.83 1.9 27.67 27.67 0 001.9 3.23c1.52 2.25 3.21 4.38 4 5.34.29.54 1.32 2 2.21 3.36s1.66 2.46 2.26 2.4a2.77 2.77 0 01-1.06-1.11z"/><path class="cls-2" d="M1074.72 618.18h.1l.08.06a15.49 15.49 0 01.77-1.76c.21-.63.51-1.58 1.09-2.92a13.33 13.33 0 011.2-2.16c0-.47-.07-1.38-.08-1.54s-.19-2.43-.18-4.71.15-4.67.1-5.37a2.17 2.17 0 00-1.45-1.91 1.61 1.61 0 00-2.09 1 36.53 36.53 0 00-.9 5.21 40.49 40.49 0 00-.24 6.62 18.88 18.88 0 00.24 4.37c0 .23.08.44.12.65a9.21 9.21 0 00.46 1.59c.24.51.47.83.78.87z"/><path class="cls-2" d="M1089.11 607.34a2.07 2.07 0 00-2.41-1.51 18.27 18.27 0 00-2.27.76 15.61 15.61 0 00-4.39 2.52 11.2 11.2 0 00-2 2.23 13.33 13.33 0 00-1.2 2.16c-.58 1.34-.88 2.29-1.09 2.92a15.49 15.49 0 00-.77 1.76c-.89 2.29-1.93 5.86-.81 6.33h.12a2.77 2.77 0 001 1.08 5.37 5.37 0 001 .48 5.68 5.68 0 002.4.37c.49.08.87 0 1.05-.29a1.3 1.3 0 00.46-.4 1 1 0 00-.08-1.2c.4-1.84 1-4.68 1.23-5.3.11-.16.6-1.7.66-1.92s.23-.81.48-1.64a8.5 8.5 0 011.23-2.59c1.18-1.67 3.86-2.87 4.51-3.33a2.33 2.33 0 00.88-2.43z"/><path d="M1624.15 371.8v.12h-5v-.12z" fill="#fefefe"/><path d="M1622 401s-33 10.27-45.27-14.9c0 0-4.48-3.9 7.81-3.9 0 0-8.1-14.46-5.79-18.8 0 0 .29-4.2 13.16.86 0 0-2.16-13.73 1-18.22 0 0 6.76-10.56 12.6 13.1a.15.15 0 00.3 0c-.22-4.46-.42-15.95 3.29-17.11 0 0 3.62.58 5.65 8.1 0 0 6.43-20.25 11.06-21.84 0 0 3-1.73 4.12-1.3s1.3 4.34 1.3 4.34 1.16 10.7.87 13.16c0 0 4-8.24 7.52-9.11a3.81 3.81 0 014.63 2.31s.72 7.23.29 8.83c0 0 9-7.67 12.72-7.52 0 0 3.19-1 5.07 0 0 0 3.18.28 2.74 5.2 0 0-1.88 10.13-2.6 11.28a3.53 3.53 0 014 2.75 7.48 7.48 0 01-.14 4.92s-2.32 9.11-7 15.18c0 0 4.92 0 7.09 3.47 0 0 2.31 3.19-1.88 7.09.13-.05-24.17 22.37-42.54 12.11z" fill="#adce9a" opacity=".8"/><path class="cls-2" d="M1621.93 397.27a2 2 0 01-1.89-1.36 1.55 1.55 0 010-.15c-.08-.3-7.44-28.92-25.94-29.14-.19 4.75.6 18.36 14.86 25.27a2 2 0 11-1.74 3.59c-19.74-9.56-17-30.86-16.94-31.07a2 2 0 011.81-1.71c9.68-.78 18.28 4.62 24.87 15.6a61 61 0 013.24 6.21 31 31 0 013.18-9.22c3.89-7.21 10.47-12.08 19.56-14.49a2 2 0 012.24.94c.26.46 6.24 11.31-3.67 29.09a2 2 0 01-3.49-1.95c6.85-12.3 5.35-20.57 4.28-23.73-21.74 6.83-18.6 28.47-18.42 29.52a.63.63 0 010 .12 2 2 0 01-1.38 2.4 1.77 1.77 0 01-.57.08z"/><path class="cls-2" d="M1605.13 394c-.49.36-2.06-1.14-4.4-3.22a40.1 40.1 0 00-4.15-3.28 23.6 23.6 0 00-5.25-2.69c-1-.36-2-.67-3.08-1.07l-.84-.32-.84-.37c-.42-.19-.84-.38-1.28-.53a17.47 17.47 0 00-5-1 27.12 27.12 0 00-6 .44c-2 .33-4-.18-4.37-1.46s1.18-2.84 3.57-3.24a29.35 29.35 0 017.14-.45 20.87 20.87 0 016.39 1.42c.56.21 1.1.48 1.65.75l.62.31.66.29c.92.38 2 .78 3.07 1.27a23.35 23.35 0 015.88 3.69 25.3 25.3 0 014 4.28c1.93 2.75 2.74 4.81 2.23 5.18zM1626.06 376h-.06a2 2 0 01-1.92-2.06c.31-8.58-6.1-17.75-9.17-21.63-6 9.21-3.54 17.24-3.42 17.6a2 2 0 01-3.8 1.26c-.15-.47-3.7-11.57 5.53-23.34a2 2 0 011.5-.77 2 2 0 011.55.65c.5.55 12.26 13.55 11.8 26.37a2 2 0 01-2.01 1.92z"/><path class="cls-2" d="M1627.14 371.68a2 2 0 01-1.91-1.41c-5.65-18.13 11.87-27 12-27.06a2 2 0 012.61.79c6.59 11.34.88 20.32.64 20.7a2 2 0 01-3.35-2.18c.19-.3 4-6.48.18-14.74-3.73 2.44-12 9.41-8.31 21.3a2 2 0 01-1.31 2.5 1.8 1.8 0 01-.55.1z"/><path class="cls-2" d="M1645.37 377.75a2 2 0 01-1.08-3.69c.15-.09 14-9.05 12.13-21.35-3.39.33-11.15 1.78-13.14 8.27a2 2 0 01-3.82-1.17c1.44-4.7 5.16-8.12 10.77-9.91a27.82 27.82 0 017.81-1.28 2 2 0 011.92 1.5c1.73 6.66-.1 13.52-5.29 19.85a38.17 38.17 0 01-8.24 7.47 2 2 0 01-1.06.31zM1634.33 397.45c-.27-.1-.36-.74 0-1.75a12.88 12.88 0 012.06-3.75c1-1.38 2.25-2.9 3.68-4.54a48 48 0 014.89-4.89 33.27 33.27 0 012.92-2.2 25.74 25.74 0 019.49-3.88 39.36 39.36 0 017.27-.73c2.48 0 4.36 1.23 4.28 2.6s-2 2.36-4.23 2.37a38 38 0 00-6.42.61 24.52 24.52 0 00-5.26 1.57 26.34 26.34 0 00-2.68 1.39 31 31 0 00-2.63 1.77c-3.42 2.55-6.58 5.77-9.11 7.94-1.22 1.07-2.12 2-2.78 2.59s-1.14 1.03-1.48.9z"/><path class="cls-5" d="M698.07 412.55c-28.79-5.18-242.9-23.45-303-10.42s-175.14-50.83-179-33.88c-1.49 6.6-44.23-18.93-63.92 6.51-30.78 39.78-94 152.2-94 152.2 1 20.24 483.41 2.55 598.15 0M2453.47 413.79s48.24-13.75 67.29 3.65 2.54-52.08 29.82-52.74 91.83-40.83 136.24 1.94 128.34 61.71 133.53 61.84 139.28 10.86 139.28 10.86l48.45 91.1-558 1.74z"/><path class="cls-8" d="M1558.41 593.82c-.34.46-.6 1-.91 1.45a19.59 19.59 0 01-4 4.61h-.11l-.09.07a.18.18 0 01-.2.15.2.2 0 01-.2.14.55.55 0 01-.4.25h-.08c0 .06-.06.07-.1.1a12.31 12.31 0 01-1.81.83 1.77 1.77 0 01-.75.19h-.09c0 .06-.06.06-.1 0h-.15c0 .07-.09.07-.15 0h-.09c0 .05-.06.06-.1 0h-.25c0 .06-.09.07-.14 0h-.1a.15.15 0 01-.2 0 .57.57 0 01-.29 0 8.14 8.14 0 01-2 .14 5 5 0 01-1-.09h-.14a.17.17 0 01-.24 0h-.15a.14.14 0 01-.2 0h-.19c-.08 0-.15.05-.2 0h-.1a.09.09 0 01-.15 0h-.15a.42.42 0 01-.39-.07h-.31a11.74 11.74 0 01-1.62-.52c-.08 0-.18 0-.23-.13h-.12a.43.43 0 01-.36-.17 9 9 0 01-1.5-.79c-.49-.29-1-.61-1.47-.92l-.06-.08a7.17 7.17 0 01-1.16-.75 38.27 38.27 0 01-3.59-2.93.33.33 0 00-.38-.1 4.75 4.75 0 00-2.85 2.94c0 .12 0 .26-.13.35v.07a1 1 0 01-.07.47v1.07a.9.9 0 01.09.46v.07a6.59 6.59 0 01.32.84.16.16 0 01.08.15.42.42 0 01.16.27.19.19 0 01.11.16l1 1.06a.28.28 0 01.21.16c.06 0 .1 0 .11.07a.16.16 0 01.15.11.39.39 0 01.22.11 25.09 25.09 0 007.5 3.17 7.06 7.06 0 011 .26h.06a.73.73 0 01.48.09h.07a.71.71 0 01.47.09h.07a.74.74 0 01.36 0 38.23 38.23 0 004.76.5c2.14.09 4.27.27 6.4.38a32.61 32.61 0 006.4-.21 9.44 9.44 0 004.26-1.67 6 6 0 002.19-2.72 6.42 6.42 0 00-.15-4.72 5.94 5.94 0 00-2.68-3.08 31.12 31.12 0 00-4.57-1.83z"/><path class="cls-14" d="M1541 587.45s-10-15-14.81-9.4c0 0 .76 7.48 10.36 15.8 0 0-16.52-3.53-16.1-2 0 0-4.33 2.85-.08 6.41 0 0 12.19 3 23.73 4.55 0 0 6.89 4.71 18.15-4.92 0 0 13.23-9.23 10.49-12.94 0 0-4.5-6.22-16.65 4.9 0 0 12.4-21.62 4.33-23.07 0 0-6-2.17-10.11 13.63 0 0-.35-16.93-6.84-14.7-.05.05-8.28 1.07-2.47 21.74z"/><path class="cls-2" d="M1551.92 603.65l1.84-9.4a5.52 5.52 0 00.4-1.37l1.71-6.42a1.82 1.82 0 00-3.4-1.32l-3.08 11h-.08l-2.64-18.14a1.82 1.82 0 00-2.4-1.46 1.9 1.9 0 00-1.19 2.1l2.56 17.49c0 .05-.05.07-.08 0l-3.71-5.67a3.07 3.07 0 00-2.94-1 1.83 1.83 0 00-.71 2.73l4.13 5.31a3.63 3.63 0 01.75 2l.21 3c.4.92 1.5 1 2.46 1.33l2 .31a10.91 10.91 0 004.12-.56z"/><path class="cls-3" d="M1577.69 680.41c-.66-.39-1.16-.85-.69-1.71a1.21 1.21 0 01.69 1.71z"/><path class="cls-8" d="M1599.11 681.7c.36-2.68 5.05-4.26 11.19-4.83a55.08 55.08 0 0112.56.07 57.74 57.74 0 0112.27 2.92c5.76 2.2 9.56 5.33 9.19 8s-4.84 4.87-11 5.44c-3.66.34-8-.39-12.57-1a56.41 56.41 0 01-12.24-2.75c-5.75-2.21-9.77-5.18-9.4-7.85z"/><path class="cls-11" d="M1632.4 683.2a6 6 0 011.45-1.3 30.36 30.36 0 014.1-2.72 25 25 0 005.26-4.06c2-2 4-4.11 6.11-6 .09-.09.16-.2.3-.18a4.84 4.84 0 01.84-1c2.27-2.32 4.56-4.63 5.75-7.77a9.35 9.35 0 00.66-4.84 15.42 15.42 0 00-.65-2c-.15 0-.19-.18-.26-.3a6.35 6.35 0 00-3-2.49 7.92 7.92 0 00-6 .06 18 18 0 01-1.71.7c-.35.46-.91.59-1.35.92-.19.15-.44.45-.64.28s.08-.43.19-.65a.5.5 0 000-.13c.52-1.8 1.23-3.55 1.67-5.38s.91-3.46 1.24-5.22a9.85 9.85 0 00.12-3.9 6.08 6.08 0 00-4.4-4.92 6.79 6.79 0 00-5.16.63 12.93 12.93 0 00-4 3.64 35.63 35.63 0 00-3.17 5.08 96.69 96.69 0 00-4.53 9.54c-.21.51-.43 1-.66 1.51 0 .11-.1.3-.26.28s-.12-.19-.14-.31c-.12-.6-.22-1.2-.35-1.8a51 51 0 00-2-7.27 20 20 0 01-.82-2.4.06.06 0 010-.06c-.27-.21-.3-.55-.42-.84a11.84 11.84 0 01-.68-1.74.06.06 0 010-.06 1.61 1.61 0 01-.46-.94.08.08 0 010-.07 3.2 3.2 0 01-.69-1.39l-.07-.12a1.21 1.21 0 01-.28-.46 63.49 63.49 0 00-3.24-5.82 8 8 0 00-4.65-3.6 6.29 6.29 0 00-6.57 2.27 2.7 2.7 0 01-.61.78 1.22 1.22 0 01-.07.17c0 .19 0 .38-.26.44v.14a6.35 6.35 0 01-.56 1.86l-.06.22c.16.23.05.41-.09.6l-.06.25a1.94 1.94 0 01-.11 1l-.06.27a.76.76 0 010 .66v.27c.11.11 0 .24 0 .35a27 27 0 000 3.6 11.62 11.62 0 01.13 1.77v.44a.49.49 0 01.13.33c.31 2 .72 4.05 1.13 6.07 0 .09.07.18 0 .26s-.2 0-.29 0c-.35-.18-.69-.37-1-.54a9.51 9.51 0 00-3.68-1.06 5.48 5.48 0 00-5.79 5.27 12.88 12.88 0 00.27 2.4.08.08 0 010 .07 6.29 6.29 0 01.66 1.47 1.65 1.65 0 01.33.87.06.06 0 010 .06 1.56 1.56 0 01.46.94.28.28 0 01.12.23 16.58 16.58 0 011.21 2.28l.06.12a8.72 8.72 0 011.12 2 .79.79 0 01.17.14c.76 1.31 1.63 2.53 2.51 3.76a4.16 4.16 0 01.71 1 .17.17 0 01.12.15.18.18 0 01.14.22.07.07 0 01.06 0c.14 0 .19.14.27.23.66.81 1.33 1.61 2 2.43a53.17 53.17 0 004.42 4.94c.35.35.82.61 1 1.12a22.9 22.9 0 012.33 2 8.6 8.6 0 011.35 1 56.39 56.39 0 004.74 3.07c.3.09.51.39.86.34-.28-.59-.55-1.19-.85-1.77l-3.78-7.15a61.46 61.46 0 01-3.06-6.33c-.53-1.36-1-2.73-1.52-4.11a2.58 2.58 0 01.41-2.63 2.51 2.51 0 014 .07c.23.29.43.59.64.89a53.68 53.68 0 013.19 4.59c.91 1.61 1.82 3.21 2.69 4.83.79 1.44 1.52 2.92 2.28 4.37.06.11.08.32.25.28s.12-.23.12-.36c0-.69 0-1.37.11-2.06.14-1.88.28-3.76.49-5.64a16.14 16.14 0 01.91-4.06 2 2 0 011.7-1.46 1.87 1.87 0 011.72 1.27 16.67 16.67 0 011.07 6c0 3.13-.08 6.26-.25 9.38 0 .13 0 .28.12.38l.1-.15c1-1.67 2-3.37 2.89-5.08 1.18-2.16 2.42-4.28 3.56-6.45a6.06 6.06 0 00.85-2.21 1.94 1.94 0 01.49-1 2 2 0 012.11-.64 2.09 2.09 0 011.39 1.91 8.93 8.93 0 01-.13 1.55 9.94 9.94 0 01-1 3.46c-.78 1.54-1.61 3-2.44 4.56-1.31 2.36-2.57 4.75-3.85 7.13-.29.52-.58 1-.85 1.57-.07.12-.2.28-.08.41s.25 0 .36-.1a11.28 11.28 0 011.1-.55c-.08-.08-.01-.07.07-.06z"/><path class="cls-12" d="M1617.54 682.2c-2.82-4.77-15-24.4-6.42-23.39 12.2 10.43 8.82 27.18 12.52 4.13 6.09-6.73 4.15 13.21 4.26 16 3-2.88 9-20.83 11.74-14.55 1.85 4.57-5.2 16.48-7 19.63a1.35 1.35 0 01-1.34.65l-12.52-1.67a1.69 1.69 0 01-1.24-.8z"/></g></g></svg>