<svg xmlns="http://www.w3.org/2000/svg" viewBox="0 0 3008 836"><defs><clipPath id="clip-path"><path class="cls-1" d="M1071.32 669.26A46 46 0 011070 680c-.88 3.65-2.73 6.67-4.39 9.54-1.84 3.19-3.76 6.06-6.31 7.92a13.82 13.82 0 01-18.1.07 24.67 24.67 0 01-6.89-7.53 38 38 0 01-3.77-10 40.81 40.81 0 01.08-21.49 36.28 36.28 0 014.16-9.68c1.84-3.19 3.68-6.37 6.23-8.23a16.07 16.07 0 019.27-3.25c3.23 0 6 2.13 8.78 4.12a23.36 23.36 0 016.73 7.34 37.19 37.19 0 013.49 9.9c.81 3.36 2.04 6.8 2.04 10.55z"/></clipPath><clipPath id="clip-path-2"><path class="cls-1" d="M1108.78 709.48c3.07 21.16-14 39.78-33 39.68-18.18-.1-33.22-17.84-33.22-39.22s14.74-38.82 32.92-38.72c17.7.09 29.78 13.99 33.3 38.26z"/></clipPath><style>.cls-1{fill:none}.cls-2{fill:#f5f1e8}.cls-3{fill:#fadbd8}.cls-5{fill:#f5acb9}.cls-6{fill:#d25b73}.cls-7{fill:#481414}.cls-8{fill:#f69d97}.cls-9{fill:#572d2d}.cls-10{fill:#fdd26e}.cls-11{fill:#adcd9b}.cls-12{fill:#fcc062}.cls-13{fill:#f8f3e5}.cls-14{fill:#c4d6a4}</style></defs><g id="Layer_2" data-name="Layer 2"><g id="Layer_1-2" data-name="Layer 1"><path class="cls-2" d="M0 586.15h3008V836H0z"/><path class="cls-3" d="M880.19 794c-.67-.39-1.16-.86-.72-1.72a1.21 1.21 0 01.72 1.72zM886.39 822.29c-.67-.39-1.16-.86-.69-1.71a1.2 1.2 0 01.69 1.71zM1798 827.37c-.67-.39-1.16-.85-.74-1.71a1.21 1.21 0 01.74 1.71z"/><path d="M3008 585.55L1.46 583.14C.15 568.41 0 0 0 0h3008z" fill="#c6bcd0"/><path class="cls-5" d="M1127.58 530.6c.19 1.35.35 2.7.58 4 .75 4.45 1.54 8.89 2.3 13.34.21 1.24.33 2.51.49 3.77a1 1 0 00.42 1.36c.54 5.34 1.51 10.56 2.47 15.77l2.13 11.41a1.06 1.06 0 00.45 1.36c.18 1.39.37 2.78.55 4.17-1 0-2 .05-2.94.05-168.33 0-375.91-1-544.24-1 0 0 46.18-152.9 48.05-153.34 2.89-.69 5.77-1.39 8.67-2 1.73-.34 3.51-.28 5.22-.74 2.63-.73 5.3-.41 7.95-.84a38.64 38.64 0 016.09-.16l29.88.05h3.78a10.19 10.19 0 003.24-.45 14.33 14.33 0 012.08-.58 17.35 17.35 0 006.45-2.64 9.48 9.48 0 003.19-3.88 39.81 39.81 0 003.48-9.63c.88-4.13 1.94-8.2 2.82-12.34 1.89-9 3.95-17.88 5.69-26.92 1.82-9.38 3.9-18.67 5.94-28 2.61-11.95 5.79-23.66 8.76-35.47A19.57 19.57 0 01749 296.1a17.22 17.22 0 016.31-2.88 128 128 0 0014.94-4.41 33.3 33.3 0 017.67-1.41c1.54-.15 3.06-.47 4.59-.62 1-.09 1.5-.73 1.84-1.89 1.21-4.18 2.45-8.36 3.75-12.5q1.7-5.43 3.72-10.67 3-7.86 6.22-15.62a13.08 13.08 0 015.1-6.32A12.52 12.52 0 01809 238a25.05 25.05 0 012.74 0 39.27 39.27 0 007.3-.9c1.74-.28 3.48-.56 5.22-.71 3.35-.27 6.73-.27 10.07-.72 5-.66 9.94-.27 14.91-.49a46.78 46.78 0 017.74.77c3 .38 6 .87 9 1a29.63 29.63 0 014.78.53 22.15 22.15 0 003.77.5c2.38.08 4.73.61 7.12.6 2.87 0 5.75.2 8.6-.5h.16c3.17 0 6.32-.51 9.48-.74 5-.37 10.09-.21 15.12-.58 3-.21 6-.1 9-.56s6.16-.16 9.22-.79a21.63 21.63 0 014.41-.13c7.93 0 15.86.4 23.77-.15a196.65 196.65 0 0120.6-.28c2.8.1 5.61.35 8.41.58 2.3.19 4.6.24 6.89.43 2.93.24 5.86.59 8.79.89a5.66 5.66 0 002 0 9.73 9.73 0 017.44.66c1.27.72 2.62.51 3.94.62a50.75 50.75 0 018.51 1.57 4.25 4.25 0 012 1.4 23.28 23.28 0 014.23 6.76c1.07 2.68 2 5.41 2.86 8.23 2.81 9.66 5.5 19.36 7.86 29.22q2.82 11.76 5.31 23.65c2.1 10 4.05 20.13 6 30.22 1.33 6.9 2.92 13.73 4.22 20.64 1.1 5.84 2 11.75 3.21 17.57.47 2.29.93 4.59 1.4 6.88a2.44 2.44 0 00.06.26c1.13 4.77 3.34 7 7.22 7.27 3 .19 6 .63 9 .94a11 11 0 001.52 0c2.56-.14 5.08.43 7.63.66a8.51 8.51 0 011.3.25 15.75 15.75 0 005.19.87 5.34 5.34 0 012.82.94c2.63 1.48 4.44 4 5.76 7.25a40.39 40.39 0 012.67 9.46c1.15 8 2.53 15.9 4 23.79 1.13 6.22 2.19 12.45 3.43 18.63a98.45 98.45 0 011.35 10.5c.26 2.82.79 5.56 1.14 8.35.57 4.58 1.29 9.14 1.57 13.78 0 .72.2 1.43.3 2.14.78 5.57 1.75 11.08 2.79 16.58 1.29 6.91 2.54 13.84 3.81 20.76.16.89.29 1.79.43 2.68a1.05 1.05 0 00.51 1.32zM1213.56 588.23a7.37 7.37 0 011.36-2.85 47.75 47.75 0 014.31-5.51 119.78 119.78 0 0111.84-12.21q7.67-6.93 14.67-14.5 5.87-6.31 12-12.34c1.88-1.83 3.84-3.57 5.73-5.38.61-.59 1.14-1.26 1.71-1.89a28.57 28.57 0 016.09-5.25 11.17 11.17 0 001.47-1.2c1-.87 2-1.78 3.08-2.61a13.43 13.43 0 016.79-2.92 8 8 0 002.47-.76 8.21 8.21 0 013.43-.76c5.16-.12 10.34-.1 15.5-.43 8.64-.54 17.29-.32 25.93-.27 5.52 0 11 .51 16.57.28s10.92-.14 16.36-.48c7.35-.45 14.68 0 22-.59a5.18 5.18 0 011.36.06c2.1.37 3.13.41 4-.83a55.24 55.24 0 019.91-10l.37-.28a103.22 103.22 0 0012.49-10.42 29.86 29.86 0 017.58-5.41 20.63 20.63 0 017.09-2.13q4.63-.58 9.28-1c4.52-.39 9-.6 13.56-.89 4.32-.28 8.64-.14 13-.38 10.13-.56 20.27-.16 30.4-.49 5-.16 9.93 0 14.87-.4s9.64-.11 14.44-.42c6.09-.39 12.19-.06 18.27-.42 4.46-.27 8.93-.14 13.38-.45 3.19-.22 6.37-.26 9.56-.31a2.69 2.69 0 002.32-1.18 112.46 112.46 0 008.31-12.83c2-3.6 3.92-7.27 5.9-10.89a2.75 2.75 0 01.19-.28 28.52 28.52 0 004.1-8.38c1.49-4.28 3-8.57 4.59-12.8a30.83 30.83 0 018.27-12.44 18.2 18.2 0 016.48-3.95c2.61-.84 5.22-1.67 7.86-2.39l.28-.06c4.42-.61 8.9-.7 13.31-1.44a6.63 6.63 0 011.78 0 12.77 12.77 0 001.38-.08c5.1 0 10.18-.59 15.29-.54 8.65.11 17.3.09 26 .14.77 0 1.55.26 2.31.2 2.11-.19 4.23.37 6.33-.15a7.32 7.32 0 011.69-.09c3.48 0 7-.19 10.42 0 3.9.25 7.8.19 11.68.44 4.16.26 8.32.58 12.45 1.24.42.06.82.24 1.24.28 2.7.24 4.16 2 5.48 4.15 3.24 5.27 4.24 11.38 6.24 17.05a73.32 73.32 0 012.34 8c2.89 12.76 6.71 25.23 10.73 37.64 1.92 5.93 3.61 11.93 5.48 17.87 1.09 3.45 2.25 6.88 3.57 10.24a44.71 44.71 0 003.11 6.28 22.31 22.31 0 003.31 4.41 11.6 11.6 0 005.33 2.95 59.5 59.5 0 006.88 1.28c1.47.22 3 .33 4.41.58a56.45 56.45 0 0010.78.83 11.65 11.65 0 013.38.22 6.41 6.41 0 001.7.09c2.79 0 5.59-.08 8.37-.36h.18a42.43 42.43 0 009.69.09c.64 0 1.28-.07 1.91-.07 4 0 8.06-.06 12.09 0a9.41 9.41 0 003.93-.77c2.88-1.2 5.76-2.4 8.6-3.67a23.05 23.05 0 005.67-3.72 40.59 40.59 0 0111.46-7.2 20.12 20.12 0 014.71-1.25 51.87 51.87 0 015.71-.44c2.77-.09 5.53 0 8.3-.11 7.8-.19 15.59-.53 23.4-.64a13.52 13.52 0 002-.17c3-.52 6.15-.14 9.18-.77 3.25-.18 6.49-.32 9.74-.54 3-.2 5.91-.5 8.88-.73 1.83-.14 3.67-.28 5.5-.4 4.76-.32 9.4-1.35 14.16-1.69a6.72 6.72 0 001.59-.33c.86-.29 1.83-.35 2.69-.67a7.26 7.26 0 003.66-2.75c2.58-3.78 4.59-7.88 6.89-11.83.06-.12.18-.3.25-.41a17.88 17.88 0 002-3.59 12.83 12.83 0 011.9-3.29c2.21-2.87 4.39-5.78 6.68-8.59a2.34 2.34 0 01.31-.32 22.7 22.7 0 004.08-4.52c3.26-4.73 6.82-9.23 10.48-13.65a85.94 85.94 0 0111.29-11.52c1.15-.95 2.24-2 3.41-2.88a10.08 10.08 0 015.56-2.32 1 1 0 00.49-.15 29.25 29.25 0 016.62-2.82c6.22-1.87 12.64-2.87 18.93-4.46a31.8 31.8 0 014-.72c8.31-1 16.55-2.47 24.79-3.95 4-.72 8.1-1.24 12.16-1.83 3.78-.55 7.56-1.09 11.34-1.59 1.82-.23 3.67-.3 5.49-.54 3.23-.43 6.47-.61 9.69-1.11 5.12-.8 10.3-1.2 15.4-2.07a14.84 14.84 0 012.9-.2 52.72 52.72 0 007.83-.68 4.55 4.55 0 01.63-.09c2.77 0 5.52-.38 8.26-.61 3.13-.27 6.29-.07 9.4-.66h.06c3.06-.17 6.12-.31 9.18-.51 3.32-.22 6.62-.62 9.94-.72a70.51 70.51 0 0111.89.2 24.56 24.56 0 016.54 1.72 26.15 26.15 0 014.66 2.94 42.88 42.88 0 016.44 5.46 3.23 3.23 0 00.58.47c2.81 1.65 5.79 3 8.32 5.05a2.62 2.62 0 001.95.66c.91-.09 1.83-.15 2.75-.23 1.14-.1 2.26-.56 3.46.59a1 1 0 001.36.07c2.82-2.09 5.76-1.56 8.68-2 2-.33 4.09-.37 6.13-.57 2.25-.21 4.5-.49 6.75-.71 1.76-.17 3.52-.21 5.28-.45 2.17-.31 4.39-.24 6.55-.58s4.51-.28 6.74-.69l.83-.12q7.32-.61 14.62-1.17c1.69-.13 3.39-.17 5.08-.4 2.38-.32 4.8-.36 7.19-.56s4.93-.47 7.39-.71l.42-.05c2.76-.17 5.52-.31 8.27-.53 2.32-.18 4.64-.45 7-.7a47.84 47.84 0 005.44-.59 5.5 5.5 0 011.13-.16c5.22-.23 10.45-.44 15.67-.75a107.8 107.8 0 0011.18-1c2-.33 4.11-.26 6.13-.6 2.78-.47 5.6-.2 8.38-.77a9.69 9.69 0 011.53-.18c4.53-.05 9-1 13.57-.65a6.74 6.74 0 001.68-.06c5-.89 10.08-1.52 14.94.22a16.1 16.1 0 015.35 3.38c1 .94 1.64 2.28 2.82 3.1.78 2.49 2.13 4.79 2.4 7.47a24.35 24.35 0 001 4.34c1.18 4.08 2.41 8.15 3.62 12.22a26.62 26.62 0 003.41 7.06 8.81 8.81 0 003.89 3.16 39.67 39.67 0 007.14 2 26.67 26.67 0 006.55.51l28.93-.05c2.7 0 5.4-.12 8.08.11s5.52.1 8.25.62a42.2 42.2 0 004.22.46c2.26.21 4.47.69 6.7 1.05 2 .33 4 .83 6.06 1.06 1.61.18 4.89 119.26 4.89 119.26H1213.56z"/><path class="cls-6" d="M1108.25 584.58h-31.2q-21.85 0-43.7-.06c-.91 0-.87 0-.9-.91q-.21-6.76-.46-13.51c-.21-5.88-1-11.72-1-17.62a14.06 14.06 0 016.52-12.19c1.23-.85 2.46-1.7 3.64-2.61a2.61 2.61 0 00.81-1.18c.32-1 .52-2.11.79-3.16a1 1 0 00-.47-1.09c-2.16-1.79-4.39-3.51-6.42-5.43a13.4 13.4 0 01-4.09-13 56.64 56.64 0 013.91-11.63 105.76 105.76 0 004.57-13.06 115.24 115.24 0 017.2-18.88c1.72-3.48 3-7.16 4.53-10.75a68.6 68.6 0 015.81-11.27 9 9 0 017.66-4.29c1.54 0 3.08 0 4.62.05.84 0 1.1-.25 1-1.11-.06-.4-.21-.79-.29-1.18-.65-3.07.29-5.81 1.68-8.47a5.07 5.07 0 013.47-2.7c8.46-2.22 16.91-4.51 25.32-6.94 7.4-2.14 14.75-4.49 22.11-6.8a64.66 64.66 0 006.52-2.31 11.09 11.09 0 016.58-.55 13 13 0 018.58 4.86 10.32 10.32 0 002.58 2.44c3 2 5.25 4.75 7.49 7.51a4.34 4.34 0 01.51.64c.72 1.43 2 1.66 3.45 2 4.49.95 9 .8 13.58 1.05 5.82.32 11.65.65 17.47.92 2.13.1 4.26 0 6.38.1 3 .08 6.06.17 9.08.37 1.64.11 3.26.48 4.9.7 3.58.46 7.18.84 10.76 1.37a23.42 23.42 0 017.37 2 17.43 17.43 0 016.18 4.51 14.13 14.13 0 012.4 5.62c.85 3.47 1.53 7 2.32 10.47q2 8.91 4 17.81c1 4.3 2 8.6 3 12.89a1.76 1.76 0 00.78 1c1.28.73 2.6 1.39 3.92 2q4.13 2 8.29 4a20.41 20.41 0 002.54 1 15.46 15.46 0 016.23 3.47c2.55 2.44 4.22 5.34 3.75 9.05a34 34 0 01-.93 3.67c-.56 2.24-1.12 4.48-1.66 6.73a6.66 6.66 0 00-.08 1c-.29 6.51-.72 13-.83 19.53 0 3.07-.13 6.14-.37 9.19-.51 6.64-1.12 13.26-1.75 19.89-.32 3.35-.72 6.7-1.16 10-.17 1.38-.54 2.74-.8 4.12-.1.52-.35.68-.88.68h-62.03c-.69 0-1-.18-1.15-.87a93.56 93.56 0 00-3.18-11.49 62.59 62.59 0 00-6.52-14.59c-.14-.23-.3-.45-.43-.69a3.15 3.15 0 00-2.24-1.57 26.25 26.25 0 01-4.07-1.26 7.82 7.82 0 01-5.24-7.8 24.46 24.46 0 01.43-4.52 58.39 58.39 0 001.05-8.75 101.63 101.63 0 011.67-13.46c.31-1.76.51-3.54.77-5.3a.79.79 0 00-.51-1c-5.76-2.68-11.48-5.47-17.3-8a30.94 30.94 0 00-9.51-2.85 17.29 17.29 0 00-3.57.27c-4.26.5-8.54.93-12.79 1.57-3.1.46-6.17 1.2-9.25 1.81-.6.12-1.19.29-1.79.36a1.43 1.43 0 00-1.27 1c-1.34 3.79-2.72 7.58-4 11.38-.89 2.54-1.7 5.11-2.59 7.65a10.16 10.16 0 01-4.74 5.79 5 5 0 01-2.89.72c-3.22-.18-6.45-.4-9.67-.62-.43 0-.86-.08-1.28-.13s-.65.14-.56.63c.58 3.32 1.2 6.64 1.71 10q1.21 7.79 2.29 15.59c.82 5.87 1.58 11.76 2.36 17.63.36 2.7.73 5.39 1.09 8.08a1.34 1.34 0 01-.1.48z"/><path class="cls-7" d="M1076.9 584.76c-.54-3.07-1.11-6.13-1.62-9.2-.21-1.24-.33-2.5-.47-3.75a2.26 2.26 0 01.58-1.56c2.27-3.31 4.65-6.55 7.09-9.74.75-1 1.51-1.92 2.29-2.85.3-.36.29-.59-.09-.88a34.86 34.86 0 00-6.63-4.3 16.19 16.19 0 01-5.86-4.06 1.88 1.88 0 01-.53-1.58c.61-4.77 1.39-9.51 2.06-14.26.64-4.54 1.3-9.07 1.88-13.6.35-2.69.61-5.39.85-8.08a2.74 2.74 0 011.64-2.47 24.83 24.83 0 015.69-1.7 58.15 58.15 0 0010.21-3.37c3.62-1.6 7.12-3.44 10.79-4.92a19.39 19.39 0 014.42-1.25.71.71 0 00.69-.7c.11-1.44.23-2.87.36-4.31a52.26 52.26 0 011.39-8.88 1.78 1.78 0 011.3-1.38q7-2.35 13.91-4.78a1.43 1.43 0 011.64.35 113.44 113.44 0 019.62 10.47 1.05 1.05 0 01.2.27 2.35 2.35 0 002.37 1.38 102.39 102.39 0 0111 .88c2.92.41 5.86.7 8.78 1.13 3.86.57 7.7 1.22 11.55 1.83 1.89.3 3.8.48 5.71.6 2.41.15 4.82.24 7.22.51.59.07.63.35.55.83-.58 3.56-1.13 7.13-1.6 10.71-.29 2.23-.6 4.47-.83 6.71-.08.78-.15.79-.88.48-4.77-2.09-9.52-4.2-14.15-6.56-.13-.07-.27-.18-.44-.1l-.26-.13a12.72 12.72 0 00-3.51-1.67q-2.4-.85-4.81-1.63a12.14 12.14 0 00-5.81-.49c-2 .35-4.07.52-6.11.75a103.33 103.33 0 00-13.77 2.09c-1.62.4-3.26.73-4.9 1a1.76 1.76 0 00-1.46 1.2c-1.16 2.82-2.12 5.71-3.1 8.6-1.27 3.76-2.53 7.52-3.88 11.25a8 8 0 01-4.18 4.68.79.79 0 00-.3.17c-.56.86-1.42.69-2.25.71a82.94 82.94 0 01-11.14-.75c-.94-.1-1.05 0-.88.89 1.07 5.75 2 11.53 2.86 17.31.58 3.84 1.1 7.69 1.61 11.54.36 2.71.65 5.43 1 8.14.46 3.46 1 6.93 1.44 10.39.17 1.21.32 2.42.5 3.62 0 .3 0 .44-.32.43h-30.86zM1200.79 584.55c-.15-.52-.26-1-.45-1.56a.86.86 0 01.35-1.11c3.55-2.8 7.35-5.24 11.15-7.68q6.11-3.91 12.36-7.58 6.45-3.78 12.93-7.54 6-3.47 12-6.9c2.69-1.53 5.4-3 8.11-4.51 3.17-1.73 6.36-3.43 9.54-5.15.32-.17.65-.31 1-.46.74-.34.74-.34.74.5 0 .19-.1.41.11.56l-.07 1.1a1.82 1.82 0 00-.06 1.61v.72a1.69 1.69 0 00-.1 1.59l-.08 1.37a.73.73 0 00-.06.94v.31c-.35.22-.26.49-.09.78l-.09 1.1a.57.57 0 000 .8v.31c-.33.17-.28.4-.09.64l-.09 1.24a.4.4 0 000 .66v.31c-.36.22-.26.49-.09.78l-.1 1.64c-.3.24-.14.56-.14.85-.22 2.66-.43 5.33-.65 8a.53.53 0 00-.07.79v.58c-.31.18-.27.4-.07.64l-.08.71a.87.87 0 00-.08 1.06v.31c-.33.17-.28.39-.09.64l-.1 1a.42.42 0 000 .67v.31c-.3.12-.26.3-.09.5l-.1 1.1c-.21.16-.26.34 0 .53l-.06.3c-.25.08-.27.21-.08.38l-.09 1c-.19.11-.24.24 0 .39v.31c-.26.07-.27.2-.08.37l-.08.7c-.2.1-.26.22-.07.39l-.06.29c-.22.09-.24.22-.07.38l-.07.43a.77.77 0 00-.21.93l-.07.43a.44.44 0 00-.18.66l-.09.42c-.2.06-.22.17-.1.33-.22.41-.6.23-.91.23h-62.42zM1251.08 492.13a2.44 2.44 0 01-1.1.26c-3.16.18-6.32.11-9.48.17-2.17.05-4.33.22-6.49.36-1.09.06-1.21 0-1.19-1.12 0-3.59.09-7.19.16-10.78q.11-4.89.28-9.76c.1-2.73.25-5.46.4-8.19.23-4.23.72-8.45.84-12.7.07-2.25 0-4.52.21-6.77 0-.29 0-.59.15-.85a4 4 0 01.84 1.53 27.81 27.81 0 011.59 6c.39 2.22 1 4.41 1.48 6.61.83 3.59 1.61 7.19 2.42 10.78.91 4 1.78 8 2.75 12 .75 3.09 1.47 6.2 2.13 9.31.18.84.93 1.07 1.52 1.42a15.13 15.13 0 003.18 1.56 1 1 0 01.31.17z"/><path class="cls-2" d="M1008.85 361.92c4.93-6.56 5.21-12.81 4.84-25.09 3.64 1.61 6.45 20.42 4.16 27.09-17.69 51.5-57.88 56.87-63.78 59-22.78 3.49-44 0-54.13-1.34-12.33-2.41-25.19-8.31-31-11.21-7.7-3.83-15.67-11.7-16.2-13.6-.8-2.84 1.94-13.79 3-16.5 3.06-7.74 6-20.31 19.3-33 11.52-11 27.57-17 36.8-22.09 5.9-3.23 20.32-7.48 21.24-7.5.31 0-11.54 14.95-10 33.41.72 12.8 1.67 19.29 11.26 27.76 8.72 7.71 10.18 9.39 23.31 11.87 7.44 1.41 21.79-3.24 27.53-6.84 8.01-5.01 13.04-7.82 23.67-21.96z"/><path class="cls-6" d="M1015 341c1 8.31-1.28 12.57-4.82 20.07a44.25 44.25 0 01-20.82 23.16c-5.17 2.72-10.33 5.49-16.2 6.47-12.7 1.69-26.78.4-36-7.76-9.59-8.47-14.16-16.37-14.87-29.17-.81-11.87.22-9.93 2-19.12 1.61-8.24 5-14.08 8.44-16.8 2.51-1.6 15.47-1.19 22.12-.81 16.13.92 28.57 2.85 42.86 8.12 10.96 4.02 16.19 7.04 17.29 15.84z"/><path class="cls-8" d="M1414.5 748.22a2.24 2.24 0 00-1.19.67 3.33 3.33 0 00.07 4.68 25.15 25.15 0 007.5 5 41.31 41.31 0 005.81 2.15 18.78 18.78 0 005.52 1A2.88 2.88 0 001435 759a4.58 4.58 0 00-1.94-3.53 16.18 16.18 0 00-3.4-1.9 117 117 0 00-11.15-4.85 6.55 6.55 0 00-4.01-.5zM1394.9 727a25.15 25.15 0 00-.77-2.79 35.71 35.71 0 00-2.51-6.49 10.23 10.23 0 00-2.51-3.39 3.06 3.06 0 00-4.15.22 3.16 3.16 0 00-.71 2.77 33.74 33.74 0 001 4.64 34.11 34.11 0 003.42 7.56 6.66 6.66 0 002.17 2.37 2.88 2.88 0 004.26-1.84 7.1 7.1 0 00-.2-3.05zM1337 651.13c.06.31.1.63.19.93a3.62 3.62 0 001.92 2.54 3.14 3.14 0 004.34-2.51 13 13 0 00-.13-4.49 61.54 61.54 0 01-.56-6.49 11.43 11.43 0 00-.61-3.84 2.7 2.7 0 00-4.69-.78 10.61 10.61 0 00-1.09 1.69 4.68 4.68 0 00-.63 3.68c.37 1.35.34 2.8.61 4.19.28 1.68.25 3.41.65 5.08zM1349 681a2.53 2.53 0 00.9 1.63c.35.33.76.6 1.12.91a31.07 31.07 0 006.22 4.33 10.06 10.06 0 005 1.4 2.64 2.64 0 002.43-1.59 3.11 3.11 0 00-.47-3.26 8.24 8.24 0 00-2.1-2 28.66 28.66 0 00-7.1-3.46 15.65 15.65 0 00-3.55-1A2.44 2.44 0 001349 681zM1413.76 765.43c.26 0 .52-.09.77-.16a1.3 1.3 0 00.64-2.19 3.9 3.9 0 01-.92-1.45 4.55 4.55 0 00-1.22-1.91 33.14 33.14 0 00-7.47-5.52 7.65 7.65 0 00-2.91-1.05 2.67 2.67 0 00-2.89 3.21 4.28 4.28 0 001.26 2.14 32.38 32.38 0 003.17 2.8 27.76 27.76 0 005 3.34 6.69 6.69 0 004.57.79zM1352.14 691.16a3.58 3.58 0 00-2-2.18 11.23 11.23 0 01-2.31-1.6 13.1 13.1 0 00-3.53-2.7 10.4 10.4 0 00-4.83-1.4 2.6 2.6 0 00-2.58 3.1 3.8 3.8 0 001.12 2 31.09 31.09 0 003.67 3 33 33 0 004.09 2.51 9.27 9.27 0 003.46 1.2c1.93.17 3.41-1.46 2.91-3.93zM1374.37 721a10.75 10.75 0 002.56 5.79 2.24 2.24 0 003.36.13 3.26 3.26 0 00.66-2.17 10.75 10.75 0 00-.71-4.43 35.86 35.86 0 01-1.58-5 6 6 0 00-1.5-3 2.46 2.46 0 00-2.72-.59 2.52 2.52 0 00-1.37 2.39 2.16 2.16 0 01-.11 1 2.78 2.78 0 00.16 2.17 9.81 9.81 0 011.25 3.71zM1332.61 642.24c-.09-.44-.16-.88-.27-1.32a3.26 3.26 0 00-4.11-2.52 3.76 3.76 0 00-3.07 3.28 9.72 9.72 0 00.12 3c.24 1.49.36 3 1.44 4.22a3.45 3.45 0 003.79 1.26 3.52 3.52 0 002.35-2.83 12.15 12.15 0 00-.25-5.09zM1310 616a3.42 3.42 0 00-.4-1.09 9.88 9.88 0 00-1.78-1.76 13.72 13.72 0 00-2.71-2.21 9 9 0 00-2.62-1.08 2.49 2.49 0 00-3 2.93 4.65 4.65 0 001.2 2.21 18.11 18.11 0 002.78 2.32 7.66 7.66 0 003.89 1.68 2.44 2.44 0 002.64-3zM1337.35 624a3.17 3.17 0 00-5-2.18 4.05 4.05 0 00-1.66 3.28c-.09 1.71.23 3.24 1.88 4.22a3.31 3.31 0 004.55-1.42 8.31 8.31 0 00.23-3.9zM1387.39 702.53c-.09-.28-.16-.58-.27-.85a4.58 4.58 0 00-2.68-2.46 2.76 2.76 0 00-4 2 4.66 4.66 0 001.81 4.61 3.26 3.26 0 003.15.61 3.17 3.17 0 001.99-3.91zM1339 672.67a4.81 4.81 0 002.67 3.39 2.84 2.84 0 004.29-2.65 4.81 4.81 0 00-2.17-3.86 3.12 3.12 0 00-3.52-.14 2.91 2.91 0 00-1.27 3.26zM1392.67 750.55a2.47 2.47 0 002.09-1.83 2.2 2.2 0 00-.59-2.42 17.34 17.34 0 00-2.5-2 2.62 2.62 0 00-4.05 2.17c.15 2.53 1.94 4.68 5.05 4.08zM1398.55 740.39a3.91 3.91 0 004.42 3 2.64 2.64 0 002-1.86 2.44 2.44 0 00-.71-2.59l-1.07-1.06a2.69 2.69 0 00-4.61 2.51zM1321.07 630.57a5.71 5.71 0 001.29 2.1 2.47 2.47 0 003.72-.35 3.35 3.35 0 00.14-4.15 2.93 2.93 0 00-3.41-1.34c-1.43.56-2.12 1.85-1.74 3.74zM1371.16 698.67a2.86 2.86 0 00-2.26 3.43 3.7 3.7 0 004.06 2.62 2.77 2.77 0 002-3.43c-.25-1.6-2.13-3.14-3.8-2.62zM1294.72 607.35a3.37 3.37 0 00-2.24-2.46 2.63 2.63 0 00-2.89.58 2.18 2.18 0 00-.59 2.53 4.15 4.15 0 003 2.69 2.28 2.28 0 002.41-1.12 3 3 0 00.31-2.22zM1292.8 600.77a2.36 2.36 0 002.78 1.88 2.29 2.29 0 001.87-2.57 2.64 2.64 0 00-2.9-2 2.29 2.29 0 00-1.75 2.69z"/><path class="cls-9" d="M1742 620.89c-.07 0-1.64-.2-2-.22-.71-.08-1.43-.15-2.14-.24-1.43-.18-2.85-.39-4.28-.55-1-.12-1.91-.23-2.86-.43-1.26-.25-2.52-.54-3.78-.86-1.87-.46-3.73-1-5.63-1.29-1.09-.18-2.21-.22-3.32-.32-2.12-.2-4.25-.4-6.38-.58s-4-.34-6.05-.46c-2.59-.15-5.17-.31-7.76-.38-1.93-.06-3.85-.14-5.78-.22-2.5-.09-5-.18-7.5-.3s-5-.18-7.51-.22h-3.77c-1.91.06-3.8-.21-5.7-.32a23.63 23.63 0 01-2.92-.25 12.44 12.44 0 01-6.12-2.62 7.08 7.08 0 01-2.07-3.76 6.68 6.68 0 01.63-5 12.56 12.56 0 00.77-1.82 1.47 1.47 0 00-.39-1.64 6.84 6.84 0 00-3.87-1.86c-2-.36-4.05-.77-6.1-1-1-.12-2.07-.13-3.11-.19-3.08-.19-6.18-.1-9.26-.19-1.61-.05-3.23 0-4.84-.13-2.3-.25-4.61-.17-6.91-.29a19.39 19.39 0 01-5.09-1.16 13.39 13.39 0 01-4.53-2.63 7.13 7.13 0 01-1.66-2.12 4.79 4.79 0 01-.68-1.49h3.11c90.44 0 274.13 0 274.66.06-.79.31-13.9 4.13-17.29 4.68-9.47 3.4-39.29 4.07-46.54 5.91-2.49.75-8.9 3.45-12.91 8.13-4.68 4.35-7.91 13.93-47.54 14.7a20.38 20.38 0 01-3.58 0c-.62 0-4.62-.18-6-.25s-10.63-.59-10.8-.53l-1.36-.08z"/><path class="cls-10" d="M1745.36 621.08c.17-.06.33 0 .5 0 1.51 0 3 .21 4.53.22h1.69c1.36.09 2.72.21 4.08.28s2.76.07 4.13.17c.62 0 1.24 0 1.86.08a19.57 19.57 0 003.59 0c1.78-.21 3.57-.34 5.35-.58s3.85-.46 5.77-.73 3.61-.54 5.41-.9 3.55-.77 5.34-1.09a52.27 52.27 0 005.23-1.24 22.75 22.75 0 004.83-2.17q2.64-1.5 5.26-3a64.5 64.5 0 005.36-3.62c1.23-.9 2.46-1.8 3.64-2.76.86-.7 1.66-1.48 2.57-2.11a40.18 40.18 0 014.3-2.51 41 41 0 017.27-2.8 32.51 32.51 0 014.59-1.06c1.46-.22 2.92-.44 4.39-.58s2.71-.26 4.08-.35 2.53-.17 3.79-.31c1.9-.21 3.81-.36 5.72-.41 1.25 0 2.49-.05 3.73-.14 2.05-.13 4.09-.24 6.12-.52 1.82-.24 3.63-.47 5.43-.78 2.2-.38 4.39-.83 6.59-1.19 3.38-.55 6.7-1.42 10-2.24 1.78-.44 3.54-1 5.3-1.54.81-.25 1.64-.45 2.43-.77H1938c.16 0 .42-.09.47.06s-.21.26-.34.36c-.35.28-2.57 2.17-3.13 2.6s-2.92 2.21-3.36 2.56a17.43 17.43 0 01-2.6 1.54c-.78.42-1.57.78-2.36 1.17s-1.51.66-2.28 1-1.71.65-2.58.94-1.84.52-2.77.77-1.86.38-2.79.54c-1.84.32-3.65.74-5.5 1-1.28.18-2.54.41-3.82.6-1 .16-2.07.28-3.11.42l-3 .38c-1 .12-1.91.25-2.86.34-1.38.14-2.76.35-4.13.54-1.21.18-2.43.34-3.65.49s-2.27.26-3.41.36c-.74.07-1.48.11-2.22.16-2.07.14-4.13.28-6.21.32-1.07 0-2.14.09-3.21.12-2.11.06-4.22.17-6.33.16a32.61 32.61 0 00-7.22 1 66.46 66.46 0 00-7 1.81 51.3 51.3 0 00-5.33 2 32.1 32.1 0 00-6.39 4.08 18.26 18.26 0 00-2.55 2.5c-.53.63-1.11 1.21-1.69 1.78-2 1.93-3.8 4-5.59 6.09-1.09 1.28-2.08 2.64-3.18 3.91a49.84 49.84 0 01-3.92 4 51.83 51.83 0 01-3.86 3.25 29.47 29.47 0 01-4 2.52 55 55 0 01-7.29 3.31 61.2 61.2 0 01-6.62 2.08 45.3 45.3 0 01-4.63.82c-1.19.17-2.37.43-3.55.67a19.6 19.6 0 01-3 .32c-1.69.07-3.37.23-5.06.37-.81.07-1.63.12-2.44.16-2 .1-4 .19-6 .24-1.06 0-2.12.08-3.18.13-1.54.08-3.09.11-4.64.17l-2 .05c-1.78 0-3.56.11-5.35.07-2.07 0-4.14-.09-6.22-.16-1.67 0-3.34-.1-5-.22s-3.43-.22-5.13-.41c-1.48-.16-3-.25-4.44-.38l-5.13-.5c-1.29-.13-2.59-.24-3.89-.38l-4.2-.49c-1-.11-2.06-.2-3.09-.32-1.42-.17-2.83-.36-4.24-.54l-4.59-.63c-1.19-.16-2.37-.34-3.55-.48-1-.13-2-.22-3-.33-1.79-.2-3.59-.25-5.38-.49-1.34-.18-2.69-.25-4-.39s-2.75-.32-4.12-.54c-1-.16-2-.27-3.05-.33-1.54-.1-3.06-.23-4.59-.42-1.1-.14-2.2-.22-3.31-.31-1.65-.13-3.3-.26-5-.36-1.2-.07-2.39-.18-3.57-.31-.85-.09-1.69-.21-2.54-.3s-1.53-.17-2.29-.2c-1.32 0-2.63-.12-3.95-.18-1.73-.08-3.45-.28-5.17-.4s-3.68-.38-5.52-.62c-1.36-.17-2.72-.39-4.08-.63s-2.91-.43-4.36-.66-3.14-.58-4.69-1l-4.79-1.17c-.79-.19-1.49-.63-2.25-.89-2-.69-3.93-1.65-6-2.35a4.36 4.36 0 01-2.16-1.63c-.47-.66-1-1.27-1.5-1.94a7.4 7.4 0 01-1.69-5 11.25 11.25 0 01.39-1.74c.35-1.27.85-2.5 1.13-3.78a4.5 4.5 0 00-1.66-4.66 12.34 12.34 0 00-4.09-2.37 19.44 19.44 0 00-4.12-1c-1.34-.14-2.68-.36-4-.48a46.79 46.79 0 00-5.17-.41c-2 0-4-.07-6-.14a45.56 45.56 0 01-5.83-.75 34.34 34.34 0 01-8.37-2.67 9.56 9.56 0 01-3.29-2.41c-.54-.61-1.16-1.16-1.66-1.8-.91-1.18-1.74-2.41-2.62-3.61a25.18 25.18 0 00-4.94-5.16 11.65 11.65 0 00-2.65-1.68s-.07-.05-.13-.09c.14-.16.31-.09.45-.09h37.13a5.3 5.3 0 00.68 1.49 7.16 7.16 0 001.67 2.12 13.2 13.2 0 004.53 2.63 19.39 19.39 0 005.09 1.16c2.3.12 4.61 0 6.91.3 1.6.18 3.22.08 4.83.12 3.09.1 6.18 0 9.27.19 1 .07 2.07.08 3.1.19 2.06.22 4.08.63 6.11 1a6.85 6.85 0 013.86 1.86 1.48 1.48 0 01.4 1.64 14.6 14.6 0 01-.77 1.82 6.7 6.7 0 00-.63 5 7 7 0 002.06 3.76 12.55 12.55 0 006.13 2.61 23.64 23.64 0 002.91.25c1.9.11 3.8.38 5.7.32h3.78c2.5 0 5 .11 7.5.23s5 .2 7.5.3l5.79.21c2.58.08 5.17.23 7.75.38 2 .12 4 .3 6.06.47s4.25.38 6.38.57c1.11.1 2.22.14 3.31.32 1.9.33 3.77.83 5.64 1.3 1.25.31 2.51.6 3.78.86.94.19 1.9.31 2.86.42 1.43.16 2.85.37 4.28.55l2.13.25z"/><path class="cls-10" d="M1682.39 605.2c-1 0-1.89-.05-2.82-.12q-2.76-.24-5.55-.39a11.42 11.42 0 01-4.93-1.21 1.22 1.22 0 01-.71-1.62 8.12 8.12 0 00.15-4.58 5 5 0 00-2.92-3.5c-.64-.27-1.29-.53-1.94-.78a3.18 3.18 0 00-1.83-.18 1.29 1.29 0 00-1.06 1.07c0 .55.19.88.82 1.15a1.82 1.82 0 01.51.28 15.2 15.2 0 001.67 1.18 2.59 2.59 0 011.07 1.48 4.17 4.17 0 010 2.59 6 6 0 00-.25 2.31 4.39 4.39 0 002.32 3.72 18.73 18.73 0 002.67 1.19 19.68 19.68 0 005.38.8c1.42.12 2.85.15 4.27.29a39.85 39.85 0 005.57.06c1.53-.06 3 0 4.57.09s2.76.18 4.14.14c1.07 0 2.15 0 3.22-.08 2.21-.11 4.42 0 6.63 0a3.7 3.7 0 002.11-.51 1.07 1.07 0 000-1.92 4.45 4.45 0 00-1.49-.58 30.48 30.48 0 00-9.57-.7 16.61 16.61 0 01-2.34 0c-2.07-.15-4.14-.35-6.22-.34-1.21.04-2.36.12-3.47.16zm15.83-3h2.43a3 3 0 001.6-.44 1.68 1.68 0 00.27-2.74 1.94 1.94 0 00-1.34-.5h-6c-.74 0-1.49.08-2.23.16a27.39 27.39 0 01-4.53.19 41.81 41.81 0 00-4.75 0 39.19 39.19 0 00-4.46.61.84.84 0 00-.7.7.79.79 0 00.62.77c.46.09.9.23 1.35.32a22.39 22.39 0 003.56.37c1.44.07 2.88.18 4.32.16h.26c1.33.08 2.67.18 4 .24 1.74.1 3.44.13 5.6.18z"/><path class="cls-2" d="M1643.34 622.56a3.33 3.33 0 00.07 1 5.83 5.83 0 002.41 3.75 19.14 19.14 0 003.09 1.58 32.66 32.66 0 007.85 2.11c2 .25 4 .43 6.06.69 1.29.17 2.59.29 3.88.47 2.12.3 4.24.57 6.38.7s4.16.21 6.23.44c1.41.16 2.82.25 4.22.4 1.85.19 3.69.3 5.54.35a8.14 8.14 0 011 0c1.32.17 2.65.14 4 .24s2.67.17 4 .24h1.14c1 0 1.93-.34 2.92-.37a.89.89 0 00.89-.81.93.93 0 00-.84-.91 1.13 1.13 0 01-.54-.19 9.22 9.22 0 00-2.95-1.28 36 36 0 00-7-.88c-.87-.06-1.74 0-2.6-.09-1.73-.13-3.46-.16-5.18-.35-1.07-.12-2.16-.18-3.23-.32-1.22-.15-2.45-.28-3.67-.32-1.72-.06-3.44-.1-5.15-.24-1.51-.13-3-.29-4.51-.46s-2.73-.34-4.09-.49c-1.51-.16-3-.16-4.52-.36a36.63 36.63 0 01-4.53-.77 39.57 39.57 0 01-6.13-2.18 3.69 3.69 0 01-1.72-1.57 5.1 5.1 0 01-.59-2.05c-.1-.81-.7-1.27-1.35-1a1.25 1.25 0 00-.55.52 3.72 3.72 0 00-.53 2.15zm-10.5-10.69a3 3 0 00.65 2.19 1.31 1.31 0 002.17.09 1.62 1.62 0 00.33-1 6.41 6.41 0 01.09-1.24 4.1 4.1 0 00-.71-3.53 18.06 18.06 0 01-1.18-1.72 8.45 8.45 0 00-4.52-3.63A27.27 27.27 0 001626 602c-1.44-.35-2.9-.62-4.36-.89-1.26-.23-2.54-.4-3.82-.57l-3.26-.45c-1.27-.18-2.54-.4-3.82-.57a31.57 31.57 0 00-3.62-.41 9.55 9.55 0 01-1.6-.17 21.39 21.39 0 00-3.18-.38 36.77 36.77 0 01-4.06-.44 30.91 30.91 0 01-3.31-.86c-.86-.22-1.63-.71-2.5-.93a.74.74 0 01-.42-.32 4 4 0 00-1-1 3.48 3.48 0 01-1-.64 2.29 2.29 0 00-1.36-.79c-.33-.07-.61-.09-.82.2a.85.85 0 00-.13 1 4.06 4.06 0 01.51 1.12 1.37 1.37 0 00.31.53 18.37 18.37 0 011.35 1.68 2.29 2.29 0 00.88.75 33.61 33.61 0 006.21 2.54 19 19 0 004.31.69c.59 0 1.19.1 1.78.17 1.22.14 2.42.43 3.66.45a22.68 22.68 0 013 .33c1.47.21 2.93.48 4.4.7s2.68.33 4 .54 2.79.42 4.17.69a35.9 35.9 0 016.12 1.56 4.56 4.56 0 012.39 1.67 13.52 13.52 0 001.45 1.91 1.9 1.9 0 01.56 1.76zm29.92 10c-.82 0-1.63.11-2.45.1a.79.79 0 00-.85.69.76.76 0 00.69.85c.54.11 1.08.18 1.62.26.75.1 1.51.07 2.26.18 1 .17 2.11.34 3.17.47s2.23.25 3.34.32c.43 0 .86 0 1.28.09.84.14 1.69.15 2.54.23 1.21.13 2.42.24 3.63.43 1.39.22 2.8.33 4.2.47s2.65.18 4 .31c1.65.17 3.29.38 4.93.57 2 .22 4 .46 6.06.66 1.63.16 3.23.45 4.84.72a5.7 5.7 0 002.63.1 1.54 1.54 0 00.89-2.53 2.7 2.7 0 00-1.72-1 51.08 51.08 0 00-5.65-.89c-1.75-.18-3.49-.34-5.23-.53-1.05-.1-2.08-.24-3.13-.31s-2.32-.24-3.49-.35l-2.14-.16c-1.51-.14-3-.2-4.53-.27h-1.13c-1.32-.14-2.65-.23-4-.26-2.14-.06-4.27 0-6.41-.07-1.78-.07-3.57.05-5.35-.08zm-18.34-12.55a11 11 0 00-.36-2.47 9.06 9.06 0 00-3.45-4.25 12.26 12.26 0 00-4-1.84c-.68-.22-1.4-.33-2.06-.61a3 3 0 00-1.41-.34 1.22 1.22 0 00-1.07.83 1 1 0 00.33 1.17 5.12 5.12 0 001 .66c1 .54 2.11 1 3.09 1.58a8.44 8.44 0 012.11 1.43l1.28 1.5a2.47 2.47 0 01.63 1.18c.07.48.12 1 .17 1.45a2.84 2.84 0 00.91 1.94 1.55 1.55 0 002.21-.06 3.21 3.21 0 00.62-2.17z"/><path class="cls-9" d="M2015 603.77s-14.59 6.89-14.22 13.46c0 0-.67 6.12 4.4 7.54 0 0 12.16 4.35 29.16 1a31.7 31.7 0 01-1.54-7.76s-15.95-12.45-17.8-14.24z"/><path class="cls-2" d="M2033.06 618s-30.44-15.81-36-46.24c0 0-8.21-33.62 14.56-55 0 0 29.37-12.64 47.25-4.47 0 0 24.55 22.93 20.92 58.54l22.54 16s16.84 27.18 2.19 52.08c0 0-12.68 19.09-26.78 25.28 0 0-21.19 9.24-32.86-11.69-.05-.1-11.88-25.04-11.82-34.5z"/><path class="cls-11" d="M2032.67 616.54c.6-4.18.93-10 3.77-13.77a70.2 70.2 0 01-3.1-11.36c-.5-2.62-1-5.22-1.45-7.85-.59-3.65-1.4-7.27-2.06-10.91-.44-2.48-.95-4.94-1.41-7.41s-.92-4.88-1.3-7.34c-.25-1.59-.47-3.18-.68-4.78-.15-1.12-.22-2.25-.33-3.37-.17-1.73-.34-3.46-.48-5.2-.08-1-.15-2-.22-2.95-.12-1.56-.29-3.12-.43-4.68-.1-1.08-.19-2.16-.29-3.24-.14-1.5-.29-3-.44-4.49-.13-1.28-.23-2.56-.39-3.82-.24-1.84-.49-3.68-.63-5.52a1 1 0 01.3 0 6.7 6.7 0 001.52.41 66.11 66.11 0 018.13 1.52 10.27 10.27 0 001.91.3.41.41 0 01.41.4c.09.77.19 1.53.27 2.29.1 1 .17 1.92.3 2.88.18 1.38.4 2.77.6 4.15.26 1.77.52 3.55.76 5.32.19 1.39.34 2.78.52 4.17s.28 2.54.48 3.81c.32 2 .52 4 .85 6q.45 2.68.75 5.4c.15 1.28.32 2.56.45 3.84s.17 2.44.29 3.65c.21 2 .26 4 .53 6 .18 1.33.32 2.66.51 4s.48 2.85.66 4.28c.29 2.29.38 4.6.44 6.91s.54 7.89.59 10.08c2.58-4.09 5.89-7.53 8.15-8.91.18-.19-1.18-6-1.34-8.75 0-.81-.11-1.61-.2-2.4-.23-2.2-.42-4.39-.55-6.6 0-.92-.15-1.84-.2-2.76-.08-1.37-.22-2.74-.34-4.1-.08-.89-.18-1.77-.25-2.65-.09-1-.26-2.07-.38-3.1-.18-1.51-.39-3-.62-4.52-.28-1.84-.58-3.68-.83-5.53-.28-2.05-.6-4.08-1-6.11-.5-2.79-1.11-5.56-1.61-8.34-.54-3-1-6-1.65-8.93 0-.18-.11-.4.07-.5.59-.33 1-.87 1.66-1.16a11 11 0 001.75-.7 1.24 1.24 0 00.43-.11c.38-.12.68-.44 1.1-.45.34.86.69 1.71 1 2.57a39.89 39.89 0 011.91 6.22c.4 1.74.69 3.49 1 5.24.22 1.37.43 2.74.65 4.11.32 2 .63 4 1 6.06.25 1.51.6 3 .83 4.53.37 2.32.87 4.62 1.14 7 .18 1.54.35 3.08.51 4.63.14 1.25.17 2.53.41 3.77a57.14 57.14 0 01.74 6.64c.12 1.53.18 3.07.3 4.6.15 1.76.64 5.56.88 7.8 0 .13.05 1.21.21 1.27s.27-.11.37-.21a50.39 50.39 0 015.68-5 1 1 0 00.41-.85v-2.63c0-.88.05-1.73 0-2.59-.17-1.67-.11-3.35-.22-5 .14 0 .18.15.24.26 1.38 2.32 2.6 4.74 3.9 7.11a34.21 34.21 0 004.34 6 29.32 29.32 0 012.84 3.44 6 6 0 011 1.64c0 .15-.07.33.08.46v.28c0 .08 0 .14.08.17v.38a.11.11 0 000 .17v.19c0 .14 0 .25.15.28v.17c-.08.07-.08.12 0 .18l.12.64a.11.11 0 00.06.17v.28a.13.13 0 00.07.18v.28a.12.12 0 00.06.17v.28c0 .13 0 .17.14.2v.26c-.1.09-.11.18 0 .26v.28c0 .08 0 .14.08.17v.38c0 .1 0 .19.06.26v.28c0 .11 0 .2.08.26v.29c0 .13-.07.25.07.35v.19c0 .1 0 .2.08.26v.29c0 .13-.07.26.07.35v.19c0 .13-.07.27.09.35v.2c0 .1 0 .2.07.26v.19c0 .1 0 .2.08.26v.2c0 .1 0 .2.07.26v.19c0 .1 0 .2.09.26v.19a.12.12 0 00.06.18v.19a.12.12 0 00.07.17v.19a.81.81 0 00.17.62v.2a.12.12 0 00.07.17v.12a.61.61 0 00.16.45v.19a.13.13 0 00.08.17v.19a1.33 1.33 0 00.25.72v.19c0 .19 0 .38.23.47v.35c0 .19 0 .38.23.47v.34c0 .19 0 .39.24.49l.05.42a.33.33 0 00.16.36l.1.46a3.06 3.06 0 00.34 1v.19a.12.12 0 00.09.17v.2a.51.51 0 00.15.44v.19a.72.72 0 00.17.53v.2a.56.56 0 00.16.53v.19a.13.13 0 00.06.18v.19c0 .1 0 .2.08.26v.19c0 .27 0 .56.23.74v.17c-.1.09-.11.18 0 .26v.2c0 .12-.06.26.09.35v.19c0 .13-.07.26.07.35v.2c0 .1-.05.2.08.26v.28c0 .1-.05.2.06.26v.29c0 .12-.06.26.09.35v.37c0 .13-.07.26.06.36v.28c0 .15-.09.32.08.44v.29c0 .15-.09.31.07.44v.19c0 .18-.1.38.14.47v.35a.22.22 0 000 .35v.38c0 .15-.08.32.08.44v.37c0 .13-.07.26.07.36v.37c0 .16-.08.32.08.44v.38c0 .15-.08.31.07.44v.38c0 .21-.1.43.08.62v.47c0 .18-.09.37.07.53v.65a2.4 2.4 0 00.09 1.16 2.1 2.1 0 00.07.83.71.71 0 000 .72v1.38a5.71 5.71 0 00.08 1.89 10.2 10.2 0 00.07 1.46 2.56 2.56 0 000 1.29l.05 3.32a3.22 3.22 0 000 1.66 14.77 14.77 0 00-.07 2.74c-.2.27-.1.57-.09.86a3.27 3.27 0 00.09 1.39 18.39 18.39 0 000 2.1 2.57 2.57 0 00.07 1.17v1.47a6 6 0 00.08 1.89 2.39 2.39 0 00.07.92c0 .05-.08.1-.08.16v4.47a8 8 0 000 1.38 4.42 4.42 0 00-.08 1.62v.73c-.17.23-.08.48-.07.72v.67c-.18.19-.09.41-.08.62v.38c-.16.16-.09.35-.07.53s0 .31 0 .47c-.2.1 0 .22 0 .33s-.06.11-.11.13c-.89.54-1.77 1.09-2.68 1.6a15.58 15.58 0 01-2.74 1.37 2.75 2.75 0 000-.64c-.24-1-.41-2-.56-3-.25-1.69-.63-3.37-.84-5.06s-.36-3.39-.55-5.08c-.25-2.24-.62-4.47-.94-6.71-.25-1.75-.54-3.51-.79-5.26-.23-1.55-.4-3.11-.67-4.65s-.43-3.2-.68-4.79-.56-3.44-.86-5.16c-.21-1.19-.45-2.37-.6-3.56-.2-1.53-.43-3-.59-4.57s-.47-3.16-.68-4.74c-.26-1.93-.66-3.83-1-5.73-.14-.74-.33-1.47-.42-2.22-.13-1-.19-2-.27-3a13.9 13.9 0 01-.08-1.44c0-.7.13-1.39.14-2.08 0-1.27-.18-2.52-.18-3.8a2 2 0 00-1.41-1.76 1.85 1.85 0 00-2.09.82 12.72 12.72 0 00-1.57 3.65 23.59 23.59 0 00-.4 6.11c.05 2.48.15 5 .22 7.43 0 .81-.05 1.61 0 2.41.17 1.94.2 3.89.35 5.83.08 1.15.16 2.31.28 3.46s.19 2.22.27 3.33c.06.88.14 1.75.2 2.62.1 1.28.25 2.55.34 3.83 0 .8.12 1.59.2 2.39.1 1 .23 2 .33 3 .14 1.32.24 2.65.4 4s.39 2.89.61 4.34c.28 2 .6 3.93.87 5.9.2 1.46.36 2.93.49 4.41.1 1.16.23 2.32.43 3.48.28 1.65.6 3.29.94 4.93.23 1.18.39 2.37.72 3.53a9.72 9.72 0 01-1.87.18 16.9 16.9 0 01-3.76-.15.7.7 0 00-.06-.35c-.38-.69-.74-1.39-1.12-2.08a57.59 57.59 0 01-4.52-10.75q-1.09-3.48-2.11-7c-.75-2.56-1.49-5.13-2.17-7.71-.48-1.86-.82-3.74-1.23-5.62a34.31 34.31 0 01-.72-5c-.07-1-.13-2.06-.23-3.08-.15-1.48-.26-3-.27-4.46v-7.1c0-1.25-.22-8.9-.22-10.16a1.7 1.7 0 00-1.75-1.67 2.22 2.22 0 00-1.91 1.5c-1.38 4.17-2.26 16.17-2.3 17.68-.06 2 .12 4 .25 6 .11 1.65.19 3.31.37 5 .26 2.33.73 4.62 1.19 6.91.32 1.57.69 3.13 1.09 4.68 1.05 4 2 8.06 3.05 12.08a42 42 0 002.67 7.72c-.09 0-.14 0-.21-.06a34.08 34.08 0 01-7.59-7.62c-.6-.79-1.1-1.65-1.75-2.41a.57.57 0 00-.12-.37 40 40 0 01-2-3.68 43.05 43.05 0 01-3-6.94c-.55-1.92-2.22-5-2.78-6.9-.87-3-3.66-11.85-3.9-13.36z"/><path class="cls-11" d="M2012.74 515.42a8.43 8.43 0 003.34 1.74 3.61 3.61 0 01.46.17 8.27 8.27 0 00.11 1.31c.08 1.19.17 2.37.27 3.56.15 1.65.31 3.3.44 4.95.1 1.22.22 2.43.3 3.65.1 1.79.29 3.57.43 5.36.08 1.05.12 2.11.19 3.16.15 2.18.29 4.37.45 6.55.06.88.12 1.77.2 2.66.18 1.91.37 3.83.6 5.75s.48 3.67.77 5.5c.32 2 .69 4 1.08 6 .59 3.08 1.17 6.16 1.83 9.22.78 3.65 1.52 7.31 2.17 11 .8 4.5 1.91 8.93 3 13.36.75 3 1.6 6 2.43 9 .66 2.38 2.82 9.93 1.83 9.69-2.89-.7-8.92-17.3-10.61-21-1.28-2.79-2.62-5.54-3.7-8.42-.88-2.36-1.67-4.76-2.41-7.16-.5-1.62-1-3.23-1.57-4.82a45.44 45.44 0 01-2.36-9.19l-.84-6c-.34-2.4-.77-4.79-1.15-7.18-.26-1.6-.5-3.21-.73-4.82-.17-1.25-.32-2.51-.44-3.77s-.19-2.61-.3-3.92c-.16-1.91-.24-3.82-.42-5.72-.14-1.46-.29-2.91-.41-4.37q-.23-2.84-.34-5.69c0-.48 0-1-.05-1.44a12.67 12.67 0 010-3.74v-.16a.43.43 0 00.34-.39l.1-.09a.6.6 0 00.36-.45.5.5 0 00.28-.34.88.88 0 00.54-.57 10.16 10.16 0 001.27-1.27 1.1 1.1 0 00.65-.62.54.54 0 00.35-.29.6.6 0 00.44-.36.41.41 0 00.38-.34h.07c.36-.15.44-.43.65-.51zM2094.62 651.6c-.21 0-.18-.2-.18-.35v-.82c0-1.48 0-3-.1-4.44s-.12-3.16-.18-4.75-.11-3.19-.18-4.79-.13-3.11-.18-4.66c-.06-1.91-.13-3.83-.28-5.74-.12-1.5-.31-3-.5-4.49s-.43-3.28-.66-4.91q-.48-3.33-1.14-6.63a68.88 68.88 0 00-2.54-9c-.9-2.63-1.82-5.27-2.71-7.91-.37-1.07-.7-2.15-1.1-3.2-.19-.47-.13-.56.35-.48s1.24.07 1.85.13a9.9 9.9 0 001.8-.07c.64-.06 1.28-.18 1.92-.25a4.47 4.47 0 00.65-.2c.32.16.61-.07.92-.07a1.08 1.08 0 00.13.43c1 2.37 2 4.74 2.9 7.18 1.13 3.14 2.22 6.28 3.21 9.47.77 2.51 1.44 5 2 7.61.4 1.88.85 3.76 1.17 5.66.22 1.37.38 2.75.48 4.13s.1 2.68.19 4a46.13 46.13 0 01-.2 5.12c-.07 1.74-.27 3.48-.42 5.22-.1 1.09-.23 2.19-.35 3.28-.08.79-.18 1.58-.27 2.38a1.57 1.57 0 000 .23.22.22 0 00-.16.22.15.15 0 000 .07.18.18 0 00-.17.2.17.17 0 000 .07.2.2 0 00-.18.2 10.35 10.35 0 00-.91 1.26.18.18 0 00-.17.2.15.15 0 000 .07.18.18 0 00-.17.2c-.24.11-.29.37-.45.55a.38.38 0 00-.27.36.14.14 0 000 .07.18.18 0 00-.17.2.5.5 0 00-.28.34.19.19 0 00-.17.2.34.34 0 00-.2.26.28.28 0 00-.25.29.08.08 0 000 .07 1.09 1.09 0 00-.62.66 1.66 1.66 0 00-.64.72l-.09.1a3.82 3.82 0 00-1 1.08 2 2 0 00-.68.53zM2054 515.21a5.53 5.53 0 011.39-1.11 20.88 20.88 0 002.8-2.61 6.37 6.37 0 01.59-.57c.64.39 1.39 1.21 2 1.67.93.64 3.47 4.89 4.5 6.59a24.18 24.18 0 012.58 5.67c.54 1.81.91 3.66 1.41 5.47.42 1.53.9 3 1.26 4.58.93 4 1.82 8.09 2.71 12.14a34.46 34.46 0 01.65 4.65 16 16 0 01-1.43-1.15 8 8 0 00-5.73-1.77 6.29 6.29 0 00-3.56 1.51c-.1.09-.18.21-.33.21-.26-1.56-.52-3.12-.81-4.67-.42-2.17-.79-4.35-1.19-6.52-.27-1.51-.55-3-.82-4.53-.52-2.86-1.18-5.69-1.92-8.5-.47-1.78-1.07-3.51-1.69-5.24-.76-1.98-1.55-3.92-2.41-5.82zM1997.27 541.77c.29-.9.6-1.8.88-2.7.57-1.78 1.13-3.56 1.71-5.41a1.16 1.16 0 01.2.76c0 .78.13 1.56.13 2.35 0 1.71.12 3.43.18 5.14s.2 4.18.37 5.77.32 3.31.52 5 .39 3.25.56 4.88c.14 1.38.36 2.75.52 4.12s.28 2.82.47 4.22c.3 2.06.54 4.12 1 6.16a59.46 59.46 0 001.87 6.67c.68 2 1.33 4.13 1.95 6.2a94.72 94.72 0 003.4 9.53c1.22 2.91 3.51 5.64 4.86 8.49.08.16 2.6 3.89 2.24 4.13-.3-.11-6.7-6-7.11-6.62-1.19-1.47-5.16-7-5.51-7.64-.58-1.07-4.6-8.44-4.68-8.61-.75-1.58-1.21-3.83-1.86-5.45-4.9-9.13-3.42-22.59-3.49-24.1v-.41a10.67 10.67 0 00.16-2.33v-.13a6.29 6.29 0 00.18-1.73v-.18a.6.6 0 00.09-.15 56.59 56.59 0 01.91-5.64c.14-.71.29-1.41.44-2.11zM2110.05 619.89c-.41-.16-.3-.56-.35-.85-.26-1.62-.59-3.23-1-4.82-.34-1.37-.67-2.74-1-4.11-.47-1.69-.88-3.41-1.43-5.08-.75-2.24-1.43-4.5-2.2-6.74-1.12-3.23-2.5-6.37-3.89-9.49-.29-.65-.55-1.31-.82-2a23.74 23.74 0 012.79-1.21l.21.2a.62.62 0 00.44.47.14.14 0 000 .07 3.11 3.11 0 00.89 1.11.15.15 0 000 .07.67.67 0 00.35.48.25.25 0 000 .07.18.18 0 00.16.2.14.14 0 000 .07.65.65 0 00.34.48l.11.25a.4.4 0 00.26.38l.11.25a.19.19 0 00.16.21l.2.43a.41.41 0 00.25.39l.29.61a.2.2 0 00.16.21v.15c.05.18 0 .39.26.48v.15c0 .12.05.18.15.21v.16c.11.3.12.65.42.85a2 2 0 000 .24c.2.56.39 1.13.62 1.68.34.82.52 1.7.9 2.5a1.1 1.1 0 010 .18 19.9 19.9 0 00.71 2.27v.18a.65.65 0 00.16.46 1.1 1.1 0 000 .18.69.69 0 00.16.55v.17a1 1 0 00.16.64 1.1 1.1 0 010 .18 1.05 1.05 0 00.17.73v.18a13.31 13.31 0 00.35 2.36v.19a5 5 0 00.17 1.54v.36c0 .31-.1.62.08.91v4.55c-.19.29-.08.6-.09.91v.5c-.15.16-.08.36-.08.54v.19c-.16.19-.08.42-.07.63v.46a3.29 3.29 0 00-.17 1.36v.18a3.42 3.42 0 00-.17 1.27z"/><path class="cls-12" d="M2033.69 523.1a9.51 9.51 0 01-1.91-.31 67.81 67.81 0 00-8.14-1.51 6.29 6.29 0 01-1.51-.42 1 1 0 00-.3 0c-.61-.14-1.23-.28-1.84-.44l-5.5-1.47c-.15-.06-.3-.13-.46-.18a8.37 8.37 0 01-3.34-1.74c0-.23-.23-.38-.36-.56a4.52 4.52 0 01.43-5.91 5.75 5.75 0 014.91-1.4 10.06 10.06 0 002.33.22h.13a4 4 0 001.32.19c.12 0 .28.06.34-.06s-.1-.24-.2-.31a16.27 16.27 0 01-2.24-2 5.3 5.3 0 01-1.56-4.41 4.06 4.06 0 012.08-3.15 5.16 5.16 0 014.8-.06c2 .92 4.17 1.31 6.17 2.2.21.09.29 0 .24-.21a2.91 2.91 0 00-.12-.39 46.5 46.5 0 01-2.17-8.54 5.83 5.83 0 01.65-3.85 4.42 4.42 0 013.08-2.06c2.65-.46 3.65 1.37 5.33 2.83a5.26 5.26 0 01.61.64 39.36 39.36 0 013.57 6.63 4.79 4.79 0 00.41.92c0 .16 0 .37.19.41s.15-.15.17-.27c.53-3 .79-6 1.19-9a12.82 12.82 0 011.28-4.36 4.81 4.81 0 015.17-2.51c1.68.1 3.43 2.2 3.43 2.2.36.89 1.72 2.38 1.35 4.85 0 .07.33 6.19-.55 9.14 0 0-.29 1.31-.41 1.9 0 .21.13.13.24.06.36-.24.72-.5 1.09-.73a6.54 6.54 0 015.84-.71 4.91 4.91 0 013.18 4.33c.3 2.55-2.13 6.08-2.13 6.11s-3.31 3.78-3.36 3.83a25.85 25.85 0 01-3.31 2.68l-2 1.42a53.26 53.26 0 01-5.17 3.24 11 11 0 01-1.44.74 1.36 1.36 0 01-.43.11c.57-1.71 1.14-3.41 1.7-5.12.86-2.63 1.79-5.23 2.53-7.89.37-1.33.68-2.66 1.07-4a5.21 5.21 0 00.27-1.36 2.2 2.2 0 00-1.18-2.06 2.34 2.34 0 00-2.65.13 6.72 6.72 0 00-2.46 3.18c-1.24 3.36-2.45 6.73-3.67 10.1-.05.13 0 .33-.24.32s-.15-.17-.19-.28c-1-2.82-2-5.65-3.07-8.47a46.52 46.52 0 00-2.15-5.34 5.26 5.26 0 00-1.78-2 1.35 1.35 0 00-2 .82 8.42 8.42 0 000 1.81 39.76 39.76 0 001.28 5.41c.62 2.26 1.29 4.49 1.92 6.75.08.27.36.72.15.82s-.44-.35-.65-.57c-1.71-1.89-3.26-3.92-5-5.78a2.32 2.32 0 01-.8-1.33 1.24 1.24 0 00-.39-.65 2.34 2.34 0 00-2.64-.45 2.5 2.5 0 00-1.77 1.84 3.09 3.09 0 00.33 2.19 63.33 63.33 0 004.93 7.57 41.63 41.63 0 004.56 5.28c.3.32.55.66.82.99z"/><path class="cls-13" d="M2041.39 523c.6-.33 1-.87 1.66-1.16a11.12 11.12 0 001.76-.7c.57-1.71 1.14-3.41 1.7-5.12.86-2.62 1.79-5.23 2.53-7.89.37-1.32.68-2.66 1.07-4a5.37 5.37 0 00.27-1.37 2.2 2.2 0 00-1.18-2.05 2.32 2.32 0 00-2.65.13 6.68 6.68 0 00-2.46 3.18c-1.24 3.36-2.45 6.73-3.67 10.09-.05.13 0 .34-.24.33s-.15-.17-.19-.28c-1-2.83-2-5.66-3.07-8.48a49.2 49.2 0 00-2.15-5.34 5.33 5.33 0 00-1.78-2 1.36 1.36 0 00-2 .82 7.91 7.91 0 000 1.82 40.48 40.48 0 001.28 5.41c.62 2.25 1.29 4.49 1.92 6.74.08.28.36.73.15.82s-.44-.35-.65-.57c-1.71-1.89-3.26-3.92-5-5.78a2.24 2.24 0 01-.8-1.32 1.23 1.23 0 00-.39-.66 2.35 2.35 0 00-2.65-.45 2.52 2.52 0 00-1.76 1.84 3.09 3.09 0 00.33 2.19 44.28 44.28 0 003.49 5.85c1.8 2.52 6.75 8 6.75 8s6.24.46 7.73-.05zM2158.13 658.62c.24-.13 0-.16.08-.9z"/><path class="cls-12" d="M2076.32 586.2a5.91 5.91 0 00-1-1.68 30 30 0 00-3.08-3.84 25.43 25.43 0 01-3.77-5.48c-1.34-2.54-2.57-5.14-4-7.64-.06-.1-.09-.23-.23-.26a4.49 4.49 0 00-.5-1.17c-1.46-2.91-2.93-5.81-3.11-9.17a9.34 9.34 0 01.85-4.81 15.91 15.91 0 011.22-1.7c.15 0 .23-.12.34-.21a6.31 6.31 0 013.59-1.46 7.91 7.91 0 015.71 1.88 16 16 0 001.42 1.19c.19.54.69.84 1 1.29.14.2.29.56.53.47s0-.45 0-.68a.66.66 0 010-.14c.06-1.88-.09-3.76.06-5.64s.18-3.58.4-5.35a9.7 9.7 0 011.08-3.76 6.07 6.07 0 015.69-3.35 6.73 6.73 0 014.71 2.18 12.89 12.89 0 012.76 4.7 36.09 36.09 0 011.47 5.81 94.87 94.87 0 011.41 10.48c0 .55.1 1.09.17 1.64 0 .12 0 .31.16.34s.17-.14.23-.25c.29-.53.57-1.07.87-1.61a52.58 52.58 0 014.09-6.33 17.7 17.7 0 001.52-2 .07.07 0 000-.06c.32-.11.46-.43.65-.67a11 11 0 001.18-1.45.09.09 0 000-.06 1.55 1.55 0 00.71-.76.06.06 0 000-.06 3.22 3.22 0 001.08-1.12l.1-.09c.18-.06.28-.23.41-.35a65.11 65.11 0 014.85-4.56 8.09 8.09 0 015.54-2 6.3 6.3 0 015.56 4.17 2.61 2.61 0 00.34.93v.18c0 .06-.09.38.11.5v.15a6.64 6.64 0 000 1.94v.24c-.23.16-.18.37-.1.59a2.28 2.28 0 000 .26 1.81 1.81 0 00-.21 1v.28a.82.82 0 00-.17.64v.28c-.13.07-.11.21-.14.32a26.87 26.87 0 01-1.1 3.43 10.71 10.71 0 00-.66 1.65l-.15.41a.44.44 0 00-.23.27c-.91 1.85-1.92 3.65-2.92 5.45-.05.08-.13.15-.08.25s.19.09.29.07c.38-.06.77-.15 1.16-.2a9.63 9.63 0 013.82.11 5.49 5.49 0 013.91 6.8 12.67 12.67 0 01-1 2.19.1.1 0 000 .07c-.47.3-.7.81-1.07 1.2-.21.22-.51.4-.58.73a.09.09 0 000 .06 1.57 1.57 0 00-.72.76.27.27 0 00-.18.18 16.66 16.66 0 00-1.85 1.81l-.1.09a8.65 8.65 0 00-1.66 1.54.93.93 0 00-.2.08c-1.13 1-2.33 1.92-3.54 2.82a3.93 3.93 0 00-1 .77.19.19 0 00-.16.11.18.18 0 00-.21.16h-.06c-.14 0-.23.08-.33.14-.87.57-1.76 1.13-2.62 1.71a51.13 51.13 0 01-5.71 3.36 3.39 3.39 0 00-1.31.76 24.5 24.5 0 00-2.81 1.17 9.85 9.85 0 00-1.59.52c-1.79.58-3.61 1.08-5.45 1.48-.31 0-.6.23-.92.06.45-.47.88-1 1.35-1.42 1.92-1.9 3.85-3.78 5.78-5.66a61.53 61.53 0 004.84-5.11c.92-1.13 1.81-2.29 2.7-3.45a2.61 2.61 0 00.41-2.64 2.52 2.52 0 00-3.8-1.14c-.3.21-.58.44-.87.66a54.32 54.32 0 00-4.44 3.4c-1.36 1.25-2.71 2.5-4 3.78-1.18 1.14-2.33 2.32-3.5 3.48-.09.09-.17.28-.32.19s0-.26 0-.39c.18-.66.37-1.32.53-2 .44-1.84.87-3.67 1.25-5.52a16.62 16.62 0 00.28-4.14 2 2 0 00-1.18-1.92 1.89 1.89 0 00-2 .69 16.56 16.56 0 00-2.84 5.4c-1 3-1.83 6-2.62 9 0 .12 0 .27-.23.32a1.54 1.54 0 01-.05-.17c-.45-1.9-.83-3.82-1.21-5.73-.47-2.42-1-4.82-1.43-7.24a6.22 6.22 0 01-.13-2.36 1.93 1.93 0 00-.16-1.12 2 2 0 00-1.81-1.25 2.09 2.09 0 00-1.91 1.39 14.05 14.05 0 00-.47 5.12c.27 1.7.6 3.39.94 5.09.52 2.65 1 5.31 1.49 8 .11.58.23 1.16.33 1.75 0 .14.11.34 0 .42s-.22-.12-.32-.2a8.93 8.93 0 00-.87-.87.29.29 0 00-.21-.12z"/><path class="cls-13" d="M2091.61 589.32c4.14-3.69 21.74-18.68 13.24-20.35-14.8 6.23-16.68 23.24-13.18.13-3.75-8.28-8 11.32-8.94 13.95-1.94-3.64-2.2-22.6-6.75-17.45-3.15 3.79-.06 17.29.72 20.86a1.35 1.35 0 001.08 1l12.4 2.23a1.69 1.69 0 001.43-.37z"/><path class="cls-9" d="M2044.93 652.18c.65.76 1.15 1.62 1.75 2.41a33.67 33.67 0 007.59 7.62c.06 0 .12.09.2.06l.16.12a.37.37 0 00.38.25.1.1 0 00.07 0 .36.36 0 00.39.23.08.08 0 00.06 0 1.13 1.13 0 00.76.41l.13.07c0 .1.13.12.21.16a20.54 20.54 0 003.35 1.34 3.74 3.74 0 001.4.3h.18c0 .1.1.11.18.05h.27a.18.18 0 00.27 0h.18c.05.1.11.1.19 0l.45.06a.18.18 0 00.27.05h.18c.11.13.23.11.37 0a1.18 1.18 0 00.53 0 17.55 17.55 0 003.76.16 10.8 10.8 0 001.88-.19h.25a.35.35 0 00.45-.07h.28a.26.26 0 00.36 0h.36c.14.06.27.08.37-.07h.18a.17.17 0 00.27 0h.27a.86.86 0 00.73-.15h.18c.14.08.26 0 .39 0a21.63 21.63 0 003-.93c.15-.05.34-.06.42-.23l.22-.09a.85.85 0 00.68-.3.09.09 0 00.06 0 16.64 16.64 0 002.73-1.38c.91-.51 1.8-1.06 2.69-1.59a.85.85 0 00.11-.14 13.92 13.92 0 002.11-1.3 66.1 66.1 0 006.52-5.06.66.66 0 01.7-.18 8.45 8.45 0 015.37 4.86c.08.2.07.43.24.58v.12a1.39 1.39 0 00.16.78v1.81a1.47 1.47 0 00-.16.77v.13a9.15 9.15 0 00-.57 1.42.28.28 0 00-.14.26.66.66 0 00-.28.46.26.26 0 00-.18.27l-1.82 1.83a.5.5 0 00-.38.28h-.07c-.1 0-.16 0-.19.13a.3.3 0 00-.28.19.89.89 0 00-.4.2 48.83 48.83 0 01-13.74 5.6 12 12 0 00-1.88.46h-.12a1.53 1.53 0 00-.87.17h-.13a1.46 1.46 0 00-.87.16h-.13a1.34 1.34 0 00-.66 0 74.19 74.19 0 01-8.78 1c-3.94.23-7.87.6-11.8.86a65.73 65.73 0 01-11.82-.13 18.38 18.38 0 01-7.92-2.67 10.46 10.46 0 01-4.15-4.51 10 10 0 01.1-7.95 10.32 10.32 0 014.84-5.27 58.91 58.91 0 018.14-3.42z"/><path class="cls-2" d="M1575.12 555.61c-3.16-.37-17.86-6.2-19.92-8.62-3.17-3.44-3.2-6.08-3.43-10.13-1-17.94 24.22-35.05 27.32-36.81a99.29 99.29 0 0124.09-10c12.08-3 24.75 0 24.8 0s29.38 9.2 37.55 22.74a13.14 13.14 0 01-.19 10.06c-1 2.66-22.57 24.31-35.72 28.63 0-.02-37.18 6.15-54.5 4.13z"/><path class="cls-6" d="M1603.48 514.65c4.81-.91 9.62-1.47 14.45-.39 8.17 1.82 13.63 6.65 15.9 14.79 1.29 4.63 3.29 9.76 3.35 14.63 0 2.25.78 3.77-1.18 4.89a32.47 32.47 0 01-7 3.52 115.74 115.74 0 01-37.73 5.17c-9.76-.29-15.81-1.4-15.85-1.65-.83-4.92-1.36-10.36-.51-15.33a23.15 23.15 0 016.79-13.17c4.43-4.27 9.24-8 15-10.25 2.23-.86 4.52-1.48 6.78-2.21z"/><path class="cls-14" d="M1206.6 537.4s-7.9 6.13-18.95-4.59l-2.09-45c-1.48-13.8-15.51-23.12-29.2-19.13l-1 .3a31 31 0 00-14 27.25c.7 18.73-5.27 21.45 2.81 51.76 2.33 8.78 8.24 32.86 22.72 37.21l33.08 9a18.61 18.61 0 0111.22 5.56l.35 38.14a10.63 10.63 0 009 8.38c11.23 1.63 32.52 4 47.23 1.38a10.71 10.71 0 008.9-10.19l1.91-74.15s41.06-6.47 55.45-18.38 19-33.38 19.65-41.21c.54-6 .66-28.25.69-38.12a26.77 26.77 0 00-2.87-12.18c-3.17-6.24-14.73-22.54-25.37-22.75-7.14-.14-12.58 5-17.37 7.66-6.84 3.86-6.3 16.44-6.35 24.12-.08 11.42-.31 28.89-1 30-1 1.7-22.81 2.38-22.81 2.38l.71-148.47s-4.92-27.25-25.62-31-40.71 9.87-41.41 23.49-1 97.4-1 97.4-.89 91.76-.88 92c-.08.91-1.95 8.84-3.8 9.14z"/><path class="cls-9" d="M1214.79 640.93c-1.17-1-3-5.73-3.51-5.45-2.86 1.52-4.57 9.2-2.46 13.51 4.61 9.44 49.13 9 70.65 6.24 13-1.64 18.32-5.28 20.13-8.6a5.75 5.75 0 00-1.36-7 27.73 27.73 0 00-13.54-6.53 2.87 2.87 0 01-2.44-2.78l-.22-37.93s-.7-16.12-3.51-16.12c-.91 0-1.58 2.66-1.58 7 0 14.8-1 36.3-.9 54.08a8.12 8.12 0 01-6.58 7.67c-14.2 2.5-22.36 3.6-48.49-.62-2.98-.55-6.19-3.47-6.19-3.47z"/><path class="cls-2" d="M1242.39 474.57s-1.75-10.73-5.26-12.94-4.92-.68-5.09.85 1.75 13.79 4.91 15 5.79 1.18 5.44-2.91zM1266.43 458.74s-3.34-3.92 13.33-15.33c0 0 9.3-3.06 5.09 6L1272 459.42s-3.12 3.58-5.57-.68zM1255.37 421.45s-3.15.17-3.68 2.72-3.33 9.71-2.46 11.24 1.06 3.75 4 3.57 3.86-5.27 3.86-5.27l1.4-9.2s-.31-3.23-3.12-3.06zM1226.07 414.81s-6-.86-5.44-12.77c0 0-.35-4.94 2.64-5.45s4 2.89 4 2.89.7 8.52 1.76 10.73c.03 0 .73 4.43-2.96 4.6zM1268.3 394.32c2.6-1.7 8.2-5.23 10.06-5.23 0 0 3.16-1.53 5.61-.85 0 0 4.74 2.05 1.41 5.28a16.5 16.5 0 01-7 3.75s-4.91 2.38-6.67 2.55c0 0-3.48.51-4.55-1.79a3 3 0 011.14-3.71zM1216.24 438.57a4.68 4.68 0 00-1.49-3.12c-1.73-1.62-5.12-4.37-8-4.13 0 0-5.09-.68-4.56 3.58 0 0 1.76 3.57 5.09 4.26.02 0 9.32 5.58 8.96-.59zM1218.18 368.32l-6.49-6.64s-6-2.21-6.67.85c0 0-2.81 1.87 1 5.62s7.72 6.47 9 6.47 7.72-1.19 3.16-6.3zM1245.9 341.93s-3.86-2.9 1-7c0 0 4-4.6 6.49-1.71 0 0 4.92 3.92-2.45 8.52.06.02-1.36 2.06-5.04.19zM1248.33 375.93c.54-3.66 2.66-15.61 7.39-18.34 0 0 5.62-2.72 5.62 2.73l-7.37 16s-2.31 3.08-4.51 1.94a2.24 2.24 0 01-1.13-2.33zM1325.48 558c-3.66-1-15.56-4.69-17.7-9.62 0 0-2-5.77 3.55-5l15.33 9.28s2.82 2.64 1.35 4.59a2.36 2.36 0 01-2.53.75zM1220.11 492.62s-7.37-9.36-9.83-10c-2.25-.63-4.91 2-3.68 5.44 0 0 4.38 10.05 11.75 10.56 0-.04 5.09.64 1.76-6zM1252 489.39s-3.69-2.45-7.8 6.21a8.87 8.87 0 01-.6 1.09c-.69 1.06-3.35 5-2.48 6.83 1.76 3.74 2.68 2.56 4.39 2.72s3.67-3.21 4.56-4.76c1.79-3.07 4.78-9.71 1.93-12.09zM1310.7 469s-7.25-4-8.19-4.42c0 0-5.26-3.3-5.73 1.47a4.3 4.3 0 002.81 4.54l7.48 3.63a3.8 3.8 0 004.1-.79 3.32 3.32 0 00-.47-4.43zM1323.45 467.36s-3.63-.56-3.63-7.26.71-7.83 2.23-8.63c0 0 4.21-1.13 4.79 2.16a54.2 54.2 0 00.12 5.9s1 3.07.82 4.2a3.69 3.69 0 01-4.33 3.63zM1343.8 466s.59-2.61 10.18-7.49c0 0 3-1.59 4.68-.45s2.57 2.72 1.87 3.86c0 0-.7 3.06-4.91 4.54l-8.42 3.4s-3.75 1.02-3.4-3.86zM1342.7 498.09a4.1 4.1 0 012.44-1.88c2.19-.64 7.08-2.13 9.31-3.08 2.92-1.25 4-2.38 6.2-1.47s3.16 1.93 2.45 3.52a21.18 21.18 0 01-9.68 6 7.14 7.14 0 00-1 .33c-1.21.51-4.9 1.82-8.36.61-.06-.02-2.7-1.6-1.36-4.03zM1310.35 498.92s-.12-4.54 5-7.6c5-3 6.34.85 4 4.48a8.89 8.89 0 00-.45.79c-.55 1.14-2.19 4.36-3.44 4.83.04 0-3.82 2.72-5.11-2.5zM1176.3 469.75c5.73-8.63 9-3.18 9-1.14s-2.57 8.06-8.54 11.81c-1.36.86-6.19-2.04-.46-10.67zM1318.7 519.8c-2.28-10 4-8.44 5.51-7s4.08 7.45 2.62 14.2c-.33 1.54-5.83 2.83-8.13-7.2zM1182.85 510.84s1.06-4.09 6.67-5.79 5.15 2.61 5.15 2.61-.12 3.18-4.68 5.22c.01 0-6.79 4.43-7.14-2.04zM1148.93 505.65a4.49 4.49 0 00-.17-5.15c-1.92-2.63-3.46-4.2-7.43-7 0 0-3.53-3-4.82.27a4.82 4.82 0 00.31 4 24.33 24.33 0 005.68 6.82s4.03 4.59 6.43 1.06zM1174.2 544.33s-6.46-6.92-8.89-6.59c-.82.12-5.38-1-5.27 3.52a4.47 4.47 0 002.34 3s4.92 6.82 8.66 7.95c0 0 4.33 2.16 6.2-1.25 0-.05 2.69-2.43-3.04-6.63zM1192.68 557.16s-2.46-.35-2.69 2.61l-.47 11.57s.23 3.86 3 3.75c0 0 3.63.57 4-3.86.02 0 1.54-14.3-3.84-14.07zM1164.49 590.76l2.1-6.82a3.34 3.34 0 013.86-2.72c3.4.34 2.34 4.65 2.34 4.65l-2.69 6.82s-.23 1.81-3.39 1.36a2.44 2.44 0 01-2.22-3.29zM1232.71 592.1l4.42-6.23s1.87-1.93 3.62-.79 2.11 2.27 1.64 3.29-4.56 7.49-4.56 7.49a4.3 4.3 0 01-4 .69 2.67 2.67 0 01-1.69-2.5 2.91 2.91 0 01.57-1.95zM1258 577.13a19 19 0 00-.94-5.44c-.82-1.82.94-4.66.94-4.66s2.57-1.82 3.62.68a46 46 0 012.69 7.83c.12 1.25.94 4.55.35 5.23s-2.45 2.27-4.09 1.7-2.51-2.38-2.57-5.34zM1249.06 612.15s-3.34-1.36-6.85 9.71c0 0-2.28 6.81 2.11 7 0 0 4.39 1.53 5.79-5.28 0 0 2.81-7.15 2.11-9.19 0-.02-.88-3.26-3.16-2.24zM1208.7 617.43c.7 0 9-1.53 9.65 1.53s.88 4.26-.7 4.77-7.37 1.88-9.82 1.19-5.29-3.42-4-4.76c1.71-1.88 1.89-2.73 4.87-2.73z"/><path class="cls-10" d="M1368.35 425.69c-1.56 2.49-4 4.07-6.45 5.53a82.44 82.44 0 01-18.56 8l-3.91 1.2-.18.06a21 21 0 01-3.49.87 4.89 4.89 0 01.45-.46c2.48-1.9 5-3.77 7.44-5.7a47.83 47.83 0 004.91-4.19 4 4 0 001.19-2.1 2.81 2.81 0 00-2.76-3.05 6.56 6.56 0 00-4.06 1.29c-2.43 1.49-4.82 3-7.11 4.72-.21.16-.41.42-.84.26.2-.56.42-1.11.6-1.67.87-2.72 1.71-5.46 2.61-8.18.48-1.44 1-2.86 1.6-4.28a8.51 8.51 0 00.2-5.09c-.28-1.2-1.17-1.54-2.45-1.1a2.61 2.61 0 00-.56.32 10.06 10.06 0 00-4 5.05c-2 5.1-4.47 10-6.93 14.85-.1.2-.13.5-.48.49a1.45 1.45 0 01-.28-.68c-.82-3.36-1.53-6.75-2.18-10.14-.43-2.21-.76-4.45-1.32-6.64a3.65 3.65 0 00-1-1.95 1.8 1.8 0 00-2.29-.21 3.05 3.05 0 00-1.31 1.77 18.64 18.64 0 00-.35 3.15 33.59 33.59 0 00.74 10.09 37.35 37.35 0 01.92 5.84 68.53 68.53 0 00.67 7.16l-2.08-.56L1312 439a.54.54 0 00-.47-.21c-3.35-1.26-6.72-2.49-10.06-3.8a44.87 44.87 0 01-6.27-3 9.25 9.25 0 01-1.8-1.36 4.84 4.84 0 01-1.23-5.47 5.07 5.07 0 014.73-3.36c.82-.07 1.66 0 2.46 0 .21-.44-.14-.56-.32-.74a36.9 36.9 0 01-3.11-3.27 8.4 8.4 0 01-2-4.62c-.18-2.74 1-5.29 4.09-6.07a6.39 6.39 0 013.44.2 47.54 47.54 0 015.07 1.64.54.54 0 00.58 0 1.87 1.87 0 00-.29-.94 37.41 37.41 0 01-2.38-8.12 17.3 17.3 0 010-5.18c.64-4.42 5-5.76 8.49-3.82a9.48 9.48 0 012.57 2.27 18.44 18.44 0 013 5q1.67 4.08 3.25 8.19c1.32 3.41 2.72 6.78 3.85 10.24 0 .06.09.11.21.25a2.83 2.83 0 00.35-1.09c.82-4.15 1.59-8.32 2.15-12.51.4-3 .73-5.95 1.36-8.89a27 27 0 011.68-5.25 6.45 6.45 0 011.31-1.94 4.94 4.94 0 017.73 1 10.54 10.54 0 011.27 4.24 79.09 79.09 0 01.46 11.1v1.17a3.78 3.78 0 001-1.24 60.29 60.29 0 013.85-5.77 10.23 10.23 0 012.65-2.64 5.32 5.32 0 013.84-.79 4.39 4.39 0 013.16 2.37 5.07 5.07 0 01.53 3.09 25.4 25.4 0 01-3.25 9.58c-2.11 3.79-4.43 7.46-6.67 11.18a1.65 1.65 0 00-.34.88c-.08.06-.17.13 0 .21s.1-.06.16-.09c1.35-.52 2.62-1.21 3.9-1.85 2.1-1 7.74-3.86 12-3.78a19.06 19.06 0 012.39.16 7.67 7.67 0 013 1.39c2.45 2.15 3.39 4.64.01 8.33z"/><path class="cls-2" d="M1335.76 441.38a36.18 36.18 0 01-7.4 1.46c-3.15.33-7.19-1-9.16-1.91a68.53 68.53 0 01-.67-7.16 37.35 37.35 0 00-.92-5.84c-1.47-4.82-.65-12.2-.39-13.24a3.05 3.05 0 011.31-1.77 1.8 1.8 0 012.29.21 3.65 3.65 0 011 1.95c.56 2.19.89 4.43 1.32 6.64.65 3.39 1.36 6.78 2.18 10.14a1.45 1.45 0 00.28.68c.35 0 .38-.29.48-.49 2.46-4.88 5-9.75 6.93-14.85a10.06 10.06 0 014-5.05 2.61 2.61 0 01.56-.32c1.28-.44 2.17-.1 2.45 1.1a8.51 8.51 0 01-.2 5.09c-.55 1.42-1.12 2.84-1.6 4.28-.9 2.72-1.74 5.46-2.61 8.18-.18.56-.4 1.11-.6 1.67.43.16.63-.1.84-.26 2.29-1.68 4.68-3.23 7.11-4.72a6.56 6.56 0 014.06-1.29 2.81 2.81 0 012.76 3.05 4 4 0 01-1.19 2.1 47.83 47.83 0 01-4.91 4.19c-2.46 1.93-3 2.53-5.44 4.43-.19.13-2.33 1.58-2.48 1.73zM1245.6 546.58c-1.45-.4-8.47-2.85-9.45-4-1.51-1.59-1.19-3.3-.75-5.11a27.28 27.28 0 012.94-6.6c1.43-2.59 8.71-8.18 10.18-9 1.2-.66 4.84-4.16 10.4-5.51a29.18 29.18 0 0111.77 0 70.4 70.4 0 017.75 3.05c1.26.7 9.32 5.64 10.07 7.41a5.87 5.87 0 01-.09 4.63c-.49 1.23-8.93 10-10.37 11.13a.31.31 0 01-.51-.26 9.94 9.94 0 000-2.53 11.89 11.89 0 00-11.63-9.2 12.84 12.84 0 00-9 3.41 18.49 18.49 0 00-6.07 12.24c-.09.73-.31 1.23-1 1.08-1.32-.2-3.59-.56-4.24-.74z"/><path class="cls-6" d="M1251.24 547.94a2.21 2.21 0 01-1.24-.55c-.08-4 3.21-10 7.23-13.51a12.77 12.77 0 019-3.41 11.89 11.89 0 0111.63 9.2 11 11 0 01.25 2.49 1 1 0 01-.29.67 25.67 25.67 0 01-4.2 3.06 24.32 24.32 0 01-5.35 2.33l-.35.07a44 44 0 01-11.37.46c-.55-.07-4.23-.56-5.31-.81z"/><path class="cls-5" d="M1234.24 325.77s-11.18-8.82-14-13.55c0 0-14-16.39-14-17.8 0 0-2.21-4.26.47-7.1s2.2-2.83 5-3.3 12.43 3.46 17.47 10.24c0 0 .63-18.75 2.36-21 0 0 2.68-4.88 6.46-3.94s9.44 3.63 9.28 16.23a13.79 13.79 0 0112.13-4.73s7.71 3.47 2.51 14.19a6.86 6.86 0 017.56 2 5.53 5.53 0 010 6.78s-9.29 12.61-23.77 20.33a9.62 9.62 0 01-11.47 1.65z"/><path class="cls-2" d="M1238.77 326.62c-.07.41-.66.71-1.7.83a4.53 4.53 0 01-2.19-.28 3 3 0 01-1.19-.89 2 2 0 00-.72-.6 3.09 3.09 0 01-.54-.4l-.65-.53a15.33 15.33 0 01-1.13-1.25c-.31-.44-.66-.92-1-1.41s-.58-1-.81-1.51a46.35 46.35 0 01-2.39-6.45c-.67-2.16-1.29-4.27-2-6.05-.17-.46-.37-.85-.55-1.27s-.38-.73-.57-1.07l-.3-.44c-.1-.14-.16-.27-.32-.47l-.79-1a13.54 13.54 0 00-2.51-2.59 5.64 5.64 0 00-1.24-.74 3.77 3.77 0 01-1.48-1.39 6.59 6.59 0 01-1.14-2.33 2.3 2.3 0 011.29-2.5 4.77 4.77 0 014.18 0 13 13 0 012.61 1.58 19.76 19.76 0 013.71 3.91c.28.38.57.78.86 1.2a7.74 7.74 0 01.48.73l.51.83c.27.55.55 1.12.8 1.69s.46 1.14.64 1.7a60.83 60.83 0 011.72 6.75c.47 2.18.9 4.25 1.42 6 .12.45.28.82.41 1.24s.3.71.43 1.08l.47.88.24.36a2.6 2.6 0 00.36.47 6 6 0 01.57.74 2.64 2.64 0 01.21.35.75.75 0 01.07.18 1 1 0 00.15.46 2.3 2.3 0 00.83.75c.85.5 1.34.97 1.26 1.44z"/><path class="cls-2" d="M1236.8 325.16c-.62.21-1.76-1.38-2.54-4.2a29.38 29.38 0 01-.5-10.63 72.51 72.51 0 012.23-10.55c.81-2.89 1.45-4.94 1.58-5.39.57-1.81 2.21-2.9 3.71-2.46s2.27 2.31 1.69 4.14c-.13.46-.76 2.52-1.62 5.34s-1.88 6.33-2.61 9.77a54.88 54.88 0 00-1.12 9.38c-.07 2.55-.03 4.35-.82 4.6z"/><path class="cls-2" d="M1239.43 327c-.37.18-1-.14-1.64-1a8.9 8.9 0 01-1.61-4.28 12.71 12.71 0 011.11-6.65 22.39 22.39 0 014.33-6.14 44.66 44.66 0 015.47-4.74c1.83-1.36 3.59-2.56 5.18-3.58 3.19-2 5.61-3.31 6.15-3.59 2.16-1.13 4.61-.56 5.42 1.18s-.19 3.94-2.19 5c-.5.26-2.77 1.49-5.79 3.32a82.28 82.28 0 00-10 6.95 22.36 22.36 0 00-3.82 4.18 11.25 11.25 0 00-1.71 4.12c-.48 2.61.03 4.8-.9 5.23z"/><path class="cls-14" d="M1461.42 498.38s-40.09-7.42-44-17.45c0 0-.87-8.29 12.64-4.8 0 0-10.68-9.37-10.68-10.68 0 0-3-7.2 4.14-6.33 0 0 12 3.27 14.17 6.54 0 0-6.11-12.65-3.71-15.48 0 0-.43-1.53 2.62-2s12.42 5.67 13.07 10.47c0 0-5.88-17.89.22-22.69s11.54 7.2 13.29 12.22l4.79-25.3s.44-4.15 3-3.71c0 0 3.92 0 4.36 7l-1.31 35.11 8.5-17.45s2.61-4.58 5.45-4.58 6.1 1.09 5.22 5.67c0 0-2.39 13.31-5.66 18.76 0 0 9.8-5.89 11.55-4.58 0 0 6.75-2.18 8.06 1.31a9.54 9.54 0 01-1.74 9.6s-13.46 15.75-21.2 19.57a8.23 8.23 0 00-1.24.76c-2.65 1.95-13.07 8.98-21.54 8.04z"/><path class="cls-2" d="M1490.44 472.87a58.88 58.88 0 00-9.31 4.68 73.26 73.26 0 00-6.15 4.16 70.491 70.491 0 00-4.28 3.48h-.07l-.73.56c.5-.73 1.18-1.74 1.31-1.94.29-.42 2.46-3.7 5-7s5.39-6.49 6.14-7.49c.89-1.2 1.18-2.54.62-3.45s-2-.87-3.28.11a82 82 0 00-6.57 6.57 92.9 92.9 0 00-6.37 7.89c0-.35.08-.63.11-.82.11-.4.6-4 .66-4.46.09-.7.77-6.05 1.56-11.63s1.67-11.41 1.8-13.09c.16-2-.3-3.65-1.28-4.12s-2.21.79-2.77 2.79c-.25.89-1.41 6.17-2.52 12s-2.12 11.86-2.54 14.91c-.28-1.78-.64-4.2-.94-6.71-.57-4.56-1-9.37-1.16-10.74-.28-1.64-1.05-2.88-2.1-3.1s-2 1-2.14 2.73c-.07.77-.09 5.27.2 10.2.1 1.77.24 3.58.4 5.3-.89-1.41-1.75-2.8-2.46-4-.86-1.44-1.49-2.6-1.81-3.1a4.75 4.75 0 00-1.36-1.39 2.28 2.28 0 00-1.57-.38 1.46 1.46 0 00-1.14 1 3.19 3.19 0 000 2c.1.33.53 1.45 1.21 3s1.62 3.36 2.63 5.23 2 3.73 3 5.41 1.59 3.06 2 3.95a8.3 8.3 0 00-.55-.69c-.09-.1-.29-.37-.64-.74-.18-.18-.38-.41-.6-.63l-.72-.72c-1-1-2.42-2.32-3.89-3.56s-3-2.45-4.33-3.38c-.33-.24-.64-.46-.94-.66a10 10 0 00-.89-.56 6 6 0 00-1.38-.59 2.6 2.6 0 00-1.14 0 1.61 1.61 0 00-.84.46 1.74 1.74 0 00-.39 1.53 6.73 6.73 0 00.49 1.21 2.09 2.09 0 01.12.46v.15a.08.08 0 000 .09l.29.18c.09.06.22.15.37.27l.25.19.37.32c1.06.9 2.4 2.09 3.76 3.38s2.72 2.69 3.89 3.95l.84.92.66.76c.39.48.73.92 1 1.27v.06c.2.38.66 1.13 1.27 2.16a39.66 39.66 0 002.32 3.51c.89 1.19 1.27 2.38 2.14 3.07.71.14 1.47.33 1.47.33a15.83 15.83 0 007.54-.16c1-1.15 1.82-3.17 2.87-4.32 1.26-1.36 2.39-2.49 2.84-2.88.28-.19 2.43-2.11 2.73-2.37a86 86 0 017.31-5.86c1.84-1.31 3.78-2.57 5.42-3.56s3-1.72 3.55-2.09c1.38-.88 2.23-2.05 2.06-3.11s-1.65-1.52-3.34-.94z"/><path class="cls-9" d="M1862.44 664.41s-11.87-4.66-14-1.57c0 0-2.86 1.16-3.26 23.52 0 0-2.17 43.58-.62 47.28 0 0 9 22 43.22 30 0 0 28.41 6.8 52.49-10.81 0 0 18.53-19.78-7.41-30.29l-32.73-42.65z"/><path class="cls-14" d="M1849.18 717.77s0-111.26-4.94-121.15-13.58-11.13-21-9.89-44.47 1.24-58-34.62c0 0-6.25-93.26-5.87-103.22.31-8 2.16-25.35 2.16-25.35s3.71-27.2 28.41-24.72 25.94 18.54 25.94 18.54 4.52 91.66 9.26 95.81c4.94 4.33 13 14.22 20.38-3.09 0 0 1.23-159.48 8.64-196.57 0 0 16.06-55.63 61.75-23.49 0 0 8.65 8.66 8.65 30.91 0 0 6.17 171.84 4.94 189.15l4.94 212.64s-8.65 18.54-32.11 24.73c-.04 0-54.33 9.89-53.15-29.68z"/><path class="cls-10" d="M1755.22 393.75l5.57.24 4.27.19c.42 0 3.43.21 3.77.34a8.34 8.34 0 00.87.05 42.66 42.66 0 01-3.54-4.56l-.06-.1c-1-1.15-2.46-3.06-4-5.16-.68-.9-1.39-1.83-2.11-2.76-1-1.23-1.93-2.45-2.88-3.52a30.48 30.48 0 00-4.5-4.3 26.68 26.68 0 00-2.37-1.52 2.14 2.14 0 01-.72-.79 4.26 4.26 0 01-.49-1.12 6.15 6.15 0 01-.13-2.94c.42-2 2-3.36 3.84-3.06a14 14 0 014.43 2 33.85 33.85 0 015.54 4.55l.6.6c2 2 3.78 4.11 5.15 5.7l2.53 2.95c.3.36 2.52 2.94 2.72 3.31a28.09 28.09 0 002 2c-.08-.25-.17-.49-.25-.75-1-2.7-1.93-5.83-2.63-8.48s-1.19-4.84-1.37-5.93v-.15c-.52-2-1.25-5.08-1.95-8.72l-.18-.94c-.76-4.06-1.45-8.71-1.94-13.22a99 99 0 01-.69-11.84l-1.13-2.58c-.66-1.48-1.29-2.93-1.87-4.3-2.49-5.81-3.93-9.19-5.92-9.82a9.48 9.48 0 00-6.06-3.3 6.33 6.33 0 00-5.33 1.93c-1.51.78-2.31 2.52-2.16 4.72a10.23 10.23 0 00.07 2.83 11 11 0 002.61 5.69c1.45 3.85 3.54 8.3 5.42 12.18.79 1.62 1.54 3.12 2.2 4.43.86 1.72 1.6 3.21 1.91 3.91.52 1.38 2.61 5.78 3.52 7.66.08.19.27.57.53 1.11.56 1.16 1.5 3.1 2.6 5.5l1.16 2.57c-1.73-2.12-3.33-4.1-4.62-5.7l-2.21-2.75c-1.17-1.85-5-7.08-8.77-11.93-5.64-7.15-8.24-9.43-10.16-8.71a6.06 6.06 0 00-5.61 1.33 9.53 9.53 0 00-3.1 5.18 5.8 5.8 0 00-.07 5 10.07 10.07 0 00.78 2.2 6.88 6.88 0 003.39 3.35c2.09 2.59 4.77 5.74 7 8.3 1.85 2.18 3.46 4.06 4.06 4.85.93 1.43 4.24 5.39 4.27 5.43l.15.17c3.65 4.23 7.3 8.25 10.62 11.7v1a126.55 126.55 0 01-8.95-4.91h-.07c-.5-.38-1.37-1-2.47-1.8-2.14-1.54-5.06-3.65-7.85-5.77l-.89-.67c-5.06-3.8-7.88-5.92-9.69-4.89a5.59 5.59 0 00-4.87 2.23 9.08 9.08 0 00-1.89 5.52 5.56 5.56 0 00.94 4.6 8.86 8.86 0 001.16 1.9 6.56 6.56 0 003.68 2.35c.67.54 1.39 1.07 2.14 1.63l1.41 1.05c1 .71 2 1.4 3 2.07l4.81 3.14c.49.3.91.55 1.25.77a4 4 0 012.59-1.45c1.26-.31 6.21-.01 10.94.21z"/><path class="cls-10" d="M1834.68 393.24a9.08 9.08 0 00-2.47-4.85 3 3 0 00-3.22-1.6 5.26 5.26 0 00-1.53.1 5.54 5.54 0 00-3.2 2.32c-1.86 1-4.4 2.2-6.7 3.1a38.67 38.67 0 01-5 1.72c-.36.05-1.16.21-3.06.61-.87.18-1.64.35-1.9.39l-.38.08c-1.84.37-3.6.66-5.32.91l.06-.18a135.83 135.83 0 0013.59-11.84 80.49 80.49 0 0010.37-10.9c6.74-8.44 7.25-11.83 6.88-13.44a9.91 9.91 0 00-1.2-6.66 6.09 6.09 0 00-4-3 2.81 2.81 0 00-3.52.58 6.28 6.28 0 00-1.41 1.09 8.68 8.68 0 00-2.27 4.14c-.44.65-.92 1.31-1.42 2l-1 1.47c-.86 1.17-1.76 2.35-2.62 3.47l-3 3.78c-.79.91-1.34 1.52-1.64 1.83-.67.61-3.41 3.4-4.18 4.18 3.91-1.64 7-2.77 7.61-3 1.75-.48 3.42.78 3.76 2.86a5.79 5.79 0 01-2.14 5.43c-1.32 1.07-6.28 3.62-10.79 6.26-.51.3-1 .6-1.51.91-1.68 1-3.23 2.08-4.45 3-1.58 1.16-2.63 2.08-2.87 2.29s-.9.73-1.58 1.36-1.35 1.26-1.52 1.33a24.1 24.1 0 00-2.94 3.69 34.1 34.1 0 00-3.08 5.86 3.37 3.37 0 01-.41 2.49 2 2 0 01-.73.68c-.35.58-.85.65-1.52.4a5.27 5.27 0 01-3.12-.95c-1 .93-3.76 1.25-6.69 1.22a43.8 43.8 0 01-8.35-.85l-.2-.05h-.09c-2.52-.15-7.93-.83-12.89-1.67s-9.48-1.77-10.23-2a3.75 3.75 0 01-2.28-2.93h-.24c-1-.19-1.87-.37-2.64-.49-1.3-.23-3.17-.55-4.33.71a7.17 7.17 0 00-4 3.69 9.75 9.75 0 00-.93 5.91 4.92 4.92 0 001.82 4.25 7.08 7.08 0 001.5 1.41 5.21 5.21 0 004.14.83 44 44 0 008.51 1.47c1.86.15 3.49.18 4.69.2h1.29a21.42 21.42 0 002.54.12h.27c1.05 0 2.1 0 2.58-.06h.42c.63 0 2.32-.17 4.54-.45s5-.69 8.85-1.31c2.93-.48 6.29-1 9-1.38h.19c.45.08.9.14 1.35.19a17.29 17.29 0 009.87-2.06c1 .09 2 .17 3 .23a82.266 82.266 0 0010.68-.17c1.87-.17 3.31-.34 4.49-.53s2.49-.42 3.29-.59a46.49 46.49 0 0012.32-3.09c8.4-3.31 9.92-6.19 10.11-7.83a10.18 10.18 0 00.85-6.68z"/><path class="cls-10" d="M1777.19 357.51c.84 3.75 1.56 6.47 1.71 7s1.46 5.55 1.55 6.13.59 2 1.18 3.71c.16-.41.31-.75.43-1l.06-.12a65.86 65.86 0 013.31-7.83c1.09-2.22 2.37-4.53 3.7-6.76l-.44-.21c.13-.92.26-1.8.37-2.58l.34-2.29c.6-2.31 2-9.42 3.2-16.34 1.54-9.22 1.93-14.44-.23-16.11a8.1 8.1 0 00-4.78-4.72 7.78 7.78 0 00-5.73.19 4.2 4.2 0 00-3.45 2.75 9.11 9.11 0 00-1.18 2.14 9.38 9.38 0 00-.32 5.66c-.64 4.1-1.29 9.18-1.82 13.31-.16 1.26-.31 2.44-.45 3.44.22 1.47.47 3 .72 4.46.57 3.3 1.23 6.49 1.83 9.17zM1803.3 344.6a7 7 0 01-.09 6.32c-.82 1.81-4.29 7.45-7.22 13.07a.75.75 0 00-.07.12c-1.47 2.83-2.8 5.65-3.73 7.87s-1.5 3.82-1.63 4.19-.49 1.33-.85 2.4-.7 2.12-.79 2.32a22 22 0 00-.59 2.46 18.09 18.09 0 011.79-1.37l.09-.05a40.62 40.62 0 015.66-4.14 60.62 60.62 0 015.92-3.18c-.12-.41-.26-.81-.4-1.21 3-5.82 5.76-11.11 7.33-14.31l.06-.09c.14-.24 14.58-25.78 13.94-32a4 4 0 00-.32-1.28 8.53 8.53 0 00-2.83-6.61 5.94 5.94 0 00-5.23-1.23 3.88 3.88 0 00-3.64 2 10.21 10.21 0 00-1.55 1.84 11.4 11.4 0 00-1.82 5.41l-1.26 2.86c-2.1 4.73-4.55 10.3-6.14 13.74a2.41 2.41 0 013.37.87z"/><path class="cls-2" d="M1742.75 401.77c.75.26 5.26 1.21 10.23 2s10.37 1.52 12.89 1.67h.09l.2.05a43.8 43.8 0 008.35.85c2.93 0 5.68-.29 6.69-1.22a5.27 5.27 0 003.12.95c.67.25 1.17.18 1.52-.4a2 2 0 00.73-.68 3.37 3.37 0 00.41-2.49 34.1 34.1 0 013.08-5.86A24.1 24.1 0 011793 393c.17-.07.82-.73 1.52-1.33s1.41-1.2 1.58-1.36 1.29-1.13 2.87-2.29c1.22-.91 2.77-1.95 4.45-3 .49-.31 1-.61 1.51-.91 4.51-2.64 9.47-5.19 10.79-6.26a5.79 5.79 0 002.14-5.43c-.34-2.08-2-3.34-3.76-2.86-.63.2-3.7 1.33-7.61 3-.92.38-1.89.8-2.88 1.23l-1.82.84a60.62 60.62 0 00-5.92 3.18 40.62 40.62 0 00-5.66 4.14l-.09.05a18.09 18.09 0 00-1.79 1.37 22 22 0 01.59-2.46c.09-.2.44-1.25.79-2.32s.76-2.14.85-2.4.7-2 1.63-4.19 2.26-5 3.73-7.87a.75.75 0 01.07-.12c2.93-5.62 6.4-11.26 7.22-13.07a7 7 0 00.09-6.32 2.41 2.41 0 00-3.37-.9 4.36 4.36 0 00-1.17.94c-.65.77-4.29 5.55-8.06 11.48-.53.83-1 1.68-1.57 2.55-1.33 2.23-2.61 4.54-3.7 6.76a65.86 65.86 0 00-3.31 7.83l-.06.12c-.12.25-.27.59-.43 1-.59-1.69-1-3-1.18-3.71s-1.4-5.45-1.55-6.13-.87-3.28-1.71-7c-.6-2.68-1.26-5.87-1.82-9.19-.25-1.49-.5-3-.72-4.46-.36-2.46-.66-4.84-.81-6.9a63.48 63.48 0 01-.13-7.09 17.5 17.5 0 00-.34-3.89 5.73 5.73 0 00-1.34-2.82 1.69 1.69 0 00-2.41.09 7.48 7.48 0 00-2.16 4 41.4 41.4 0 00-.84 7.54v1a99 99 0 00.69 11.84c.49 4.51 1.18 9.16 1.94 13.22l.18.94c.7 3.64 1.43 6.73 1.95 8.72v.15c.18 1.09.66 3.28 1.37 5.93s1.68 5.78 2.63 8.48c.08.26.17.5.25.75a28.09 28.09 0 01-2-2c-.2-.37-2.42-2.95-2.72-3.31l-2.53-2.95c-1.37-1.59-3.17-3.69-5.15-5.7l-.6-.6a33.85 33.85 0 00-5.54-4.55 14 14 0 00-4.43-2c-1.89-.3-3.42 1-3.84 3.06a6.15 6.15 0 00.13 2.94 4.26 4.26 0 00.49 1.12 2.14 2.14 0 00.72.79 26.68 26.68 0 012.37 1.52 30.48 30.48 0 014.5 4.3c1 1.07 1.92 2.29 2.88 3.52.72.93 1.43 1.86 2.11 2.76 1.58 2.1 3.06 4 4 5.16l.06.1a42.66 42.66 0 003.54 4.56 8.34 8.34 0 01-.87-.05c-.34-.13-3.35-.32-3.77-.34l-4.27-.19-5.57-.24c-4.73-.22-9.68-.52-11.11-.35a4 4 0 00-2.59 1.45 5.09 5.09 0 00-1 2.14 4.62 4.62 0 000 1.85 3.75 3.75 0 002.31 2.91zM1796.69 504.83s-2.58-16.27-7.74-19.63-7.22-1-7.48 1.29 2.58 20.92 7.23 22.73 8.51 1.78 7.99-4.39zM1910.64 376.56s-4.9-5.94 19.61-23.24c0 0 13.67-4.65 7.48 9l-18.83 15.24s-4.65 5.44-8.26-1zM1800.42 458.15s-4.9-5.94 19.6-23.24c0 0 13.67-4.65 7.48 9l-18.83 15.23s-4.67 5.47-8.25-.99zM1874.56 270.63s-3.81 2.67-2.43 6.37 3.58 15.1 5.9 16.39 4.3 4 7.9 1.49.61-9.8.61-9.8l-5.54-12.94s-3.06-3.9-6.44-1.51zM1862.64 326.84a7.16 7.16 0 00-2.2-4.72c-2.54-2.47-7.52-6.63-11.72-6.27 0 0-7.49-1-6.71 5.42 0 0 2.58 5.43 7.48 6.46 0 0 13.68 8.48 13.15-.89zM1769.09 445.52a7.16 7.16 0 00-2.2-4.72c-2.55-2.46-7.52-6.63-11.73-6.27 0 0-7.48-1-6.7 5.43 0 0 2.58 5.42 7.48 6.45 0 0 13.67 8.48 13.15-.89zM1887.93 467.81s-10.84-14.2-14.45-15.23c-3.31-.95-7.22 3.1-5.42 8.26 0 0 6.45 15.24 17.29 16 0 .01 7.48 1.04 2.58-9.03zM1891.49 720.06s3.64-17.49 2.06-20.9c-1.45-3.12-7.07-3.44-9.79 1.31 0 0-7.29 14.85-.78 23.56.02-.03 4.11 6.33 8.51-3.97zM1934.87 462.91s-5.43-3.71-11.46 9.42a14.55 14.55 0 01-.89 1.65c-1 1.62-4.92 7.53-3.64 10.36 2.58 5.68 3.94 3.89 6.45 4.13 2.68.26 5.4-4.87 6.71-7.23 2.58-4.65 6.96-14.72 2.83-18.33zM1931.59 304.51s-2.64-2.52-5.52.92l-10.77 13.87s-3.13 5 .33 7.23c0 0 3.83 3.8 8.16-1.35 0 0 14.43-16.33 7.8-20.67zM1906.45 618.68l6.5-9.44s2.75-2.93 5.33-1.21 3.09 3.44 2.41 5-6.71 11.36-6.71 11.36a6.17 6.17 0 01-5.85 1 4.05 4.05 0 01-2.48-3.79 4.54 4.54 0 01.8-2.92zM1753.62 515.76l6.5-9.44s2.75-2.93 5.33-1.21 3.09 3.44 2.4 5-6.7 11.36-6.7 11.36a6.17 6.17 0 01-5.85 1 4.06 4.06 0 01-2.49-3.79 4.61 4.61 0 01.81-2.92zM1795.75 549.75l7.88-11.46s3.34-3.56 6.48-1.47 3.75 4.18 2.92 6.06-8.14 13.8-8.14 13.8a7.5 7.5 0 01-7.1 1.26 4.92 4.92 0 01-3-4.6 5.54 5.54 0 01.96-3.59zM1867.06 643.54s-.17-5.51-1.37-8.27 1.37-7.06 1.37-7.06 3.79-2.75 5.33 1 3.79 10 4 11.88 1.38 6.88.52 7.91-3.62 3.45-6 2.59-3.67-3.59-3.85-8.05zM1895.29 396.27s-4.9-2.07-10.06 14.72c0 0-3.35 10.33 3.1 10.59 0 0 6.45 2.32 8.51-8 0 0 4.13-10.84 3.09-13.94 0-.01-1.29-4.92-4.64-3.37zM1946.31 583.24c-6.45-1.87-27.39-8.53-31.15-17.48 0 0-3.54-10.47 6.25-9.11l27 16.84s5 4.8 2.38 8.35a4.1 4.1 0 01-4.48 1.4zM1932.23 675.43c1.24 0 15.75-2.78 17 2.78s1.54 7.73-1.24 8.66-13 3.4-17.29 2.16-9.31-6.22-7.1-8.65c3.08-3.38 3.4-4.95 8.63-4.95zM1834.19 562.85s6.81-23.32 32.25-26.5c0 0 25.77-1.91 29.66 13.26 0 0-.15 10.76-14.23 22.15a30.38 30.38 0 01-20.11 6.85c-9.34-.3-21.95-3.22-27.57-15.76z"/><path class="cls-6" d="M1862.25 579.15a30 30 0 0010.75-1.65 18.14 18.14 0 00-34.61-8.16c6.42 7.56 16.23 9.56 23.86 9.81z"/><ellipse class="cls-9" cx="1423" cy="626.79" rx="27.27" ry="11.16"/><path class="cls-14" d="M1419.52 632s-25.77 1.49-30.72-38.2c0 0 5-40.19 20.32-40.68 0 0 12.88-.5 21.31 8.43 0 0 5.94-14.38 14.37-14.38a16.67 16.67 0 0114.37 13.89s1.49 18.85-14.37 28.27c0 0 0 24.81-5.45 31.26 0 0-9.42 13.41-19.83 11.41z"/><path class="cls-1" d="M1442.68 547.47a13 13 0 00-5.5 3.58 54.87 54.87 0 00-1.47 5.69c-.88 4.48-1.28 10.35 1.79 12.86a1.78 1.78 0 01-2.25 2.75c-3.14-2.57-4.29-7.15-3.46-13.63-.88 1.67-1.36 2.83-1.36 2.83a26.68 26.68 0 00-12.13-7.12c8.23 7.44 15.58 30.94 17.83 38.68a194.68 194.68 0 015.06 21.49c.11.67.21 1.3.29 1.9 2.69-7.57 3.2-20.66 3.3-25.39a1.82 1.82 0 01-1.24-.52c-6.54-6.53-2.81-32.16-.86-43.12z"/><path class="cls-1" d="M1426.87 576.71c-6.72-17.2-11.24-20.36-12.88-20.92a1.78 1.78 0 01-1.1-2.25 1.11 1.11 0 01.09-.19 26.3 26.3 0 00-3.86-.23 9 9 0 00-3.36.78c9.87 6.75 22.65 55.8 25.06 75.05a36.4 36.4 0 007.64-7.21 90.54 90.54 0 00-2.33-14.45 224 224 0 00-9.26-30.58zM1455.79 577.38a34.91 34.91 0 003.38-16.32 17.23 17.23 0 00-4.38-8.88c.8 7.08 1.62 17.2 1 25.2zM1397 563.89a74 74 0 00-4.78 13c1.1 11.4 5.6 40.71 23.26 54.71.87.16 1.63.26 2.25.31-6.79-9.74-12.36-24.36-16.56-43.51-2.27-10.4-3.56-19.63-4.17-24.51z"/><path class="cls-1" d="M1417.25 586.27c-6.2-19.85-11.15-28.29-13.72-29.58a1.72 1.72 0 01-.79-.81 19.71 19.71 0 00-2.87 3.23 1.78 1.78 0 01.28.79c0 .5 4.78 50 22.09 72.16l.08.12a14.75 14.75 0 005.47-1.48 1.82 1.82 0 01-.45-1c-1.34-10.86-5.34-28.33-10.09-43.43zM1390 586.8c-.8 4.17-1.15 7-1.15 7 2.61 21 11 30.43 18.4 34.7-6.6-7.67-11.75-18.33-15.08-31.41-.99-3.66-1.69-7.15-2.17-10.29zM1450.86 549.17a17.77 17.77 0 00-4.57-1.75c-2.68 14.78-4.74 36.14-.24 40.66a1.42 1.42 0 01.25.3 28.33 28.33 0 004.6-3.91c2.76-7.08 1.31-24.74-.04-35.3z"/><path class="cls-2" d="M1392.24 576.92c-1 3.6-1.75 7.05-2.29 9.88.53 3.14 1.23 6.63 2.17 10.29 3.33 13.08 8.48 23.74 15.08 31.41a26.13 26.13 0 008.3 3.13c-17.66-14-22.16-43.31-23.26-54.71z"/><path class="cls-2" d="M1400.15 559.9a1.78 1.78 0 00-.28-.79 35.5 35.5 0 00-2.85 4.78c.59 4.88 1.88 14.1 4.17 24.54 4.2 19.15 9.77 33.77 16.56 43.51a13.07 13.07 0 001.77.06 11.57 11.57 0 002.8.18l-.08-.12c-17.31-22.14-22.05-71.66-22.09-72.16zM1405.76 553.9a11.91 11.91 0 00-3 2 1.72 1.72 0 00.79.81c2.57 1.29 7.52 9.73 13.72 29.58 4.72 15.1 8.77 32.57 10.09 43.46a1.82 1.82 0 00.45 1 21.12 21.12 0 003-1.75c-2.4-19.3-15.18-68.35-25.05-75.1zM1436.13 593.11c-2.25-7.74-9.6-31.24-17.83-38.68a33 33 0 00-5.32-1.08 1.11 1.11 0 00-.09.19 1.78 1.78 0 001.1 2.25c1.64.56 6.16 3.72 12.88 20.92a224 224 0 019.26 30.58 90.54 90.54 0 012.33 14.45c.57-.71.89-1.15.89-1.15a13.23 13.23 0 002.13-4.09c-.08-.6-.18-1.23-.29-1.9a194.68 194.68 0 00-5.06-21.49zM1435.25 572.35a1.78 1.78 0 002.25-2.75c-3.07-2.51-2.67-8.38-1.79-12.86a54.87 54.87 0 011.47-5.69 34.47 34.47 0 00-5.39 7.67c-.79 6.48.32 11.06 3.46 13.63zM1446.29 547.42a10.85 10.85 0 00-1.49-.25 7.92 7.92 0 00-2.12.3c-2 11-5.66 36.59.86 43.12a1.82 1.82 0 001.24.52v-1.78c.52-.3 1-.62 1.5-1a1.42 1.42 0 00-.25-.3c-4.48-4.47-2.42-25.83.26-40.61zM1450.9 584.47a28.36 28.36 0 004.89-7.09c.62-8-.2-18.12-1-25.2a16 16 0 00-3.93-3c1.35 10.55 2.8 28.21.04 35.29z"/><path class="cls-6" d="M1461.2 543.09c-.76-1.21-3.46-1.51-5.2.46l-4.3 6.39 2.33-11.36a2.54 2.54 0 00-.38-2 2.84 2.84 0 00-1.78-1.15c-1.47-.26-2 .65-2.34 2l-.75 4.05-1.33-10.41a2.37 2.37 0 00-2.79-2.11 2.76 2.76 0 00-1.86 1 2.56 2.56 0 00-.54 1.9l2.18 12.38-3.33-5.7c-.61-1.3-2.62-2.5-4-1.94a2.64 2.64 0 00-1.47 1.5c-.21.53.45 4.62.87 6.49a24.24 24.24 0 001.61 3.12l7.22 8.38s.05.09.07.11.07.13.1.19l.11.15.13.16.14.15.13.12.14.11.11.08.1.06.18.1.13.06.23.09h.14l.26.06h.12a2.6 2.6 0 00.4 0 2.31 2.31 0 00.37 0l.33-.06a2.7 2.7 0 00.4-.14l.13-.06.13-.06 7.82-5.75a14.48 14.48 0 003.12-3.94c.21-.52 1.45-3.83 1.07-4.43z"/><path class="cls-2" d="M1442.1 553.23s-.77-5.4 0-6.06c0 0 1.21-1.55 1.76.11l2.21 7.05s.44-8.6.77-9.92c0 0 .66-2.1 1.65-1.1 0 0 1.32 1.32.88 10.47 0 0 2.42-3.64 3.41-3.53 0 0 1.88-.33 1.88 2.1 0 0-1.44 3.64-2.21 4.08 0 0-6.82 4.57-10.35-3.2z"/><path class="cls-6" d="M1401.67 549.3s-8.14-10.34-11.32-6c0 0 1 5.4 8.47 10.88 0 0-12.22-1.59-11.82-.46 0 0-3 2.33.32 4.67 0 0 9 1.44 17.52 1.89 0 0 5.28 3 12.9-4.65 0 0 9.06-7.5 6.85-10 0 0-3.64-4.26-11.81 4.56 0 0 7.73-16.47 1.78-17 0 0-4.51-1.23-6.54 10.51 0 0-1.26-12.29-5.84-10.28 0-.04-5.92 1.19-.51 15.88z"/><path class="cls-2" d="M1410.61 560.43l.77-6.94a4 4 0 00.22-1l.85-4.78a1.33 1.33 0 10-2.55-.75l-1.58 8.15h-.06l-3-13a1.34 1.34 0 00-1.83-.92 1.4 1.4 0 00-.75 1.6l2.9 12.58-3-3.9a2.22 2.22 0 00-2.19-.53 1.32 1.32 0 00-.36 2l3.31 3.62a2.58 2.58 0 01.67 1.42l.33 2.16c.35.65 1.16.63 1.87.82l1.48.11a8 8 0 003-.65z"/><path class="cls-9" d="M1024.73 692.08c.66-3.88 11-4.84 23-2.24s21.54 7.88 20.88 11.76-11.43 5.51-23.38 2.92-21.16-8.52-20.5-12.44z"/><path class="cls-14" d="M1071.32 669.26A46 46 0 011070 680c-.88 3.65-2.73 6.67-4.39 9.54-1.84 3.19-3.76 6.06-6.31 7.92a13.82 13.82 0 01-18.1.07 24.67 24.67 0 01-6.89-7.53 38 38 0 01-3.77-10 40.81 40.81 0 01.08-21.49 36.28 36.28 0 014.16-9.68c1.84-3.19 3.68-6.37 6.23-8.23a16.07 16.07 0 019.27-3.25c3.23 0 6 2.13 8.78 4.12a23.36 23.36 0 016.73 7.34 37.19 37.19 0 013.49 9.9c.81 3.36 2.04 6.8 2.04 10.55z"/><g clip-path="url(#clip-path)"><path class="cls-2" d="M1045.51 696.28c-.94-2.73-2.09-6.18-3-9.22-.46-1.53-.89-2.94-1.23-4.1s-.57-2.07-.69-2.57-1.25-5.39-1.4-6.06c-.1-.47-.57-2.52-1.15-5.4-.25-1.45-.61-3.1-.86-4.89-.14-.89-.28-1.81-.42-2.74s-.23-1.9-.34-2.87l-.17-1.45c0-.48-.08-1-.12-1.45-.07-1-.15-1.93-.22-2.87s-.07-1.87-.1-2.76-.09-1.77-.06-2.59 0-1.6 0-2.33v-2c.07-1.21.11-2.16.11-2.74v-2a11.12 11.12 0 00-.2-1.65 3 3 0 00-1-2c-.94-.61-2.23 1.29-2.82 4.3 0 .33-.14 1.07-.26 2.13s-.3 2.45-.36 4.06l-.15 2.58v2.85c0 2 .08 4.08.16 6.23a134.31 134.31 0 003.26 21.73v.14c.15 1 .62 3.08 1.21 5.6s1.42 5.45 2.29 8.25c1.72 5.59 3.63 10.59 4.37 10.55h.13c.81 1.26 1.86 2 2.82 1.86.79-.12 1.36-.81 1.66-1.83.35-.35.48-1 .21-2a8.62 8.62 0 00-.22-1.61 8.33 8.33 0 00-1.45-3.15z"/><path class="cls-2" d="M1049.72 701.63c-.56-3.15-1.24-7.16-1.72-10.69-.25-1.77-.45-3.41-.6-4.75s-.27-2.39-.3-3c0-.32-.11-1.87-.23-3.43s-.21-3.14-.24-3.52c0-.54-.19-2.89-.37-6.19s-.32-7.56-.36-11.92 0-8.82.12-12.51c0-1.85.12-3.5.16-4.86s.07-2.4.1-3c.07-1.5.14-2.77.3-3.84a8.59 8.59 0 00.24-2.58.6.6 0 00-.65-.48 2.45 2.45 0 00-1.41.64 6.34 6.34 0 00-1.53 2 10.12 10.12 0 00-1 2.76 24.45 24.45 0 00-.36 2.58c-.1 1.14-.22 2.62-.37 4.35-.25 3.45-.54 7.89-.65 12.53-.29 9.3.08 19.41.45 24.08v.15c.05 2.28.47 9.37 1.4 15.88s2.21 12.42 3 12.53h.12c.67 1.55 1.64 2.57 2.61 2.6.79 0 1.44-.63 1.85-1.67.39-.31.59-.95.44-2.14a11.9 11.9 0 000-1.78 10.47 10.47 0 00-1-3.74z"/><path class="cls-2" d="M1052.78 703.74c.29-6.78 1-17.19 1.24-19.6.11-.67.7-6.49.79-7.29.11-1.14 1-9.85 2.07-18.93a89.86 89.86 0 012.16-12.68 36 36 0 011.54-4.59c.52-1.23 1-2.15 1.29-2.72q.27-.49.51-1l.49-.91c.28-.62.59-1.14.81-1.66a4.21 4.21 0 00.56-2.47c-.15-.6-.82-.72-1.85-.34a7.08 7.08 0 00-1.69 1c-.3.25-.58.54-.89.85a8.37 8.37 0 00-.87 1.05 27.32 27.32 0 00-3.5 6.79 67.53 67.53 0 00-3.18 13.29c-1.48 9.53-2.76 19.88-3.24 24.72v.15c-.37 2.33-1.24 9.62-1.71 16.44s-.59 13.13.1 13.47l.11.07c.28 1.76 1 3.1 1.9 3.43.76.27 1.54-.18 2.18-1.11.44-.2.79-.78.93-2a11.76 11.76 0 00.4-1.83 12.09 12.09 0 00-.15-4.13z"/><path class="cls-2" d="M1059.35 703a115.47 115.47 0 002.29-11.73c.56-3.84 1-7.09 1.17-8.3.15-.68 1-6.51 1.17-7.3.1-.56.46-3 1.14-6.38a72.87 72.87 0 013.31-11.77 42 42 0 016-10.82 32.75 32.75 0 015.35-5.41 36 36 0 002.91-2.59 3.63 3.63 0 001.25-2.11c0-.63-.57-1-1.62-1a8.23 8.23 0 00-4 1.24 28.79 28.79 0 00-5.62 4.55 43 43 0 00-7.74 11.35 69.52 69.52 0 00-4.81 14.24c-1 4.49-1.67 8.36-2 10.8v.16c-.24 1.17-.67 3.59-1.15 6.52s-1.05 6.38-1.68 9.63-1.31 6.31-1.85 8.59-.89 3.84-.6 4.14l.08.1c-.25 1.71-.09 3.22.65 4s1.47.53 2.41-.12c.49 0 1-.46 1.58-1.69a10.93 10.93 0 00.94-1.74 11.38 11.38 0 00.82-4.36z"/></g><path class="cls-10" d="M1043.7 635.25s-8-4.55-8.45-.45 7.45 5.68 9.26 6.14 4.42 2.27 5.23 1.82 10.86-3 11.67-5.69c0 0 2.61-2.73-.2-4.32 0 0-6.24.91-7.45 1.82 0 0 2.62-6.6 1.21-8.65 0 0-1.21-2.5-2.41-2a8.37 8.37 0 00-4.43 7.51s-1.81-6.14-4.23-5.69c0 0-3 .91-2.61 3a64.65 64.65 0 002.41 6.51z"/><path class="cls-2" d="M1054.06 636.63a.65.65 0 00-.91 0c-.1.09-.27.33-.52.6s-.27.28-.42.43-.31.29-.47.42l-.37.29v-.06a32 32 0 00.84-3.63c0-.38.1-.75.12-1.12v-1-.78a3.39 3.39 0 000-.42 1.15 1.15 0 00-1.19-1 1.12 1.12 0 00-1 .89c0 .19-.08.63-.18 1.17 0 .27-.11.56-.17.87s-.15.62-.25.93c-.35 1.24-.78 2.43-.83 2.59v.06c-.11-.24-.22-.5-.33-.77s-.18-.48-.27-.72-.15-.47-.19-.69c-.12-.43-.17-.79-.22-.94a.81.81 0 00-1-.53 1.39 1.39 0 00-1.1 1.07 2.39 2.39 0 000 .35 4.82 4.82 0 000 .66v.4c0 .14 0 .28.05.43 0 .3.1.6.17.91a20 20 0 00.92 2.85 17 17 0 00.54 1.77c.25.69.48 1.31.83 1.22a1.17 1.17 0 00.63.09 1 1 0 00.44.16c.22.22.63-.14 1.08-.54a11.82 11.82 0 001.08-1.08 15.76 15.76 0 001.79-1.71c.16-.2.33-.39.47-.6l.2-.3.18-.29a3.75 3.75 0 00.25-.48l.12-.27a1.24 1.24 0 00-.29-1.23z"/><path class="cls-9" d="M1053.44 740.52c.5-3.66 6.9-5.83 15.3-6.61a74.88 74.88 0 0117.17.1 77.92 77.92 0 0116.77 4c7.88 3 13.07 7.29 12.57 11s-6.62 6.66-15 7.45c-5 .46-10.91-.53-17.18-1.39a78.35 78.35 0 01-16.74-3.77c-7.9-3.06-13.39-7.12-12.89-10.78z"/><path class="cls-14" d="M1109 709.45a35.11 35.11 0 01-7.88 27.29c-6.27 7.63-15.58 12.76-25.34 12.71-9.56-.05-18.39-5.16-24.48-12.93a43.46 43.46 0 01-9-26.58 43 43 0 018.93-26.35c6-7.68 14.72-12.26 24.29-12.2 9.83.05 18.23 4 24.09 12 4.65 6.34 7.83 15.27 9.39 26.06z"/><g clip-path="url(#clip-path-2)"><path class="cls-2" d="M1072.1 749.79a112 112 0 01-6.86-9c-.54-.76-1-1.52-1.48-2.23s-.89-1.38-1.26-2c-.72-1.22-1.27-2.18-1.56-2.71-.14-.3-.87-1.75-1.63-3.21s-1.46-3-1.63-3.32-.45-.94-.92-2l-.82-1.76c-.28-.67-.6-1.41-.94-2.2a125.66 125.66 0 01-4.28-11.75l-1-3.3c-.3-1.09-.57-2.18-.8-3.25a42.51 42.51 0 01-.91-6.08 25 25 0 01.62-7.93c.08-.39.2-.75.28-1.11l.12-.54c0-.17.1-.34.14-.5.09-.34.16-.67.23-1s.16-.6.22-.89a13.14 13.14 0 00.21-1.53 2.37 2.37 0 00-.22-1.15c-.34-.6-1.16-.58-2.3.08a7.84 7.84 0 00-1.74 1.54c-.27.35-.55.73-.82 1.15a10.24 10.24 0 00-.71 1.36 7 7 0 00-.41 1 16.4 16.4 0 00-.55 1.76 26.72 26.72 0 00-.81 5.31 47.68 47.68 0 001.69 14.18 121 121 0 004.43 14.19c1.63 4.32 3.37 7.92 4.48 10.19l.07.16c.5 1.12 1.57 3.42 3.08 6.14.75 1.36 1.62 2.83 2.54 4.32s1.92 3 3 4.46a70.76 70.76 0 006 7.43c1.8 1.84 3.13 3 3.58 2.76h.15c1.55 1 3.14 1.37 4.19.77a2.64 2.64 0 001.11-2.69c.25-.53.14-1.24-.64-2.22a10.71 10.71 0 00-.92-1.62 11 11 0 00-1.39-1.61 8.82 8.82 0 00-1.54-1.2z"/><path class="cls-2" d="M1064.49 741.8c-.39-.73-.82-1.5-1.26-2.31s-.8-1.69-1.22-2.56c-.87-1.73-1.5-3.62-2.2-5.35-.28-.89-.56-1.74-.81-2.54s-.51-1.55-.67-2.25c-.34-1.37-.6-2.45-.73-3 0-.33-.32-1.94-.58-3.56-.16-.81-.26-1.64-.34-2.31l-.17-1.38c0-.29-.18-1-.27-2.16s-.27-2.61-.36-4.36a119.25 119.25 0 01-.07-12.66c.21-4.63.77-9.39 1.3-13.26a26.54 26.54 0 011.2-4.83 16.67 16.67 0 011.29-2.77 16 16 0 012.42-3.24 6.69 6.69 0 001.75-2.17.77.77 0 00-.38-.88 3 3 0 00-1.74-.41 4.85 4.85 0 00-1.32.16 6.94 6.94 0 00-1.48.53 9.13 9.13 0 00-2.83 2.14c-.17.2-.45.54-.8 1a18.48 18.48 0 00-1.08 1.7 24.64 24.64 0 00-2.09 5.16c-.29 1-.54 2.11-.76 3.23s-.36 2.16-.56 3.3-.35 2.33-.52 3.55c-.08.61-.16 1.23-.25 1.85s-.13 1.25-.19 1.88c-.29 2.53-.44 5.12-.58 7.67 0 1.28 0 2.54-.08 3.78s0 2.46.05 3.63v1.73c0 .57.07 1.13.11 1.67.08 1.08.13 2.11.22 3.07.23 1.93.39 3.59.61 4.86v.18a63.5 63.5 0 001.17 7c.08.4.17.8.25 1.21s.22.82.33 1.23q.36 1.26.72 2.58c.22.87.58 1.74.87 2.62s.62 1.75 1 2.61l1.1 2.5a25.44 25.44 0 001.15 2.34c.41.74.8 1.45 1.18 2.12l.55 1 .6.86a27.1 27.1 0 002 2.59c.55.59 1 .86 1.23.81h.15c1.46 1.26 3 1.8 4.1 1.32a2.74 2.74 0 001.41-2.58c.31-.49.29-1.2-.34-2.25-.19-.53-.39-1.11-.66-1.69a9.79 9.79 0 00-1.1-1.77c-.21-.27-.43-.51-.65-.75a6.89 6.89 0 00-.67-.84zM1077.48 675.05a30.86 30.86 0 013.72 4.8 45.26 45.26 0 013 5.91 59 59 0 013 9.06l.32 1.53c.18.76.39 1.71.58 2.67.42 1.91.74 3.87.84 4.34s.21 1.22.43 2.54.46 3.08.69 5.13a118 118 0 01.75 14.91c0 2.73-.18 5.49-.38 8.15s-.5 5.18-.89 7.44a45.69 45.69 0 01-1.37 5.83c-.5 1.59-1 2.79-1.3 3.52-.72 1.78-1.41 3.33-1.87 4.61s-.71 2.29-.43 3 1.17.61 2.45-.09a11.92 11.92 0 004-4.21 35 35 0 003.49-8.65 63.38 63.38 0 001.54-7.63c.37-2.74.71-5.64.9-8.64a119.23 119.23 0 00-.13-17.77 112.17 112.17 0 00-1.87-13.18v-.19a80.29 80.29 0 00-1.73-8.05 61.36 61.36 0 00-1.87-5.87 53.71 53.71 0 00-2.73-6.08 38.72 38.72 0 00-3.59-5.51 26.82 26.82 0 00-4-4.12c-2.65-2.17-4.89-3-5.24-2.69l-.13.09c-2.31-.72-4.22-.3-4.86.7a2.77 2.77 0 00.41 3c0 .56.4 1.19 1.47 1.83a6.33 6.33 0 00.63.64c.23.21.47.41.71.64a9.16 9.16 0 00.85.69c.28.22.56.46.85.66a18.17 18.17 0 001.76.99z"/><path class="cls-2" d="M1090.48 671.15a30.37 30.37 0 013.71 4.8 44.62 44.62 0 013.06 5.9 57.52 57.52 0 013 9.07c0 .2.17.77.33 1.53s.39 1.71.58 2.67c.42 1.91.74 3.86.84 4.33s.2 1.23.43 2.55.46 3.07.69 5.13a119.86 119.86 0 01.75 14.91c0 2.73-.18 5.49-.38 8.15s-.5 5.18-.89 7.44a44.69 44.69 0 01-1.38 5.83c-.5 1.59-1 2.78-1.29 3.52-.72 1.78-1.41 3.32-1.87 4.61s-.71 2.29-.43 2.94 1.17.62 2.45-.08a12.09 12.09 0 004-4.21 35 35 0 003.49-8.65 61.56 61.56 0 001.53-7.63c.38-2.74.72-5.65.9-8.65a119.25 119.25 0 00-.13-17.77 110.15 110.15 0 00-1.87-13.17v-.2c-.22-1.46-.79-4.41-1.73-8-.48-1.83-1.12-3.82-1.87-5.86a54.66 54.66 0 00-2.73-6.09 40.09 40.09 0 00-3.59-5.5 26.38 26.38 0 00-4-4.12c-2.65-2.17-4.89-3-5.24-2.69l-.14.09c-2.31-.72-4.22-.3-4.85.69a2.74 2.74 0 00.41 3c0 .56.4 1.2 1.47 1.84a7.84 7.84 0 00.64.65c.23.21.47.4.71.64a9 9 0 00.84.69c.29.22.56.46.85.66.57.28 1.12.68 1.71.98zM1065.46 677.77c.51 7.2 1.31 18.27 1.37 20.85 0 .72.23 6.94.27 7.8.06 1.21.57 10.51 1.09 20.23.27 4.85.59 9.88 1.23 14a46.59 46.59 0 002 8.76 11.94 11.94 0 002.25 3.92 3.09 3.09 0 002.32 1.27c.66-.08 1-.8 1.1-1.84a13.71 13.71 0 00-.44-4 56.34 56.34 0 01-1.27-6.57 118.2 118.2 0 01-.86-13.18c-.24-10.12-.53-21.15-.76-26.26v-.17c.1-5-.55-30.94-2.37-31.48l-.14-.06c-.55-1.81-1.56-3.12-2.76-3.36a2.58 2.58 0 00-2.57 1.45c-.54.27-.89.93-.92 2.28a11.37 11.37 0 00.4 6.31z"/></g><path class="cls-5" d="M1109.66 665a2.77 2.77 0 00-1.35-1.78 2.87 2.87 0 00-2.31-.22c-.23.07-1 .41-3.14 1.37-2.68 1.19-6.35 2.83-8.5 3.66a21.45 21.45 0 01-4.63 1.48c.45-.79 1.17-2 1.83-3 1.1-1.81 2.36-3.85 3.1-5.24.62-1.17 1.34-2.47 2-3.69 1.11-2 2.07-3.77 2.33-4.43.56-1.4.35-4.07-.68-5.18a2.35 2.35 0 00-1.82-.65 5.12 5.12 0 00-3.4 1.32c-.41.46-2.42 3.2-4.48 6.31s-4.22 6.69-5 8.22l-1.14 1.78a.17.17 0 01-.17 0 3 3 0 01-1-1.65c.12-.41.65-1.93 1.27-3.68 2.38-6.77 4.72-13.52 4.9-15.28a7.39 7.39 0 01.18-.89 3.72 3.72 0 00-.11-2.94 3.55 3.55 0 00-2.44-1.38c-1.58-.32-4.67 1.85-5.33 3.42-.48 1.14-3.68 11.25-5.36 17-.18-.35-.33-.63-.38-.71-.25-.5-2.14-3.9-4.16-7.24l-1.54-2.53c-.6-1-1.13-1.76-1.6-2.4a11.78 11.78 0 00-2.85-2.89 3.17 3.17 0 00-2.41-.47 2.83 2.83 0 00-1.77 1.41 10.37 10.37 0 00-.74 3.07c0 .43.33.93 1.75 2.86a30.65 30.65 0 012.42 3.6l4.67 9.37c.3.89 1.32 3.29 2.41 5.66a4.12 4.12 0 01-.58-.47c-.13-.15-.45-.45-1.3-1.24-.26-.23-.47-.43-.54-.5s-.28-.42-.48-.74a31.93 31.93 0 00-3.15-4.48c-.44-.5-1.07-1.38-1.74-2.32a27.91 27.91 0 00-2.52-3.24 10.57 10.57 0 00-2.73-2.07 2.84 2.84 0 00-2.23-.11 3.06 3.06 0 00-1.57 1.49 4.62 4.62 0 00-.47 2 2.32 2.32 0 00.46 1.64l.25.26c.19.18.52.5.94 1 .73.85 2.25 2.69 3.2 4.06l1.74 2.44c-1.76-.09-4.06-.06-4.38 0a12.65 12.65 0 00-3.27.34 3.22 3.22 0 00-1.8 1.25 3.53 3.53 0 000 4.14 2.56 2.56 0 001.68 1.05 5.66 5.66 0 00.77 0h.62l.66.05a28.14 28.14 0 013.84.69 56.72 56.72 0 016.94 2.44l.63.26a8.13 8.13 0 001.29.57 15.22 15.22 0 013.86 1.95c1.56 1.17 4.46 1.53 7.05 1.53a26.92 26.92 0 004.3-.33 3.5 3.5 0 001.38-.44c1.23-.5 2.75-1.14 4.08-1.7s2.69-1.15 3.18-1.31c.66-.14 2.85-1 2.9-1 1.13-.47 4.09-1.73 7.08-3.18a66.23 66.23 0 007.79-4.24 3.9 3.9 0 001.57-4.07z"/><path class="cls-2" d="M1074.16 680.7l-.11-.05c-1.12-.46-.08-4 .8-6.33l-.07-.06h-.1c-.31 0-.55-.36-.76-.89a9.06 9.06 0 01-.46-1.58c-.64-.73-1.66-1.89-2.67-3.07a52.82 52.82 0 01-3.3-4.41 2.38 2.38 0 00-2.29-.9 1.61 1.61 0 00-1.17 2.11 16.67 16.67 0 00.82 1.9 30.37 30.37 0 001.91 3.24c1.51 2.25 3.21 4.38 4 5.34.29.54 1.32 2 2.21 3.36s1.66 2.47 2.26 2.4a2.75 2.75 0 01-1.07-1.06z"/><path class="cls-2" d="M1074.68 674.25h.1l.07.06a17 17 0 01.78-1.76 28 28 0 011.09-2.93 14.22 14.22 0 011.2-2.16c0-.47-.08-1.38-.08-1.54s-.19-2.43-.19-4.71.16-4.68.11-5.38a2.17 2.17 0 00-1.45-1.91 1.61 1.61 0 00-2.09 1 36.23 36.23 0 00-.9 5.21 42.05 42.05 0 00-.25 6.63 19 19 0 00.24 4.38c0 .22.08.44.12.65a9.06 9.06 0 00.46 1.58c.24.52.48.84.79.88z"/><path class="cls-2" d="M1089.07 663.39a2.06 2.06 0 00-2.41-1.5 17.45 17.45 0 00-2.27.75 16.12 16.12 0 00-4.39 2.52 11.22 11.22 0 00-2 2.24 14.22 14.22 0 00-1.2 2.16 28 28 0 00-1.09 2.93 17 17 0 00-.78 1.76c-.88 2.29-1.92 5.87-.8 6.33l.11.05a2.75 2.75 0 001 1.08 4.78 4.78 0 001 .48 5.34 5.34 0 002.39.37c.49.09.88 0 1.06-.28a1.39 1.39 0 00.46-.4 1.06 1.06 0 00-.08-1.21c.39-1.84 1-4.68 1.22-5.3a18.86 18.86 0 00.67-1.92c0-.15.22-.82.48-1.64a8.65 8.65 0 011.22-2.6c1.19-1.67 3.87-2.87 4.51-3.33a2.34 2.34 0 00.9-2.49z"/><path d="M1624.1 427.62v.12h-5v-.12z" fill="#fefefe"/><path d="M1622 456.83s-33 10.28-45.26-14.91c0 0-4.49-3.91 7.81-3.91 0 0-8.1-14.47-5.79-18.82 0 0 .29-4.2 13.16.87 0 0-2.17-13.75 1-18.24 0 0 6.76-10.57 12.6 13.11a.15.15 0 00.3 0c-.22-4.47-.43-16 3.29-17.13 0 0 3.62.58 5.64 8.1 0 0 6.44-20.26 11.07-21.86 0 0 3-1.73 4.12-1.3s1.3 4.34 1.3 4.34 1.16 10.72.87 13.18c0 0 4.05-8.25 7.52-9.12a3.81 3.81 0 014.63 2.31s.72 7.24.29 8.83c0 0 9-7.67 12.72-7.52 0 0 3.18-1 5.06 0 0 0 3.19.29 2.75 5.21 0 0-1.88 10.13-2.6 11.29a3.53 3.53 0 014 2.75 7.45 7.45 0 01-.15 4.92s-2.31 9.12-6.94 15.2c0 0 4.92 0 7.09 3.48 0 0 2.31 3.18-1.88 7.09.03-.03-24.27 22.41-42.6 12.13z" fill="#adce9a" opacity=".8"/><path class="cls-2" d="M1621.89 453.11a2 2 0 01-1.89-1.36 1.31 1.31 0 010-.15c-.07-.3-7.43-29-25.93-29.17-.19 4.75.6 18.38 14.86 25.29a2 2 0 01-1.74 3.6c-19.74-9.57-17-30.89-17-31.1a2 2 0 011.82-1.72c9.68-.77 18.28 4.63 24.87 15.62a62.22 62.22 0 013.24 6.22 31.18 31.18 0 013.17-9.23c3.9-7.22 10.48-12.1 19.57-14.5a2 2 0 012.24.94c.26.45 6.23 11.32-3.67 29.11a2 2 0 01-3.49-2c6.85-12.31 5.35-20.59 4.28-23.76-21.74 6.84-18.61 28.5-18.42 29.56a.49.49 0 010 .12 2 2 0 01-1.38 2.41 2.15 2.15 0 01-.53.12z"/><path class="cls-2" d="M1605.09 449.83c-.5.37-2.06-1.13-4.41-3.22a38.88 38.88 0 00-4.14-3.28 23.68 23.68 0 00-5.26-2.69c-1-.36-2-.67-3.07-1.07-.28-.11-.55-.2-.84-.33l-.84-.37a11.83 11.83 0 00-1.28-.52 17.5 17.5 0 00-5-1 27.8 27.8 0 00-6 .44c-2 .34-4-.18-4.37-1.46s1.18-2.84 3.57-3.24a29.67 29.67 0 017.14-.46 21.21 21.21 0 016.39 1.43 17.31 17.31 0 011.65.76l.62.3c.2.1.44.2.66.29.92.39 2 .79 3.07 1.27a23.38 23.38 0 015.88 3.7 25.3 25.3 0 014 4.28c1.93 2.74 2.74 4.8 2.23 5.17zM1626 431.83h-.08a2 2 0 01-1.92-2.07c.3-8.58-6.1-17.76-9.17-21.64-6 9.21-3.54 17.25-3.43 17.61a2 2 0 01-3.79 1.26c-.15-.47-3.7-11.58 5.53-23.36a2 2 0 011.5-.77 2 2 0 011.55.65c.5.55 12.26 13.56 11.8 26.39a2 2 0 01-1.99 1.93z"/><path class="cls-2" d="M1627.1 427.49a2 2 0 01-1.91-1.4c-5.65-18.15 11.87-27 12-27.1a2 2 0 012.61.79c6.59 11.36.88 20.35.64 20.72a2 2 0 01-3.35-2.18c.18-.29 4-6.48.18-14.75-3.73 2.44-12 9.42-8.31 21.32a2 2 0 01-1.32 2.51 2 2 0 01-.54.09z"/><path class="cls-2" d="M1645.32 433.57a2 2 0 01-1.07-3.69c.15-.09 14-9.06 12.12-21.37-3.38.32-11.14 1.78-13.14 8.27a2 2 0 11-3.82-1.17c1.45-4.7 5.17-8.13 10.77-9.92a27.86 27.86 0 017.82-1.28 2 2 0 011.91 1.5c1.74 6.67-.09 13.54-5.28 19.87a38.07 38.07 0 01-8.24 7.48 2 2 0 01-1.07.31zM1634.29 453.29c-.27-.1-.36-.74 0-1.76a13 13 0 012.06-3.74c1-1.39 2.25-2.91 3.68-4.55a48 48 0 014.89-4.89 33.37 33.37 0 012.92-2.21 26.48 26.48 0 013.18-1.81 27.21 27.21 0 016.3-2.07 39.51 39.51 0 017.28-.73c2.48 0 4.36 1.23 4.27 2.6s-2 2.36-4.22 2.38a37.47 37.47 0 00-6.42.6 24 24 0 00-5.26 1.58 26.34 26.34 0 00-2.68 1.39 31 31 0 00-2.63 1.77c-3.42 2.55-6.59 5.77-9.11 7.95-1.22 1.07-2.13 1.95-2.78 2.59s-1.15 1.03-1.48.9z"/><path class="cls-5" d="M698 468.41c-28.79-5.19-242.9-23.48-303-10.44s-175.14-50.87-179-33.91c-1.49 6.61-44.23-18.95-63.92 6.52-30.78 39.81-94 152.36-94 152.36 1 20.25 483.41 2.55 598.15 0M2449.43 469.65s48.24-13.77 67.29 3.65 2.54-52.13 29.81-52.79 91.84-40.87 136.25 1.94 128.33 61.78 133.52 61.9 139.29 10.88 139.29 10.88l48.41 91.19-558 1.73z"/><path class="cls-9" d="M1558.37 649.86c-.34.46-.6 1-.92 1.46a19.14 19.14 0 01-4 4.61.14.14 0 01-.11 0l-.08.07a.19.19 0 01-.2.15.2.2 0 01-.21.15.55.55 0 01-.41.25h-.07c0 .06-.06.07-.11.1a11.74 11.74 0 01-1.8.83 1.77 1.77 0 01-.75.19h-.1c0 .06 0 .06-.1 0h-.14c0 .07-.09.07-.15 0h-.09s-.06.06-.11 0h-.24a.1.1 0 01-.15 0h-.09a.15.15 0 01-.2 0 .57.57 0 01-.29 0 8.14 8.14 0 01-2 .14 5 5 0 01-1-.09h-.14c-.09 0-.17.06-.24 0h-.15a.13.13 0 01-.2 0h-.79a.46.46 0 01-.39-.08h-.1c-.07.05-.14 0-.21 0a11.32 11.32 0 01-1.62-.52c-.08 0-.18 0-.23-.13l-.12-.05a.46.46 0 01-.37-.17 8.23 8.23 0 01-1.5-.78c-.49-.29-1-.61-1.47-.92a.24.24 0 01-.06-.08 7.92 7.92 0 01-1.16-.75 36.86 36.86 0 01-3.59-2.94.33.33 0 00-.38-.1 4.77 4.77 0 00-2.85 3c0 .12 0 .25-.13.35v.07a.86.86 0 01-.08.47v1.07a.82.82 0 01.1.46v.07a8.53 8.53 0 01.32.84.18.18 0 01.08.15.37.37 0 01.15.28.19.19 0 01.11.16l1 1.06a.27.27 0 01.2.16c.06 0 .09 0 .11.08a.17.17 0 01.15.11.39.39 0 01.22.11 25 25 0 007.5 3.18 5.09 5.09 0 011 .26h.07a.76.76 0 01.47.1h.07a.73.73 0 01.48.08h.07a.74.74 0 01.36 0 38.23 38.23 0 004.76.5c2.14.09 4.27.27 6.4.38a32.61 32.61 0 006.4-.21 9.36 9.36 0 004.25-1.67 6.05 6.05 0 002.2-2.73 6.47 6.47 0 00-.15-4.72 5.91 5.91 0 00-2.69-3.08 30 30 0 00-4.53-1.87z"/><path class="cls-5" d="M1540.9 643.48s-10-15-14.8-9.4c0 0 .76 7.49 10.36 15.81 0 0-16.52-3.53-16.1-1.95 0 0-4.33 2.86-.09 6.42 0 0 12.2 3 23.74 4.55 0 0 6.89 4.72 18.15-4.92 0 0 13.23-9.24 10.49-13 0 0-4.5-6.23-16.66 4.91 0 0 12.4-21.65 4.34-23.09 0 0-6-2.18-10.11 13.64 0 0-.35-16.94-6.84-14.71 0 .04-8.23 1.05-2.48 21.74z"/><path class="cls-2" d="M1551.88 659.7l1.83-9.41a5.4 5.4 0 00.4-1.37l1.71-6.43a1.82 1.82 0 00-3.4-1.32l-3.08 11h-.08l-2.63-18.17a1.83 1.83 0 00-2.4-1.46 1.9 1.9 0 00-1.2 2.1l2.56 17.52s0 .06-.07 0l-3.71-5.68a3 3 0 00-2.94-1 1.84 1.84 0 00-.71 2.74l4.13 5.31a3.63 3.63 0 01.75 2l.21 3c.41.93 1.51 1 2.46 1.33l2 .32a11 11 0 004.11-.57l.06.09z"/><path class="cls-3" d="M1577.65 736.55c-.67-.4-1.16-.86-.69-1.72a1.22 1.22 0 01.69 1.72z"/><path class="cls-9" d="M1599.06 737.83c.37-2.68 5.06-4.26 11.2-4.83a54.52 54.52 0 0112.56.07 56.9 56.9 0 0112.26 2.92c5.77 2.2 9.57 5.34 9.2 8s-4.84 4.87-11 5.44c-3.65.34-8-.39-12.56-1a57.21 57.21 0 01-12.25-2.76c-5.75-2.19-9.77-5.16-9.41-7.84z"/><path class="cls-12" d="M1632.35 739.33a6.22 6.22 0 011.46-1.3 30.36 30.36 0 014.1-2.72 24.94 24.94 0 005.26-4.07c2-2 4-4.1 6.11-6.06.09-.08.16-.19.3-.17a4.84 4.84 0 01.84-1c2.27-2.33 4.56-4.63 5.75-7.78a9.35 9.35 0 00.65-4.84 13.58 13.58 0 00-.64-2c-.15 0-.19-.19-.26-.31a6.46 6.46 0 00-3-2.49 7.92 7.92 0 00-6 .06 18 18 0 01-1.71.7c-.35.46-.92.59-1.35.92-.19.15-.44.45-.65.28s.09-.43.2-.65a.61.61 0 000-.12c.52-1.81 1.23-3.56 1.66-5.4s.92-3.46 1.25-5.21a9.91 9.91 0 00.12-3.91 6.09 6.09 0 00-4.41-4.93 6.78 6.78 0 00-5.15.64 12.82 12.82 0 00-4 3.64 35.08 35.08 0 00-3.17 5.08 96.85 96.85 0 00-4.53 9.55c-.21.51-.43 1-.66 1.51-.06.12-.1.3-.26.28s-.12-.19-.14-.3c-.12-.6-.23-1.21-.35-1.8a50.82 50.82 0 00-2-7.28 18.48 18.48 0 01-.82-2.41.06.06 0 010-.06c-.28-.21-.31-.55-.42-.84a11.84 11.84 0 01-.68-1.74.08.08 0 010-.07 1.59 1.59 0 01-.46-.93.08.08 0 010-.07 3.31 3.31 0 01-.7-1.4l-.06-.12c-.16-.11-.2-.3-.28-.46a64.84 64.84 0 00-3.24-5.82 8.07 8.07 0 00-4.66-3.61 6.28 6.28 0 00-6.56 2.27 2.79 2.79 0 01-.61.79c0 .06 0 .11-.07.17s0 .38-.26.44v.14a6.35 6.35 0 01-.56 1.86 1.87 1.87 0 01-.07.22c.17.23.06.42-.08.6l-.06.25a2 2 0 01-.11 1l-.06.28a.78.78 0 010 .65v.28c.1.11 0 .23 0 .35a28.83 28.83 0 000 3.6 11.62 11.62 0 01.13 1.77v.44a.47.47 0 01.14.33c.31 2 .72 4.06 1.12 6.08 0 .09.08.18 0 .26s-.2 0-.29 0c-.35-.18-.69-.38-1-.54a9.7 9.7 0 00-3.68-1.07 5.49 5.49 0 00-5.8 5.28 13.79 13.79 0 00.28 2.4.09.09 0 010 .07 6.68 6.68 0 01.66 1.47 1.78 1.78 0 01.33.87.09.09 0 010 .07 1.58 1.58 0 01.46.94.29.29 0 01.12.23 17.75 17.75 0 011.21 2.28l.06.12a8.72 8.72 0 011.12 2 .79.79 0 01.17.14c.76 1.31 1.63 2.54 2.51 3.77a4.3 4.3 0 01.71 1 .18.18 0 01.11.16c.12 0 .16.1.15.22a.07.07 0 01.06 0c.14 0 .19.14.26.23.67.81 1.34 1.61 2 2.43a51.89 51.89 0 004.42 4.95c.35.35.82.61 1 1.11a24.37 24.37 0 012.33 2 9.1 9.1 0 011.35 1 56.39 56.39 0 004.74 3.07c.3.09.51.4.86.34-.28-.59-.55-1.19-.85-1.77q-1.89-3.59-3.79-7.15a64.76 64.76 0 01-3-6.34c-.53-1.37-1-2.74-1.52-4.12a2.59 2.59 0 01.41-2.63 2.51 2.51 0 014 .07c.23.29.42.59.64.89 1.07 1.52 2.27 3 3.19 4.6s1.82 3.21 2.69 4.83c.78 1.45 1.52 2.92 2.28 4.38 0 .11.08.32.25.27s.12-.22.12-.36c0-.68 0-1.37.1-2 .15-1.89.29-3.77.49-5.65a16.06 16.06 0 01.92-4.06 2 2 0 011.7-1.47 1.88 1.88 0 011.72 1.28 16.6 16.6 0 011.07 6c0 3.13-.08 6.26-.26 9.39 0 .13 0 .28.13.38l.1-.15c1-1.67 2-3.38 2.89-5.09 1.18-2.15 2.42-4.28 3.56-6.45a6.13 6.13 0 00.85-2.21 1.91 1.91 0 01.49-1 2 2 0 012.11-.64 2.09 2.09 0 011.39 1.91 8.82 8.82 0 01-.14 1.54 9.76 9.76 0 01-1 3.47c-.78 1.54-1.61 3-2.45 4.56-1.3 2.37-2.56 4.76-3.84 7.14-.29.52-.58 1-.86 1.57-.06.13-.2.29-.07.42s.25 0 .36-.1a9.48 9.48 0 011.1-.56c-.11-.07-.04-.07.03-.06z"/><path class="cls-13" d="M1617.5 738.33c-2.82-4.77-15-24.42-6.42-23.41 12.2 10.44 8.82 27.21 12.52 4.13 6.09-6.73 4.15 13.23 4.26 16 3-2.88 9-20.85 11.74-14.56 1.85 4.57-5.2 16.49-7 19.64a1.35 1.35 0 01-1.34.65l-12.49-1.65a1.69 1.69 0 01-1.27-.8z"/></g></g></svg>
