<svg width="38" height="93" viewBox="0 0 38 93" fill="none" xmlns="http://www.w3.org/2000/svg">
<g clip-path="url(#clip0)">
<path d="M15.8683 72.0695C16.1924 71.9741 16.5079 71.8526 16.8116 71.7061C17.4999 71.143 18.0183 70.4061 18.3107 69.5751C19.6488 66.6003 21.4501 63.8473 23.6502 61.4149L31.2637 52.5444C32.9424 50.5794 34.4417 48.4734 35.7442 46.2508C36.199 45.491 36.5695 44.6981 36.9738 43.9217C37.9844 41.6699 38.2836 39.1728 37.8328 36.7526C37.7471 35.9596 37.4911 35.1935 37.0817 34.5045C36.6724 33.8155 36.119 33.2193 35.4578 32.7551C34.6278 32.1086 33.6036 31.7486 32.5438 31.7309C31.8364 31.7309 31.1289 31.7309 30.5057 31.6153C30.1825 31.0417 30.0809 30.3732 30.2194 29.7322C30.3373 26.6597 30.472 23.5707 30.5899 20.4817C30.6229 19.9316 30.6229 19.38 30.5899 18.8299C30.5168 17.7194 30.1449 16.6479 29.5119 15.7243C28.947 14.839 28.0562 14.2009 27.0243 13.9426C25.9925 13.6842 24.8988 13.8254 23.9702 14.3368C23.5181 14.5957 23.0796 14.8769 22.6564 15.1792C22.3701 14.7497 22.1006 14.3863 21.8816 13.9899C21.0394 12.4537 20.1972 10.8844 19.4055 9.36467C19.0247 8.66587 18.5971 7.99263 18.1254 7.34939C17.6492 6.45728 16.8422 5.77835 15.8707 5.45256C14.8992 5.12678 13.8372 5.17898 12.9038 5.59841C12.6313 5.6533 12.3556 5.69192 12.0784 5.71404C11.6405 5.20197 11.1688 4.67337 10.714 4.06218C9.80072 2.92576 8.7091 1.93886 7.47999 1.13838C6.87615 0.741686 6.21841 0.430285 5.52609 0.213334C4.97984 -0.00186443 4.38781 -0.081287 3.8027 -0.0178656C3.21759 0.0455558 2.65754 0.249854 2.17239 0.576846C1.68725 0.903838 1.29206 1.34338 1.022 1.85636C0.751942 2.36933 0.615391 2.93983 0.624496 3.51706C0.577198 4.46389 0.685253 5.41201 0.94453 6.32523C1.41616 7.9771 2.03939 9.4803 2.62893 11.0496C2.81421 11.5616 3.01634 12.0737 3.25216 12.7014L1.88779 13.6926C1.36508 14.0859 0.933933 14.584 0.623138 15.1537C0.31234 15.7234 0.129047 16.3516 0.0854874 16.9963C-0.153778 18.6314 0.147278 20.2986 0.94453 21.7537C1.95517 23.4055 3.06687 25.0574 4.19542 26.7093C4.86918 27.6839 5.66084 28.5759 6.23354 29.4844C6.0651 30.1121 5.61031 30.0956 5.25659 30.2608C4.55185 30.4859 3.91538 30.8796 3.40461 31.4063C2.89385 31.9331 2.52488 32.5762 2.33099 33.2778C2.1371 33.9794 2.1244 34.7172 2.29405 35.4248C2.46369 36.1324 2.81033 36.7874 3.30269 37.3307C4.09435 38.4375 4.98708 39.4782 5.79559 40.5519C6.13247 40.9814 6.43567 41.4439 6.7557 41.9064C6.4862 42.3689 6.21669 42.7654 5.99772 43.1783C5.54542 43.9041 5.33778 44.7512 5.4043 45.5993C5.47082 46.4473 5.80812 47.2533 6.36829 47.9027C7.47472 49.3664 8.68487 50.7519 9.98975 52.0489C10.746 52.7605 11.3386 53.6223 11.7278 54.5766C12.1171 55.531 12.294 56.5558 12.2468 57.5826C12.2228 60.8301 12.0034 64.0734 11.5899 67.2956C11.3335 68.6624 11.2487 70.0548 11.3373 71.4418L12.2974 71.7391L15.8683 72.0695Z" fill="#89C5AC"/>
<path d="M8.42326 23.1247C8.85154 23.1802 9.25798 23.3431 9.60323 23.5978C9.94848 23.8524 10.2209 24.1902 10.394 24.5783C12.1341 27.2436 14.1248 29.7433 16.3399 32.0448C16.3399 32.1439 16.6263 32.1439 16.9295 32.2265C16.7236 30.0303 16.2252 27.87 15.4472 25.8007C14.6555 23.802 13.7628 21.8362 13.0217 19.854C12.6342 18.8959 12.2637 17.9213 11.9268 16.9467C11.7413 16.5299 11.6456 16.08 11.6456 15.6252C11.6456 15.1704 11.7413 14.7206 11.9268 14.3037L12.8364 14.1551C14.066 16.732 15.1777 19.3254 16.8452 22.1501C17.0551 21.2403 17.1345 20.3063 17.0811 19.375C17.0811 18.5821 17.0811 17.7231 17.0811 16.9963C17.0044 16.2818 17.0615 15.5597 17.2495 14.8654C17.3583 14.8361 17.4722 14.83 17.5836 14.8474C17.695 14.8649 17.8013 14.9054 17.8954 14.9665C17.9895 15.0275 18.0692 15.1075 18.1292 15.2011C18.1892 15.2948 18.2281 15.4 18.2433 15.5096C18.5802 16.5886 18.8225 17.6939 18.9676 18.8133C19.0856 20.0771 19.0856 21.3488 18.9676 22.6126C18.8111 23.5322 18.5801 24.4381 18.277 25.3217C19.0518 28.6254 19.8435 31.8465 20.6857 35.4146C22.05 33.4468 22.8897 31.1751 23.128 28.8071C23.128 27.4526 23.2291 26.1146 23.3133 24.76C23.3799 24.2093 23.4811 23.6632 23.6165 23.1247C23.9329 23.2133 24.2425 23.3237 24.5429 23.4551C24.6078 23.5019 24.6621 23.5612 24.7027 23.6294C24.7432 23.6975 24.7691 23.7732 24.7788 23.8515C25.2917 26.1746 25.3772 28.5689 25.0314 30.9215C24.5072 33.1663 23.7216 35.3445 22.6901 37.4133C22.2522 38.2558 21.6795 39.0652 21.1236 39.9242C20.882 43.0697 20.8932 46.229 21.1573 49.3728C21.4471 49.2655 21.7239 49.127 21.9827 48.9599C22.9596 48.1339 23.9029 47.308 24.8798 46.449C26.854 44.7726 28.2048 42.5008 28.7202 39.9902C28.7202 39.5938 28.8213 39.5938 29.5624 38.9661C29.8059 38.9777 30.0366 39.0767 30.2105 39.2442C30.3844 39.4117 30.4895 39.6361 30.5057 39.8746C30.5817 40.262 30.5817 40.66 30.5057 41.0474C30.0736 42.9878 29.2737 44.8313 28.1475 46.4821C26.8316 48.2805 25.3302 49.9412 23.6671 51.4377C20.1467 54.4936 20.1467 54.5762 18.7823 59.1188C17.8727 62.1583 16.9126 65.1812 16.0536 68.2206C15.8201 69.1428 15.6624 70.0819 15.5819 71.0288C15.6133 71.379 15.6926 71.7235 15.8178 72.0529C16.1419 71.9576 16.4574 71.8361 16.761 71.6895C17.4494 71.1265 17.9678 70.3896 18.2601 69.5586C19.5982 66.5837 21.3996 63.8308 23.5997 61.3984L31.2637 52.5444C32.9424 50.5794 34.4417 48.4734 35.7442 46.2508C36.199 45.491 36.5695 44.6981 36.9738 43.9217C37.9844 41.6699 38.2836 39.1728 37.8328 36.7526C37.7471 35.9596 37.4911 35.1935 37.0817 34.5045C36.6724 33.8155 36.119 33.2193 35.4578 32.7551C34.6278 32.1086 33.6036 31.7486 32.5438 31.7309C31.8364 31.7309 31.1289 31.7309 30.5057 31.6153C30.1825 31.0417 30.0809 30.3732 30.2194 29.7322C30.3373 26.6597 30.472 23.5707 30.5899 20.4817C30.6229 19.9316 30.6229 19.38 30.5899 18.8299C30.5168 17.7194 30.1449 16.6479 29.5119 15.7243C28.947 14.839 28.0562 14.2009 27.0243 13.9426C25.9925 13.6842 24.8988 13.8254 23.9702 14.3368C23.5181 14.5957 23.0796 14.8769 22.6564 15.1792C22.3701 14.7497 22.1006 14.3863 21.8816 13.9899C21.0394 12.4537 20.1972 10.8844 19.4055 9.36467C19.0247 8.66587 18.5971 7.99263 18.1254 7.34939C17.6492 6.45728 16.8422 5.77834 15.8707 5.45256C14.8992 5.12678 13.8372 5.17898 12.9038 5.59841C12.6313 5.6533 12.3556 5.69192 12.0784 5.71404C11.6405 5.20197 11.1688 4.67337 10.714 4.06218C9.80072 2.92576 8.7091 1.93886 7.47999 1.13838C6.87615 0.741685 6.21841 0.430285 5.52609 0.213334C4.97984 -0.00186444 4.38781 -0.081287 3.8027 -0.0178656C3.21759 0.0455558 2.65754 0.249854 2.17239 0.576846C1.68725 0.903838 1.29206 1.34338 1.022 1.85636C0.751942 2.36933 0.615391 2.93982 0.624496 3.51706C0.577198 4.46389 0.685253 5.41201 0.94453 6.32523C1.41616 7.9771 2.03939 9.4803 2.62893 11.0496C2.81421 11.5616 3.01634 12.0737 3.25216 12.7014L1.88779 13.6926C1.36508 14.0859 0.933933 14.584 0.623138 15.1537C0.31234 15.7234 0.129047 16.3516 0.0854874 16.9963C-0.153778 18.6313 0.147278 20.2986 0.94453 21.7537C1.95517 23.4055 3.06687 25.0574 4.19542 26.7092C4.86918 27.6838 5.66084 28.5759 6.23354 29.4844C6.0651 30.1121 5.61031 30.0956 5.25659 30.2608C4.55185 30.4859 3.91538 30.8796 3.40461 31.4063C2.89385 31.9331 2.52488 32.5762 2.33099 33.2778C2.1371 33.9794 2.1244 34.7172 2.29405 35.4248C2.46369 36.1324 2.81033 36.7874 3.30269 37.3307C4.09435 38.4375 4.98708 39.4782 5.79559 40.5519C6.13247 40.9814 6.43567 41.4439 6.7557 41.9064C6.4862 42.3689 6.21669 42.7654 5.99772 43.1783C5.54542 43.9041 5.33778 44.7512 5.4043 45.5993C5.47082 46.4473 5.80812 47.2533 6.36829 47.9027C7.47472 49.3664 8.68487 50.7519 9.98975 52.0489C10.746 52.7605 11.3386 53.6223 11.7278 54.5766C12.1171 55.5309 12.294 56.5558 12.2468 57.5826C12.2228 60.8301 12.0034 64.0734 11.5899 67.2956C11.3335 68.6623 11.2487 70.0547 11.3373 71.4417L12.2974 71.7391C12.5163 71.5243 12.6848 71.4252 12.7185 71.2931C13.7628 67.5599 14.8745 63.8266 15.7841 60.0604C16.4763 57.289 17.0105 54.482 17.3842 51.6524C17.5659 50.6317 17.5086 49.5838 17.2168 48.588C16.9251 47.5922 16.4063 46.6744 15.6999 45.9039C14.9756 45.1441 14.3186 44.3346 13.6112 43.5748C12.1965 42.0522 10.9852 40.3592 10.0066 38.5366C9.90431 38.4172 9.8281 38.2785 9.78269 38.129C9.73727 37.9795 9.72362 37.8225 9.74257 37.6677C9.76151 37.5129 9.81266 37.3635 9.89284 37.2288C9.97302 37.0941 10.0805 36.977 10.2087 36.8847C10.5119 36.9838 10.9667 37.0004 11.2194 37.2481C11.9098 37.9096 12.5409 38.6281 13.1059 39.3956C14.2143 40.8619 15.4916 42.1977 16.9126 43.3766C16.9126 43.4757 17.199 43.3766 17.3506 43.4757C17.7897 41.3648 17.8354 39.1933 17.4853 37.0664C14.7594 34.5257 12.417 31.6166 10.5288 28.4272C9.8752 27.2418 9.31219 26.0106 8.84435 24.7435C8.66397 24.2147 8.52323 23.6736 8.42326 23.1247Z" fill="#2B3D2D"/>
<path d="M25.7559 68.5504L25.0821 67.5098C24.5768 67.741 24.0378 67.8071 23.7683 68.1044C22.8587 69.1121 22.0839 70.1693 21.1911 71.2265C20.6016 71.9698 20.0289 72.7462 19.5067 73.5226C17.9971 75.5787 15.9564 77.2036 13.5945 78.2304C12.8028 78.6103 11.9101 78.9407 11.2195 79.3702C10.9171 79.5177 10.6743 79.7612 10.5306 80.061C10.3869 80.3608 10.3507 80.6995 10.4278 81.022C10.4617 81.3791 10.6132 81.7157 10.8593 81.9809C11.1054 82.2461 11.4329 82.4256 11.7922 82.4922C12.3536 82.6099 12.9374 82.5698 13.4766 82.3766C15.4435 81.706 17.2534 80.6557 18.7993 79.2876C20.4671 77.823 21.8385 76.0633 22.8419 74.1007C23.802 72.2506 24.7789 70.4501 25.7559 68.5504Z" fill="white"/>
<path d="M12.4314 86.9208C13.5313 87.5718 14.8094 87.8736 16.0908 87.7849C17.3723 87.6962 18.5945 87.2213 19.5901 86.4252C21.501 85.0658 23.1542 83.3886 24.4749 81.4697C25.7189 79.7162 26.6318 77.758 27.1699 75.6881C27.1699 75.556 27.1699 75.3908 27.0689 75.2256C27.0057 75.1496 26.926 75.0884 26.8357 75.0463C26.7454 75.0042 26.6467 74.9824 26.5467 74.9824C26.4467 74.9824 26.348 75.0042 26.2577 75.0463C26.1674 75.0884 26.0877 75.1496 26.0245 75.2256C24.9128 76.2498 23.818 77.307 22.7568 78.3807C21.3202 79.9822 19.7604 81.4733 18.091 82.8407C17.3526 83.4478 16.4734 83.8675 15.5307 84.0631C13.6779 84.4265 13.4084 84.7238 12.4314 86.9208Z" fill="white"/>
<path d="M22.4883 89.1009L21.9156 88.3906C20.2475 88.6251 18.6275 89.1156 17.1151 89.8443C16.2449 90.2715 15.5367 90.9602 15.0938 91.81C17.2161 93.4619 18.1594 93.4619 19.9448 91.81C20.9897 91.1062 21.8592 90.1802 22.4883 89.1009Z" fill="white"/>
<path d="M2.34203 91.1138C2.39932 91.4885 2.58624 91.8325 2.87144 92.0882C3.15665 92.3438 3.52281 92.4955 3.90852 92.5178C4.18773 92.5339 4.46707 92.4889 4.72635 92.386C4.98562 92.2832 5.21833 92.1251 5.40764 91.9232C5.56264 91.7711 5.67461 91.582 5.73251 91.3746C5.79041 91.1672 5.79226 90.9485 5.73788 90.7402C5.68349 90.5319 5.57475 90.341 5.42234 90.1864C5.26993 90.0318 5.0791 89.9187 4.86863 89.8583C3.79062 89.561 3.18423 89.8583 2.34203 91.1138Z" fill="#F1EBDF"/>
</g>
<defs>
<clipPath id="clip0">
<rect width="38" height="93" transform="matrix(-1 0 0 1 38 0)" fill="white"/>
</clipPath>
</defs>
</svg>
