<svg width="216" height="140" viewBox="0 0 216 140" fill="none" xmlns="http://www.w3.org/2000/svg">
<g clip-path="url(#clip0)">
<path d="M203.324 94.9945L203.844 95.3381C203.75 95.5555 203.634 95.7627 203.497 95.9565L200.485 99.2203C199.896 99.9074 199.308 100.595 199.654 101.625C200.727 102.415 201.177 102.415 202.112 101.625C202.355 101.385 202.562 101.075 202.805 100.801C203.047 100.526 204.017 99.4951 204.605 98.808C204.54 99.7896 204.192 100.732 203.601 101.522C202.078 103.858 200.589 106.229 199.031 108.393C198.78 108.871 198.432 109.292 198.009 109.629C197.586 109.966 197.096 110.212 196.572 110.352C196.64 109.922 196.556 109.483 196.336 109.107C196.115 108.732 195.77 108.443 195.36 108.29C192.39 106.592 189.585 104.626 186.98 102.415C184.22 100.054 181.639 97.4933 179.259 94.754C178.081 93.4141 176.87 92.143 175.796 90.8718C175.72 90.762 175.623 90.6684 175.51 90.5967C175.396 90.5249 175.27 90.4763 175.138 90.4539C175.005 90.4315 174.87 90.4356 174.739 90.4661C174.608 90.4966 174.485 90.5528 174.376 90.6313C174.15 90.7791 173.984 91.0019 173.908 91.2599C173.832 91.5179 173.851 91.7944 173.961 92.0399C173.961 92.5209 174.342 93.0019 174.55 93.4828C173.996 94.2387 173.545 94.9601 172.991 95.6129C172.437 96.2657 171.745 96.8497 171.156 97.4681C168.732 100.01 166.378 102.621 163.885 105.095C162.885 106.422 161.493 107.407 159.903 107.912C158.76 108.153 157.617 108.221 156.44 108.359C155.706 108.466 154.966 108.523 154.224 108.531C152.562 108.531 150.761 108.221 149.272 108.153L139.196 107.844C137.672 107.844 136.114 107.844 134.591 107.534C133.067 107.225 131.924 107.122 130.574 106.882L128.773 101.934C128.427 100.938 128.046 100.01 127.804 99.0141C127.215 96.3687 126.73 93.689 126.176 91.0436C125.622 88.3982 124.861 84.9626 124.307 81.9049C123.545 77.6105 122.714 73.3503 122.333 69.0215C122.333 67.7503 122.125 66.4792 122.125 65.2423C122.125 63.4558 122.125 61.8068 122.125 59.9172C122.125 59.9172 122.333 59.7454 122.333 59.6423C122.333 58.9552 122.333 58.3025 122.021 57.5123L121.052 57.8902C120.852 58.0006 120.627 58.0562 120.399 58.0512C120.17 58.0462 119.948 57.9807 119.753 57.8616C119.559 57.7425 119.401 57.574 119.294 57.3737C119.187 57.1734 119.137 56.9484 119.147 56.7221C119.155 56.1504 119.248 55.583 119.424 55.0387C119.836 54.1146 120.082 53.1264 120.151 52.1184C119.567 52.3484 118.965 52.5322 118.351 52.6681C117.658 52.6681 117.416 52.4276 117.381 51.7062C117.378 51.3976 117.445 51.0923 117.577 50.8129C117.709 50.5334 117.902 50.2868 118.143 50.0914C119.044 49.1228 119.676 47.9391 119.978 46.6558C120.096 46.1934 120.177 45.7224 120.221 45.2473C119.771 45.6595 119.563 45.8657 119.286 46.0718C119.043 46.2855 118.776 46.47 118.489 46.6215C118.239 46.8056 117.935 46.905 117.624 46.905C117.312 46.905 117.008 46.8056 116.758 46.6215C116.55 46.3907 116.419 46.1022 116.382 45.795C116.345 45.4878 116.404 45.1767 116.55 44.9037C116.993 43.9744 117.386 43.0225 117.728 42.0522C118.108 40.6436 118.351 39.2006 118.662 37.7577C118.974 36.3147 119.009 35.662 119.251 34.6313C119.362 34.0907 119.589 33.5804 119.918 33.1355C120.247 32.6907 120.669 32.3219 121.156 32.0546C121.175 31.9411 121.187 31.8262 121.19 31.7111C119.517 31.6389 117.898 31.1033 116.516 30.165C116.931 29.9246 117.139 29.7184 117.381 29.6841C117.712 29.6155 118.054 29.6155 118.385 29.6841C120.271 29.8804 122.16 29.3379 123.649 28.1724C124.756 27.6496 125.917 27.2465 127.111 26.97H127.631C127.043 26.6377 126.393 26.4268 125.72 26.3501C125.048 26.2733 124.367 26.3323 123.718 26.5233C123.269 26.5747 122.816 26.5747 122.367 26.5233C122.281 26.4593 122.212 26.3763 122.164 26.2809C122.116 26.1855 122.09 26.0803 122.09 25.9736C122.09 25.867 122.116 25.7618 122.164 25.6663C122.212 25.5709 122.281 25.4879 122.367 25.4239C122.557 25.2705 122.767 25.1434 122.991 25.046C123.859 24.5337 124.829 24.2159 125.834 24.115C126.839 24.0141 127.854 24.1325 128.808 24.462L132.478 25.9049L133.379 26.1454C132.963 24.8399 132.548 23.8092 131.37 23.3626C130.193 22.916 129.639 22.8473 128.773 22.5724C128.541 22.5167 128.318 22.4238 128.115 22.2976C128.014 22.2455 127.928 22.1667 127.869 22.0698C127.809 21.9728 127.778 21.8614 127.778 21.7479C127.778 21.6343 127.809 21.5229 127.869 21.426C127.928 21.329 128.014 21.2502 128.115 21.1982C128.393 21.0161 128.706 20.8944 129.034 20.8411C129.363 20.7878 129.698 20.8041 130.02 20.889C132.617 21.18 135.108 22.0745 137.292 23.5C137.672 23.7405 138.123 23.9123 138.815 24.2902C138.33 22.9503 137.915 21.954 136.876 21.4387C136.391 21.1982 136.114 20.9233 136.253 20.3393C136.392 20.2035 136.563 20.1042 136.75 20.0502C136.937 19.9963 137.135 19.9893 137.326 20.0301C138.414 20.1828 139.444 20.6106 140.318 21.2725C141.191 21.9343 141.878 22.8079 142.312 23.8092L142.52 24.2558C143.074 25.3209 143.455 25.6301 144.598 25.2865C146.061 24.9566 147.595 25.1899 148.891 25.9393C150.33 26.5856 151.689 27.3924 152.943 28.3442C154.16 29.103 155.433 29.7691 156.752 30.3368C157.236 30.5382 157.69 30.804 158.102 31.127C158.656 31.6423 158.552 32.1233 157.894 32.5356L156.855 33.1196C156.986 33.2757 157.125 33.4248 157.271 33.5663C158.57 34.6574 160.113 35.4233 161.772 35.7994C162.051 35.8665 162.319 35.9705 162.569 36.1086C162.762 36.1891 162.924 36.3297 163.031 36.5094C163.137 36.689 163.181 36.898 163.157 37.1049C163.126 37.3333 163.015 37.5437 162.845 37.7003C162.674 37.857 162.454 37.9501 162.223 37.9638H160.318C160.442 38.1979 160.593 38.4169 160.768 38.6166L163.919 41.0558L164.231 41.4338C164.058 42.1896 163.885 42.9798 162.95 43.1859C162.108 41.9685 161.171 40.8196 160.145 39.7503C159.864 39.9792 159.682 40.3064 159.637 40.6643C159.592 41.0223 159.687 41.3838 159.903 41.6743C160.561 43.0141 161.322 44.2853 161.946 45.6252C164.254 50.5724 166.562 55.5426 168.871 60.5356C169.667 62.2534 170.256 63.9712 170.948 65.792L166.724 69.3994C165.27 70.6019 163.885 71.873 162.43 73.1098C160.976 74.3466 159.314 75.6522 157.79 76.9577C156.267 78.2632 155.747 78.7442 154.778 79.7062C153.081 81.3209 151.315 83.1417 149.792 84.6878C149.584 84.8939 149.584 85.3405 149.515 85.6497L149.099 86.1307C148.649 86.8178 148.58 87.2644 148.926 87.5736C149.272 87.8828 149.826 87.5736 150.276 87.4019C151.558 86.543 152.873 85.6841 154.224 84.8595C155.574 84.035 156.509 83.5884 157.687 82.9356C162.51 79.9568 167.504 77.261 172.645 74.862C175.226 73.5302 177.899 72.3821 180.644 71.4264C182.561 73.5278 184.223 75.8456 185.595 78.3319L186.6 79.981C186.6 80.2215 186.6 80.462 186.877 80.6681C187.708 82.2141 188.539 83.7601 189.335 85.3405C190.963 88.4669 192.521 91.6276 194.114 94.7884C194.311 95.1638 194.543 95.5203 194.806 95.8534C196.33 95.2006 197.368 93.8608 199.134 93.8951C198.89 94.2703 198.671 94.6604 198.476 95.0632C198.321 95.3698 198.258 95.7143 198.295 96.0555C198.332 96.3967 198.467 96.7201 198.684 96.9871C198.942 97.2614 199.291 97.4334 199.667 97.4714C200.042 97.5093 200.419 97.4104 200.727 97.1933C201.151 96.8869 201.545 96.5418 201.905 96.1626C202.355 95.7503 202.839 95.3724 203.324 94.9945ZM145.602 59.3675C146.969 59.8469 148.46 59.8469 149.826 59.3675C152.648 58.4218 155.318 57.0798 157.756 55.3822C158.318 54.9876 158.786 54.4754 159.127 53.8818C159.468 53.2882 159.674 52.6276 159.729 51.9466C159.904 48.7771 159.247 45.6168 157.825 42.7736C157.683 42.3283 157.441 41.9207 157.117 41.5815C156.793 41.2423 156.396 40.9804 155.955 40.8154C155.263 41.3994 155.263 41.3994 155.436 42.0522C155.747 43.3577 156.024 44.6976 156.301 46.0031C155.643 45.7836 154.972 45.6001 154.293 45.4534C152.562 45.2473 150.83 45.0755 149.03 44.9724C147.61 44.7936 146.309 44.0959 145.381 43.0158C144.452 41.9357 143.963 40.5508 144.009 39.1319C144.015 38.6968 144.145 38.2722 144.384 37.9074C144.623 37.5425 144.961 37.2524 145.359 37.0706C146.93 36.3146 148.712 36.1087 150.415 36.4865C151.454 36.7614 152.562 36.9331 153.67 37.1736C153.741 36.8592 153.734 36.5323 153.649 36.2212C153.565 35.91 153.405 35.6238 153.185 35.3871C152.647 34.6055 151.938 33.955 151.11 33.4849C150.283 33.0148 149.358 32.7372 148.407 32.673C146.267 32.4044 144.1 32.4275 141.966 32.7417C139.196 33.1884 136.46 33.9785 133.725 34.5969C133.666 34.4467 133.561 34.3189 133.424 34.2324C133.287 34.1459 133.125 34.1051 132.963 34.116C132.131 34.1328 131.318 34.3701 130.609 34.8031C129.087 35.6389 127.783 36.8152 126.8 38.2387C125.552 39.7428 124.685 41.5217 124.272 43.4264C123.858 46.7003 123.986 50.0195 124.653 53.2522C124.789 53.7553 125.051 54.2162 125.415 54.592C125.621 54.7402 125.87 54.8199 126.124 54.8199C126.379 54.8199 126.628 54.7402 126.834 54.592C127.05 54.5115 127.233 54.3646 127.358 54.1729C127.482 53.9811 127.542 53.7547 127.527 53.527C127.527 53.1147 127.527 52.7025 127.527 52.2902C127.065 49.9029 126.914 47.4666 127.077 45.0411C127.147 44.3949 127.251 43.7527 127.388 43.1172L128.289 42.7393C129.189 42.2583 130.089 41.7086 131.024 41.2963C131.894 40.882 132.847 40.6669 133.812 40.6669C134.776 40.6669 135.729 40.882 136.599 41.2963C137.018 41.5451 137.373 41.886 137.638 42.2927C138.119 43.0691 138.348 43.9739 138.292 44.8838C138.236 45.7938 137.899 46.6645 137.326 47.3773C136.121 49.2089 134.449 50.6908 132.478 51.6718C130.934 52.462 129.63 53.6483 128.704 55.1074C128.493 55.4103 128.362 55.7617 128.326 56.1285C128.29 56.4952 128.348 56.8651 128.496 57.2031C128.959 58.3094 129.735 59.2587 130.731 59.9357C131.727 60.6127 132.899 60.9882 134.106 61.0166C136.283 61.1197 138.464 60.9115 140.581 60.3982C142.243 60.1577 143.94 59.7111 145.602 59.3675ZM147.749 63.8681H147.299C145.421 64.6628 143.458 65.2392 141.447 65.5859C139.984 65.8298 138.597 66.4059 137.395 67.2693C137.095 67.4121 136.841 67.6362 136.664 67.9158C136.486 68.1955 136.392 68.5192 136.392 68.8497C136.392 69.1802 136.486 69.504 136.664 69.7836C136.841 70.0632 137.095 70.2874 137.395 70.4301C137.88 70.739 138.404 70.9816 138.954 71.1516C140.373 71.5295 141.793 71.873 143.247 72.1135C143.948 72.2556 144.676 72.1517 145.308 71.8195C145.94 71.4873 146.435 70.9476 146.71 70.2927C147.587 68.5328 148.015 66.5863 147.956 64.6239C147.91 64.3663 147.841 64.1134 147.749 63.8681ZM137.014 79.019C137.311 79.7256 137.819 80.3251 138.469 80.7368C140.048 81.8419 141.821 82.6458 143.697 83.1074C144 83.1925 144.321 83.1783 144.615 83.0668C144.908 82.9554 145.157 82.7526 145.325 82.489C145.58 82.1668 145.758 81.7907 145.844 81.3896C146.311 79.689 146.521 77.9292 146.468 76.1675C146.36 75.7302 146.209 75.3044 146.017 74.8963C144.979 74.7054 143.906 74.825 142.936 75.2399C141.596 75.7693 140.29 76.3774 139.023 77.0608C138.569 77.2294 138.155 77.4909 137.809 77.8282C137.463 78.1656 137.192 78.5713 137.014 79.019ZM148.233 74.1062C148.572 74.6755 149.098 75.1121 149.722 75.343C151.004 75.7552 152.285 76.2706 153.531 76.7172C153.85 76.8675 154.196 76.9501 154.548 76.9598C154.9 76.9695 155.251 76.9059 155.577 76.7733C155.903 76.6407 156.197 76.4418 156.441 76.1896C156.686 75.9374 156.874 75.6373 156.994 75.3086C157.089 75.1203 157.17 74.925 157.236 74.7246C157.654 73.4841 157.864 72.1844 157.86 70.8767C157.888 70.5761 157.83 70.2738 157.694 70.0039C157.557 69.7341 157.347 69.5077 157.088 69.3502C156.828 69.1928 156.529 69.1108 156.225 69.1134C155.921 69.116 155.623 69.2032 155.367 69.3651C154.656 69.6811 153.928 69.9564 153.185 70.1896C151.788 70.6938 150.479 71.4125 149.307 72.3196C148.992 72.5384 148.732 72.8253 148.546 73.1587C148.36 73.492 148.253 73.8631 148.233 74.2436V74.1062ZM150.415 62.9405C150.468 63.1238 150.55 63.2977 150.657 63.4558C152.159 64.9811 154.05 66.0735 156.128 66.6166C156.566 66.759 157.041 66.7361 157.463 66.5522C157.885 66.3683 158.223 66.0365 158.414 65.6203C159.335 63.9835 159.934 62.1881 160.18 60.3295C160.353 58.4742 159.314 57.7871 157.687 58.646C155.47 59.8141 153.289 61.0509 151.107 62.2877C150.83 62.5626 150.657 62.8718 150.415 63.0779V62.9405ZM163.123 96.7123C162.925 96.9397 162.705 97.1469 162.465 97.3307L159.729 99.1859C159.514 99.2839 159.342 99.4569 159.246 99.6721C159.151 99.8874 159.138 100.13 159.21 100.354C159.289 100.59 159.452 100.79 159.669 100.917C159.885 101.043 160.141 101.087 160.387 101.041C160.671 101.021 160.95 100.963 161.218 100.869C162.576 100.161 163.758 99.1642 164.681 97.9491C164.907 97.7339 165.075 97.4669 165.172 97.1716C165.269 96.8764 165.291 96.562 165.236 96.2563C165.181 95.9506 165.051 95.6631 164.858 95.419C164.665 95.175 164.414 94.982 164.127 94.8571L161.738 93.6203C161.52 93.4669 161.251 93.4027 160.986 93.4411C160.722 93.4795 160.483 93.6175 160.318 93.8264C160.243 94.0198 160.21 94.2266 160.22 94.4336C160.231 94.6405 160.286 94.8429 160.38 95.0276C160.475 95.2122 160.608 95.3751 160.77 95.5055C160.932 95.636 161.121 95.7311 161.322 95.7847C162.015 96.197 162.465 96.5062 163.123 96.8497V96.7123ZM135.422 45.4877C135.488 44.9187 135.341 44.3452 135.009 43.8765C134.677 43.4078 134.183 43.0764 133.621 42.9454C133.023 42.8072 132.4 42.82 131.808 42.9826C131.216 43.1453 130.675 43.4526 130.234 43.8765C129.793 44.3004 129.467 44.8272 129.284 45.4088C129.101 45.9904 129.069 46.6082 129.189 47.2055C129.302 47.6711 129.548 48.0943 129.898 48.4236C130.249 48.7529 130.688 48.9742 131.163 49.0608C131.686 49.2008 132.235 49.2172 132.765 49.1085C133.296 48.9998 133.793 48.7691 134.218 48.4349C134.642 48.1008 134.981 47.6725 135.209 47.1845C135.436 46.6965 135.544 46.1624 135.526 45.6252L135.422 45.4877ZM128.115 76.2362C127.458 76.6141 127.596 77.3012 127.735 77.7822C128.041 79.0299 128.607 80.2001 129.397 81.2178C129.786 81.6753 130.324 81.9839 130.918 82.0905C131.512 82.1971 132.125 82.095 132.652 81.8019C133.254 81.2592 133.723 80.5869 134.023 79.8366C134.323 79.0863 134.446 78.2778 134.383 77.473C134.319 77.3037 134.217 77.1508 134.085 77.0259C133.953 76.901 133.795 76.8072 133.621 76.7516C133.442 76.7414 133.262 76.77 133.095 76.8352C132.927 76.9004 132.776 77.0008 132.652 77.1295C132.426 77.4649 132.262 77.837 132.167 78.2289C131.959 78.8129 131.959 79.5 131.405 79.9467C130.69 79.4076 130.158 78.6643 129.881 77.8166C129.743 77.4281 129.509 77.08 129.201 76.804C128.892 76.528 128.519 76.3329 128.115 76.2362ZM149.896 43.289C150.289 43.3412 150.689 43.3057 151.066 43.1851C151.444 43.0645 151.789 42.8619 152.078 42.592C152.366 42.3221 152.591 41.9917 152.734 41.625C152.878 41.2582 152.937 40.8642 152.908 40.4718C152.908 38.0669 151.731 37.3111 150.173 37.3454C149.749 37.293 149.319 37.3349 148.914 37.468C148.509 37.6011 148.138 37.8221 147.83 38.1149C147.522 38.4077 147.283 38.765 147.131 39.1608C146.979 39.5566 146.918 39.9809 146.952 40.4031C146.923 40.7778 146.973 41.1544 147.1 41.5085C147.227 41.8626 147.428 42.1863 147.689 42.4584C147.951 42.7306 148.267 42.9452 148.617 43.0883C148.967 43.2314 149.344 43.2997 149.722 43.289H149.896ZM167.209 86.4399C166.966 87.2644 166.205 87.5049 165.651 87.9859C165.097 88.4669 164.82 88.4669 164.646 88.8448C164.492 89.2428 164.492 89.6836 164.646 90.0816C164.68 90.182 164.735 90.2742 164.808 90.3522C164.88 90.4302 164.968 90.4922 165.066 90.5343C165.164 90.5765 165.269 90.5977 165.376 90.5966C165.483 90.5956 165.588 90.5723 165.685 90.5282C167.209 90.0944 168.517 89.1151 169.356 87.7798C169.55 87.4598 169.677 87.1039 169.728 86.7337C169.779 86.3635 169.754 85.9868 169.654 85.6266C169.553 85.2665 169.38 84.9305 169.144 84.6391C168.908 84.3477 168.615 84.1071 168.282 83.9319C167.798 83.7079 167.301 83.5129 166.793 83.3479L165.858 84.4129L167.209 86.4399ZM149.376 104.511C149.757 104.717 150.103 105.095 150.38 105.061C151.553 104.898 152.71 104.646 153.843 104.305C154.199 104.203 154.517 104 154.759 103.72C155 103.441 155.154 103.098 155.202 102.733C155.25 102.369 155.189 101.998 155.028 101.667C154.866 101.336 154.611 101.059 154.293 100.869C153.228 99.9746 151.973 99.3288 150.623 98.9798C149.93 98.9798 149.376 98.9798 149.03 99.5638C149.049 99.7852 149.135 99.9957 149.278 100.167C149.42 100.339 149.611 100.464 149.826 100.526C150.184 100.633 150.531 100.771 150.865 100.938C151.592 101.35 152.596 101.488 153.012 102.45C151.731 103.515 149.792 102.656 149.099 104.511H149.376ZM167.243 64.9675C167.294 64.7172 167.26 64.4573 167.148 64.2278C167.035 63.9982 166.85 63.8115 166.62 63.6963C166.135 63.4558 165.754 63.6963 165.374 64.0055L164.231 64.6927C163.538 65.1736 162.846 65.6203 162.223 66.1012C162.009 66.2352 161.847 66.4377 161.765 66.6752C161.683 66.9127 161.686 67.1709 161.772 67.4068C162.177 67.9904 162.753 68.4357 163.423 68.6817C164.092 68.9277 164.822 68.9624 165.512 68.781C165.513 68.7581 165.513 68.7352 165.512 68.7123C166.321 67.6128 166.822 66.321 166.966 64.9675H167.243ZM128.947 67.0632C128.254 67.716 128.115 68.1626 128.393 68.8841C128.527 69.3606 128.713 69.8214 128.947 70.2583C129.189 70.8483 129.565 71.3752 130.045 71.7981C130.525 72.2211 131.097 72.5288 131.717 72.6976C132.375 72.4227 133.206 72.2509 133.483 71.4951C133.775 70.9764 133.954 70.4023 134.008 69.8103C134.062 69.2183 133.989 68.6217 133.794 68.0595C133.794 67.819 133.448 67.4411 133.206 67.4068C132.963 67.3724 132.617 67.716 132.513 68.0939C132.409 68.4718 132.028 69.4338 131.682 70.3614L130.435 68.3687C129.812 67.9221 129.604 67.2006 128.67 67.0632H128.947ZM175.623 88.2608C176.538 87.8036 177.428 87.2991 178.289 86.7491C178.697 86.4873 179.031 86.1285 179.263 85.7055C179.495 85.2824 179.616 84.8085 179.616 84.327C179.616 83.8455 179.495 83.3716 179.263 82.9486C179.031 82.5255 178.697 82.1667 178.289 81.9049C177.458 81.3209 176.627 81.2178 176.246 81.6644C175.865 82.1111 176.246 82.9012 176.731 83.6227C177.216 84.3442 177.285 84.7221 176.731 85.2718L175.796 85.8902C175.385 86.2118 174.992 86.5559 174.619 86.9209L175.623 88.2608ZM131.578 94.4448C131.207 94.5913 130.902 94.8684 130.723 95.2233C130.545 95.5781 130.504 95.9859 130.609 96.3687C130.801 97.3861 131.339 98.3075 132.132 98.9798C132.585 99.3399 133.159 99.5155 133.738 99.4708C134.317 99.4262 134.857 99.1646 135.249 98.7393C136.031 97.632 136.508 96.3411 136.634 94.9945C136.604 94.7999 136.529 94.6148 136.415 94.4539C136.301 94.2929 136.15 94.1604 135.976 94.0669C135.595 93.8608 135.318 94.2387 135.179 94.6166C135.039 94.9918 134.877 95.3589 134.695 95.716C134.348 96.3687 134.21 97.1246 133.517 97.4681C132.167 96.8841 132.34 95.4411 131.578 94.4448ZM143.04 94.0325C142.278 93.7921 142.105 93.0706 141.758 92.5552C141.412 92.0399 141.135 91.9025 140.65 92.0743C140.4 92.1743 140.197 92.3642 140.081 92.6061C139.966 92.8481 139.947 93.1243 140.027 93.3798C140.307 94.2376 140.808 95.0076 141.481 95.6129C141.74 95.9324 142.087 96.1696 142.481 96.2952C142.874 96.4208 143.295 96.4293 143.693 96.3196C144.091 96.2099 144.448 95.9869 144.72 95.6781C144.991 95.3693 145.165 94.9883 145.221 94.5822C145.498 93.5971 145.399 92.5452 144.944 91.6276C144.944 91.3871 144.563 91.0436 144.425 91.0779C144.275 91.0992 144.133 91.1575 144.012 91.2476C143.891 91.3377 143.795 91.4566 143.732 91.5933C143.455 92.3491 143.282 93.1393 143.04 94.0325ZM183.552 95.716C183.552 96.1283 183.552 96.5062 183.76 96.7123C184.288 97.4272 184.983 98.004 185.785 98.3931C186.587 98.7821 187.473 98.9717 188.366 98.9454C188.622 98.9346 188.873 98.8696 189.102 98.7547C189.331 98.6398 189.532 98.4778 189.693 98.2793C189.854 98.0809 189.97 97.8507 190.033 97.6041C190.097 97.3576 190.107 97.1004 190.062 96.8497C189.883 96.18 189.652 95.5252 189.37 94.8914C189.349 94.7909 189.309 94.6955 189.25 94.611C189.191 94.5266 189.116 94.4549 189.029 94.4002C188.941 94.3456 188.843 94.3092 188.741 94.2932C188.639 94.2773 188.535 94.2821 188.435 94.3074C188.245 94.3488 188.078 94.4609 187.968 94.6206C187.859 94.7803 187.815 94.9756 187.846 95.1663V96.8497L186.011 96.197L184.349 95.3724L183.552 95.716ZM151.142 94.5822C151.419 95.235 151.8 95.5786 152.423 95.4411C153.697 95.2659 154.895 94.7424 155.886 93.9295C156.173 93.7254 156.4 93.45 156.545 93.131C156.69 92.812 156.748 92.4607 156.713 92.1124C156.678 91.7641 156.551 91.4312 156.345 91.1471C156.139 90.8629 155.861 90.6376 155.54 90.4939L154.951 90.219C154.526 90.0235 154.042 89.9964 153.598 90.1433C153.154 90.2902 152.783 90.6 152.562 91.0092C152.77 91.9025 153.704 92.0399 154.328 92.5896C153.427 93.5859 151.835 93.3798 151.142 94.5822ZM182.306 90.0129C181.704 89.8344 181.091 89.6966 180.471 89.6006C179.536 89.6006 179.19 90.0816 179.64 90.9062C179.852 91.2605 180.138 91.5661 180.478 91.803C180.818 92.0399 181.205 92.2026 181.613 92.2804C181.876 92.3919 182.159 92.4494 182.444 92.4494C182.73 92.4494 183.013 92.3919 183.275 92.2804C183.946 91.8766 184.458 91.2591 184.728 90.5289C184.999 89.7987 185.012 88.9991 184.764 88.2608C184.745 88.1481 184.702 88.0408 184.637 87.9464C184.572 87.852 184.487 87.7727 184.389 87.7139C184.29 87.6551 184.18 87.6183 184.065 87.6059C183.951 87.5936 183.835 87.606 183.726 87.6424L182.306 90.0129ZM142.624 99.4264L141.793 102.141C140.65 101.763 140.512 100.217 139.196 100.182C138.33 100.938 138.261 101.075 138.711 101.934C138.976 102.467 139.345 102.942 139.797 103.331C140.249 103.72 140.774 104.016 141.343 104.202C142.728 104.648 143.732 104.202 143.663 102.621C143.539 101.576 143.33 100.542 143.04 99.5295L142.624 99.4264ZM130.643 91.4902C131.206 91.2993 131.704 90.9575 132.083 90.5027C132.462 90.0479 132.707 89.4978 132.79 88.9135C133.102 87.9516 133.067 87.8828 132.098 87.2988C131.128 87.5736 131.163 88.6387 130.505 89.2914C130.24 88.7234 129.939 88.1726 129.604 87.6424C129.258 87.1614 128.912 86.543 128.115 86.8865C128.015 87.8179 128.203 88.7576 128.654 89.5802C129.106 90.4028 129.8 91.0691 130.643 91.4902ZM192.971 103.206C193.109 103.468 193.297 103.702 193.525 103.893C193.871 104.099 194.633 103.893 194.91 103.274C195.187 102.656 195.395 102.415 194.91 101.934L194.702 101.763C194.079 101.453 192.832 102.209 192.832 103.068L192.971 103.206Z" fill="#F6C168"/>
<path d="M47.8884 62.2878C49.2648 64.383 50.2391 66.7125 50.7624 69.1589C51.0741 70.8767 51.2126 72.5945 51.3857 74.3123C51.5588 76.0301 51.6627 77.7479 51.9051 79.5688C52.0814 80.4079 52.3484 81.2257 52.7015 82.008C53.0131 82.9013 53.3594 83.7945 53.6364 84.6878C53.7481 84.9744 53.7647 85.2889 53.6838 85.5855C53.6028 85.8821 53.4285 86.1454 53.1863 86.3369C52.8344 85.9969 52.4645 85.6758 52.0782 85.3749C50.0353 83.7258 48.0616 81.9393 45.984 80.462C44.9105 79.6375 43.664 79.0191 42.5213 78.2632C40.0382 76.7568 37.9779 74.6535 36.5309 72.1479C34.9479 69.0293 34.3793 65.5001 34.9035 62.0473C35.1234 60.626 35.2391 59.1907 35.2498 57.7528C35.2772 57.0988 35.1158 56.4507 34.7846 55.8846C34.4533 55.3186 33.966 54.8582 33.3799 54.5577C30.4443 53.011 27.6619 51.1935 25.0696 49.1295C24.7256 48.8721 24.354 48.6532 23.9615 48.4767V48.6829L24.1693 49.0264C25.368 50.8906 26.0644 53.0289 26.1917 55.2365C26.319 57.4442 25.873 59.6473 24.8964 61.635C24.377 62.9405 23.7884 64.2117 23.3382 65.5172C23.1016 66.3473 22.9508 67.1992 22.8881 68.0596C22.8881 69.262 22.1956 69.9835 21.3645 70.0522C20.5335 70.1209 19.9449 69.5025 19.6332 68.3C19.339 67.1786 18.8209 66.1271 18.1096 65.208C17.1055 63.8681 16.0667 62.4939 15.0279 61.1884C12.7982 58.3116 11.1519 55.0331 10.1802 51.5344C10.0916 51.0921 10.0916 50.6368 10.1802 50.1945C10.3879 48.0988 10.3879 46.2436 10.7688 44.354C10.9297 43.2866 11.1611 42.2307 11.4614 41.1933C11.7384 40.197 12.1193 39.1663 12.5002 37.9982C7.95572 34.0935 3.77234 29.7933 0 25.1491L3.46265 17.9688C3.73966 18.2436 3.98205 18.4497 4.1898 18.6902C6.61366 21.4387 8.96826 24.2902 11.496 26.97C13.2273 28.7908 15.1318 30.4056 17.0016 32.1577C18.8714 33.9099 20.4643 35.1123 22.0571 36.5896L23.1305 37.5516L23.7884 36.7957C25.2112 35.0072 27.0539 33.5917 29.1555 32.673L32.0988 31.3332C34.0687 30.5805 36.1523 30.1624 38.2623 30.0964C41.3791 29.9439 44.5022 30.2214 47.5422 30.9209C49.2735 31.2301 51.0048 31.4362 52.7015 31.7798C54.3982 32.1234 56.1642 32.57 57.6531 33.0166C58.4373 33.1924 59.1495 33.5996 59.6961 34.1847V35.3528C58.8639 36.1209 57.8329 36.6443 56.7182 36.8645C54.2364 37.4422 51.8868 38.4796 49.7929 39.9221C47.6083 41.452 45.2907 42.7857 42.8676 43.9074C40.1926 44.9407 37.3115 45.3407 34.4534 45.0755C33.8922 44.9758 33.3178 44.9758 32.7567 45.0755C32.9544 45.3058 33.1882 45.503 33.4492 45.6595C36.9118 47.7209 40.6861 49.851 44.3565 51.8436C45.0721 52.1751 45.8522 52.3469 46.6419 52.3469C47.4316 52.3469 48.2117 52.1751 48.9272 51.8436C50.3681 51.3262 51.7494 50.6583 53.0478 49.851C55.0907 48.5798 57.0298 47.1712 59.0035 45.797C61.1497 44.2892 63.6335 43.3223 66.2405 42.9798C69.4728 42.499 72.7367 42.2578 76.0051 42.2583C77.0003 42.1988 77.9865 42.0376 78.9484 41.7773H79.3985C80.2988 41.5025 80.8528 41.7773 81.1645 42.224C81.4761 42.6706 81.1645 43.3234 80.5758 43.9074C80.2699 44.1881 79.9808 44.4863 79.7102 44.8007L73.1311 52.5651C71.4002 54.5518 69.0242 55.8764 66.4136 56.3099C63.8603 56.8876 61.2327 57.073 58.6226 56.8596L54.8137 56.516C55.0009 56.6818 55.2107 56.8206 55.437 56.9283C60.2598 59.1353 65.2643 60.9283 70.3956 62.2878C74.1353 63.2497 77.9442 63.9369 81.7185 64.7614C82.2814 64.8899 82.8363 65.0505 83.3806 65.2424C84.2166 65.5177 84.925 66.0822 85.3764 66.8328C85.8277 67.5834 85.9919 68.47 85.8391 69.3307C85.6856 70.1462 85.2611 70.8871 84.6335 71.4351C84.0058 71.9832 83.2111 72.3067 82.3764 72.354C81.846 72.3878 81.314 72.3878 80.7836 72.354C72.5843 71.0166 64.5519 68.8169 56.8221 65.7921C54.1904 64.7614 51.6281 63.6276 48.9965 62.5626C48.7307 62.4483 48.4515 62.3675 48.1654 62.3221H47.8884V62.2878Z" fill="#234E32"/>
<path d="M99.8612 61.8388C99.5842 61.0142 99.3419 60.1897 99.0648 59.3995C98.0957 56.4548 97.3889 53.4313 96.9526 50.3639C96.4907 46.9486 96.3632 43.4969 96.5717 40.0572C96.6932 38.1391 96.9594 36.2327 97.3681 34.3541C97.8289 31.661 98.5003 29.0076 99.3765 26.4179C99.3765 26.1774 99.5496 25.9713 99.6189 25.7308H99.9997C101.281 25.7308 101.8 25.0437 101.419 23.8412L100.9 22.3296L101.385 21.7799L101.627 22.2952C101.775 22.8451 101.96 23.3846 102.181 23.9099C102.295 24.1546 102.495 24.3492 102.744 24.4569C102.993 24.5645 103.274 24.5777 103.532 24.494C103.794 24.4289 104.024 24.2706 104.177 24.0491C104.33 23.8276 104.396 23.5581 104.363 23.2915C104.322 23.0134 104.264 22.7381 104.19 22.467C103.844 21.2073 103.844 19.8788 104.19 18.6191H105.194C105.17 19.1491 105.112 19.677 105.021 20.1995C104.744 21.505 105.021 22.1921 106.44 22.8106C106.764 22.7544 107.066 22.6133 107.316 22.4018C107.565 22.1903 107.753 21.9162 107.86 21.6081C108.034 20.8867 108.138 20.1504 108.172 19.4093C108.474 19.9268 108.707 20.4812 108.864 21.0584C109.124 23.0427 109.124 25.052 108.864 27.0363C108.743 28.4653 108.743 29.9018 108.864 31.3308C108.864 31.7087 108.864 32.0866 108.864 32.4302C108.864 34.4228 108.864 36.3811 108.864 38.3737C108.957 40.2838 109.154 42.1876 109.453 44.0768C109.85 46.6098 110.669 49.0596 111.877 51.3259C112.704 53.2699 113.877 55.0504 115.339 56.5823C115.64 56.8469 115.908 57.1468 116.136 57.4756C116.136 61.2204 116.136 64.9652 116.136 68.6756C115.893 71.4584 115.928 74.2412 115.824 77.024L111.392 73.8633C110.422 73.1418 109.487 72.3517 108.518 71.5615C109.591 71.2523 109.834 70.84 109.453 69.9124C109.099 69.269 108.909 68.5496 108.899 67.8167L110.18 68.4007L111.357 69.1566C112.327 68.1946 112.327 67.9885 111.565 67.2326C110.863 66.5352 109.993 66.0268 109.037 65.7553C108.765 65.6656 108.474 65.6431 108.191 65.6899C107.907 65.7368 107.64 65.8515 107.411 66.0241C107.183 66.1967 107 66.422 106.879 66.6805C106.758 66.939 106.703 67.2229 106.717 67.5075C106.861 68.1859 107.058 68.8522 107.306 69.5001C107.479 69.9811 107.652 70.4621 107.86 70.9774L107.341 70.4621C105.215 68.5727 103.31 66.4522 101.662 64.1406C101.101 63.3438 100.5 62.5756 99.8612 61.8388ZM104.882 55.5517C105.644 55.2768 105.678 54.8302 105.54 54.4523C105.286 53.4726 104.914 52.5268 104.432 51.6351C104.198 51.2462 103.868 50.9226 103.473 50.6946C103.078 50.4666 102.632 50.3416 102.175 50.3313C101.719 50.321 101.267 50.4258 100.862 50.6358C100.458 50.8457 100.113 51.1541 99.8612 51.532C99.6124 51.8113 99.4276 52.1408 99.3196 52.4978C99.2115 52.8548 99.1829 53.2309 99.2355 53.5999C99.2882 53.969 99.421 54.3224 99.6246 54.6356C99.8283 54.9488 100.098 55.2145 100.415 55.4142C100.558 55.4747 100.711 55.5059 100.865 55.5059C101.02 55.5059 101.173 55.4747 101.316 55.4142C101.489 55.4142 101.593 54.9676 101.662 54.6928C101.679 54.4067 101.679 54.1199 101.662 53.8339C101.662 53.3529 101.662 52.7688 102.147 52.5627C102.631 52.3566 102.943 52.9406 103.255 53.3529L104.882 55.5517ZM104.882 34.6633C105.817 33.9418 105.921 33.8044 105.782 33.2204C105.471 31.8805 104.986 30.6093 103.428 30.3001C102.74 30.4219 102.114 30.7692 101.65 31.2863C101.185 31.8034 100.909 32.4603 100.865 33.1517C100.797 33.6588 100.882 34.1747 101.11 34.6336C101.339 35.0925 101.699 35.4736 102.147 35.7283C102.562 34.8694 102.389 33.8731 103.151 33.1517C103.67 33.9418 103.878 34.6977 104.917 34.7664L104.882 34.6633ZM104.536 47.4093L104.917 47.0314C104.936 46.9177 104.936 46.8016 104.917 46.6879C105.117 44.8905 104.78 43.0742 103.947 41.4658C103.835 41.2451 103.669 41.0566 103.462 40.9182C103.256 40.7799 103.018 40.6963 102.77 40.6756C102.318 40.566 101.842 40.6077 101.416 40.794C100.99 40.9804 100.638 41.3011 100.415 41.7063C100.2 42.1371 100.119 42.6213 100.18 43.098C100.242 43.5748 100.444 44.0229 100.762 44.386C101.696 44.386 101.593 43.1492 102.389 42.84C103.878 44.1799 103.255 46.2069 104.57 47.5124L104.536 47.4093ZM110.076 58.4032L111.461 58.7811C111.762 58.885 112.077 58.9429 112.396 58.9529C112.708 58.9529 113.123 58.7811 113.192 58.5406C113.218 58.3932 113.202 58.2419 113.147 58.1027C113.092 57.9635 113 57.8417 112.881 57.7504C112.07 57.0947 111.053 56.7421 110.007 56.7541C109.761 56.7701 109.522 56.8368 109.304 56.9499C109.086 57.063 108.895 57.2199 108.742 57.4107C108.588 57.6016 108.477 57.822 108.415 58.058C108.352 58.294 108.34 58.5403 108.379 58.7811C108.379 59.6056 108.691 60.3958 108.83 61.186C108.851 61.485 108.948 61.7739 109.111 62.0261C109.274 62.2783 109.499 62.4856 109.764 62.629C110.769 62.148 110.838 62.0106 110.63 61.0829L110.076 58.4032Z" fill="#F6C168"/>
<path d="M99.8638 61.8398C100.535 62.5407 101.171 63.2746 101.768 64.0386C103.378 66.3808 105.248 68.5359 107.343 70.4632L107.966 70.8411L108.624 71.4251C109.594 72.2153 110.529 73.0055 111.498 73.727L115.93 76.8877C117.26 77.928 118.775 78.7091 120.397 79.1895C120.485 77.7823 120.485 76.371 120.397 74.9638C120.12 73.1418 120.12 71.2888 120.397 69.4668C120.566 69.1307 120.848 68.8634 121.194 68.711C121.644 68.4362 121.921 68.9171 122.198 69.192C122.579 73.5208 123.41 77.7809 124.172 82.0754C124.726 85.1331 125.418 88.1564 126.041 91.2141C126.665 94.2717 127.08 96.5392 127.669 99.1846C127.911 100.181 128.292 101.109 128.638 102.105L130.439 107.052C131.789 107.293 133.14 107.567 134.456 107.705C135.771 107.842 137.537 107.945 139.061 108.014L149.137 108.323C150.765 108.323 152.427 108.632 154.089 108.701C154.831 108.694 155.571 108.637 156.305 108.529C157.448 108.529 158.59 108.323 159.768 108.083C161.358 107.577 162.75 106.592 163.75 105.266C166.243 102.792 168.597 100.181 171.021 97.6386C171.61 97.0202 172.302 96.4705 172.856 95.7834C173.41 95.0963 173.861 94.4092 174.415 93.6533C174.207 93.1724 173.999 92.6914 173.826 92.2104C173.716 91.9648 173.697 91.6884 173.773 91.4304C173.849 91.1724 174.015 90.9496 174.241 90.8018C174.35 90.7233 174.473 90.6671 174.604 90.6366C174.735 90.6061 174.87 90.602 175.003 90.6244C175.135 90.6468 175.261 90.6954 175.375 90.7672C175.488 90.8389 175.585 90.9325 175.661 91.0423C176.908 92.3135 178.12 93.5846 179.124 94.9245C181.555 97.6096 184.182 100.113 186.984 102.414C189.642 104.645 192.506 106.624 195.537 108.323C195.947 108.476 196.291 108.765 196.512 109.14C196.733 109.516 196.816 109.955 196.749 110.385C195.779 111.518 195.364 111.587 194.048 110.934L191.555 109.629C190.204 108.667 188.785 107.739 187.469 106.709C184.62 104.524 181.956 102.111 179.505 99.4938C179.505 99.322 179.089 99.1846 178.778 98.9441C178.778 100.215 178.778 101.315 178.535 102.38C178.535 105.231 178.085 108.117 178.085 110.969C178.085 114.851 178.085 118.767 178.293 122.684C178.37 123.41 178.186 124.141 177.773 124.745C176.007 124.745 175.038 124.024 174.899 122.031C174.899 121.31 174.899 120.554 174.899 119.798C174.899 114.988 175.142 110.178 175.384 105.369C175.384 103.617 175.904 101.933 176.181 100.112C176.388 98.9098 176.631 97.7073 176.873 96.3675L176.077 95.3368L175.453 95.9895C173.826 98.154 172.199 100.353 170.536 102.517C168.764 104.659 166.741 106.585 164.511 108.255C163.886 108.776 163.296 109.339 162.745 109.938C161.858 110.928 160.615 111.533 159.283 111.621C158.221 111.759 157.148 111.862 156.063 111.931C153.868 112.069 151.665 112 149.484 111.725C148.029 111.553 146.575 111.518 145.121 111.415L139.303 110.866C138.576 110.866 137.814 110.694 137.087 110.694C134.551 110.724 132.026 110.352 129.608 109.594C129.371 109.525 129.118 109.525 128.881 109.594C128.443 109.664 127.995 109.582 127.611 109.363C127.226 109.144 126.929 108.802 126.769 108.392C126.407 107.704 126.095 106.993 125.834 106.262C125.28 104.613 124.691 102.998 124.241 101.315C123.868 99.9224 123.567 98.512 123.341 97.0889C122.925 94.6497 122.544 92.1417 122.163 89.6681L121.194 83.7245C121.194 83.381 121.194 83.0374 121.021 82.7969C119.615 82.3043 118.249 81.7071 116.935 81.0104C114.788 79.7049 112.745 78.1589 110.702 76.7159C106.586 73.7601 103.141 69.9795 100.591 65.619C100.072 64.7601 99.5522 63.9356 99.0674 63.0423C98.5826 62.149 98.9635 62.0116 99.8638 61.8398Z" fill="#234E32"/>
<path d="M177.598 124.782C178.011 124.177 178.195 123.447 178.117 122.72C178.117 118.804 177.875 114.887 177.909 111.005C177.909 108.153 178.186 105.268 178.359 102.416C178.359 101.317 178.359 100.217 178.602 98.9805C178.913 99.221 179.156 99.3584 179.329 99.5302C181.78 102.147 184.444 104.56 187.293 106.745C188.609 107.776 190.029 108.703 191.379 109.665C191.032 110.762 190.628 111.84 190.167 112.895C189.544 114.303 188.817 115.677 188.089 117.086C187.892 117.296 187.783 117.572 187.783 117.859C187.783 118.146 187.892 118.422 188.089 118.632C188.955 119.457 189.648 120.453 190.583 121.209C192.981 123.171 195.06 125.488 196.746 128.08C197.196 128.767 197.681 129.385 198.166 130.072C199.178 131.572 199.852 133.272 200.14 135.054C200.347 136.188 200.347 136.703 199.274 137.322C198.911 137.274 198.573 137.111 198.311 136.857C198.048 136.603 197.876 136.272 197.82 135.913C196.854 132.839 195.315 129.972 193.283 127.461C192.66 127.461 192.556 127.771 192.833 128.183C193.11 128.595 193.63 129.145 193.976 129.626C195.138 131.271 195.961 133.127 196.4 135.088C196.551 135.674 196.57 136.285 196.456 136.879C196.343 137.473 196.099 138.034 195.742 138.524C195.442 138.497 195.155 138.385 194.916 138.203C194.677 138.02 194.495 137.774 194.392 137.493C193.526 135.535 192.522 133.611 191.483 131.687C190.942 130.819 190.353 129.982 189.717 129.179H187.847C188.2 129.743 188.606 130.272 189.059 130.76C190.646 132.48 191.767 134.572 192.314 136.841C192.469 137.6 192.469 138.383 192.314 139.142C192.314 139.589 191.864 140.036 191.379 139.933C191.015 139.755 190.731 139.449 190.583 139.074C190.271 138.284 190.063 137.459 189.786 136.669C189.206 134.986 188.26 133.449 187.016 132.168C185.452 130.644 183.811 129.199 182.099 127.839C180.993 127.055 179.837 126.343 178.636 125.709C178.117 125.538 177.632 125.4 177.598 124.782Z" fill="#988FC1"/>
<path d="M161.982 11.2363H163.332C163.609 11.5112 163.99 11.7173 164.129 12.0609C164.925 13.6412 165.721 15.2216 166.379 16.8363C166.642 17.496 167.117 18.0514 167.73 18.4167C168.838 18.0044 169.08 17.7983 168.976 16.8363C168.866 16.1169 168.668 15.4132 168.388 14.7406C168.111 13.9848 167.764 13.229 167.453 12.4731L169.496 13.5038C169.842 14.3971 170.188 15.256 170.465 16.1492C170.742 17.0425 170.777 17.9014 170.985 18.7946C171.032 19.1369 171.189 19.4551 171.432 19.7024C171.675 19.9498 171.991 20.1132 172.335 20.1688C173.166 20.1688 173.547 19.7909 173.893 19.2069C174.447 20.3063 175.071 21.4057 175.59 22.6425C176.109 23.8793 176.282 24.3603 176.629 25.2192C176.65 25.7037 176.708 26.1861 176.802 26.6621L177.945 31.9529C178.821 35.7987 179.285 39.7256 179.33 43.6682C179.468 47.2837 179.294 50.9042 178.81 54.4903C178.464 55.7615 178.152 57.067 177.806 58.3382C177.806 58.8879 177.494 59.4032 177.321 59.9529C176.144 57.6511 174.932 55.3836 173.859 53.0817C172.993 51.3639 172.197 49.6461 171.331 47.894L167.591 40.3357L165.791 37.1406C165.791 36.2474 165.791 35.3541 165.791 34.4265C165.75 32.4734 165.518 30.5289 165.098 28.6204C164.89 27.4523 164.821 26.2498 164.509 25.1848C164.014 23.6277 163.425 22.1018 162.744 20.6155C161.945 18.6752 160.947 16.8217 159.766 15.0842C159.526 14.5784 159.396 14.0282 159.385 13.4695C160.393 14.2934 161.208 15.325 161.774 16.4928C161.932 16.8204 162.155 17.1135 162.428 17.3553C162.702 17.5971 163.021 17.7827 163.367 17.9014C164.752 17.283 165.029 16.6302 164.406 15.3247C164.13 14.7381 163.805 14.175 163.436 13.6412L161.982 11.2363ZM174.413 42.8437C174.413 43.4277 174.655 43.8057 174.724 44.1836C174.794 44.5615 174.724 45.9014 175.071 46.7259C175.075 46.8387 175.102 46.9496 175.15 47.0521C175.197 47.1546 175.265 47.2468 175.348 47.3234C175.432 47.4 175.53 47.4594 175.637 47.4984C175.744 47.5374 175.857 47.555 175.971 47.5504C176.49 47.5504 176.629 47.1725 176.733 46.7259C177.114 45.2612 177.114 43.7244 176.733 42.2596C176.644 41.9008 176.465 41.5699 176.213 41.2977C176.075 41.1062 175.894 40.9501 175.683 40.8424C175.472 40.7348 175.238 40.6786 175.001 40.6786C174.764 40.6786 174.531 40.7348 174.32 40.8424C174.109 40.9501 173.927 41.1062 173.789 41.2977C173.188 42.2259 172.831 43.289 172.751 44.3897L174.413 42.8437ZM171.123 39.4081C172.162 39.4081 172.612 38.8928 172.681 37.8965C172.751 37.1192 172.751 36.3375 172.681 35.5603C172.664 35.265 172.587 34.9763 172.455 34.7114C172.322 34.4464 172.137 34.2107 171.911 34.0182C171.685 33.8258 171.422 33.6806 171.138 33.5914C170.854 33.5021 170.554 33.4707 170.257 33.4989C169.771 33.588 169.32 33.8132 168.958 34.148C168.596 34.4828 168.338 34.9131 168.215 35.3885C168.215 35.8007 168.215 36.3161 168.561 36.6253C168.808 36.7317 169.083 36.7558 169.346 36.6938C169.608 36.6319 169.843 36.4873 170.015 36.2817L170.569 35.6633C170.79 36.0006 170.927 36.3851 170.97 36.7853C171.012 37.1855 170.958 37.5898 170.812 37.9652C170.713 38.2373 170.69 38.5308 170.745 38.8148C170.8 39.0989 170.93 39.3631 171.123 39.5799V39.4081ZM172.474 27.4866C172.659 27.7107 172.821 27.9524 172.958 28.2081C173.156 28.7349 173.318 29.2744 173.443 29.8228C173.443 30.2351 173.685 30.6474 174.101 30.51C174.287 30.4529 174.459 30.3555 174.602 30.2248C174.746 30.0941 174.859 29.9333 174.932 29.7541C175.04 29.2675 175.04 28.7634 174.932 28.2768C174.905 27.6984 174.698 27.1427 174.338 26.6869C173.978 26.2312 173.483 25.8983 172.924 25.7345C172.551 25.6042 172.149 25.5803 171.764 25.6653C171.378 25.7503 171.024 25.9409 170.742 26.2155C170.421 26.4405 170.182 26.7639 170.063 27.1362C169.944 27.5085 169.952 27.9091 170.084 28.2768C171.054 28.483 171.054 28.483 172.474 27.4866ZM166.795 19.8253C165.791 20.6155 165.791 21.2682 166.795 22.1615C167.799 23.0547 167.695 22.6768 168.111 22.1615C168.311 22.0166 168.453 21.8054 168.51 21.5659C168.567 21.3265 168.536 21.0747 168.422 20.856C168.255 20.5663 168.02 20.3212 167.737 20.1417C167.453 19.9621 167.13 19.8536 166.795 19.8253Z" fill="#F6C168"/>
<path d="M66.793 100.078C67.0076 99.5789 67.409 99.1818 67.9128 98.9703C68.4165 98.7589 68.9833 98.7495 69.4938 98.9443C71.7445 99.5627 73.9953 100.319 76.4191 100.937C78.843 101.555 80.9898 102.071 83.3444 102.586C85.699 103.101 86.8071 103.307 88.7115 103.685C88.9076 103.698 89.1042 103.698 89.3002 103.685C90.5467 103.685 91.7933 103.685 93.0052 103.96C95.2978 104.301 97.6124 104.473 99.9305 104.476C100.94 104.611 101.958 104.68 102.978 104.682C105.228 104.338 107.479 104.682 109.695 104.029C111.911 103.376 114.197 103.342 116.62 102.964C117.421 102.809 118.244 102.809 119.044 102.964C119.383 103.028 119.698 103.18 119.959 103.403C120.221 103.626 120.419 103.913 120.533 104.235C120.118 105.85 118.663 106.125 117.417 106.503C115.132 107.155 112.777 107.636 110.492 108.186C109.73 108.186 108.968 108.392 108.206 108.495C104.75 108.756 101.282 108.824 97.8183 108.701C96.5973 108.637 95.3824 108.488 94.1825 108.255C93.3515 108.255 92.4858 108.014 91.6201 107.98C89.5908 107.86 87.5814 107.514 85.6298 106.949C82.9289 106.365 80.228 105.712 77.5618 104.991C76.3737 104.622 75.2161 104.162 74.0991 103.617C72.2293 102.792 70.3941 101.899 68.4897 101.109C67.8347 100.937 67.2447 100.579 66.793 100.078Z" fill="white"/>
<path d="M68.5971 108.359L73.2024 109.562C74.8991 110.043 76.6651 110.627 78.2233 111.039C79.7815 111.451 81.3396 111.692 82.8978 112.001L88.2649 113.1C89.1999 113.1 90.1348 113.375 91.0697 113.478L94.5323 113.925H94.7747C97.5694 114.217 100.383 114.286 103.189 114.131C104.539 114.131 105.924 114.131 107.24 113.891C109.352 113.65 111.43 113.238 113.508 112.86C114.893 112.585 116.278 112.207 117.697 112.001C118.136 111.87 118.603 111.865 119.044 111.987C119.485 112.109 119.883 112.352 120.191 112.688C120.371 112.856 120.49 113.08 120.527 113.323C120.565 113.565 120.52 113.814 120.398 114.028C120.232 114.358 119.998 114.651 119.712 114.888C119.426 115.124 119.094 115.299 118.736 115.402C117.386 115.815 116.001 116.089 114.581 116.399C113.161 116.708 111.811 116.983 110.391 117.223C109.523 117.411 108.644 117.548 107.76 117.635L101.458 117.876C100.834 117.876 100.246 118.048 99.6224 118.116H99.38L95.6058 117.739H94.8786C92.9741 117.739 91.1043 117.498 89.2345 117.189C87.3647 116.88 84.5253 116.261 82.3092 115.712C79.9436 115.277 77.6248 114.622 75.3839 113.753C72.9532 112.956 70.628 111.872 68.4586 110.524C68.1713 110.359 67.9326 110.122 67.7661 109.837C67.0389 109.012 67.4891 108.531 68.5971 108.359Z" fill="white"/>
<path d="M171.194 65.5515C170.501 63.7993 169.912 62.1159 169.116 60.295C166.808 55.3249 164.499 50.3548 162.191 45.3846C161.567 44.0447 160.806 42.7736 160.148 41.4337C159.932 41.1432 159.837 40.7817 159.882 40.4238C159.927 40.0658 160.109 39.7387 160.39 39.5098C161.416 40.5791 162.354 41.7279 163.195 42.9453C164.565 44.7336 165.726 46.6698 166.657 48.7171C166.9 49.3012 167.142 49.8852 167.419 50.4006C170.12 55.0746 172.436 59.9576 174.345 65.0018C174.513 65.4156 174.709 65.8174 174.933 66.2042L176.007 69.4337L178.95 68.3343C179.344 68.2242 179.752 68.1664 180.162 68.1625C180.431 68.1526 180.698 68.219 180.931 68.354C181.164 68.4891 181.353 68.6872 181.477 68.9251C181.6 69.163 181.653 69.4309 181.628 69.6974C181.604 69.9639 181.504 70.218 181.339 70.43C181.223 70.5985 181.096 70.7592 180.958 70.911C178.213 71.8667 175.54 73.0148 172.959 74.3466C167.819 76.7456 162.824 79.4414 158.001 82.4202C156.858 83.0729 155.681 83.657 154.538 84.3441C153.396 85.0312 151.872 86.0275 150.591 86.8864C150.141 87.1956 149.76 87.5048 149.24 87.0582C148.721 86.6116 148.963 86.3024 149.413 85.6153L149.829 85.1343C149.829 85.1343 150.071 85.1343 150.141 85.1343C152.766 83.0715 155.506 81.156 158.347 79.3969C161.301 77.2256 164.428 75.2954 167.696 73.6251L173.306 70.8766C172.682 69.1588 171.921 67.3723 171.194 65.5515Z" fill="#234E32"/>
<path d="M203.328 94.9959C202.843 95.3738 202.359 95.7517 201.908 96.164C201.549 96.5432 201.155 96.8883 200.731 97.1947C200.423 97.4119 200.046 97.5107 199.671 97.4728C199.295 97.4348 198.946 97.2628 198.688 96.9886C198.471 96.7215 198.336 96.3981 198.299 96.0569C198.262 95.7157 198.325 95.3712 198.48 95.0646C198.675 94.6618 198.894 94.2717 199.138 93.8965C197.372 93.8965 196.334 95.202 194.81 95.8548C194.547 95.5217 194.315 95.1652 194.117 94.7898C192.525 91.629 190.966 88.4683 189.339 85.3419C188.543 83.7616 187.712 82.2155 186.881 80.6695C186.881 80.4634 186.881 80.2229 186.604 79.9824C189.027 80.1068 191.393 80.7639 193.529 81.9063C194.671 82.5591 195.849 83.1775 196.991 83.7616C197.581 84.0103 198.112 84.3765 198.553 84.8374C198.994 85.2984 199.334 85.8443 199.554 86.4413C199.671 86.702 199.741 86.9811 199.762 87.2659C199.943 89.1101 199.79 90.9717 199.311 92.7628C199.272 93.0478 199.272 93.3367 199.311 93.6217C200.246 92.7971 201.043 92.0413 201.908 91.3886C204.09 89.7738 206.306 88.1935 208.557 86.6818C209.857 85.9627 211.297 85.5292 212.781 85.4106C213.022 85.4464 213.267 85.4464 213.508 85.4106C214.097 85.1358 214.443 85.4106 214.72 85.8916C214.7 86.2232 214.564 86.5376 214.337 86.7817C214.11 87.0258 213.805 87.1847 213.474 87.2315C211.039 88.0234 208.823 89.3639 206.998 91.1481C205.787 92.1787 204.748 93.3468 203.536 94.5836C203.449 94.7116 203.379 94.8502 203.328 94.9959Z" fill="#988FC1"/>
<path d="M112.398 93.2415L113.541 94.3065L113.194 95.3372C111.683 96.6641 109.741 97.4079 107.723 97.4329C105.715 97.7077 103.707 98.1887 101.698 98.3605C99.3975 98.589 97.0842 98.6693 94.773 98.601C92.452 98.4984 90.1394 98.2575 87.8477 97.8795C84.6157 97.457 81.4208 96.7909 78.2908 95.8869C77.0096 95.4746 75.763 94.9249 74.5165 94.4439C73.2699 93.9629 72.4042 93.585 71.3655 93.1041C70.7075 92.7786 70.0713 92.4114 69.461 92.0047C69.2695 91.9022 69.122 91.7343 69.0456 91.5322C68.9692 91.3301 68.9692 91.1074 69.0455 90.9053C69.0455 90.493 69.5649 90.493 69.9458 90.4587C71.0652 90.4004 72.1821 90.6126 73.2007 91.0771C76.081 92.0648 79.0327 92.8343 82.0304 93.3789C84.108 93.8255 86.2548 93.8942 88.3671 94.2034C90.4793 94.5126 92.1067 94.6157 93.9766 94.7531C95.0336 94.8779 96.0977 94.9353 97.1622 94.9249C98.6165 94.9249 100.002 94.6157 101.456 94.4783L104.018 94.2034C105.299 94.0317 106.615 93.963 107.896 93.6881C109.367 93.3237 110.883 93.1733 112.398 93.2415Z" fill="white"/>
<path d="M174.828 66.3411C174.604 65.9543 174.408 65.5525 174.24 65.1387C172.331 60.0945 170.015 55.2115 167.314 50.5374C167.037 50.0221 166.795 49.4381 166.552 48.854C165.621 46.8067 164.46 44.8705 163.09 43.0822C164.025 42.8761 164.198 42.0859 164.371 41.3301C164.579 41.3301 164.925 41.0896 164.994 40.9178C165.227 40.2795 165.413 39.625 165.548 38.9595C165.548 38.3755 165.548 37.7571 165.548 37.1387L167.349 40.3338L171.123 47.6172C171.989 49.335 172.785 51.0528 173.651 52.8049C174.794 55.0724 176.005 57.3399 177.114 59.6761C176.917 61.3255 176.437 62.9292 175.694 64.4172C175.447 65.0763 175.158 65.7189 174.828 66.3411Z" fill="#988FC1"/>
<path d="M122.022 69.0228C121.745 68.7479 121.468 68.2669 121.018 68.5418C120.757 68.7891 120.587 69.1154 120.533 69.4694C120.256 71.2914 120.256 73.1443 120.533 74.9663C120.621 76.3736 120.621 77.7848 120.533 79.1921C118.911 78.7116 117.395 77.9306 116.066 76.8903C116.066 74.1074 116.066 71.3246 116.378 68.5418C116.69 64.8314 116.378 61.0866 116.378 57.3418C117.486 58.0289 118.525 58.7504 119.841 59.3344C120.475 59.6009 121.137 59.7968 121.814 59.9185C121.814 61.705 121.814 63.3541 121.814 65.2436C121.814 66.4804 121.953 67.7516 122.022 69.0228Z" fill="#988FC1"/>
<path d="M178.916 54.178C179.399 50.592 179.573 46.9714 179.435 43.3559C179.391 39.4133 178.926 35.4864 178.05 31.6406L176.907 26.3498C176.767 25.8773 176.663 25.395 176.596 24.9069L176.942 24.5977L177.392 25.0786C179.123 27.9397 180.298 31.0979 180.855 34.3891C181.617 38.2343 181.931 42.1537 181.79 46.07C181.79 48.5437 181.513 51.0516 181.305 53.5596C181.315 54.0824 181.16 54.5952 180.862 55.0264C180.564 55.4576 180.138 55.7856 179.643 55.9645C178.95 55.5866 179.089 54.9682 178.916 54.178Z" fill="#234E32"/>
<path d="M173.999 19.0338C173.653 19.6178 173.272 20.1332 172.441 19.9957C172.097 19.9401 171.781 19.7766 171.538 19.5293C171.294 19.2819 171.138 18.9638 171.09 18.6215C170.883 17.7282 170.779 16.835 170.571 15.9761C170.363 15.1172 169.948 14.2239 169.602 13.3307C169.307 12.4074 168.96 11.5013 168.563 10.6166C167.822 8.706 166.845 6.89416 165.654 5.22272C164.685 4.12333 163.646 3.0583 162.676 1.95892C162.365 1.581 162.053 1.23744 161.811 0.893886C162.538 -0.205501 162.745 -0.308569 163.611 0.309836C165 1.25576 166.227 2.41555 167.247 3.74542C168.043 4.84481 169.013 5.80677 169.809 6.90616C170.464 7.79611 171.043 8.7384 171.541 9.72333C172.671 11.8891 173.487 14.2023 173.964 16.5945C174.038 17.4056 174.049 18.221 173.999 19.0338Z" fill="#988FC1"/>
<path d="M204.609 98.7377C204.021 99.4248 203.432 100.078 202.809 100.73C202.186 101.383 202.359 101.314 202.116 101.555C201.181 102.414 200.731 102.414 199.658 101.555C199.312 100.524 199.9 99.8371 200.489 99.15L203.501 95.8862C203.638 95.6924 203.754 95.4852 203.848 95.2678C204.679 94.5463 205.544 93.8592 206.341 93.1033C208.522 91.1925 211.174 89.8886 214.028 89.3242C214.269 89.2904 214.514 89.2904 214.755 89.3242C215.759 89.3242 216.071 89.7708 216.002 90.9046C215.828 90.9046 215.621 91.2138 215.378 91.2138C213.652 91.5901 212.001 92.2521 210.496 93.1721C210.244 93.3144 210.012 93.4876 209.803 93.6874L205.129 98.2911C204.921 98.2911 204.783 98.5316 204.609 98.7377Z" fill="#988FC1"/>
<path d="M104.121 18.5536C103.775 19.8133 103.775 21.1418 104.121 22.4015C104.196 22.6726 104.254 22.9479 104.294 23.226C104.328 23.4926 104.262 23.7621 104.109 23.9836C103.955 24.2051 103.726 24.3634 103.463 24.4285C103.205 24.5123 102.925 24.4991 102.676 24.3914C102.427 24.2837 102.227 24.0891 102.113 23.8444C101.892 23.3191 101.707 22.7796 101.559 22.2297L101.316 21.7144C101.343 19.3074 101.563 16.9064 101.974 14.534C102.395 11.9595 103.127 9.44474 104.156 7.04444C104.579 6.15872 105.127 5.33736 105.783 4.60518C106.026 4.33033 106.441 4.26162 106.753 4.08984C106.874 4.25446 106.939 4.45296 106.939 4.65671C106.939 4.86047 106.874 5.05897 106.753 5.22359C105.991 8.04076 105.16 10.8579 104.502 13.7095C104.288 15.3163 104.161 16.9333 104.121 18.5536Z" fill="#988FC1"/>
<path d="M167.452 12.3674C167.764 13.1233 168.11 13.8791 168.387 14.6349C168.667 15.3075 168.865 16.0111 168.976 16.7306C168.976 17.6926 168.976 17.8987 167.729 18.311C167.116 17.9456 166.642 17.3903 166.379 16.7306C165.721 15.1159 164.925 13.5355 164.128 11.9552C164.128 11.6116 163.609 11.4055 163.332 11.1306C163.332 9.8938 162.189 9.24104 161.566 8.38215C159.992 6.54122 158.215 4.88171 156.268 3.43491C155.526 2.93657 154.919 2.26385 154.502 1.47663L155.229 0.892578L156.58 1.68276L160.873 4.80914C162.433 6.02814 163.809 7.46277 164.959 9.06926C165.825 10.0312 166.621 11.1993 167.452 12.3674Z" fill="#988FC1"/>
<path d="M161.983 11.2322L163.541 13.5341C163.911 14.0679 164.235 14.6309 164.511 15.2175C165.134 16.523 164.857 17.1758 163.472 17.7942C163.126 17.6756 162.807 17.49 162.534 17.2482C162.26 17.0064 162.038 16.7132 161.879 16.3856C161.313 15.2178 160.498 14.1862 159.49 13.3623C158.998 12.5483 158.351 11.8366 157.586 11.2666C157.164 10.9965 156.78 10.6731 156.443 10.3046C154.586 8.43797 152.557 6.74721 150.383 5.25434C150.251 5.1317 150.135 4.99321 150.037 4.84207C150.227 4.566 150.519 4.37516 150.849 4.31087C151.18 4.24657 151.522 4.31398 151.803 4.49851C152.98 5.0482 154.158 5.70096 155.266 6.28501C157.49 7.47242 159.493 9.02955 161.187 10.8887C161.442 11.0246 161.709 11.1395 161.983 11.2322Z" fill="#988FC1"/>
<path d="M100.899 22.262L101.419 23.7736C101.8 24.9761 101.419 25.6288 99.9991 25.6632H99.6182C98.4473 24.2181 97.7362 22.4601 97.5753 20.6129C97.4798 18.9901 97.5962 17.3619 97.9215 15.7687C98.4356 12.8308 99.3805 9.98342 100.726 7.31719C100.969 6.8362 101.176 6.2178 102.042 6.28651C102.076 6.54885 102.076 6.81436 102.042 7.0767C101.592 9.06933 101.107 11.0276 100.692 13.0203C100.523 14.0329 100.407 15.0535 100.345 16.0779C100.345 17.1773 100.138 18.2767 100.103 19.5135C100.086 20.488 100.363 21.4453 100.899 22.262Z" fill="#988FC1"/>
<path d="M108.103 19.2746C108.07 20.0157 107.966 20.752 107.792 21.4734C107.685 21.7815 107.497 22.0556 107.247 22.2671C106.998 22.4786 106.695 22.6198 106.372 22.6759C105.056 22.0575 104.675 21.3703 104.952 20.0648C105.044 19.5423 105.102 19.0144 105.125 18.4844C105.333 17.6256 105.506 16.7323 105.714 15.8734L107.064 11.201C107.341 10.3078 107.618 9.41451 107.93 8.52126C108.015 8.24161 108.177 7.99082 108.397 7.79675C108.617 7.60268 108.887 7.47292 109.177 7.42188C109.352 7.61418 109.472 7.84872 109.527 8.10197C109.582 8.35523 109.568 8.61831 109.488 8.86482C109.142 10.7887 108.865 12.747 108.623 14.671C108.38 16.5949 108.276 17.763 108.103 19.2746Z" fill="#988FC1"/>
<path d="M59.4887 84.4805C61.3515 85.0063 63.1338 85.7807 64.7866 86.7823C64.9597 88.6032 64.9597 88.6032 63.1938 89.2559L59.1078 87.2289C58.8574 87.0719 58.635 86.8745 58.4499 86.6449C58.3262 86.5417 58.2266 86.4129 58.1584 86.2675C58.0901 86.1221 58.0547 85.9636 58.0547 85.8032C58.0547 85.6428 58.0901 85.4843 58.1584 85.3389C58.2266 85.1935 58.3262 85.0646 58.4499 84.9614C58.7741 84.7579 59.1232 84.5962 59.4887 84.4805Z" fill="#EBF4EF"/>
<path d="M133.728 34.5975C136.464 33.9791 139.199 33.1889 141.969 32.7423C144.095 32.3709 146.262 32.29 148.41 32.5018C149.361 32.5659 150.286 32.8435 151.113 33.3137C151.941 33.7838 152.651 34.4342 153.188 35.2159C153.408 35.4526 153.568 35.7388 153.652 36.0499C153.737 36.3611 153.744 36.6879 153.673 37.0024C152.565 36.7619 151.457 36.5901 150.418 36.3153C148.715 35.9375 146.933 36.1434 145.363 36.8993C144.964 37.0811 144.626 37.3713 144.387 37.7361C144.148 38.101 144.018 38.5256 144.012 38.9607C143.996 40.3355 144.482 41.6698 145.379 42.7177C146.276 43.7657 147.524 44.4568 148.894 44.6637C150.66 44.6637 152.357 44.9386 154.158 45.1447C154.837 45.2915 155.507 45.475 156.166 45.6944C156.909 47.1247 157.256 48.7254 157.17 50.3325C157.13 50.9765 157.002 51.6122 156.789 52.222C156.596 52.6796 156.312 53.0945 155.956 53.4425C155.599 53.7904 155.176 54.0646 154.712 54.249C151.976 55.6576 149.206 57.0318 146.436 58.3717C146.02 58.5779 145.536 58.6466 145.466 59.2306C143.804 59.5742 142.004 60.0208 140.411 60.2956C138.294 60.8089 136.113 61.0172 133.936 60.914C132.729 60.8856 131.556 60.5101 130.561 59.8332C129.565 59.1562 128.789 58.2069 128.326 57.1006C128.178 56.7626 128.12 56.3927 128.156 56.0259C128.192 55.6592 128.322 55.3077 128.534 55.0048C129.46 53.5458 130.764 52.3595 132.308 51.5693C134.279 50.5882 135.951 49.1064 137.156 47.2748C137.729 46.5619 138.066 45.6912 138.122 44.7813C138.177 43.8714 137.949 42.9666 137.468 42.1901C137.203 41.7835 136.847 41.4426 136.429 41.1938C135.559 40.7794 134.606 40.5643 133.641 40.5643C132.677 40.5643 131.724 40.7794 130.854 41.1938C129.919 41.6061 129.019 42.1558 128.119 42.6367L127.218 43.0147C127.182 42.8563 127.182 42.692 127.218 42.5337C128.119 41.1594 128.984 39.7509 129.988 38.4797C130.993 37.2085 132.551 35.9717 133.728 34.5975ZM139.545 49.4736C139.338 51.0883 139.545 51.6036 141.415 52.3594C142.548 52.7692 143.704 53.1133 144.878 53.3901L143.216 54.3521L143.874 55.211C144.33 55.1388 144.782 55.0355 145.224 54.9018C146.574 54.3521 147.96 53.8024 149.275 53.184C149.411 53.1097 149.527 53.0063 149.617 52.8815C149.707 52.7567 149.768 52.6135 149.795 52.4625C149.795 52.0846 149.448 51.9472 149.102 51.9472H148.237C148.237 51.4662 148.617 51.1226 148.756 50.7447C148.894 50.3668 149.31 49.4048 149.518 48.6834C149.598 48.4546 149.624 48.2107 149.594 47.9703C149.564 47.7299 149.479 47.4995 149.345 47.297C149.212 47.0945 149.033 46.9252 148.822 46.8022C148.612 46.6792 148.376 46.6058 148.133 46.5877C147.508 45.8962 146.728 45.3614 145.855 45.027C144.983 44.6925 144.042 44.5681 143.112 44.6637C142.595 44.6634 142.086 44.7923 141.632 45.0385C141.178 45.2846 140.794 45.6402 140.515 46.0723C139.821 47.0681 139.48 48.2645 139.545 49.4736Z" fill="#EBF4EF"/>
<path d="M171.192 65.5508C171.919 67.3716 172.681 69.1581 173.235 71.0134L167.626 73.7618C164.357 75.4321 161.231 77.3624 158.276 79.5336C155.435 81.2927 152.695 83.2082 150.07 85.271C150.07 85.271 149.862 85.271 149.758 85.271C149.654 85.271 149.758 84.5152 150.035 84.3091C151.663 82.6256 153.498 80.8735 155.021 79.3275C155.991 78.3655 156.995 77.4723 158.034 76.579C159.073 75.6858 161.15 74.0367 162.674 72.7311C164.198 71.4256 165.513 70.2232 166.968 69.0207L171.192 65.5508Z" fill="#988FC1"/>
<path d="M133.729 34.5975C132.552 35.9717 131.305 37.3116 130.266 38.7546C129.227 40.1975 128.396 41.4343 127.496 42.8085C127.46 42.9669 127.46 43.1312 127.496 43.2895C127.359 43.925 127.255 44.5672 127.185 45.2134C127.021 47.639 127.173 50.0752 127.635 52.4625C127.635 52.8748 127.635 53.2871 127.635 53.6993C127.649 53.927 127.59 54.1534 127.465 54.3452C127.341 54.5369 127.157 54.6839 126.942 54.7644C126.736 54.9125 126.487 54.9922 126.232 54.9922C125.977 54.9922 125.729 54.9125 125.522 54.7644C125.094 54.353 124.794 53.8284 124.657 53.2527C123.983 50.033 123.842 46.7258 124.241 43.4613C124.654 41.5566 125.521 39.7777 126.769 38.2736C127.752 36.8501 129.056 35.6738 130.578 34.838C131.287 34.405 132.1 34.1677 132.933 34.1509C133.096 34.1297 133.262 34.1618 133.406 34.2424C133.549 34.3229 133.663 34.4475 133.729 34.5975Z" fill="#234E32"/>
<path d="M147.752 63.8672C147.86 64.1335 147.941 64.4096 147.994 64.6917C148.053 66.6541 147.625 68.6006 146.748 70.3604C146.473 71.0153 145.977 71.5551 145.346 71.8873C144.714 72.2195 143.985 72.3234 143.285 72.1813C141.831 71.9408 140.411 71.5972 138.991 71.2193C138.442 71.0494 137.917 70.8067 137.433 70.4979C137.133 70.3551 136.879 70.131 136.701 69.8514C136.524 69.5718 136.43 69.248 136.43 68.9175C136.43 68.587 136.524 68.2632 136.701 67.9836C136.879 67.704 137.133 67.4798 137.433 67.3371C138.635 66.4737 140.021 65.8976 141.484 65.6537C143.495 65.307 145.459 64.7306 147.336 63.9359L147.752 63.8672Z" fill="#EBF4EF"/>
<path d="M145.605 59.3665C145.605 58.7825 146.16 58.7138 146.575 58.5076C149.345 57.1677 152.115 55.7935 154.851 54.3849C155.315 54.2005 155.738 53.9263 156.095 53.5784C156.451 53.2304 156.735 52.8155 156.928 52.3579C157.141 51.7481 157.269 51.1124 157.309 50.4683C157.395 48.8613 157.049 47.2606 156.305 45.8303C156.028 44.5248 155.751 43.1849 155.439 41.8794C155.439 41.2266 155.439 41.2266 155.959 40.6426C156.399 40.8076 156.796 41.0696 157.12 41.4087C157.444 41.7479 157.686 42.1555 157.829 42.6009C159.251 45.4441 159.907 48.6043 159.733 51.7739C159.677 52.4549 159.472 53.1155 159.131 53.709C158.79 54.3026 158.322 54.8148 157.759 55.2095C155.322 56.907 152.651 58.2491 149.83 59.1947C148.483 59.7302 146.992 59.7908 145.605 59.3665Z" fill="#234E32"/>
<path d="M137.018 79.0198C137.195 78.572 137.466 78.1663 137.812 77.829C138.158 77.4916 138.572 77.2301 139.026 77.0615C140.293 76.3781 141.599 75.7701 142.939 75.2406C143.909 74.8257 144.982 74.7062 146.02 74.8971C146.212 75.3052 146.363 75.7309 146.471 76.1683C146.524 77.9299 146.314 79.6898 145.847 81.3903C145.761 81.7914 145.584 82.1675 145.328 82.4897C145.16 82.7534 144.911 82.9561 144.618 83.0676C144.325 83.1791 144.003 83.1933 143.7 83.1081C141.846 82.6846 140.086 81.9278 138.507 80.875C137.821 80.433 137.298 79.7819 137.018 79.0198Z" fill="#EBF4EF"/>
<path d="M148.236 74.2448C148.288 73.8794 148.42 73.5298 148.624 73.221C148.827 72.9122 149.097 72.6518 149.414 72.4583C150.586 71.5512 151.895 70.8324 153.292 70.3282C154.034 70.095 154.763 69.8197 155.473 69.5037C155.73 69.3418 156.027 69.2546 156.332 69.252C156.636 69.2494 156.935 69.3315 157.194 69.4889C157.454 69.6463 157.664 69.8727 157.8 70.1426C157.937 70.4124 157.994 70.7147 157.966 71.0153C157.971 72.323 157.76 73.6227 157.343 74.8632C157.277 75.0636 157.196 75.2589 157.101 75.4472C156.98 75.7759 156.792 76.076 156.548 76.3282C156.304 76.5804 156.01 76.7793 155.684 76.9119C155.358 77.0445 155.007 77.1081 154.655 77.0984C154.303 77.0888 153.956 77.0061 153.638 76.8558C152.392 76.4092 151.11 75.8938 149.829 75.4816C149.166 75.2716 148.601 74.8328 148.236 74.2448Z" fill="#EBF4EF"/>
<path d="M150.416 63.0789C150.658 62.8727 150.832 62.5635 151.109 62.4261C153.29 61.1893 155.471 59.9525 157.688 58.7844C159.315 57.9255 160.354 58.6126 160.181 60.4678C159.935 62.3264 159.336 64.1218 158.415 65.7586C158.224 66.1748 157.886 66.5067 157.464 66.6906C157.042 66.8744 156.567 66.8973 156.129 66.7549C154.051 66.2119 152.16 65.1195 150.658 63.5942C150.551 63.4361 150.469 63.2622 150.416 63.0789Z" fill="#EBF4EF"/>
<path d="M163.128 96.8485C162.47 96.5049 162.02 96.1614 161.5 95.9209C161.299 95.8673 161.11 95.7722 160.948 95.6417C160.786 95.5113 160.653 95.3484 160.558 95.1638C160.464 94.9791 160.409 94.7767 160.398 94.5697C160.388 94.3628 160.421 94.1559 160.496 93.9626C160.661 93.7537 160.9 93.6157 161.164 93.5773C161.429 93.5389 161.698 93.6031 161.916 93.7565L164.305 94.9933C164.592 95.1181 164.843 95.3112 165.036 95.5552C165.229 95.7993 165.359 96.0868 165.414 96.3925C165.469 96.6982 165.447 97.0126 165.35 97.3078C165.253 97.6031 165.085 97.8701 164.859 98.0853C163.936 99.3003 162.754 100.298 161.396 101.006C161.128 101.099 160.849 101.157 160.565 101.177C160.319 101.223 160.063 101.179 159.847 101.053C159.63 100.926 159.467 100.727 159.388 100.49C159.316 100.266 159.329 100.024 159.424 99.8083C159.52 99.5931 159.692 99.4201 159.907 99.3221L162.643 97.4669C162.822 97.2751 162.985 97.0682 163.128 96.8485Z" fill="#EBF4EF"/>
<path d="M135.528 45.6244C135.543 46.1504 135.435 46.6727 135.214 47.151C134.992 47.6292 134.663 48.0505 134.251 48.3825C133.84 48.7145 133.357 48.9482 132.84 49.0657C132.323 49.1831 131.786 49.1812 131.269 49.0599C130.795 48.9734 130.356 48.7521 130.005 48.4228C129.655 48.0935 129.408 47.6703 129.296 47.2047C129.175 46.6074 129.208 45.9896 129.391 45.408C129.573 44.8264 129.9 44.2996 130.341 43.8757C130.782 43.4518 131.323 43.1445 131.915 42.9818C132.507 42.8192 133.13 42.8064 133.728 42.9446C134.317 43.0768 134.833 43.4286 135.168 43.9274C135.503 44.4262 135.632 45.0338 135.528 45.6244ZM131.269 46.4146C131.269 47.4452 131.685 47.9949 132.551 47.9949C132.778 47.9954 133.003 47.9495 133.212 47.8603C133.42 47.7711 133.608 47.6403 133.764 47.4761C133.92 47.3118 134.04 47.1177 134.117 46.9055C134.194 46.6934 134.227 46.4678 134.213 46.2428C134.213 45.3152 133.763 44.7998 132.966 44.7311C132.738 44.7099 132.508 44.7389 132.292 44.816C132.077 44.8931 131.881 45.0164 131.719 45.1772C131.557 45.338 131.433 45.5322 131.355 45.7461C131.277 45.9599 131.248 46.1882 131.269 46.4146Z" fill="#EBF4EF"/>
<path d="M128.118 76.2383C128.518 76.3316 128.889 76.5216 129.197 76.7913C129.505 77.0611 129.741 77.4022 129.884 77.7843C130.161 78.632 130.692 79.3753 131.408 79.9143C131.962 79.4677 131.962 78.7806 132.169 78.1966C132.265 77.8047 132.429 77.4326 132.654 77.0972C132.779 76.9685 132.93 76.8682 133.097 76.8029C133.265 76.7377 133.444 76.7091 133.624 76.7193C133.797 76.7749 133.956 76.8687 134.088 76.9936C134.22 77.1185 134.321 77.2714 134.385 77.4407C134.449 78.2455 134.326 79.054 134.026 79.8043C133.726 80.5546 133.256 81.2269 132.654 81.7695C132.128 82.0627 131.515 82.1647 130.921 82.0582C130.327 81.9516 129.789 81.643 129.399 81.1855C128.61 80.1678 128.044 78.9976 127.737 77.7499C127.426 77.3033 127.287 76.6162 128.118 76.2383Z" fill="#EBF4EF"/>
<path d="M149.724 43.2877C149.331 43.3241 148.935 43.2748 148.564 43.1431C148.193 43.0115 147.855 42.8007 147.574 42.5256C147.294 42.2506 147.077 41.9179 146.94 41.551C146.803 41.1841 146.749 40.7918 146.781 40.4018C146.747 39.9797 146.808 39.5553 146.959 39.1595C147.111 38.7637 147.35 38.4064 147.658 38.1136C147.967 37.8208 148.337 37.5999 148.742 37.4668C149.147 37.3337 149.577 37.2918 150.001 37.3442C151.559 37.3442 152.702 38.0656 152.736 40.4705C152.766 40.863 152.706 41.2569 152.563 41.6237C152.419 41.9905 152.195 42.3209 151.906 42.5908C151.618 42.8607 151.272 43.0633 150.894 43.1838C150.517 43.3044 150.117 43.3399 149.724 43.2877ZM148.893 40.2988C148.893 40.6423 148.893 40.8485 148.893 41.0546C148.906 41.2988 148.992 41.5337 149.14 41.7293C149.288 41.925 149.491 42.0728 149.724 42.154C149.962 42.2281 150.216 42.2319 150.456 42.1647C150.696 42.0976 150.911 41.9625 151.074 41.7761C151.327 41.5282 151.518 41.2253 151.633 40.8913C151.747 40.5573 151.781 40.2015 151.732 39.8521C151.716 39.5386 151.583 39.2423 151.359 39.0202C151.135 38.7982 150.836 38.6662 150.52 38.6497C150.209 38.5876 149.886 38.6362 149.607 38.787C149.329 38.9378 149.113 39.1811 148.997 39.4742C148.934 39.7449 148.899 40.0211 148.893 40.2988Z" fill="#EBF4EF"/>
<path d="M166.932 86.4377L165.582 84.4107L166.517 83.3457C167.024 83.5107 167.522 83.7057 168.006 83.9298C168.338 84.1049 168.632 84.3455 168.867 84.6369C169.103 84.9283 169.277 85.2643 169.377 85.6245C169.478 85.9846 169.503 86.3613 169.452 86.7315C169.401 87.1017 169.274 87.4577 169.079 87.7776C168.241 89.1129 166.933 90.0922 165.409 90.5261C165.312 90.5701 165.206 90.5934 165.1 90.5945C164.993 90.5955 164.887 90.5743 164.789 90.5322C164.691 90.4901 164.603 90.428 164.531 90.35C164.459 90.272 164.404 90.1798 164.37 90.0794C164.215 89.6815 164.215 89.2406 164.37 88.8426C164.543 88.4647 165.028 88.2586 165.374 87.9837C165.72 87.7089 166.69 87.2623 166.932 86.4377Z" fill="#EBF4EF"/>
<path d="M149.102 104.509C149.794 102.654 151.733 103.513 152.564 102.516C152.149 101.554 151.145 101.417 150.417 101.005C150.084 100.838 149.736 100.7 149.379 100.592C149.222 100.487 149.094 100.343 149.01 100.174C148.925 100.006 148.885 99.8185 148.894 99.6304C149.24 98.9433 149.794 98.8746 150.487 99.0464C151.837 99.3954 153.092 100.041 154.157 100.936C154.475 101.125 154.73 101.402 154.892 101.733C155.053 102.065 155.114 102.435 155.066 102.8C155.018 103.165 154.864 103.508 154.623 103.787C154.381 104.066 154.063 104.269 153.707 104.372C152.574 104.712 151.416 104.965 150.244 105.127C149.829 105.093 149.482 104.715 149.102 104.509Z" fill="#EBF4EF"/>
<path d="M166.969 64.9694C166.774 66.2152 166.275 67.3946 165.515 68.405C165.44 68.5026 165.345 68.5843 165.238 68.6455C164.548 68.8269 163.818 68.7922 163.149 68.5462C162.479 68.3002 161.903 67.8549 161.498 67.2713C161.412 67.0354 161.409 66.7772 161.491 66.5397C161.573 66.3022 161.735 66.0997 161.948 65.9658C162.572 65.4848 163.264 65.0382 163.957 64.5572L165.1 63.8701C165.48 63.5609 165.861 63.3204 166.346 63.5609C166.604 63.6809 166.81 63.8899 166.924 64.149C167.039 64.408 167.055 64.6996 166.969 64.9694Z" fill="#EBF4EF"/>
<path d="M128.672 67.0645C129.607 67.0645 129.815 67.9233 130.161 68.5074L131.408 70.5C131.754 69.5724 132.031 68.9197 132.239 68.2326C132.447 67.5454 132.481 67.4424 132.932 67.5454C133.382 67.6485 133.382 67.9577 133.52 68.1982C133.715 68.7604 133.787 69.357 133.734 69.949C133.68 70.541 133.501 71.1151 133.209 71.6338C132.932 72.3896 132.1 72.5614 131.443 72.8362C130.823 72.6675 130.251 72.3597 129.771 71.9368C129.291 71.5138 128.915 70.987 128.672 70.397C128.438 69.96 128.253 69.4993 128.118 69.0227C127.841 68.1638 128.118 67.7172 128.672 67.0645Z" fill="#EBF4EF"/>
<path d="M175.348 88.26L174.24 86.9201C174.613 86.5551 175.006 86.211 175.418 85.8894L176.352 85.271C177.08 84.7213 177.114 84.3091 176.352 83.622C175.591 82.9348 175.521 82.1103 175.868 81.6637C176.214 81.217 177.08 81.3201 177.911 81.9042C178.318 82.166 178.653 82.5247 178.885 82.9478C179.116 83.3708 179.238 83.8447 179.238 84.3262C179.238 84.8078 179.116 85.2817 178.885 85.7047C178.653 86.1278 178.318 86.4865 177.911 86.7483C177.083 87.2952 176.228 87.7997 175.348 88.26Z" fill="#EBF4EF"/>
<path d="M131.579 94.444C132.341 95.4403 132.168 96.8833 133.518 97.4673C134.211 97.1238 134.349 96.368 134.696 95.7152C134.878 95.3581 135.04 94.991 135.18 94.6158C135.18 94.2379 135.596 93.86 135.977 94.0661C136.151 94.1596 136.302 94.2921 136.416 94.4531C136.53 94.614 136.605 94.7991 136.635 94.9937C136.51 96.3404 136.032 97.6312 135.25 98.7385C134.858 99.1638 134.318 99.4254 133.739 99.47C133.161 99.5147 132.586 99.3391 132.133 98.979C131.34 98.3067 130.802 97.3853 130.61 96.3679C130.505 95.9851 130.546 95.5773 130.725 95.2225C130.903 94.8676 131.208 94.5905 131.579 94.444Z" fill="#EBF4EF"/>
<path d="M143.042 94.0308C143.284 93.1375 143.457 92.3473 143.734 91.5915C143.797 91.4548 143.893 91.3359 144.014 91.2458C144.135 91.1558 144.277 91.0974 144.427 91.0762C144.427 91.0762 144.842 91.3854 144.946 91.6259C145.402 92.5434 145.5 93.5953 145.223 94.5805C145.168 94.9865 144.993 95.3675 144.722 95.6763C144.45 95.9851 144.094 96.2082 143.696 96.3178C143.298 96.4275 142.876 96.419 142.483 96.2934C142.09 96.1678 141.742 95.9306 141.484 95.6111C140.81 95.0058 140.309 94.2358 140.029 93.378C139.949 93.1225 139.968 92.8463 140.084 92.6044C140.199 92.3625 140.402 92.1726 140.653 92.0725C141.137 91.9007 141.449 92.0725 141.761 92.5535C142.072 93.0345 142.28 93.7903 143.042 94.0308Z" fill="#EBF4EF"/>
<path d="M183.52 95.7152L184.316 95.2685L185.978 96.0931L187.813 96.8489V95.1655C187.782 94.9748 187.826 94.7795 187.935 94.6198C188.045 94.4601 188.212 94.348 188.402 94.3066C188.502 94.2813 188.606 94.2765 188.708 94.2924C188.811 94.3084 188.908 94.3448 188.996 94.3994C189.083 94.4541 189.159 94.5258 189.217 94.6102C189.276 94.6947 189.316 94.7901 189.337 94.8906C189.619 95.5244 189.851 96.1792 190.029 96.8489C190.074 97.0996 190.064 97.3568 190 97.6033C189.937 97.8499 189.821 98.0801 189.66 98.2785C189.499 98.477 189.298 98.639 189.069 98.7539C188.84 98.8688 188.589 98.9338 188.333 98.9446C187.44 98.9709 186.554 98.7813 185.752 98.3923C184.95 98.0032 184.255 97.4264 183.727 96.7115C183.52 96.5053 183.52 96.1961 183.52 95.7152Z" fill="#EBF4EF"/>
<path d="M151.145 94.5835C151.837 93.381 153.43 93.5872 154.226 92.5221C153.603 91.9724 152.668 91.835 152.46 90.9418C152.682 90.5325 153.053 90.2228 153.497 90.0759C153.941 89.929 154.425 89.9561 154.85 90.1516L155.438 90.4264C155.76 90.5702 156.038 90.7955 156.244 91.0796C156.45 91.3637 156.577 91.6967 156.612 92.045C156.647 92.3932 156.589 92.7445 156.444 93.0635C156.298 93.3825 156.071 93.6579 155.784 93.862C154.794 94.675 153.595 95.1984 152.322 95.3737C151.802 95.5798 151.422 95.2362 151.145 94.5835Z" fill="#EBF4EF"/>
<path d="M182.239 90.012L183.658 87.6758C183.768 87.6395 183.883 87.627 183.998 87.6394C184.112 87.6518 184.223 87.6886 184.322 87.7474C184.42 87.8062 184.505 87.8855 184.57 87.9799C184.635 88.0743 184.678 88.1815 184.697 88.2942C184.944 89.0325 184.932 89.8322 184.661 90.5624C184.391 91.2926 183.878 91.9101 183.208 92.3139C182.946 92.4254 182.663 92.4829 182.377 92.4829C182.092 92.4829 181.809 92.4254 181.546 92.3139C181.138 92.236 180.751 92.0733 180.411 91.8365C180.071 91.5996 179.785 91.294 179.572 90.9396C179.122 90.1151 179.572 89.531 180.404 89.6341C181.023 89.7188 181.636 89.8451 182.239 90.012Z" fill="#EBF4EF"/>
<path d="M142.625 99.4277H143.041C143.332 100.44 143.54 101.474 143.664 102.52C143.664 103.963 142.729 104.547 141.344 104.1C140.776 103.915 140.25 103.619 139.798 103.229C139.346 102.84 138.977 102.365 138.713 101.833C138.263 100.974 138.332 100.836 139.197 100.08C140.513 100.08 140.652 101.661 141.794 102.039L142.625 99.4277Z" fill="#EBF4EF"/>
<path d="M130.646 91.4903C129.803 91.0692 129.109 90.4029 128.657 89.5803C128.206 88.7577 128.018 87.818 128.118 86.8866C128.915 86.5431 129.261 87.1615 129.607 87.6424C129.942 88.1727 130.243 88.7235 130.508 89.2915C131.165 88.6388 131.131 87.5737 132.1 87.2989C133.07 87.8829 133.105 87.9516 132.793 88.9136C132.71 89.4979 132.465 90.0479 132.086 90.5028C131.707 90.9576 131.209 91.2994 130.646 91.4903Z" fill="#EBF4EF"/>
<path d="M192.834 103.07C192.834 102.073 194.081 101.318 194.704 101.627L194.912 101.799C195.258 102.279 194.912 102.726 194.912 103.138C194.912 103.551 193.873 103.963 193.527 103.757C193.248 103.58 193.012 103.346 192.834 103.07Z" fill="#EBF4EF"/>
<path d="M104.883 55.6553L103.152 53.4909C102.84 53.0787 102.632 52.529 102.044 52.7007C101.455 52.8725 101.593 53.4909 101.559 53.9719C101.576 54.258 101.576 54.5448 101.559 54.8308C101.559 55.1057 101.559 55.4836 101.213 55.5523C101.07 55.6128 100.917 55.644 100.762 55.644C100.608 55.644 100.455 55.6128 100.312 55.5523C99.9795 55.3463 99.698 55.0682 99.4891 54.7388C99.2801 54.4095 99.149 54.0375 99.1057 53.6507C99.0624 53.2639 99.108 52.8724 99.239 52.5055C99.37 52.1387 99.583 51.8061 99.8621 51.5326C100.123 51.1597 100.474 50.8585 100.884 50.6572C101.294 50.4559 101.748 50.3611 102.205 50.3817C102.662 50.4023 103.106 50.5376 103.495 50.775C103.885 51.0123 104.208 51.344 104.433 51.7388C104.914 52.6305 105.286 53.5763 105.541 54.556C105.679 54.9682 105.645 55.3805 104.883 55.6553Z" fill="#EBF4EF"/>
<path d="M108.727 71.4247L108.069 70.8406C107.861 70.3253 107.688 69.8443 107.515 69.3633C107.266 68.7154 107.07 68.0491 106.926 67.3707C106.911 67.086 106.967 66.8022 107.088 66.5437C107.209 66.2852 107.392 66.0599 107.62 65.8873C107.849 65.7146 108.116 65.5999 108.4 65.5531C108.683 65.5063 108.973 65.5287 109.246 65.6185C110.201 65.89 111.071 66.3984 111.774 67.0958C112.536 67.8516 112.536 68.0578 111.566 69.0197L110.389 68.2639L109.108 67.6799C109.118 68.4128 109.308 69.1322 109.662 69.7756C110.043 70.7032 109.8 71.1155 108.727 71.4247Z" fill="#EBF4EF"/>
<path d="M104.917 34.7675C104.016 34.7675 103.67 33.9429 103.185 33.2558C102.423 33.9773 102.597 34.9736 102.181 35.8325C101.734 35.5778 101.373 35.1967 101.145 34.7378C100.917 34.2789 100.831 33.763 100.9 33.2558C100.943 32.5644 101.22 31.9075 101.684 31.3905C102.149 30.8734 102.775 30.5261 103.462 30.4043C105.02 30.7135 105.505 31.9847 105.817 33.3245C105.955 33.9086 105.852 34.046 104.917 34.7675Z" fill="#EBF4EF"/>
<path d="M104.573 47.5143C103.257 46.2088 103.811 44.0787 102.565 42.945C101.768 43.2542 101.872 44.3879 100.937 44.491C100.62 44.1279 100.418 43.6798 100.356 43.203C100.294 42.7263 100.376 42.2421 100.591 41.8112C100.814 41.4061 101.166 41.0854 101.592 40.899C102.017 40.7126 102.493 40.671 102.945 40.7806C103.193 40.8013 103.432 40.8849 103.638 41.0232C103.844 41.1616 104.011 41.3501 104.123 41.5707C104.956 43.1792 105.293 44.9954 105.092 46.7928C105.112 46.9065 105.112 47.0227 105.092 47.1364L104.573 47.5143Z" fill="#EBF4EF"/>
<path d="M110.077 58.4033L110.631 61.083C110.838 62.0106 110.631 62.1481 109.765 62.629C109.5 62.4857 109.275 62.2784 109.112 62.0262C108.948 61.774 108.851 61.4851 108.83 61.1861C108.83 60.3959 108.518 59.6057 108.38 58.7812C108.341 58.5403 108.353 58.2941 108.415 58.0581C108.478 57.8221 108.589 57.6017 108.742 57.4108C108.895 57.22 109.087 57.0631 109.305 56.95C109.523 56.8369 109.762 56.7702 110.007 56.7542C111.053 56.7422 112.07 57.0948 112.881 57.7505C113.001 57.8418 113.093 57.9636 113.147 58.1028C113.202 58.242 113.218 58.3933 113.193 58.5407C113.193 58.7812 112.708 58.9186 112.397 58.953C112.078 58.943 111.763 58.885 111.462 58.7812L110.077 58.4033Z" fill="#EBF4EF"/>
<path d="M174.413 42.8424L172.682 44.2853C172.762 43.1847 173.119 42.1215 173.72 41.1933C173.858 41.0018 174.04 40.8458 174.251 40.7381C174.462 40.6304 174.695 40.5742 174.932 40.5742C175.169 40.5742 175.403 40.6304 175.614 40.7381C175.825 40.8458 176.007 41.0018 176.144 41.1933C176.396 41.4656 176.575 41.7964 176.664 42.1553C177.045 43.62 177.045 45.1568 176.664 46.6215C176.664 47.0682 176.421 47.3774 175.902 47.4461C175.788 47.4507 175.675 47.433 175.568 47.394C175.461 47.3551 175.363 47.2956 175.279 47.219C175.196 47.1424 175.128 47.0502 175.081 46.9477C175.033 46.8452 175.006 46.7343 175.002 46.6215C174.828 45.797 174.759 44.9381 174.655 44.0792C174.551 43.2203 174.551 43.4264 174.413 42.8424Z" fill="#EBF4EF"/>
<path d="M171.124 39.5774C170.96 39.3788 170.846 39.1443 170.792 38.8934C170.738 38.6424 170.745 38.3823 170.812 38.1345C170.958 37.7592 171.013 37.3548 170.97 36.9546C170.928 36.5545 170.791 36.1699 170.57 35.8327L170.016 36.4511C169.843 36.6566 169.609 36.8012 169.346 36.8631C169.084 36.9251 168.809 36.901 168.562 36.7946C168.077 36.4854 168.181 35.9701 168.215 35.5578C168.339 35.0825 168.597 34.6521 168.959 34.3173C169.321 33.9826 169.772 33.7574 170.258 33.6682C170.555 33.64 170.854 33.6715 171.138 33.7607C171.423 33.8499 171.686 33.9951 171.912 34.1875C172.138 34.38 172.323 34.6157 172.455 34.8807C172.588 35.1457 172.665 35.4344 172.682 35.7296C172.751 36.5068 172.751 37.2886 172.682 38.0658C172.613 39.0621 172.163 39.4744 171.124 39.5774Z" fill="#EBF4EF"/>
<path d="M172.475 27.4845C171.055 28.3434 171.055 28.3434 170.086 28.2747C169.953 27.907 169.946 27.5063 170.064 27.1341C170.183 26.7618 170.422 26.4384 170.743 26.2134C171.025 25.9388 171.379 25.7482 171.765 25.6632C172.15 25.5782 172.552 25.6021 172.925 25.7324C173.485 25.8962 173.979 26.2291 174.339 26.6848C174.699 27.1405 174.907 27.6963 174.933 28.2747C175.041 28.7613 175.041 29.2654 174.933 29.752C174.86 29.9312 174.747 30.092 174.603 30.2227C174.46 30.3534 174.289 30.4508 174.102 30.5078C173.687 30.5078 173.514 30.233 173.444 29.8207C173.37 29.3225 173.266 28.8292 173.133 28.3434C172.95 28.0314 172.729 27.7429 172.475 27.4845Z" fill="#EBF4EF"/>
<path d="M166.795 19.8262C167.135 19.8827 167.455 20.0221 167.727 20.2321C167.999 20.442 168.214 20.7157 168.353 21.0286C168.467 21.2473 168.498 21.4991 168.441 21.7386C168.384 21.978 168.242 22.1893 168.042 22.3341C167.626 22.6777 167.211 22.609 166.726 22.3341C166.241 22.0593 165.791 20.6164 166.795 19.8262Z" fill="#EBF4EF"/>
<path d="M148.028 46.5195C148.271 46.5376 148.507 46.611 148.718 46.734C148.928 46.857 149.107 47.0263 149.241 47.2289C149.375 47.4314 149.46 47.6618 149.49 47.9021C149.52 48.1425 149.493 48.3865 149.413 48.6152C149.205 49.3367 148.894 49.9895 148.651 50.6766C148.409 51.3637 148.305 51.3981 148.132 51.879H148.997C149.344 51.879 149.725 51.879 149.69 52.3944C149.663 52.5454 149.602 52.6885 149.513 52.8134C149.423 52.9382 149.306 53.0415 149.171 53.1158C147.855 53.7343 146.47 54.2839 145.119 54.8336C144.677 54.9673 144.226 55.0706 143.769 55.1428L143.111 54.2839L144.773 53.322C143.6 53.0452 142.444 52.7011 141.31 52.2913C139.579 51.5355 139.233 51.0201 139.441 49.4054C141.353 48.5049 143.363 47.8248 145.431 47.3784L148.028 46.5195Z" fill="#988FC1"/>
<path d="M148.026 46.5159L145.256 47.3748C143.28 47.8629 141.364 48.5657 139.543 49.4705C139.47 48.25 139.811 47.0402 140.513 46.035C140.792 45.6028 141.176 45.2473 141.629 45.0011C142.083 44.7549 142.592 44.6261 143.11 44.6264C144.021 44.543 144.939 44.6703 145.792 44.9981C146.645 45.326 147.41 45.8455 148.026 46.5159Z" fill="#F6C168"/>
<path d="M131.271 46.414C131.238 46.1823 131.259 45.9463 131.332 45.7237C131.404 45.5012 131.527 45.2979 131.69 45.1292C131.854 44.9605 132.054 44.8308 132.275 44.7498C132.496 44.6689 132.733 44.6388 132.968 44.6618C133.764 44.6618 134.214 45.2459 134.214 46.1735C134.228 46.3985 134.196 46.6241 134.119 46.8362C134.042 47.0484 133.921 47.2425 133.766 47.4068C133.61 47.571 133.422 47.7018 133.213 47.791C133.004 47.8802 132.779 47.9261 132.552 47.9256C131.582 48.0974 131.236 47.4446 131.271 46.414Z" fill="#234E32"/>
<path d="M148.894 40.2984C148.866 40.0243 148.866 39.7481 148.894 39.4739C149.01 39.1807 149.226 38.9374 149.504 38.7867C149.783 38.6359 150.106 38.5873 150.417 38.6494C150.733 38.6659 151.032 38.7979 151.256 39.0199C151.48 39.2419 151.613 39.5383 151.629 39.8518C151.678 40.2012 151.644 40.557 151.53 40.891C151.416 41.225 151.224 41.5279 150.971 41.7757C150.808 41.9622 150.593 42.0973 150.353 42.1644C150.113 42.2315 149.859 42.2278 149.621 42.1537C149.432 42.071 149.266 41.9429 149.139 41.781C149.012 41.6191 148.928 41.4284 148.894 41.226C148.894 40.8481 148.894 40.642 148.894 40.2984Z" fill="#234E32"/>
</g>
<defs>
<clipPath id="clip0">
<rect width="216" height="140" fill="white"/>
</clipPath>
</defs>
</svg>
