<svg width="90" height="90" viewBox="0 0 90 90" fill="none" xmlns="http://www.w3.org/2000/svg">
<g clip-path="url(#clip0)">
<path d="M6.71109 69.8917C8.73382 72.9617 10.9588 75.8922 13.3711 78.6634C15.4484 81.1139 18.3074 82.7638 21.4602 83.3314C23.4839 83.7804 25.5405 84.0635 27.6099 84.1778C30.1616 84.1778 32.9685 84.5112 35.6734 84.5625C39.5755 84.5838 43.4737 84.3094 47.3348 83.7418C51.326 83.1951 55.2865 82.4417 59.2005 81.4847L59.8129 82.5106C61.752 82.5059 63.6744 82.8715 65.4777 83.5879C66.1601 83.8608 66.8036 84.223 67.3915 84.6651C68.0295 85.1524 68.1826 85.8449 67.7233 86.9222C66.1923 88.1658 64.361 88.9799 62.4156 89.2818C57.8381 89.9561 53.2076 90.1966 48.5852 90H38.6844C36.9648 90.1337 35.2354 89.9512 33.5809 89.4614C32.7556 89.204 31.8822 89.1426 31.0292 89.2818C28.9519 89.4176 26.8688 89.1297 24.905 88.4354C20.7691 87.3697 16.8012 85.7295 13.116 83.5622C10.7173 81.9464 8.01248 80.6383 5.63935 78.9968C4.51262 78.2875 3.56838 77.3209 2.88347 76.1755C2.01588 74.5597 0.331727 73.6107 0 71.5332C0.0776881 70.8644 0.367945 70.2386 0.827654 69.7488C1.28736 69.259 1.892 68.9313 2.55174 68.8145C4.03175 68.8401 5.10349 70.3534 6.71109 69.8917Z" fill="white"/>
<path d="M6.48263 69.97C6.49681 69.8508 6.49681 69.7302 6.48263 69.6109C4.82399 65.4046 6.25297 61.6343 8.14126 57.9923C8.92764 56.6015 9.84174 55.2877 10.8716 54.0681C11.6882 52.9908 12.6068 52.0162 13.6275 50.8107C13.6275 49.3744 13.6275 47.7842 13.6275 46.194C13.7277 40.1571 14.4113 34.1442 15.6689 28.2402C16.9183 22.0965 19.3356 16.253 22.7883 11.0302C23.5984 9.79957 24.3068 8.50426 24.9062 7.15726C25.8127 5.00238 27.1704 3.06909 28.8869 1.48898C29.3492 0.915612 29.9639 0.485904 30.6595 0.249808C31.3552 0.0137118 32.1032 -0.0190733 32.8166 0.155264C33.1833 0.391642 33.4837 0.718449 33.6892 1.10456C33.8947 1.49067 33.9984 1.92322 33.9904 2.36102C34.3477 7.49069 34.6539 12.6204 34.7304 17.75C34.8134 24.2618 34.1368 30.761 32.7146 37.1145C32.5945 37.3939 32.5325 37.695 32.5325 37.9994C32.5325 38.3037 32.5945 38.6049 32.7146 38.8842C33.1228 39.3459 33.6332 39.1664 34.067 39.0125C37.4098 37.8327 40.7525 36.6785 44.0698 35.4217C49.1555 33.6391 54.4166 32.4095 59.763 31.754L67.4183 30.7281C70.8054 30.3328 74.2181 30.2042 77.6253 30.3434C80.0739 30.3991 82.483 30.9761 84.6936 32.0361C86.105 32.6443 87.3254 33.6265 88.2243 34.8779C89.1233 36.1293 89.6669 37.6028 89.7971 39.1407C89.8351 39.6359 89.8351 40.1332 89.7971 40.6283C89.8287 48.2522 89.0762 55.8588 87.5515 63.3271C87.2581 65.0675 86.5987 66.725 85.6175 68.1889C84.6362 69.6529 83.3556 70.8896 81.8612 71.8167C77.0575 74.7896 71.9176 77.1748 66.5507 78.9213C63.9989 79.742 61.4472 80.6397 58.8955 81.4861C54.9906 82.4454 51.0385 83.1988 47.0554 83.7432C43.1865 84.316 39.2787 84.5818 35.3684 84.5383C32.689 84.5383 30.0097 84.2305 27.3304 84.1536C25.2533 84.0476 23.1882 83.7731 21.1552 83.3328C18.039 82.773 15.2095 81.1518 13.1427 78.7418C10.7225 75.977 8.49713 73.046 6.48263 69.97ZM29.4483 46.3223C27.3304 52.1188 23.2476 56.2995 20.0324 60.8649C20.1128 61.1313 20.2573 61.3736 20.4531 61.5705C20.649 61.7673 20.8901 61.9126 21.1552 61.9934C23.2575 62.7055 25.524 62.768 27.6621 62.1729C31.6683 61.0957 35.7001 60.0698 39.7063 59.0182C51.3783 55.9088 62.7661 51.8074 73.7466 46.7583C74.6142 46.3479 75.5073 45.9375 76.2983 45.4502C77.5847 44.7046 78.576 43.5361 79.1053 42.1416C79.5799 41.0022 79.6296 39.729 79.2452 38.5557C78.8608 37.3825 78.0682 36.3881 77.0128 35.7551C76.2875 35.2876 75.4832 34.9573 74.6397 34.7805C72.3579 34.3089 70.0227 34.1536 67.699 34.3188C62.3316 34.5842 57.0297 35.6206 51.9547 37.3966C51.6087 37.5295 51.2493 37.6241 50.883 37.6788C46.5181 38.8531 42.252 40.371 38.1243 42.2185C35.2408 43.424 32.4083 44.886 29.3718 46.3223H29.4483ZM27.2793 42.0133C28.0496 40.2903 28.6479 38.4946 29.0656 36.6528C30.3648 31.1564 31.0326 25.5283 31.0559 19.8788C31.0559 16.3394 31.0559 12.7742 31.0559 9.20913C31.1248 8.6561 31.0787 8.09471 30.9206 7.56051C30.7625 7.0263 30.4958 6.53091 30.1373 6.10568C25.5243 11.7154 22.0828 18.2015 20.0178 25.1772C17.9529 32.1528 17.307 39.475 18.1186 46.707C18.8586 46.707 19.0882 46.194 19.2669 45.6298C20.7214 41.3208 22.1759 37.0376 23.5793 32.8056C24.2172 30.8307 24.9317 28.8814 25.6207 27.0091H26.4883C26.6771 27.4597 26.7743 27.9436 26.7743 28.4326C26.7743 28.9215 26.6771 29.4054 26.4883 29.856C25.6207 33.9341 24.7276 38.0122 23.9366 42.0646C23.9366 42.6289 23.5538 43.2701 24.2428 43.7061C25.3776 43.4573 26.4102 42.8668 27.2028 42.0133H27.2793ZM10.9482 67.9951C11.1067 68.8067 11.5735 69.5243 12.2496 69.9957C13.3281 70.8161 14.5744 71.3855 15.8986 71.6628C17.5827 71.945 19.2924 72.0732 21.002 72.4579C24.8646 73.2166 28.8459 73.1115 32.6635 72.1501C42.7122 69.9829 52.5367 66.8745 62.0086 62.8654C67.2907 60.5827 72.2156 57.7358 77.319 55.1709C78.2768 54.633 79.1824 54.0062 80.0239 53.2986C80.8189 52.6474 81.3682 51.7423 81.5805 50.7338C81.6093 50.5515 81.5742 50.3648 81.4811 50.2056C81.388 50.0465 81.2427 49.9249 81.0701 49.8617C79.868 50.0069 78.7199 50.4473 77.7273 51.1442C72.7769 53.5807 68.0562 56.2738 63.0803 58.8387C53.3959 63.2763 43.2557 66.6307 32.8421 68.8415C25.766 70.3439 18.4158 69.8739 11.5861 67.4821L10.9482 67.9951Z" fill="#5F4D45"/>
<path d="M29.371 46.3232C32.4076 44.8869 35.24 43.425 38.1745 42.2195C42.3023 40.372 46.5684 38.854 50.9332 37.6798C51.2996 37.6251 51.659 37.5305 52.005 37.3976C57.08 35.6216 62.3819 34.5851 67.7492 34.3198C70.0729 34.1546 72.4082 34.3099 74.69 34.7815C75.5335 34.9583 76.3378 35.2886 77.0631 35.7561C78.1095 36.397 78.8915 37.3949 79.2663 38.5675C79.6411 39.7401 79.5837 41.009 79.1045 42.1426C78.5753 43.5371 77.5839 44.7056 76.2976 45.4512C75.4555 45.9385 74.5624 46.3489 73.7458 46.7593C62.7398 51.8037 51.3263 55.8966 39.629 58.9935C35.6228 60.0451 31.591 61.071 27.5848 62.1483C25.4467 62.7434 23.1802 62.6808 21.0778 61.9687C20.8128 61.8879 20.5717 61.7427 20.3758 61.5458C20.18 61.349 20.0355 61.1066 19.9551 60.8402C23.1703 56.4287 27.2531 52.1198 29.371 46.3232ZM71.9086 36.5256C70.5835 35.9257 69.0857 35.8345 67.6982 36.2691C63.9727 36.859 60.2471 37.6285 56.496 38.2184C53.7245 38.748 51.026 39.6091 48.4581 40.7832C47.9222 41.4501 47.9477 41.9117 48.2539 42.3734C48.6702 42.6244 49.141 42.7696 49.6257 42.7964C50.1103 42.8232 50.5942 42.7308 51.0353 42.5273C54.6882 41.5124 58.4177 40.8004 62.1864 40.3985C65.223 39.9881 68.2341 39.4495 71.2451 38.9365C71.4493 38.9365 71.6534 38.7057 71.8575 38.5775C72.0061 38.2574 72.0874 37.91 72.0962 37.5569C72.1049 37.2038 72.0411 36.8527 71.9086 36.5256ZM61.3954 44.81C64.5085 45.759 64.9423 45.682 66.1927 43.8867C66.1665 43.5216 66.0268 43.1741 65.7932 42.8933C65.5596 42.6125 65.2441 42.4127 64.8913 42.3221C64.0576 42.0813 63.1732 42.0813 62.3395 42.3221C61.4975 42.5273 61.2423 43.1172 61.3954 44.81Z" fill="#F4F0E9"/>
<path d="M27.2018 42.0151C26.3819 42.84 25.3317 43.3946 24.1907 43.6053C23.5018 43.1693 23.7569 42.5281 23.8845 41.9638C24.7521 37.9114 25.6452 33.8333 26.4363 29.7552C26.625 29.3046 26.7223 28.8206 26.7223 28.3317C26.7223 27.8428 26.625 27.3588 26.4363 26.9082H25.5687C24.8797 28.7805 24.1652 30.7298 23.5273 32.7047C22.1238 37.0137 20.6693 41.2969 19.2148 45.5289C19.0362 46.0932 18.8065 46.6831 18.0665 46.6061C17.255 39.3976 17.8916 32.0987 19.9386 25.142C21.9855 18.1854 25.4012 11.7126 29.9832 6.10742C30.3417 6.53265 30.6084 7.02805 30.7665 7.56225C30.9246 8.09646 30.9707 8.65784 30.9018 9.21087C30.9018 12.776 30.9018 16.3411 30.9018 19.8806C30.8785 25.53 30.2107 31.1581 28.9115 36.6546C28.5185 38.4936 27.9458 40.2892 27.2018 42.0151Z" fill="#CEE4CA"/>
<path d="M10.9453 67.9955L11.6088 67.4056C18.4384 69.7973 25.7886 70.2673 32.8648 68.7649C43.2783 66.5541 53.4185 63.1997 63.1029 58.7621C68.0788 56.4024 72.7996 53.6324 77.75 51.0676C78.7426 50.3708 79.8906 49.9303 81.0927 49.7852C81.2653 49.8484 81.4106 49.9699 81.5037 50.1291C81.5968 50.2882 81.632 50.4749 81.6031 50.6572C81.3908 51.6657 80.8415 52.5708 80.0465 53.222C79.205 53.9296 78.2994 54.5564 77.3417 55.0944C72.2382 57.6592 67.1347 60.6087 62.0312 62.7889C52.5594 66.7979 42.7348 69.9063 32.6862 72.0735C28.8686 73.0349 24.8872 73.14 21.0247 72.3813C19.3661 71.9966 17.6564 71.8684 15.9212 71.5862C14.5971 71.3089 13.3508 70.7395 12.2722 69.9191C11.6027 69.4707 11.1282 68.7829 10.9453 67.9955Z" fill="#F4F0E9"/>
<path d="M71.9088 36.5259C72.0605 36.86 72.1389 37.223 72.1389 37.5903C72.1389 37.9576 72.0605 38.3206 71.9088 38.6547C71.7047 38.6547 71.5005 38.9881 71.2964 39.0138C68.2853 39.5267 65.2743 40.0654 62.2377 40.4757C58.469 40.8777 54.7395 41.5897 51.0866 42.6046C50.6455 42.8081 50.1616 42.9005 49.6769 42.8736C49.1923 42.8468 48.7214 42.7016 48.3052 42.4507C47.999 41.989 47.9735 41.5273 48.5093 40.8605C51.0773 39.6863 53.7758 38.8253 56.5473 38.2956C60.2984 37.7057 64.0239 36.9363 67.7495 36.3464C69.1121 35.9004 70.5892 35.9642 71.9088 36.5259Z" fill="#5F4D45"/>
<path d="M61.3932 44.808C61.2145 43.1152 61.3932 42.5253 62.3883 42.2431C63.222 42.0023 64.1064 42.0023 64.9401 42.2431C65.2929 42.3337 65.6084 42.5335 65.842 42.8143C66.0755 43.0951 66.2153 43.4426 66.2415 43.8077C64.9401 45.68 64.5063 45.757 61.3932 44.808Z" fill="#5F4D45"/>
</g>
<defs>
<clipPath id="clip0">
<rect width="90" height="90" fill="white"/>
</clipPath>
</defs>
</svg>
