<svg width="54" height="129" viewBox="0 0 54 129" fill="none" xmlns="http://www.w3.org/2000/svg">
<g clip-path="url(#clip0)">
<path d="M16.0774 93.1461C15.5503 92.3872 15.7053 91.427 15.3022 90.6216C14.9178 88.9766 14.7253 87.2927 14.7286 85.6035C14.7673 84.8657 14.7673 84.1264 14.7286 83.3887C14.7894 82.1367 15.0512 80.9026 15.5038 79.7335C15.5933 79.5387 15.708 79.3565 15.8448 79.1914C15.9978 79.1927 16.1476 79.2351 16.2785 79.3141C16.4095 79.3931 16.5167 79.5059 16.589 79.6406C16.8934 80.0563 17.1435 80.5091 17.3332 80.988C17.9369 82.7248 18.2817 84.5409 18.3565 86.3779C18.3565 87.493 18.3565 88.5927 18.3565 89.7078C18.3624 89.8554 18.3985 90.0002 18.4625 90.1334C18.5264 90.2666 18.617 90.3853 18.7286 90.4822C17.8913 91.3805 16.9456 92.2478 16.0774 93.1461Z" fill="#988FC1"/>
<path d="M7.22481 102.624C6.88372 102.051 6.55814 101.478 6.20155 100.905C4.88372 98.7673 3.50388 96.6455 2.26357 94.4771C1.19725 92.5394 0.433901 90.4502 0 88.2819L0.325581 87.2287C0.449612 86.8725 0.55814 86.5318 0.635659 86.2839C1.24557 85.3692 2.15569 84.6955 3.2093 84.3789C4.12665 84.3781 5.0431 84.3212 5.95349 84.2085C6.08909 83.6857 6.01686 83.1306 5.75194 82.6597C5.20898 81.3522 4.91456 79.9551 4.88372 78.5399C4.87928 78.1916 4.79998 77.8483 4.65116 77.5332C4.35399 76.522 4.35399 75.4468 4.65116 74.4356C4.90394 73.4236 5.00324 72.3794 4.94574 71.338C4.95921 70.5259 5.10047 69.721 5.36434 68.9528C5.57323 68.1423 5.9886 67.3997 6.57001 66.7972C7.15143 66.1946 7.87909 65.7527 8.68217 65.5145H11.3333C12.4496 65.6539 13.2403 66.6916 14.4341 66.2269C14.6035 66.0781 14.7238 65.8816 14.7791 65.6632C14.8345 65.4448 14.8223 65.2147 14.7442 65.0034C14.3101 63.7953 14.4496 62.5098 14.0775 61.2862C13.9426 60.7131 13.8852 60.1245 13.907 59.5361C13.907 57.0735 13.907 54.6264 13.907 52.1792C13.9716 50.5535 14.2319 48.9415 14.6822 47.378C14.8062 46.9598 14.9922 46.5416 15.0853 46.1079C15.524 44.5182 16.5058 43.1319 17.8605 42.1895C18.3119 41.885 18.7891 41.6206 19.2868 41.3996C19.969 41.3996 20.7132 41.3996 21.4574 41.3996C22.2015 41.3996 22.7597 41.5544 23.4109 41.6319C23.5039 41.477 23.6434 41.3686 23.6589 41.2447C23.7985 40.2099 23.7353 39.1578 23.4729 38.1471C23.2093 35.9416 23.1781 33.7146 23.3798 31.5027C23.5814 30.5579 23.7984 29.6286 24.031 28.6994C24.4406 26.9093 25.4737 25.3229 26.9457 24.2233L29.1938 23.387C29.4717 22.9674 29.5824 22.459 29.5039 21.9621C29.5039 19.3756 29.5039 16.7736 29.5039 14.218C29.5062 13.1779 29.61 12.1404 29.814 11.1204C30.0465 10.0517 30.2171 8.93661 30.3721 7.85244C30.6126 6.4601 31.0898 5.11912 31.7829 3.8875C31.9652 3.59741 32.1841 3.33194 32.4341 3.09761C32.9457 2.55553 33.4884 2.04442 33.9845 1.54881C35.5357 0.962045 37.2038 0.74977 38.8527 0.929283C40.0629 1.58211 40.9901 2.65722 41.4574 3.94945C41.6899 5.26594 41.4574 6.69084 41.6279 8.0383C41.7514 8.07923 41.886 8.07158 42.0041 8.0169C42.1222 7.96223 42.215 7.86465 42.2636 7.74403C42.7287 6.98511 43.2248 6.19522 43.6434 5.45179C44.1612 4.5573 44.7306 3.69367 45.3488 2.86529C45.9985 1.88703 46.8695 1.07526 47.8915 0.495618C48.158 0.343489 48.4167 0.178074 48.6667 0L51.7674 0C52.3112 0.282826 52.7903 0.675221 53.1746 1.1524C53.5589 1.62958 53.8399 2.18118 54 2.77236V5.25045C53.4419 6.58242 52.8527 8.02281 52.2015 9.43223C51.5504 10.8416 50.7752 12.2046 50.093 13.614C49.4109 15.0234 48.155 16.0301 47.5349 17.5325C48.186 17.9661 48.8217 18.3224 49.3953 18.7715C49.851 19.1725 50.2808 19.6019 50.6822 20.057C50.8217 20.4597 50.9302 20.8934 51.1008 21.2961C51.3945 21.9914 51.4544 22.7632 51.2713 23.4954C50.9906 25.1722 50.56 26.8206 49.9845 28.4206C49.2674 30.2147 48.3905 31.9408 47.3643 33.5781C46.4444 35.003 45.4677 36.3969 44.4341 37.7599C43.8093 38.4956 43.1469 39.1987 42.4496 39.8662C42.217 40.1141 41.845 40.3154 41.876 40.7955C42.4651 41.1827 43.1628 40.873 44.062 41.1518L45.969 42.112L47.1783 43.8622C47.3643 45.1477 48.155 46.4487 47.4884 47.9045C47.4006 48.1099 47.3583 48.3318 47.3643 48.555C47.2422 49.8803 46.9072 51.1773 46.3721 52.3961C45.7536 53.9007 45.0012 55.3469 44.124 56.7173C43.6588 57.5615 43.0797 58.338 42.4031 59.025C41.2403 60.1866 40.3566 61.5805 39.2248 62.7576C39.2188 62.8297 39.2188 62.9023 39.2248 62.9744C39.4884 63.501 40.124 63.3307 40.5271 63.6559C40.9302 63.9811 41.3798 64.2444 41.7674 64.5697C42.1067 64.8621 42.4087 65.195 42.6667 65.5609C42.9384 66.0128 43.1767 66.4838 43.3798 66.9703C43.3798 67.5434 43.3798 68.1474 43.3798 68.736C43.4435 70.5402 42.8974 72.3133 41.8295 73.7696C40.5022 75.8336 38.8044 77.6347 36.8217 79.082C35.8605 79.748 35.0233 80.6308 34.0465 81.2968C33.9591 81.3567 33.8967 81.4465 33.871 81.5492C33.8453 81.6519 33.8581 81.7604 33.907 81.8544L36.4651 82.6133C36.7442 82.8611 37.0233 83.0934 37.2868 83.3567C38.1356 84.1795 38.7528 85.2107 39.0766 86.347C39.4005 87.4833 39.4195 88.6847 39.1318 89.8307C39.0077 90.5586 38.8372 91.2711 38.6822 91.999C38.2326 91.7512 37.7674 91.5189 37.3333 91.2401C36.0916 90.5931 34.9267 89.8086 33.8605 88.9014C33.4656 88.5743 33.0273 88.3033 32.5581 88.0961C30.6282 87.1683 28.627 86.3966 26.5736 85.7883C26.0572 85.6189 25.5084 85.5713 24.9705 85.6492C24.4325 85.7271 23.9199 85.9285 23.4729 86.2375C22.6822 86.7641 21.9225 87.3216 21.1163 87.8637C21.1038 87.1185 20.9891 86.3785 20.7752 85.6644C20.7752 85.556 20.7752 85.3856 20.7752 85.2308C20.9959 84.8101 21.3583 84.481 21.7984 84.3015C22.5041 84.2055 23.2031 84.0658 23.8915 83.8833C26.3362 82.792 28.5714 81.2824 30.4961 79.4227C31.6364 78.2766 32.674 77.0328 33.5969 75.7056C35.0047 73.786 36.0936 71.6522 36.8217 69.3865C37.0701 68.7223 37.0701 67.9908 36.8217 67.3266C36.6062 67.0626 36.3618 66.8236 36.093 66.6141C35.6512 66.3573 35.1958 66.1246 34.7287 65.9172C34.1705 65.9172 33.6589 65.9172 33.1783 65.9172C32.6977 65.9172 32.1705 66.0875 31.6279 66.1805L31.3333 65.6539C31.8252 63.754 32.1572 61.8164 32.3256 59.8613C32.8345 59.3718 33.4424 58.9968 34.1085 58.7617C36.2847 57.6306 38.2637 56.1557 39.969 54.394C40.8865 53.4011 41.5679 52.2141 41.9625 50.9216C42.3571 49.6291 42.4547 48.2642 42.2481 46.9288C41.834 46.3091 41.2611 45.8117 40.5891 45.4884C39.876 45.4884 39.0388 45.4884 38.2481 45.38C38.062 45.38 37.8915 45.1787 37.7054 45.0702C37.7984 44.5127 37.907 44.017 37.969 43.5214C38.2328 42.3684 38.4193 41.199 38.5271 40.0211C38.8435 39.1065 38.9547 38.1336 38.8527 37.1713C38.8527 36.2885 38.8527 35.3902 38.9457 34.5074C38.9457 34.368 39.0853 34.2441 39.2093 34.0273L40.7597 33.7485C41.2403 33.4232 41.7209 33.1909 42.1085 32.8657C42.6363 32.4519 43.1149 31.979 43.5349 31.4562C45.1594 29.235 46.2665 26.6791 46.7752 23.9755C46.934 23.3339 46.8962 22.6594 46.6667 22.0395C46.4148 21.5674 45.9938 21.2078 45.4878 21.0326C44.9818 20.8574 44.4283 20.8796 43.938 21.0947C43.5969 21.2031 43.2558 21.389 42.9147 21.4974C42.5736 21.6058 42.6512 21.4974 42.5271 21.389C42.4645 21.2609 42.4177 21.1257 42.3876 20.9863C42.4585 19.8734 42.3325 18.7566 42.0155 17.6874C41.9422 17.3992 41.916 17.1011 41.938 16.8045C41.8117 15.4046 41.5521 14.0199 41.1628 12.6692C40.9612 11.8793 40.7597 11.1204 40.5271 10.315C40.2043 9.09195 39.7138 7.91927 39.0698 6.83023C38.983 6.66534 38.8597 6.52243 38.7092 6.41238C38.5587 6.30233 38.3851 6.22806 38.2015 6.19522C37.9074 6.17202 37.6119 6.17202 37.3178 6.19522C37.1291 6.20562 36.9457 6.26184 36.7836 6.35899C36.6215 6.45615 36.4856 6.59132 36.3876 6.75279C36.1404 7.12095 35.9472 7.52254 35.814 7.94537C35.4575 9.15813 35.2697 10.4141 35.2558 11.678C35.3333 13.01 35.2558 14.3419 35.2558 15.6894C35.2551 16.1319 35.3019 16.5733 35.3953 17.0059C35.8251 18.9067 36.4324 20.7631 37.2093 22.5506C37.5814 23.356 37.8915 24.1923 38.2171 25.0132C38.4587 25.565 38.5025 26.1831 38.3411 26.7634C38.3144 26.9226 38.2265 27.0651 38.0962 27.1605C37.9659 27.256 37.8034 27.2969 37.6434 27.2745L36.3101 24.8583C35.9602 24.5387 35.535 24.3128 35.0741 24.2017C34.6132 24.0907 34.1317 24.0981 33.6744 24.2233C33.0086 24.7128 32.4184 25.2973 31.9225 25.958C31.8295 26.1903 31.7984 26.3452 31.7364 26.4691C31.1154 27.9809 30.7033 29.5701 30.5116 31.1929C30.2326 32.9556 30.2641 34.7535 30.6046 36.5053C30.7339 37.0117 30.8015 37.5317 30.8062 38.0541C30.844 39.6852 31.0942 41.3044 31.5504 42.8709C31.9845 44.7295 32.5116 46.5881 32.9922 48.4621C32.8499 49.0771 32.4994 49.6242 32 50.0109C31.3643 49.4069 30.9457 48.586 30 48.1524C29.5828 48.054 29.1497 48.0431 28.7281 48.1205C28.3064 48.1978 27.9054 48.3616 27.5504 48.6015C26.7266 49.1199 26.032 49.8191 25.5194 50.6459C24.6766 52.139 24.2035 53.8118 24.1395 55.5247C24.1395 56.0358 24.1395 56.5624 24.1395 57.0735C23.9939 58.7775 24.1301 60.4938 24.5426 62.1536C24.574 62.3016 24.574 62.4546 24.5426 62.6027C24.5821 63.9576 24.8011 65.3012 25.1938 66.5986C25.3445 67.6824 25.6857 68.731 26.2015 69.6962C26.2808 69.9202 26.3227 70.1557 26.3256 70.3932C25.9225 70.9972 25.5504 71.6322 25.1163 72.2208C23.5884 74.3477 22.2647 76.6138 21.1628 78.9891C20.9347 79.4549 20.6757 79.9051 20.3876 80.3365C20.3876 80.4295 20.1395 80.4295 20 80.4759C19.8388 80.3824 19.6998 80.2551 19.5928 80.1026C19.4857 79.9502 19.413 79.7763 19.3798 79.5931C19.1216 78.8191 18.7394 78.092 18.2481 77.4403C17.982 77.0251 17.6298 76.672 17.2152 76.4047C16.8005 76.1375 16.3332 75.9625 15.845 75.8915C15.1608 76.0219 14.529 76.3472 14.0256 76.8281C13.5223 77.3089 13.1688 77.9249 13.0078 78.6019C12.4384 80.286 12.1197 82.0446 12.062 83.8213C12.062 84.4099 12.062 85.0139 12.062 85.6025C11.9492 87.0827 12.0961 88.5713 12.4961 90.0011C12.6996 91.4718 13.112 92.906 13.7209 94.2603C13.8374 94.6175 14.0798 94.9202 14.4031 95.1121C14.0971 95.5247 13.7657 95.9178 13.4109 96.2892C11.2713 98.2872 9.16279 100.378 7.22481 102.624Z" fill="#988FC1"/>
<path d="M7.22398 102.623C9.16196 100.377 11.2705 98.2863 13.4255 96.2264C13.7804 95.8549 14.1118 95.4618 14.4178 95.0493C15.1313 94.5695 15.7082 93.9131 16.0922 93.1442C16.9604 92.2459 17.9061 91.4251 18.7279 90.4803C19.6257 89.7438 20.414 88.8833 21.0689 87.9248C21.8441 87.3827 22.6193 86.8251 23.4255 86.2985C23.8725 85.9895 24.3851 85.7881 24.9231 85.7102C25.4611 85.6323 26.0098 85.6799 26.5263 85.8494C28.5955 86.4553 30.6124 87.227 32.5573 88.1571C33.0265 88.3643 33.4648 88.6353 33.8596 88.9625C34.9219 89.8966 36.087 90.7072 37.3325 91.3786C37.7666 91.6574 38.2317 91.8897 38.6813 92.1375C38.9142 92.3217 39.1575 92.4923 39.41 92.6486C41.41 93.7792 43.441 94.8789 45.441 96.0095C46.6503 96.722 47.8441 97.5583 49.0379 98.2398C49.61 98.6026 50.0418 99.1487 50.2627 99.7886C50.8797 101.256 51.0364 102.876 50.7123 104.435C50.4023 105.659 50.1542 106.898 49.8131 108.106C48.5461 112.354 46.9496 116.496 45.0379 120.496C44.7582 121.104 44.4316 121.689 44.0612 122.246C43.2186 123.572 42.0059 124.622 40.5728 125.266C37.8089 126.54 34.927 127.542 31.9682 128.256C30.0189 128.714 28.0308 128.989 26.0302 129.077C24.9139 129.077 23.8131 128.937 22.6968 129.077C22.1514 129.122 21.6063 128.986 21.1465 128.689C19.5689 127.83 18.1777 126.667 17.0534 125.266C15.503 123.268 13.9527 121.348 12.2937 119.381C11.6426 118.576 11.0069 117.832 10.3403 116.965C8.75255 115.098 7.30666 113.115 6.01467 111.033C5.67359 110.46 5.23948 109.949 4.85188 109.484C4.52936 109.051 4.33878 108.534 4.30303 107.996C4.26728 107.458 4.38787 106.92 4.65033 106.448C4.94016 105.848 5.28807 105.277 5.68909 104.745C6.20072 104.032 6.69684 103.335 7.22398 102.623ZM29.2085 123.392C31.7182 122.777 34.1595 121.911 36.4953 120.806C37.3094 120.528 38.0431 120.055 38.6322 119.429C39.2213 118.803 39.6481 118.042 39.8751 117.213C39.9837 116.779 40.1542 116.376 40.2937 115.958C41.1206 113.656 41.9475 111.353 42.7744 109.05L44.8209 103.397C45.1473 102.525 45.196 101.573 44.9604 100.671C44.8829 100.501 44.7589 100.315 44.6813 100.114C44.4166 99.5327 44.0263 99.0174 43.5384 98.605C43.0505 98.1926 42.4771 97.8933 41.8596 97.7287C40.3092 97.2486 38.7589 96.66 37.2085 96.1799L34.4643 95.2816C32.9139 94.8015 31.3635 94.3058 29.8131 93.8567C28.2627 93.4075 26.5883 92.757 25.0844 92.4628C23.6048 92.557 22.1886 93.097 21.0224 94.0116C19.7356 95.0183 18.5108 96.1025 17.317 97.2021C16.4023 98.0539 15.5496 98.9987 14.6658 99.897L13.3325 101.446C12.2162 102.731 11.4255 104.249 10.3248 105.55C10.111 105.813 9.96633 106.125 9.90405 106.457C9.84176 106.79 9.8638 107.133 9.96816 107.455C10.1657 108.33 10.6253 109.124 11.286 109.732C11.7356 110.119 12.1542 110.553 12.6193 110.909C13.9598 111.965 15.2239 113.114 16.4023 114.347C17.5914 115.534 18.8439 116.656 20.1542 117.708C22.2937 119.474 24.6193 120.914 26.8984 122.463C27.5816 122.955 28.3744 123.274 29.2085 123.392Z" fill="#234E32"/>
<path d="M16.0777 93.1453C15.6937 93.9142 15.1168 94.5706 14.4033 95.0504C14.08 94.8585 13.8376 94.5557 13.7211 94.1985C13.1122 92.8442 12.6998 91.41 12.4963 89.9393C12.0963 88.5096 11.9494 87.021 12.0622 85.5407C12.0622 84.9522 12.0622 84.3481 12.0622 83.7596C12.1199 81.9829 12.4386 80.2243 13.0079 78.5401C13.1794 77.8746 13.5374 77.2718 14.04 76.8027C14.5426 76.3335 15.1689 76.0174 15.8452 75.8916C16.3334 75.9626 16.8007 76.1377 17.2153 76.4049C17.63 76.6721 17.9822 77.0253 18.2483 77.4405C18.7396 78.0922 19.1218 78.8193 19.38 79.5933C19.4132 79.7765 19.4859 79.9504 19.593 80.1028C19.7 80.2552 19.839 80.3826 20.0002 80.4761C20.1397 80.4761 20.3258 80.4761 20.3878 80.3367C20.6759 79.9053 20.9349 79.4551 21.163 78.9893C22.2683 76.6354 23.5919 74.3901 25.1165 72.2829C25.5506 71.6944 25.9227 71.0594 26.3258 70.4553C26.33 70.197 26.288 69.94 26.2017 69.6964C25.6859 68.7312 25.3447 67.6826 25.194 66.5988C24.8119 65.3207 24.5982 63.9982 24.5583 62.6649C24.5897 62.5168 24.5897 62.3638 24.5583 62.2157C24.1458 60.5559 24.0096 58.8396 24.1552 57.1356C24.1552 56.6245 24.1552 56.0979 24.1552 55.5868C24.2192 53.8739 24.6923 52.2011 25.5351 50.7081C26.0477 49.8812 26.7423 49.182 27.5661 48.6637C27.9211 48.4237 28.3221 48.2599 28.7438 48.1826C29.1654 48.1053 29.5985 48.1161 30.0157 48.2145C30.9614 48.6482 31.38 49.469 32.0157 50.0731C32.5151 49.6863 32.8656 49.1392 33.0079 48.5243C32.5273 46.6502 32.0002 44.7916 31.5661 42.9331C31.1099 41.3665 30.8597 39.7473 30.8219 38.1163C30.8172 37.5938 30.7495 37.0738 30.6203 36.5675C30.2798 34.8156 30.2483 33.0178 30.5273 31.2551C30.719 29.6322 31.1311 28.043 31.7521 26.5312C31.7521 26.4073 31.8451 26.2524 31.9382 26.0201C32.4341 25.3594 33.0243 24.775 33.6901 24.2855C34.1474 24.1603 34.6289 24.1528 35.0898 24.2639C35.5507 24.3749 35.9759 24.6008 36.3258 24.9205L37.6591 27.3366C37.8191 27.359 37.9816 27.3181 38.1119 27.2227C38.2422 27.1272 38.3301 26.9847 38.3568 26.8255C38.5182 26.2452 38.4744 25.6271 38.2327 25.0753C37.9072 24.2545 37.5971 23.4181 37.225 22.6127C36.4516 20.8147 35.8494 18.9479 35.4265 17.037C35.3331 16.6045 35.2863 16.1631 35.287 15.7206C35.287 14.3731 35.287 13.0411 35.287 11.7092C35.3009 10.4453 35.4887 9.1893 35.8452 7.97654C35.9784 7.55371 36.1716 7.15211 36.4188 6.78396C36.5168 6.62248 36.6527 6.48732 36.8148 6.39016C36.9769 6.293 37.1603 6.23679 37.349 6.22639C37.6431 6.20318 37.9386 6.20318 38.2327 6.22639C38.4175 6.244 38.5959 6.30334 38.7544 6.39994C38.9129 6.49653 39.0473 6.62785 39.1475 6.78396C39.7915 7.873 40.282 9.04568 40.6048 10.2688C40.8374 11.0432 41.0389 11.8176 41.2405 12.623C41.6298 13.9736 41.8894 15.3583 42.0157 16.7583C41.9937 17.0548 42.0199 17.3529 42.0932 17.6411C42.4102 18.7104 42.5362 19.8271 42.4653 20.94C42.4954 21.0794 42.5422 21.2146 42.6048 21.3427C42.7289 21.3427 42.8839 21.4821 42.9924 21.4511C43.101 21.4202 43.6746 21.1569 44.0157 21.0485C44.506 20.8333 45.0595 20.8111 45.5655 20.9863C46.0715 21.1615 46.4925 21.5211 46.7444 21.9932C46.9739 22.6131 47.0117 23.2876 46.8529 23.9292C46.3442 26.6328 45.2371 29.1887 43.6126 31.41C43.1926 31.9327 42.7141 32.4056 42.1862 32.8194C41.7986 33.1446 41.318 33.3769 40.8374 33.7022L39.287 33.981C39.163 34.1978 39.0234 34.3217 39.0234 34.4611C39.0234 35.3439 39.0234 36.2422 38.9304 37.125C39.0274 38.0885 38.911 39.0614 38.5893 39.9749C38.4815 41.1527 38.295 42.3221 38.0312 43.4752C38.0312 43.9863 37.8607 44.4819 37.7676 45.024C37.9537 45.1324 38.1242 45.3182 38.3103 45.3337C39.1165 45.3337 39.9382 45.4266 40.6514 45.4421C41.3233 45.7654 41.8962 46.2628 42.3103 46.8825C42.5169 48.218 42.4193 49.5828 42.0247 50.8753C41.6301 52.1679 40.9487 53.3548 40.0312 54.3478C38.3107 56.1314 36.3102 57.6224 34.1087 58.7619C33.4356 59.0197 32.8271 59.4215 32.3258 59.939C32.1574 61.8941 31.8254 63.8317 31.3335 65.7315L31.6281 66.2581C32.1707 66.1651 32.6669 66.0412 33.1785 65.9948C33.6901 65.9483 34.2172 65.9948 34.7289 65.9948C35.196 66.2022 35.6514 66.4349 36.0932 66.6917C36.362 66.9013 36.6064 67.1402 36.8219 67.4042C37.0703 68.0684 37.0703 68.7999 36.8219 69.4641C36.0938 71.7299 35.0049 73.8636 33.5971 75.7832C32.6742 77.1104 31.6366 78.3542 30.4963 79.5004C28.5657 81.3561 26.3253 82.8604 23.8762 83.9454C23.1878 84.128 22.4888 84.2676 21.7831 84.3636C21.343 84.5431 20.9806 84.8723 20.7599 85.2929C20.7599 85.4478 20.6669 85.6181 20.7599 85.7266C20.9737 86.4406 21.0885 87.1806 21.101 87.9259C20.446 88.8844 19.6578 89.7449 18.7599 90.4814C18.6483 90.3844 18.5578 90.2657 18.4938 90.1326C18.4298 89.9994 18.3937 89.8546 18.3878 89.707C18.3878 88.5919 18.3878 87.4922 18.3878 86.3771C18.313 84.5401 17.9682 82.724 17.3645 80.9872C17.1748 80.5083 16.9248 80.0555 16.6203 79.6398C16.548 79.5051 16.4408 79.3923 16.3099 79.3133C16.1789 79.2343 16.0291 79.1919 15.8762 79.1906C15.7393 79.3557 15.6247 79.5379 15.5351 79.7327C15.0984 80.9044 14.8524 82.1384 14.8064 83.3879C14.8451 84.1256 14.8451 84.8649 14.8064 85.6027C14.8031 87.2919 14.9956 88.9758 15.38 90.6208C15.7056 91.3797 15.5041 92.3864 16.0777 93.1453ZM22.7909 81.932C24.32 81.4145 25.7171 80.5686 26.8839 79.4539C28.7713 77.7828 30.4902 75.9309 32.0157 73.9247C33.1767 72.3882 34.121 70.6997 34.8219 68.9065L34.4808 68.349C33.4731 67.9773 32.7289 68.6742 31.9537 68.7671C31.411 69.2008 30.9614 69.588 30.4033 69.9133C29.2431 70.7183 28.2484 71.7383 27.4731 72.9179C26.2094 74.6553 25.0746 76.4826 24.0777 78.3852C23.9227 78.7105 23.6436 78.9893 23.4731 79.3145C23.1165 79.965 22.7909 80.631 22.4653 81.297C22.4343 81.4983 22.5118 81.7152 22.7909 81.932ZM28.4033 67.8998C28.5428 67.7914 28.8219 67.6985 28.8529 67.5436C29.7015 64.6476 30.2216 61.6655 30.4033 58.6534C30.4531 57.8362 30.5882 57.0265 30.8064 56.2373C30.4952 55.4878 30.3574 54.6778 30.4033 53.8676C30.4033 53.2016 30.4033 52.5357 30.4033 51.8697C30.4183 51.3457 30.2542 50.8322 29.9382 50.4138C29.7887 50.2483 29.61 50.1118 29.411 50.0111L28.0467 50.7236C27.7986 51.2347 27.5351 51.6838 27.349 52.164C27.075 53.078 26.8627 54.0094 26.7134 54.9518C26.3069 56.474 26.3069 58.076 26.7134 59.5982C26.8225 60.0281 26.8695 60.4715 26.8529 60.9147C26.8422 61.7277 26.9573 62.5374 27.194 63.3154C27.4576 64.0743 27.194 64.8642 27.5661 65.716C27.6896 66.1383 27.788 66.5676 27.8607 67.0015C27.9235 67.3579 28.1169 67.6782 28.4033 67.8998ZM35.1165 46.4643L35.5351 44.5283C35.9072 42.8711 36.1242 41.1829 36.5583 39.5567V32.618C36.1526 30.9637 35.6346 29.3388 35.0079 27.7548C34.8839 27.4605 34.5893 27.3521 34.1862 27.5689C34.0777 27.7548 33.9227 28.0026 33.7986 28.2659C33.6684 28.446 33.5785 28.652 33.5351 28.8699C33.2178 30.3113 33.031 31.7782 32.9769 33.253C33.07 34.1359 32.9769 35.0342 32.9769 35.9325C32.9379 36.3016 32.9694 36.6748 33.07 37.0321C33.3371 37.8777 33.4526 38.7639 33.411 39.6496C33.3891 39.9461 33.4152 40.2443 33.4886 40.5324C33.7131 41.3155 33.8534 42.1203 33.9072 42.9331C34.0972 43.72 34.2473 44.5161 34.3568 45.3182C34.358 45.5624 34.4306 45.8009 34.5655 46.0045C34.7004 46.2081 34.8919 46.3679 35.1165 46.4643ZM32.5583 54.3787C32.5583 54.9053 32.5583 55.7262 32.6514 56.5316C32.6514 56.7639 32.9149 56.8568 33.194 56.8723C35.0617 55.8399 36.7608 54.529 38.2327 52.9848C39.0041 52.1811 39.6006 51.2267 39.9847 50.1815C40.142 49.7989 40.2112 49.3859 40.187 48.973C40.1628 48.5601 40.046 48.158 39.8452 47.7963C39.5523 47.7512 39.2543 47.7512 38.9614 47.7963C38.0158 47.9993 37.1363 48.436 36.4033 49.0663C34.6036 50.3983 33.2605 52.254 32.5583 54.3787ZM39.9072 24.208C40.0671 24.18 40.2148 24.1044 40.331 23.9911C40.4472 23.8778 40.5264 23.732 40.5583 23.573C40.6203 23.3606 40.6203 23.1349 40.5583 22.9225C40.1965 21.7931 40.0544 20.605 40.1397 19.4222C40.1869 19.1298 40.1869 18.8318 40.1397 18.5394C39.6901 17.2074 39.7676 15.7825 39.349 14.4196C38.9304 13.0566 38.6514 11.5698 38.2948 10.1449C38.2172 9.86608 38.0467 9.61827 37.6281 9.77315C37.4265 10.4391 37.4576 11.1981 37.2095 11.895C36.9847 12.6056 36.9847 13.3682 37.2095 14.0788C37.3703 14.5796 37.4539 15.1018 37.4576 15.6276C37.4516 16.8878 37.6614 18.1397 38.0777 19.3293C38.4498 20.7542 38.9769 22.1326 39.4731 23.5265C39.6017 23.7706 39.7578 23.9992 39.9382 24.208H39.9072ZM39.7521 31.952C40.9427 31.1779 41.9143 30.1113 42.5738 28.8544C43.3273 27.677 43.8532 26.3689 44.1242 24.9979C44.1563 24.8537 44.1503 24.7036 44.1069 24.5624C44.0634 24.4212 43.9839 24.2938 43.8762 24.1925C43.8762 24.1925 43.7366 24.1925 43.6746 24.1925C43.5304 24.2034 43.3916 24.2515 43.2715 24.3319C41.0871 26.1148 39.5463 28.5624 38.8839 31.3015C38.8839 31.4719 39.0079 31.7042 39.0855 31.9056L39.7521 31.952Z" fill="#B8B8CC"/>
<path d="M29.2104 123.394C28.3831 123.278 27.596 122.964 26.9158 122.48C24.6367 120.931 22.2646 119.491 20.1716 117.725C18.8634 116.632 17.616 115.469 16.4352 114.24C15.2568 113.006 13.9927 111.857 12.6522 110.802C12.1871 110.446 11.7685 110.012 11.3189 109.625C10.6582 109.017 10.1986 108.223 10.0011 107.348C9.89671 107.026 9.87467 106.683 9.93695 106.35C9.99923 106.017 10.1439 105.705 10.3577 105.443C11.4584 104.142 12.2491 102.624 13.3654 101.339L14.6987 99.7897C15.5825 98.8914 16.4352 97.9467 17.3499 97.0948C18.5437 95.9952 19.7685 94.911 21.0553 93.9043C22.2215 92.9897 23.6377 92.4497 25.1173 92.3555C26.6677 92.6497 28.2181 93.2693 29.846 93.7494C31.4739 94.2295 32.9468 94.6942 34.4972 95.1743L37.2414 96.0726C38.7918 96.6147 40.3421 97.2032 41.8925 97.6214C42.5083 97.7736 43.0831 98.0592 43.5761 98.458C44.0691 98.8568 44.4682 99.359 44.7453 99.9291C44.8228 100.13 44.9468 100.316 45.0243 100.487C45.2706 101.438 45.1998 102.444 44.8228 103.352L42.7763 109.005C41.939 111.297 41.1122 113.6 40.2956 115.913C40.1561 116.331 39.9856 116.734 39.877 117.167C39.6567 118.005 39.233 118.775 38.6434 119.41C38.0539 120.045 37.3167 120.525 36.4972 120.807C34.1614 121.912 31.7201 122.778 29.2104 123.394ZM29.753 113.063C29.846 112.753 29.9546 112.397 30.0786 112.056C30.4125 110.926 30.5023 109.739 30.3421 108.571C30.3353 108.348 30.2604 108.132 30.1274 107.952C29.9944 107.772 29.8098 107.637 29.598 107.565C29.3836 107.457 29.1493 107.394 28.9095 107.38C28.6698 107.366 28.4299 107.402 28.2045 107.485C27.9792 107.568 27.7733 107.696 27.5996 107.861C27.4259 108.027 27.2881 108.227 27.1949 108.448C27.0621 108.709 26.9581 108.984 26.8848 109.268C26.685 110.047 26.5399 110.839 26.4507 111.638C26.3678 112.076 26.4362 112.529 26.6446 112.923C26.853 113.317 27.1892 113.628 27.598 113.806C27.7995 113.899 28.0166 113.93 28.1871 113.992C28.7967 113.862 29.3467 113.535 29.753 113.063ZM32.6522 102.516C31.8925 102.965 31.4429 103.336 31.3654 103.972C31.346 104.492 31.5231 105 31.8615 105.396C31.9956 105.58 32.1519 105.746 32.3266 105.892C32.7297 106.031 33.1328 106.186 33.5515 106.31C34.1089 106.486 34.7073 106.483 35.2632 106.303C35.8191 106.122 36.3047 105.773 36.6522 105.303C36.8897 104.984 36.9948 104.585 36.9458 104.19C36.8967 103.795 36.6972 103.434 36.3887 103.182C35.8588 102.772 35.2134 102.539 34.5437 102.516H32.6522ZM23.0088 105.861C22.4198 105.46 21.7345 105.223 21.0234 105.174C20.3122 105.125 19.6009 105.266 18.9623 105.582C18.7552 105.66 18.5616 105.77 18.3887 105.908C18.2453 106.022 18.1272 106.166 18.0418 106.328C17.9564 106.491 17.9056 106.669 17.8925 106.852C17.872 107.126 17.9168 107.401 18.0235 107.655C18.1301 107.908 18.2955 108.132 18.5059 108.309C18.7163 108.486 18.9659 108.611 19.2339 108.672C19.5019 108.734 19.7808 108.731 20.0476 108.664C21.0288 108.36 21.9589 107.911 22.8073 107.332C22.9208 107.245 23.0202 107.14 23.1018 107.023C23.1937 106.842 23.2337 106.639 23.2172 106.436C23.2008 106.234 23.1287 106.04 23.0088 105.877V105.861ZM26.5127 103.77C26.8809 103.641 27.1953 103.392 27.4059 103.064C27.6166 102.736 27.7114 102.346 27.6755 101.958C27.665 101.476 27.5566 101 27.3567 100.561C27.1568 100.122 26.8697 99.7276 26.5127 99.4025C26.1979 99.1448 25.8098 98.9926 25.4035 98.9675C24.9971 98.9425 24.5933 99.0459 24.2491 99.2631C24.0177 99.441 23.8536 99.6923 23.784 99.9756C23.7449 100.414 23.7449 100.854 23.784 101.292L24.9313 103.011C25.3631 103.427 25.9176 103.694 26.5127 103.77Z" fill="#CCDC97"/>
<path d="M22.7912 81.9316C22.5122 81.7147 22.4347 81.4979 22.5277 81.2966C22.8533 80.6306 23.1788 79.9646 23.5354 79.3141C23.706 78.9888 23.985 78.71 24.1401 78.3848C25.137 76.4821 26.2718 74.6549 27.5354 72.9175C28.3107 71.7379 29.3055 70.7179 30.4657 69.9128C30.9618 69.5876 31.4114 69.2004 32.0161 68.7667C32.7912 68.6738 33.5664 67.9768 34.5432 68.3485L34.8843 68.9061C34.1833 70.6993 33.2391 72.3878 32.0781 73.9242C30.5525 75.9305 28.8337 77.7824 26.9463 79.4535C25.7615 80.5759 24.3425 81.4222 22.7912 81.9316Z" fill="#988FC1"/>
<path d="M28.4044 67.8999C28.2444 67.7884 28.1085 67.6459 28.0046 67.481C27.9008 67.316 27.8311 67.132 27.7998 66.9396C27.7271 66.5057 27.6288 66.0764 27.5052 65.6541C27.1641 64.8642 27.3967 64.0124 27.1331 63.2535C26.8964 62.4755 26.7814 61.6658 26.792 60.8528C26.8087 60.4096 26.7617 59.9662 26.6525 59.5363C26.246 58.0141 26.246 56.4121 26.6525 54.8899C26.8018 53.9475 27.0142 53.0161 27.2882 52.1021C27.4742 51.6219 27.7378 51.1728 27.9858 50.6617L29.3502 49.9492C29.5492 50.0499 29.7279 50.1864 29.8773 50.3519C30.1934 50.7703 30.3574 51.2838 30.3424 51.8078C30.3424 52.4738 30.3424 53.1398 30.3424 53.8057C30.2965 54.6159 30.4343 55.4259 30.7455 56.1754C30.5273 56.9646 30.3922 57.7744 30.3424 58.5916C30.1607 61.6036 29.6406 64.5857 28.792 67.4817C28.823 67.6985 28.544 67.7915 28.4044 67.8999Z" fill="#988FC1"/>
<path d="M35.1174 46.4632C34.9174 46.357 34.7498 46.1987 34.6324 46.0052C34.515 45.8116 34.4523 45.5899 34.4508 45.3635C34.3413 44.5614 34.1912 43.7653 34.0012 42.9784C33.9474 42.1656 33.8071 41.3608 33.5826 40.5777C33.5092 40.2896 33.4831 39.9914 33.505 39.6949C33.5466 38.8092 33.4311 37.923 33.1639 37.0774C33.0634 36.7201 33.0319 36.3469 33.0709 35.9778C33.0709 35.0795 33.0709 34.1812 33.0709 33.2983C33.125 31.8235 33.3118 30.3566 33.6291 28.9152C33.6725 28.6973 33.7624 28.4913 33.8926 28.3112C34.0167 28.0479 34.1717 27.8001 34.2802 27.6142C34.6833 27.3974 34.9779 27.5058 35.1019 27.8001C35.7286 29.3841 36.2466 31.009 36.6523 32.6633V39.5555C36.2182 41.1043 36.0012 42.87 35.6291 44.5272L35.1174 46.4632Z" fill="#988FC1"/>
<path d="M32.5586 54.3795C33.2523 52.2378 34.5961 50.3649 36.4036 49.0207C37.1365 48.3903 38.0161 47.9536 38.9617 47.7506C39.2545 47.7055 39.5526 47.7055 39.8454 47.7506C40.0463 48.1123 40.1631 48.5144 40.1873 48.9273C40.2114 49.3402 40.1423 49.7532 39.985 50.1358C39.6008 51.181 39.0043 52.1354 38.233 52.9391C36.761 54.4833 35.0619 55.7942 33.1943 56.8266C32.9152 56.8266 32.6826 56.7182 32.6516 56.4859C32.5586 55.758 32.5586 54.9061 32.5586 54.3795Z" fill="#988FC1"/>
<path d="M39.9385 24.2089C39.767 23.9888 39.6213 23.7498 39.5044 23.4965C39.0083 22.1025 38.4811 20.7241 38.1091 19.2992C37.6927 18.1096 37.483 16.8577 37.4889 15.5975C37.4853 15.0717 37.4016 14.5495 37.2408 14.0487C37.0161 13.3381 37.0161 12.5756 37.2408 11.8649C37.4889 11.168 37.4579 10.4091 37.6594 9.74306C38.078 9.58818 38.2486 9.83599 38.3261 10.1148C38.6827 11.5397 38.9463 12.9956 39.3804 14.3895C39.8145 15.7834 39.7215 17.1773 40.1711 18.5093C40.2183 18.8017 40.2183 19.0997 40.1711 19.3921C40.0858 20.5749 40.2279 21.763 40.5897 22.8924C40.6517 23.1048 40.6517 23.3305 40.5897 23.5429C40.5635 23.7076 40.4868 23.8601 40.3702 23.9794C40.2535 24.0987 40.1027 24.1789 39.9385 24.2089Z" fill="#988FC1"/>
<path d="M39.7833 31.9995L39.1321 31.922C39.1321 31.7207 38.8996 31.4884 38.9306 31.318C39.593 28.5789 41.1338 26.1313 43.3182 24.3484C43.4382 24.2679 43.5771 24.2199 43.7213 24.209C43.7213 24.209 43.8608 24.209 43.9228 24.209C44.0305 24.3102 44.11 24.4377 44.1535 24.5789C44.197 24.7201 44.203 24.8702 44.1709 25.0144C43.8999 26.3854 43.374 27.6935 42.6205 28.8709C41.961 30.141 40.9836 31.2188 39.7833 31.9995Z" fill="#988FC1"/>
<path d="M29.7528 113.063C29.3505 113.532 28.8064 113.858 28.2024 113.992C28.0318 113.992 27.8148 113.899 27.6132 113.806C27.2044 113.628 26.8683 113.316 26.6599 112.922C26.4514 112.528 26.3831 112.076 26.4659 111.638C26.5552 110.839 26.7002 110.047 26.9 109.268C26.9734 108.984 27.0774 108.709 27.2101 108.447C27.3034 108.226 27.4412 108.027 27.6148 107.861C27.7885 107.695 27.9944 107.567 28.2198 107.484C28.4451 107.402 28.6851 107.366 28.9248 107.38C29.1645 107.394 29.3988 107.456 29.6132 107.564C29.825 107.637 30.0097 107.772 30.1427 107.952C30.2756 108.132 30.3505 108.348 30.3574 108.571C30.5176 109.738 30.4278 110.926 30.0938 112.056C29.9543 112.412 29.8458 112.768 29.7528 113.063Z" fill="#EBF4EF"/>
<path d="M32.6519 102.531H34.5899C35.2596 102.554 35.905 102.787 36.4349 103.197C36.7434 103.449 36.9429 103.81 36.992 104.205C37.041 104.601 36.9359 104.999 36.6984 105.319C36.3509 105.789 35.8653 106.138 35.3094 106.318C34.7535 106.499 34.1551 106.502 33.5976 106.326C33.179 106.202 32.7759 106.047 32.3728 105.908C32.198 105.762 32.0418 105.596 31.9077 105.412C31.5693 105.016 31.3922 104.507 31.4116 103.987C31.4426 103.352 31.8922 102.98 32.6519 102.531Z" fill="#EBF4EF"/>
<path d="M23.0079 105.877C23.1307 106.042 23.2046 106.239 23.2211 106.444C23.2375 106.649 23.1959 106.855 23.1009 107.038C23.0192 107.156 22.9199 107.26 22.8063 107.348C21.958 107.927 21.0278 108.376 20.0466 108.68C19.7799 108.747 19.501 108.75 19.2329 108.688C18.9649 108.626 18.7154 108.502 18.5049 108.325C18.2945 108.148 18.1292 107.923 18.0225 107.67C17.9159 107.417 17.871 107.142 17.8916 106.868C17.9046 106.685 17.9554 106.506 18.0408 106.344C18.1262 106.181 18.2443 106.038 18.3877 105.923C18.5607 105.785 18.7542 105.675 18.9614 105.598C19.5999 105.281 20.3113 105.14 21.0224 105.189C21.7336 105.238 22.4189 105.475 23.0079 105.877Z" fill="#EBF4EF"/>
<path d="M26.5122 103.769C25.9281 103.686 25.3853 103.421 24.9618 103.01L23.8145 101.291C23.7754 100.853 23.7754 100.413 23.8145 99.9746C23.8841 99.6913 24.0482 99.44 24.2796 99.2622C24.6238 99.045 25.0276 98.9415 25.4339 98.9666C25.8403 98.9916 26.2284 99.1438 26.5432 99.4016C26.9002 99.7266 27.1873 100.121 27.3872 100.56C27.5871 100.999 27.6955 101.475 27.706 101.957C27.74 102.349 27.6406 102.741 27.424 103.07C27.2074 103.399 26.8862 103.645 26.5122 103.769Z" fill="#EBF4EF"/>
</g>
<defs>
<clipPath id="clip0">
<rect width="54" height="129" fill="white"/>
</clipPath>
</defs>
</svg>
