<svg width="90" height="70" viewBox="0 0 90 70" fill="none" xmlns="http://www.w3.org/2000/svg">
<g clip-path="url(#clip0)">
<path d="M12.1911 54.6934C12.2031 54.2972 12.1038 53.9054 11.9042 53.562C11.5267 52.8404 11.2111 52.0886 10.9607 51.3144C10.6889 50.5652 10.3417 49.8159 10.0322 49.0667C9.64724 48.1077 9.27736 47.1337 8.8773 46.1747C8.59046 45.4779 8.27342 44.7961 7.97903 44.1068C7.68464 43.4176 7.36006 42.6608 7.02038 41.8592L6.51464 41.4471C6.59998 41.4276 6.67942 41.3882 6.74637 41.3322C6.81332 41.2762 6.86585 41.2051 6.89961 41.1249C6.99625 40.6551 6.97551 40.1689 6.83922 39.7089C6.26554 37.8958 5.7296 36.0677 5.09553 34.2695C4.49921 32.6138 3.88778 30.9655 3.41223 29.2722C3.13294 28.2682 2.90649 27.2568 2.69513 26.2753C2.40074 24.8668 2.0988 23.4657 1.87235 22.0497C1.75912 21.3005 1.74403 20.6187 1.63835 19.9069C1.43347 18.7422 1.29987 17.5663 1.23828 16.3856L2.44603 16.3181C2.96687 16.468 3.14804 16.8126 3.44997 16.9849C3.54182 17.8057 3.81503 18.5962 4.25011 19.3C4.75125 19.3862 5.26476 19.3709 5.75979 19.2551C5.80046 19.1451 5.83325 19.0325 5.85792 18.9179C5.88066 18.7388 5.88066 18.5576 5.85792 18.3785C5.72205 17.7491 5.57108 17.1273 5.42766 16.4979L5.09553 14.9995C5.13034 14.9112 5.18525 14.8322 5.25596 14.7685C5.32668 14.7048 5.41128 14.6582 5.50315 14.6324C6.33066 14.2794 7.23189 14.1304 8.13 14.1978C8.27303 14.2128 8.41724 14.2128 8.56026 14.1978C9.34529 14.137 10.1341 14.2496 10.8701 14.5275C11.172 14.6848 11.0588 15.0669 11.2928 15.2767C11.31 16.1362 11.4265 16.9909 11.64 17.8241C11.8212 18.7007 12.0325 19.5698 12.1986 20.4538C12.4251 21.6451 12.6742 22.8364 12.8176 24.0426C12.9685 25.3688 13.3309 26.6424 13.5724 27.9386C13.9197 29.6169 14.365 31.2801 14.7802 32.9509C15.0595 34.0972 15.3614 35.2435 15.6633 36.3823C15.7162 36.5846 15.7615 36.8019 15.9879 36.9068C16.1363 36.5797 16.2404 36.2346 16.2974 35.8804C16.3955 35.2885 16.539 34.6891 16.6824 34.1047C16.939 33.0933 17.173 32.0818 17.4825 31.1078C17.693 30.2002 17.9834 29.3127 18.3506 28.4556C18.471 28.1904 18.5154 27.8975 18.4789 27.6089C18.454 27.1013 18.5231 26.5934 18.6827 26.1105C18.8261 25.631 18.962 25.144 19.113 24.672C19.724 22.7537 20.4654 20.8789 21.3322 19.0603C21.445 18.7964 21.61 18.5576 21.8175 18.3581C22.0249 18.1587 22.2706 18.0025 22.54 17.899C22.7136 17.8391 22.8796 17.7566 23.0835 17.6742C24.0094 17.6914 24.9334 17.5855 25.8311 17.3595C26.041 17.3052 26.256 17.2726 26.4727 17.2621C26.9847 17.2662 27.4941 17.1904 27.9824 17.0374L28.9486 17.3521C29.0996 17.5469 29.2581 17.7417 29.4015 17.9439C29.5872 18.2247 29.8488 18.448 30.1563 18.5883C29.7789 19.3375 29.4015 20.1317 29.0392 20.9259C28.4504 22.3144 27.8868 23.713 27.3483 25.1215C26.835 26.4252 26.4113 27.7618 26.0802 29.1224C25.5367 31.4974 24.9177 33.85 24.4875 36.255C24.344 37.0641 24.1855 37.8733 24.0421 38.69C24.018 38.7957 24.0205 38.9057 24.0495 39.0103C24.0785 39.1148 24.133 39.2107 24.2082 39.2893C24.2949 39.3836 24.4133 39.4432 24.5411 39.4569C24.669 39.4707 24.7975 39.4378 24.9026 39.3643C25.0696 39.2235 25.1774 39.0256 25.2046 38.8098C25.3102 38.3153 25.3857 37.8209 25.4688 37.3114C25.582 36.6446 25.665 35.9628 25.816 35.3035C26.133 33.9399 26.4727 32.5838 26.8124 31.2277C27.2826 29.1538 27.9083 27.1177 28.6844 25.1365C29.3411 23.5481 29.9299 21.9223 30.7149 20.3864C31.4518 18.8253 32.2863 17.3114 33.2135 15.8536C33.4776 15.464 33.6966 15.0519 33.923 14.6399C34.7676 13.1333 35.7345 11.6975 36.8141 10.3468C37.5689 9.40279 38.3237 8.44378 39.0786 7.4623C39.1994 7.42484 39.3201 7.37988 39.3428 7.23004C39.4858 7.24467 39.63 7.24467 39.773 7.23004C40.4261 7.15109 41.0849 7.32261 41.6149 7.70954C42.03 7.98676 41.8942 8.60112 42.3018 8.87084C42.3999 8.87084 42.4905 8.87084 42.5358 8.87084C43.3246 8.30338 44.0667 7.67455 44.755 6.99029C45.7651 5.93132 46.9094 5.00704 48.1594 4.24064C49.0391 3.56513 50.0372 3.05709 51.1032 2.74219C52.1525 2.79463 52.9677 3.38652 53.949 3.6937L55.3228 5.07977C55.4537 5.43796 55.4537 5.83042 55.3228 6.18862C54.9262 6.74341 54.4106 7.20401 53.8131 7.53722C51.6328 9.14162 49.6108 10.9479 47.7744 12.9316C46.8731 13.9129 46.0503 14.9625 45.3136 16.0709C45.2515 16.197 45.2059 16.3304 45.1777 16.468C44.9955 16.5815 44.8449 16.7386 44.7399 16.925C43.2302 19.1352 41.8564 21.4203 40.5807 23.7205C40.2872 24.1729 40.0609 24.6649 39.9089 25.1814C38.4598 27.2964 37.2282 29.5503 36.2328 31.9095C35.6591 33.1907 35.1157 34.4868 34.4514 35.723C33.7301 37.1313 33.1438 38.6038 32.7002 40.121C32.5398 40.5428 32.516 41.0038 32.6322 41.4396C32.6985 41.5372 32.7871 41.6179 32.8907 41.6752C32.9943 41.7324 33.1101 41.7647 33.2286 41.7693C33.1002 42.024 32.753 41.9341 32.5567 42.2338C32.5114 42.3537 32.4284 42.5485 32.3529 42.7508C31.9308 43.9631 31.5805 45.199 31.3037 46.4519C30.8885 48.1377 30.6092 49.8609 30.2394 51.5616C30.1261 52.1086 30.096 52.678 30.0205 53.2399C29.8628 53.7935 29.779 54.3653 29.7714 54.9406C29.6528 55.4542 29.5671 55.9747 29.5147 56.499C29.4018 57.0516 29.3412 57.6135 29.3336 58.1773C29.1631 58.7325 29.0966 59.314 29.1373 59.893C28.858 60.7846 28.9788 61.7361 28.7146 62.6352C28.6879 62.8491 28.6879 63.0655 28.7146 63.2795C28.7496 63.8169 28.6935 64.3564 28.5485 64.8753C28.4912 65.1208 28.4759 65.3741 28.5032 65.6246C28.5032 66.4112 28.5032 67.1979 28.5032 67.9921C28.5185 68.2114 28.485 68.4314 28.4051 68.6364C27.9446 68.7413 27.4917 68.8612 27.0388 68.9436C26.7513 68.9903 26.4563 68.9484 26.1934 68.8237C26.2764 68.7039 26.3595 68.5915 26.435 68.4716C26.4948 68.3803 26.531 68.2758 26.5402 68.1673C26.5494 68.0588 26.5314 67.9497 26.4878 67.8497C26.4494 67.7633 26.3923 67.6862 26.3206 67.624C26.2488 67.5619 26.1642 67.5162 26.0726 67.4901C25.7587 67.4565 25.4411 67.4819 25.1366 67.565C24.5403 67.6849 23.9364 67.7898 23.3326 67.8797L18.8035 68.4866C18.3479 68.6027 17.8702 68.6027 17.4146 68.4866C17.3308 68.3243 17.265 68.1535 17.2183 67.9771C16.9617 66.606 16.7277 65.2275 16.4635 63.8564C16.2124 62.3705 15.7177 60.9354 14.9991 59.6083C14.9429 59.5323 14.8739 59.4664 14.7953 59.4135C14.4179 59.4135 14.4254 59.7357 14.3348 59.9529C14.2696 59.9603 14.2038 59.9603 14.1386 59.9529C14.1502 59.8459 14.1502 59.7378 14.1386 59.6308C13.7838 58.5893 13.3837 57.5479 13.0591 56.5065C12.9157 56.0794 12.7723 55.6449 12.6213 55.2253C12.5907 55.1119 12.5366 55.006 12.4626 54.9144C12.3885 54.8229 12.296 54.7476 12.1911 54.6934ZM22.4267 59.6083C22.5653 59.4504 22.6642 59.2621 22.7154 59.059C22.7665 58.8558 22.7685 58.6436 22.7211 58.4395C22.7211 58.1173 22.6305 57.8027 22.623 57.4805C22.623 55.4651 22.5551 53.4572 22.54 51.4417C22.54 47.9953 22.54 44.5489 22.8268 41.1025C22.8268 40.8552 22.8872 40.608 22.9174 40.3532C23.1061 39.0346 23.2722 37.7235 23.476 36.4123C23.6798 35.1012 23.8685 33.8575 24.1176 32.5913C24.4195 31.0404 24.7819 29.5045 25.1064 27.9611C25.2121 27.4366 25.2951 26.9047 25.3782 26.3727C25.4159 26.1255 25.3102 26.0056 24.9177 25.8557C24.5507 26.3879 24.2917 26.9859 24.1553 27.6164C23.9742 28.3656 23.7704 29.1149 23.5967 29.8117C23.2269 31.3101 22.8419 32.8835 22.6381 34.4419C22.5098 35.3334 22.3664 36.2175 22.2305 37.1016C22.0946 37.9857 21.8908 39.0121 21.8229 39.9786C21.7096 41.4771 21.5511 42.9755 21.5587 44.474C21.5587 48.6471 21.5587 52.8128 21.6191 56.986C21.6421 57.6293 21.7102 58.2701 21.8229 58.904C21.8502 59.1672 21.9802 59.4092 22.1852 59.5783L22.4267 59.6083ZM16.4484 44.2417C16.5505 43.8744 16.5373 43.485 16.4106 43.1254C16.0181 41.8592 15.6558 40.5855 15.2557 39.3118C14.8255 37.8733 14.3424 36.4423 13.9498 34.9888C13.4894 33.2581 13.112 31.5049 12.6893 29.7442C12.3118 28.2458 11.9344 26.6799 11.5419 25.1515C11.1494 23.6231 10.7871 22.0122 10.3945 20.4464C10.2622 19.9612 10.1035 19.4835 9.91898 19.0153C9.85387 18.8996 9.77254 18.7937 9.67743 18.7007L9.42833 18.7756C9.36439 18.9806 9.36439 19.1999 9.42833 19.4049C9.47362 19.6821 9.54156 19.9668 9.58685 20.2441C9.70008 20.9558 9.76801 21.6751 9.91898 22.3719C10.4247 24.7544 10.9607 27.1294 11.4966 29.512C11.8287 30.9804 12.1734 32.4439 12.5307 33.9024C12.7723 34.8839 13.0063 35.8579 13.2856 36.8169C13.9197 38.9147 14.5839 40.9976 15.2331 43.0879C15.328 43.3956 15.4388 43.6982 15.5652 43.9945C15.6709 44.3016 15.8898 44.3541 16.4484 44.2417ZM10.0549 30.6583C9.92294 31.1008 9.92294 31.5718 10.0549 32.0144C10.5304 34.0822 11.1267 36.1051 11.8061 38.1131C12.108 39.0271 12.4704 39.9262 12.7874 40.8402C13.1648 41.9266 13.5422 43.0205 13.897 44.0994C14.1008 44.6763 14.3273 45.2457 14.5613 45.8076C14.6116 45.9784 14.7089 46.132 14.8422 46.2511C14.9756 46.3702 15.1396 46.4501 15.3161 46.4819C15.7917 46.2421 15.9124 46.0473 15.7766 45.6727C15.5879 45.1707 15.3539 44.6837 15.1651 44.1743C14.2744 41.7468 13.5271 39.2818 12.6138 36.8619C12.0476 35.3634 11.6174 33.7975 11.1041 32.2541C10.9909 31.917 10.8927 31.5723 10.7569 31.2352C10.6709 31.0414 10.5592 30.86 10.4247 30.6957C10.3643 30.5684 10.2209 30.5759 10.0549 30.6583Z" fill="#B3CF9C"/>
<path d="M34.345 62.9345C34.3035 62.2686 34.3569 61.6002 34.5035 60.9491C34.5531 60.6012 34.5531 60.2481 34.5035 59.9002C34.6718 59.2724 34.7505 58.6242 34.7375 57.9747C34.8874 57.3232 34.9658 56.6575 34.9715 55.9892C34.965 55.9172 34.978 55.8448 35.0093 55.7795C35.1689 55.2968 35.228 54.787 35.1829 54.281C35.3552 53.7213 35.4889 53.1506 35.583 52.5728C35.7339 51.7786 35.9226 50.9769 36.0208 50.1753C36.1189 49.3736 36.285 48.7817 36.4208 48.0849C36.685 46.7588 37.1757 45.4926 37.5305 44.1965C37.7343 43.4472 37.9607 42.698 38.2023 41.9488C38.4438 41.1996 38.6778 40.6826 38.9118 40.0532C39.5814 39.0325 40.131 37.939 40.5498 36.7941C41.116 35.1608 41.8784 33.6249 42.5804 32.059C43.3671 30.2819 44.3146 28.5792 45.411 26.9718C45.5862 26.7016 45.7353 26.4156 45.8564 26.1177C46.264 25.2036 46.6565 24.2821 47.0792 23.3755C47.8754 21.6923 48.7911 20.0674 49.8193 18.5131C49.9389 18.3362 49.9996 18.1266 49.9929 17.9137C50.1991 17.847 50.3857 17.7313 50.5364 17.5765C50.7327 17.3742 50.9516 17.1944 51.1176 17.0296C51.5237 16.9321 51.9487 16.9451 52.348 17.0671C52.4798 17.1218 52.6205 17.1522 52.7632 17.157C53.9394 17.1757 55.1137 17.2582 56.2808 17.4042C56.3274 17.4769 56.3983 17.5311 56.4812 17.5571C56.564 17.5831 56.6534 17.5794 56.7337 17.5466L57.179 17.629C56.9688 18.3166 56.664 18.9721 56.2732 19.577C55.6398 20.7054 55.0826 21.8742 54.605 23.0758C53.8049 24.9189 53.05 26.7845 52.3405 28.6501C51.88 29.7814 51.4649 30.8977 51.0195 32.0665C50.6784 33.051 50.4406 34.0679 50.31 35.1009C50.31 35.3182 50.1967 35.5879 50.4156 35.7827C50.6949 35.7003 50.7402 35.4605 50.8157 35.2807C51.0573 34.7188 51.2611 34.1419 51.4951 33.58C52.3329 31.5571 53.1633 29.5267 54.0238 27.5187C54.839 25.6407 55.6769 23.7701 56.5374 21.907C56.8771 21.1578 57.3602 20.4685 57.6772 19.7118C58.1189 18.7295 58.6231 17.776 59.1869 16.8573C59.4592 16.2775 59.7879 15.7254 60.1682 15.209C60.2157 15.2827 60.2802 15.3443 60.3563 15.3886C60.4324 15.4328 60.518 15.4586 60.606 15.4637C61.0212 15.5237 61.4439 15.5986 61.8591 15.681C62.0409 15.7074 62.2149 15.7718 62.3698 15.87C62.5246 15.9682 62.6567 16.0978 62.7573 16.2504C62.8816 16.6072 62.8816 16.995 62.7573 17.3518C62.6976 17.5532 62.6522 17.7584 62.6215 17.9661C62.055 18.5727 61.5493 19.2327 61.1118 19.9366C60.5758 20.7832 60.0021 21.6148 59.4889 22.4765C58.8623 23.5329 58.2434 24.5818 57.6923 25.6756C57.0281 26.9868 56.4393 28.3429 55.8354 29.684C55.0845 31.2365 54.4291 32.8328 53.8728 34.464C53.5633 35.4605 53.3067 36.472 52.9293 37.4609C52.4084 38.8095 52.0838 40.2031 51.6611 41.5742C51.4878 42.1855 51.4441 42.8258 51.5328 43.4547L51.7894 43.5821C51.9254 43.4991 52.0435 43.3901 52.1368 43.2615C52.2301 43.1329 52.2967 42.9872 52.3329 42.8329C52.9293 41.1022 53.5331 39.3789 54.0917 37.6333C54.7922 35.3344 55.6393 33.0822 56.628 30.8902C57.1564 29.7514 57.647 28.5901 58.183 27.4588C58.5403 26.5557 58.9959 25.694 59.5417 24.889C59.6253 25.0498 59.6862 25.2212 59.7229 25.3984C59.7229 26.29 60.055 27.1591 60.0021 28.0657C59.9908 28.2078 59.9908 28.3506 60.0021 28.4927C60.1305 29.3393 60.2739 30.186 60.3947 31.0326C60.5683 32.2014 60.7494 33.3702 61.0363 34.5165C61.1948 35.1383 61.3382 35.7677 61.4816 36.397C61.7836 37.6857 62.0805 38.9744 62.3724 40.263C62.6818 41.6566 62.9687 43.0576 63.3008 44.4437C63.8302 46.8554 64.5007 49.2345 65.3087 51.5688C65.7541 52.7751 66.1088 54.0188 66.5089 55.2475C65.9305 55.4295 65.3368 55.5599 64.735 55.6371C63.9047 55.6997 63.0908 55.8998 62.3271 56.229L62.2289 56.6186C61.7853 56.8619 61.2982 57.0172 60.7947 57.0756C59.0963 57.4577 57.3677 57.8773 55.7071 58.4392C54.7182 58.7764 53.7219 59.0686 52.6877 59.3757C52.5724 59.4092 52.4531 59.4269 52.3329 59.4282C51.8725 59.3757 52.0008 58.9187 51.6687 58.9262C51.6158 58.9712 51.5328 59.0161 51.5253 59.0611C51.5253 59.4956 51.48 59.9227 51.4724 60.3497C51.4649 60.7768 51.4724 61.2113 51.4724 61.5785C50.9591 62.1554 50.861 62.1628 50.2571 61.7283C50.1211 61.177 50.1211 60.6013 50.2571 60.05C50.3935 59.3974 50.4341 58.7287 50.3779 58.0646C49.9325 58.3942 49.9401 58.8663 49.7891 59.2409C49.6058 59.6388 49.5056 60.0696 49.4947 60.5071L49.0494 60.8967C48.3762 60.9958 47.7252 61.2086 47.1245 61.526C45.2827 62.2752 43.4635 63.0245 41.6368 63.7737C39.8101 64.5229 38.0136 65.1897 36.1491 65.7516C35.7339 65.8715 35.3188 65.9914 34.896 66.0888C34.756 66.1105 34.6134 66.1105 34.4733 66.0888C34.2091 65.6842 34.3828 65.2272 34.2695 64.8151C34.3073 64.1783 34.3224 63.5414 34.345 62.9345ZM55.1032 19.7568C54.9371 19.532 54.756 19.532 54.6126 19.6669C54.4296 19.838 54.2698 20.0319 54.137 20.2438C53.2538 21.6448 52.6273 23.1732 51.8725 24.6342C51.8725 24.6942 51.8272 24.7691 51.797 24.8365C51.4951 25.5857 51.2158 26.3799 50.8836 27.1366C50.5839 27.8282 50.3317 28.5391 50.1288 29.2644C50.0042 29.6763 49.8581 30.0814 49.691 30.4782C49.3211 31.3697 48.9361 32.2763 48.6267 33.1829C48.5487 33.3228 48.5078 33.48 48.5078 33.6399C48.5078 33.7998 48.5487 33.957 48.6267 34.0969C49.1324 34.2393 49.3362 34.1868 49.5023 33.7972C49.9929 32.5985 50.5289 31.4222 50.9365 30.201C51.4347 28.7025 51.9933 27.2041 52.6047 25.773C52.7707 25.376 52.9066 24.9564 53.0953 24.5743C53.752 23.1508 54.3484 21.7272 54.9371 20.2288C55.0007 20.0744 55.0561 19.9168 55.1032 19.7568Z" fill="#B3CF9C"/>
<path d="M85.3959 29.2571C85.2322 29.4527 85.1439 29.6996 85.1468 29.9539C84.9258 30.7104 84.7941 31.4898 84.7543 32.2765C84.7543 32.3364 84.641 32.3814 84.6259 32.4413C84.4523 33.3479 84.3014 34.2544 84.1202 35.1535C83.8916 36.5877 83.5638 38.0046 83.1389 39.3941C83.0505 39.6647 83.0146 39.9494 83.0332 40.2332C82.6667 40.6295 82.4436 41.1356 82.3992 41.6717C82.0897 43.0503 81.8179 44.4439 81.5537 45.8374C81.433 46.4668 81.3726 47.1036 81.282 47.733C81.282 47.8454 81.282 47.9502 81.2442 48.0551C80.7989 49.6959 80.5724 51.3967 80.0818 53.03C79.9468 53.5461 79.8385 54.0688 79.7572 54.5959C79.7434 54.6659 79.7147 54.7322 79.673 54.7903C79.6314 54.8484 79.5777 54.8971 79.5156 54.933C79.3053 54.768 79.0613 54.6504 78.8007 54.5883C78.54 54.5262 78.2688 54.5211 78.006 54.5734C77.1077 54.8056 76.217 54.4985 75.3867 54.6558C75.308 54.5915 75.2478 54.5078 75.212 54.4131C75.1763 54.3185 75.1662 54.2161 75.1828 54.1164C75.1828 51.9961 75.2432 49.8758 75.2734 47.7555C75.2734 47.6506 75.2734 47.5382 75.2734 47.4333C75.4078 46.1888 75.423 44.9345 75.3187 43.6872C75.2508 42.7207 75.2206 41.7542 75.1979 40.7877C75.1979 39.5964 75.1979 38.4126 75.1526 37.2289C75.1526 36.9067 75.1074 36.5845 75.0847 36.2624C75.0361 35.907 75.0059 35.5494 74.9941 35.191C75.0319 33.3554 74.7752 31.5347 74.7299 29.6992C74.7415 29.5946 74.7415 29.4891 74.7299 29.3845C74.5993 28.7842 74.5435 28.1702 74.5639 27.5564C74.53 26.9474 74.439 26.3429 74.2921 25.7507C74.286 25.7237 74.2744 25.6982 74.258 25.6758C74.2415 25.6534 74.2206 25.6346 74.1966 25.6205C74.1725 25.6065 74.1458 25.5975 74.1181 25.5941C74.0904 25.5907 74.0623 25.593 74.0355 25.6009C73.877 25.7283 73.9223 25.9156 73.9223 26.0879C73.9592 27.5877 73.9139 29.0883 73.7864 30.5832C73.7602 30.9049 73.7602 31.2281 73.7864 31.5497C73.7864 31.8719 73.8543 32.1941 73.8543 32.5162C73.8543 35.4682 73.9223 38.4126 73.96 41.3571C73.941 41.644 73.941 41.9318 73.96 42.2187C74.1185 44.0454 74.1336 45.8815 74.0053 47.7105C73.9751 48.6995 73.9751 49.651 73.9223 50.6175C73.9223 51.7338 73.9223 52.8652 73.877 53.959C73.8941 54.0649 73.8882 54.1732 73.8595 54.2766C73.8309 54.38 73.7802 54.4761 73.7109 54.5584C73.6224 54.6241 73.5194 54.6679 73.4104 54.6861C73.3015 54.7044 73.1897 54.6965 73.0844 54.6633C72.0774 54.5245 71.053 54.5754 70.065 54.8131C69.0338 55.0055 67.9888 55.1158 66.94 55.1428C66.9347 54.8913 66.9575 54.6401 67.0079 54.3936C67.1247 54.0561 67.1834 53.7015 67.1815 53.3447C67.1815 48.9692 67.1815 44.5987 67.1815 40.2332C67.1815 39.7313 67.4004 39.2667 67.4004 38.7348C67.4004 34.7414 67.4004 30.7406 67.4004 26.7472C67.4308 26.5335 67.4308 26.3166 67.4004 26.1029C67.2681 25.5501 67.1947 24.9851 67.1815 24.4171C67.2128 23.8101 67.1722 23.2016 67.0607 22.604C66.9813 22.0382 66.951 21.4667 66.9701 20.8958C66.9889 20.4669 66.9431 20.0376 66.8343 19.6221C66.7961 19.4857 66.7808 19.3439 66.789 19.2025C66.7203 17.5645 66.5107 15.9352 66.1625 14.3326C66.0604 13.7601 66.0604 13.1743 66.1625 12.6019L66.7437 11.7328C67.2134 11.4477 67.7218 11.2308 68.2534 11.0884C69.6347 10.6988 70.9935 10.2343 72.3597 9.79976C72.3995 9.93919 72.4248 10.0823 72.4352 10.2268C72.4327 11.6588 72.5133 13.0897 72.6768 14.5124C72.7975 15.4339 72.8353 16.3705 72.9636 17.292C73.085 18.2159 73.3026 19.1248 73.6128 20.0042C73.6656 20.1316 73.6807 20.3488 73.9751 20.3189C73.9751 19.9293 73.9751 19.5322 73.9751 19.1351C73.9751 17.779 73.9751 16.4154 73.9223 15.0518C73.9223 14.0853 73.7713 13.1263 73.7637 12.1598C73.7637 9.07301 73.7637 5.9937 73.7185 2.9069C73.7185 2.33749 73.7637 1.76808 73.7864 1.19118C74.0279 1.10876 74.2619 1.03384 74.4959 0.943934C75.0211 0.693785 75.5968 0.565673 76.1792 0.569322C76.6921 0.555556 77.2003 0.469793 77.6889 0.314586C78.4335 0.163113 79.1949 0.110207 79.9535 0.157248C80.9197 0.441954 81.75 0.906473 81.8179 1.97786C82.1299 2.22321 82.4897 2.40177 82.8747 2.50232C83.3735 2.72274 83.815 3.05331 84.1655 3.46882C84.344 3.65081 84.4731 3.87488 84.5404 4.11996C84.6077 4.36504 84.6112 4.62309 84.5505 4.86987C84.1655 6.29339 84.1202 7.76936 83.7956 9.20038C83.6763 9.79705 83.5906 10.3999 83.539 11.006C83.539 11.2008 83.4333 11.4181 83.6144 11.5904C83.6656 11.5453 83.7089 11.4921 83.7428 11.4331C83.9692 10.8337 84.1881 10.2268 84.3995 9.61246C84.8448 8.32379 85.2751 7.02763 85.728 5.74646C85.8488 5.33404 86.1172 4.97965 86.4829 4.74999C87.631 4.87994 88.7703 5.07759 89.8947 5.34188C89.9896 5.47964 90.0494 5.63814 90.0691 5.80383C90.0888 5.96952 90.0678 6.13749 90.008 6.29339C89.8042 7.41723 89.5702 8.54106 89.3437 9.6649C89.1475 10.6464 88.9512 11.6279 88.7474 12.6094C88.4983 13.8381 88.2416 15.0668 87.9925 16.2955C87.5849 18.2585 87.1798 20.2215 86.7772 22.1844C86.513 23.4806 86.2489 24.7842 86.0224 26.0804C85.7356 27.1368 85.5695 28.2007 85.3959 29.2571ZM71.7106 34.5766C71.8133 34.5616 71.9084 34.5141 71.9818 34.4413C72.0553 34.3684 72.1031 34.274 72.1182 34.172C72.1409 33.8853 72.1409 33.5972 72.1182 33.3104C72.1182 32.2315 72.0276 31.1601 71.9521 30.0887C71.8464 28.5903 71.8464 27.1443 71.7559 25.6758C71.6426 23.8477 71.6577 22.0196 71.4992 20.1915C71.4162 19.1875 71.2803 18.1911 71.152 17.1946C71.1092 16.8757 71.0436 16.5602 70.9557 16.2506C70.9374 16.1608 70.8846 16.0817 70.8085 16.03C70.7324 15.9782 70.639 15.9579 70.5481 15.9734C70.2537 16.333 70.2386 16.333 70.2386 16.4978C70.2195 16.9653 70.2347 17.4336 70.2839 17.8989C70.3994 18.8259 70.4548 19.7594 70.45 20.6935C70.4384 21.1235 70.4536 21.5539 70.4953 21.9821C70.5969 22.659 70.6348 23.3437 70.6085 24.0275C70.6085 26.7622 70.7897 29.4819 70.8953 32.2091C70.9362 32.7829 71.0144 33.3535 71.1293 33.9173C71.1522 34.071 71.2192 34.2149 71.3223 34.3318C71.4253 34.4487 71.5601 34.5337 71.7106 34.5766ZM83.388 12.497C83.4148 12.4752 83.4365 12.4478 83.4513 12.4167C83.4662 12.3856 83.4739 12.3516 83.4739 12.3172C83.4739 12.2827 83.4662 12.2488 83.4513 12.2177C83.4365 12.1866 83.4148 12.1591 83.388 12.1373C83.3592 12.1568 83.3351 12.1824 83.3176 12.2123C83.3 12.2422 83.2894 12.2755 83.2865 12.31C83.2836 12.3445 83.2885 12.3791 83.3009 12.4115C83.3132 12.4438 83.3326 12.473 83.3578 12.497H83.388Z" fill="#B3CF9C"/>
<path d="M30.087 18.5221C30.1986 18.3878 30.2996 18.245 30.3889 18.0951C30.9367 16.9466 31.5648 15.8375 32.2685 14.776C32.3324 14.6517 32.383 14.5212 32.4195 14.3864L34.5708 11.1648C35.1651 10.2681 35.8479 9.43237 36.6089 8.66984C37.2958 7.98055 37.96 7.27628 38.5564 6.65442C38.6353 6.60831 38.7252 6.58398 38.8168 6.58398C38.9084 6.58398 38.9983 6.60831 39.0772 6.65442C39.1222 6.70812 39.158 6.76889 39.1829 6.83424C39.2276 6.96455 39.2654 7.09709 39.2961 7.23133C39.1074 7.19387 39.0848 7.34371 39.0319 7.46359C38.2771 8.44507 37.5222 9.40408 36.7674 10.3481C35.7191 11.702 34.7825 13.1377 33.9669 14.6412C33.7405 15.0532 33.5216 15.4653 33.2574 15.8549C32.3354 17.3131 31.5059 18.827 30.7739 20.3877C30.0191 21.9236 29.4001 23.5494 28.7434 25.1378C27.939 27.0995 27.283 29.118 26.7808 31.1765C26.4411 32.5326 26.1014 33.8887 25.7844 35.2523C25.6334 35.9116 25.5504 36.5934 25.4372 37.2602C25.3541 37.7547 25.2787 38.2492 25.173 38.7587C25.1458 38.9745 25.038 39.1723 24.871 39.3131C24.7659 39.3866 24.6374 39.4196 24.5096 39.4058C24.3817 39.392 24.2633 39.3324 24.1766 39.2382C24.1014 39.1595 24.0469 39.0637 24.0179 38.9591C23.989 38.8546 23.9864 38.7446 24.0105 38.6388C24.1539 37.8221 24.3125 37.013 24.4559 36.2038C24.8861 33.7988 25.5051 31.4462 26.0486 29.0712C26.3797 27.7107 26.8034 26.374 27.3167 25.0704C27.8502 23.6618 28.4138 22.2633 29.0076 20.8747C29.3095 20.0655 29.7096 19.3013 30.087 18.5221Z" fill="#5F4D45"/>
<path d="M5.59339 39.9566C4.83855 38.0461 4.26487 36.0981 3.54776 34.1801C2.5552 31.6824 1.79714 29.0991 1.28323 26.4631C1.07943 25.3767 0.815231 24.2978 0.62652 23.2264C0.435741 22.0977 0.304722 20.9598 0.234002 19.8174C0.210906 19.1999 0.132598 18.5856 0 17.9818C0.0453186 17.556 0.0453186 17.1265 0 16.7007C0 16.4459 0 16.1987 0.0452906 15.9514C0.0560837 15.8629 0.0876619 15.7782 0.137483 15.704C0.187304 15.6298 0.253976 15.5683 0.332131 15.5244C0.406747 15.4778 0.493092 15.4531 0.58123 15.4531C0.669367 15.4531 0.755713 15.4778 0.830328 15.5244C1.17001 15.8316 1.06433 16.1687 1.23794 16.4085C1.29953 17.5892 1.43313 18.7651 1.63801 19.9298C1.74369 20.6791 1.75879 21.3608 1.87201 22.0726C2.09846 23.4886 2.4004 24.8897 2.69479 26.2982C2.90615 27.3172 3.1326 28.3286 3.41189 29.2951C3.88744 30.9884 4.49887 32.6367 5.09519 34.2925C5.72926 36.0906 6.2652 37.9187 6.83888 39.7318C6.95499 40.1516 6.97561 40.5918 6.89927 41.0205C6.86551 41.1007 6.81298 41.1717 6.74603 41.2278C6.67908 41.2838 6.59964 41.3232 6.5143 41.3427C6.13227 40.9343 5.82109 40.4659 5.59339 39.9566Z" fill="#5F4D45"/>
<path d="M61.0893 22.275C60.4691 23.0707 59.9494 23.9387 59.5418 24.8598C58.9961 25.6648 58.5405 26.5265 58.1831 27.4296C57.6472 28.5609 57.1565 29.7222 56.6281 30.8611C55.6394 33.053 54.7923 35.3053 54.0919 37.6041C53.5333 39.3498 52.9294 41.073 52.3331 42.8037C52.2969 42.958 52.2302 43.1037 52.1369 43.2323C52.0436 43.3609 51.9256 43.4699 51.7896 43.5529L51.5329 43.4555C51.4443 42.8266 51.488 42.1863 51.6613 41.575C52.084 40.2039 52.4161 38.8103 52.9294 37.4617C53.3068 36.4952 53.5635 35.4838 53.873 34.4648C54.4163 32.8293 55.0591 31.2281 55.7978 29.6698C56.4017 28.3287 56.9905 26.9726 57.6547 25.6615C58.2058 24.5676 58.8247 23.5187 59.4513 22.4623C59.9645 21.6007 60.5382 20.769 61.0742 19.9224C61.5117 19.2185 62.0174 18.5585 62.5839 17.9519C62.6728 17.888 62.7798 17.8535 62.8896 17.8535C62.9994 17.8535 63.1064 17.888 63.1953 17.9519L63.3236 18.2067C63.2448 18.5938 63.0682 18.9548 62.8103 19.2556C62.3121 20.0722 61.7988 20.8814 61.3006 21.6981C61.1669 21.8613 61.0924 22.0646 61.0893 22.275Z" fill="#5F4D45"/>
<path d="M60.1534 15.2087C59.7731 15.7251 59.4444 16.2772 59.1721 16.857C58.6083 17.7757 58.1041 18.7292 57.6624 19.7115C57.3454 20.4607 56.8623 21.1575 56.5226 21.9067C55.652 23.7848 54.8091 25.6554 53.9939 27.5184C53.1334 29.5264 52.3031 31.5567 51.4652 33.5797C51.2312 34.1416 51.0274 34.7185 50.7858 35.2804C50.7103 35.4602 50.665 35.7 50.3858 35.7824C50.1668 35.5876 50.2423 35.3179 50.2801 35.1006C50.4107 34.0676 50.6485 33.0507 50.9896 32.0662C51.435 30.9274 51.8502 29.8186 52.3106 28.6498C53.0654 26.7842 53.8203 24.9036 54.5751 23.0755C55.0527 21.8739 55.61 20.7051 56.2433 19.5767C56.6341 18.9718 56.9389 18.3163 57.1492 17.6287C57.2926 17.6287 57.3454 17.5463 57.353 17.4189L58.7117 15.2461C58.9992 14.7526 59.3843 14.3219 59.8439 13.98C59.9804 13.8568 60.1577 13.7875 60.3421 13.7852C60.4027 13.8021 60.4586 13.8324 60.5056 13.8739C60.5527 13.9154 60.5896 13.967 60.6136 14.0247C60.6376 14.0824 60.648 14.1448 60.6441 14.2072C60.6403 14.2695 60.6222 14.3302 60.5912 14.3845C60.4856 14.6543 60.3044 14.924 60.1534 15.2087Z" fill="#5F4D45"/>
<path d="M73.7177 1.19127C73.7177 1.76817 73.6497 2.33758 73.6497 2.90699C73.6497 5.99379 73.6497 9.0731 73.695 12.1599C73.695 13.1264 73.8309 14.0854 73.8535 15.0519C73.8535 16.4155 73.8535 17.7791 73.9064 19.1352C73.9064 19.5323 73.9064 19.9294 73.9064 20.319C73.612 20.319 73.5969 20.1316 73.5441 20.0043C73.2339 19.1249 73.0163 18.216 72.8949 17.2921C72.7666 16.3705 72.7288 15.434 72.6081 14.5125C72.4446 13.0897 72.364 11.6588 72.3665 10.2269C72.3561 10.0824 72.3308 9.93928 72.291 9.79985C72.291 8.80338 72.3439 7.80691 72.3665 6.80295C72.3665 5.16215 72.4118 3.52135 72.5703 1.88804C72.6083 1.42342 72.7046 0.965335 72.8571 0.524457C72.9169 0.304718 73.0603 0.116642 73.2572 0L73.529 0.0374612C73.7705 0.404581 73.6271 0.816654 73.7177 1.19127Z" fill="#5F4D45"/>
<path d="M56.742 17.5467C56.6616 17.5795 56.5723 17.5833 56.4894 17.5572C56.4066 17.5312 56.3357 17.4771 56.2891 17.4044C56.3705 17.3858 56.4554 17.3892 56.5351 17.4143C56.6147 17.4393 56.6861 17.485 56.742 17.5467Z" fill="#CEE4CA"/>
<path d="M57.3679 17.3965C57.3679 17.5239 57.3075 17.6063 57.1641 17.6063C57.1701 17.5539 57.1933 17.505 57.2302 17.4671C57.267 17.4292 57.3154 17.4044 57.3679 17.3965Z" fill="#CEE4CA"/>
<path d="M66.9471 55.1439C67.996 55.1169 69.041 55.0067 70.0721 54.8143C71.0602 54.5765 72.0845 54.5257 73.0915 54.6644C73.1968 54.6977 73.3086 54.7055 73.4176 54.6873C73.5265 54.669 73.6295 54.6252 73.718 54.5595C73.7873 54.4773 73.838 54.3812 73.8666 54.2778C73.8953 54.1744 73.9012 54.0661 73.8841 53.9602C73.8841 52.8438 73.8841 51.7125 73.9294 50.6186C73.9294 49.6521 74.0124 48.6781 74.0577 47.7116C74.1735 45.8817 74.1457 44.0455 73.9747 42.2198C73.9557 41.9329 73.9557 41.6451 73.9747 41.3582C73.9747 38.4138 73.9067 35.4693 73.869 32.5174C73.869 32.1952 73.8237 31.873 73.8011 31.5509C73.7748 31.2292 73.7748 30.906 73.8011 30.5844C73.9286 29.0895 73.9739 27.5888 73.9369 26.089C73.9369 25.9167 73.8916 25.7294 74.0502 25.602C74.0769 25.5942 74.105 25.5919 74.1328 25.5953C74.1605 25.5986 74.1872 25.6076 74.2112 25.6217C74.2353 25.6357 74.2562 25.6545 74.2726 25.6769C74.2891 25.6993 74.3007 25.7248 74.3068 25.7519C74.4537 26.3441 74.5446 26.9486 74.5786 27.5575C74.5551 28.1632 74.6058 28.7695 74.7295 29.3631C74.7411 29.4677 74.7411 29.5732 74.7295 29.6778C74.7748 31.5134 75.0315 33.334 74.9937 35.1696C75.0054 35.5281 75.0357 35.8857 75.0843 36.241C75.0843 36.5632 75.1447 36.8854 75.1522 37.2075C75.1522 38.3913 75.1522 39.5751 75.1975 40.7663C75.1975 41.7328 75.2504 42.6993 75.3183 43.6658C75.4226 44.9132 75.4074 46.1675 75.273 47.412C75.273 47.5168 75.273 47.6292 75.273 47.7341C75.273 49.8544 75.2051 51.9747 75.1824 54.095C75.1658 54.1948 75.1759 54.2971 75.2116 54.3918C75.2474 54.4865 75.3076 54.5702 75.3862 54.6345C76.2166 54.4771 77.1073 54.7843 78.0055 54.5521C78.2684 54.4998 78.5396 54.5049 78.8002 54.567C79.0609 54.6291 79.3049 54.7467 79.5152 54.9117C79.5403 55.0606 79.5302 55.2132 79.4856 55.3575C79.4411 55.5018 79.3634 55.6339 79.2586 55.7433C78.5619 55.8729 77.8536 55.9306 77.145 55.9156C75.6353 55.8257 74.186 55.8632 72.7065 55.8033C71.66 55.813 70.6156 55.8982 69.5815 56.058C69.3324 56.058 69.0757 56.1404 68.8266 56.1479C67.5208 56.1479 66.2451 56.4101 64.9467 56.53C64.0552 56.6698 63.1489 56.6899 62.252 56.5899L62.3501 56.2004C63.1139 55.8711 63.9277 55.6711 64.758 55.6085C65.3598 55.5312 65.9535 55.4009 66.5319 55.2189L66.9471 55.1439Z" fill="#5F4D45"/>
<path d="M15.6471 67.0102C15.6771 66.4265 15.5872 65.8428 15.383 65.2945C15.2622 64.4704 15.1414 63.6387 15.0131 62.8146C14.9835 62.547 14.8904 62.2902 14.7413 62.0654C14.5979 61.3161 14.462 60.6418 14.3262 59.9301C14.4168 59.7128 14.4092 59.4131 14.7866 59.3906C14.8653 59.4435 14.9342 59.5094 14.9904 59.5854C15.709 60.9126 16.2037 62.3476 16.4548 63.8335C16.7115 65.2046 16.9455 66.5832 17.2097 67.9542C17.2564 68.1306 17.3222 68.3014 17.4059 68.4637C17.8615 68.5798 18.3393 68.5798 18.7948 68.4637L23.3239 67.8569C23.9278 67.7669 24.5317 67.6621 25.128 67.5422C25.4325 67.4591 25.75 67.4337 26.064 67.4673C26.1555 67.4933 26.2402 67.539 26.3119 67.6012C26.3837 67.6633 26.4408 67.7404 26.4792 67.8269C26.5228 67.9268 26.5408 68.0359 26.5316 68.1444C26.5223 68.2529 26.4862 68.3575 26.4263 68.4487C26.3508 68.5686 26.2678 68.681 26.1848 68.8009C25.3889 69.046 24.5691 69.2068 23.7391 69.2804C22.6068 69.4902 21.4745 69.6475 20.3196 69.8348C19.824 69.941 19.3156 69.9763 18.8099 69.9397C18.3413 69.9274 17.8723 69.9449 17.4059 69.9921C16.6058 69.9921 16.2812 69.7599 16.1152 69.0032C15.9491 68.2464 15.7906 67.677 15.6471 67.0102Z" fill="#5F4D45"/>
<path d="M22.4273 59.5927H22.148C21.943 59.4236 21.813 59.1815 21.7857 58.9184C21.673 58.2845 21.6049 57.6436 21.5819 57.0004C21.5819 52.8272 21.5819 48.6615 21.5215 44.4883C21.5215 42.9899 21.6725 41.4914 21.7857 39.993C21.8536 39.0265 22.0499 38.075 22.1933 37.116C22.3367 36.1569 22.4726 35.3478 22.6009 34.4562C22.8198 32.8978 23.1897 31.3544 23.5596 29.826C23.7332 29.0768 23.937 28.365 24.1181 27.6308C24.2665 27.0059 24.5357 26.4156 24.9107 25.8926C25.3033 26.0424 25.4089 26.1623 25.3712 26.4095C25.2882 26.9415 25.2051 27.4734 25.0994 27.9979C24.7749 29.5413 24.4125 31.0772 24.1106 32.6281C23.8615 33.8943 23.6652 35.168 23.469 36.4491C23.2727 37.7303 23.0991 39.0714 22.9104 40.3901C22.9104 40.6373 22.8349 40.8846 22.8198 41.1393C22.5632 44.5857 22.5103 48.0322 22.533 51.4786C22.533 53.494 22.5783 55.5019 22.616 57.5173C22.616 57.8395 22.6915 58.1542 22.7141 58.4763C22.754 58.6718 22.7489 58.8738 22.6992 59.067C22.6496 59.2603 22.5566 59.44 22.4273 59.5927Z" fill="#5F4D45"/>
<path d="M16.4481 44.2412C15.8895 44.3536 15.6932 44.3012 15.5423 44.0165C15.4159 43.7202 15.305 43.4176 15.2101 43.1099C14.561 41.0196 13.8967 38.9367 13.2626 36.8389C12.9758 35.8799 12.7418 34.9059 12.5078 33.9244C12.1555 32.4609 11.8108 30.9974 11.4737 29.534C10.9377 27.1514 10.4018 24.7764 9.89603 22.3939C9.74506 21.6971 9.67712 20.9778 9.5639 20.2661C9.51861 19.9888 9.45067 19.7041 9.40538 19.4269C9.34144 19.2219 9.34144 19.0026 9.40538 18.7976L9.65448 18.7227C9.74958 18.8157 9.83091 18.9216 9.89603 19.0373C10.0805 19.5054 10.2393 19.9832 10.3716 20.4683C10.7716 22.0342 11.1264 23.6001 11.5189 25.1735C11.9115 26.7468 12.2738 28.2303 12.6663 29.7662C13.089 31.5044 13.4664 33.2576 13.9269 35.0108C14.3194 36.4643 14.8025 37.8953 15.2328 39.3338C15.6253 40.6075 15.9876 41.8812 16.3877 43.1474C16.5172 43.4979 16.5382 43.8788 16.4481 44.2412Z" fill="#5F4D45"/>
<path d="M34.1794 39.9564C33.9794 40.2786 33.8317 40.63 33.7416 40.9978C33.6529 41.2886 33.4828 41.5485 33.251 41.747C33.1325 41.7424 33.0167 41.7102 32.9131 41.6529C32.8095 41.5956 32.721 41.5149 32.6546 41.4174C32.5384 40.9815 32.5622 40.5205 32.7226 40.0987C33.1662 38.5815 33.7525 37.1091 34.4738 35.7008C35.1381 34.4646 35.6816 33.1684 36.2552 31.8872C37.2549 29.5381 38.4889 27.2943 39.9389 25.1892C40.1502 25.1442 40.3616 25.0543 40.5579 25.2941C40.5806 25.3876 40.5806 25.4852 40.5579 25.5788C40.4556 25.8357 40.3371 26.0859 40.2031 26.328C39.1689 28.3059 38.2707 30.3438 37.4404 32.4117C36.9573 33.6104 36.3609 34.7568 35.7948 35.918C35.1461 37.2181 34.6059 38.5687 34.1794 39.9564Z" fill="#5F4D45"/>
<path d="M10.0548 30.6592C10.2209 30.5768 10.3643 30.5693 10.4624 30.7042C10.5969 30.8684 10.7086 31.0499 10.7945 31.2436C10.9304 31.5808 11.0285 31.9254 11.1418 32.2626C11.6324 33.806 12.0627 35.3643 12.6514 36.8703C13.5648 39.2903 14.3121 41.7552 15.2028 44.1827C15.3915 44.6847 15.6255 45.1717 15.8142 45.6812C15.9501 46.0558 15.8142 46.2506 15.3538 46.4903C15.1773 46.4585 15.0132 46.3786 14.8799 46.2596C14.7466 46.1405 14.6493 45.9869 14.5989 45.816C14.3649 45.2541 14.1385 44.6847 13.9347 44.1078C13.5573 43.0289 13.1798 41.935 12.8251 40.8487C12.508 39.9346 12.1457 39.0355 11.8438 38.1215C11.1644 36.1136 10.5681 34.0907 10.0925 32.0228C9.94676 31.5816 9.93364 31.1077 10.0548 30.6592Z" fill="#5F4D45"/>
<path d="M39.0625 7.49203C39.1153 7.37215 39.138 7.2223 39.3267 7.25976C39.304 7.37964 39.1833 7.42459 39.0625 7.49203Z" fill="#F4F0E9"/>
<path d="M55.1044 19.7581C55.0622 19.9179 55.0119 20.0754 54.9534 20.2301C54.3722 21.7286 53.7683 23.1521 53.0739 24.5756C52.8852 24.9577 52.7493 25.3773 52.5832 25.7744C51.9718 27.2279 51.4132 28.6964 50.915 30.2023C50.5074 31.4235 49.9715 32.5998 49.4808 33.7986C49.3148 34.1882 49.111 34.2406 48.6052 34.0983C48.5272 33.9584 48.4863 33.8011 48.4863 33.6412C48.4863 33.4814 48.5272 33.3241 48.6052 33.1842C48.9524 32.2776 49.2997 31.3711 49.6695 30.4795C49.8367 30.0828 49.9828 29.6776 50.1074 29.2658C50.3103 28.5404 50.5625 27.8295 50.8622 27.138C51.1943 26.3887 51.4736 25.6395 51.7756 24.8379C51.7756 24.7704 51.8209 24.6955 51.851 24.6356C52.6059 23.1371 53.2701 21.6387 54.1156 20.2451C54.2484 20.0333 54.4082 19.8393 54.5911 19.6682C54.7421 19.5333 54.9233 19.5333 55.1044 19.7581Z" fill="#5F4D45"/>
<path d="M71.7097 34.5764C71.5677 34.5264 71.4424 34.4383 71.3478 34.3219C71.2532 34.2055 71.1929 34.0654 71.1737 33.9171C71.0489 33.3564 70.9607 32.7883 70.9095 32.2163C70.8038 29.4892 70.6 26.7695 70.6227 24.0348C70.649 23.351 70.6111 22.6663 70.5095 21.9894C70.4677 21.5612 70.4526 21.1308 70.4642 20.7008C70.469 19.7667 70.4136 18.8332 70.2981 17.9062C70.2477 17.4334 70.2326 16.9576 70.2528 16.4826C70.2528 16.3178 70.2528 16.3178 70.5623 15.9582C70.6532 15.9427 70.7466 15.963 70.8227 16.0148C70.8988 16.0665 70.9516 16.1457 70.9699 16.2354C71.0577 16.5624 71.1208 16.8955 71.1586 17.2319C71.2869 18.2283 71.4228 19.2248 71.5059 20.2288C71.6644 22.0569 71.6493 23.885 71.7625 25.7131C71.8531 27.2115 71.8531 28.6575 71.9588 30.126C72.0342 31.1974 72.1248 32.2688 72.1248 33.3477C72.1476 33.6344 72.1476 33.9225 72.1248 34.2093C72.1022 34.3055 72.0501 34.3923 71.9758 34.4581C71.9015 34.5238 71.8085 34.5651 71.7097 34.5764Z" fill="#5F4D45"/>
<path d="M83.3574 12.4983C83.3305 12.4765 83.3089 12.4491 83.294 12.418C83.2792 12.3869 83.2715 12.3529 83.2715 12.3185C83.2715 12.2841 83.2792 12.2501 83.294 12.219C83.3089 12.1879 83.3305 12.1605 83.3574 12.1387C83.3842 12.1605 83.4059 12.1879 83.4207 12.219C83.4356 12.2501 83.4433 12.2841 83.4433 12.3185C83.4433 12.3529 83.4356 12.3869 83.4207 12.418C83.4059 12.4491 83.3842 12.4765 83.3574 12.4983Z" fill="#F4F0E9"/>
</g>
<defs>
<clipPath id="clip0">
<rect width="90" height="70" fill="white"/>
</clipPath>
</defs>
</svg>
