<svg width="66" height="96" viewBox="0 0 66 96" fill="none" xmlns="http://www.w3.org/2000/svg">
<g clip-path="url(#clip0)">
<path d="M4.39733 51.4374C4.70944 50.4506 5.106 49.4921 5.58267 48.5726L6.41241 47.1579C6.75616 47.1579 7.08806 47.1579 7.43181 47.1579C8.78747 47.2739 10.1529 47.1945 11.4857 46.9221C11.7099 46.8923 11.9371 46.8923 12.1613 46.9221C12.837 46.9221 13.5126 46.8396 14.1883 46.8514C14.9879 46.7932 15.781 46.667 16.559 46.4742C16.8927 46.4134 17.2062 46.2716 17.4717 46.0615C18.0817 45.6488 18.6602 45.1917 19.2023 44.694C20.75 43.2099 22.1293 41.5613 23.3154 39.7779C23.6236 39.3181 23.9318 38.8465 24.2519 38.3867C25.929 38.4242 27.5894 38.7266 29.171 39.2827L30.7712 39.7425C31.4788 40.3269 32.3454 40.6881 33.2605 40.7799C33.9639 41.2055 34.716 41.5459 35.5008 41.7938C35.552 41.7997 35.6037 41.7997 35.6549 41.7938C35.6574 41.886 35.6937 41.9741 35.757 42.0414C35.8204 42.1087 35.9063 42.1507 35.9986 42.1593C36.247 42.3838 36.5125 42.5887 36.7928 42.7723C37.6622 43.3282 38.4585 43.9895 39.1635 44.7411C39.4835 45.0594 39.8036 45.3778 40.1355 45.6843C40.2734 45.7806 40.4202 45.8635 40.5741 45.9318C40.761 46.4016 41.021 46.8392 41.3445 47.2287C42.3132 48.465 43.1105 49.825 43.7152 51.2724C44.0161 52.1018 44.414 52.8932 44.9006 53.6302C45.1669 54.5233 45.512 55.3912 45.9318 56.2239C45.9929 56.3144 46.0645 56.3975 46.1452 56.4715C46.1452 56.6837 46.1452 56.9077 46.24 57.1199C46.4178 57.8626 46.6193 58.6053 46.809 59.348C46.809 59.348 46.8801 59.4306 46.9157 59.4777C46.9649 60.8679 47.1275 62.2517 47.4016 63.6157C47.3773 64.0083 47.3773 64.4021 47.4016 64.7947C47.5025 65.593 47.5065 66.4004 47.4135 67.1997C47.2713 69.0152 46.726 70.7365 46.4297 72.5166C46.2993 73.2947 46.0978 74.0492 45.9318 74.8745C45.4922 76.921 44.6894 78.8731 43.5611 80.6394C43.4197 80.8855 43.2969 81.1416 43.1937 81.4058C42.6143 81.9343 42.0937 82.5232 41.6409 83.1623C40.7839 84.2908 39.6656 85.1967 38.3812 85.8031C36.9549 86.6203 35.3636 87.1116 33.7228 87.2414C33.6102 87.2486 33.4989 87.2683 33.3909 87.3004C32.2819 87.5419 31.1335 87.5419 30.0245 87.3004C29.7485 87.2354 29.4664 87.1998 29.1829 87.1943C28.1697 87.1243 27.1655 86.9585 26.184 86.6991C24.4238 86.2864 22.6995 85.7345 21.0277 85.0486C19.5934 84.4945 18.254 83.7754 16.8672 83.127L14.4965 81.2643C13.5245 80.4862 12.5525 79.7081 11.6161 78.9064C8.97451 76.6686 6.90297 73.8407 5.57082 70.6539C4.82708 68.7543 4.19385 66.8138 3.67427 64.8418C3.24052 63.2653 3.08807 61.6253 3.22383 59.9964C3.56026 60.0315 3.89927 59.9605 4.19284 59.7933C4.48641 59.6262 4.71968 59.3714 4.85961 59.0651C5.00711 58.766 5.1377 58.459 5.25077 58.1455V55.3279C5.32417 54.3374 5.29637 53.342 5.1678 52.357L4.39733 51.4374ZM14.2238 52.4631C14.0274 53.5427 14.1467 54.6557 14.5676 55.6698C14.8758 56.6365 15.2077 57.5914 15.5633 58.5464C15.7418 59.2936 16.0952 59.9883 16.5945 60.5741L17.851 60.975C18.3683 60.8638 18.838 60.5952 19.1948 60.2065C19.5517 59.8178 19.778 59.3282 19.8424 58.8057C19.2378 56.5893 18.1118 54.538 17.7087 52.3334C17.3375 51.8713 16.8512 51.5137 16.2982 51.296C15.9406 51.1756 15.5501 51.1967 15.2077 51.3549C14.8081 51.6548 14.4735 52.0317 14.2238 52.4631ZM37.5633 80.7573C37.9379 81.08 38.3788 81.3174 38.8553 81.4529H39.8391C40.3231 81.1595 40.7295 80.7553 41.0245 80.274C41.0544 80.0125 41.0979 79.7528 41.1549 79.4959C41.226 79.1658 41.3564 78.8475 41.4038 78.5174C41.5093 76.7623 41.5093 75.0026 41.4038 73.2476C41.1229 72.7554 40.7133 72.348 40.2184 72.0686H39.0331L37.9307 72.5049L37.3855 73.613C37.4401 75.1917 37.3329 76.7717 37.0654 78.3288C36.956 79.15 37.1139 79.9846 37.5159 80.7102L37.5633 80.7573ZM32.1937 66.6102C32.2772 65.9052 32.2126 65.1906 32.004 64.5117C31.4527 62.8542 30.7463 61.2517 29.8941 59.7253C29.6792 59.2605 29.2993 58.891 28.8273 58.6878C28.3427 58.586 27.8421 58.586 27.3575 58.6878C26.9958 58.885 26.7055 59.1901 26.5277 59.5602C26.3369 60.7391 26.5105 61.9477 27.0256 63.0263C27.476 64.2052 27.8672 65.4549 28.3294 66.681C28.6359 67.1279 29.0415 67.499 29.5148 67.7656C30.0598 67.8532 30.6173 67.8251 31.1506 67.683C31.5559 67.3765 31.8946 66.9915 32.1463 66.5513L32.1937 66.6102ZM25.8165 45.0359C25.7246 45.558 25.7737 46.095 25.9587 46.592C26.294 47.5812 26.7309 48.5333 27.2626 49.4333C27.6216 50.0037 27.9233 50.6079 28.1635 51.237C28.2942 51.7358 28.5676 52.1862 28.9505 52.5336C29.3334 52.8809 29.8094 53.1103 30.3208 53.194C30.9385 53.1043 31.5005 52.7891 31.8973 52.3098C31.9938 52.1703 32.0809 52.0246 32.1581 51.8736V50.5179C31.435 49.1032 30.8068 47.6531 29.9534 46.3091C29.2575 45.2326 28.1915 44.4448 26.9544 44.0927C26.7037 44.1444 26.4674 44.2504 26.2626 44.4033C26.0577 44.5561 25.8892 44.752 25.7691 44.9769L25.8165 45.0359ZM25.698 77.1145C25.0066 75.99 24.086 75.0221 22.9954 74.2732H21.9286C21.7023 74.3706 21.4984 74.5128 21.3292 74.6912C21.16 74.8695 21.0292 75.0803 20.9447 75.3107V76.4896C21.2664 77.5925 21.8421 78.6057 22.626 79.4488C23.4099 80.2919 24.3805 80.9417 25.4609 81.3468C25.9565 81.4578 26.4707 81.4578 26.9663 81.3468C27.4311 81.0601 27.8082 80.6524 28.0568 80.1679C28.1015 79.8459 28.0759 79.5182 27.9818 79.2069C27.8877 78.8957 27.7273 78.6082 27.5116 78.3641L25.698 77.1145ZM39.3887 53.3355C39.3887 54.4555 39.3887 55.3515 39.3887 56.2475C39.3887 57.1434 39.8866 58.0984 39.768 58.9C39.8588 59.4084 40.1022 59.8775 40.4661 60.2457C40.83 60.614 41.2974 60.8641 41.8068 60.9632L42.9922 60.5741C43.4198 60.2069 43.7221 59.7167 43.8575 59.1712C43.866 58.8463 43.8341 58.5216 43.7626 58.2045C43.6458 57.82 43.5664 57.4252 43.5256 57.0255C43.4189 56.2003 43.3004 55.3633 43.1344 54.538C43.0078 54.1004 42.8534 53.6712 42.6721 53.253L42.0202 52.6517C41.4906 52.5233 40.9377 52.5233 40.4081 52.6517L40.0169 52.8404L39.3887 53.3355ZM15.0536 70.9369C14.7807 69.8953 14.4117 68.8811 13.9512 67.907C13.6312 67.0111 13.1926 66.1504 12.7659 65.2662C12.566 64.7612 12.1921 64.3434 11.7109 64.0873C11.545 64.0873 11.3197 64.0873 11.0945 64.0873C10.8693 64.0873 10.5256 64.0873 10.3359 64.0873C10.1892 64.1466 10.0559 64.2345 9.94395 64.3459C9.83198 64.4573 9.74358 64.5898 9.68396 64.7357C9.51477 65.6278 9.62654 66.55 10.004 67.3765C10.5374 68.5555 10.9286 69.8051 11.5568 70.9133C11.715 71.2766 11.9494 71.6022 12.2443 71.8682C12.3871 71.9772 12.5376 72.0757 12.6947 72.163C13.1984 72.2732 13.7202 72.2732 14.2238 72.163C14.6465 71.8735 14.943 71.4353 15.0536 70.9369Z" fill="#E3544D"/>
<path d="M44.8299 53.5593C44.3433 52.8222 43.9454 52.0308 43.6445 51.2014C43.0398 49.7541 42.2425 48.394 41.2738 47.1577C40.9503 46.7682 40.6903 46.3306 40.5033 45.8609C40.8589 45.4836 41.2027 45.1064 41.5702 44.7527C42.7555 43.5738 43.8697 42.3948 45.1262 41.3692C46.5395 40.1503 47.837 38.8046 49.0023 37.349C49.1115 37.222 49.1923 37.0733 49.2393 36.9128C49.2976 36.7919 49.3207 36.6571 49.3061 36.5238C49.2914 36.3905 49.2396 36.2639 49.1564 36.1583C49.0835 36.1019 48.9938 36.0713 48.9015 36.0713C48.8092 36.0713 48.7195 36.1019 48.6467 36.1583C48.3859 36.3823 48.1488 36.6181 47.9117 36.8657C46.5608 38.3161 45.0081 39.5666 43.3008 40.5793C42.2417 41.1952 41.2383 41.9012 40.3018 42.6896C39.9306 43.0611 39.4395 43.2907 38.915 43.338C38.915 43.1847 38.7372 43.0315 38.7609 42.9018C38.7609 42.3948 38.9742 41.9115 39.0217 41.4045C39.189 40.0415 39.4624 38.6935 39.8396 37.3726C40.4356 36.5223 41.1145 35.7325 41.8665 35.0148C42.0784 34.8241 42.2728 34.615 42.4473 34.3899C43.2121 33.4035 44.0522 32.4773 44.9602 31.6194C45.6078 30.987 46.2136 30.3136 46.7738 29.6035C47.2169 29.0941 47.7005 28.621 48.2199 28.1888C48.3859 28.0237 48.5993 27.9176 48.7533 27.7526C48.8581 27.6552 48.9276 27.5262 48.9512 27.3855C48.9748 27.2449 48.9511 27.1004 48.8837 26.9745C48.5993 26.6915 48.2674 26.7859 47.8051 26.9037L46.513 28.0827C46.0018 28.6126 45.4637 29.1162 44.901 29.5917C44.0754 30.2631 43.2842 30.9753 42.5303 31.7256C42.0799 32.15 41.6294 32.5744 41.1553 32.987C41.1553 32.987 40.9656 32.987 40.859 32.987C40.5982 32.2325 41.0368 31.5605 41.1434 30.8531C41.2501 30.1458 41.4516 29.3088 41.6057 28.5778C42.1036 28.0237 42.5896 27.5404 43.0163 27.0216C44.2016 25.5716 45.387 24.1333 46.6908 22.8011C46.8959 22.6072 47.0861 22.3983 47.2598 22.1762C48.1983 20.8415 49.2238 19.5694 50.3299 18.3683V17.8496C50.2543 17.7604 50.1564 17.6927 50.0461 17.6534C49.9358 17.614 49.8169 17.6044 49.7016 17.6256C49.5583 17.6346 49.4186 17.674 49.2919 17.7411C49.1651 17.8082 49.0543 17.9015 48.9667 18.0146C48.1793 18.9783 47.3405 19.8991 46.4538 20.7733C45.1195 22.0303 43.8571 23.3606 42.6725 24.7581L42.5421 24.8642C42.4236 24.9585 42.3288 24.9467 42.2577 24.8642C42.3406 24.4044 42.3999 23.9093 42.5066 23.4141C42.6607 22.6478 42.8266 21.8815 43.0163 21.1152C43.3363 19.8538 43.6801 18.6159 44.0238 17.3544C44.2964 16.3288 44.5928 15.3031 44.8417 14.2539C44.9365 13.9002 45.0788 13.4993 44.7587 13.1457C44.6455 13.1596 44.5393 13.2078 44.4545 13.2837C44.3698 13.3596 44.3104 13.4596 44.2846 13.5701C43.9171 14.584 43.5852 15.5978 43.2059 16.5999C42.8266 17.602 42.3406 18.8045 41.9021 19.9009C41.8561 19.9643 41.7916 20.012 41.7173 20.0373C41.6429 20.0627 41.5626 20.0644 41.4872 20.0424C41.4872 19.0875 41.4872 18.1325 41.4042 17.1776C41.4518 16.2351 41.4518 15.2907 41.4042 14.3482C41.354 14.3121 41.2967 14.287 41.236 14.2745C41.1753 14.2621 41.1127 14.2626 41.0522 14.2759C40.9917 14.2893 40.9348 14.3153 40.8851 14.3521C40.8355 14.3889 40.7942 14.4358 40.7641 14.4896C40.647 14.6786 40.5628 14.8858 40.5152 15.1027C40.2933 16.2688 40.1782 17.4526 40.1714 18.6395C40.1714 19.8891 40.1715 21.127 40.1003 22.3767C40.0967 22.8271 40.057 23.2765 39.9818 23.7206C39.8591 24.2153 39.8797 24.7344 40.0411 25.2179C40.1958 25.764 40.1582 26.3464 39.9344 26.8684C39.5723 27.9354 39.2871 29.0267 39.0809 30.134C38.9871 30.7464 38.8565 31.3527 38.6898 31.9496C38.6068 32.2207 38.6898 32.6097 38.2038 32.7159C38.1074 32.5743 38.0241 32.4244 37.9549 32.2679C37.3441 30.5752 36.9073 28.8254 36.651 27.0452C36.617 26.823 36.5573 26.6054 36.4732 26.3968C36.3665 26.161 36.165 26.0903 35.8686 26.1964C35.6612 26.8324 35.6612 27.5174 35.8686 28.1534C35.9753 28.6603 36.0346 29.1555 36.1294 29.6506C36.3204 31.0438 36.5895 32.4254 36.9355 33.7887C37.2436 34.7554 37.4926 35.7339 37.7415 36.6181C37.6704 36.8303 37.623 36.9364 37.5993 37.0425C37.3148 38.4808 36.8999 39.8955 36.734 41.3456C36.7238 41.5177 36.6529 41.6808 36.5336 41.8059C36.4143 41.931 36.2543 42.0102 36.082 42.0294C36.082 41.829 35.999 41.6521 35.7383 41.6639C35.8133 41.3339 35.7582 40.9879 35.5842 40.6972C35.2404 39.9898 34.9085 39.2825 34.6003 38.5515C34.1025 37.3726 33.415 36.1937 32.8934 35.0855C32.8934 35.0855 32.7986 35.0266 32.7512 34.9912L32.4074 35.1091C32.3076 35.8207 32.3438 36.5447 32.5141 37.2429C32.8342 38.4219 33.0712 39.5183 33.3439 40.6618C32.4288 40.57 31.5622 40.2088 30.8546 39.6244C30.8546 39.0703 30.8546 38.4454 30.7954 37.9503C30.7479 37.165 30.7479 36.3777 30.7954 35.5924C31.0661 32.9083 31.5577 30.2507 32.2652 27.6465C32.763 25.8545 33.3439 24.1097 34.0077 22.3649C34.2684 21.6929 34.5055 20.9973 34.7426 20.3018C34.8137 20.2192 34.9322 20.1485 34.9559 20.0542C35.3734 18.4169 35.9738 16.8312 36.7458 15.3267C37.2555 14.2656 37.7533 13.1928 38.2749 12.1318C39.4466 9.69243 40.8392 7.36426 42.4355 5.17612C43.5317 3.6876 44.7361 2.28092 46.0389 0.967356C46.367 0.58077 46.7702 0.263999 47.2243 0.0360042C47.3653 -0.00651207 47.515 -0.0114669 47.6585 0.0216352C47.8021 0.0547373 47.9343 0.124736 48.0421 0.224632C48.4349 0.550044 48.7574 0.951049 48.9904 1.40356C49.3953 2.1472 49.7021 2.93969 49.9031 3.76141C50.401 5.71843 50.8751 7.68724 51.2663 9.65605C51.4204 10.4341 51.5863 11.2122 51.7997 12.0139C52.387 14.0682 52.8111 16.1653 53.068 18.2858C53.1628 19.0639 53.3525 19.8302 53.4947 20.6436C53.5777 21.1388 53.6607 21.6457 53.7199 22.1409C53.7361 22.6246 53.7956 23.1059 53.8977 23.5792C53.9802 23.9667 54.02 24.362 54.0163 24.7581C54.0163 25.4301 54.0163 26.1139 54.1111 26.7859C54.0776 27.8996 54.1212 29.0144 54.2415 30.1222C54.5143 31.9439 54.4662 33.7989 54.0993 35.6042C54.0162 36.894 53.7446 38.1649 53.2932 39.3768C52.9085 40.4943 52.441 41.5819 51.8945 42.6306C50.9643 44.6185 49.9195 46.5512 48.7652 48.4192C48.4161 48.8598 48.1253 49.3432 47.8999 49.8574C47.5758 50.2269 47.319 50.6498 47.1413 51.1071C46.7908 51.2678 46.4944 51.5257 46.2878 51.8498C45.857 52.464 45.3689 53.0364 44.8299 53.5593Z" fill="#3D6334"/>
<path d="M16.8669 83.1259C18.2538 83.7743 19.5932 84.4934 21.0275 85.0475C22.6993 85.7334 24.4235 86.2853 26.1837 86.698C27.1653 86.9574 28.1695 87.1232 29.1827 87.1932C29.4662 87.1987 29.7483 87.2343 30.0242 87.2993C31.1332 87.5407 32.2816 87.5407 33.3906 87.2993C33.4987 87.2672 33.61 87.2475 33.7225 87.2403C35.3634 87.1105 36.9546 86.6192 38.3809 85.802C39.6654 85.1956 40.7837 84.2897 41.6406 83.1613C42.0901 82.5015 42.6108 81.8927 43.1934 81.3457C45.6234 81.5025 48.0009 82.1187 50.1988 83.1613C51.2449 83.7469 52.1509 84.5514 52.854 85.5191C53.0832 85.8441 53.2519 86.2075 53.3518 86.5919C53.4692 86.9784 53.5603 87.3722 53.6245 87.7708C53.7311 88.2086 53.7311 88.6653 53.6245 89.103C53.4941 89.5392 53.3993 89.9754 53.257 90.5177L52.2969 91.567C51.8207 92.0536 51.2299 92.4142 50.5781 92.6162C48.8047 93.1826 47 93.6471 45.173 94.0074C44.3432 94.1606 43.5135 94.361 42.6956 94.5261C42.4178 94.5827 42.1367 94.6221 41.854 94.644C41.287 94.6477 40.7238 94.7351 40.1827 94.9034C39.853 94.9824 39.5138 95.0142 39.1751 94.9977C38.6047 94.9816 38.0357 95.0613 37.4919 95.2334C37.2231 95.3135 36.9422 95.3454 36.6622 95.3278C35.9816 95.3195 35.3032 95.4068 34.6471 95.5871C34.2576 95.6681 33.8588 95.6959 33.4617 95.6697C32.7224 95.6405 31.9828 95.724 31.2689 95.9172C30.94 96.0006 30.5987 96.0246 30.2613 95.988H17.993C17.4814 96.0099 16.9689 95.9782 16.4639 95.8936C15.0742 95.664 13.7034 95.333 12.3626 94.9034C11.4129 94.5322 10.5256 94.0194 9.73114 93.3825C9.46409 93.1702 9.23901 92.9103 9.06735 92.6162C8.77101 92.1918 8.5695 91.7203 8.29688 91.2487V89.1148C8.51883 88.3117 8.9181 87.568 9.4656 86.9378C10.0131 86.3077 10.695 85.8069 11.4617 85.4719C12.9909 84.6095 14.6185 83.9327 16.3098 83.456C16.5319 83.4231 16.7321 83.3045 16.8669 83.1259Z" fill="#BBCB7D"/>
<path d="M24.2288 38.292C23.9087 38.7518 23.6006 39.2234 23.2924 39.6831C22.1063 41.4666 20.727 43.1152 19.1792 44.5993C18.6375 45.1011 18.0591 45.5621 17.4486 45.9786C17.1831 46.1887 16.8696 46.3305 16.5359 46.3912C15.7579 46.584 14.9648 46.7103 14.1652 46.7685C13.4896 46.7685 12.8139 46.7685 12.1383 46.8392C11.9141 46.8094 11.6868 46.8094 11.4626 46.8392C10.1298 47.1116 8.7644 47.191 7.40874 47.075C7.06499 47.075 6.7331 47.075 6.38935 47.075L4.37426 46.7331C3.6963 46.65 3.04272 46.4293 2.454 46.0847C2.14507 45.934 1.88791 45.6958 1.71494 45.4C1.54196 45.1041 1.46092 44.764 1.48202 44.4224C1.4806 44.0556 1.59393 43.6974 1.80631 43.3974C2.01869 43.0975 2.3196 42.8706 2.66736 42.7484C3.23019 42.5965 3.8053 42.4939 4.38611 42.4418C4.92885 42.3566 5.45119 42.1727 5.92706 41.8995C5.67216 41.7371 5.40687 41.5914 5.13288 41.4633C4.39797 41.1686 3.6512 40.8974 2.91629 40.5909C2.11496 40.2868 1.36993 39.8526 0.711546 39.3059C0.482288 39.094 0.30047 38.8365 0.177931 38.5501C0.0553928 38.2637 -0.00511808 37.9548 0.000338829 37.6436C0.00541042 37.244 0.14466 36.8575 0.395949 36.5456C0.647238 36.2337 0.996143 36.0144 1.38719 35.9224C1.66149 35.8497 1.94511 35.8179 2.22879 35.8281C3.19431 35.8521 4.15512 35.9705 5.09732 36.1817C6.0693 36.4883 7.06499 36.7122 8.06068 36.948C8.32146 37.0188 8.60594 37.1485 8.86672 36.948C8.86672 36.8301 8.86672 36.6887 8.86672 36.6415C8.22663 35.9931 7.56284 35.3683 6.92275 34.7317C6.28267 34.095 5.65443 33.4348 5.03805 32.7628C4.7905 32.4868 4.6198 32.1512 4.54287 31.7893C4.46594 31.4274 4.48545 31.0518 4.59948 30.6997C4.66026 30.4458 4.77681 30.2084 4.94076 30.0046C5.10471 29.8007 5.312 29.6355 5.54775 29.5208C5.84569 29.3961 6.15542 29.3013 6.47232 29.2379C7.66884 29.4824 8.77307 30.0539 9.6609 30.8884C10.6803 31.69 11.6641 32.5506 12.6598 33.3877C12.7209 33.4517 12.8005 33.4952 12.8877 33.5121C12.9748 33.529 13.065 33.5185 13.1458 33.482C13.1746 33.334 13.1746 33.182 13.1458 33.034C13.0154 32.4327 12.8732 31.8551 12.6954 31.2302C12.4216 30.2485 12.3056 29.2299 12.3516 28.2122C12.3516 27.6463 12.3516 27.0333 12.4228 26.5145C12.4677 26.0649 12.6006 25.6284 12.8139 25.2295C12.9423 24.9512 13.138 24.709 13.3837 24.5244C13.6293 24.3399 13.9171 24.2188 14.2214 24.1721C14.5256 24.1253 14.8367 24.1544 15.1269 24.2567C15.417 24.3589 15.6772 24.5311 15.884 24.7579C16.1312 24.9862 16.3394 25.253 16.5003 25.5478C16.956 26.282 17.3071 27.0755 17.5434 27.9057C18.0057 29.5915 18.468 31.2892 18.9184 32.9751C19.0488 33.4702 19.1674 33.9653 19.2859 34.4369C19.3675 34.4515 19.4516 34.44 19.5262 34.404C19.6008 34.368 19.6619 34.3093 19.7008 34.2365C20.4712 33.1165 21.2299 31.9848 22.0715 30.8884C22.4707 30.3416 22.9105 29.8254 23.3872 29.344C23.6425 29.1185 23.9353 28.939 24.2525 28.8134C24.4993 28.6997 24.7697 28.6459 25.0415 28.6564C25.3132 28.6668 25.5786 28.7413 25.8159 28.8737C26.0531 29.006 26.2553 29.1924 26.406 29.4177C26.5566 29.6429 26.6514 29.9005 26.6825 30.1692C26.7593 30.6733 26.7593 31.186 26.6825 31.69C26.5803 32.4738 26.3813 33.2419 26.0898 33.9771C25.5919 35.1561 25.0822 36.335 24.5844 37.5729C24.4066 37.7261 24.3236 38.0209 24.2288 38.292Z" fill="#3D6334"/>
<path d="M47.9012 49.8331C48.1266 49.3188 48.4174 48.8355 48.7665 48.3948C49.9208 46.5269 50.9657 44.5941 51.8958 42.6063C52.4585 41.5589 52.9418 40.4713 53.3419 39.3525C53.7933 38.1405 54.0649 36.8697 54.148 35.5799C54.6322 35.6867 55.139 35.6111 55.5704 35.3677C55.9971 35.1005 56.4357 34.8411 56.8861 34.5896C58.605 33.7351 60.3698 32.9755 62.1728 32.3143C62.6472 32.1349 63.1401 32.0083 63.6426 31.937C64.0357 31.8402 64.4492 31.8648 64.8279 32.0077C65.0846 32.065 65.3247 32.1797 65.5301 32.3432C65.7355 32.5066 65.9007 32.7144 66.0133 32.9509C66.0844 33.953 66.0133 35.1319 66.0133 36.3108C65.5984 37.8906 65.551 39.5293 65.2072 41.1209C64.899 42.4884 64.5434 43.8442 64.2945 45.2235C64.052 46.3836 63.6533 47.5058 63.1092 48.5599C62.4572 49.8685 61.8053 51.1771 61.1178 52.4739C60.242 53.991 59.2261 55.4237 58.0833 56.7534C57.8048 57.1111 57.4777 57.4285 57.1113 57.6966C56.4233 58.189 55.7807 58.7414 55.1911 59.3471C54.9905 59.5469 54.7723 59.7284 54.5391 59.8894C52.3203 61.2398 50.0023 62.4221 47.6049 63.4261C47.5004 63.4646 47.3935 63.4961 47.2848 63.5205C47.0107 62.1564 46.8481 60.7726 46.7988 59.3824C47.1997 58.987 47.6452 58.6388 48.1264 58.345C49.5133 57.7201 50.7697 56.8595 52.1329 56.1875C52.8915 55.8103 53.6383 55.4094 54.4087 55.0086C55.2303 54.6406 55.9963 54.1605 56.6846 53.5821C56.8037 53.3904 56.9067 53.1893 56.9928 52.9809C57.0521 52.8158 56.9928 52.6743 56.7913 52.58C56.412 52.58 56.2342 52.9219 55.926 53.0516C55.6178 53.1813 55.2859 53.2638 54.9659 53.3699C53.9109 53.7354 52.8441 54.1126 51.7773 54.4545C51.5006 54.5123 51.2184 54.54 50.9357 54.537C51.1562 54.0223 51.4561 53.545 51.8247 53.1223C52.376 52.5521 52.8832 51.9412 53.3419 51.295C53.8271 50.5376 54.4798 49.9005 55.2503 49.4323C56.0208 48.9725 56.7794 48.4774 57.5262 47.9704C58.5535 47.2866 59.5729 46.5911 60.5844 45.8837C60.8102 45.7111 61.003 45.4995 61.1534 45.2589C61.2353 45.1453 61.2699 45.0046 61.25 44.8662C61.2301 44.7278 61.1573 44.6024 61.0467 44.5162C60.7266 44.4336 60.4896 44.6341 60.2406 44.7519C59.482 45.1056 58.7115 45.4711 57.9648 45.8719C57.6032 46.0693 57.1895 46.1516 56.7794 46.1077C56.7836 45.9386 56.8156 45.7713 56.8743 45.6126C58.0596 43.8678 59.1501 42.0758 60.2881 40.3781C60.3733 40.2358 60.4447 40.0858 60.5014 39.9301C60.521 39.8631 60.5253 39.7927 60.5142 39.7238C60.503 39.655 60.4767 39.5894 60.437 39.5319C60.3973 39.4744 60.3453 39.4264 60.2847 39.3912C60.2241 39.3561 60.1564 39.3348 60.0865 39.3289C59.9565 39.3149 59.8254 39.3149 59.6954 39.3289C59.2422 39.7093 58.8434 40.1496 58.51 40.6375C57.5855 41.9107 56.5898 43.1368 55.6178 44.3747C55.5042 44.5014 55.3814 44.6196 55.2503 44.7284C55.2193 44.7616 55.1817 44.7881 55.1399 44.8062C55.0981 44.8243 55.0529 44.8336 55.0073 44.8336C54.9617 44.8336 54.9166 44.8243 54.8748 44.8062C54.833 44.7881 54.7954 44.7616 54.7643 44.7284V43.0779C54.6963 42.3447 54.8019 41.6058 55.0725 40.9204C55.1078 40.7572 55.1078 40.5885 55.0725 40.4253C55.0725 40.2484 54.9777 40.0716 54.7999 40.0716C54.7194 40.0687 54.6392 40.0818 54.5639 40.1101C54.4886 40.1385 54.4197 40.1815 54.3613 40.2367C54.1361 40.555 53.9583 40.9086 53.7805 41.2034C53.8201 41.954 53.7031 42.7046 53.4368 43.408C53.3638 44.0194 53.253 44.6257 53.1049 45.2235C53.0122 45.8323 52.8816 46.4347 52.7137 47.0273C52.587 48.1501 52.096 49.2013 51.315 50.0218C51.2029 50.1536 51.1037 50.2957 51.0187 50.4462C50.4023 51.236 49.774 52.0377 49.134 52.804C49.051 52.8983 48.8495 52.9219 48.6361 53.0044C48.6361 52.4857 48.6361 52.0377 48.6361 51.5897C48.6007 50.9779 48.4177 50.3834 48.1027 49.8567C48.1027 49.8567 47.9486 49.8567 47.9012 49.8331Z" fill="#BBCB7D"/>
<path d="M4.39788 51.4375L5.16835 52.3571C5.29693 53.342 5.32473 54.3374 5.25133 55.328V58.181C5.13825 58.4945 5.00766 58.8015 4.86016 59.1005C4.72023 59.4068 4.48696 59.6616 4.19339 59.8287C3.89982 59.9959 3.56082 60.067 3.22439 60.0319C2.88036 59.8567 2.58159 59.6049 2.35134 59.2962C2.12108 58.9874 1.96554 58.63 1.8968 58.2517C1.84187 57.2329 1.91353 56.2114 2.11016 55.2101C2.21846 54.4963 2.2621 53.7742 2.24055 53.0526C2.29195 52.766 2.40148 52.4927 2.56247 52.2495C2.72346 52.0063 2.93254 51.7982 3.17697 51.6379L4.39788 51.4375Z" fill="#F6C168"/>
<path d="M35.9529 42.0289C36.1252 42.0098 36.2852 41.9306 36.4045 41.8055C36.5238 41.6804 36.5948 41.5173 36.6049 41.3452C36.7708 39.8951 37.1857 38.4804 37.4702 37.0421C37.4702 36.936 37.5413 36.8299 37.6124 36.6177C37.3635 35.7335 37.1146 34.755 36.8064 33.7882C36.4604 32.4249 36.1913 31.0434 36.0003 29.6502C35.9055 29.1551 35.8462 28.6599 35.7396 28.153C35.5321 27.5169 35.5321 26.832 35.7396 26.196C36.0359 26.0898 36.2374 26.196 36.3441 26.3964C36.4282 26.605 36.4879 26.8226 36.5219 27.0448C36.8128 28.8287 37.2854 30.5786 37.9325 32.2674C38.0016 32.4239 38.085 32.5739 38.1814 32.7154C38.6081 32.6093 38.5844 32.2203 38.6674 31.9491C38.834 31.3522 38.9647 30.746 39.0585 30.1336C39.2647 29.0263 39.5499 27.935 39.912 26.8679C40.1358 26.346 40.1734 25.7636 40.0187 25.2174C39.8573 24.7339 39.8367 24.2149 39.9594 23.7202C40.0346 23.276 40.0743 22.8266 40.0779 22.3762C40.0779 21.1266 40.1609 19.8887 40.149 18.639C40.1558 17.4522 40.2709 16.2684 40.4928 15.1023C40.5404 14.8854 40.6246 14.6781 40.7417 14.4892C40.7718 14.4354 40.8131 14.3885 40.8627 14.3517C40.9124 14.3148 40.9693 14.2889 41.0298 14.2755C41.0903 14.2621 41.1529 14.2617 41.2136 14.2741C41.2743 14.2866 41.3316 14.3117 41.3818 14.3477C41.4294 15.2903 41.4294 16.2346 41.3818 17.1772C41.4529 18.1321 41.3818 19.087 41.4648 20.042C41.5517 20.0516 41.6393 20.031 41.7128 19.9837C41.7862 19.9365 41.841 19.8654 41.8678 19.7826C42.3064 18.6862 42.7568 17.5898 43.1717 16.4816C43.5865 15.3734 43.8829 14.4656 44.2503 13.4518C44.2762 13.3412 44.3355 13.2413 44.4203 13.1654C44.5051 13.0895 44.6113 13.0413 44.7245 13.0273C45.0445 13.381 44.9023 13.7819 44.8075 14.1355C44.5585 15.1848 44.2622 16.2104 43.9896 17.2361C43.6458 18.4976 43.3021 19.7354 42.982 20.9969C42.7924 21.7632 42.6264 22.5295 42.4723 23.2958C42.3656 23.7909 42.3064 24.2861 42.2234 24.7459C42.2945 24.8756 42.3893 24.8873 42.5079 24.7459L42.6738 24.7577C43.8399 23.3698 45.0825 22.0474 46.3958 20.7965C47.2825 19.9223 48.1213 19.0014 48.9087 18.0378C48.9963 17.9246 49.1072 17.8313 49.2339 17.7642C49.3607 17.6971 49.5004 17.6578 49.6437 17.6487C49.7589 17.6276 49.8778 17.6372 49.9881 17.6765C50.0985 17.7158 50.1964 17.7835 50.2719 17.8727V18.3915C49.1659 19.5926 48.1403 20.8646 47.2018 22.1994C47.0281 22.4215 46.8379 22.6303 46.6329 22.8242C45.3172 24.1564 44.1318 25.5947 42.9583 27.0448C42.5316 27.5635 42.0456 28.0469 41.5478 28.601C41.3937 29.3319 41.204 30.0982 41.0855 30.8763C40.9669 31.6544 40.5402 32.2556 40.801 33.0102C40.9077 33.0102 41.0381 33.0102 41.0973 33.0102C41.5715 32.5975 42.0219 32.1731 42.4723 31.7487C43.2262 30.9984 44.0174 30.2863 44.843 29.6148C45.4058 29.1394 45.9438 28.6357 46.4551 28.1058L47.7471 26.9269C48.2094 26.809 48.5413 26.7147 48.8258 26.9976C48.8931 27.1235 48.9168 27.268 48.8932 27.4087C48.8697 27.5493 48.8001 27.6783 48.6954 27.7757C48.5413 27.9408 48.3279 28.0469 48.162 28.2119C47.6425 28.6441 47.1589 29.1172 46.7159 29.6266C46.1556 30.3368 45.5498 31.0102 44.9023 31.6426C43.9942 32.5004 43.1541 33.4267 42.3893 34.4131C42.2148 34.6381 42.0204 34.8472 41.8085 35.0379C41.0566 35.7557 40.3776 36.5454 39.7816 37.3958C39.4044 38.7167 39.131 40.0647 38.9637 41.4277C38.9637 41.9346 38.7622 42.418 38.7029 42.9249C38.7029 43.0546 38.7978 43.2079 38.857 43.3611C39.4057 43.3213 39.9204 43.0821 40.3031 42.6891C41.257 41.8857 42.2804 41.1677 43.3613 40.5435C45.0686 39.5308 46.6214 38.2803 47.9723 36.8299C48.2094 36.5823 48.4465 36.3465 48.7072 36.1225C48.7801 36.0661 48.8698 36.0355 48.9621 36.0355C49.0544 36.0355 49.1441 36.0661 49.2169 36.1225C49.3001 36.2281 49.352 36.3547 49.3667 36.488C49.3813 36.6213 49.3582 36.7561 49.2999 36.877C49.2529 37.0375 49.1721 37.1862 49.0628 37.3132C47.883 38.7458 46.5736 40.0678 45.1512 41.2626C43.8592 42.2765 42.7805 43.5144 41.5952 44.6462C41.2277 44.9998 40.884 45.3771 40.5284 45.7543C40.3745 45.686 40.2277 45.6031 40.0898 45.5068C39.7579 45.2002 39.4378 44.8819 39.1178 44.5636C38.4128 43.812 37.6165 43.1507 36.7471 42.5948C36.4684 42.4263 36.203 42.2372 35.9529 42.0289Z" fill="#BBCB7D"/>
<path d="M47.8998 49.8347C47.8998 49.8347 48.0183 49.8347 48.042 49.9172C48.3654 50.4418 48.5565 51.0363 48.5991 51.6502C48.5991 52.0982 48.5991 52.5462 48.5991 53.0649C48.8125 52.9824 49.014 52.9588 49.097 52.8645C49.7371 52.0864 50.3653 51.2847 50.9817 50.5066C51.0667 50.3561 51.1659 50.214 51.278 50.0822C52.059 49.2617 52.55 48.2106 52.6767 47.0878C52.8446 46.4952 52.9753 45.8927 53.0679 45.284C53.216 44.6862 53.3268 44.0798 53.3998 43.4684C53.6701 42.7659 53.7912 42.0153 53.7554 41.2639C53.9332 40.9691 54.111 40.6154 54.3362 40.2971C54.3946 40.242 54.4634 40.1989 54.5388 40.1706C54.6141 40.1422 54.6943 40.1292 54.7748 40.1321C54.9526 40.1321 55.0356 40.3089 55.0474 40.4858C55.0827 40.6489 55.0827 40.8177 55.0474 40.9809C54.7767 41.6663 54.6712 42.4051 54.7392 43.1383V44.8006C54.7703 44.8338 54.8079 44.8603 54.8497 44.8784C54.8915 44.8965 54.9366 44.9059 54.9822 44.9059C55.0278 44.9059 55.0729 44.8965 55.1147 44.8784C55.1566 44.8603 55.1942 44.8338 55.2252 44.8006C55.3562 44.6918 55.4791 44.5736 55.5927 44.447C56.5647 43.268 57.5604 41.983 58.4849 40.7098C58.8182 40.2219 59.217 39.7816 59.6703 39.4011C59.8003 39.3871 59.9314 39.3871 60.0614 39.4011C60.1313 39.4071 60.199 39.4284 60.2596 39.4635C60.3202 39.4986 60.3722 39.5466 60.4119 39.6042C60.4516 39.6617 60.4779 39.7272 60.4891 39.7961C60.5002 39.8649 60.4958 39.9354 60.4763 40.0024C60.4196 40.1581 60.3481 40.3081 60.2629 40.4504C59.0776 42.1952 57.9752 43.9872 56.8491 45.6848C56.7905 45.8436 56.7584 46.0109 56.7543 46.18C56.7076 46.1689 56.6588 46.1689 56.6121 46.18C56.6121 46.18 56.6121 46.2625 56.6121 46.2979L56.7899 46.121C57.1999 46.1649 57.6137 46.0826 57.9752 45.8852C58.722 45.4844 59.4925 45.1189 60.2511 44.7653C60.5 44.6474 60.7371 44.447 61.0571 44.5295C61.1677 44.6157 61.2406 44.7411 61.2604 44.8795C61.2803 45.0179 61.2457 45.1586 61.1638 45.2722C61.0134 45.5128 60.8207 45.7244 60.5948 45.897C59.5833 46.6044 58.5639 47.3 57.5366 47.9837C56.7899 48.4907 56.0313 48.9858 55.2608 49.4456C54.4873 49.909 53.8305 50.5421 53.3405 51.2965C52.9103 51.9562 52.4308 52.5828 51.9063 53.171C51.5209 53.5904 51.2048 54.0679 50.9698 54.5857C50.8869 54.6447 50.6261 54.5857 50.8394 54.8215L50.9698 54.5975C51.2525 54.6004 51.5347 54.5728 51.8114 54.515C52.8782 54.1731 53.945 53.7958 55 53.4304C55.32 53.3243 55.6519 53.23 55.9601 53.1121C56.2683 52.9942 56.4461 52.6169 56.8254 52.6405C56.9914 52.7348 57.0862 52.8763 57.0269 53.0413C56.9409 53.2498 56.8378 53.4509 56.7188 53.6426C56.0305 54.221 55.2645 54.7011 54.4429 55.0691C53.6724 55.4346 52.9256 55.8354 52.167 56.248C50.8039 56.92 49.5474 57.7806 48.1606 58.4055C47.6794 58.6993 47.2339 59.0474 46.833 59.4429C46.833 59.4429 46.7381 59.3604 46.7263 59.3132C46.5366 58.5705 46.3351 57.8278 46.1573 57.0851C46.1573 56.8728 46.0981 56.6489 46.0625 56.4366L46.4774 55.7411L46.5959 53.8666C46.9989 53.1121 46.8093 52.2161 47.1649 51.438C47.1649 51.3555 47.1649 51.2258 47.1649 51.1197C47.3317 50.6516 47.5805 50.2165 47.8998 49.8347Z" fill="#E6EBAF"/>
<path d="M14.2248 52.463C14.4987 52.0236 14.8621 51.6461 15.2916 51.3549C15.634 51.1966 16.0245 51.1755 16.3821 51.2959C16.9351 51.5136 17.4214 51.8712 17.7927 52.3334C18.1957 54.538 19.3218 56.5893 19.9263 58.8057C19.8619 59.3281 19.6356 59.8177 19.2787 60.2064C18.9219 60.5952 18.4522 60.8637 17.9349 60.9749L16.5955 60.5741C16.0662 59.9966 15.6841 59.3012 15.4812 58.5463C15.1256 57.5914 14.7937 56.6364 14.4855 55.6697C14.0925 54.6475 14.002 53.5348 14.2248 52.463Z" fill="#F6C168"/>
<path d="M37.5163 80.7106C37.0959 79.9743 36.9294 79.1213 37.0422 78.282C37.3096 76.725 37.4169 75.1449 37.3622 73.5663L37.9312 72.5053L38.9624 71.9512H40.1478C40.6426 72.2306 41.0522 72.6379 41.3331 73.1301C41.4386 74.8851 41.4386 76.6449 41.3331 78.3999C41.3331 78.73 41.1553 79.0483 41.0842 79.3784C41.0273 79.6354 40.9837 79.8951 40.9538 80.1565C40.6588 80.6378 40.2524 81.042 39.7684 81.3354H38.7846C38.3225 81.2179 37.8903 81.005 37.5163 80.7106Z" fill="#F6C168"/>
<path d="M32.1459 66.5508C31.8789 67.015 31.5151 67.417 31.0791 67.7298C30.5458 67.8718 29.9883 67.8999 29.4433 67.8123C28.97 67.5457 28.5645 67.1746 28.2579 66.7277C27.7957 65.5488 27.4045 64.2755 26.9541 63.073C26.439 61.9945 26.2654 60.7858 26.4562 59.607C26.634 59.2369 26.9243 58.9317 27.286 58.7346C27.7706 58.6328 28.2712 58.6328 28.7558 58.7346C29.2278 58.9378 29.6077 59.3072 29.8226 59.772C30.6966 61.2807 31.4267 62.8674 32.0036 64.5113C32.1882 65.1748 32.2366 65.8684 32.1459 66.5508Z" fill="#F6C168"/>
<path d="M25.7699 44.976C25.89 44.751 26.0585 44.5552 26.2633 44.4023C26.4682 44.2495 26.7044 44.1435 26.9552 44.0918C28.1923 44.4439 29.2582 45.2317 29.9541 46.3082C30.8076 47.6522 31.4358 49.1022 32.1589 50.5169V51.8727C32.0816 52.0236 31.9945 52.1693 31.8981 52.3089C31.5012 52.7882 30.9393 53.1034 30.3216 53.1931C29.8102 53.1094 29.3342 52.88 28.9513 52.5326C28.5684 52.1853 28.295 51.7349 28.1643 51.2361C27.924 50.607 27.6223 50.0028 27.2634 49.4323C26.7034 48.5166 26.2424 47.5445 25.8884 46.5322C25.7113 46.033 25.6704 45.496 25.7699 44.976Z" fill="#F6C168"/>
<path d="M25.6511 77.0557L27.5121 78.2346C27.7279 78.4787 27.8883 78.7662 27.9823 79.0774C28.0764 79.3887 28.102 79.7164 28.0574 80.0384C27.8088 80.5229 27.4317 80.9306 26.9669 81.2173C26.4775 81.3557 25.9632 81.3839 25.4615 81.2998C24.4017 80.9138 23.4443 80.2928 22.6618 79.4839C21.8793 78.675 21.2923 77.6994 20.9453 76.6313V75.4524C21.0122 75.1961 21.1351 74.9576 21.3051 74.7538C21.4752 74.5501 21.6882 74.3861 21.9291 74.2734H22.996C24.0633 75.0102 24.967 75.9572 25.6511 77.0557Z" fill="#F6C168"/>
<path d="M39.3887 53.3351L39.9695 52.7928L40.3607 52.6042C40.8902 52.4757 41.4431 52.4757 41.9727 52.6042L42.6247 53.2054C42.8029 53.6316 42.9533 54.0687 43.0751 54.514C43.241 55.3393 43.3596 56.1763 43.4663 57.0016C43.5071 57.4012 43.5865 57.796 43.7033 58.1805C43.7748 58.4976 43.8067 58.8223 43.7982 59.1472C43.6758 59.6869 43.3904 60.1764 42.9803 60.5501L41.7949 60.9392C41.2972 60.8428 40.8393 60.6022 40.4787 60.2477C40.118 59.8932 39.8708 59.4406 39.768 58.9468C39.8865 58.1451 39.3887 57.2609 39.3887 56.2942C39.3887 55.3275 39.3887 54.4551 39.3887 53.3351Z" fill="#F6C168"/>
<path d="M15.0533 70.9373C14.926 71.4221 14.6218 71.8424 14.1999 72.1162C13.724 72.2398 13.2276 72.2639 12.7419 72.187C12.5848 72.0997 12.4342 72.0012 12.2915 71.8922C11.9966 71.6262 11.7622 71.3007 11.604 70.9373C10.9757 69.7584 10.5846 68.5795 10.0512 67.4005C9.67371 66.574 9.56194 65.6518 9.73113 64.7597C9.79074 64.6138 9.87914 64.4813 9.99112 64.3699C10.1031 64.2585 10.2364 64.1706 10.3831 64.1113C10.5727 64.1113 10.8572 64.1113 11.1417 64.1113C11.4262 64.1113 11.5921 64.1113 11.7581 64.1113C12.2392 64.3674 12.6132 64.7852 12.813 65.2903C13.1923 66.1745 13.6309 67.0351 13.9984 67.9311C14.4412 68.8991 14.7943 69.9054 15.0533 70.9373Z" fill="#F6C168"/>
<path d="M33.1907 40.6863C32.9181 39.5073 32.681 38.3991 32.361 37.2674C32.1906 36.5691 32.1544 35.8451 32.2543 35.1335L32.598 35.0156C32.598 35.0156 32.7166 35.0156 32.7403 35.1099C33.3211 36.2889 33.9256 37.3971 34.4472 38.576C34.7553 39.3069 35.0872 40.0143 35.431 40.7216C35.605 41.0123 35.6601 41.3584 35.5851 41.6884C35.5339 41.6942 35.4822 41.6942 35.431 41.6884C34.6468 41.4442 33.8947 41.1078 33.1907 40.6863Z" fill="#BBCB7D"/>
<path d="M47.1419 51.084C47.1419 51.1901 47.213 51.3198 47.1419 51.4023C46.7863 52.1804 46.976 53.0764 46.5729 53.8309L46.4544 55.7054L46.0395 56.4009C45.9589 56.327 45.8873 56.2439 45.8262 56.1534C45.4063 55.3207 45.0612 54.4528 44.7949 53.5597C45.3451 53.0459 45.8452 52.4814 46.2885 51.8739C46.4879 51.5322 46.785 51.2573 47.1419 51.084Z" fill="#BBCB7D"/>
<path d="M35.6211 41.6758C35.8819 41.6758 35.9411 41.8408 35.9648 42.0412C35.8725 42.0326 35.7866 41.9907 35.7233 41.9234C35.6599 41.856 35.6236 41.768 35.6211 41.6758Z" fill="#BBCB7D"/>
<path d="M50.971 54.5977L50.8406 54.8217C50.6272 54.6095 50.8406 54.6449 50.971 54.5859V54.5977Z" fill="#BBCB7D"/>
</g>
<defs>
<clipPath id="clip0">
<rect width="66" height="96" fill="white"/>
</clipPath>
</defs>
</svg>
