<svg width="79" height="103" viewBox="0 0 79 103" fill="none" xmlns="http://www.w3.org/2000/svg">
<g clip-path="url(#clip0)">
<path d="M33.7983 20.6575C33.7983 20.6575 31.2219 20.3697 25.8709 22.3234C20.5198 24.2771 7.36333 46.7066 7.36333 46.7066L1.72266 66.8341L2.33246 78.7531L9.43667 90.7023L21.6327 96.4725L36.268 96.0636L49.9886 89.415L61.0565 77.39L58.0075 70.5294L44.5613 24.9132L33.7983 20.6575Z" fill="#F1EBDF"/>
<path d="M63.3726 10.6018L64.0282 16.0086C64.4283 15.6398 64.8509 15.2959 65.2935 14.9787C65.7612 14.645 66.3415 14.5058 66.9109 14.5907C67.4804 14.6755 67.994 14.9777 68.3425 15.433C68.7993 15.9904 69.1365 16.6346 69.3335 17.3262C69.5494 18.1682 69.667 19.032 69.6841 19.9008C69.6841 22.2179 69.6841 24.5351 69.6841 26.8522C69.6841 27.2612 69.6841 27.6549 69.6841 28.2456C70.0043 28.0184 70.2329 27.9427 70.3244 27.7912C70.5988 27.2915 70.7665 26.7159 71.0714 26.2767C71.2325 25.9876 71.4765 25.7525 71.7724 25.6015C72.0683 25.4505 72.4027 25.3903 72.7331 25.4286C73.0894 25.4478 73.43 25.5804 73.7046 25.8068C73.9791 26.0331 74.173 26.3413 74.2576 26.6857C74.6767 28 74.9076 29.3663 74.9437 30.7445C74.9754 32.7773 74.7915 34.8078 74.3948 36.8024C74.3348 37.1374 74.3042 37.4769 74.3034 37.8171C74.9437 38.12 75.1266 37.5445 75.4925 37.3931C75.6786 37.2709 75.8895 37.1909 76.1102 37.1585C76.3309 37.1262 76.5561 37.1424 76.7698 37.2059C76.9835 37.2695 77.1806 37.3788 77.3471 37.5263C77.5136 37.6738 77.6455 37.8558 77.7335 38.0594C78.1157 38.7585 78.3297 39.5361 78.3586 40.3311C78.4653 42.724 78.6025 45.1169 78.7244 47.4947C78.5415 48.782 78.3128 50.0693 78.1604 51.3717C78.0079 52.6742 77.9774 53.5374 77.886 54.6127C77.3066 56.8542 76.6816 59.1562 76.1328 61.337C75.6901 63.1683 74.976 64.9241 74.0137 66.5468C73.5259 67.3495 73.0838 68.1976 72.5654 68.9852C71.5121 70.5495 70.6954 72.2589 70.1415 74.0587C69.8823 74.8916 69.5317 75.6792 69.2572 76.5121C69.1908 76.785 69.155 77.0644 69.1505 77.3451C68.9143 78.9977 68.9143 80.6752 69.1505 82.3278C69.1505 82.8427 69.3182 83.3425 69.3335 83.8422C69.4353 84.4962 69.2812 85.1641 68.9029 85.7087C68.5246 86.2534 67.9508 86.6336 67.2992 86.7711C66.6477 86.9087 65.9678 86.7933 65.3992 86.4486C64.8306 86.1039 64.4164 85.5561 64.2416 84.9175C64.0739 84.448 63.9825 83.9331 63.8452 83.403C63.416 81.8633 62.6683 80.4294 61.6499 79.1928C61.3298 79.6168 61.0249 79.9955 60.7352 80.4044C59.429 82.3299 57.9819 84.1572 56.4056 85.8717C53.7712 88.3981 50.8968 90.6652 47.8227 92.6414C42.8584 96.0516 37.071 98.09 31.0531 98.5479C24.2654 99.2122 17.466 97.4038 11.9205 93.4592C11.169 92.8855 10.4655 92.2524 9.81667 91.5661C9.64791 91.3092 9.5194 91.0284 9.43555 90.7331L10.1521 90.2031C11.4784 90.9149 12.8047 91.6115 14.1158 92.3385C15.0402 92.9292 16.0788 93.3212 17.1648 93.4895C17.5114 93.7369 17.8847 93.9451 18.2777 94.1104C22.8765 95.4436 27.6767 95.9563 32.4556 95.6249C32.8203 95.6178 33.1831 95.5721 33.538 95.4886C34.9006 95.3165 36.2076 94.8458 37.3645 94.1104C39.3546 93.6337 41.2542 92.841 42.99 91.763C45.3083 90.3948 47.5338 88.8771 49.6521 87.2195C53.2766 84.508 56.455 81.2534 59.0735 77.5723C59.1943 77.378 59.3013 77.1756 59.3937 76.9665C59.2565 76.3153 58.8296 76.3758 58.5095 76.2547C58.5095 75.7549 58.1131 75.5126 57.7472 75.2854L51.0699 70.9691L48.402 69.4547C48.1928 69.2606 47.9685 69.0834 47.7312 68.9246C44.9572 67.3437 42.396 65.4202 40.1086 63.1998C39.9466 63.0614 39.7673 62.9443 39.5751 62.8515L37.3645 60.2617C36.587 59.3076 35.84 58.3686 35.032 57.3994C34.0933 56.3294 33.4383 55.0436 33.1264 53.6586C33.4161 51.9624 34.6509 51.5535 36.1754 51.4172L35.6571 50.3267L32.9892 45.0715C32.6081 44.2991 32.2269 43.557 31.8306 42.7543L31.3885 41.1187C31.8763 39.3164 31.8763 39.3164 34.2545 38.1654C34.1455 37.164 33.8726 36.1869 33.4466 35.2728C33.1721 34.2884 32.852 33.3342 32.5471 32.3498C32.4709 32.0166 32.4099 31.6683 32.3184 31.32C32.0897 30.5779 31.8153 29.8055 31.5866 29.0785C31.4595 28.6639 31.4569 28.2214 31.5792 27.8054C31.7016 27.3893 31.9435 27.0178 32.2753 26.7364C32.6072 26.4549 33.0145 26.2759 33.4473 26.2211C33.8802 26.1664 34.3197 26.2384 34.7119 26.4282C35.0168 26.5645 35.2912 26.8523 35.7943 26.5039C35.9168 24.5471 35.9168 22.5846 35.7943 20.6277C35.7943 19.7645 35.8858 18.9012 36.0077 18.038C36.0749 17.3896 36.2287 16.7529 36.4651 16.1449C36.7327 15.4638 37.2304 14.8965 37.8729 14.5401C38.5154 14.1836 39.2627 14.0603 39.9867 14.1912C40.2611 14.1912 40.5355 14.2972 40.7489 14.3275C41.1606 13.9943 41.1606 13.6308 41.1606 13.2522C41.3283 11.7377 41.4655 10.3747 41.6484 8.93592C41.708 8.50485 41.8206 8.08269 41.9838 7.6789C42.0883 7.2987 42.2712 6.9442 42.5208 6.63784C42.7704 6.33149 43.0813 6.07995 43.4338 5.89915C43.7863 5.71835 44.1728 5.61223 44.5688 5.5875C44.9647 5.56277 45.3615 5.61998 45.7341 5.7555C45.9323 5.7555 46.1305 5.9221 46.3439 5.98268C46.511 6.00267 46.6799 6.00267 46.847 5.98268C46.847 5.43746 46.847 4.86196 46.9994 4.3016C47.1169 3.44452 47.3055 2.59857 47.5635 1.77241C47.7174 1.2692 48.0271 0.827047 48.4486 0.508898C48.8702 0.190748 49.382 0.0128267 49.9112 0.000467157C50.4258 -0.060552 50.9469 0.0339912 51.4065 0.27175C51.8662 0.509509 52.2429 0.879433 52.4877 1.33321C52.7582 1.87406 52.9678 2.44291 53.1127 3.02943C53.2194 3.36262 53.2804 3.69581 53.3871 4.08957L55.1708 3.39291C55.6298 3.38671 56.078 3.53206 56.445 3.80614C56.8119 4.08023 57.0769 4.46757 57.1984 4.90739C57.488 5.87666 57.7625 6.86108 58.0369 7.83034C58.1283 8.16353 58.2503 8.49672 58.4028 8.9965C58.7381 8.46643 58.9363 8.08781 59.1955 7.75462C59.4009 7.48673 59.674 7.27761 59.9871 7.14849C60.3001 7.01937 60.642 6.97486 60.978 7.01947C61.314 7.06407 61.6321 7.19621 61.9001 7.40247C62.1681 7.60873 62.3763 7.88175 62.5037 8.19382C62.9 8.98135 63.0982 9.84461 63.3726 10.6018ZM64.8972 72.6956C65.1482 72.8099 65.4343 72.8215 65.6938 72.728C65.9534 72.6345 66.1655 72.4434 66.2845 72.1959C66.6325 71.552 66.7609 70.8133 66.6503 70.0907C66.6503 69.5152 66.4674 68.9549 66.4217 68.5762C67.5803 66.35 68.6627 64.366 69.6231 62.3366C70.9892 59.2761 71.9328 56.0463 72.4282 52.7348C72.9085 50.8974 72.9085 48.9686 72.4282 47.1312C72.3262 46.9557 72.2034 46.7929 72.0623 46.6465C71.4068 47.3735 71.3611 47.4189 71.3001 47.8884C70.8446 50.6856 70.1249 53.4339 69.1505 56.0969C68.3466 58.5166 67.2403 60.8265 65.8576 62.9727C65.6747 63.2453 65.5679 63.639 64.9581 63.5785C63.6318 60.5798 62.5037 57.2934 61.4975 53.9615C62.6827 51.931 63.6534 49.7841 64.3941 47.5552C65.2218 45.3034 65.8194 42.9745 66.1777 40.6038C66.7379 38.3104 66.8927 35.9377 66.6351 33.5917L65.5374 33.6826C65.263 35.1971 65.0648 36.7115 64.7142 38.0594C64.3055 39.8232 63.7965 41.5626 63.1897 43.2692C62.4732 45.1623 61.5737 46.9949 60.7505 48.8425C60.7082 48.8988 60.6497 48.941 60.5828 48.9637H60.3541C60.2429 48.2781 60.0695 47.6039 59.8358 46.9494C58.8219 44.174 58.0317 41.3228 57.4728 38.4229C58.5732 36.8863 59.3651 35.1534 59.8053 33.3191C60.3084 31.426 60.659 29.4874 61.1164 27.5792C61.4206 26.0846 61.4977 24.5531 61.3451 23.0358C61.2488 22.174 61.0754 21.3225 60.8267 20.4914C60.8267 20.2642 60.4761 20.0977 60.1864 19.7948C59.973 20.1734 59.7443 20.4006 59.7138 20.6429C59.5614 21.7182 59.4547 22.7934 59.3479 23.8839C59.3217 24.8237 59.2249 25.7602 59.0583 26.6857C58.4485 28.8514 57.7167 30.9868 57.0002 33.1222C57.0002 33.3494 56.6648 33.5008 56.3751 33.8037C56.1617 33.001 55.994 32.2892 55.8416 31.744C54.9269 27.7761 54.0122 23.8081 53.1279 19.8402C52.7621 18.2046 52.5029 16.5538 52.1828 14.9181C52.1085 14.3647 51.9913 13.8179 51.8321 13.2825C51.8321 13.0705 51.4357 12.9342 51.1156 12.6615C50.883 13.0627 50.6988 13.4897 50.5668 13.9337C50.3229 15.6669 50.3229 17.4254 50.5668 19.1587C51.1766 22.8843 51.7711 26.6099 52.4724 30.3204C52.9755 33.0313 53.631 35.7271 54.2256 38.4229C54.4801 39.1435 54.4801 39.9286 54.2256 40.6492C53.814 40.4069 53.4481 40.2251 53.0975 39.9828C51.573 38.8621 49.9417 37.6354 48.2648 36.6055C45.9034 35.148 43.6879 33.4694 41.6484 31.5926C41.1255 31.1016 40.5534 30.6652 39.941 30.2901C39.758 30.169 39.4379 30.2901 39.0567 30.2901C39.0956 30.6191 39.1829 30.9406 39.3159 31.2442C39.8761 32.1061 40.4923 32.9307 41.1606 33.7129C42.5715 35.2705 44.1571 36.6628 45.8865 37.8625C47.1519 38.7409 48.402 39.6496 49.5606 40.634C52.0704 42.7126 54.3635 45.0364 56.4056 47.5704C56.741 48.8274 57.0612 50.0238 57.3661 51.2203C57.3661 51.3263 57.2746 51.4777 57.1984 51.6898C56.8577 51.6323 56.5215 51.5513 56.1922 51.4475C55.7076 51.2809 55.2383 51.0732 54.7897 50.8265C49.3326 48.139 44.4708 44.3957 40.4898 39.8162C40.1229 39.4544 39.725 39.125 39.3007 38.8318L38.6756 39.4073C38.6756 39.6648 38.6756 39.8314 38.7518 39.9374C39.9415 41.9375 41.3752 43.784 43.0205 45.435C45.8221 48.0967 48.8866 50.4713 52.1675 52.5227C53.7815 53.5166 55.4989 54.3342 57.2899 54.9611L58.5704 55.4003C59.226 57.3539 59.8663 59.2773 60.4761 61.2159C60.4761 61.3673 60.3694 61.5793 60.2626 61.8519C59.1802 61.443 58.1436 61.0796 57.2136 60.6707C56.3952 60.3536 55.596 59.9895 54.8202 59.5802C51.512 57.7326 48.219 55.8546 44.9108 53.9918C44.2615 53.6123 43.5836 53.2832 42.8833 53.0074C42.4997 52.9433 42.1081 52.9433 41.7246 53.0074C41.8161 53.4314 41.8009 53.7646 41.9686 53.9312C42.4732 54.5489 43.0517 55.1032 43.6912 55.582C46.7403 57.6619 49.8503 59.6812 53.0212 61.6399C55.4118 63.2307 58.056 64.4084 60.842 65.1232C61.2577 65.2535 61.6608 65.4207 62.0463 65.623C62.4579 66.9103 62.8086 68.1673 63.2507 69.3941C63.6928 70.6208 63.7995 71.9384 64.8362 72.8017L64.8972 72.6956Z" fill="#2B3D2D"/>
<path d="M35.7641 20.5977C35.8866 22.5545 35.8866 24.517 35.7641 26.4738C35.261 26.8222 34.9866 26.4739 34.6817 26.3981C34.2895 26.2083 33.85 26.1363 33.4172 26.1911C32.9843 26.2458 32.577 26.4249 32.2452 26.7063C31.9133 26.9877 31.6714 27.3592 31.549 27.7753C31.4267 28.1914 31.4293 28.6338 31.5565 29.0485C31.7852 29.8057 32.0596 30.563 32.2882 31.2899C32.3797 31.6382 32.4407 31.9866 32.5169 32.3198C32.2136 32.6149 31.9475 32.9454 31.7242 33.3042C29.971 37.6356 27.7757 41.7398 25.6261 45.8895C24.4218 48.2976 23.3546 50.7662 22.1503 53.1742C20.4581 56.5515 18.7049 59.9136 16.9822 63.2758C13.7909 69.3539 10.6707 75.432 7.6217 81.5102C7.34729 82.0251 7.1491 82.5703 6.88994 83.0247C6.63077 83.479 6.28013 84.1605 6.02097 84.6754C5.50263 84.6754 5.39592 84.418 5.39592 84.1151C5.36542 83.6815 5.36542 83.2463 5.39592 82.8126C5.5941 80.7075 5.79229 78.6175 6.03621 76.5275C6.3716 73.7863 6.64601 71.0451 7.1491 68.3342C7.65219 65.6232 8.38395 62.9578 9.06998 60.2923C9.71038 57.8283 10.5832 55.4299 11.6769 53.1288C13.0337 50.3118 14.2228 47.4192 15.5796 44.6022C18.3913 38.8729 21.8983 33.5071 26.0225 28.6244C27.6995 26.6102 29.5441 24.7473 31.3583 22.8542C32.1205 22.0667 32.9743 21.3398 33.7975 20.6582L35.7641 20.5977Z" fill="#89C5AC"/>
<path d="M3.24684 47.2821C3.47552 46.5854 3.71944 45.9039 3.94811 45.2224C4.17882 44.4601 4.4537 43.7117 4.77135 42.981C6.59389 39.1727 8.97802 35.6557 11.8451 32.5462C13.3696 31.0317 14.8941 29.5172 16.3119 28.0027C18.5428 26.2449 20.931 24.6937 23.4466 23.3684C24.0316 22.9351 24.7445 22.7061 25.4742 22.7172C24.3918 23.9893 23.2941 25.2464 22.227 26.5337C18.5046 31.0123 15.2794 35.8766 12.6073 41.0424C12.1805 41.8754 11.7688 42.7386 11.4182 43.617C9.89369 47.2367 8.27771 50.8108 6.98188 54.491C5.51712 58.7427 4.49543 63.1324 3.93287 67.5913C3.32651 71.454 3.03084 75.3586 3.04865 79.268C2.56081 79.268 2.43885 79.0257 2.34738 78.7833C1.39311 76.1895 0.663776 73.5193 0.167334 70.802C0.0653755 70.2319 0.00929947 69.6545 -0.000362087 69.0755C-0.000362087 66.9704 -0.0918325 64.8652 -0.000362087 62.7601C0.215532 58.6265 1.03197 54.5457 2.42361 50.6442C2.86223 49.5696 3.1396 48.4368 3.24684 47.2821Z" fill="#89C5AC"/>
<path d="M25.9151 22.3242L25.4883 22.7634L25.9151 22.3242Z" fill="#89C5AC"/>
<path d="M10.153 90.2032L9.43651 90.7333C9.52037 91.0285 9.64887 91.3093 9.81764 91.5662C10.4664 92.2525 11.17 92.8856 11.9215 93.4593C17.4588 97.3967 24.2461 99.2048 31.0235 98.548C37.0415 98.0901 42.8288 96.0517 47.7931 92.6415C50.8779 90.6669 53.7626 88.3997 56.4066 85.8718C58.0676 84.161 59.5964 82.3283 60.9801 80.3893C61.2698 79.9804 61.5747 79.6018 61.8948 79.1777C62.9132 80.4144 63.6608 81.8483 64.0901 83.388C64.2273 83.8726 64.3188 84.3876 64.4865 84.9025C64.6613 85.541 65.0755 86.0889 65.6441 86.4336C66.2127 86.7783 66.8926 86.8937 67.5441 86.7561C68.1957 86.6185 68.7695 86.2384 69.1478 85.6937C69.5261 85.149 69.6801 84.4812 69.5784 83.8272C69.5784 83.3274 69.4259 82.8276 69.3954 82.3127C69.1592 80.6601 69.1592 78.9827 69.3954 77.3301C70.7821 77.4345 72.1344 77.8102 73.3744 78.4356C74.8863 79.2155 76.0302 80.5531 76.5606 82.1613C76.8927 83.2042 76.8679 84.3269 76.4901 85.3543C76.1122 86.3817 75.4026 87.256 74.472 87.8406C72.6383 88.9598 70.5261 89.5473 68.374 89.5368C66.758 89.5368 65.1573 89.5368 63.5413 89.5368C63.0487 89.5061 62.5565 89.6031 62.1129 89.8181C61.6693 90.0331 61.2894 90.3589 61.0106 90.7635L61.8491 91.9751C62.5685 92.9105 62.9013 94.0835 62.7795 95.2544C62.6576 96.4254 62.0904 97.5059 61.1936 98.2754C60.1381 99.1818 58.9092 99.867 57.5805 100.29C54.6151 101.368 51.5519 102.159 48.4334 102.652C46.4159 102.957 44.3757 103.089 42.3354 103.046C36.6947 103.046 31.0693 103.046 25.4438 103.046C24.4224 103.046 23.4163 102.879 22.3948 102.789C21.9608 102.723 21.5227 102.688 21.0838 102.683C17.9452 102.597 14.8238 102.191 11.769 101.471C9.40399 101.008 7.11893 100.207 4.98495 99.0932C3.63873 98.3301 2.46574 97.2989 1.53956 96.0642C0.984713 95.3316 0.604496 94.4834 0.427564 93.5836C0.250633 92.6837 0.281604 91.7558 0.518142 90.8696C0.763836 89.7899 1.42619 88.8491 2.3628 88.2495C3.54135 87.3062 4.92433 86.6478 6.40274 86.3261C6.8074 86.5874 7.18981 86.8811 7.54612 87.2045C8.44558 88.2192 9.28406 89.2188 10.153 90.2032Z" fill="#F2BCAA"/>
<path d="M31.7399 42.7246C32.1363 43.497 32.5174 44.2391 32.8985 45.0418L35.5664 50.297L36.0847 51.3875C34.5602 51.5238 33.3711 51.9327 33.0357 53.6289C33.383 55.0258 34.0806 56.3127 35.0633 57.3697C35.8256 58.3389 36.5878 59.2779 37.3958 60.232C36.786 60.232 36.5269 60.6864 36.222 61.1104C34.423 63.579 32.6546 66.0628 30.8252 68.5163C28.3661 72.0381 25.5571 75.3056 22.4404 78.2695C19.9146 80.5597 17.1615 82.5894 14.2233 84.3275C13.2632 84.8486 12.276 85.3187 11.2658 85.7359C11.0136 85.7798 10.7557 85.7798 10.5035 85.7359C10.1681 85.1453 10.5035 84.797 10.7169 84.4335C12.3634 81.2682 14.0251 78.1332 15.6868 74.968C17.0741 72.3328 18.4767 69.7127 19.8335 67.0624C21.8458 63.1096 23.8582 59.1568 25.8096 55.1737C27.7609 51.1906 29.7428 46.95 31.7399 42.7246Z" fill="#89C5AC"/>
<path d="M37.3052 94.1716C36.1482 94.907 34.8412 95.3777 33.4787 95.5498C33.1238 95.6332 32.7609 95.6789 32.3963 95.6861C27.6174 96.0175 22.8171 95.5047 18.2184 94.1716C17.8253 94.0063 17.4521 93.798 17.1055 93.5506C17.4409 93.0812 17.9744 93.0812 18.4775 93.0054C21.6394 92.4351 24.7348 91.5471 27.716 90.3551C32.0335 88.6892 36.0575 86.3531 39.6377 83.4339C43.654 80.2665 47.241 76.5962 50.3093 72.5145C50.6205 72.0328 50.8907 71.5263 51.1172 71L57.7946 75.3163C58.1605 75.5434 58.5416 75.7858 58.5568 76.2855C58.2977 76.4218 57.9775 76.4824 57.8098 76.6793C56.575 78.0272 55.3401 79.3599 54.151 80.7381C51.3526 83.8853 48.2928 86.7933 45.004 89.4313C42.6078 91.269 40.028 92.8575 37.3052 94.1716Z" fill="#89C5AC"/>
<path d="M39.5309 62.8223C39.7231 62.9151 39.9024 63.0322 40.0645 63.1706C42.3518 65.3909 44.913 67.3145 47.687 68.8953C47.9244 69.0541 48.1487 69.2314 48.3578 69.4254C47.87 69.9555 47.3516 70.4704 46.8333 71.0308C42.7317 76.053 37.7536 80.3007 32.137 83.5707C29.5644 85.0885 26.8351 86.3273 23.9962 87.266C21.306 88.1401 18.5611 88.8382 15.7791 89.356C15.3327 89.3952 14.8838 89.3952 14.4375 89.356C14.9558 88.6745 15.6419 88.5533 16.1754 88.205C16.709 87.8567 17.1664 87.6144 17.6999 87.2963C21.8368 84.6915 25.5833 81.5202 28.8289 77.8762C31.3044 75.0073 33.5763 71.9711 35.6282 68.7893C36.5124 67.4414 37.4728 66.1693 38.357 64.8365C38.7534 64.2156 39.1193 63.5038 39.5309 62.8223Z" fill="#89C5AC"/>
<path d="M64.8371 72.8022C63.8004 71.939 63.709 70.5608 63.3126 69.3644C62.9162 68.1679 62.5199 66.8806 62.1082 65.5933C61.7227 65.391 61.3197 65.2238 60.9039 65.0935C58.1257 64.4162 55.4819 63.2796 53.0831 61.7314C49.9528 59.7121 46.8428 57.6927 43.7532 55.6734C43.1136 55.1947 42.5351 54.6403 42.0305 54.0226C41.8628 53.8561 41.878 53.5229 41.7865 53.0988C42.1701 53.0347 42.5617 53.0347 42.9452 53.0988C43.6238 53.3676 44.2811 53.6866 44.9118 54.0529C48.22 55.9157 51.5129 57.7937 54.8211 59.6414C55.5969 60.0507 56.3961 60.4148 57.2146 60.7318C58.2207 61.1407 59.2574 61.5042 60.2636 61.9131C60.3703 61.6405 60.538 61.4285 60.477 61.277C59.8672 59.3385 59.2269 57.4151 58.5714 55.4614L57.2908 55.0222C55.4998 54.3953 53.7824 53.5778 52.1684 52.5839C48.8876 50.5325 45.8231 48.1579 43.0214 45.4961C41.3848 43.834 39.9613 41.9773 38.7833 39.9682C38.707 39.8622 38.7833 39.6956 38.707 39.4382L39.3321 38.8627C39.7565 39.1559 40.1543 39.4853 40.5212 39.8471C44.523 44.422 49.4058 48.1553 54.8821 50.8271C55.3307 51.0737 55.8 51.2815 56.2846 51.448C56.6139 51.5519 56.9501 51.6329 57.2908 51.6903C57.367 51.4783 57.489 51.3269 57.4585 51.2209C57.1536 50.0244 56.8334 48.828 56.498 47.5709C54.4464 45.0355 52.1429 42.7116 49.6225 40.6346C48.4639 39.6502 47.2138 38.7415 45.9484 37.8631C44.1977 36.6671 42.5915 35.2747 41.1615 33.7134C40.5095 32.9348 39.9086 32.1153 39.3626 31.26C39.2296 30.9563 39.1422 30.6348 39.1034 30.3058C39.4845 30.3058 39.8047 30.1847 39.9876 30.3058C40.6206 30.6727 41.2132 31.1041 41.756 31.5932C43.7955 33.4699 46.0111 35.1486 48.3724 36.6061C50.0494 37.6359 51.6044 38.8627 53.2051 39.9834C53.5557 40.2257 53.9216 40.4074 54.3332 40.6498C54.5877 39.9292 54.5877 39.144 54.3332 38.4235C53.7387 35.7277 53.0831 33.0319 52.5801 30.321C51.8788 26.6105 51.2842 22.8849 50.6744 19.1592C50.4305 17.426 50.4305 15.6675 50.6744 13.9343C50.8064 13.4903 50.9906 13.0633 51.2232 12.6621C51.5434 12.9347 51.8635 13.071 51.9398 13.283C52.1167 13.832 52.2493 14.3942 52.3361 14.9641C52.6563 16.5998 52.9155 18.2506 53.2813 19.8862C54.1655 23.8541 55.0802 27.8221 55.995 31.79C56.1474 32.411 56.3151 33.0471 56.5285 33.8497C56.8182 33.5468 57.0774 33.3954 57.1536 33.1682C57.8701 31.0328 58.6781 28.8974 59.2117 26.7317C59.3783 25.8062 59.4751 24.8697 59.5013 23.9299C59.608 22.8394 59.7148 21.7642 59.8672 20.6889C59.8672 20.4466 60.1264 20.2194 60.3398 19.8408C60.6295 20.1437 60.9191 20.3103 60.9801 20.5374C61.2287 21.3685 61.4022 22.22 61.4984 23.0818C61.6511 24.5991 61.574 26.1306 61.2698 27.6252C60.8124 29.5335 60.4618 31.472 59.9587 33.3651C59.5093 35.173 58.7178 36.8793 57.6262 38.3932C58.1338 41.2991 58.873 44.1604 59.8367 46.95C60.0585 47.6256 60.2167 48.3202 60.3093 49.0249H60.538C60.6049 49.0022 60.6634 48.96 60.7057 48.9037C61.5289 47.056 62.4284 45.2235 63.1449 43.3304C63.7517 41.6238 64.2607 39.8844 64.6694 38.1206C65.02 36.7121 65.2182 35.2733 65.4926 33.7437L66.5903 33.6528C66.8479 35.9989 66.6931 38.3715 66.1329 40.6649C65.7746 43.0356 65.177 45.3645 64.3493 47.6164C63.6086 49.8453 62.6379 51.9921 61.4527 54.0226C62.5199 57.3545 63.587 60.6561 64.8828 63.8214C65.4926 63.8214 65.5994 63.4882 65.7823 63.2156C67.165 61.0694 68.2713 58.7595 69.0752 56.3398C70.0496 53.6768 70.7693 50.9285 71.2248 48.1313C71.2248 47.6618 71.3315 47.6164 71.987 46.8894C72.1281 47.0358 72.251 47.1985 72.3529 47.3741C72.8332 49.2115 72.8332 51.1403 72.3529 52.9777C71.8575 56.2892 70.9139 59.519 69.5478 62.5795C68.5874 64.6089 67.505 66.5929 66.3464 68.8191C66.3464 69.122 66.4988 69.6824 66.575 70.3336C66.6856 71.0562 66.5572 71.7949 66.2092 72.4388C66.0675 72.6587 65.8481 72.8179 65.5942 72.8852C65.3403 72.9525 65.0702 72.9229 64.8371 72.8022Z" fill="#89C5AC"/>
<path d="M37.3047 94.1712C40.0011 92.8526 42.5552 91.2643 44.9272 89.4309C48.216 86.7929 51.2758 83.8849 54.0743 80.7377C55.2634 79.3596 56.4983 78.0268 57.7331 76.6789C57.9008 76.482 58.2209 76.4215 58.4801 76.2852C58.8003 76.4063 59.2271 76.2852 59.3643 76.997C59.2719 77.2061 59.165 77.4085 59.0442 77.6028C56.4257 81.2839 53.2473 84.5385 49.6227 87.25C47.5044 88.9076 45.2789 90.4253 42.9606 91.7935C41.2174 92.8851 39.3072 93.6881 37.3047 94.1712Z" fill="#F1EBDF"/>
</g>
<defs>
<clipPath id="clip0">
<rect width="79" height="103" fill="white"/>
</clipPath>
</defs>
</svg>
