<svg width="144" height="104" viewBox="0 0 144 104" fill="none" xmlns="http://www.w3.org/2000/svg">
<path d="M7.0543 101.263C6.78467 100.794 6.64258 100.261 6.64258 99.7173C6.64258 99.1741 6.78467 98.6406 7.0543 98.1715C7.60977 97.3012 8.34449 96.5637 9.20773 96.0101C11.5721 94.6402 14.2161 93.8443 16.9332 93.6846C17.9291 93.6846 18.952 93.5204 20.0825 93.4383C20.6655 92.1285 21.3308 90.8582 22.0745 89.6354C22.8997 88.653 23.7998 87.7382 24.7662 86.8994C27.458 86.5437 30.419 86.2428 33.2185 85.8597C38.3059 85.1758 43.3934 84.3003 48.5078 83.8078C51.976 83.5615 55.4568 83.5615 58.925 83.8078C60.6295 83.8672 62.2512 84.5694 63.4741 85.7777C64.1843 86.4439 64.7233 87.2767 65.0441 88.2033C65.3648 89.1299 65.4575 90.1223 65.3142 91.0937C65.1708 92.0652 64.7957 92.9862 64.2216 93.7764C63.6475 94.5666 62.8918 95.202 62.0206 95.6271C56.2369 98.5494 49.9444 100.288 43.5011 100.743C40.8093 100.743 38.1175 101.455 35.4257 101.838C34.933 101.989 34.4288 102.099 33.9183 102.166C26.4352 102.166 19.0058 103.397 11.5227 102.987C10.6985 103.056 9.86955 102.938 9.0964 102.639C8.32325 102.341 7.62552 101.871 7.0543 101.263Z" fill="#F2BCAA"/>
<path d="M78.55 5.88429C78.7888 5.4973 79.0589 5.13123 79.3576 4.78991C79.667 4.55028 80.0453 4.42049 80.4343 4.42049C80.8233 4.42049 81.2016 4.55028 81.511 4.78991C82.48 5.39182 83.4491 5.99373 84.3912 6.623C84.8488 6.8966 85.2526 7.19755 85.7909 7.55322L87.5406 6.23997C88.0353 5.7789 88.6233 5.43339 89.2633 5.22767C89.5192 5.13602 89.7914 5.10081 90.0617 5.12436C90.332 5.14792 90.5943 5.22972 90.8312 5.3643C91.068 5.49889 91.2739 5.68318 91.4352 5.90493C91.5965 6.12667 91.7095 6.38078 91.7667 6.65036L93.1395 10.9732C93.7586 12.9157 94.3239 14.8856 94.943 16.8281C95.2391 17.7036 95.589 18.5791 95.912 19.564C95.5621 20.0018 95.912 20.4395 95.912 20.8226C96.5311 22.984 97.2041 25.118 97.8232 27.2794C99.0883 31.5201 100.838 35.4873 102.13 39.8374C103.422 44.1876 105.145 48.6198 106.652 52.9974C106.652 53.353 106.948 53.6813 107.083 53.9549H109.129C109.989 54.5638 110.974 54.9661 112.009 55.1314C112.578 55.5567 113.181 55.9319 113.812 56.2531C115.32 56.9371 116.854 57.5117 118.335 58.1957C119.041 58.3937 119.683 58.7811 120.192 59.3174C120.141 59.717 120.141 60.1216 120.192 60.5212C120.246 61.9187 120.192 63.3184 120.03 64.7072C120.03 65.9658 120.03 67.2243 120.03 68.4828C120.03 69.7414 120.273 71.5471 120.38 73.0792C120.38 73.4076 120.38 73.7632 120.38 74.0915L120.865 79.8097C120.084 79.8097 119.788 79.3446 119.546 78.7427L118.012 74.5566C117.723 74.955 117.554 75.4304 117.527 75.9246C117.258 76.9643 117.043 77.9766 116.773 78.9889C116.741 79.2138 116.632 79.4199 116.464 79.5703C116.297 79.7206 116.082 79.8055 115.858 79.8097C115.024 79.3719 114.781 78.4964 114.405 77.7303C114.096 77.0537 113.826 76.3594 113.597 75.651C113.597 75.4595 113.409 75.2954 113.193 74.9123C112.924 75.9246 112.736 76.7454 112.52 77.6483C112.305 78.5511 112.278 78.5511 112.17 78.9889C112.144 79.1944 112.045 79.383 111.891 79.5191C111.737 79.6551 111.54 79.7293 111.336 79.7276C110.825 79.7276 110.609 79.3993 110.502 79.0163C110.286 78.1955 110.071 77.3747 109.936 76.5539C109.586 74.6661 109.29 72.7783 108.994 70.8631C108.994 70.5348 108.994 70.2065 108.779 69.8782C109.506 69.0574 109.344 68.2366 108.429 68.0724C107.853 67.9547 107.267 67.8905 106.679 67.8809C103.754 67.8809 100.82 67.8262 97.877 67.7168H92.305H85.9255C85.6825 67.7213 85.4421 67.6649 85.2257 67.5526L82.157 65.4733C81.7647 65.2333 81.3604 65.0141 80.9457 64.8167C80.8648 64.7684 80.7752 64.7372 80.6821 64.7248C80.5891 64.7125 80.4946 64.7192 80.4042 64.7448C80.3138 64.7703 80.2293 64.814 80.1559 64.8734C80.0824 64.9327 80.0215 65.0065 79.9767 65.0903C79.7075 65.4733 79.9767 65.829 80.192 66.1026L82.8838 68.4008L83.5567 68.4281C83.6941 68.5278 83.7985 68.6674 83.8561 68.8286C83.9138 68.9898 83.922 69.1649 83.8798 69.331C83.8389 69.7312 83.8389 70.1346 83.8798 70.5348C83.8798 72.0669 84.0951 73.5991 84.1758 75.1312C84.1758 75.7605 84.1758 76.3897 84.1758 76.9916C84.1758 77.5936 84.445 78.8521 84.5796 79.7276C84.3177 79.7039 84.0691 79.5995 83.8671 79.4284C83.6651 79.2573 83.5192 79.0276 83.4491 78.77L81.6994 74.7482C81.5478 74.2106 81.2378 73.7332 80.8111 73.3802C80.8111 74.3378 80.6496 75.2406 80.5958 76.1161C80.5419 76.9916 80.5958 77.5936 80.4074 78.3596C80.3839 78.5938 80.2918 78.8155 80.1431 78.996C79.9943 79.1765 79.7957 79.3074 79.5729 79.3719C79.1153 79.5361 78.7923 79.3719 78.5231 78.9342C78.2593 78.6002 78.0251 78.2431 77.8232 77.8671C77.1772 76.718 76.585 75.5416 75.9659 74.3925C75.7775 74.0095 75.5621 73.6538 75.266 73.1339L74.2701 78.6059C74.2833 78.6966 74.2833 78.7887 74.2701 78.8794C74.2339 79.0662 74.1422 79.2371 74.0074 79.3692C73.8727 79.5013 73.7013 79.5882 73.5164 79.6182C73.3283 79.6429 73.1379 79.5947 72.9833 79.4832C72.8286 79.3716 72.721 79.2049 72.6819 79.0163C72.4666 78.2228 72.2512 77.402 72.0897 76.6086C71.9282 75.8152 71.7936 74.6935 71.6591 73.7359C71.4168 72.2037 71.1476 70.6716 70.9323 69.1395C70.69 67.1696 70.3939 65.1997 70.2593 63.2298C70.2278 62.2047 70.2909 61.1787 70.4477 60.1655C70.5071 59.9026 70.6254 59.6571 70.7935 59.4483C70.9616 59.2395 71.1749 59.0729 71.4168 58.9617C72.7822 58.0103 74.2553 57.2295 75.8044 56.6362C75.8044 56.6362 76.0736 56.6362 76.1543 56.6362L77.9309 55.2135C77.9309 54.2012 77.7156 53.3804 77.6348 52.4775C77.5541 51.5747 77.6348 50.8907 77.6348 50.0972C77.6348 49.3038 77.4464 48.0179 77.3387 47.0056C77.231 45.9933 77.1503 45.5829 77.0426 44.8716C76.8542 43.4763 76.6389 42.1356 76.4504 40.7129C76.4504 39.7827 76.4504 38.8251 76.2082 37.977C75.7506 34.8854 75.293 31.7937 74.7546 28.7295C74.6895 28.348 74.5454 27.9849 74.332 27.6641C74.1185 27.3434 73.8405 27.0724 73.5164 26.869C71.6591 25.8567 69.8556 24.7897 67.9982 23.8048L59.3307 19.6188C59.0596 19.5473 58.8158 19.3948 58.6308 19.181C58.2001 18.2508 57.8233 17.3206 57.3657 16.2262C57.6202 16.2637 57.872 16.3185 58.1194 16.3903L65.1988 19.1263C67.589 20.0425 70.0582 20.7295 72.5743 21.1783C72.923 21.2555 73.2851 21.2434 73.6281 21.1431C73.9711 21.0429 74.2842 20.8575 74.5393 20.6037C75.7389 19.4461 76.66 18.023 77.231 16.4451C77.7156 15.2412 77.231 13.928 75.4006 13.928C74.297 13.928 73.1934 13.928 72.0897 13.928C70.8228 13.8827 69.562 13.7271 68.3212 13.4629C64.5527 12.5053 60.7842 11.4656 56.9888 10.4533C56.6304 10.4262 56.2705 10.4262 55.9121 10.4533C55.9121 9.49575 56.1275 8.53817 56.289 7.71738C56.4505 6.89659 56.612 5.82957 56.8273 4.98143C56.8397 4.64962 56.929 4.32548 57.0881 4.03544C57.2471 3.74541 57.4714 3.49769 57.7425 3.3125C58.0385 3.36614 58.3176 3.49098 58.5564 3.67661C58.7952 3.86223 58.9869 4.10325 59.1153 4.37952L60.6227 7.11547C60.9552 6.62987 61.3147 6.164 61.6994 5.72014C62.1368 5.20677 62.6238 4.73932 63.153 4.3248C63.5586 4.02701 64.0586 3.89291 64.5559 3.94852C65.0533 4.00412 65.5126 4.24547 65.8448 4.62576C66.8408 5.63806 67.8098 6.70508 68.7519 7.74474C69.0967 8.10198 69.554 8.32472 70.044 8.37401C71.6591 8.62024 73.2741 8.97592 74.8892 9.30423C74.9314 9.65443 75.0562 9.98908 75.253 10.2797C75.4499 10.5703 75.7129 10.8082 76.0197 10.9732C76.145 11.1607 76.3083 11.3187 76.4986 11.4367C76.689 11.5547 76.902 11.6299 77.1234 11.6571C77.4831 11.8004 77.8518 11.9192 78.227 12.0128C78.7012 12.0543 79.1777 11.9673 79.608 11.7607C80.0383 11.554 80.407 11.2351 80.6765 10.8364C80.8473 10.6877 80.9601 10.482 80.9947 10.2562C81.0293 10.0304 80.9832 9.7995 80.865 9.60519C80.4058 8.55447 79.7982 7.57748 79.0615 6.70508C78.9269 6.45884 78.7384 6.15789 78.55 5.88429ZM86.0332 14.4752C86.4476 14.8238 86.9767 14.9997 87.5137 14.9676C87.9135 15.0492 88.3181 15.104 88.725 15.1318C89.6126 15.1159 90.4752 14.83 91.2014 14.311C91.5841 14.0627 91.8588 13.6748 91.9689 13.227C92.0791 12.7792 92.0163 12.3056 91.7936 11.9034C91.6052 11.5204 91.3629 11.1647 91.1476 10.7816C90.8955 10.2919 90.5034 9.89117 90.0229 9.63233C89.5424 9.37348 88.9961 9.26864 88.4558 9.33159C87.412 9.32638 86.3689 9.39035 85.3333 9.52311C84.7885 9.5836 84.2487 9.68418 83.7182 9.82406C83.0722 10.0156 82.803 10.3165 82.9107 10.9458C82.899 11.2406 82.9535 11.5343 83.0701 11.8045C83.1867 12.0747 83.3623 12.3144 83.5837 12.5053L83.9605 12.9157C84.4576 13.6592 85.1884 14.209 86.0332 14.4752ZM97.7963 44.5706L79.3845 49.2765C79.1153 50.6718 79.8959 51.6841 80.2189 52.9426L98.4692 49.7142C98.5158 48.0012 98.2885 46.2918 97.7963 44.6527V44.5706ZM78.9538 47.3066C82.0763 46.5405 85.0911 45.8018 88.0789 44.981C91.0668 44.1602 94.1085 43.3395 97.1772 42.4913L96.5311 40.3299H95.9928L91.8205 41.0686L84.795 42.2998C83.0722 42.5734 81.2956 42.7649 79.5729 43.1206C79.1691 43.1206 78.5231 42.9838 78.2808 43.5857L78.9538 47.3066ZM98.6307 54.7484V52.0124C95.6159 52.4775 92.6819 52.97 89.7209 53.353C86.76 53.7361 83.8259 54.0644 80.865 54.7484L82.9646 58.1136C88.1866 57.156 93.3279 55.7607 98.6307 54.7484ZM93.4356 35.0495C88.5096 35.9524 83.476 36.7185 78.4424 37.7855C78.4424 38.7978 78.0655 39.728 78.4424 40.7129C84.0951 39.7554 89.8017 39.3176 95.4275 38.2779C94.9956 37.0708 94.3167 35.9704 93.4356 35.0495ZM78.7923 35.5967L91.6321 32.8608C90.8365 31.8538 89.7705 31.103 88.5635 30.6994C87.1531 30.2395 85.647 30.1733 84.2028 30.5078C83.398 30.6143 82.6221 30.8819 81.9198 31.2952C81.2175 31.7084 80.6028 32.2592 80.1113 32.9155C79.4491 33.677 78.9944 34.6014 78.7923 35.5967ZM83.9336 59.1259C84.4998 59.7207 85.2029 60.1626 85.9793 60.4118C87.7215 60.9559 89.5418 61.1965 91.3629 61.1231C92.7195 61.1549 94.0501 60.7424 95.1583 59.9467C95.912 59.4268 96.6657 58.8797 97.3925 58.2777C97.6401 58.1025 97.8427 57.8694 97.9832 57.598C98.1238 57.3266 98.1981 57.0249 98.2 56.7183L83.9336 59.1259Z" fill="#F6C168"/>
<path d="M4.60742 85.5563C4.98427 84.6808 5.3342 83.778 5.68414 82.8204C6.49167 80.7684 7.32612 78.7164 8.10674 76.6645C9.6949 72.5058 11.2561 68.4566 12.8712 64.2159C14.2709 60.6592 15.563 57.1298 17.1781 53.6004C17.7433 52.2324 18.5239 50.8645 19.1431 49.5786C19.7622 48.2927 20.3274 46.8426 20.9196 45.3652C21.5118 43.8878 22.3194 42 23.1538 40.3584C23.9883 38.7168 24.5805 37.0479 25.2803 35.379C26.5186 32.3694 27.7837 29.3599 28.9681 26.3504C30.5562 22.3832 32.3328 18.5255 34.3516 14.7226C34.89 13.6282 35.4822 12.5612 36.0206 11.4941C36.0206 11.4941 36.3166 11.4941 36.3705 11.4941C37.229 12.5481 38.0117 13.6636 38.7123 14.832C39.9236 17.0208 41.0542 19.2916 42.1309 21.5624C43.6652 24.7088 45.1188 27.9098 46.5993 31.0835C47.476 33.1753 47.9861 35.4068 48.1067 37.6772C48.1067 38.3338 48.2951 39.0178 48.4028 39.7018C48.5912 41.0424 48.9142 42.4377 48.968 43.7236C48.9954 45.2212 48.9415 46.7191 48.8065 48.2106C48.7851 48.8072 48.7222 49.4014 48.6181 49.989C48.3489 51.4664 48.0259 52.9438 47.7298 54.4486C47.251 57.0017 46.6218 59.5233 45.8456 61.9998C45.2712 63.9702 44.36 65.8224 43.1538 67.4717C42.7769 67.9642 42.5078 68.5387 42.1578 69.0312C41.6811 69.8229 41.1409 70.5732 40.5428 71.2747C39.2238 72.6974 37.851 74.0106 36.4512 75.4059C35.4681 76.4591 34.3553 77.3787 33.1403 78.1419C31.9021 78.7712 30.7447 79.5919 29.4795 80.2759C27.6154 81.3237 25.6816 82.2379 23.6922 83.0119C20.5292 84.0916 17.2474 84.7716 13.921 85.0365C12.1175 85.228 10.314 85.3374 8.53743 85.4195C7.21845 85.6384 5.9264 85.5563 4.60742 85.5563ZM29.4526 67.8547V67.7179C29.6677 67.7316 29.8835 67.7316 30.0986 67.7179C30.4985 67.6693 30.877 67.5076 31.1911 67.2513C31.5051 66.995 31.7421 66.6543 31.8752 66.2679C31.9936 65.9272 32.0054 65.5576 31.9091 65.2098C31.8127 64.8621 31.6128 64.5531 31.3368 64.3253C30.8108 63.8457 30.2105 63.4575 29.5603 63.1762C28.0798 62.547 26.5724 62.0271 25.065 61.4526C24.3036 61.14 23.5209 60.884 22.7231 60.6865C22.3326 60.5884 21.9218 60.6146 21.5463 60.7613C21.1709 60.9081 20.8488 61.1685 20.6235 61.5073C20.4257 61.8319 20.3209 62.2062 20.3209 62.588C20.3209 62.9699 20.4257 63.3441 20.6235 63.6687C20.9532 64.2773 21.4888 64.7439 22.1309 64.982C23.8537 65.748 25.5764 66.4594 27.3261 67.1434C27.9721 67.4443 28.7258 67.6085 29.4526 67.8547ZM40.4889 61.5073C40.7961 61.5198 41.1023 61.4661 41.3876 61.3497C41.6729 61.2334 41.9308 61.057 42.1443 60.8323C42.3578 60.6075 42.5222 60.3394 42.6266 60.0455C42.731 59.7516 42.773 59.4386 42.75 59.127C42.7228 58.7184 42.616 58.3193 42.4358 57.9529C42.2556 57.5866 42.0056 57.2603 41.7002 56.993C40.785 55.9807 39.816 55.0231 38.82 54.0655C38.3125 53.5213 37.6714 53.1247 36.9627 52.9164C36.4712 52.7112 35.9199 52.7112 35.4284 52.9164C35.1695 53.057 34.9483 53.2596 34.7839 53.5067C34.6196 53.7538 34.517 54.038 34.4852 54.3345C34.4534 54.6311 34.4932 54.931 34.6013 55.2083C34.7094 55.4857 34.8824 55.732 35.1053 55.926C35.4014 56.2817 35.7514 56.61 36.0206 56.993C36.7743 58.0327 37.501 59.127 38.2547 60.1941C38.4891 60.5857 38.8165 60.9111 39.2069 61.1406C39.5973 61.3701 40.0381 61.4962 40.4889 61.5073ZM33.1134 42.6293C33.7226 42.6897 34.3374 42.6132 34.9142 42.4052C35.4911 42.1972 36.0158 41.8627 36.4512 41.4254C36.7677 41.0495 36.9547 40.5789 36.9839 40.085C37.013 39.5912 36.8827 39.1012 36.6127 38.6895C36.4074 38.3783 36.1414 38.1133 35.8311 37.911C35.5209 37.7086 35.1731 37.5732 34.8092 37.513C33.9183 37.3747 33.0187 37.3016 32.1175 37.2942C31.4723 37.2857 30.8456 37.5131 30.3515 37.935C29.8574 38.3568 29.5289 38.945 29.4257 39.5924C29.3968 40.1924 29.563 40.7854 29.8987 41.2799C30.2344 41.7744 30.7208 42.1428 31.283 42.3283C31.9026 42.4772 32.5326 42.5778 33.1673 42.6293H33.1134ZM21.1888 71.4662H20.9735C19.3322 71.8425 17.7479 72.4407 16.2628 73.2445C15.9673 73.3874 15.7378 73.641 15.6223 73.9522C15.5069 74.2634 15.5146 74.6079 15.6437 74.9135C15.7603 75.2393 15.9788 75.5174 16.2656 75.7051C16.5524 75.8929 16.8918 75.98 17.2319 75.9531C18.2009 75.9531 19.1969 75.7616 20.139 75.5701C20.8346 75.423 21.5056 75.1742 22.1309 74.8314C22.4926 74.6436 22.7774 74.332 22.935 73.9515C23.0926 73.5711 23.1129 73.1463 22.9923 72.7521C22.8737 72.3653 22.6325 72.0294 22.3062 71.7967C21.9799 71.5641 21.587 71.4478 21.1888 71.4662ZM25.7649 52.8344C27.1967 52.6713 28.5951 52.2837 29.9102 51.6853C30.3383 51.487 30.6764 51.131 30.8562 50.6892C31.0361 50.2474 31.0443 49.7527 30.8792 49.305C30.7056 48.8794 30.3868 48.5318 29.9814 48.3257C29.576 48.1197 29.1111 48.0691 28.672 48.1832C27.6402 48.4945 26.6249 48.8598 25.6303 49.2776C25.1822 49.4867 24.7796 49.7843 24.4459 50.1531C24.1824 50.3983 24.0114 50.7292 23.9623 51.0888C23.9131 51.4484 23.989 51.8142 24.1767 52.123C24.3341 52.3964 24.5723 52.6123 24.8575 52.74C25.1426 52.8677 25.4602 52.9007 25.7649 52.8344ZM39.6814 44.6265C39.6758 45.4 39.8884 46.1589 40.2939 46.8134C40.6993 47.468 41.2808 47.9908 41.9694 48.32C42.3372 48.4854 42.746 48.5321 43.1407 48.4538C43.5354 48.3756 43.897 48.1761 44.1767 47.8823C44.4425 47.5968 44.6078 47.2299 44.6468 46.8389C44.6857 46.4478 44.5961 46.0547 44.392 45.7209C43.8597 44.6494 43.0959 43.7141 42.1578 42.9849C41.9464 42.8107 41.6925 42.6979 41.4231 42.6585C41.1536 42.6191 40.8787 42.6546 40.6276 42.7612C40.3764 42.8678 40.1583 43.0415 39.9964 43.264C39.8346 43.4864 39.735 43.7493 39.7083 44.0246C39.68 44.233 39.671 44.4437 39.6814 44.6539V44.6265ZM38.1201 32.4789C38.4015 32.5275 38.6904 32.4635 38.9263 32.3002C39.1622 32.137 39.3267 31.8872 39.3853 31.6034C39.4799 31.3382 39.4799 31.0477 39.3853 30.7826C38.8323 29.4541 38.0583 28.2325 37.0973 27.1711C36.8746 26.9565 36.5918 26.8175 36.2879 26.7734C35.9841 26.7293 35.6744 26.7822 35.4014 26.9249C35.1085 27.078 34.8825 27.337 34.7679 27.6509C34.6533 27.9648 34.6585 28.3109 34.7823 28.6212C35.2236 29.8318 35.9011 30.9393 36.7743 31.877C36.9431 32.0714 37.15 32.2278 37.3818 32.3362C37.6135 32.4446 37.865 32.5025 38.1201 32.5062V32.4789Z" fill="#E9887E"/>
<path d="M36.6375 10.4552C36.7063 10.223 36.7871 9.99465 36.8797 9.77118C37.8488 7.85602 38.8986 5.99557 39.7061 3.99833C40.1637 2.84923 40.7559 1.75485 41.3212 0.66047C41.5549 0.352387 41.8857 0.135325 42.2582 0.0456653C42.6306 -0.0439948 43.0221 -0.000804053 43.3669 0.167999C43.9079 0.409748 44.3869 0.774853 44.7667 1.23502L47.3239 3.97097C47.8084 4.4908 48.2391 5.03799 48.7505 5.55782C48.9114 5.67408 49.0826 5.77483 49.262 5.85878C49.1582 6.06157 49.104 6.2868 49.104 6.5154C49.104 6.744 49.1582 6.96924 49.262 7.17203C50.4194 9.25135 51.5769 11.358 52.6805 13.4647C53.7842 15.5714 54.6455 16.9667 55.3723 18.9366C56.3952 21.2895 57.2296 23.7519 58.0641 26.1869C58.8986 28.6219 59.4369 30.2908 60.0022 32.3975C60.5675 34.5042 60.8905 36.091 61.2404 37.8694C61.4827 39.2921 61.6442 40.6054 61.8326 42.1375C62.2591 44.6298 62.3766 47.1667 62.1825 49.6887C61.9403 51.6312 61.7788 53.6011 61.5903 55.5436C61.4741 56.6991 61.1454 57.822 60.6213 58.8541C60.2212 59.6543 59.9141 60.499 59.7061 61.3712C59.4892 62.2983 59.2196 63.2118 58.8986 64.1072C58.2794 65.7214 57.5796 67.3356 56.9066 68.9224C56.5877 69.7384 56.2191 70.5333 55.803 71.3027C54.4586 73.6898 52.9473 75.9756 51.2808 78.1426C50.0943 79.7391 48.818 81.2647 47.4585 82.7116C46.8124 83.3683 46.1933 84.107 45.4935 84.7089C44.7936 85.3108 43.2324 86.4325 42.1556 87.4448C41.0772 88.3322 39.8924 89.0769 38.6294 89.6609C37.0951 90.3997 35.5069 91.111 33.9188 91.7129C31.6577 92.5337 29.3697 93.2724 27.0816 93.929C24.6386 94.6399 22.1461 95.1613 19.6254 95.4885L14.2418 96.2272C13.2459 96.2272 12.2768 96.2272 11.2809 96.4461L7.16244 96.7744C6.0588 96.7744 4.92826 96.7744 3.82462 96.7744C3.14705 96.769 2.47067 96.8332 1.80578 96.9659C1.52756 96.9869 1.26024 97.0847 1.03258 97.2486C0.804919 97.4125 0.625535 97.6364 0.513727 97.8962C0.404475 97.8499 0.306148 97.7806 0.225272 97.6928C0.144396 97.605 0.0828209 97.5007 0.0446348 97.3868C0.00644882 97.273 -0.007475 97.1522 0.00378762 97.0325C0.0150502 96.9127 0.0512417 96.7968 0.10996 96.6924C0.691047 94.0251 1.66189 91.4613 2.99017 89.0864C2.99017 89.0864 2.99017 88.9222 2.99017 88.8402H4.06688C4.35695 88.9301 4.65417 88.9942 4.95517 89.0317C6.97401 89.0317 9.01977 89.0317 11.0386 88.8128C12.5998 88.8128 14.1342 88.5118 15.6954 88.293C17.2566 88.0741 19.1409 87.8552 20.8367 87.4722C24.6316 86.6262 28.3107 85.3123 31.7923 83.5598C33.59 82.6179 35.3094 81.529 36.9336 80.304C38.3769 79.2873 39.7363 78.1527 40.9982 76.9114C41.7519 76.118 42.5594 75.3246 43.34 74.5311C45.4171 72.2749 47.0848 69.6628 48.266 66.8158C48.5272 66.1213 48.8329 65.4449 49.1812 64.7912C49.5362 64.2623 49.8086 63.6809 49.9887 63.0675C50.3476 61.7907 50.6707 60.5048 50.9578 59.2098C51.5393 56.9581 51.9354 54.6611 52.1422 52.3426C52.1422 51.5765 52.1422 50.7831 52.3575 50.017C52.6258 48.2984 52.734 46.558 52.6805 44.8187C52.6805 44.3536 52.6805 43.8885 52.519 43.4234C52.3575 42.1648 52.2768 40.8789 52.0076 39.6478C51.6038 37.6779 51.0655 35.7354 50.6617 33.7928C49.9085 30.3628 48.7517 27.0375 47.2162 23.8887C46.1436 21.6446 44.9204 19.478 43.5554 17.4045C42.1018 15.2157 40.4867 13.0543 39.087 10.975C38.986 10.7859 38.8462 10.6211 38.6772 10.4916C38.5082 10.362 38.3138 10.2709 38.1072 10.2242C37.9005 10.1775 37.6864 10.1764 37.4793 10.221C37.2722 10.2656 37.077 10.3547 36.9067 10.4825C36.9067 10.4825 36.7182 10.4278 36.6375 10.4552Z" fill="#89C5AC"/>
<path d="M0.781264 97.8687C0.893071 97.6089 1.07246 97.3851 1.30012 97.2212C1.52778 97.0572 1.7951 96.9595 2.07332 96.9385C2.73821 96.8058 3.41459 96.7416 4.09216 96.747C5.19579 96.747 6.32634 96.747 7.42997 96.747L11.5484 96.4187C12.5444 96.4187 13.5134 96.4187 14.5094 96.1998L19.8929 95.4611C22.4136 95.1338 24.9062 94.6125 27.3492 93.9016C29.6372 93.245 31.9252 92.5063 34.1863 91.6855C35.7745 91.0836 37.3626 90.3722 38.8969 89.6335C40.1599 89.0495 41.3448 88.3048 42.4232 87.4174C43.4999 86.4872 44.6843 85.6938 45.761 84.6815C46.8377 83.6692 47.08 83.3409 47.726 82.6842C49.0856 81.2372 50.3618 79.7117 51.5483 78.1152C53.2149 75.9482 54.7262 73.6624 56.0705 71.2753C56.4867 70.5059 56.8553 69.711 57.1742 68.895C57.8471 67.3082 58.547 65.694 59.1661 64.0798C59.4871 63.1844 59.7568 62.2709 59.9736 61.3438C60.1816 60.4715 60.4888 59.6269 60.8888 58.8267C61.4129 57.7946 61.7416 56.6717 61.8579 55.5162C62.0463 53.5737 62.2078 51.6038 62.4501 49.6613C62.6153 47.1449 62.4706 44.6174 62.0194 42.1374C61.831 40.7147 61.6694 39.4015 61.4272 37.8694C61.0773 36.0089 60.7004 34.1485 60.189 32.3974C59.6775 30.6464 58.9507 28.2388 58.2509 26.1868C57.551 24.1349 56.582 21.2895 55.5591 18.9366C54.8054 17.1035 53.7825 15.3798 52.8673 13.6015C51.9521 11.8231 50.6062 9.38811 49.4487 7.30878C49.3449 7.10599 49.2907 6.88075 49.2907 6.65215C49.2907 6.42356 49.3449 6.19832 49.4487 5.99553C49.4487 5.66721 49.7448 5.99553 49.8794 5.99553C50.687 6.76159 51.5214 7.5003 52.2751 8.34844C53.0288 9.19659 53.5403 10.0447 54.1324 10.8929C54.7246 11.741 55.3976 12.7533 56.0705 13.6288C56.2813 13.9356 56.5831 14.1657 56.9319 14.2855L63.4729 16.8299C65.3754 17.6388 67.3493 18.2618 69.368 18.6903C70.3101 18.6903 71.2522 18.9639 72.2212 19.0187C72.603 19.0649 72.9896 18.993 73.3306 18.8124C73.6716 18.6318 73.951 18.3509 74.1324 18.0064C74.4016 17.5139 74.7246 17.0488 74.9938 16.5563C75.263 16.0638 75.2899 15.8723 75.4783 15.4619C75.2724 15.4411 75.0651 15.4411 74.8592 15.4619C72.8256 15.8858 70.7286 15.8858 68.695 15.4619C64.6671 14.8079 60.7515 13.5734 57.0665 11.7957L56.259 11.3306C56.183 11.2969 56.1152 11.2466 56.0605 11.1833C56.0057 11.12 55.9654 11.0452 55.9423 10.9643C55.9191 10.8833 55.9138 10.7982 55.9267 10.715C55.9396 10.6317 55.9703 10.5523 56.0167 10.4825C56.3751 10.4553 56.735 10.4553 57.0934 10.4825C60.8888 11.4948 64.6573 12.5344 68.4258 13.492C69.6666 13.7562 70.9274 13.9119 72.1943 13.9571C73.298 13.9571 74.4016 13.9571 75.5052 13.9571C77.2818 13.9571 77.8202 15.2704 77.3356 16.4742C76.7646 18.0522 75.8435 19.4752 74.6439 20.6329C74.3888 20.8866 74.0757 21.072 73.7327 21.1723C73.3897 21.2726 73.0276 21.2847 72.6788 21.2074C70.1272 20.7742 67.6216 20.0963 65.1957 19.1828L58.1163 16.4469C57.869 16.375 57.6172 16.3202 57.3626 16.2827C57.8202 17.3771 58.197 18.3073 58.6277 19.2375C58.7834 19.4343 58.9878 19.5854 59.2199 19.6753L67.7798 24.1349C69.6371 25.1198 71.4406 26.1868 73.298 27.1991C73.6221 27.4025 73.9001 27.6735 74.1136 27.9943C74.327 28.315 74.4711 28.6781 74.5362 29.0596C75.0745 32.1239 75.5321 35.2155 75.9897 38.3071C75.9897 39.21 75.9897 40.1675 76.232 41.0431C76.4204 42.4384 76.6358 43.779 76.8242 45.2017C76.8242 45.913 77.0395 46.6244 77.1203 47.3357C77.201 48.0471 77.3356 49.3877 77.4164 50.4274C77.4971 51.467 77.4164 52.0142 77.4164 52.8076C77.4164 53.6011 77.6048 54.4766 77.7125 55.5436L75.9359 56.9663C75.9359 56.9663 75.6936 56.9663 75.586 56.9663C75.0272 56.1711 74.7518 55.206 74.8054 54.2303C74.8054 53.6558 74.8054 53.1086 74.6708 52.4246C71.6243 53.9133 68.4418 55.0954 65.1688 55.954C64.7392 56.8716 64.4922 57.8665 64.442 58.8815C63.7372 62.3713 62.6912 65.7808 61.3195 69.0592C60.2162 71.6139 58.8826 74.0594 57.3357 76.3642C57.1406 76.6552 56.9608 76.9566 56.7973 77.267C55.4642 79.7833 53.7876 82.0952 51.8175 84.1343C50.3909 85.7211 48.8565 87.2259 47.3222 88.7307C46.0697 89.8439 44.6641 90.7656 43.15 91.4666C40.4582 92.7252 38.0356 93.9837 35.4245 95.1054C32.9689 96.1396 30.4167 96.9187 27.8068 97.431C23.2038 98.4433 18.5201 99.1546 13.8633 99.8934C12.0759 100.122 10.2672 100.122 8.47977 99.8934C6.73011 99.6745 4.95353 99.6198 3.0962 99.4556C2.66794 99.4132 2.24443 99.3308 1.83106 99.2094C1.53203 99.1408 1.26498 98.9706 1.07408 98.7268C0.883188 98.483 0.779885 98.1803 0.781264 97.8687ZM71.7636 51.084L74.6977 49.7434C74.6977 48.7584 74.6977 47.8829 74.6977 47.0074C74.5631 45.3111 74.3478 43.6148 74.2132 41.8912C74.2132 40.7147 74.0517 39.5383 73.9978 38.3618C73.9633 38.2743 73.9181 38.1916 73.8632 38.1156C73.7017 36.1183 73.5671 34.1211 73.4056 32.1239L73.1634 29.5794C68.7129 26.9164 64.2805 24.2443 59.866 21.5631C61.728 26.3958 63.1691 31.3852 64.1728 36.474C64.2474 36.8096 64.4049 37.1203 64.6304 37.3769C65.1957 37.9788 65.8148 38.526 66.4877 39.1279C66.4877 38.8269 66.6492 38.6081 66.7031 38.4165C66.9184 37.541 67.1876 36.6655 67.376 35.6806C67.4014 35.4425 67.4976 35.2179 67.6519 35.0369C67.8061 34.8559 68.0111 34.7271 68.2393 34.6676C68.4675 34.6081 68.7082 34.6208 68.9291 34.7041C69.15 34.7873 69.3407 34.9371 69.4756 35.1334C69.9063 35.5985 70.2562 36.1183 70.6331 36.6108L72.2482 38.7722C72.2482 40.0855 72.2482 40.2496 71.1445 40.3317C70.8754 40.0034 70.5523 39.7024 70.3101 39.3468C70.0678 38.9911 69.368 37.8967 68.8565 37.1033V37.459C68.6085 38.515 68.3029 39.5563 67.9413 40.5779C67.5106 41.6997 66.73 41.7544 66.0032 40.8515L64.765 39.3194C64.765 39.7298 64.765 39.976 64.765 40.2223C64.9265 42.028 65.1688 43.8064 65.2226 45.6942C65.2764 47.582 65.2226 50.1538 65.2226 52.3699C65.2226 52.8897 65.2226 53.4096 65.2226 54.0935C67.4029 53.1907 69.6102 52.2057 71.7636 51.084Z" fill="#2B3D2D"/>
<path d="M36.6358 10.4582C36.6358 10.4582 36.8242 10.4582 36.9049 10.4582C37.0752 10.3304 37.2705 10.2413 37.4776 10.1967C37.6847 10.1521 37.8988 10.1532 38.1054 10.1999C38.3121 10.2466 38.5065 10.3377 38.6755 10.4673C38.8445 10.5968 38.9843 10.7616 39.0853 10.9507C40.5927 13.1121 42.1001 15.2735 43.5537 17.4623C44.9166 19.5182 46.1397 21.6663 47.2145 23.8918C48.8066 27.0777 50.0089 30.4497 50.7946 33.9327C51.1983 35.8752 51.7367 37.8177 52.1404 39.7876C52.4096 41.0188 52.4904 42.3047 52.6519 43.5632C52.6519 44.0284 52.7865 44.4935 52.8134 44.9586C52.8668 46.6978 52.7587 48.4383 52.4904 50.1569C52.4904 50.923 52.3558 51.7164 52.275 52.4824C52.0683 54.8009 51.6722 57.0979 51.0907 59.3497C50.7856 60.6265 50.4626 61.9124 50.1216 63.2074C49.9414 63.8208 49.669 64.4022 49.3141 64.931C48.9658 65.5848 48.66 66.2611 48.3989 66.9556C47.2176 69.8027 45.5499 72.4148 43.4729 74.671C42.6923 75.4644 41.8848 76.2579 41.1311 77.0513C39.8692 78.2926 38.5098 79.4272 37.0665 80.4439C35.4423 81.6689 33.7229 82.7577 31.9251 83.6996C28.4423 85.4427 24.7633 86.7474 20.9696 87.5847C19.2738 87.9677 17.551 88.1592 15.8283 88.4055C14.1055 88.6517 12.7327 88.8432 11.1715 88.9253C9.15265 88.9253 7.10689 89.0895 5.08805 89.1442C4.78704 89.1067 4.48982 89.0426 4.19976 88.9527H3.12305C3.12305 88.6791 3.12305 88.3234 3.31147 88.1592C3.8569 87.3963 4.292 86.5579 4.60353 85.6695C5.9225 85.6695 7.29531 85.6695 8.50662 85.6695C10.3101 85.6695 12.1136 85.478 13.8902 85.2865C17.2166 85.0216 20.4983 84.3416 23.6614 83.2619C25.6508 82.4879 27.5846 81.5737 29.4487 80.5259C30.7138 79.8419 31.8713 79.0212 33.1095 78.3919C34.3245 77.6287 35.4373 76.7091 36.4204 75.6559C37.8471 74.3427 39.1122 72.92 40.5119 71.5247C41.1101 70.8232 41.6503 70.0729 42.127 69.2812C42.4769 68.7887 42.7461 68.2142 43.123 67.7217C44.3292 66.0724 45.2404 64.2202 45.8148 62.2498C46.591 59.7733 47.2202 57.2517 47.699 54.6986C47.9951 53.1938 48.3181 51.7164 48.5873 50.239C48.6913 49.6514 48.7543 49.0572 48.7757 48.4606C48.8988 46.9136 48.9347 45.3607 48.8834 43.8095C48.8834 42.4689 48.5065 41.0735 48.3181 39.7876C48.3181 39.1036 48.0759 38.4197 48.022 37.763C47.9015 35.4927 47.3913 33.2612 46.5146 31.1694C45.0341 27.9957 43.5806 24.7946 42.0463 21.6483C40.9695 19.3774 39.839 17.1066 38.6277 14.9178C37.9271 13.7494 37.1444 12.6339 36.2858 11.58C36.2858 11.58 36.0705 11.58 35.9359 11.58L36.6358 10.4582Z" fill="#F1EBDF"/>
<path d="M117.582 52.6139C117.795 52.4344 118.02 52.2699 118.255 52.1214C120.435 50.9449 122.643 49.7411 124.85 48.592C125.142 48.4644 125.388 48.2493 125.556 47.9755C125.725 47.7018 125.807 47.3824 125.792 47.0599C125.71 46.1352 125.548 45.2197 125.307 44.3239C125.024 43.0107 124.862 41.6734 124.823 40.3294C124.819 39.9063 124.924 39.4896 125.127 39.1201C125.33 38.7507 125.624 38.4414 125.98 38.2228L131.687 34.4745C132.387 34.0094 133.087 33.5443 133.733 33.0245C134.053 32.8095 134.325 32.5274 134.529 32.1971C134.733 31.8668 134.865 31.4959 134.917 31.1093C135.243 29.2188 135.665 27.3467 136.182 25.5006C136.579 24.0896 137.074 22.709 137.663 21.3693C137.781 20.9812 138.045 20.6565 138.399 20.4666C138.752 20.2768 139.165 20.2374 139.547 20.357C139.87 22.5458 140.112 24.7619 140.543 26.9233C141.108 29.9606 141.486 33.0308 141.674 36.1161C141.67 36.4539 141.556 36.7809 141.351 37.0463C141.156 37.294 140.94 37.523 140.704 37.7303C139.547 38.9615 138.39 40.22 137.205 41.4512C136.717 41.9336 136.352 42.5294 136.141 43.1871C135.93 43.8448 135.88 44.5448 135.994 45.2268C136.182 46.7863 136.425 48.3184 136.667 49.8779C136.828 50.9449 136.99 52.012 137.178 53.1611C136.102 53.9818 135.079 54.8026 134.002 55.514C131.041 57.4565 128.026 59.3717 125.038 61.2868C124.419 59.5085 123.8 57.7301 123.154 55.9791C123.075 55.7526 122.923 55.5598 122.723 55.4319C122.05 55.0215 121.377 54.5838 120.678 54.2007L117.582 52.6139ZM132.71 44.9258C132.71 44.2692 132.548 43.4758 132.387 42.7371C132.225 41.9984 131.606 41.3965 130.637 41.8889C129.806 42.2946 129.006 42.7609 128.242 43.2843C127.515 43.8315 127.461 44.3787 128.026 45.0353C128.412 45.3913 128.772 45.7754 129.103 46.1844C129.691 46.9056 130.451 47.4614 131.31 47.7986C131.929 48.0722 132.36 47.7986 132.441 47.1693C132.521 46.5401 132.602 45.774 132.71 44.9258ZM131.256 50.9997C130.895 50.8887 130.526 50.8064 130.153 50.7534C129.614 50.7534 129.049 50.7534 128.484 50.7534C127.786 50.8229 127.082 50.8229 126.384 50.7534C126.207 50.7086 126.021 50.7129 125.846 50.7658C125.671 50.8187 125.513 50.9184 125.388 51.0544V54.7479C125.388 55.5687 125.9 55.897 126.68 55.6234H126.923C128.453 54.7714 129.85 53.6926 131.068 52.4224C131.391 52.012 131.364 51.6016 131.256 50.9997ZM133.948 35.8972C133.793 36.1326 133.675 36.391 133.598 36.6633C133.598 37.7577 133.598 38.852 133.41 39.9464C133.386 40.056 133.384 40.1694 133.404 40.2798C133.424 40.3902 133.465 40.4956 133.525 40.5897C133.585 40.6839 133.663 40.765 133.754 40.8283C133.845 40.8917 133.948 40.936 134.056 40.9587L134.46 40.7946C135.815 39.9932 136.981 38.9008 137.878 37.5935C138.003 37.3083 138.076 37.0024 138.093 36.6906L133.948 35.8972ZM139.332 26.8139C138.256 27.5923 137.342 28.5777 136.64 29.714C137.343 31.0959 138.251 32.3601 139.332 33.4622C139.613 33.3042 139.846 33.0693 140.003 32.784C140.16 32.4988 140.235 32.1745 140.22 31.848C140.22 30.5621 140.22 29.2762 140.22 27.9903C140.242 27.7042 140.154 27.4206 139.972 27.2006C139.791 26.9805 139.532 26.8416 139.251 26.8139H139.332Z" fill="#F6C168"/>
<path d="M103.691 25.75C106.306 26.1751 108.894 26.7505 111.444 27.4736C113.409 28.0208 115.374 28.6775 117.339 29.1426C117.961 29.2841 118.52 29.6277 118.933 30.1213C119.346 30.6149 119.59 31.2318 119.627 31.8785C119.977 33.9579 120.219 36.0645 120.596 38.1439C120.973 40.2232 121.053 43.1507 121.646 45.613C121.727 46.2029 121.727 46.8014 121.646 47.3914C121.646 47.9386 121.35 48.2395 120.73 48.349C119.573 47.5555 119.331 46.0508 118.442 44.8469L117.769 46.4612C117.6 46.9826 117.402 47.4941 117.177 47.9933C117.126 48.1446 117.03 48.2759 116.902 48.369C116.775 48.462 116.621 48.512 116.464 48.512C116.307 48.512 116.153 48.462 116.025 48.369C115.897 48.2759 115.801 48.1446 115.751 47.9933C115.508 47.5282 115.374 47.0083 115.158 46.5159L114.001 43.9714C113.678 44.7922 113.382 45.4215 113.14 46.0781C112.897 46.7348 112.897 46.8989 112.736 47.3093C112.623 47.4745 112.487 47.622 112.332 47.7471C111.228 45.0111 110.071 42.2751 109.183 39.3477L112.332 35.2164C112.48 35.0553 112.594 34.8657 112.668 34.6589C112.742 34.4521 112.774 34.2323 112.763 34.0126C112.763 33.1644 112.117 32.8361 111.444 33.3286C110.968 33.7076 110.534 34.1388 110.152 34.6145C109.398 35.5447 108.698 36.4749 107.998 37.3504H106.625C106.722 36.4041 106.535 35.4502 106.087 34.6145C105.993 34.3871 105.93 34.1478 105.899 33.9031C105.333 31.9606 104.795 30.0181 104.257 28.0756C104.068 27.3916 103.88 26.5161 103.691 25.75Z" fill="#F6C168"/>
<path d="M125.035 61.289C128.023 59.3739 131.038 57.4587 133.999 55.5162C135.075 54.8048 136.098 53.9841 137.175 53.1633C136.987 52.0142 136.825 50.9471 136.664 49.8801C136.421 48.3206 136.179 46.7885 135.991 45.229C135.876 44.547 135.927 43.847 136.138 43.1893C136.349 42.5316 136.714 41.9358 137.202 41.4534C138.386 40.2222 139.544 38.9637 140.701 37.7325C140.937 37.5252 141.153 37.2962 141.347 37.0485C141.553 36.7831 141.666 36.4561 141.67 36.1183C141.483 33.033 141.105 29.9628 140.54 26.9255C140.109 24.7641 139.867 22.548 139.544 20.3592C140.055 19.7026 140.324 19.73 140.647 20.3592C141.459 22.0994 142.047 23.9385 142.397 25.8311C142.962 28.868 143.474 31.8776 143.985 34.8871C143.985 35.2154 143.985 35.5164 143.985 35.8447C144.03 36.3081 143.966 36.7757 143.797 37.2088C143.629 37.6418 143.361 38.0277 143.016 38.3344C141.913 39.4014 140.917 40.5505 139.84 41.6176C139.212 42.2923 138.745 43.1044 138.474 43.9913C138.204 44.8782 138.137 45.8164 138.279 46.7338C138.44 48.5122 138.79 50.2632 139.113 52.0142C139.293 52.7 139.252 53.4265 138.995 54.0867C138.738 54.7468 138.28 55.3055 137.686 55.6803C134.733 57.8942 131.65 59.9226 128.454 61.7542C127.404 62.3287 126.462 63.1221 125.466 63.8061C125.035 64.1071 124.631 64.5175 124.039 64.1618C124.039 64.1618 123.797 64.1618 123.689 64.1618L121.886 64.9826C121.886 66.5147 122.074 68.0195 122.155 69.5243L122.478 75.899C122.478 76.8566 122.478 77.8415 122.478 78.7991C122.518 79.0528 122.518 79.3115 122.478 79.5652C122.438 79.7503 122.345 79.9193 122.211 80.0508C122.077 80.1823 121.908 80.2704 121.724 80.3039C121.545 80.3518 121.354 80.3374 121.184 80.2631C121.013 80.1887 120.872 80.0587 120.782 79.8935C120.686 79.7766 120.605 79.6479 120.54 79.5105L120.271 73.9018C120.271 73.5735 120.271 73.2178 120.271 72.8895C120.271 71.3573 120.001 69.8252 119.921 68.2931C119.84 66.7609 119.921 65.776 119.921 64.5175C120.088 63.0924 120.142 61.6559 120.082 60.222C120.031 59.8224 120.031 59.4178 120.082 59.0182C120.917 58.6352 121.132 58.772 121.186 59.6475C121.24 60.523 121.347 60.9881 121.455 61.6721C121.563 62.3561 121.616 62.6297 121.751 63.2589L125.035 61.289Z" fill="#2B3D2D"/>
<path d="M106.651 37.3792H108.024C108.724 36.4764 109.423 35.5461 110.177 34.6433C110.56 34.1676 110.993 33.7363 111.469 33.3574C112.142 32.8649 112.734 33.1932 112.788 34.0414C112.799 34.2611 112.767 34.4809 112.693 34.6877C112.619 34.8945 112.505 35.0841 112.357 35.2452L109.208 39.3765C110.096 42.1124 111.254 44.9852 112.357 47.7758C112.372 47.9945 112.372 48.2138 112.357 48.4325C112.323 48.6226 112.232 48.7975 112.097 48.9342C111.963 49.071 111.791 49.1631 111.604 49.1985C111.391 49.2593 111.165 49.2466 110.96 49.1624C110.756 49.0782 110.584 48.9273 110.473 48.7334C110.346 48.5288 110.247 48.308 110.177 48.0768C109.531 46.2711 108.858 44.4927 108.239 42.6049C107.862 41.5926 107.512 40.5529 107.162 39.5133L104.309 38.9114C104.34 39.1353 104.395 39.3553 104.47 39.568C105.951 43.7266 107.458 47.9126 108.939 52.0986C109.038 52.3415 109.089 52.6018 109.089 52.8647C109.089 53.1276 109.038 53.388 108.939 53.6308H106.893C106.893 53.3572 106.597 53.0289 106.462 52.6732C104.955 48.2957 103.286 43.9455 101.94 39.5133C100.594 35.081 98.8985 31.3054 97.6333 26.9552C97.0142 24.7938 96.3413 22.6598 95.7222 20.4984C95.7222 20.1154 95.3453 19.6776 95.7222 19.2399C96.099 18.8021 96.5297 19.2399 96.8258 19.7597C97.3911 21.073 97.9294 22.4956 98.4947 23.7268C98.6562 24.1099 98.8447 24.4929 99.0062 24.9033C98.9939 25.0489 98.9939 25.1954 99.0062 25.341L103.528 36.8594C104.523 37.249 105.586 37.426 106.651 37.3792Z" fill="#2B3D2D"/>
<path d="M84.4719 79.8939C84.3373 78.9637 84.1489 78.0335 84.0681 77.1579C83.9874 76.2824 84.0681 75.9268 84.0681 75.2975C84.0681 73.7654 83.8528 72.2332 83.772 70.7011C83.7311 70.3009 83.7311 69.8975 83.772 69.4973C83.8651 69.322 83.8945 69.1191 83.8551 68.924C83.8158 68.7289 83.7101 68.5541 83.5567 68.4303L82.9645 67.9652L80.2727 65.667C79.9766 65.3934 79.7882 65.0377 80.0574 64.6547C80.1022 64.5709 80.1631 64.4971 80.2366 64.4378C80.31 64.3784 80.3944 64.3347 80.4848 64.3092C80.5752 64.2836 80.6698 64.2768 80.7628 64.2892C80.8558 64.3015 80.9455 64.3328 81.0264 64.3811C81.4411 64.5785 81.8454 64.7977 82.2377 65.0377L85.3063 67.117C85.5228 67.2293 85.7632 67.2857 86.0062 67.2812H92.3857H97.9577C100.883 67.2812 103.817 67.3359 106.76 67.4453C107.348 67.4549 107.933 67.519 108.51 67.6368C109.425 67.801 109.586 68.6218 108.859 69.4426C106.903 69.6753 104.933 69.7576 102.964 69.6888H86.4907H85.6832L85.8985 71.5219L86.2485 78.0608C86.2485 78.3618 86.2485 78.6627 86.2485 78.991C86.2777 79.2034 86.245 79.4198 86.1543 79.6134C86.0636 79.807 85.9189 79.9692 85.7383 80.08C85.5576 80.1907 85.349 80.2451 85.1382 80.2363C84.9274 80.2276 84.7238 80.1561 84.5526 80.0307L84.4719 79.8939Z" fill="#2B3D2D"/>
<path d="M125.038 61.2882L121.889 63.3128C121.754 62.6835 121.674 62.2184 121.593 61.7259C121.512 61.2335 121.378 60.3853 121.324 59.7013C121.27 59.0174 121.055 58.689 120.22 59.0721C119.711 58.5358 119.07 58.1484 118.363 57.9503C116.882 57.2664 115.348 56.6918 113.841 56.0078C113.209 55.6866 112.606 55.3113 112.037 54.8861C112.199 54.8861 112.36 54.6946 112.522 54.7219C113.371 54.7563 114.206 54.4957 114.89 53.9832C115.779 53.4907 116.667 53.053 117.582 52.6152L120.678 54.2021C121.378 54.5851 122.051 55.0229 122.723 55.4333C122.924 55.5612 123.075 55.754 123.154 55.9805C123.935 57.7315 124.419 59.5098 125.038 61.2882Z" fill="#E9887E"/>
<path d="M106.651 37.3763C105.735 37.3931 104.824 37.2449 103.959 36.9385L99.3021 25.4202C99.2899 25.2745 99.2899 25.1281 99.3021 24.9824L103.797 25.7485C103.986 26.5146 104.174 27.2806 104.39 28.0467C104.928 29.9892 105.466 31.9317 106.032 33.8743C106.063 34.1189 106.126 34.3582 106.22 34.5856C106.641 35.4491 106.792 36.4232 106.651 37.3763Z" fill="#E9887E"/>
<path d="M78.5488 5.88867C78.7373 6.16227 78.9257 6.46322 79.1141 6.70946C79.8319 7.58534 80.4212 8.56216 80.8638 9.60956C80.9548 9.80123 80.9803 10.0182 80.9365 10.2263C80.8926 10.4344 80.7818 10.6217 80.6215 10.7587C80.352 11.1574 79.9833 11.4763 79.553 11.683C79.1227 11.8896 78.6462 11.9766 78.172 11.9351C77.7968 11.8415 77.4281 11.7227 77.0684 11.5794C77.2009 11.4475 77.3183 11.3006 77.4183 11.1417C77.7635 10.7551 78.0121 10.2899 78.1433 9.78512C78.2745 9.28039 78.2843 8.751 78.172 8.24159C77.9639 7.8695 77.73 7.51293 77.4721 7.17457L77.7144 5.91603L78.5488 5.88867Z" fill="#F1EBDF"/>
<path d="M77.3365 7.06445C77.6453 7.43323 77.9243 7.82665 78.171 8.24091C78.327 8.75118 78.357 9.29264 78.2584 9.81749C78.1599 10.3424 77.9357 10.8345 77.6057 11.2505C77.5058 11.4094 77.3884 11.5562 77.2558 11.6882C77.0087 11.6778 76.7676 11.6079 76.5524 11.4842C76.3371 11.3605 76.1538 11.1866 76.0176 10.9769C76.2514 10.7977 76.4677 10.5961 76.6636 10.375C77.175 9.58153 77.0674 8.97962 76.3944 8.0494C76.4218 7.80231 76.5293 7.57148 76.6998 7.3932C76.8703 7.21491 77.0943 7.09927 77.3365 7.06445Z" fill="#89C5AC"/>
<path d="M76.3956 7.96875C77.0685 8.89897 77.1762 9.50088 76.6647 10.2943C76.4729 10.5441 76.2564 10.7733 76.0187 10.9783C75.6244 10.7914 75.295 10.4874 75.0739 10.1065C74.8529 9.72553 74.7506 9.28547 74.7805 8.84425L75.7495 8.24234L76.3956 7.96875Z" fill="#2B3D2D"/>
<path d="M97.7954 44.6562C98.2876 46.2953 98.5149 48.0047 98.4684 49.7178L80.2181 52.9462C79.895 51.6876 79.1144 50.6753 79.3836 49.28L97.7954 44.6562Z" fill="#F1EBDF"/>
<path d="M78.8448 47.3614L78.1719 43.5585C78.4141 42.9565 79.0602 43.1754 79.4639 43.0933C81.1867 42.7377 82.9633 42.5462 84.686 42.2726L91.8192 41.0687L95.8838 40.4121H96.4222L97.0682 42.5735C93.9996 43.4217 90.9848 44.2698 87.97 45.0632C84.9552 45.8567 81.9673 46.5406 78.8448 47.3614Z" fill="#F1EBDF"/>
<path d="M98.6291 54.7495C93.2455 55.6524 88.1849 57.0477 82.8552 57.8685L80.8633 54.7495C83.9319 54.2024 86.8929 53.9014 89.8269 53.491C92.761 53.0806 95.7219 52.6155 98.7367 52.1504L98.6291 54.7495Z" fill="#F1EBDF"/>
<path d="M93.4367 35.0488C94.2791 35.9799 94.9209 37.0795 95.3209 38.2772C89.6951 39.3169 83.9885 39.7547 78.3358 40.7122C78.0666 39.7273 78.5511 38.7971 78.3358 37.7848C83.5578 36.7178 88.5107 35.9517 93.4367 35.0488Z" fill="#F1EBDF"/>
<path d="M78.793 35.6015C78.9925 34.6407 79.4277 33.7466 80.0581 33.0024C80.5496 32.3461 81.1643 31.7953 81.8666 31.3821C82.5689 30.9688 83.3449 30.7012 84.1496 30.5948C85.5938 30.2602 87.0999 30.3264 88.5103 30.7863C89.7271 31.1578 90.8117 31.8801 91.6328 32.8656L78.793 35.6015Z" fill="#F1EBDF"/>
<path d="M83.9336 59.1264L98.2539 56.7188C98.252 57.0254 98.1776 57.3271 98.0371 57.5985C97.8966 57.8699 97.694 58.103 97.4463 58.2782C96.7196 58.8802 95.9659 59.4273 95.2122 59.9472C94.1039 60.7429 92.7733 61.1554 91.4167 61.1236C89.5956 61.197 87.7754 60.9565 86.0332 60.4123C85.2374 60.1714 84.5149 59.7289 83.9336 59.1264Z" fill="#F1EBDF"/>
<path d="M83.5552 12.5059C83.3472 12.3127 83.1839 12.0752 83.0769 11.8103C82.9699 11.5454 82.9218 11.2598 82.9361 10.9738C82.9361 10.3445 83.0976 10.0436 83.7436 9.85207C84.2741 9.71219 84.8138 9.61161 85.3587 9.55112C86.3943 9.41836 87.4373 9.35439 88.4811 9.3596C89.0214 9.29665 89.5678 9.4015 90.0483 9.66034C90.5288 9.91918 90.9209 10.3199 91.1729 10.8097C91.3883 11.1927 91.6305 11.5484 91.8189 11.9314C92.0416 12.3336 92.1044 12.8072 91.9943 13.255C91.8841 13.7028 91.6095 14.0907 91.2267 14.339C90.5005 14.858 89.6379 15.1439 88.7503 15.1598C88.3434 15.132 87.9388 15.0772 87.539 14.9957C87.884 14.4024 88.026 13.7097 87.9428 13.0258C87.9317 12.6132 87.7969 12.2139 87.5564 11.8814C87.3158 11.5489 86.981 11.299 86.5969 11.1653C85.8742 11.0547 85.1392 11.0547 84.4165 11.1653C84.2993 11.2073 84.1913 11.2724 84.0989 11.3569C84.0065 11.4414 83.9315 11.5437 83.8782 11.6578C83.7487 11.9314 83.6407 12.215 83.5552 12.5059Z" fill="#F1EBDF"/>
<path d="M83.5547 12.5076C83.6068 12.1727 83.6879 11.8431 83.7969 11.5227C83.8503 11.4086 83.9253 11.3063 84.0177 11.2218C84.1101 11.1373 84.218 11.0722 84.3353 11.0302C85.058 10.9196 85.7929 10.9196 86.5156 11.0302C86.8998 11.1639 87.2346 11.4138 87.4751 11.7463C87.7157 12.0788 87.8505 12.4781 87.8615 12.8907C87.9448 13.5746 87.8028 14.2673 87.4578 14.8606C86.9208 14.8926 86.3917 14.7167 85.9773 14.3681C86.1164 14.2448 86.2427 14.1073 86.3541 13.9577C86.4828 13.7729 86.5589 13.5556 86.574 13.3297C86.5891 13.1039 86.5426 12.8781 86.4397 12.6773C86.3367 12.4766 86.1813 12.3085 85.9905 12.1917C85.7997 12.0749 85.5809 12.0138 85.3582 12.0152C84.6852 12.0152 84.1469 12.0152 83.9315 12.8086L83.5547 12.5076Z" fill="#89C5AC"/>
<path d="M83.9863 12.918C84.2017 12.1793 84.74 12.0425 85.413 12.1245C85.6357 12.1232 85.8545 12.1843 86.0453 12.3011C86.2361 12.4179 86.3915 12.586 86.4945 12.7867C86.5974 12.9875 86.6439 13.2132 86.6288 13.4391C86.6137 13.665 86.5376 13.8823 86.4089 14.0671C86.2975 14.2166 86.1712 14.3542 86.0321 14.4775C85.1972 14.2059 84.4766 13.6565 83.9863 12.918Z" fill="#2B3D2D"/>
<path d="M29.4531 67.8554C28.7264 67.6092 27.9727 67.445 27.2728 67.1441C25.5231 66.4601 23.8004 65.7487 22.0777 64.9827C21.4355 64.7446 20.9 64.278 20.5703 63.6694C20.3724 63.3448 20.2676 62.9706 20.2676 62.5887C20.2676 62.2069 20.3724 61.8326 20.5703 61.508C20.7955 61.1692 21.1176 60.9088 21.4931 60.762C21.8685 60.6152 22.2793 60.5891 22.6699 60.6872C23.4677 60.8847 24.2503 61.1407 25.0117 61.4533C26.5191 62.0278 28.0265 62.5477 29.507 63.1769C30.1573 63.4582 30.7575 63.8464 31.2836 64.326C31.5595 64.5538 31.7594 64.8628 31.8558 65.2105C31.9522 65.5583 31.9403 65.9279 31.8219 66.2686C31.6888 66.6549 31.4518 66.9957 31.1378 67.252C30.8237 67.5083 30.4453 67.67 30.0453 67.7186C29.8302 67.7323 29.6144 67.7323 29.3993 67.7186L29.4531 67.8554Z" fill="#2B3D2D"/>
<path d="M40.486 61.5065C40.0169 61.514 39.554 61.3968 39.1432 61.1664C38.7324 60.936 38.388 60.6006 38.1441 60.1932C37.3904 59.1262 36.6636 58.0318 35.9099 56.9922C35.6408 56.6091 35.2908 56.2808 34.9947 55.9251C34.7929 55.7224 34.641 55.4741 34.5513 55.2005C34.4617 54.9268 34.4369 54.6355 34.4788 54.3503C34.5208 54.065 34.6284 53.7939 34.7929 53.5588C34.9573 53.3238 35.1741 53.1315 35.4254 52.9977C35.9169 52.7924 36.4682 52.7924 36.9597 52.9977C37.6684 53.2059 38.3096 53.6026 38.8171 54.1468C39.813 55.1044 40.7821 56.0619 41.6973 57.0742C42.0026 57.3415 42.2527 57.6678 42.4329 58.0342C42.6131 58.4005 42.7199 58.7996 42.7471 59.2083C42.7584 59.5132 42.7077 59.8172 42.5981 60.1012C42.4884 60.3853 42.3223 60.6432 42.11 60.859C41.8978 61.0747 41.6439 61.2436 41.3645 61.355C41.085 61.4664 40.7859 61.518 40.486 61.5065Z" fill="#2B3D2D"/>
<path d="M33.1636 42.6303C32.5456 42.5581 31.9338 42.4392 31.3332 42.2746C30.771 42.0891 30.2846 41.7207 29.9489 41.2262C29.6132 40.7317 29.447 40.1387 29.4759 39.5387C29.5791 38.8913 29.9076 38.3031 30.4017 37.8813C30.8958 37.4594 31.5225 37.232 32.1677 37.2405C33.0689 37.2479 33.9685 37.321 34.8594 37.4593C35.2233 37.5195 35.5711 37.6549 35.8813 37.8573C36.1916 38.0597 36.4576 38.3246 36.6629 38.6358C36.9329 39.0475 37.0632 39.5375 37.0341 40.0313C37.0049 40.5252 36.8179 40.9958 36.5014 41.3717C36.0709 41.8188 35.5483 42.1634 34.9712 42.381C34.3942 42.5986 33.7769 42.6837 33.1636 42.6303Z" fill="#2B3D2D"/>
<path d="M21.1856 71.4682C21.5971 71.4308 22.0087 71.5381 22.3517 71.7722C22.6947 72.0062 22.9482 72.3529 23.0699 72.7541C23.1905 73.1483 23.1702 73.5731 23.0126 73.9536C22.855 74.334 22.5702 74.6457 22.2085 74.8335C21.5832 75.1763 20.9122 75.4251 20.2166 75.5722C19.2745 75.7637 18.2785 75.8458 17.3095 75.9552C16.9693 75.9821 16.6299 75.895 16.3431 75.7072C16.0563 75.5195 15.8379 75.2414 15.7213 74.9155C15.5861 74.6198 15.5665 74.2829 15.6665 73.9731C15.7664 73.6632 15.9785 73.4036 16.2597 73.2466C17.7193 72.4495 19.276 71.8515 20.8895 71.4682H21.1856Z" fill="#2B3D2D"/>
<path d="M25.7645 52.8358C25.448 52.8928 25.1218 52.8435 24.8353 52.6954C24.5488 52.5473 24.3175 52.3085 24.1763 52.015C23.9886 51.7062 23.9127 51.3404 23.9619 50.9808C24.011 50.6212 24.182 50.2903 24.4455 50.0451C24.7888 49.7156 25.1908 49.4556 25.6299 49.2791C26.6251 48.8705 27.6403 48.5143 28.6716 48.212C29.1107 48.0979 29.5756 48.1485 29.981 48.3545C30.3864 48.5606 30.7052 48.9082 30.8788 49.3338C31.0439 49.7815 31.0357 50.2762 30.8558 50.718C30.676 51.1598 30.3379 51.5158 29.9098 51.7141C28.5932 52.3031 27.1949 52.6815 25.7645 52.8358Z" fill="#2B3D2D"/>
<path d="M39.6798 44.6554C39.6692 44.5006 39.6692 44.3452 39.6798 44.1903C39.7065 43.915 39.8061 43.6522 39.9679 43.4297C40.1298 43.2073 40.3479 43.0335 40.5991 42.9269C40.8502 42.8203 41.1251 42.7848 41.3946 42.8242C41.664 42.8636 41.9179 42.9764 42.1293 43.1507C43.0674 43.8798 43.8312 44.8151 44.3635 45.8866C44.5676 46.2204 44.6572 46.6136 44.6183 47.0046C44.5793 47.3957 44.414 47.7626 44.1482 48.048C43.8685 48.3418 43.5069 48.5413 43.1122 48.6196C42.7175 48.6979 42.3087 48.6512 41.9409 48.4858C41.2359 48.1431 40.6457 47.5972 40.2437 46.9162C39.8417 46.2351 39.6455 45.4489 39.6798 44.6554Z" fill="#2B3D2D"/>
<path d="M38.1197 32.5097C37.8621 32.5132 37.6066 32.4614 37.3701 32.3577C37.1335 32.2539 36.9212 32.1006 36.7469 31.9078C35.8738 30.9701 35.1962 29.8626 34.755 28.652C34.6311 28.3417 34.626 27.9956 34.7406 27.6817C34.8551 27.3678 35.0811 27.1088 35.3741 26.9557C35.647 26.813 35.9568 26.7601 36.2606 26.8042C36.5644 26.8483 36.8472 26.9873 37.0699 27.2019C38.031 28.2632 38.805 29.4849 39.3579 30.8134C39.4525 31.0785 39.4525 31.369 39.3579 31.6342C39.2994 31.9126 39.1389 32.1579 38.9089 32.3205C38.679 32.483 38.3969 32.5507 38.1197 32.5097Z" fill="#2B3D2D"/>
<path d="M71.7669 51.0822C69.6135 52.2039 67.46 53.1888 65.1451 54.2832C65.1451 53.5992 65.1451 53.0794 65.1451 52.5596C65.1451 50.3435 65.1451 48.1 65.1451 45.8839C65.1451 43.6677 64.849 42.2998 64.6875 40.412C64.6875 40.1657 64.6875 39.9195 64.6875 39.5091L65.9257 41.0412C66.6525 41.9441 67.4331 41.8894 67.8638 40.7676C68.2254 39.746 68.531 38.7047 68.779 37.6486V37.293C69.2905 38.0864 69.7481 38.8251 70.2326 39.5364C70.7171 40.2478 70.7979 40.1931 71.067 40.5214C71.2016 41.6705 71.3362 42.8196 71.4439 43.996C71.5516 45.1725 71.4439 46.732 71.6323 48.0726C71.8207 49.4132 71.6861 50.0972 71.7669 51.0822Z" fill="#F6C168"/>
<path d="M71.7654 51.0836C71.7654 50.0987 71.6308 49.1411 71.577 48.1562C71.5232 47.1712 71.577 45.4202 71.3886 44.0796C71.2001 42.739 71.1463 41.754 71.0117 40.6049C72.0884 40.6049 72.223 40.3587 72.1153 39.0455L73.8381 38.1152C73.893 38.1912 73.9382 38.274 73.9727 38.3615C73.9727 39.5379 73.9727 40.7144 74.188 41.8908C74.3226 43.6145 74.538 45.3108 74.6725 47.0071C74.6725 47.8826 74.6725 48.7581 74.6725 49.743L71.7654 51.0836Z" fill="#E9887E"/>
<path d="M132.706 44.9277C132.706 45.7759 132.545 46.4872 132.437 47.1712C132.33 47.8552 131.926 48.0741 131.307 47.8005C130.447 47.4633 129.687 46.9075 129.099 46.1863C128.768 45.7773 128.409 45.3932 128.023 45.0372C127.457 44.3806 127.511 43.8334 128.238 43.2862C129.002 42.7628 129.803 42.2965 130.634 41.8908C131.603 41.3984 132.114 41.672 132.383 42.739C132.653 43.806 132.599 44.2711 132.706 44.9277Z" fill="#F1EBDF"/>
<path d="M131.251 51.0016C131.251 51.6036 131.385 51.9592 131.062 52.2602C129.845 53.5304 128.448 54.6093 126.917 55.4613H126.675C125.894 55.7348 125.383 55.4613 125.383 54.5857V50.9469C125.507 50.8109 125.665 50.7113 125.84 50.6583C126.016 50.6054 126.201 50.6011 126.379 50.646C127.077 50.7155 127.78 50.7155 128.478 50.646C129.044 50.646 129.609 50.646 130.147 50.646C130.524 50.7346 130.893 50.8536 131.251 51.0016Z" fill="#F1EBDF"/>
<path d="M133.917 35.8965L138.062 36.6899C138.045 37.0017 137.972 37.3076 137.847 37.5928C136.95 38.9001 135.784 39.9925 134.429 40.7938L134.025 40.958C133.917 40.9353 133.814 40.8909 133.723 40.8276C133.632 40.7643 133.554 40.6831 133.494 40.589C133.434 40.4948 133.393 40.3895 133.373 40.2791C133.353 40.1686 133.355 40.0553 133.379 39.9457C133.379 38.8513 133.379 37.7569 133.567 36.6626C133.644 36.3903 133.762 36.1319 133.917 35.8965Z" fill="#F1EBDF"/>
<path d="M139.251 26.8164C139.497 26.8863 139.711 27.043 139.854 27.2586C139.997 27.4742 140.06 27.7345 140.031 27.9929C140.031 29.2788 140.031 30.5647 140.031 31.8506C140.046 32.1771 139.971 32.5013 139.814 32.7866C139.657 33.0719 139.424 33.3068 139.143 33.4648C138.062 32.3626 137.155 31.0985 136.451 29.7165C137.185 28.5698 138.137 27.5838 139.251 26.8164Z" fill="#F1EBDF"/>
</svg>
