<svg width="27" height="42" viewBox="0 0 27 42" fill="none" xmlns="http://www.w3.org/2000/svg">
<path fill-rule="evenodd" clip-rule="evenodd" d="M25.3791 2.79725C25.6329 3.04933 25.8342 3.34879 25.9716 3.67847C26.109 4.00816 26.1797 4.3616 26.1797 4.71854C26.1797 5.07549 26.109 5.42893 25.9716 5.75862C25.8342 6.0883 25.6329 6.38776 25.3791 6.63984L10.9525 21.0007L25.3791 35.3616C25.8908 35.8711 26.1783 36.5623 26.1783 37.2829C26.1783 38.0035 25.8908 38.6946 25.3791 39.2042C24.8674 39.7137 24.1734 40 23.4497 40C22.7261 40 22.0321 39.7137 21.5204 39.2042L5.16986 22.922C4.91608 22.6699 4.71474 22.3705 4.57736 22.0408C4.43998 21.7111 4.36926 21.3577 4.36926 21.0007C4.36926 20.6438 4.43998 20.2903 4.57736 19.9606C4.71474 19.631 4.91608 19.3315 5.16986 19.0794L21.5204 2.79725C21.7735 2.54453 22.0742 2.34403 22.4053 2.20722C22.7364 2.07042 23.0913 2 23.4497 2C23.8082 2 24.1631 2.07042 24.4942 2.20722C24.8252 2.34403 25.126 2.54453 25.3791 2.79725Z" fill="black"/>
<path fill-rule="evenodd" clip-rule="evenodd" d="M23.01 2.79725C23.2637 3.04933 23.4651 3.34879 23.6025 3.67847C23.7398 4.00816 23.8105 4.3616 23.8105 4.71854C23.8105 5.07549 23.7398 5.42893 23.6025 5.75862C23.4651 6.0883 23.2637 6.38776 23.01 6.63984L8.58336 21.0007L23.01 35.3616C23.5217 35.8711 23.8091 36.5623 23.8091 37.2829C23.8091 38.0035 23.5217 38.6946 23.01 39.2042C22.4983 39.7137 21.8042 40 21.0806 40C20.3569 40 19.6629 39.7137 19.1512 39.2042L2.80074 22.922C2.54696 22.6699 2.34562 22.3705 2.20824 22.0408C2.07086 21.7111 2.00014 21.3577 2.00014 21.0007C2.00014 20.6438 2.07086 20.2903 2.20824 19.9606C2.34562 19.631 2.54696 19.3315 2.80074 19.0794L19.1512 2.79725C19.4044 2.54453 19.7051 2.34403 20.0362 2.20722C20.3672 2.07042 20.7222 2 21.0806 2C21.439 2 21.794 2.07042 22.125 2.20722C22.4561 2.34403 22.7568 2.54453 23.01 2.79725Z" fill="white" stroke="black" stroke-width="2.29769"/>
</svg>
