<svg width="422" height="194" fill="none" xmlns="http://www.w3.org/2000/svg"><path d="M260.801 126.992c.304.303.425.607.425 1.031v11.526c0 .425-.121.728-.425 1.032-.303.303-.607.424-1.032.424h-11.775c-.425 0-.607.182-.607.607v45.982c0 .425-.121.728-.424 1.032-.304.303-.607.424-1.032.424h-14.264c-.425 0-.728-.121-1.032-.424-.303-.304-.425-.607-.425-1.032v-45.982c0-.425-.182-.607-.607-.607h-7.162c-.425 0-.728-.121-1.032-.424-.303-.304-.425-.607-.425-1.032v-11.526c0-.424.122-.728.425-1.031.304-.303.607-.425 1.032-.425h7.162c.425 0 .607-.182.607-.606v-2.669c0-5.035.789-8.918 2.307-11.708 1.517-2.791 4.006-4.793 7.465-5.945 3.46-1.153 8.194-1.699 14.264-1.517h4.613c.425 0 .728.122 1.032.425.303.303.425.606.425 1.031v9.827c0 .425-.122.728-.425 1.032-.304.303-.607.424-1.032.424h-4.006c-2.853.061-4.795.668-5.888 1.76-1.092 1.092-1.638 3.093-1.638 6.005v1.335c0 .424.182.606.607.606h11.775c.425 0 .789.122 1.092.425zm12.747-10.07c-1.821-1.82-2.732-4.125-2.732-6.855 0-2.851.911-5.156 2.671-6.915 1.76-1.76 4.067-2.67 6.919-2.67 2.853 0 5.16.91 6.92 2.67 1.76 1.759 2.67 4.064 2.67 6.915 0 2.73-.91 5.035-2.731 6.855-1.821 1.82-4.127 2.73-6.859 2.73-2.792 0-5.037-.91-6.858-2.73zm-1.518 71.704c-.303-.304-.425-.607-.425-1.032v-59.571c0-.424.122-.728.425-1.031.304-.303.607-.425 1.032-.425h14.203c.425 0 .728.122 1.032.425.303.303.425.607.425 1.031v59.571c0 .425-.122.728-.425 1.032-.304.303-.607.424-1.032.424h-14.203c-.364 0-.728-.121-1.032-.424zM348.812 132.004c3.945 3.943 5.948 9.342 5.948 16.136v39.795c0 .424-.121.728-.424 1.031-.304.303-.607.425-1.032.425h-14.203c-.425 0-.729-.122-1.032-.425-.304-.303-.425-.607-.425-1.031v-36.277c0-3.215-.91-5.884-2.731-7.886-1.821-2.002-4.249-3.033-7.223-3.033s-5.402 1.031-7.223 3.033c-1.821 2.002-2.731 4.671-2.731 7.886v36.277c0 .424-.122.728-.425 1.031-.304.303-.607.425-1.032.425h-14.203c-.425 0-.728-.122-1.032-.425-.303-.303-.425-.607-.425-1.031v-59.45c0-.425.122-.728.425-1.031.304-.303.607-.425 1.032-.425h14.203c.425 0 .728.122 1.032.425.303.303.425.606.425 1.031v4.247c0 .242.06.424.242.485.182.06.304.06.365-.122 3.338-4.671 8.254-7.036 14.809-7.036 6.495 0 11.715 2.001 15.66 5.945zM404.834 107.872c.304-.303.607-.425 1.032-.425h14.203c.425 0 .729.122 1.032.425.304.303.425.607.425 1.031v82.016c0 .425-.121.728-.425 1.032-.303.303-.607.424-1.032.424h-14.203c-.425 0-.728-.121-1.032-.424-.303-.304-.424-.607-.424-1.032v-4.003c0-.243-.061-.364-.243-.425s-.304 0-.486.182c-3.399 4.428-8.072 6.673-13.96 6.673-5.645 0-10.561-1.577-14.628-4.732-4.067-3.154-7.041-7.461-8.801-12.982-1.396-4.185-2.063-9.099-2.063-14.68 0-5.763.728-10.737 2.185-15.044 1.881-5.157 4.795-9.282 8.801-12.315 4.006-3.033 8.983-4.55 14.87-4.55 5.827 0 10.379 2.002 13.596 6.067.182.242.304.303.486.242.182-.06.243-.242.243-.485v-25.964c0-.424.182-.728.424-1.031zm-.546 53.323c0-5.399-.91-9.646-2.67-12.74-1.882-3.154-4.553-4.731-8.134-4.731-3.824 0-6.676 1.577-8.619 4.731-2.003 3.155-3.034 7.462-3.034 12.861 0 4.853.849 8.917 2.549 12.133 2.003 3.457 5.038 5.217 8.983 5.217 3.642 0 6.494-1.76 8.497-5.217 1.639-2.973 2.428-7.098 2.428-12.254zM119.414 143.2c-.303.303-.607.424-1.032.424h-11.654c-.424 0-.607.182-.607.607v25.721c0 2.669.547 4.671 1.639 5.945 1.093 1.274 2.853 1.941 5.281 1.941h4.006c.425 0 .728.121 1.032.425.303.303.425.606.425 1.031v11.526c0 .91-.486 1.395-1.457 1.577-3.399.182-5.827.243-7.284.243-6.737 0-11.714-1.092-15.053-3.337-3.338-2.244-5.037-6.43-5.098-12.557v-32.515c0-.425-.182-.607-.607-.607h-6.92c-.424 0-.728-.121-1.031-.424-.304-.304-.425-.607-.425-1.032V131.37c0-.424.121-.728.425-1.031.303-.303.607-.425 1.032-.425h6.92c.424 0 .606-.182.606-.606V114.87c0-.425.121-.728.425-1.031.303-.304.607-.425 1.032-.425h13.596c.425 0 .728.121 1.032.425.303.303.424.606.424 1.031v14.438c0 .424.183.606.607.606h11.654c.425 0 .729.122 1.032.425.304.303.425.607.425 1.031v10.798c0 .425-.121.728-.425 1.032zM136.955 187.908c-4.856-3.579-8.195-8.432-9.955-14.559-1.153-3.822-1.699-7.947-1.699-12.376 0-4.792.546-9.038 1.699-12.86 1.882-6.006 5.22-10.677 10.076-14.074 4.856-3.397 10.683-5.096 17.481-5.096 6.615 0 12.321 1.699 16.995 5.035 4.673 3.337 8.012 8.008 9.954 14.014a42.352 42.352 0 011.942 12.739c0 4.367-.546 8.432-1.699 12.254-1.761 6.309-5.099 11.283-9.894 14.862-4.795 3.579-10.622 5.399-17.42 5.399-6.798 0-12.625-1.759-17.48-5.338zm24.278-11.769c1.882-1.638 3.217-3.822 4.006-6.673.668-2.608.971-5.399.971-8.493 0-3.397-.303-6.248-.971-8.614-.91-2.73-2.246-4.913-4.127-6.43-1.882-1.517-4.128-2.305-6.798-2.305-2.732 0-5.038.788-6.859 2.305-1.821 1.517-3.156 3.7-3.945 6.43-.668 1.941-.971 4.793-.971 8.614 0 3.64.303 6.491.849 8.493.789 2.851 2.185 5.035 4.067 6.673 1.882 1.638 4.249 2.427 6.98 2.427 2.671 0 4.917-.789 6.798-2.427zM26.584 94.658L5.098 12.521l-.121-.486c0-.728.424-1.092 1.335-1.092h15.053c.789 0 1.335.425 1.578 1.214l11.532 49.38c.06.303.182.485.364.485s.304-.182.364-.486l11.169-49.258c.242-.91.789-1.335 1.578-1.335h14.688c.91 0 1.457.425 1.7 1.214l12.14 49.38c.06.242.181.363.363.424.182.06.304-.121.365-.425l11.168-49.258c.242-.91.789-1.335 1.578-1.335h14.324c1.153 0 1.578.546 1.335 1.578L85.703 94.658c-.243.789-.789 1.213-1.7 1.213H69.559c-.79 0-1.336-.424-1.578-1.213L55.597 42.124c-.06-.303-.182-.485-.364-.485s-.303.182-.364.485L43.337 94.537c-.182.91-.668 1.334-1.578 1.334H28.284c-.91 0-1.457-.424-1.7-1.213zM162.509 33.51c3.946 3.943 5.949 9.342 5.949 16.136v39.795c0 .425-.122.728-.425 1.031-.304.303-.607.425-1.032.425h-14.203c-.425 0-.728-.122-1.032-.425-.303-.303-.425-.606-.425-1.031V53.164c0-3.215-.91-5.884-2.731-7.886-1.821-2.002-4.249-3.033-7.223-3.033s-5.402 1.031-7.223 3.033c-1.821 2.002-2.731 4.671-2.731 7.886v36.277c0 .425-.122.728-.425 1.031-.304.303-.607.425-1.032.425h-14.203c-.425 0-.728-.122-1.032-.425-.303-.303-.425-.606-.425-1.031V7.425c0-.425.122-.728.425-1.032.304-.303.607-.424 1.032-.424h14.203c.425 0 .728.121 1.032.424.303.304.425.607.425 1.032v26.813c0 .242.061.424.243.485.182.06.303.06.364-.121 3.338-4.671 8.255-7.037 14.81-7.037 6.434 0 11.654 2.002 15.659 5.945zM234.24 68.985c-.06.97-.607 1.456-1.578 1.456h-37.51c-.486 0-.668.182-.486.607a20.728 20.728 0 001.335 4.853c2.125 4.55 6.374 6.794 12.868 6.794 5.159-.06 9.287-2.184 12.261-6.309.303-.485.668-.728 1.092-.728.243 0 .547.182.85.485l8.74 8.614c.425.425.607.79.607 1.093 0 .181-.182.485-.485.97-2.671 3.337-6.131 5.884-10.319 7.704-4.188 1.82-8.801 2.73-13.838 2.73-6.98 0-12.868-1.577-17.663-4.732-4.795-3.154-8.255-7.583-10.379-13.224-1.7-4.064-2.549-9.342-2.549-15.894 0-4.428.607-8.371 1.82-11.768 1.882-5.763 5.099-10.313 9.773-13.71 4.673-3.397 10.197-5.096 16.57-5.096 8.072 0 14.567 2.366 19.483 7.037 4.917 4.671 7.891 10.98 8.923 18.806.485 3.093.667 6.49.485 10.312zM195.395 54.79c-.304 1.031-.607 2.366-.85 3.883 0 .424.182.606.607.606h21.001c.485 0 .667-.182.485-.607-.425-2.365-.607-3.457-.607-3.397-.728-2.426-2.003-4.307-3.824-5.641-1.82-1.335-4.066-2.002-6.737-2.002-5.098 0-8.437 2.366-10.075 7.158zM281.025 25.406c.668.303.911.91.729 1.82l-2.55 13.83c-.06.971-.667 1.275-1.699.85-1.214-.425-2.61-.607-4.249-.607-.667 0-1.517.06-2.67.243-2.914.243-5.402 1.334-7.405 3.215-2.003 1.88-3.035 4.428-3.035 7.583v33.122c0 .424-.122.728-.425 1.031-.304.303-.607.425-1.032.425h-14.203c-.425 0-.728-.122-1.032-.425-.303-.303-.425-.606-.425-1.031v-59.45c0-.424.122-.728.425-1.031.304-.303.607-.425 1.032-.425h14.203c.425 0 .728.122 1.032.425.303.303.425.607.425 1.031v4.61c0 .243.06.425.243.486.182.06.303.06.364-.121 3.338-4.853 7.769-7.28 13.353-7.28 2.913 0 5.22.546 6.919 1.699zM342.631 68.573c-.061.97-.607 1.456-1.578 1.456h-37.511c-.485 0-.667.182-.485.607a20.679 20.679 0 001.335 4.853c2.125 4.55 6.373 6.794 12.868 6.794 5.159-.06 9.286-2.184 12.261-6.31.303-.484.667-.727 1.092-.727.243 0 .546.182.85.485l8.74 8.614c.425.425.607.79.607 1.092 0 .182-.182.486-.485.971-2.671 3.336-6.131 5.884-10.319 7.704-4.188 1.82-8.801 2.73-13.839 2.73-6.98 0-12.867-1.577-17.662-4.732-4.795-3.154-8.255-7.583-10.38-13.224-1.699-4.065-2.549-9.342-2.549-15.894 0-4.428.607-8.371 1.821-11.768 1.882-5.763 5.099-10.313 9.772-13.71 4.674-3.398 10.197-5.096 16.57-5.096 8.073 0 14.568 2.366 19.484 7.037 4.916 4.67 7.891 10.98 8.922 18.805.486 3.094.668 6.491.486 10.313zm-38.846-14.195a32.208 32.208 0 00-.85 3.882c0 .425.182.607.607.607h21.001c.486 0 .668-.182.486-.607-.425-2.365-.607-3.457-.607-3.397-.728-2.426-2.003-4.307-3.824-5.641-1.821-1.335-4.067-2.002-6.737-2.002-5.099 0-8.437 2.366-10.076 7.158z" fill="#000"/><path d="M257.815 123.014c.303.303.425.606.425 1.031v11.526c0 .424-.122.728-.425 1.031-.304.303-.607.425-1.032.425h-11.775c-.425 0-.607.182-.607.606v45.983c0 .424-.121.728-.425 1.031-.303.303-.607.425-1.032.425h-14.263c-.425 0-.729-.122-1.032-.425-.304-.303-.425-.607-.425-1.031v-45.983c0-.424-.182-.606-.607-.606h-7.162c-.425 0-.729-.122-1.032-.425-.304-.303-.425-.607-.425-1.031v-11.526c0-.425.121-.728.425-1.031.303-.304.607-.425 1.032-.425h7.162c.425 0 .607-.182.607-.607v-2.669c0-5.035.789-8.917 2.306-11.708 1.518-2.79 4.006-4.792 7.466-5.945 3.46-1.152 8.194-1.698 14.264-1.516h4.613c.425 0 .728.121 1.032.424.303.304.424.607.424 1.032v9.827c0 .425-.121.728-.424 1.031-.304.304-.607.425-1.032.425h-4.006c-2.853.061-4.795.667-5.888 1.759-1.092 1.092-1.639 3.094-1.639 6.006v1.334c0 .425.182.607.607.607h11.775c.425 0 .789.121 1.093.425zm12.746-10.07c-1.821-1.82-2.731-4.126-2.731-6.855 0-2.852.91-5.157 2.671-6.916 1.76-1.76 4.066-2.67 6.919-2.67 2.853 0 5.159.91 6.919 2.67 1.761 1.759 2.671 4.064 2.671 6.916 0 2.729-.91 5.035-2.731 6.855-1.821 1.819-4.128 2.729-6.859 2.729-2.792 0-5.038-.91-6.859-2.729zm-1.517 71.703c-.304-.303-.425-.607-.425-1.031v-59.571c0-.425.121-.728.425-1.031.303-.304.607-.425 1.032-.425h14.203c.425 0 .728.121 1.032.425.303.303.424.606.424 1.031v59.571c0 .424-.121.728-.424 1.031-.304.303-.607.425-1.032.425h-14.203c-.364 0-.729-.122-1.032-.425zM345.826 128.025c3.945 3.943 5.948 9.342 5.948 16.136v39.795c0 .425-.121.728-.425 1.032-.303.303-.607.424-1.032.424h-14.203c-.424 0-.728-.121-1.031-.424-.304-.304-.425-.607-.425-1.032V147.68c0-3.215-.911-5.884-2.732-7.886-1.821-2.002-4.248-3.033-7.223-3.033-2.974 0-5.402 1.031-7.222 3.033-1.821 2.002-2.732 4.671-2.732 7.886v36.276c0 .425-.121.728-.425 1.032-.303.303-.607.424-1.031.424H299.09c-.425 0-.729-.121-1.032-.424-.304-.304-.425-.607-.425-1.032v-59.449c0-.425.121-.728.425-1.032.303-.303.607-.424 1.032-.424h14.203c.424 0 .728.121 1.031.424.304.304.425.607.425 1.032v4.246c0 .243.061.425.243.485.182.061.304.061.364-.121 3.339-4.671 8.255-7.037 14.81-7.037 6.495 0 11.715 2.002 15.66 5.945zM401.848 103.893c.304-.303.607-.424 1.032-.424h14.203c.425 0 .728.121 1.032.424.303.304.425.607.425 1.032v82.016c0 .425-.122.728-.425 1.031-.304.303-.607.425-1.032.425H402.88c-.425 0-.728-.122-1.032-.425-.303-.303-.425-.606-.425-1.031v-4.004c0-.243-.06-.364-.243-.424-.182-.061-.303 0-.485.182-3.399 4.428-8.073 6.672-13.96 6.672-5.645 0-10.562-1.577-14.628-4.731-4.067-3.155-7.041-7.462-8.801-12.982-1.396-4.186-2.064-9.1-2.064-14.681 0-5.763.729-10.737 2.185-15.044 1.882-5.156 4.795-9.281 8.801-12.315 4.006-3.033 8.983-4.549 14.871-4.549 5.827 0 10.379 2.002 13.596 6.066.182.243.303.303.485.243.183-.061.243-.243.243-.486v-25.963c0-.425.182-.728.425-1.032zm-.546 53.323c0-5.399-.911-9.645-2.671-12.739-1.881-3.155-4.552-4.732-8.133-4.732-3.824 0-6.677 1.577-8.619 4.732-2.003 3.154-3.035 7.461-3.035 12.86 0 4.853.85 8.918 2.549 12.133 2.003 3.458 5.038 5.217 8.984 5.217 3.641 0 6.494-1.759 8.497-5.217 1.639-2.972 2.428-7.098 2.428-12.254zM116.428 139.221c-.304.303-.607.425-1.032.425h-11.654c-.425 0-.607.182-.607.606v25.721c0 2.67.546 4.671 1.639 5.945 1.092 1.274 2.853 1.942 5.281 1.942h4.006c.424 0 .728.121 1.031.424.304.304.425.607.425 1.031v11.526c0 .91-.485 1.396-1.456 1.578-3.399.182-5.827.242-7.284.242-6.737 0-11.715-1.092-15.053-3.336-3.338-2.245-5.038-6.43-5.098-12.557v-32.516c0-.424-.182-.606-.607-.606h-6.92c-.425 0-.728-.122-1.032-.425-.303-.303-.424-.607-.424-1.031v-10.798c0-.425.121-.728.424-1.031.304-.304.607-.425 1.032-.425h6.92c.425 0 .607-.182.607-.607v-14.438c0-.424.121-.727.424-1.031.304-.303.608-.424 1.032-.424h13.596c.425 0 .729.121 1.032.424.304.304.425.607.425 1.031v14.438c0 .425.182.607.607.607h11.654c.425 0 .728.121 1.032.425.303.303.425.606.425 1.031v10.798c0 .424-.122.728-.425 1.031zM133.968 183.929c-4.856-3.579-8.194-8.432-9.954-14.559-1.153-3.822-1.7-7.947-1.7-12.375 0-4.793.547-9.039 1.7-12.861 1.882-6.005 5.22-10.676 10.076-14.073 4.855-3.398 10.682-5.096 17.48-5.096 6.616 0 12.322 1.698 16.995 5.035 4.674 3.336 8.012 8.007 9.954 14.013a42.326 42.326 0 011.943 12.739c0 4.368-.546 8.432-1.7 12.254-1.76 6.309-5.098 11.283-9.893 14.863-4.795 3.579-10.622 5.399-17.42 5.399-6.798 0-12.625-1.76-17.481-5.339zm24.279-11.768c1.881-1.638 3.217-3.822 4.006-6.673.667-2.609.971-5.399.971-8.493 0-3.397-.304-6.248-.971-8.614-.911-2.73-2.246-4.914-4.128-6.431-1.881-1.516-4.127-2.305-6.798-2.305-2.731 0-5.037.789-6.858 2.305-1.821 1.517-3.157 3.701-3.946 6.431-.667 1.941-.971 4.792-.971 8.614 0 3.64.304 6.491.85 8.493.789 2.851 2.185 5.035 4.067 6.673 1.881 1.638 4.248 2.426 6.98 2.426 2.67 0 4.916-.788 6.798-2.426zM23.598 90.68L2.112 8.542l-.122-.485c0-.728.425-1.092 1.336-1.092h15.052c.79 0 1.336.424 1.578 1.213l11.533 49.38c.06.303.182.485.364.485s.303-.182.364-.485L43.385 8.299c.243-.91.79-1.334 1.578-1.334h14.689c.91 0 1.457.424 1.7 1.213l12.139 49.38c.06.242.182.364.364.424.182.061.303-.121.364-.424L85.387 8.299c.243-.91.79-1.334 1.578-1.334h14.325c1.153 0 1.578.546 1.335 1.577L82.717 90.68c-.243.788-.79 1.213-1.7 1.213H66.571c-.789 0-1.335-.425-1.578-1.213L52.611 38.146c-.06-.304-.182-.486-.364-.486s-.303.182-.364.486L40.35 90.558c-.182.91-.667 1.335-1.578 1.335H25.298c-.91 0-1.457-.425-1.7-1.213zM159.523 29.531c3.945 3.943 5.948 9.342 5.948 16.136v39.795c0 .425-.121.728-.424 1.032-.304.303-.607.424-1.032.424h-14.203c-.425 0-.729-.121-1.032-.424-.304-.304-.425-.607-.425-1.032V49.186c0-3.215-.91-5.884-2.731-7.886-1.821-2.002-4.249-3.033-7.223-3.033s-5.402 1.03-7.223 3.033c-1.821 2.002-2.731 4.67-2.731 7.886v36.276c0 .425-.122.728-.425 1.032-.304.303-.607.424-1.032.424h-14.203c-.425 0-.729-.121-1.032-.424-.304-.304-.425-.607-.425-1.032V3.446c0-.425.121-.728.425-1.031.303-.303.607-.425 1.032-.425h14.203c.425 0 .728.122 1.032.425.303.303.425.607.425 1.031V30.26c0 .243.06.425.242.485.182.061.304.061.364-.12 3.339-4.672 8.255-7.038 14.81-7.038 6.434 0 11.654 2.002 15.66 5.945zM231.254 65.007c-.061.97-.607 1.456-1.578 1.456h-37.511c-.485 0-.667.182-.485.606a20.679 20.679 0 001.335 4.853c2.125 4.55 6.373 6.794 12.868 6.794 5.159-.06 9.286-2.183 12.261-6.308.303-.486.667-.728 1.092-.728.243 0 .546.182.85.485l8.74 8.614c.425.425.607.789.607 1.092 0 .182-.182.485-.485.97-2.671 3.337-6.131 5.885-10.319 7.705-4.188 1.82-8.801 2.73-13.839 2.73-6.98 0-12.867-1.578-17.662-4.732-4.795-3.155-8.255-7.583-10.38-13.225-1.699-4.064-2.549-9.342-2.549-15.893 0-4.429.607-8.372 1.821-11.769 1.882-5.763 5.099-10.313 9.772-13.71 4.674-3.397 10.197-5.095 16.57-5.095 8.073 0 14.568 2.365 19.484 7.037 4.916 4.67 7.891 10.98 8.922 18.805.486 3.094.668 6.49.486 10.313zM192.408 50.81a32.208 32.208 0 00-.85 3.883c0 .425.183.607.607.607h21.001c.486 0 .668-.182.486-.607-.425-2.366-.607-3.458-.607-3.397-.728-2.427-2.003-4.307-3.824-5.642-1.821-1.334-4.067-2.002-6.737-2.002-5.099 0-8.437 2.366-10.076 7.159zM278.039 21.427c.668.303.91.91.728 1.82l-2.549 13.831c-.061.97-.668 1.274-1.699.85-1.214-.425-2.61-.607-4.249-.607-.668 0-1.518.06-2.671.242-2.913.243-5.402 1.335-7.405 3.216-2.003 1.88-3.035 4.428-3.035 7.582v33.122c0 .425-.121.728-.424 1.032-.304.303-.607.424-1.032.424H241.5c-.425 0-.729-.121-1.032-.424-.304-.304-.425-.607-.425-1.032v-59.45c0-.424.121-.727.425-1.03.303-.304.607-.425 1.032-.425h14.203c.425 0 .728.121 1.032.424.303.304.424.607.424 1.032v4.61c0 .243.061.425.243.485.182.061.304.061.364-.12 3.339-4.854 7.77-7.28 13.354-7.28 2.913 0 5.22.546 6.919 1.698zM339.645 64.594c-.061.971-.607 1.457-1.578 1.457h-37.511c-.486 0-.668.181-.486.606a20.682 20.682 0 001.336 4.853c2.124 4.55 6.373 6.794 12.867 6.794 5.16-.06 9.287-2.183 12.261-6.309.304-.485.668-.728 1.093-.728.243 0 .546.183.849.486l8.741 8.614c.425.424.607.788.607 1.092 0 .182-.182.485-.486.97-2.67 3.337-6.13 5.885-10.318 7.705-4.188 1.82-8.801 2.73-13.839 2.73-6.98 0-12.868-1.578-17.663-4.732-4.795-3.155-8.255-7.583-10.379-13.225-1.699-4.064-2.549-9.342-2.549-15.893 0-4.429.607-8.372 1.821-11.769 1.881-5.763 5.098-10.313 9.772-13.71 4.674-3.397 10.197-5.095 16.57-5.095 8.073 0 14.567 2.365 19.484 7.036 4.916 4.671 7.89 10.98 8.922 18.806.486 3.094.668 6.49.486 10.313zM300.799 50.4c-.304 1.032-.607 2.366-.85 3.883 0 .425.182.607.607.607h21.001c.486 0 .668-.183.486-.607-.425-2.366-.607-3.458-.607-3.397-.729-2.427-2.003-4.307-3.824-5.642-1.821-1.335-4.067-2.002-6.738-2.002-5.098 0-8.436 2.366-10.075 7.158z" fill="#fff" stroke="#000" stroke-width="3"/></svg>